<svg xmlns="http://www.w3.org/2000/svg" xmlns:xlink="http://www.w3.org/1999/xlink" contentStyleType="text/css" data-diagram-type="CLASS" height="324px" preserveAspectRatio="none" style="width:737px;height:324px;background:#FFFFFF;" version="1.1" viewBox="0 0 737 324" width="737px" zoomAndPan="magnify"><defs/><g><!--class Hash--><g class="entity" data-entity="Hash" data-source-line="2" data-uid="ent0002" id="entity_Hash"><rect fill="#F1F1F1" height="81.5999" rx="2.5" ry="2.5" style="stroke:#181818;stroke-width:0.5;" width="242.2151" x="7" y="235.6"/><ellipse cx="95.8876" cy="251.6" fill="#ADD1B2" rx="11" ry="11" style="stroke:#181818;stroke-width:1;"/><path d="M95.8876,258.0219 C97.0594,258.0219 98.2938,257.7563 99.6688,257.1469 L99.1844,255.6313 C98.0907,256.0531 97.0751,256.2406 96.2157,256.2406 C93.4969,256.2406 91.7782,254.3969 91.7782,251.4906 C91.7782,248.7406 93.3407,247.1469 96.0751,247.1469 C96.9969,247.1469 98.0126,247.3344 99.1532,247.7563 L99.7313,246.2406 C98.6376,245.6625 97.3407,245.3656 96.1532,245.3656 C92.3876,245.3656 89.8094,248.0063 89.8094,251.8188 C89.8094,255.4906 92.2938,258.0219 95.8876,258.0219 Z " fill="#000000"/><text fill="#000000" font-family="sans-serif" font-size="14" lengthAdjust="spacing" textLength="31.6959" x="116.3876" y="256.962">Hash</text><rect fill="#FFFFFF" height="16.4001" style="stroke:#181818;stroke-width:1;stroke-dasharray:2,2;" width="22.2441" x="229.971" y="232.6"/><text fill="#000000" font-family="sans-serif" font-size="12" font-style="italic" lengthAdjust="spacing" textLength="20.2441" x="230.971" y="245.3961">K, V</text><line style="stroke:#181818;stroke-width:0.5;" x1="8" x2="248.2151" y1="267.6" y2="267.6"/><line style="stroke:#181818;stroke-width:0.5;" x1="8" x2="248.2151" y1="275.6" y2="275.6"/><ellipse cx="18" cy="289.5" fill="#84BE84" rx="3" ry="3" style="stroke:#038048;stroke-width:1;"/><text fill="#000000" font-family="sans-serif" font-size="14" lengthAdjust="spacing" textLength="216.2151" x="27" y="293.3619">has_key( a_key : K [1] ) : Boolean [1]</text><ellipse cx="18" cy="306.2999" fill="#84BE84" rx="3" ry="3" style="stroke:#038048;stroke-width:1;"/><text fill="#000000" font-family="sans-serif" font-size="14" lengthAdjust="spacing" textLength="152.1794" x="27" y="310.1619">item( a_key : K [1] ) : V [1]</text></g><!--class Container--><g class="entity" data-entity="Container" data-source-line="7" data-uid="ent0003" id="entity_Container"><rect fill="#F1F1F1" height="165.5995" rx="2.5" ry="2.5" style="stroke:#181818;stroke-width:0.5;" width="311.1089" x="233.55" y="10"/><ellipse cx="348.8686" cy="26" fill="#A9DCDF" rx="11" ry="11" style="stroke:#181818;stroke-width:1;"/><path d="M343.3842,31.5 L345.4154,31.5 L349.4623,20.1563 L348.5561,20.1563 L352.3842,31.5 L354.5248,31.5 L350.1967,19.1719 L347.9779,19.1719 L343.3842,31.5 Z M345.7123,28 L352.1498,28 L352.1498,26.25 L345.7123,26.25 L345.7123,28 Z " fill="#000000"/><text fill="#000000" font-family="sans-serif" font-size="14" font-style="italic" lengthAdjust="spacing" textLength="61.1798" x="369.3686" y="31.362">Container</text><rect fill="#FFFFFF" height="16.4001" style="stroke:#181818;stroke-width:1;stroke-dasharray:2,2;" width="8.7921" x="538.8669" y="7"/><text fill="#000000" font-family="sans-serif" font-size="12" font-style="italic" lengthAdjust="spacing" textLength="6.7921" x="539.8669" y="19.7961">T</text><line style="stroke:#181818;stroke-width:0.5;" x1="234.55" x2="543.6589" y1="42" y2="42"/><line style="stroke:#181818;stroke-width:0.5;" x1="234.55" x2="543.6589" y1="50" y2="50"/><ellipse cx="244.55" cy="63.9" fill="#84BE84" rx="3" ry="3" style="stroke:#038048;stroke-width:1;"/><text fill="#000000" font-family="sans-serif" font-size="14" font-style="italic" lengthAdjust="spacing" textLength="159.0114" x="253.55" y="67.7619">has( v : T [1] ) : Boolean [1]</text><ellipse cx="244.55" cy="80.6999" fill="#84BE84" rx="3" ry="3" style="stroke:#038048;stroke-width:1;"/><text fill="#000000" font-family="sans-serif" font-size="14" font-style="italic" lengthAdjust="spacing" textLength="117.0256" x="253.55" y="84.5619">count() : Integer [1]</text><ellipse cx="244.55" cy="97.4998" fill="#84BE84" rx="3" ry="3" style="stroke:#038048;stroke-width:1;"/><text fill="#000000" font-family="sans-serif" font-size="14" font-style="italic" lengthAdjust="spacing" textLength="144.5634" x="253.55" y="101.3618">is_empty() : Boolean [1]</text><ellipse cx="244.55" cy="114.2997" fill="#84BE84" rx="3" ry="3" style="stroke:#038048;stroke-width:1;"/><text fill="#000000" font-family="sans-serif" font-size="14" lengthAdjust="spacing" textLength="285.1089" x="253.55" y="118.1617">there_exists( test : Operation [1] ) : Boolean [1]</text><ellipse cx="244.55" cy="131.0997" fill="#84BE84" rx="3" ry="3" style="stroke:#038048;stroke-width:1;"/><text fill="#000000" font-family="sans-serif" font-size="14" lengthAdjust="spacing" textLength="249.535" x="253.55" y="134.9616">for_all( test : Operation [1] ) : Boolean [1]</text><ellipse cx="244.55" cy="147.8996" fill="#84BE84" rx="3" ry="3" style="stroke:#038048;stroke-width:1;"/><text fill="#000000" font-family="sans-serif" font-size="14" lengthAdjust="spacing" textLength="263.871" x="253.55" y="151.7616">matching( test : Operation [1] ) : List&lt;T&gt; [*]</text><ellipse cx="244.55" cy="164.6995" fill="#84BE84" rx="3" ry="3" style="stroke:#038048;stroke-width:1;"/><text fill="#000000" font-family="sans-serif" font-size="14" lengthAdjust="spacing" textLength="218.9731" x="253.55" y="168.5615">select( test : Operation [1] ) : T [0..1]</text></g><!--class List--><g class="entity" data-entity="List" data-source-line="17" data-uid="ent0004" id="entity_List"><rect fill="#F1F1F1" height="81.5999" rx="2.5" ry="2.5" style="stroke:#181818;stroke-width:0.5;" width="95.9297" x="284.14" y="235.6"/><ellipse cx="313.1169" cy="251.6" fill="#ADD1B2" rx="11" ry="11" style="stroke:#181818;stroke-width:1;"/><path d="M313.1169,258.0219 C314.2888,258.0219 315.5231,257.7563 316.8981,257.1469 L316.4138,255.6313 C315.32,256.0531 314.3044,256.2406 313.445,256.2406 C310.7263,256.2406 309.0075,254.3969 309.0075,251.4906 C309.0075,248.7406 310.57,247.1469 313.3044,247.1469 C314.2263,247.1469 315.2419,247.3344 316.3825,247.7563 L316.9606,246.2406 C315.8669,245.6625 314.57,245.3656 313.3825,245.3656 C309.6169,245.3656 307.0388,248.0063 307.0388,251.8188 C307.0388,255.4906 309.5231,258.0219 313.1169,258.0219 Z " fill="#000000"/><text fill="#000000" font-family="sans-serif" font-size="14" lengthAdjust="spacing" textLength="22.0779" x="330.2229" y="256.962">List</text><rect fill="#FFFFFF" height="16.4001" style="stroke:#181818;stroke-width:1;stroke-dasharray:2,2;" width="8.7921" x="374.2777" y="232.6"/><text fill="#000000" font-family="sans-serif" font-size="12" font-style="italic" lengthAdjust="spacing" textLength="6.7921" x="375.2777" y="245.3961">T</text><line style="stroke:#181818;stroke-width:0.5;" x1="285.14" x2="379.0697" y1="267.6" y2="267.6"/><line style="stroke:#181818;stroke-width:0.5;" x1="285.14" x2="379.0697" y1="275.6" y2="275.6"/><ellipse cx="295.14" cy="289.5" fill="#84BE84" rx="3" ry="3" style="stroke:#038048;stroke-width:1;"/><text fill="#000000" font-family="sans-serif" font-size="14" lengthAdjust="spacing" textLength="69.9297" x="304.14" y="293.3619">first() : T [1]</text><ellipse cx="295.14" cy="306.2999" fill="#84BE84" rx="3" ry="3" style="stroke:#038048;stroke-width:1;"/><text fill="#000000" font-family="sans-serif" font-size="14" lengthAdjust="spacing" textLength="67.5077" x="304.14" y="310.1619">last() : T [1]</text></g><!--class Set--><g class="entity" data-entity="Set" data-source-line="22" data-uid="ent0005" id="entity_Set"><rect fill="#F1F1F1" height="48" rx="2.5" ry="2.5" style="stroke:#181818;stroke-width:0.5;" width="62.98" x="414.62" y="252.4"/><ellipse cx="429.62" cy="268.4" fill="#ADD1B2" rx="11" ry="11" style="stroke:#181818;stroke-width:1;"/><path d="M429.62,274.8219 C430.7919,274.8219 432.0263,274.5563 433.4013,273.9469 L432.9169,272.4313 C431.8231,272.8531 430.8075,273.0406 429.9481,273.0406 C427.2294,273.0406 425.5106,271.1969 425.5106,268.2906 C425.5106,265.5406 427.0731,263.9469 429.8075,263.9469 C430.7294,263.9469 431.745,264.1344 432.8856,264.5563 L433.4638,263.0406 C432.37,262.4625 431.0731,262.1656 429.8856,262.1656 C426.12,262.1656 423.5419,264.8063 423.5419,268.6188 C423.5419,272.2906 426.0263,274.8219 429.62,274.8219 Z " fill="#000000"/><text fill="#000000" font-family="sans-serif" font-size="14" lengthAdjust="spacing" textLength="20.1879" x="443.62" y="273.762">Set</text><rect fill="#FFFFFF" height="16.4001" style="stroke:#181818;stroke-width:1;stroke-dasharray:2,2;" width="8.7921" x="471.8079" y="249.4"/><text fill="#000000" font-family="sans-serif" font-size="12" font-style="italic" lengthAdjust="spacing" textLength="6.7921" x="472.8079" y="262.1961">T</text><line style="stroke:#181818;stroke-width:0.5;" x1="415.62" x2="476.6" y1="284.4" y2="284.4"/><line style="stroke:#181818;stroke-width:0.5;" x1="415.62" x2="476.6" y1="292.4" y2="292.4"/></g><!--class Array--><g class="entity" data-entity="Array" data-source-line="25" data-uid="ent0006" id="entity_Array"><rect fill="#F1F1F1" height="64.7999" rx="2.5" ry="2.5" style="stroke:#181818;stroke-width:0.5;" width="213.9212" x="512.15" y="244"/><ellipse cx="592.8607" cy="260" fill="#ADD1B2" rx="11" ry="11" style="stroke:#181818;stroke-width:1;"/><path d="M592.8607,266.4219 C594.0325,266.4219 595.2669,266.1563 596.6419,265.5469 L596.1575,264.0313 C595.0638,264.4531 594.0482,264.6406 593.1888,264.6406 C590.47,264.6406 588.7513,262.7969 588.7513,259.8906 C588.7513,257.1406 590.3138,255.5469 593.0482,255.5469 C593.97,255.5469 594.9857,255.7344 596.1263,256.1563 L596.7044,254.6406 C595.6107,254.0625 594.3138,253.7656 593.1263,253.7656 C589.3607,253.7656 586.7825,256.4063 586.7825,260.2188 C586.7825,263.8906 589.2669,266.4219 592.8607,266.4219 Z " fill="#000000"/><text fill="#000000" font-family="sans-serif" font-size="14" lengthAdjust="spacing" textLength="33.2079" x="613.3607" y="265.362">Array</text><rect fill="#FFFFFF" height="16.4001" style="stroke:#181818;stroke-width:1;stroke-dasharray:2,2;" width="8.7921" x="720.2792" y="241"/><text fill="#000000" font-family="sans-serif" font-size="12" font-style="italic" lengthAdjust="spacing" textLength="6.7921" x="721.2792" y="253.7961">T</text><line style="stroke:#181818;stroke-width:0.5;" x1="513.15" x2="725.0712" y1="276" y2="276"/><line style="stroke:#181818;stroke-width:0.5;" x1="513.15" x2="725.0712" y1="284" y2="284"/><ellipse cx="523.15" cy="297.9" fill="#84BE84" rx="3" ry="3" style="stroke:#038048;stroke-width:1;"/><text fill="#000000" font-family="sans-serif" font-size="14" lengthAdjust="spacing" textLength="187.9212" x="532.15" y="301.7619">item( a_key : Integer [1] ) : T [1]</text></g><!--reverse link Container to Hash--><g class="link" data-entity-1="Container" data-entity-2="Hash" data-source-line="29" data-uid="lnk7" id="link_Container_Hash"><path codeLine="29" d="M256.0538,186.3793 C226.5138,206.9293 210.91,217.79 185.81,235.25" fill="none" id="Container-backto-Hash" style="stroke:#181818;stroke-width:1;"/><polygon fill="none" points="270.83,176.1,252.6274,181.4539,259.4802,191.3047,270.83,176.1" style="stroke:#181818;stroke-width:1;"/></g><!--reverse link Container to List--><g class="link" data-entity-1="Container" data-entity-2="List" data-source-line="30" data-uid="lnk8" id="link_Container_List"><path codeLine="30" d="M357.8883,193.2735 C351.4083,213.9135 350.13,217.98 344.63,235.49" fill="none" id="Container-backto-List" style="stroke:#181818;stroke-width:1;"/><polygon fill="none" points="363.28,176.1,352.1638,191.4763,363.6128,195.0707,363.28,176.1" style="stroke:#181818;stroke-width:1;"/></g><!--reverse link Container to Set--><g class="link" data-entity-1="Container" data-entity-2="Set" data-source-line="31" data-uid="lnk9" id="link_Container_Set"><path codeLine="31" d="M420.3308,193.2738 C429.0508,221.0538 432.71,232.73 438.8,252.12" fill="none" id="Container-backto-Set" style="stroke:#181818;stroke-width:1;"/><polygon fill="none" points="414.94,176.1,414.6062,195.0707,426.0554,191.4769,414.94,176.1" style="stroke:#181818;stroke-width:1;"/></g><!--reverse link Container to Array--><g class="link" data-entity-1="Container" data-entity-2="Array" data-source-line="32" data-uid="lnk10" id="link_Container_Array"><path codeLine="32" d="M507.4677,187.2539 C537.7777,211.1839 554.96,224.75 578.76,243.55" fill="none" id="Container-backto-Array" style="stroke:#181818;stroke-width:1;"/><polygon fill="none" points="493.34,176.1,503.7497,191.9631,511.1856,182.5447,493.34,176.1" style="stroke:#181818;stroke-width:1;"/></g></g></svg>
