<svg xmlns="http://www.w3.org/2000/svg" xmlns:xlink="http://www.w3.org/1999/xlink" contentStyleType="text/css" data-diagram-type="CLASS" height="287px" preserveAspectRatio="none" style="width:520px;height:287px;background:#FFFFFF;" version="1.1" viewBox="0 0 520 287" width="520px" zoomAndPan="magnify"><defs/><g><!--class Terminology_code--><g class="entity" data-entity="Terminology_code" data-source-line="2" data-uid="ent0002" id="entity_Terminology_code"><rect fill="#F1F1F1" height="115.1997" rx="2.5" ry="2.5" style="stroke:#181818;stroke-width:0.5;" width="235.9292" x="22.62" y="7"/><ellipse cx="78.4868" cy="23" fill="#ADD1B2" rx="11" ry="11" style="stroke:#181818;stroke-width:1;"/><path d="M78.4868,29.4219 C79.6587,29.4219 80.8931,29.1563 82.2681,28.5469 L81.7837,27.0313 C80.6899,27.4531 79.6743,27.6406 78.8149,27.6406 C76.0962,27.6406 74.3774,25.7969 74.3774,22.8906 C74.3774,20.1406 75.9399,18.5469 78.6743,18.5469 C79.5962,18.5469 80.6118,18.7344 81.7524,19.1563 L82.3306,17.6406 C81.2368,17.0625 79.9399,16.7656 78.7524,16.7656 C74.9868,16.7656 72.4087,19.4063 72.4087,23.2188 C72.4087,26.8906 74.8931,29.4219 78.4868,29.4219 Z " fill="#000000"/><text fill="#000000" font-family="sans-serif" font-size="14" lengthAdjust="spacing" textLength="115.6955" x="98.9868" y="28.362">Terminology_code</text><line style="stroke:#181818;stroke-width:0.5;" x1="23.62" x2="257.5492" y1="39" y2="39"/><ellipse cx="33.62" cy="52.9" fill="none" rx="3" ry="3" style="stroke:#038048;stroke-width:1;"/><text fill="#000000" font-family="sans-serif" font-size="14" lengthAdjust="spacing" textLength="160.3834" x="42.62" y="56.7619">terminology_id : String [1]</text><ellipse cx="33.62" cy="69.6999" fill="none" rx="3" ry="3" style="stroke:#038048;stroke-width:1;"/><text fill="#000000" font-family="sans-serif" font-size="14" lengthAdjust="spacing" textLength="209.9292" x="42.62" y="73.5619">terminology_version : String [0..1]</text><ellipse cx="33.62" cy="86.4998" fill="none" rx="3" ry="3" style="stroke:#038048;stroke-width:1;"/><text fill="#000000" font-family="sans-serif" font-size="14" lengthAdjust="spacing" textLength="139.0195" x="42.62" y="90.3618">code_string : String [1]</text><ellipse cx="33.62" cy="103.2997" fill="none" rx="3" ry="3" style="stroke:#038048;stroke-width:1;"/><text fill="#000000" font-family="sans-serif" font-size="14" lengthAdjust="spacing" textLength="78.9597" x="42.62" y="107.1617">uri : Uri [0..1]</text><line style="stroke:#181818;stroke-width:0.5;" x1="23.62" x2="257.5492" y1="114.1997" y2="114.1997"/></g><!--class Terminology_term--><g class="entity" data-entity="Terminology_term" data-source-line="9" data-uid="ent0003" id="entity_Terminology_term"><rect fill="#F1F1F1" height="81.5999" rx="2.5" ry="2.5" style="stroke:#181818;stroke-width:0.5;" width="219.6333" x="293.77" y="23.8"/><ellipse cx="341.3489" cy="39.8" fill="#ADD1B2" rx="11" ry="11" style="stroke:#181818;stroke-width:1;"/><path d="M341.3489,46.2219 C342.5207,46.2219 343.7551,45.9563 345.1301,45.3469 L344.6457,43.8313 C343.552,44.2531 342.5364,44.4406 341.677,44.4406 C338.9582,44.4406 337.2395,42.5969 337.2395,39.6906 C337.2395,36.9406 338.802,35.3469 341.5364,35.3469 C342.4582,35.3469 343.4739,35.5344 344.6145,35.9563 L345.1926,34.4406 C344.0989,33.8625 342.802,33.5656 341.6145,33.5656 C337.8489,33.5656 335.2707,36.2063 335.2707,40.0188 C335.2707,43.6906 337.7551,46.2219 341.3489,46.2219 Z " fill="#000000"/><text fill="#000000" font-family="sans-serif" font-size="14" lengthAdjust="spacing" textLength="115.9755" x="361.8489" y="45.162">Terminology_term</text><line style="stroke:#181818;stroke-width:0.5;" x1="294.77" x2="512.4033" y1="55.8" y2="55.8"/><ellipse cx="304.77" cy="69.7" fill="none" rx="3" ry="3" style="stroke:#038048;stroke-width:1;"/><text fill="#000000" font-family="sans-serif" font-size="14" lengthAdjust="spacing" textLength="193.6333" x="313.77" y="73.5619">concept : Terminology_code [1]</text><ellipse cx="304.77" cy="86.4999" fill="none" rx="3" ry="3" style="stroke:#038048;stroke-width:1;"/><text fill="#000000" font-family="sans-serif" font-size="14" lengthAdjust="spacing" textLength="90.0477" x="313.77" y="90.3619">text : String [1]</text><line style="stroke:#181818;stroke-width:0.5;" x1="294.77" x2="512.4033" y1="97.3999" y2="97.3999"/></g><!--class CODE_PHRASE--><g class="entity" data-entity="CODE_PHRASE" data-source-line="14" data-uid="ent0004" id="entity_CODE_PHRASE"><rect fill="#F1F1F1" height="98.3998" rx="2.5" ry="2.5" style="stroke:#181818;stroke-width:0.5;" width="267.177" x="7" y="182.2"/><ellipse cx="88.0807" cy="198.2" fill="#ADD1B2" rx="11" ry="11" style="stroke:#181818;stroke-width:1;"/><path d="M88.0807,204.6219 C89.2526,204.6219 90.487,204.3563 91.862,203.7469 L91.3776,202.2313 C90.2838,202.6531 89.2682,202.8406 88.4088,202.8406 C85.6901,202.8406 83.9713,200.9969 83.9713,198.0906 C83.9713,195.3406 85.5338,193.7469 88.2682,193.7469 C89.1901,193.7469 90.2057,193.9344 91.3463,194.3563 L91.9245,192.8406 C90.8307,192.2625 89.5338,191.9656 88.3463,191.9656 C84.5807,191.9656 82.0026,194.6063 82.0026,198.4188 C82.0026,202.0906 84.487,204.6219 88.0807,204.6219 Z " fill="#000000"/><text fill="#000000" font-family="sans-serif" font-size="14" lengthAdjust="spacing" textLength="96.5156" x="108.5807" y="203.562">CODE_PHRASE</text><line style="stroke:#181818;stroke-width:0.5;" x1="8" x2="273.177" y1="214.2" y2="214.2"/><ellipse cx="18" cy="228.1" fill="none" rx="3" ry="3" style="stroke:#038048;stroke-width:1;"/><text fill="#000000" font-family="sans-serif" font-size="14" lengthAdjust="spacing" textLength="241.177" x="27" y="231.9619">terminology_id : TERMINOLOGY_ID [1]</text><ellipse cx="18" cy="244.8999" fill="none" rx="3" ry="3" style="stroke:#038048;stroke-width:1;"/><text fill="#000000" font-family="sans-serif" font-size="14" lengthAdjust="spacing" textLength="139.0195" x="27" y="248.7619">code_string : String [1]</text><ellipse cx="18" cy="261.6998" fill="none" rx="3" ry="3" style="stroke:#038048;stroke-width:1;"/><text fill="#000000" font-family="sans-serif" font-size="14" lengthAdjust="spacing" textLength="177.6173" x="27" y="265.5618">preferred_term : String [0..1]</text><line style="stroke:#181818;stroke-width:0.5;" x1="8" x2="273.177" y1="272.5998" y2="272.5998"/></g></g></svg>
