<svg xmlns="http://www.w3.org/2000/svg" xmlns:xlink="http://www.w3.org/1999/xlink" contentStyleType="text/css" data-diagram-type="CLASS" height="563px" preserveAspectRatio="none" style="width:1915px;height:563px;background:#FFFFFF;" version="1.1" viewBox="0 0 1915 563" width="1915px" zoomAndPan="magnify"><defs/><g><!--class ARCHETYPE_ID--><g class="entity" data-entity="ARCHETYPE_ID" data-source-line="2" data-uid="ent0002" id="entity_ARCHETYPE_ID"><rect fill="#F1F1F1" height="165.5995" rx="2.5" ry="2.5" style="stroke:#181818;stroke-width:0.5;" width="221.5652" x="7" y="215.8"/><ellipse cx="64.5748" cy="231.8" fill="#ADD1B2" rx="11" ry="11" style="stroke:#181818;stroke-width:1;"/><path d="M64.5748,238.2219 C65.7467,238.2219 66.9811,237.9563 68.3561,237.3469 L67.8717,235.8313 C66.7779,236.2531 65.7623,236.4406 64.9029,236.4406 C62.1842,236.4406 60.4654,234.5969 60.4654,231.6906 C60.4654,228.9406 62.0279,227.3469 64.7623,227.3469 C65.6842,227.3469 66.6998,227.5344 67.8404,227.9563 L68.4186,226.4406 C67.3248,225.8625 66.0279,225.5656 64.8404,225.5656 C61.0748,225.5656 58.4967,228.2063 58.4967,232.0188 C58.4967,235.6906 60.9811,238.2219 64.5748,238.2219 Z " fill="#000000"/><text fill="#000000" font-family="sans-serif" font-size="14" lengthAdjust="spacing" textLength="97.9156" x="85.0748" y="237.162">ARCHETYPE_ID</text><line style="stroke:#181818;stroke-width:0.5;" x1="8" x2="227.5652" y1="247.8" y2="247.8"/><line style="stroke:#181818;stroke-width:0.5;" x1="8" x2="227.5652" y1="255.8" y2="255.8"/><ellipse cx="18" cy="269.7" fill="#84BE84" rx="3" ry="3" style="stroke:#038048;stroke-width:1;"/><text fill="#000000" font-family="sans-serif" font-size="14" lengthAdjust="spacing" textLength="195.5652" x="27" y="273.5619">qualified_rm_entity() : String [1]</text><ellipse cx="18" cy="286.4999" fill="#84BE84" rx="3" ry="3" style="stroke:#038048;stroke-width:1;"/><text fill="#000000" font-family="sans-serif" font-size="14" lengthAdjust="spacing" textLength="177.6733" x="27" y="290.3619">domain_concept() : String [1]</text><ellipse cx="18" cy="303.2998" fill="#84BE84" rx="3" ry="3" style="stroke:#038048;stroke-width:1;"/><text fill="#000000" font-family="sans-serif" font-size="14" lengthAdjust="spacing" textLength="160.5514" x="27" y="307.1618">rm_originator() : String [1]</text><ellipse cx="18" cy="320.0997" fill="#84BE84" rx="3" ry="3" style="stroke:#038048;stroke-width:1;"/><text fill="#000000" font-family="sans-serif" font-size="14" lengthAdjust="spacing" textLength="133.9935" x="27" y="323.9617">rm_name() : String [1]</text><ellipse cx="18" cy="336.8997" fill="#84BE84" rx="3" ry="3" style="stroke:#038048;stroke-width:1;"/><text fill="#000000" font-family="sans-serif" font-size="14" lengthAdjust="spacing" textLength="134.6935" x="27" y="340.7616">rm_entity() : String [1]</text><ellipse cx="18" cy="353.6996" fill="#84BE84" rx="3" ry="3" style="stroke:#038048;stroke-width:1;"/><text fill="#000000" font-family="sans-serif" font-size="14" lengthAdjust="spacing" textLength="158.8154" x="27" y="357.5616">specialisation() : String [1]</text><ellipse cx="18" cy="370.4995" fill="#84BE84" rx="3" ry="3" style="stroke:#038048;stroke-width:1;"/><text fill="#000000" font-family="sans-serif" font-size="14" lengthAdjust="spacing" textLength="138.0395" x="27" y="374.3615">version_id() : String [1]</text></g><!--class GENERIC_ID--><g class="entity" data-entity="GENERIC_ID" data-source-line="12" data-uid="ent0003" id="entity_GENERIC_ID"><rect fill="#F1F1F1" height="64.7999" rx="2.5" ry="2.5" style="stroke:#181818;stroke-width:0.5;" width="140.1416" x="263.71" y="266.2"/><ellipse cx="291.8229" cy="282.2" fill="#ADD1B2" rx="11" ry="11" style="stroke:#181818;stroke-width:1;"/><path d="M291.8229,288.6219 C292.9948,288.6219 294.2292,288.3563 295.6042,287.7469 L295.1198,286.2313 C294.0261,286.6531 293.0104,286.8406 292.1511,286.8406 C289.4323,286.8406 287.7136,284.9969 287.7136,282.0906 C287.7136,279.3406 289.2761,277.7469 292.0104,277.7469 C292.9323,277.7469 293.9479,277.9344 295.0886,278.3563 L295.6667,276.8406 C294.5729,276.2625 293.2761,275.9656 292.0886,275.9656 C288.3229,275.9656 285.7448,278.6063 285.7448,282.4188 C285.7448,286.0906 288.2292,288.6219 291.8229,288.6219 Z " fill="#000000"/><text fill="#000000" font-family="sans-serif" font-size="14" lengthAdjust="spacing" textLength="79.0017" x="308.7369" y="287.562">GENERIC_ID</text><line style="stroke:#181818;stroke-width:0.5;" x1="264.71" x2="402.8516" y1="298.2" y2="298.2"/><ellipse cx="274.71" cy="312.1" fill="none" rx="3" ry="3" style="stroke:#038048;stroke-width:1;"/><text fill="#000000" font-family="sans-serif" font-size="14" lengthAdjust="spacing" textLength="114.1416" x="283.71" y="315.9619">scheme : String [1]</text><line style="stroke:#181818;stroke-width:0.5;" x1="264.71" x2="402.8516" y1="322.9999" y2="322.9999"/></g><!--class HIER_OBJECT_ID--><g class="entity" data-entity="HIER_OBJECT_ID" data-source-line="16" data-uid="ent0004" id="entity_HIER_OBJECT_ID"><rect fill="#F1F1F1" height="48" rx="2.5" ry="2.5" style="stroke:#181818;stroke-width:0.5;" width="140.5416" x="546.51" y="475"/><ellipse cx="561.51" cy="491" fill="#ADD1B2" rx="11" ry="11" style="stroke:#181818;stroke-width:1;"/><path d="M561.51,497.4219 C562.6819,497.4219 563.9163,497.1563 565.2913,496.5469 L564.8069,495.0313 C563.7131,495.4531 562.6975,495.6406 561.8381,495.6406 C559.1194,495.6406 557.4006,493.7969 557.4006,490.8906 C557.4006,488.1406 558.9631,486.5469 561.6975,486.5469 C562.6194,486.5469 563.635,486.7344 564.7756,487.1563 L565.3538,485.6406 C564.26,485.0625 562.9631,484.7656 561.7756,484.7656 C558.01,484.7656 555.4319,487.4063 555.4319,491.2188 C555.4319,494.8906 557.9163,497.4219 561.51,497.4219 Z " fill="#000000"/><text fill="#000000" font-family="sans-serif" font-size="14" lengthAdjust="spacing" textLength="108.5416" x="575.51" y="496.362">HIER_OBJECT_ID</text><line style="stroke:#181818;stroke-width:0.5;" x1="547.51" x2="686.0516" y1="507" y2="507"/><line style="stroke:#181818;stroke-width:0.5;" x1="547.51" x2="686.0516" y1="515" y2="515"/></g><!--class LOCATABLE_REF--><g class="entity" data-entity="LOCATABLE_REF" data-source-line="19" data-uid="ent0005" id="entity_LOCATABLE_REF"><rect fill="#F1F1F1" height="98.3998" rx="2.5" ry="2.5" style="stroke:#181818;stroke-width:0.5;" width="160.2035" x="1031.68" y="249.4"/><ellipse cx="1055.761" cy="265.4" fill="#ADD1B2" rx="11" ry="11" style="stroke:#181818;stroke-width:1;"/><path d="M1055.761,271.8219 C1056.9328,271.8219 1058.1672,271.5563 1059.5422,270.9469 L1059.0578,269.4313 C1057.9641,269.8531 1056.9485,270.0406 1056.0891,270.0406 C1053.3703,270.0406 1051.6516,268.1969 1051.6516,265.2906 C1051.6516,262.5406 1053.2141,260.9469 1055.9485,260.9469 C1056.8703,260.9469 1057.886,261.1344 1059.0266,261.5563 L1059.6047,260.0406 C1058.511,259.4625 1057.2141,259.1656 1056.0266,259.1656 C1052.261,259.1656 1049.6828,261.8063 1049.6828,265.6188 C1049.6828,269.2906 1052.1672,271.8219 1055.761,271.8219 Z " fill="#000000"/><text fill="#000000" font-family="sans-serif" font-size="14" lengthAdjust="spacing" textLength="108.0235" x="1071.779" y="270.762">LOCATABLE_REF</text><line style="stroke:#181818;stroke-width:0.5;" x1="1032.68" x2="1190.8835" y1="281.4" y2="281.4"/><ellipse cx="1042.68" cy="295.3" fill="none" rx="3" ry="3" style="stroke:#038048;stroke-width:1;"/><text fill="#000000" font-family="sans-serif" font-size="14" lengthAdjust="spacing" textLength="109.8996" x="1051.68" y="299.1619">path : String [0..1]</text><ellipse cx="1042.68" cy="312.0999" fill="none" rx="3" ry="3" style="stroke:#038048;stroke-width:1;"/><text fill="#000000" font-family="sans-serif" font-size="14" lengthAdjust="spacing" textLength="134.2035" x="1051.68" y="315.9619">id : UID_BASED_ID [1]</text><line style="stroke:#181818;stroke-width:0.5;" x1="1032.68" x2="1190.8835" y1="322.9999" y2="322.9999"/><ellipse cx="1042.68" cy="336.8998" fill="#84BE84" rx="3" ry="3" style="stroke:#038048;stroke-width:1;"/><text fill="#000000" font-family="sans-serif" font-size="14" lengthAdjust="spacing" textLength="111.6076" x="1051.68" y="340.7618">as_uri() : String [1]</text></g><!--class OBJECT_ID--><g class="entity" data-entity="OBJECT_ID" data-source-line="25" data-uid="ent0006" id="entity_OBJECT_ID"><rect fill="#F1F1F1" height="64.7999" rx="2.5" ry="2.5" style="stroke:#181818;stroke-width:0.5;" width="124.9656" x="458.3" y="49"/><ellipse cx="483.2504" cy="65" fill="#A9DCDF" rx="11" ry="11" style="stroke:#181818;stroke-width:1;"/><path d="M477.766,70.5 L479.7972,70.5 L483.8441,59.1563 L482.9379,59.1563 L486.766,70.5 L488.9066,70.5 L484.5785,58.1719 L482.3597,58.1719 L477.766,70.5 Z M480.0941,67 L486.5316,67 L486.5316,65.25 L480.0941,65.25 L480.0941,67 Z " fill="#000000"/><text fill="#000000" font-family="sans-serif" font-size="14" font-style="italic" lengthAdjust="spacing" textLength="70.8537" x="499.4615" y="70.362">OBJECT_ID</text><line style="stroke:#181818;stroke-width:0.5;" x1="459.3" x2="582.2656" y1="81" y2="81"/><ellipse cx="469.3" cy="94.9" fill="none" rx="3" ry="3" style="stroke:#038048;stroke-width:1;"/><text fill="#000000" font-family="sans-serif" font-size="14" lengthAdjust="spacing" textLength="98.9656" x="478.3" y="98.7619">value : String [1]</text><line style="stroke:#181818;stroke-width:0.5;" x1="459.3" x2="582.2656" y1="105.7999" y2="105.7999"/></g><!--class OBJECT_REF--><g class="entity" data-entity="OBJECT_REF" data-source-line="29" data-uid="ent0007" id="entity_OBJECT_REF"><rect fill="#F1F1F1" height="98.3998" rx="2.5" ry="2.5" style="stroke:#181818;stroke-width:0.5;" width="162.4715" x="1198.55" y="32.2"/><ellipse cx="1235.4073" cy="48.2" fill="#ADD1B2" rx="11" ry="11" style="stroke:#181818;stroke-width:1;"/><path d="M1235.4073,54.6219 C1236.5792,54.6219 1237.8136,54.3563 1239.1886,53.7469 L1238.7042,52.2313 C1237.6104,52.6531 1236.5948,52.8406 1235.7354,52.8406 C1233.0167,52.8406 1231.2979,50.9969 1231.2979,48.0906 C1231.2979,45.3406 1232.8604,43.7469 1235.5948,43.7469 C1236.5167,43.7469 1237.5323,43.9344 1238.6729,44.3563 L1239.2511,42.8406 C1238.1573,42.2625 1236.8604,41.9656 1235.6729,41.9656 C1231.9073,41.9656 1229.3292,44.6063 1229.3292,48.4188 C1229.3292,52.0906 1231.8136,54.6219 1235.4073,54.6219 Z " fill="#000000"/><text fill="#000000" font-family="sans-serif" font-size="14" lengthAdjust="spacing" textLength="81.8997" x="1254.2645" y="53.562">OBJECT_REF</text><line style="stroke:#181818;stroke-width:0.5;" x1="1199.55" x2="1360.0215" y1="64.2" y2="64.2"/><ellipse cx="1209.55" cy="78.1" fill="none" rx="3" ry="3" style="stroke:#038048;stroke-width:1;"/><text fill="#000000" font-family="sans-serif" font-size="14" lengthAdjust="spacing" textLength="136.4715" x="1218.55" y="81.9619">namespace : String [1]</text><ellipse cx="1209.55" cy="94.8999" fill="none" rx="3" ry="3" style="stroke:#038048;stroke-width:1;"/><text fill="#000000" font-family="sans-serif" font-size="14" lengthAdjust="spacing" textLength="93.1416" x="1218.55" y="98.7619">type : String [1]</text><ellipse cx="1209.55" cy="111.6998" fill="none" rx="3" ry="3" style="stroke:#038048;stroke-width:1;"/><text fill="#000000" font-family="sans-serif" font-size="14" lengthAdjust="spacing" textLength="110.8235" x="1218.55" y="115.5618">id : OBJECT_ID [1]</text><line style="stroke:#181818;stroke-width:0.5;" x1="1199.55" x2="1360.0215" y1="122.5998" y2="122.5998"/></g><!--class OBJECT_VERSION_ID--><g class="entity" data-entity="OBJECT_VERSION_ID" data-source-line="35" data-uid="ent0008" id="entity_OBJECT_VERSION_ID"><rect fill="#F1F1F1" height="115.1997" rx="2.5" ry="2.5" style="stroke:#181818;stroke-width:0.5;" width="277.285" x="722.14" y="441.4"/><ellipse cx="788.6468" cy="457.4" fill="#ADD1B2" rx="11" ry="11" style="stroke:#181818;stroke-width:1;"/><path d="M788.6468,463.8219 C789.8186,463.8219 791.053,463.5563 792.428,462.9469 L791.9436,461.4313 C790.8499,461.8531 789.8343,462.0406 788.9749,462.0406 C786.2561,462.0406 784.5374,460.1969 784.5374,457.2906 C784.5374,454.5406 786.0999,452.9469 788.8343,452.9469 C789.7561,452.9469 790.7718,453.1344 791.9124,453.5563 L792.4905,452.0406 C791.3968,451.4625 790.0999,451.1656 788.9124,451.1656 C785.1468,451.1656 782.5686,453.8063 782.5686,457.6188 C782.5686,461.2906 785.053,463.8219 788.6468,463.8219 Z " fill="#000000"/><text fill="#000000" font-family="sans-serif" font-size="14" lengthAdjust="spacing" textLength="135.7715" x="809.1468" y="462.762">OBJECT_VERSION_ID</text><line style="stroke:#181818;stroke-width:0.5;" x1="723.14" x2="998.425" y1="473.4" y2="473.4"/><line style="stroke:#181818;stroke-width:0.5;" x1="723.14" x2="998.425" y1="481.4" y2="481.4"/><ellipse cx="733.14" cy="495.3" fill="#84BE84" rx="3" ry="3" style="stroke:#038048;stroke-width:1;"/><text fill="#000000" font-family="sans-serif" font-size="14" lengthAdjust="spacing" textLength="116.8296" x="742.14" y="499.1619">object_id() : UID [1]</text><ellipse cx="733.14" cy="512.0999" fill="#84BE84" rx="3" ry="3" style="stroke:#038048;stroke-width:1;"/><text fill="#000000" font-family="sans-serif" font-size="14" lengthAdjust="spacing" textLength="180.8373" x="742.14" y="515.9619">creating_system_id() : UID [1]</text><ellipse cx="733.14" cy="528.8998" fill="#84BE84" rx="3" ry="3" style="stroke:#038048;stroke-width:1;"/><text fill="#000000" font-family="sans-serif" font-size="14" lengthAdjust="spacing" textLength="251.285" x="742.14" y="532.7618">version_tree_id() : VERSION_TREE_ID [1]</text><ellipse cx="733.14" cy="545.6997" fill="#84BE84" rx="3" ry="3" style="stroke:#038048;stroke-width:1;"/><text fill="#000000" font-family="sans-serif" font-size="14" lengthAdjust="spacing" textLength="147.8394" x="742.14" y="549.5617">is_branch() : Boolean [1]</text></g><!--class PARTY_REF--><g class="entity" data-entity="PARTY_REF" data-source-line="42" data-uid="ent0009" id="entity_PARTY_REF"><rect fill="#F1F1F1" height="48" rx="2.5" ry="2.5" style="stroke:#181818;stroke-width:0.5;" width="105.4857" x="1227.04" y="274.6"/><ellipse cx="1242.04" cy="290.6" fill="#ADD1B2" rx="11" ry="11" style="stroke:#181818;stroke-width:1;"/><path d="M1242.04,297.0219 C1243.2119,297.0219 1244.4463,296.7563 1245.8213,296.1469 L1245.3369,294.6313 C1244.2431,295.0531 1243.2275,295.2406 1242.3681,295.2406 C1239.6494,295.2406 1237.9306,293.3969 1237.9306,290.4906 C1237.9306,287.7406 1239.4931,286.1469 1242.2275,286.1469 C1243.1494,286.1469 1244.165,286.3344 1245.3056,286.7563 L1245.8838,285.2406 C1244.79,284.6625 1243.4931,284.3656 1242.3056,284.3656 C1238.54,284.3656 1235.9619,287.0063 1235.9619,290.8188 C1235.9619,294.4906 1238.4463,297.0219 1242.04,297.0219 Z " fill="#000000"/><text fill="#000000" font-family="sans-serif" font-size="14" lengthAdjust="spacing" textLength="73.4857" x="1256.04" y="295.962">PARTY_REF</text><line style="stroke:#181818;stroke-width:0.5;" x1="1228.04" x2="1331.5257" y1="306.6" y2="306.6"/><line style="stroke:#181818;stroke-width:0.5;" x1="1228.04" x2="1331.5257" y1="314.6" y2="314.6"/></g><!--class TERMINOLOGY_ID--><g class="entity" data-entity="TERMINOLOGY_ID" data-source-line="45" data-uid="ent0010" id="entity_TERMINOLOGY_ID"><rect fill="#F1F1F1" height="81.5999" rx="2.5" ry="2.5" style="stroke:#181818;stroke-width:0.5;" width="164.0395" x="438.76" y="257.8"/><ellipse cx="459.9745" cy="273.8" fill="#ADD1B2" rx="11" ry="11" style="stroke:#181818;stroke-width:1;"/><path d="M459.9745,280.2219 C461.1464,280.2219 462.3807,279.9563 463.7557,279.3469 L463.2714,277.8313 C462.1776,278.2531 461.162,278.4406 460.3026,278.4406 C457.5839,278.4406 455.8651,276.5969 455.8651,273.6906 C455.8651,270.9406 457.4276,269.3469 460.162,269.3469 C461.0839,269.3469 462.0995,269.5344 463.2401,269.9563 L463.8182,268.4406 C462.7245,267.8625 461.4276,267.5656 460.2401,267.5656 C456.4745,267.5656 453.8964,270.2063 453.8964,274.0188 C453.8964,277.6906 456.3807,280.2219 459.9745,280.2219 Z " fill="#000000"/><text fill="#000000" font-family="sans-serif" font-size="14" lengthAdjust="spacing" textLength="118.2295" x="475.3555" y="279.162">TERMINOLOGY_ID</text><line style="stroke:#181818;stroke-width:0.5;" x1="439.76" x2="601.7995" y1="289.8" y2="289.8"/><line style="stroke:#181818;stroke-width:0.5;" x1="439.76" x2="601.7995" y1="297.8" y2="297.8"/><ellipse cx="449.76" cy="311.7" fill="#84BE84" rx="3" ry="3" style="stroke:#038048;stroke-width:1;"/><text fill="#000000" font-family="sans-serif" font-size="14" lengthAdjust="spacing" textLength="109.3116" x="458.76" y="315.5619">name() : String [1]</text><ellipse cx="449.76" cy="328.4999" fill="#84BE84" rx="3" ry="3" style="stroke:#038048;stroke-width:1;"/><text fill="#000000" font-family="sans-serif" font-size="14" lengthAdjust="spacing" textLength="138.0395" x="458.76" y="332.3619">version_id() : String [1]</text></g><!--class VERSION_TREE_ID--><g class="entity" data-entity="VERSION_TREE_ID" data-source-line="50" data-uid="ent0011" id="entity_VERSION_TREE_ID"><rect fill="#F1F1F1" height="148.7996" rx="2.5" ry="2.5" style="stroke:#181818;stroke-width:0.5;" width="199.0533" x="1414.26" y="7"/><ellipse cx="1451.0795" cy="23" fill="#ADD1B2" rx="11" ry="11" style="stroke:#181818;stroke-width:1;"/><path d="M1451.0795,29.4219 C1452.2514,29.4219 1453.4858,29.1563 1454.8608,28.5469 L1454.3764,27.0313 C1453.2826,27.4531 1452.267,27.6406 1451.4076,27.6406 C1448.6889,27.6406 1446.9701,25.7969 1446.9701,22.8906 C1446.9701,20.1406 1448.5326,18.5469 1451.267,18.5469 C1452.1889,18.5469 1453.2045,18.7344 1454.3451,19.1563 L1454.9233,17.6406 C1453.8295,17.0625 1452.5326,16.7656 1451.3451,16.7656 C1447.5795,16.7656 1445.0014,19.4063 1445.0014,23.2188 C1445.0014,26.8906 1447.4858,29.4219 1451.0795,29.4219 Z " fill="#000000"/><text fill="#000000" font-family="sans-serif" font-size="14" lengthAdjust="spacing" textLength="118.5655" x="1469.9283" y="28.362">VERSION_TREE_ID</text><line style="stroke:#181818;stroke-width:0.5;" x1="1415.26" x2="1612.3133" y1="39" y2="39"/><ellipse cx="1425.26" cy="52.9" fill="none" rx="3" ry="3" style="stroke:#038048;stroke-width:1;"/><text fill="#000000" font-family="sans-serif" font-size="14" lengthAdjust="spacing" textLength="98.9656" x="1434.26" y="56.7619">value : String [1]</text><line style="stroke:#181818;stroke-width:0.5;" x1="1415.26" x2="1612.3133" y1="63.7999" y2="63.7999"/><ellipse cx="1425.26" cy="77.6999" fill="#84BE84" rx="3" ry="3" style="stroke:#038048;stroke-width:1;"/><text fill="#000000" font-family="sans-serif" font-size="14" lengthAdjust="spacing" textLength="159.6694" x="1434.26" y="81.5619">trunk_version() : String [1]</text><ellipse cx="1425.26" cy="94.4998" fill="#84BE84" rx="3" ry="3" style="stroke:#038048;stroke-width:1;"/><text fill="#000000" font-family="sans-serif" font-size="14" lengthAdjust="spacing" textLength="147.8394" x="1434.26" y="98.3618">is_branch() : Boolean [1]</text><ellipse cx="1425.26" cy="111.2997" fill="#84BE84" rx="3" ry="3" style="stroke:#038048;stroke-width:1;"/><text fill="#000000" font-family="sans-serif" font-size="14" lengthAdjust="spacing" textLength="130.0315" x="1434.26" y="115.1617">is_first() : Boolean [1]</text><ellipse cx="1425.26" cy="128.0997" fill="#84BE84" rx="3" ry="3" style="stroke:#038048;stroke-width:1;"/><text fill="#000000" font-family="sans-serif" font-size="14" lengthAdjust="spacing" textLength="173.0533" x="1434.26" y="131.9616">branch_number() : String [1]</text><ellipse cx="1425.26" cy="144.8996" fill="#84BE84" rx="3" ry="3" style="stroke:#038048;stroke-width:1;"/><text fill="#000000" font-family="sans-serif" font-size="14" lengthAdjust="spacing" textLength="169.4554" x="1434.26" y="148.7616">branch_version() : String [1]</text></g><!--class UID_BASED_ID--><g class="entity" data-entity="UID_BASED_ID" data-source-line="59" data-uid="ent0012" id="entity_UID_BASED_ID"><rect fill="#F1F1F1" height="98.3998" rx="2.5" ry="2.5" style="stroke:#181818;stroke-width:0.5;" width="202.8193" x="637.37" y="249.4"/><ellipse cx="687.4128" cy="265.4" fill="#A9DCDF" rx="11" ry="11" style="stroke:#181818;stroke-width:1;"/><path d="M681.9285,270.9 L683.9597,270.9 L688.0066,259.5563 L687.1003,259.5563 L690.9285,270.9 L693.0691,270.9 L688.741,258.5719 L686.5222,258.5719 L681.9285,270.9 Z M684.2566,267.4 L690.6941,267.4 L690.6941,265.65 L684.2566,265.65 L684.2566,267.4 Z " fill="#000000"/><text fill="#000000" font-family="sans-serif" font-size="14" font-style="italic" lengthAdjust="spacing" textLength="94.2336" x="707.9128" y="270.762">UID_BASED_ID</text><line style="stroke:#181818;stroke-width:0.5;" x1="638.37" x2="839.1893" y1="281.4" y2="281.4"/><line style="stroke:#181818;stroke-width:0.5;" x1="638.37" x2="839.1893" y1="289.4" y2="289.4"/><ellipse cx="648.37" cy="303.3" fill="#84BE84" rx="3" ry="3" style="stroke:#038048;stroke-width:1;"/><text fill="#000000" font-family="sans-serif" font-size="14" lengthAdjust="spacing" textLength="86.2677" x="657.37" y="307.1619">root() : UID [1]</text><ellipse cx="648.37" cy="320.0999" fill="#84BE84" rx="3" ry="3" style="stroke:#038048;stroke-width:1;"/><text fill="#000000" font-family="sans-serif" font-size="14" lengthAdjust="spacing" textLength="134.5675" x="657.37" y="323.9619">extension() : String [1]</text><ellipse cx="648.37" cy="336.8998" fill="#84BE84" rx="3" ry="3" style="stroke:#038048;stroke-width:1;"/><text fill="#000000" font-family="sans-serif" font-size="14" lengthAdjust="spacing" textLength="176.8193" x="657.37" y="340.7618">has_extension() : Boolean [1]</text></g><!--class UUID--><g class="entity" data-entity="UUID" data-source-line="65" data-uid="ent0013" id="entity_UUID"><rect fill="#F1F1F1" height="48" rx="2.5" ry="2.5" style="stroke:#181818;stroke-width:0.5;" width="64.4799" x="1570.54" y="274.6"/><ellipse cx="1585.54" cy="290.6" fill="#ADD1B2" rx="11" ry="11" style="stroke:#181818;stroke-width:1;"/><path d="M1585.54,297.0219 C1586.7119,297.0219 1587.9463,296.7563 1589.3213,296.1469 L1588.8369,294.6313 C1587.7431,295.0531 1586.7275,295.2406 1585.8681,295.2406 C1583.1494,295.2406 1581.4306,293.3969 1581.4306,290.4906 C1581.4306,287.7406 1582.9931,286.1469 1585.7275,286.1469 C1586.6494,286.1469 1587.665,286.3344 1588.8056,286.7563 L1589.3838,285.2406 C1588.29,284.6625 1586.9931,284.3656 1585.8056,284.3656 C1582.04,284.3656 1579.4619,287.0063 1579.4619,290.8188 C1579.4619,294.4906 1581.9463,297.0219 1585.54,297.0219 Z " fill="#000000"/><text fill="#000000" font-family="sans-serif" font-size="14" lengthAdjust="spacing" textLength="32.4799" x="1599.54" y="295.962">UUID</text><line style="stroke:#181818;stroke-width:0.5;" x1="1571.54" x2="1634.0199" y1="306.6" y2="306.6"/><line style="stroke:#181818;stroke-width:0.5;" x1="1571.54" x2="1634.0199" y1="314.6" y2="314.6"/></g><!--class INTERNET_ID--><g class="entity" data-entity="INTERNET_ID" data-source-line="68" data-uid="ent0014" id="entity_INTERNET_ID"><rect fill="#F1F1F1" height="48" rx="2.5" ry="2.5" style="stroke:#181818;stroke-width:0.5;" width="118.3096" x="1669.63" y="274.6"/><ellipse cx="1684.63" cy="290.6" fill="#ADD1B2" rx="11" ry="11" style="stroke:#181818;stroke-width:1;"/><path d="M1684.63,297.0219 C1685.8019,297.0219 1687.0363,296.7563 1688.4113,296.1469 L1687.9269,294.6313 C1686.8331,295.0531 1685.8175,295.2406 1684.9581,295.2406 C1682.2394,295.2406 1680.5206,293.3969 1680.5206,290.4906 C1680.5206,287.7406 1682.0831,286.1469 1684.8175,286.1469 C1685.7394,286.1469 1686.755,286.3344 1687.8956,286.7563 L1688.4738,285.2406 C1687.38,284.6625 1686.0831,284.3656 1684.8956,284.3656 C1681.13,284.3656 1678.5519,287.0063 1678.5519,290.8188 C1678.5519,294.4906 1681.0363,297.0219 1684.63,297.0219 Z " fill="#000000"/><text fill="#000000" font-family="sans-serif" font-size="14" lengthAdjust="spacing" textLength="86.3096" x="1698.63" y="295.962">INTERNET_ID</text><line style="stroke:#181818;stroke-width:0.5;" x1="1670.63" x2="1786.9396" y1="306.6" y2="306.6"/><line style="stroke:#181818;stroke-width:0.5;" x1="1670.63" x2="1786.9396" y1="314.6" y2="314.6"/></g><!--class UID--><g class="entity" data-entity="UID" data-source-line="71" data-uid="ent0015" id="entity_UID"><rect fill="#F1F1F1" height="64.7999" rx="2.5" ry="2.5" style="stroke:#181818;stroke-width:0.5;" width="124.9656" x="1666.3" y="49"/><ellipse cx="1712.9898" cy="65" fill="#A9DCDF" rx="11" ry="11" style="stroke:#181818;stroke-width:1;"/><path d="M1707.5055,70.5 L1709.5367,70.5 L1713.5836,59.1563 L1712.6773,59.1563 L1716.5055,70.5 L1718.6461,70.5 L1714.318,58.1719 L1712.0992,58.1719 L1707.5055,70.5 Z M1709.8336,67 L1716.2711,67 L1716.2711,65.25 L1709.8336,65.25 L1709.8336,67 Z " fill="#000000"/><text fill="#000000" font-family="sans-serif" font-size="14" font-style="italic" lengthAdjust="spacing" textLength="23.0859" x="1733.4898" y="70.362">UID</text><line style="stroke:#181818;stroke-width:0.5;" x1="1667.3" x2="1790.2656" y1="81" y2="81"/><ellipse cx="1677.3" cy="94.9" fill="none" rx="3" ry="3" style="stroke:#038048;stroke-width:1;"/><text fill="#000000" font-family="sans-serif" font-size="14" lengthAdjust="spacing" textLength="98.9656" x="1686.3" y="98.7619">value : String [1]</text><line style="stroke:#181818;stroke-width:0.5;" x1="1667.3" x2="1790.2656" y1="105.7999" y2="105.7999"/></g><!--class ISO_OID--><g class="entity" data-entity="ISO_OID" data-source-line="75" data-uid="ent0016" id="entity_ISO_OID"><rect fill="#F1F1F1" height="48" rx="2.5" ry="2.5" style="stroke:#181818;stroke-width:0.5;" width="85.4518" x="1823.06" y="274.6"/><ellipse cx="1838.06" cy="290.6" fill="#ADD1B2" rx="11" ry="11" style="stroke:#181818;stroke-width:1;"/><path d="M1838.06,297.0219 C1839.2319,297.0219 1840.4663,296.7563 1841.8413,296.1469 L1841.3569,294.6313 C1840.2631,295.0531 1839.2475,295.2406 1838.3881,295.2406 C1835.6694,295.2406 1833.9506,293.3969 1833.9506,290.4906 C1833.9506,287.7406 1835.5131,286.1469 1838.2475,286.1469 C1839.1694,286.1469 1840.185,286.3344 1841.3256,286.7563 L1841.9038,285.2406 C1840.81,284.6625 1839.5131,284.3656 1838.3256,284.3656 C1834.56,284.3656 1831.9819,287.0063 1831.9819,290.8188 C1831.9819,294.4906 1834.4663,297.0219 1838.06,297.0219 Z " fill="#000000"/><text fill="#000000" font-family="sans-serif" font-size="14" lengthAdjust="spacing" textLength="53.4518" x="1852.06" y="295.962">ISO_OID</text><line style="stroke:#181818;stroke-width:0.5;" x1="1824.06" x2="1907.5118" y1="306.6" y2="306.6"/><line style="stroke:#181818;stroke-width:0.5;" x1="1824.06" x2="1907.5118" y1="314.6" y2="314.6"/></g><!--class TEMPLATE_ID--><g class="entity" data-entity="TEMPLATE_ID" data-source-line="78" data-uid="ent0017" id="entity_TEMPLATE_ID"><rect fill="#F1F1F1" height="48" rx="2.5" ry="2.5" style="stroke:#181818;stroke-width:0.5;" width="121.0256" x="875.27" y="274.6"/><ellipse cx="890.27" cy="290.6" fill="#ADD1B2" rx="11" ry="11" style="stroke:#181818;stroke-width:1;"/><path d="M890.27,297.0219 C891.4419,297.0219 892.6763,296.7563 894.0513,296.1469 L893.5669,294.6313 C892.4731,295.0531 891.4575,295.2406 890.5981,295.2406 C887.8794,295.2406 886.1606,293.3969 886.1606,290.4906 C886.1606,287.7406 887.7231,286.1469 890.4575,286.1469 C891.3794,286.1469 892.395,286.3344 893.5356,286.7563 L894.1138,285.2406 C893.02,284.6625 891.7231,284.3656 890.5356,284.3656 C886.77,284.3656 884.1919,287.0063 884.1919,290.8188 C884.1919,294.4906 886.6763,297.0219 890.27,297.0219 Z " fill="#000000"/><text fill="#000000" font-family="sans-serif" font-size="14" lengthAdjust="spacing" textLength="89.0256" x="904.27" y="295.962">TEMPLATE_ID</text><line style="stroke:#181818;stroke-width:0.5;" x1="876.27" x2="995.2956" y1="306.6" y2="306.6"/><line style="stroke:#181818;stroke-width:0.5;" x1="876.27" x2="995.2956" y1="314.6" y2="314.6"/></g><!--class ACCESS_GROUP_REF--><g class="entity" data-entity="ACCESS_GROUP_REF" data-source-line="81" data-uid="ent0018" id="entity_ACCESS_GROUP_REF"><rect fill="#F1F1F1" height="48" rx="2.5" ry="2.5" style="stroke:#181818;stroke-width:0.5;" width="168.2055" x="1367.68" y="274.6"/><ellipse cx="1382.68" cy="290.6" fill="#ADD1B2" rx="11" ry="11" style="stroke:#181818;stroke-width:1;"/><path d="M1382.68,297.0219 C1383.8519,297.0219 1385.0863,296.7563 1386.4613,296.1469 L1385.9769,294.6313 C1384.8831,295.0531 1383.8675,295.2406 1383.0081,295.2406 C1380.2894,295.2406 1378.5706,293.3969 1378.5706,290.4906 C1378.5706,287.7406 1380.1331,286.1469 1382.8675,286.1469 C1383.7894,286.1469 1384.805,286.3344 1385.9456,286.7563 L1386.5238,285.2406 C1385.43,284.6625 1384.1331,284.3656 1382.9456,284.3656 C1379.18,284.3656 1376.6019,287.0063 1376.6019,290.8188 C1376.6019,294.4906 1379.0863,297.0219 1382.68,297.0219 Z " fill="#000000"/><text fill="#000000" font-family="sans-serif" font-size="14" lengthAdjust="spacing" textLength="136.2055" x="1396.68" y="295.962">ACCESS_GROUP_REF</text><line style="stroke:#181818;stroke-width:0.5;" x1="1368.68" x2="1534.8855" y1="306.6" y2="306.6"/><line style="stroke:#181818;stroke-width:0.5;" x1="1368.68" x2="1534.8855" y1="314.6" y2="314.6"/></g><!--reverse link OBJECT_ID to ARCHETYPE_ID--><g class="link" data-entity-1="OBJECT_ID" data-entity-2="ARCHETYPE_ID" data-source-line="84" data-uid="lnk19" id="link_OBJECT_ID_ARCHETYPE_ID"><path codeLine="84" d="M441.6273,117.757 C385.1873,143.447 316.86,176.03 245.78,215.8 C240.26,218.89 234.65,222.12 229.01,225.44" fill="none" id="OBJECT_ID-backto-ARCHETYPE_ID" style="stroke:#181818;stroke-width:1;"/><polygon fill="none" points="458.01,110.3,439.1416,112.2961,444.1129,123.2179,458.01,110.3" style="stroke:#181818;stroke-width:1;"/></g><!--reverse link OBJECT_ID to GENERIC_ID--><g class="link" data-entity-1="OBJECT_ID" data-entity-2="GENERIC_ID" data-source-line="85" data-uid="lnk20" id="link_OBJECT_ID_GENERIC_ID"><path codeLine="85" d="M481.3831,127.7366 C446.0231,168.4266 396.9,224.97 361.49,265.72" fill="none" id="OBJECT_ID-backto-GENERIC_ID" style="stroke:#181818;stroke-width:1;"/><polygon fill="none" points="493.19,114.15,476.8542,123.801,485.912,131.6723,493.19,114.15" style="stroke:#181818;stroke-width:1;"/></g><!--reverse link UID_BASED_ID to HIER_OBJECT_ID--><g class="link" data-entity-1="UID_BASED_ID" data-entity-2="HIER_OBJECT_ID" data-source-line="86" data-uid="lnk21" id="link_UID_BASED_ID_HIER_OBJECT_ID"><path codeLine="86" d="M699.5129,363.4639 C674.8229,403.6239 650.25,443.58 631.21,474.54" fill="none" id="UID_BASED_ID-backto-HIER_OBJECT_ID" style="stroke:#181818;stroke-width:1;"/><polygon fill="none" points="708.94,348.13,694.4015,360.3215,704.6242,366.6063,708.94,348.13" style="stroke:#181818;stroke-width:1;"/></g><!--reverse link OBJECT_REF to LOCATABLE_REF--><g class="link" data-entity-1="OBJECT_REF" data-entity-2="LOCATABLE_REF" data-source-line="87" data-uid="lnk22" id="link_OBJECT_REF_LOCATABLE_REF"><path codeLine="87" d="M1230.7938,145.1486 C1203.2138,180.4786 1177.11,213.92 1149.56,249.21" fill="none" id="OBJECT_REF-backto-LOCATABLE_REF" style="stroke:#181818;stroke-width:1;"/><polygon fill="none" points="1241.87,130.96,1226.0642,141.4566,1235.5233,148.8407,1241.87,130.96" style="stroke:#181818;stroke-width:1;"/></g><!--reverse link UID_BASED_ID to OBJECT_VERSION_ID--><g class="link" data-entity-1="UID_BASED_ID" data-entity-2="OBJECT_VERSION_ID" data-source-line="88" data-uid="lnk23" id="link_UID_BASED_ID_OBJECT_VERSION_ID"><path codeLine="88" d="M778.0564,363.4643 C795.3364,391.5743 807.75,411.76 825.84,441.17" fill="none" id="UID_BASED_ID-backto-OBJECT_VERSION_ID" style="stroke:#181818;stroke-width:1;"/><polygon fill="none" points="768.63,348.13,772.945,366.6065,783.1679,360.3222,768.63,348.13" style="stroke:#181818;stroke-width:1;"/></g><!--reverse link OBJECT_REF to PARTY_REF--><g class="link" data-entity-1="OBJECT_REF" data-entity-2="PARTY_REF" data-source-line="89" data-uid="lnk24" id="link_OBJECT_REF_PARTY_REF"><path codeLine="89" d="M1279.78,148.96 C1279.78,193.72 1279.78,240.2 1279.78,274.35" fill="none" id="OBJECT_REF-backto-PARTY_REF" style="stroke:#181818;stroke-width:1;"/><polygon fill="none" points="1279.78,130.96,1273.78,148.96,1285.78,148.96,1279.78,130.96" style="stroke:#181818;stroke-width:1;"/></g><!--reverse link OBJECT_ID to TERMINOLOGY_ID--><g class="link" data-entity-1="OBJECT_ID" data-entity-2="TERMINOLOGY_ID" data-source-line="90" data-uid="lnk25" id="link_OBJECT_ID_TERMINOLOGY_ID"><path codeLine="90" d="M520.78,132.15 C520.78,170.27 520.78,216.22 520.78,257.65" fill="none" id="OBJECT_ID-backto-TERMINOLOGY_ID" style="stroke:#181818;stroke-width:1;"/><polygon fill="none" points="520.78,114.15,514.78,132.15,526.78,132.15,520.78,114.15" style="stroke:#181818;stroke-width:1;"/></g><!--reverse link OBJECT_ID to UID_BASED_ID--><g class="link" data-entity-1="OBJECT_ID" data-entity-2="UID_BASED_ID" data-source-line="91" data-uid="lnk26" id="link_OBJECT_ID_UID_BASED_ID"><path codeLine="91" d="M565.7577,126.7976 C601.7577,162.3476 647.72,207.7 689.52,248.97" fill="none" id="OBJECT_ID-backto-UID_BASED_ID" style="stroke:#181818;stroke-width:1;"/><polygon fill="none" points="552.95,114.15,561.5418,131.0669,569.9736,122.5284,552.95,114.15" style="stroke:#181818;stroke-width:1;"/></g><!--reverse link UID to UUID--><g class="link" data-entity-1="UID" data-entity-2="UUID" data-source-line="92" data-uid="lnk27" id="link_UID_UUID"><path codeLine="92" d="M1701.0963,129.684 C1675.4963,173.414 1639.08,235.61 1616.41,274.33" fill="none" id="UID-backto-UUID" style="stroke:#181818;stroke-width:1;"/><polygon fill="none" points="1710.19,114.15,1695.9183,126.6527,1706.2742,132.7152,1710.19,114.15" style="stroke:#181818;stroke-width:1;"/></g><!--reverse link UID to INTERNET_ID--><g class="link" data-entity-1="UID" data-entity-2="INTERNET_ID" data-source-line="93" data-uid="lnk28" id="link_UID_INTERNET_ID"><path codeLine="93" d="M1728.78,132.15 C1728.78,175.88 1728.78,235.61 1728.78,274.33" fill="none" id="UID-backto-INTERNET_ID" style="stroke:#181818;stroke-width:1;"/><polygon fill="none" points="1728.78,114.15,1722.78,132.15,1734.78,132.15,1728.78,114.15" style="stroke:#181818;stroke-width:1;"/></g><!--reverse link UID to ISO_OID--><g class="link" data-entity-1="UID" data-entity-2="ISO_OID" data-source-line="94" data-uid="lnk29" id="link_UID_ISO_OID"><path codeLine="94" d="M1758.6642,129.3356 C1786.4942,173.0656 1826.32,235.61 1850.97,274.33" fill="none" id="UID-backto-ISO_OID" style="stroke:#181818;stroke-width:1;"/><polygon fill="none" points="1749,114.15,1753.6023,132.557,1763.7261,126.1142,1749,114.15" style="stroke:#181818;stroke-width:1;"/></g><!--reverse link OBJECT_ID to TEMPLATE_ID--><g class="link" data-entity-1="OBJECT_ID" data-entity-2="TEMPLATE_ID" data-source-line="95" data-uid="lnk30" id="link_OBJECT_ID_TEMPLATE_ID"><path codeLine="95" d="M601.0224,103.3323 C671.8024,123.3223 770.9,157.25 857.78,215.8 C881.54,231.81 903.57,256.17 918.11,274.14" fill="none" id="OBJECT_ID-backto-TEMPLATE_ID" style="stroke:#181818;stroke-width:1;"/><polygon fill="none" points="583.7,98.44,599.3916,109.1064,602.6532,97.5581,583.7,98.44" style="stroke:#181818;stroke-width:1;"/></g><!--reverse link OBJECT_REF to ACCESS_GROUP_REF--><g class="link" data-entity-1="OBJECT_REF" data-entity-2="ACCESS_GROUP_REF" data-source-line="96" data-uid="lnk31" id="link_OBJECT_REF_ACCESS_GROUP_REF"><path codeLine="96" d="M1329.8372,145.0215 C1365.6072,189.7815 1405.91,240.2 1433.2,274.35" fill="none" id="OBJECT_REF-backto-ACCESS_GROUP_REF" style="stroke:#181818;stroke-width:1;"/><polygon fill="none" points="1318.6,130.96,1325.1501,148.7672,1334.5244,141.2757,1318.6,130.96" style="stroke:#181818;stroke-width:1;"/></g></g></svg>
