<svg xmlns="http://www.w3.org/2000/svg" xmlns:xlink="http://www.w3.org/1999/xlink" contentStyleType="text/css" data-diagram-type="CLASS" height="152px" preserveAspectRatio="none" style="width:317px;height:152px;background:#FFFFFF;" version="1.1" viewBox="0 0 317 152" width="317px" zoomAndPan="magnify"><defs/><g><!--class Any--><g class="entity" data-entity="Any" data-source-line="2" data-uid="ent0002" id="entity_Any"><rect fill="#F1F1F1" height="131.9996" rx="2.5" ry="2.5" style="stroke:#181818;stroke-width:0.5;" width="296.4789" x="7" y="7"/><ellipse cx="139.2785" cy="23" fill="#A9DCDF" rx="11" ry="11" style="stroke:#181818;stroke-width:1;"/><path d="M133.7941,28.5 L135.8254,28.5 L139.8723,17.1563 L138.966,17.1563 L142.7941,28.5 L144.9348,28.5 L140.6066,16.1719 L138.3879,16.1719 L133.7941,28.5 Z M136.1223,25 L142.5598,25 L142.5598,23.25 L136.1223,23.25 L136.1223,25 Z " fill="#000000"/><text fill="#000000" font-family="sans-serif" font-size="14" font-style="italic" lengthAdjust="spacing" textLength="23.4219" x="159.7785" y="28.362">Any</text><line style="stroke:#181818;stroke-width:0.5;" x1="8" x2="302.4789" y1="39" y2="39"/><line style="stroke:#181818;stroke-width:0.5;" x1="8" x2="302.4789" y1="47" y2="47"/><ellipse cx="18" cy="60.9" fill="#84BE84" rx="3" ry="3" style="stroke:#038048;stroke-width:1;"/><text fill="#000000" font-family="sans-serif" font-size="14" font-style="italic" lengthAdjust="spacing" textLength="230.9711" x="27" y="64.7619">is_equal( other : Any [1] ) : Boolean [1]</text><ellipse cx="18" cy="77.6999" fill="#84BE84" rx="3" ry="3" style="stroke:#038048;stroke-width:1;"/><text fill="#000000" font-family="sans-serif" font-size="14" lengthAdjust="spacing" textLength="214.0312" x="27" y="81.5619">equal( other : Any [1] ) : Boolean [1]</text><ellipse cx="18" cy="94.4998" fill="#84BE84" rx="3" ry="3" style="stroke:#038048;stroke-width:1;"/><text fill="#000000" font-family="sans-serif" font-size="14" lengthAdjust="spacing" textLength="245.5311" x="27" y="98.3618">instance_of( a_type : String [1] ) : Any [1]</text><ellipse cx="18" cy="111.2997" fill="#84BE84" rx="3" ry="3" style="stroke:#038048;stroke-width:1;"/><text fill="#000000" font-family="sans-serif" font-size="14" lengthAdjust="spacing" textLength="239.8471" x="27" y="115.1617">type_of( an_object : Any [1] ) : String [1]</text><ellipse cx="18" cy="128.0997" fill="#84BE84" rx="3" ry="3" style="stroke:#038048;stroke-width:1;"/><text fill="#000000" font-family="sans-serif" font-size="14" lengthAdjust="spacing" textLength="270.4789" x="27" y="131.9616">not_equal( other : Ordered [1] ) : Boolean [1]</text></g></g></svg>
