<svg xmlns="http://www.w3.org/2000/svg" xmlns:xlink="http://www.w3.org/1999/xlink" contentStyleType="text/css" data-diagram-type="CLASS" height="990px" preserveAspectRatio="none" style="width:2020px;height:990px;background:#FFFFFF;" version="1.1" viewBox="0 0 2020 990" width="2020px" zoomAndPan="magnify"><defs/><g><!--class Iso8601_date_time--><g class="entity" data-entity="Iso8601_date_time" data-source-line="2" data-uid="ent0002" id="entity_Iso8601_date_time"><rect fill="#F1F1F1" height="417.5984" rx="2.5" ry="2.5" style="stroke:#181818;stroke-width:0.5;" width="434.0424" x="7" y="566.2"/><ellipse cx="160.3414" cy="582.2" fill="#ADD1B2" rx="11" ry="11" style="stroke:#181818;stroke-width:1;"/><path d="M160.3414,588.6219 C161.5133,588.6219 162.7477,588.3562 164.1227,587.7469 L163.6383,586.2312 C162.5446,586.6531 161.5289,586.8406 160.6696,586.8406 C157.9508,586.8406 156.2321,584.9969 156.2321,582.0906 C156.2321,579.3406 157.7946,577.7469 160.5289,577.7469 C161.4508,577.7469 162.4664,577.9344 163.6071,578.3562 L164.1852,576.8406 C163.0914,576.2625 161.7946,575.9656 160.6071,575.9656 C156.8414,575.9656 154.2633,578.6062 154.2633,582.4187 C154.2633,586.0906 156.7477,588.6219 160.3414,588.6219 Z " fill="#000000"/><text fill="#000000" font-family="sans-serif" font-size="14" lengthAdjust="spacing" textLength="118.8595" x="180.8414" y="587.562">Iso8601_date_time</text><line style="stroke:#181818;stroke-width:0.5;" x1="8" x2="440.0424" y1="598.2" y2="598.2"/><line style="stroke:#181818;stroke-width:0.5;" x1="8" x2="440.0424" y1="606.2" y2="606.2"/><ellipse cx="18" cy="620.1" fill="#84BE84" rx="3" ry="3" style="stroke:#038048;stroke-width:1;"/><text fill="#000000" font-family="sans-serif" font-size="14" lengthAdjust="spacing" textLength="108.3036" x="27" y="623.9619">year() : Integer [1]</text><ellipse cx="18" cy="636.8999" fill="#84BE84" rx="3" ry="3" style="stroke:#038048;stroke-width:1;"/><text fill="#000000" font-family="sans-serif" font-size="14" lengthAdjust="spacing" textLength="123.0175" x="27" y="640.7619">month() : Integer [1]</text><ellipse cx="18" cy="653.6998" fill="#84BE84" rx="3" ry="3" style="stroke:#038048;stroke-width:1;"/><text fill="#000000" font-family="sans-serif" font-size="14" lengthAdjust="spacing" textLength="103.6136" x="27" y="657.5618">day() : Integer [1]</text><ellipse cx="18" cy="670.4997" fill="#84BE84" rx="3" ry="3" style="stroke:#038048;stroke-width:1;"/><text fill="#000000" font-family="sans-serif" font-size="14" lengthAdjust="spacing" textLength="110.7116" x="27" y="674.3617">hour() : Integer [1]</text><ellipse cx="18" cy="687.2997" fill="#84BE84" rx="3" ry="3" style="stroke:#038048;stroke-width:1;"/><text fill="#000000" font-family="sans-serif" font-size="14" lengthAdjust="spacing" textLength="125.7895" x="27" y="691.1616">minute() : Integer [1]</text><ellipse cx="18" cy="704.0996" fill="#84BE84" rx="3" ry="3" style="stroke:#038048;stroke-width:1;"/><text fill="#000000" font-family="sans-serif" font-size="14" lengthAdjust="spacing" textLength="126.0275" x="27" y="707.9616">second() : Integer [1]</text><ellipse cx="18" cy="720.8995" fill="#84BE84" rx="3" ry="3" style="stroke:#038048;stroke-width:1;"/><text fill="#000000" font-family="sans-serif" font-size="14" lengthAdjust="spacing" textLength="174.5653" x="27" y="724.7615">fractional_second() : Real [1]</text><ellipse cx="18" cy="737.6995" fill="#84BE84" rx="3" ry="3" style="stroke:#038048;stroke-width:1;"/><text fill="#000000" font-family="sans-serif" font-size="14" lengthAdjust="spacing" textLength="209.0612" x="27" y="741.5614">timezone() : Iso8601_timezone [1]</text><ellipse cx="18" cy="754.4994" fill="#84BE84" rx="3" ry="3" style="stroke:#038048;stroke-width:1;"/><text fill="#000000" font-family="sans-serif" font-size="14" lengthAdjust="spacing" textLength="193.8293" x="27" y="758.3614">month_unknown() : Boolean [1]</text><ellipse cx="18" cy="771.2993" fill="#84BE84" rx="3" ry="3" style="stroke:#038048;stroke-width:1;"/><text fill="#000000" font-family="sans-serif" font-size="14" lengthAdjust="spacing" textLength="174.4253" x="27" y="775.1613">day_unknown() : Boolean [1]</text><ellipse cx="18" cy="788.0992" fill="#84BE84" rx="3" ry="3" style="stroke:#038048;stroke-width:1;"/><text fill="#000000" font-family="sans-serif" font-size="14" lengthAdjust="spacing" textLength="196.6012" x="27" y="791.9612">minute_unknown() : Boolean [1]</text><ellipse cx="18" cy="804.8992" fill="#84BE84" rx="3" ry="3" style="stroke:#038048;stroke-width:1;"/><text fill="#000000" font-family="sans-serif" font-size="14" lengthAdjust="spacing" textLength="196.8392" x="27" y="808.7611">second_unknown() : Boolean [1]</text><ellipse cx="18" cy="821.6991" fill="#84BE84" rx="3" ry="3" style="stroke:#038048;stroke-width:1;"/><text fill="#000000" font-family="sans-serif" font-size="14" lengthAdjust="spacing" textLength="240.127" x="27" y="825.5611">is_decimal_sign_comma() : Boolean [1]</text><ellipse cx="18" cy="838.499" fill="#84BE84" rx="3" ry="3" style="stroke:#038048;stroke-width:1;"/><text fill="#000000" font-family="sans-serif" font-size="14" lengthAdjust="spacing" textLength="144.9974" x="27" y="842.361">is_partial() : Boolean [1]</text><ellipse cx="18" cy="855.2989" fill="#84BE84" rx="3" ry="3" style="stroke:#038048;stroke-width:1;"/><text fill="#000000" font-family="sans-serif" font-size="14" lengthAdjust="spacing" textLength="162.6934" x="27" y="859.1609">is_extended() : Boolean [1]</text><ellipse cx="18" cy="872.0989" fill="#84BE84" rx="3" ry="3" style="stroke:#038048;stroke-width:1;"/><text fill="#000000" font-family="sans-serif" font-size="14" lengthAdjust="spacing" textLength="227.1211" x="27" y="875.9608">has_fractional_second() : Boolean [1]</text><ellipse cx="18" cy="888.8988" fill="#84BE84" rx="3" ry="3" style="stroke:#038048;stroke-width:1;"/><text fill="#000000" font-family="sans-serif" font-size="14" lengthAdjust="spacing" textLength="131.2635" x="27" y="892.7608">as_string() : String [1]</text><ellipse cx="18" cy="905.6987" fill="#84BE84" rx="3" ry="3" style="stroke:#038048;stroke-width:1;"/><text fill="#000000" font-family="sans-serif" font-size="14" lengthAdjust="spacing" textLength="357.3626" x="27" y="909.5607">add( a_diff : Iso8601_duration [1] ) : Iso8601_date_time [1]</text><ellipse cx="18" cy="922.4986" fill="#84BE84" rx="3" ry="3" style="stroke:#038048;stroke-width:1;"/><text fill="#000000" font-family="sans-serif" font-size="14" lengthAdjust="spacing" textLength="385.6145" x="27" y="926.3606">subtract( a_diff : Iso8601_duration [1] ) : Iso8601_date_time [1]</text><ellipse cx="18" cy="939.2986" fill="#84BE84" rx="3" ry="3" style="stroke:#038048;stroke-width:1;"/><text fill="#000000" font-family="sans-serif" font-size="14" lengthAdjust="spacing" textLength="397.1224" x="27" y="943.1605">diff( a_date_time : Iso8601_date_time [1] ) : Iso8601_duration [1]</text><ellipse cx="18" cy="956.0985" fill="#84BE84" rx="3" ry="3" style="stroke:#038048;stroke-width:1;"/><text fill="#000000" font-family="sans-serif" font-size="14" lengthAdjust="spacing" textLength="379.7905" x="27" y="959.9605">add_nominal( a_diff : Iso8601_duration [1] ) : Iso8601_date [1]</text><ellipse cx="18" cy="972.8984" fill="#84BE84" rx="3" ry="3" style="stroke:#038048;stroke-width:1;"/><text fill="#000000" font-family="sans-serif" font-size="14" lengthAdjust="spacing" textLength="408.0424" x="27" y="976.7604">subtract_nominal( a_diff : Iso8601_duration [1] ) : Iso8601_date [1]</text></g><!--class Iso8601_duration--><g class="entity" data-entity="Iso8601_duration" data-source-line="27" data-uid="ent0003" id="entity_Iso8601_duration"><rect fill="#F1F1F1" height="350.3987" rx="2.5" ry="2.5" style="stroke:#181818;stroke-width:0.5;" width="398.1746" x="475.93" y="599.8"/><ellipse cx="616.4755" cy="615.8" fill="#ADD1B2" rx="11" ry="11" style="stroke:#181818;stroke-width:1;"/><path d="M616.4755,622.2219 C617.6474,622.2219 618.8817,621.9563 620.2567,621.3469 L619.7724,619.8313 C618.6786,620.2531 617.663,620.4406 616.8036,620.4406 C614.0849,620.4406 612.3661,618.5969 612.3661,615.6906 C612.3661,612.9406 613.9286,611.3469 616.663,611.3469 C617.5849,611.3469 618.6005,611.5344 619.7411,611.9563 L620.3192,610.4406 C619.2255,609.8625 617.9286,609.5656 616.7411,609.5656 C612.9755,609.5656 610.3974,612.2063 610.3974,616.0188 C610.3974,619.6906 612.8817,622.2219 616.4755,622.2219 Z " fill="#000000"/><text fill="#000000" font-family="sans-serif" font-size="14" lengthAdjust="spacing" textLength="108.5836" x="636.9755" y="621.162">Iso8601_duration</text><line style="stroke:#181818;stroke-width:0.5;" x1="476.93" x2="873.1046" y1="631.8" y2="631.8"/><line style="stroke:#181818;stroke-width:0.5;" x1="476.93" x2="873.1046" y1="639.8" y2="639.8"/><ellipse cx="486.93" cy="653.7" fill="#84BE84" rx="3" ry="3" style="stroke:#038048;stroke-width:1;"/><text fill="#000000" font-family="sans-serif" font-size="14" lengthAdjust="spacing" textLength="162.6934" x="495.93" y="657.5619">is_extended() : Boolean [1]</text><ellipse cx="486.93" cy="670.4999" fill="#84BE84" rx="3" ry="3" style="stroke:#038048;stroke-width:1;"/><text fill="#000000" font-family="sans-serif" font-size="14" lengthAdjust="spacing" textLength="144.9974" x="495.93" y="674.3619">is_partial() : Boolean [1]</text><ellipse cx="486.93" cy="687.2998" fill="#84BE84" rx="3" ry="3" style="stroke:#038048;stroke-width:1;"/><text fill="#000000" font-family="sans-serif" font-size="14" lengthAdjust="spacing" textLength="114.7996" x="495.93" y="691.1618">years() : Integer [1]</text><ellipse cx="486.93" cy="704.0997" fill="#84BE84" rx="3" ry="3" style="stroke:#038048;stroke-width:1;"/><text fill="#000000" font-family="sans-serif" font-size="14" lengthAdjust="spacing" textLength="129.5135" x="495.93" y="707.9617">months() : Integer [1]</text><ellipse cx="486.93" cy="720.8997" fill="#84BE84" rx="3" ry="3" style="stroke:#038048;stroke-width:1;"/><text fill="#000000" font-family="sans-serif" font-size="14" lengthAdjust="spacing" textLength="110.1096" x="495.93" y="724.7616">days() : Integer [1]</text><ellipse cx="486.93" cy="737.6996" fill="#84BE84" rx="3" ry="3" style="stroke:#038048;stroke-width:1;"/><text fill="#000000" font-family="sans-serif" font-size="14" lengthAdjust="spacing" textLength="117.2076" x="495.93" y="741.5616">hours() : Integer [1]</text><ellipse cx="486.93" cy="754.4995" fill="#84BE84" rx="3" ry="3" style="stroke:#038048;stroke-width:1;"/><text fill="#000000" font-family="sans-serif" font-size="14" lengthAdjust="spacing" textLength="132.2855" x="495.93" y="758.3615">minutes() : Integer [1]</text><ellipse cx="486.93" cy="771.2995" fill="#84BE84" rx="3" ry="3" style="stroke:#038048;stroke-width:1;"/><text fill="#000000" font-family="sans-serif" font-size="14" lengthAdjust="spacing" textLength="132.5235" x="495.93" y="775.1614">seconds() : Integer [1]</text><ellipse cx="486.93" cy="788.0994" fill="#84BE84" rx="3" ry="3" style="stroke:#038048;stroke-width:1;"/><text fill="#000000" font-family="sans-serif" font-size="14" lengthAdjust="spacing" textLength="181.0613" x="495.93" y="791.9614">fractional_seconds() : Real [1]</text><ellipse cx="486.93" cy="804.8993" fill="#84BE84" rx="3" ry="3" style="stroke:#038048;stroke-width:1;"/><text fill="#000000" font-family="sans-serif" font-size="14" lengthAdjust="spacing" textLength="120.9595" x="495.93" y="808.7613">weeks() : Integer [1]</text><ellipse cx="486.93" cy="821.6992" fill="#84BE84" rx="3" ry="3" style="stroke:#038048;stroke-width:1;"/><text fill="#000000" font-family="sans-serif" font-size="14" lengthAdjust="spacing" textLength="240.127" x="495.93" y="825.5612">is_decimal_sign_comma() : Boolean [1]</text><ellipse cx="486.93" cy="838.4992" fill="#84BE84" rx="3" ry="3" style="stroke:#038048;stroke-width:1;"/><text fill="#000000" font-family="sans-serif" font-size="14" lengthAdjust="spacing" textLength="134.8755" x="495.93" y="842.3611">to_seconds() : Real [1]</text><ellipse cx="486.93" cy="855.2991" fill="#84BE84" rx="3" ry="3" style="stroke:#038048;stroke-width:1;"/><text fill="#000000" font-family="sans-serif" font-size="14" lengthAdjust="spacing" textLength="131.2635" x="495.93" y="859.1611">as_string() : String [1]</text><ellipse cx="486.93" cy="872.099" fill="#84BE84" rx="3" ry="3" style="stroke:#038048;stroke-width:1;"/><text fill="#000000" font-family="sans-serif" font-size="14" lengthAdjust="spacing" textLength="343.9227" x="495.93" y="875.961">add( a_val : Iso8601_duration [1] ) : Iso8601_duration [1]</text><ellipse cx="486.93" cy="888.8989" fill="#84BE84" rx="3" ry="3" style="stroke:#038048;stroke-width:1;"/><text fill="#000000" font-family="sans-serif" font-size="14" lengthAdjust="spacing" textLength="372.1746" x="495.93" y="892.7609">subtract( a_val : Iso8601_duration [1] ) : Iso8601_duration [1]</text><ellipse cx="486.93" cy="905.6989" fill="#84BE84" rx="3" ry="3" style="stroke:#038048;stroke-width:1;"/><text fill="#000000" font-family="sans-serif" font-size="14" lengthAdjust="spacing" textLength="290.5549" x="495.93" y="909.5608">multiply( a_val : Real [1] ) : Iso8601_duration [1]</text><ellipse cx="486.93" cy="922.4988" fill="#84BE84" rx="3" ry="3" style="stroke:#038048;stroke-width:1;"/><text fill="#000000" font-family="sans-serif" font-size="14" lengthAdjust="spacing" textLength="276.3029" x="495.93" y="926.3608">divide( a_val : Real [1] ) : Iso8601_duration [1]</text><ellipse cx="486.93" cy="939.2987" fill="#84BE84" rx="3" ry="3" style="stroke:#038048;stroke-width:1;"/><text fill="#000000" font-family="sans-serif" font-size="14" lengthAdjust="spacing" textLength="198.6452" x="495.93" y="943.1607">negative() : Iso8601_duration [1]</text></g><!--class Iso8601_time--><g class="entity" data-entity="Iso8601_time" data-source-line="48" data-uid="ent0004" id="entity_Iso8601_time"><rect fill="#F1F1F1" height="299.9989" rx="2.5" ry="2.5" style="stroke:#181818;stroke-width:0.5;" width="377.0206" x="909.51" y="625"/><ellipse cx="1051.6375" cy="641" fill="#ADD1B2" rx="11" ry="11" style="stroke:#181818;stroke-width:1;"/><path d="M1051.6375,647.4219 C1052.8094,647.4219 1054.0437,647.1563 1055.4187,646.5469 L1054.9344,645.0313 C1053.8406,645.4531 1052.825,645.6406 1051.9656,645.6406 C1049.2469,645.6406 1047.5281,643.7969 1047.5281,640.8906 C1047.5281,638.1406 1049.0906,636.5469 1051.825,636.5469 C1052.7469,636.5469 1053.7625,636.7344 1054.9031,637.1563 L1055.4812,635.6406 C1054.3875,635.0625 1053.0906,634.7656 1051.9031,634.7656 C1048.1375,634.7656 1045.5594,637.4063 1045.5594,641.2188 C1045.5594,644.8906 1048.0437,647.4219 1051.6375,647.4219 Z " fill="#000000"/><text fill="#000000" font-family="sans-serif" font-size="14" lengthAdjust="spacing" textLength="84.2657" x="1072.1375" y="646.362">Iso8601_time</text><line style="stroke:#181818;stroke-width:0.5;" x1="910.51" x2="1285.5306" y1="657" y2="657"/><line style="stroke:#181818;stroke-width:0.5;" x1="910.51" x2="1285.5306" y1="665" y2="665"/><ellipse cx="920.51" cy="678.9" fill="#84BE84" rx="3" ry="3" style="stroke:#038048;stroke-width:1;"/><text fill="#000000" font-family="sans-serif" font-size="14" lengthAdjust="spacing" textLength="110.7116" x="929.51" y="682.7619">hour() : Integer [1]</text><ellipse cx="920.51" cy="695.6999" fill="#84BE84" rx="3" ry="3" style="stroke:#038048;stroke-width:1;"/><text fill="#000000" font-family="sans-serif" font-size="14" lengthAdjust="spacing" textLength="125.7895" x="929.51" y="699.5619">minute() : Integer [1]</text><ellipse cx="920.51" cy="712.4998" fill="#84BE84" rx="3" ry="3" style="stroke:#038048;stroke-width:1;"/><text fill="#000000" font-family="sans-serif" font-size="14" lengthAdjust="spacing" textLength="126.0275" x="929.51" y="716.3618">second() : Integer [1]</text><ellipse cx="920.51" cy="729.2997" fill="#84BE84" rx="3" ry="3" style="stroke:#038048;stroke-width:1;"/><text fill="#000000" font-family="sans-serif" font-size="14" lengthAdjust="spacing" textLength="174.5653" x="929.51" y="733.1617">fractional_second() : Real [1]</text><ellipse cx="920.51" cy="746.0997" fill="#84BE84" rx="3" ry="3" style="stroke:#038048;stroke-width:1;"/><text fill="#000000" font-family="sans-serif" font-size="14" lengthAdjust="spacing" textLength="209.0612" x="929.51" y="749.9616">timezone() : Iso8601_timezone [1]</text><ellipse cx="920.51" cy="762.8996" fill="#84BE84" rx="3" ry="3" style="stroke:#038048;stroke-width:1;"/><text fill="#000000" font-family="sans-serif" font-size="14" lengthAdjust="spacing" textLength="196.6012" x="929.51" y="766.7616">minute_unknown() : Boolean [1]</text><ellipse cx="920.51" cy="779.6995" fill="#84BE84" rx="3" ry="3" style="stroke:#038048;stroke-width:1;"/><text fill="#000000" font-family="sans-serif" font-size="14" lengthAdjust="spacing" textLength="196.8392" x="929.51" y="783.5615">second_unknown() : Boolean [1]</text><ellipse cx="920.51" cy="796.4995" fill="#84BE84" rx="3" ry="3" style="stroke:#038048;stroke-width:1;"/><text fill="#000000" font-family="sans-serif" font-size="14" lengthAdjust="spacing" textLength="240.127" x="929.51" y="800.3614">is_decimal_sign_comma() : Boolean [1]</text><ellipse cx="920.51" cy="813.2994" fill="#84BE84" rx="3" ry="3" style="stroke:#038048;stroke-width:1;"/><text fill="#000000" font-family="sans-serif" font-size="14" lengthAdjust="spacing" textLength="144.9974" x="929.51" y="817.1614">is_partial() : Boolean [1]</text><ellipse cx="920.51" cy="830.0993" fill="#84BE84" rx="3" ry="3" style="stroke:#038048;stroke-width:1;"/><text fill="#000000" font-family="sans-serif" font-size="14" lengthAdjust="spacing" textLength="162.6934" x="929.51" y="833.9613">is_extended() : Boolean [1]</text><ellipse cx="920.51" cy="846.8992" fill="#84BE84" rx="3" ry="3" style="stroke:#038048;stroke-width:1;"/><text fill="#000000" font-family="sans-serif" font-size="14" lengthAdjust="spacing" textLength="227.1211" x="929.51" y="850.7612">has_fractional_second() : Boolean [1]</text><ellipse cx="920.51" cy="863.6992" fill="#84BE84" rx="3" ry="3" style="stroke:#038048;stroke-width:1;"/><text fill="#000000" font-family="sans-serif" font-size="14" lengthAdjust="spacing" textLength="131.2635" x="929.51" y="867.5611">as_string() : String [1]</text><ellipse cx="920.51" cy="880.4991" fill="#84BE84" rx="3" ry="3" style="stroke:#038048;stroke-width:1;"/><text fill="#000000" font-family="sans-serif" font-size="14" lengthAdjust="spacing" textLength="322.7687" x="929.51" y="884.3611">add( a_diff : Iso8601_duration [1] ) : Iso8601_time [1]</text><ellipse cx="920.51" cy="897.299" fill="#84BE84" rx="3" ry="3" style="stroke:#038048;stroke-width:1;"/><text fill="#000000" font-family="sans-serif" font-size="14" lengthAdjust="spacing" textLength="351.0206" x="929.51" y="901.161">subtract( a_diff : Iso8601_duration [1] ) : Iso8601_time [1]</text><ellipse cx="920.51" cy="914.0989" fill="#84BE84" rx="3" ry="3" style="stroke:#038048;stroke-width:1;"/><text fill="#000000" font-family="sans-serif" font-size="14" lengthAdjust="spacing" textLength="327.9348" x="929.51" y="917.9609">diff( a_time : Iso8601_time [1] ) : Iso8601_duration [1]</text></g><!--class Iso8601_timezone--><g class="entity" data-entity="Iso8601_timezone" data-source-line="66" data-uid="ent0005" id="entity_Iso8601_timezone"><rect fill="#F1F1F1" height="182.3994" rx="2.5" ry="2.5" style="stroke:#181818;stroke-width:0.5;" width="222.6012" x="1321.72" y="683.8"/><ellipse cx="1371.7558" cy="699.8" fill="#ADD1B2" rx="11" ry="11" style="stroke:#181818;stroke-width:1;"/><path d="M1371.7558,706.2219 C1372.9277,706.2219 1374.1621,705.9563 1375.5371,705.3469 L1375.0527,703.8313 C1373.959,704.2531 1372.9433,704.4406 1372.084,704.4406 C1369.3652,704.4406 1367.6465,702.5969 1367.6465,699.6906 C1367.6465,696.9406 1369.209,695.3469 1371.9433,695.3469 C1372.8652,695.3469 1373.8808,695.5344 1375.0215,695.9563 L1375.5996,694.4406 C1374.5058,693.8625 1373.209,693.5656 1372.0215,693.5656 C1368.2558,693.5656 1365.6777,696.2063 1365.6777,700.0188 C1365.6777,703.6906 1368.1621,706.2219 1371.7558,706.2219 Z " fill="#000000"/><text fill="#000000" font-family="sans-serif" font-size="14" lengthAdjust="spacing" textLength="114.0296" x="1392.2558" y="705.162">Iso8601_timezone</text><line style="stroke:#181818;stroke-width:0.5;" x1="1322.72" x2="1543.3212" y1="715.8" y2="715.8"/><line style="stroke:#181818;stroke-width:0.5;" x1="1322.72" x2="1543.3212" y1="723.8" y2="723.8"/><ellipse cx="1332.72" cy="737.7" fill="#84BE84" rx="3" ry="3" style="stroke:#038048;stroke-width:1;"/><text fill="#000000" font-family="sans-serif" font-size="14" lengthAdjust="spacing" textLength="110.7116" x="1341.72" y="741.5619">hour() : Integer [1]</text><ellipse cx="1332.72" cy="754.4999" fill="#84BE84" rx="3" ry="3" style="stroke:#038048;stroke-width:1;"/><text fill="#000000" font-family="sans-serif" font-size="14" lengthAdjust="spacing" textLength="125.7895" x="1341.72" y="758.3619">minute() : Integer [1]</text><ellipse cx="1332.72" cy="771.2998" fill="#84BE84" rx="3" ry="3" style="stroke:#038048;stroke-width:1;"/><text fill="#000000" font-family="sans-serif" font-size="14" lengthAdjust="spacing" textLength="107.6036" x="1341.72" y="775.1618">sign() : Integer [1]</text><ellipse cx="1332.72" cy="788.0997" fill="#84BE84" rx="3" ry="3" style="stroke:#038048;stroke-width:1;"/><text fill="#000000" font-family="sans-serif" font-size="14" lengthAdjust="spacing" textLength="196.6012" x="1341.72" y="791.9617">minute_unknown() : Boolean [1]</text><ellipse cx="1332.72" cy="804.8997" fill="#84BE84" rx="3" ry="3" style="stroke:#038048;stroke-width:1;"/><text fill="#000000" font-family="sans-serif" font-size="14" lengthAdjust="spacing" textLength="144.9974" x="1341.72" y="808.7616">is_partial() : Boolean [1]</text><ellipse cx="1332.72" cy="821.6996" fill="#84BE84" rx="3" ry="3" style="stroke:#038048;stroke-width:1;"/><text fill="#000000" font-family="sans-serif" font-size="14" lengthAdjust="spacing" textLength="162.6934" x="1341.72" y="825.5616">is_extended() : Boolean [1]</text><ellipse cx="1332.72" cy="838.4995" fill="#84BE84" rx="3" ry="3" style="stroke:#038048;stroke-width:1;"/><text fill="#000000" font-family="sans-serif" font-size="14" lengthAdjust="spacing" textLength="130.4375" x="1341.72" y="842.3615">is_gmt() : Boolean [1]</text><ellipse cx="1332.72" cy="855.2995" fill="#84BE84" rx="3" ry="3" style="stroke:#038048;stroke-width:1;"/><text fill="#000000" font-family="sans-serif" font-size="14" lengthAdjust="spacing" textLength="131.2635" x="1341.72" y="859.1614">as_string() : String [1]</text></g><!--class Iso8601_type--><g class="entity" data-entity="Iso8601_type" data-source-line="77" data-uid="ent0006" id="entity_Iso8601_type"><rect fill="#F1F1F1" height="98.3998" rx="2.5" ry="2.5" style="stroke:#181818;stroke-width:0.5;" width="188.6934" x="1003.67" y="407.8"/><ellipse cx="1052.2008" cy="423.8" fill="#A9DCDF" rx="11" ry="11" style="stroke:#181818;stroke-width:1;"/><path d="M1046.7165,429.3 L1048.7477,429.3 L1052.7946,417.9562 L1051.8883,417.9562 L1055.7165,429.3 L1057.8571,429.3 L1053.529,416.9719 L1051.3102,416.9719 L1046.7165,429.3 Z M1049.0446,425.8 L1055.4821,425.8 L1055.4821,424.05 L1049.0446,424.05 L1049.0446,425.8 Z " fill="#000000"/><text fill="#000000" font-family="sans-serif" font-size="14" font-style="italic" lengthAdjust="spacing" textLength="83.1317" x="1072.7008" y="429.162">Iso8601_type</text><line style="stroke:#181818;stroke-width:0.5;" x1="1004.67" x2="1191.3634" y1="439.8" y2="439.8"/><ellipse cx="1014.67" cy="453.7" fill="none" rx="3" ry="3" style="stroke:#038048;stroke-width:1;"/><text fill="#000000" font-family="sans-serif" font-size="14" lengthAdjust="spacing" textLength="98.9656" x="1023.67" y="457.5619">value : String [1]</text><line style="stroke:#181818;stroke-width:0.5;" x1="1004.67" x2="1191.3634" y1="464.5999" y2="464.5999"/><ellipse cx="1014.67" cy="478.4999" fill="#84BE84" rx="3" ry="3" style="stroke:#038048;stroke-width:1;"/><text fill="#000000" font-family="sans-serif" font-size="14" font-style="italic" lengthAdjust="spacing" textLength="144.9974" x="1023.67" y="482.3619">is_partial() : Boolean [1]</text><ellipse cx="1014.67" cy="495.2998" fill="#84BE84" rx="3" ry="3" style="stroke:#038048;stroke-width:1;"/><text fill="#000000" font-family="sans-serif" font-size="14" font-style="italic" lengthAdjust="spacing" textLength="162.6934" x="1023.67" y="499.1618">is_extended() : Boolean [1]</text></g><!--class Iso8601_date--><g class="entity" data-entity="Iso8601_date" data-source-line="83" data-uid="ent0007" id="entity_Iso8601_date"><rect fill="#F1F1F1" height="283.199" rx="2.5" ry="2.5" style="stroke:#181818;stroke-width:0.5;" width="434.0424" x="1579" y="633.4"/><ellipse cx="1749.9884" cy="649.4" fill="#ADD1B2" rx="11" ry="11" style="stroke:#181818;stroke-width:1;"/><path d="M1749.9884,655.8219 C1751.1602,655.8219 1752.3946,655.5563 1753.7696,654.9469 L1753.2852,653.4313 C1752.1915,653.8531 1751.1759,654.0406 1750.3165,654.0406 C1747.5977,654.0406 1745.879,652.1969 1745.879,649.2906 C1745.879,646.5406 1747.4415,644.9469 1750.1759,644.9469 C1751.0977,644.9469 1752.1134,645.1344 1753.254,645.5563 L1753.8321,644.0406 C1752.7384,643.4625 1751.4415,643.1656 1750.254,643.1656 C1746.4884,643.1656 1743.9102,645.8063 1743.9102,649.6188 C1743.9102,653.2906 1746.3946,655.8219 1749.9884,655.8219 Z " fill="#000000"/><text fill="#000000" font-family="sans-serif" font-size="14" lengthAdjust="spacing" textLength="83.5657" x="1770.4884" y="654.762">Iso8601_date</text><line style="stroke:#181818;stroke-width:0.5;" x1="1580" x2="2012.0424" y1="665.4" y2="665.4"/><line style="stroke:#181818;stroke-width:0.5;" x1="1580" x2="2012.0424" y1="673.4" y2="673.4"/><ellipse cx="1590" cy="687.3" fill="#84BE84" rx="3" ry="3" style="stroke:#038048;stroke-width:1;"/><text fill="#000000" font-family="sans-serif" font-size="14" lengthAdjust="spacing" textLength="108.3036" x="1599" y="691.1619">year() : Integer [1]</text><ellipse cx="1590" cy="704.0999" fill="#84BE84" rx="3" ry="3" style="stroke:#038048;stroke-width:1;"/><text fill="#000000" font-family="sans-serif" font-size="14" lengthAdjust="spacing" textLength="123.0175" x="1599" y="707.9619">month() : Integer [1]</text><ellipse cx="1590" cy="720.8998" fill="#84BE84" rx="3" ry="3" style="stroke:#038048;stroke-width:1;"/><text fill="#000000" font-family="sans-serif" font-size="14" lengthAdjust="spacing" textLength="103.6136" x="1599" y="724.7618">day() : Integer [1]</text><ellipse cx="1590" cy="737.6997" fill="#84BE84" rx="3" ry="3" style="stroke:#038048;stroke-width:1;"/><text fill="#000000" font-family="sans-serif" font-size="14" lengthAdjust="spacing" textLength="209.0612" x="1599" y="741.5617">timezone() : Iso8601_timezone [1]</text><ellipse cx="1590" cy="754.4997" fill="#84BE84" rx="3" ry="3" style="stroke:#038048;stroke-width:1;"/><text fill="#000000" font-family="sans-serif" font-size="14" lengthAdjust="spacing" textLength="193.8293" x="1599" y="758.3616">month_unknown() : Boolean [1]</text><ellipse cx="1590" cy="771.2996" fill="#84BE84" rx="3" ry="3" style="stroke:#038048;stroke-width:1;"/><text fill="#000000" font-family="sans-serif" font-size="14" lengthAdjust="spacing" textLength="174.4253" x="1599" y="775.1616">day_unknown() : Boolean [1]</text><ellipse cx="1590" cy="788.0995" fill="#84BE84" rx="3" ry="3" style="stroke:#038048;stroke-width:1;"/><text fill="#000000" font-family="sans-serif" font-size="14" lengthAdjust="spacing" textLength="144.9974" x="1599" y="791.9615">is_partial() : Boolean [1]</text><ellipse cx="1590" cy="804.8995" fill="#84BE84" rx="3" ry="3" style="stroke:#038048;stroke-width:1;"/><text fill="#000000" font-family="sans-serif" font-size="14" lengthAdjust="spacing" textLength="162.6934" x="1599" y="808.7614">is_extended() : Boolean [1]</text><ellipse cx="1590" cy="821.6994" fill="#84BE84" rx="3" ry="3" style="stroke:#038048;stroke-width:1;"/><text fill="#000000" font-family="sans-serif" font-size="14" lengthAdjust="spacing" textLength="131.2635" x="1599" y="825.5614">as_string() : String [1]</text><ellipse cx="1590" cy="838.4993" fill="#84BE84" rx="3" ry="3" style="stroke:#038048;stroke-width:1;"/><text fill="#000000" font-family="sans-serif" font-size="14" lengthAdjust="spacing" textLength="322.0687" x="1599" y="842.3613">add( a_diff : Iso8601_duration [1] ) : Iso8601_date [1]</text><ellipse cx="1590" cy="855.2992" fill="#84BE84" rx="3" ry="3" style="stroke:#038048;stroke-width:1;"/><text fill="#000000" font-family="sans-serif" font-size="14" lengthAdjust="spacing" textLength="350.3206" x="1599" y="859.1612">subtract( a_diff : Iso8601_duration [1] ) : Iso8601_date [1]</text><ellipse cx="1590" cy="872.0992" fill="#84BE84" rx="3" ry="3" style="stroke:#038048;stroke-width:1;"/><text fill="#000000" font-family="sans-serif" font-size="14" lengthAdjust="spacing" textLength="326.5347" x="1599" y="875.9611">diff( a_date : Iso8601_date [1] ) : Iso8601_duration [1]</text><ellipse cx="1590" cy="888.8991" fill="#84BE84" rx="3" ry="3" style="stroke:#038048;stroke-width:1;"/><text fill="#000000" font-family="sans-serif" font-size="14" lengthAdjust="spacing" textLength="379.7905" x="1599" y="892.7611">add_nominal( a_diff : Iso8601_duration [1] ) : Iso8601_date [1]</text><ellipse cx="1590" cy="905.699" fill="#84BE84" rx="3" ry="3" style="stroke:#038048;stroke-width:1;"/><text fill="#000000" font-family="sans-serif" font-size="14" lengthAdjust="spacing" textLength="408.0424" x="1599" y="909.561">subtract_nominal( a_diff : Iso8601_duration [1] ) : Iso8601_date [1]</text></g><!--class Time_Definitions--><g class="entity" data-entity="Time_Definitions" data-source-line="100" data-uid="ent0008" id="entity_Time_Definitions"><rect fill="#F1F1F1" height="232.7992" rx="2.5" ry="2.5" style="stroke:#181818;stroke-width:0.5;" width="445.5084" x="723.27" y="115"/><ellipse cx="888.7914" cy="131" fill="#ADD1B2" rx="11" ry="11" style="stroke:#181818;stroke-width:1;"/><path d="M888.7914,137.4219 C889.9633,137.4219 891.1977,137.1563 892.5727,136.5469 L892.0883,135.0313 C890.9945,135.4531 889.9789,135.6406 889.1195,135.6406 C886.4008,135.6406 884.682,133.7969 884.682,130.8906 C884.682,128.1406 886.2445,126.5469 888.9789,126.5469 C889.9008,126.5469 890.9164,126.7344 892.057,127.1563 L892.6352,125.6406 C891.5414,125.0625 890.2445,124.7656 889.057,124.7656 C885.2914,124.7656 882.7133,127.4063 882.7133,131.2188 C882.7133,134.8906 885.1977,137.4219 888.7914,137.4219 Z " fill="#000000"/><text fill="#000000" font-family="sans-serif" font-size="14" lengthAdjust="spacing" textLength="105.9656" x="909.2914" y="136.362">Time_Definitions</text><line style="stroke:#181818;stroke-width:0.5;" x1="724.27" x2="1167.7784" y1="147" y2="147"/><line style="stroke:#181818;stroke-width:0.5;" x1="724.27" x2="1167.7784" y1="155" y2="155"/><ellipse cx="734.27" cy="168.9" fill="#84BE84" rx="3" ry="3" style="stroke:#038048;stroke-width:1;"/><text fill="#000000" font-family="sans-serif" font-size="14" lengthAdjust="spacing" textLength="237.0191" x="743.27" y="172.7619">valid_year( y : Integer [1] ) : Boolean [1]</text><ellipse cx="734.27" cy="185.6999" fill="#84BE84" rx="3" ry="3" style="stroke:#038048;stroke-width:1;"/><text fill="#000000" font-family="sans-serif" font-size="14" lengthAdjust="spacing" textLength="257.417" x="743.27" y="189.5619">valid_month( m : Integer [1] ) : Boolean [1]</text><ellipse cx="734.27" cy="202.4998" fill="#84BE84" rx="3" ry="3" style="stroke:#038048;stroke-width:1;"/><text fill="#000000" font-family="sans-serif" font-size="14" lengthAdjust="spacing" textLength="412.6764" x="743.27" y="206.3618">valid_day( y : Integer [1], m : Integer [1], d : Integer [1] ) : Boolean [1]</text><ellipse cx="734.27" cy="219.2997" fill="#84BE84" rx="3" ry="3" style="stroke:#038048;stroke-width:1;"/><text fill="#000000" font-family="sans-serif" font-size="14" lengthAdjust="spacing" textLength="419.5084" x="743.27" y="223.1617">valid_hour( h : Integer [1], m : Integer [1], s : Integer [1] ) : Boolean [1]</text><ellipse cx="734.27" cy="236.0997" fill="#84BE84" rx="3" ry="3" style="stroke:#038048;stroke-width:1;"/><text fill="#000000" font-family="sans-serif" font-size="14" lengthAdjust="spacing" textLength="260.189" x="743.27" y="239.9616">valid_minute( m : Integer [1] ) : Boolean [1]</text><ellipse cx="734.27" cy="252.8996" fill="#84BE84" rx="3" ry="3" style="stroke:#038048;stroke-width:1;"/><text fill="#000000" font-family="sans-serif" font-size="14" lengthAdjust="spacing" textLength="254.519" x="743.27" y="256.7616">valid_second( s : Integer [1] ) : Boolean [1]</text><ellipse cx="734.27" cy="269.6995" fill="#84BE84" rx="3" ry="3" style="stroke:#038048;stroke-width:1;"/><text fill="#000000" font-family="sans-serif" font-size="14" lengthAdjust="spacing" textLength="325.6528" x="743.27" y="273.5615">valid_fractional_second( fs : Double [1] ) : Boolean [1]</text><ellipse cx="734.27" cy="286.4995" fill="#84BE84" rx="3" ry="3" style="stroke:#038048;stroke-width:1;"/><text fill="#000000" font-family="sans-serif" font-size="14" lengthAdjust="spacing" textLength="286.1729" x="743.27" y="290.3614">valid_iso8601_date( s : String [1] ) : Boolean [1]</text><ellipse cx="734.27" cy="303.2994" fill="#84BE84" rx="3" ry="3" style="stroke:#038048;stroke-width:1;"/><text fill="#000000" font-family="sans-serif" font-size="14" lengthAdjust="spacing" textLength="286.8729" x="743.27" y="307.1614">valid_iso8601_time( s : String [1] ) : Boolean [1]</text><ellipse cx="734.27" cy="320.0993" fill="#84BE84" rx="3" ry="3" style="stroke:#038048;stroke-width:1;"/><text fill="#000000" font-family="sans-serif" font-size="14" lengthAdjust="spacing" textLength="321.4667" x="743.27" y="323.9613">valid_iso8601_date_time( s : String [1] ) : Boolean [1]</text><ellipse cx="734.27" cy="336.8992" fill="#84BE84" rx="3" ry="3" style="stroke:#038048;stroke-width:1;"/><text fill="#000000" font-family="sans-serif" font-size="14" lengthAdjust="spacing" textLength="311.1908" x="743.27" y="340.7612">valid_iso8601_duration( s : String [1] ) : Boolean [1]</text></g><!--class Temporal--><g class="entity" data-entity="Temporal" data-source-line="114" data-uid="ent0009" id="entity_Temporal"><rect fill="#F1F1F1" height="48" rx="2.5" ry="2.5" style="stroke:#181818;stroke-width:0.5;" width="91.9898" x="1204.03" y="207.4"/><ellipse cx="1219.03" cy="223.4" fill="#A9DCDF" rx="11" ry="11" style="stroke:#181818;stroke-width:1;"/><path d="M1213.5456,228.9 L1215.5769,228.9 L1219.6238,217.5562 L1218.7175,217.5562 L1222.5456,228.9 L1224.6863,228.9 L1220.3581,216.5719 L1218.1394,216.5719 L1213.5456,228.9 Z M1215.8738,225.4 L1222.3113,225.4 L1222.3113,223.65 L1215.8738,223.65 L1215.8738,225.4 Z " fill="#000000"/><text fill="#000000" font-family="sans-serif" font-size="14" font-style="italic" lengthAdjust="spacing" textLength="59.9898" x="1233.03" y="228.762">Temporal</text><line style="stroke:#181818;stroke-width:0.5;" x1="1205.03" x2="1295.0198" y1="239.4" y2="239.4"/><line style="stroke:#181818;stroke-width:0.5;" x1="1205.03" x2="1295.0198" y1="247.4" y2="247.4"/></g><!--class Ordered--><g class="entity" data-entity="Ordered" data-source-line="124" data-uid="ent0017" id="entity_Ordered"><rect fill="#F1F1F1" height="48" rx="2.5" ry="2.5" style="stroke:#181818;stroke-width:0.5;" width="83.9398" x="1208.05" y="7"/><ellipse cx="1223.05" cy="23" fill="#ADD1B2" rx="11" ry="11" style="stroke:#181818;stroke-width:1;"/><path d="M1223.05,29.4219 C1224.2219,29.4219 1225.4563,29.1563 1226.8313,28.5469 L1226.3469,27.0313 C1225.2531,27.4531 1224.2375,27.6406 1223.3781,27.6406 C1220.6594,27.6406 1218.9406,25.7969 1218.9406,22.8906 C1218.9406,20.1406 1220.5031,18.5469 1223.2375,18.5469 C1224.1594,18.5469 1225.175,18.7344 1226.3156,19.1563 L1226.8938,17.6406 C1225.8,17.0625 1224.5031,16.7656 1223.3156,16.7656 C1219.55,16.7656 1216.9719,19.4063 1216.9719,23.2188 C1216.9719,26.8906 1219.4563,29.4219 1223.05,29.4219 Z " fill="#000000"/><text fill="#000000" font-family="sans-serif" font-size="14" lengthAdjust="spacing" textLength="51.9398" x="1237.05" y="28.362">Ordered</text><line style="stroke:#181818;stroke-width:0.5;" x1="1209.05" x2="1290.9898" y1="39" y2="39"/><line style="stroke:#181818;stroke-width:0.5;" x1="1209.05" x2="1290.9898" y1="47" y2="47"/></g><!--reverse link Iso8601_type to Iso8601_date_time--><g class="link" data-entity-1="Iso8601_type" data-entity-2="Iso8601_date_time" data-source-line="117" data-uid="lnk10" id="link_Iso8601_type_Iso8601_date_time"><path codeLine="117" d="M985.3662,458.4243 C855.9862,461.8343 637.52,480.2 458.02,566.2 C452.39,568.9 446.79,571.78 441.23,574.81" fill="none" id="Iso8601_type-backto-Iso8601_date_time" style="stroke:#181818;stroke-width:1;"/><polygon fill="none" points="1003.36,457.95,985.2082,452.4263,985.5243,464.4222,1003.36,457.95" style="stroke:#181818;stroke-width:1;"/></g><!--reverse link Iso8601_type to Iso8601_duration--><g class="link" data-entity-1="Iso8601_type" data-entity-2="Iso8601_duration" data-source-line="118" data-uid="lnk11" id="link_Iso8601_type_Iso8601_duration"><path codeLine="118" d="M987.1421,508.8534 C951.0021,526.9334 926.37,541.49 892.02,566.2 C877.73,576.48 863.44,587.67 849.39,599.33" fill="none" id="Iso8601_type-backto-Iso8601_duration" style="stroke:#181818;stroke-width:1;"/><polygon fill="none" points="1003.24,500.8,984.4576,503.4874,989.8266,514.2194,1003.24,500.8" style="stroke:#181818;stroke-width:1;"/></g><!--reverse link Iso8601_type to Iso8601_time--><g class="link" data-entity-1="Iso8601_type" data-entity-2="Iso8601_time" data-source-line="119" data-uid="lnk12" id="link_Iso8601_type_Iso8601_time"><path codeLine="119" d="M1098.02,524.68 C1098.02,556.54 1098.02,582.02 1098.02,624.66" fill="none" id="Iso8601_type-backto-Iso8601_time" style="stroke:#181818;stroke-width:1;"/><polygon fill="none" points="1098.02,506.68,1092.02,524.68,1104.02,524.68,1098.02,506.68" style="stroke:#181818;stroke-width:1;"/></g><!--reverse link Iso8601_type to Iso8601_timezone--><g class="link" data-entity-1="Iso8601_type" data-entity-2="Iso8601_timezone" data-source-line="120" data-uid="lnk13" id="link_Iso8601_type_Iso8601_timezone"><path codeLine="120" d="M1208.9585,502.4319 C1246.5085,520.1519 1272.01,536.41 1304.02,566.2 C1339.46,599.18 1368.92,643.99 1390.69,683.56" fill="none" id="Iso8601_type-backto-Iso8601_timezone" style="stroke:#181818;stroke-width:1;"/><polygon fill="none" points="1192.68,494.75,1206.3978,507.858,1211.5191,497.0057,1192.68,494.75" style="stroke:#181818;stroke-width:1;"/></g><!--reverse link Temporal to Iso8601_type--><g class="link" data-entity-1="Temporal" data-entity-2="Iso8601_type" data-source-line="121" data-uid="lnk14" id="link_Temporal_Iso8601_type"><path codeLine="121" d="M1230.567,271.738 C1218.577,295.558 1206.68,317.25 1186.02,347.8 C1172.32,368.06 1155.73,389.18 1140.67,407.32" fill="none" id="Temporal-backto-Iso8601_type" style="stroke:#181818;stroke-width:1;"/><polygon fill="none" points="1238.66,255.66,1225.2076,269.0404,1235.9263,274.4357,1238.66,255.66" style="stroke:#181818;stroke-width:1;"/></g><!--reverse link Time_Definitions to Iso8601_type--><g class="link" data-entity-1="Time_Definitions" data-entity-2="Iso8601_type" data-source-line="122" data-uid="lnk15" id="link_Time_Definitions_Iso8601_type"><path codeLine="122" d="M1034.809,363.0164 C1049.009,383.9064 1052.96,389.72 1064.93,407.32" fill="none" id="Time_Definitions-backto-Iso8601_type" style="stroke:#181818;stroke-width:1;"/><polygon fill="none" points="1024.69,348.13,1029.8469,366.3894,1039.7712,359.6434,1024.69,348.13" style="stroke:#181818;stroke-width:1;"/></g><!--reverse link Iso8601_type to Iso8601_date--><g class="link" data-entity-1="Iso8601_type" data-entity-2="Iso8601_date" data-source-line="123" data-uid="lnk16" id="link_Iso8601_type_Iso8601_date"><path codeLine="123" d="M1210.3944,468.3729 C1307.6444,479.9229 1443.38,504.79 1562.02,566.2 C1596.28,583.93 1629.53,607.81 1659.71,633.07" fill="none" id="Iso8601_type-backto-Iso8601_date" style="stroke:#181818;stroke-width:1;"/><polygon fill="none" points="1192.52,466.25,1209.6868,474.331,1211.102,462.4147,1192.52,466.25" style="stroke:#181818;stroke-width:1;"/></g><!--reverse link Ordered to Temporal--><g class="link" data-entity-1="Ordered" data-entity-2="Temporal" data-source-line="124" data-uid="lnk18" id="link_Ordered_Temporal"><path codeLine="124" d="M1250.02,73.15 C1250.02,111.28 1250.02,168.86 1250.02,207.1" fill="none" id="Ordered-backto-Temporal" style="stroke:#181818;stroke-width:1;"/><polygon fill="none" points="1250.02,55.15,1244.02,73.15,1256.02,73.15,1250.02,55.15" style="stroke:#181818;stroke-width:1;"/></g></g></svg>
