<svg xmlns="http://www.w3.org/2000/svg" xmlns:xlink="http://www.w3.org/1999/xlink" contentStyleType="text/css" data-diagram-type="CLASS" height="462px" preserveAspectRatio="none" style="width:1152px;height:462px;background:#FFFFFF;" version="1.1" viewBox="0 0 1152 462" width="1152px" zoomAndPan="magnify"><defs/><g><!--class Uri--><g class="entity" data-entity="Uri" data-source-line="2" data-uid="ent0002" id="entity_Uri"><rect fill="#F1F1F1" height="48" rx="2.5" ry="2.5" style="stroke:#181818;stroke-width:0.5;" width="50.1159" x="688.33" y="399.4"/><ellipse cx="703.33" cy="415.4" fill="#ADD1B2" rx="11" ry="11" style="stroke:#181818;stroke-width:1;"/><path d="M703.33,421.8219 C704.5019,421.8219 705.7363,421.5563 707.1113,420.9469 L706.6269,419.4313 C705.5331,419.8531 704.5175,420.0406 703.6581,420.0406 C700.9394,420.0406 699.2206,418.1969 699.2206,415.2906 C699.2206,412.5406 700.7831,410.9469 703.5175,410.9469 C704.4394,410.9469 705.455,411.1344 706.5956,411.5563 L707.1738,410.0406 C706.08,409.4625 704.7831,409.1656 703.5956,409.1656 C699.83,409.1656 697.2519,411.8063 697.2519,415.6188 C697.2519,419.2906 699.7363,421.8219 703.33,421.8219 Z " fill="#000000"/><text fill="#000000" font-family="sans-serif" font-size="14" lengthAdjust="spacing" textLength="18.1159" x="717.33" y="420.762">Uri</text><line style="stroke:#181818;stroke-width:0.5;" x1="689.33" x2="737.4459" y1="431.4" y2="431.4"/><line style="stroke:#181818;stroke-width:0.5;" x1="689.33" x2="737.4459" y1="439.4" y2="439.4"/></g><!--class Comparable--><g class="entity" data-entity="Comparable" data-source-line="5" data-uid="ent0003" id="entity_Comparable"><rect fill="#F1F1F1" height="48" rx="2.5" ry="2.5" style="stroke:#181818;stroke-width:0.5;" width="108.2437" x="681.26" y="57.4"/><ellipse cx="696.26" cy="73.4" fill="#A9DCDF" rx="11" ry="11" style="stroke:#181818;stroke-width:1;"/><path d="M690.7756,78.9 L692.8069,78.9 L696.8538,67.5563 L695.9475,67.5563 L699.7756,78.9 L701.9163,78.9 L697.5881,66.5719 L695.3694,66.5719 L690.7756,78.9 Z M693.1038,75.4 L699.5413,75.4 L699.5413,73.65 L693.1038,73.65 L693.1038,75.4 Z " fill="#000000"/><text fill="#000000" font-family="sans-serif" font-size="14" font-style="italic" lengthAdjust="spacing" textLength="76.2437" x="710.26" y="78.762">Comparable</text><line style="stroke:#181818;stroke-width:0.5;" x1="682.26" x2="788.5037" y1="89.4" y2="89.4"/><line style="stroke:#181818;stroke-width:0.5;" x1="682.26" x2="788.5037" y1="97.4" y2="97.4"/></g><!--class Ordered_Numeric--><g class="entity" data-entity="Ordered_Numeric" data-source-line="8" data-uid="ent0004" id="entity_Ordered_Numeric"><rect fill="#F1F1F1" height="48" rx="2.5" ry="2.5" style="stroke:#181818;stroke-width:0.5;" width="144.3075" x="156.23" y="249.4"/><ellipse cx="171.23" cy="265.4" fill="#A9DCDF" rx="11" ry="11" style="stroke:#181818;stroke-width:1;"/><path d="M165.7456,270.9 L167.7769,270.9 L171.8238,259.5563 L170.9175,259.5563 L174.7456,270.9 L176.8863,270.9 L172.5581,258.5719 L170.3394,258.5719 L165.7456,270.9 Z M168.0738,267.4 L174.5113,267.4 L174.5113,265.65 L168.0738,265.65 L168.0738,267.4 Z " fill="#000000"/><text fill="#000000" font-family="sans-serif" font-size="14" font-style="italic" lengthAdjust="spacing" textLength="112.3075" x="185.23" y="270.762">Ordered_Numeric</text><line style="stroke:#181818;stroke-width:0.5;" x1="157.23" x2="299.5375" y1="281.4" y2="281.4"/><line style="stroke:#181818;stroke-width:0.5;" x1="157.23" x2="299.5375" y1="289.4" y2="289.4"/></g><!--class Integer--><g class="entity" data-entity="Integer" data-source-line="11" data-uid="ent0005" id="entity_Integer"><rect fill="#F1F1F1" height="48" rx="2.5" ry="2.5" style="stroke:#181818;stroke-width:0.5;" width="76.7718" x="7" y="399.4"/><ellipse cx="22" cy="415.4" fill="#ADD1B2" rx="11" ry="11" style="stroke:#181818;stroke-width:1;"/><path d="M22,421.8219 C23.1719,421.8219 24.4063,421.5563 25.7813,420.9469 L25.2969,419.4313 C24.2031,419.8531 23.1875,420.0406 22.3281,420.0406 C19.6094,420.0406 17.8906,418.1969 17.8906,415.2906 C17.8906,412.5406 19.4531,410.9469 22.1875,410.9469 C23.1094,410.9469 24.125,411.1344 25.2656,411.5563 L25.8438,410.0406 C24.75,409.4625 23.4531,409.1656 22.2656,409.1656 C18.5,409.1656 15.9219,411.8063 15.9219,415.6188 C15.9219,419.2906 18.4063,421.8219 22,421.8219 Z " fill="#000000"/><text fill="#000000" font-family="sans-serif" font-size="14" lengthAdjust="spacing" textLength="44.7718" x="36" y="420.762">Integer</text><line style="stroke:#181818;stroke-width:0.5;" x1="8" x2="82.7718" y1="431.4" y2="431.4"/><line style="stroke:#181818;stroke-width:0.5;" x1="8" x2="82.7718" y1="439.4" y2="439.4"/></g><!--class Double--><g class="entity" data-entity="Double" data-source-line="14" data-uid="ent0006" id="entity_Double"><rect fill="#F1F1F1" height="48" rx="2.5" ry="2.5" style="stroke:#181818;stroke-width:0.5;" width="76.9678" x="118.9" y="399.4"/><ellipse cx="133.9" cy="415.4" fill="#ADD1B2" rx="11" ry="11" style="stroke:#181818;stroke-width:1;"/><path d="M133.9,421.8219 C135.0719,421.8219 136.3063,421.5563 137.6813,420.9469 L137.1969,419.4313 C136.1031,419.8531 135.0875,420.0406 134.2281,420.0406 C131.5094,420.0406 129.7906,418.1969 129.7906,415.2906 C129.7906,412.5406 131.3531,410.9469 134.0875,410.9469 C135.0094,410.9469 136.025,411.1344 137.1656,411.5563 L137.7438,410.0406 C136.65,409.4625 135.3531,409.1656 134.1656,409.1656 C130.4,409.1656 127.8219,411.8063 127.8219,415.6188 C127.8219,419.2906 130.3063,421.8219 133.9,421.8219 Z " fill="#000000"/><text fill="#000000" font-family="sans-serif" font-size="14" lengthAdjust="spacing" textLength="44.9678" x="147.9" y="420.762">Double</text><line style="stroke:#181818;stroke-width:0.5;" x1="119.9" x2="194.8678" y1="431.4" y2="431.4"/><line style="stroke:#181818;stroke-width:0.5;" x1="119.9" x2="194.8678" y1="439.4" y2="439.4"/></g><!--class Numeric--><g class="entity" data-entity="Numeric" data-source-line="17" data-uid="ent0007" id="entity_Numeric"><rect fill="#F1F1F1" height="98.3998" rx="2.5" ry="2.5" style="stroke:#181818;stroke-width:0.5;" width="275.367" x="63.7" y="32.2"/><ellipse cx="170.4496" cy="48.2" fill="#A9DCDF" rx="11" ry="11" style="stroke:#181818;stroke-width:1;"/><path d="M164.9652,53.7 L166.9965,53.7 L171.0434,42.3562 L170.1371,42.3562 L173.9652,53.7 L176.1059,53.7 L171.7777,41.3719 L169.559,41.3719 L164.9652,53.7 Z M167.2934,50.2 L173.7309,50.2 L173.7309,48.45 L167.2934,48.45 L167.2934,50.2 Z " fill="#000000"/><text fill="#000000" font-family="sans-serif" font-size="14" font-style="italic" lengthAdjust="spacing" textLength="53.3678" x="190.9496" y="53.562">Numeric</text><line style="stroke:#181818;stroke-width:0.5;" x1="64.7" x2="338.067" y1="64.2" y2="64.2"/><line style="stroke:#181818;stroke-width:0.5;" x1="64.7" x2="338.067" y1="72.2" y2="72.2"/><ellipse cx="74.7" cy="86.1" fill="#84BE84" rx="3" ry="3" style="stroke:#038048;stroke-width:1;"/><text fill="#000000" font-family="sans-serif" font-size="14" font-style="italic" lengthAdjust="spacing" textLength="247.813" x="83.7" y="89.9619">infix *( other : Numeric [1] ) : Numeric [1]</text><ellipse cx="74.7" cy="102.8999" fill="#84BE84" rx="3" ry="3" style="stroke:#038048;stroke-width:1;"/><text fill="#000000" font-family="sans-serif" font-size="14" font-style="italic" lengthAdjust="spacing" textLength="249.367" x="83.7" y="106.7619">infix +( other : Numeric [1] ) : Numeric [1]</text><ellipse cx="74.7" cy="119.6998" fill="#84BE84" rx="3" ry="3" style="stroke:#038048;stroke-width:1;"/><text fill="#000000" font-family="sans-serif" font-size="14" font-style="italic" lengthAdjust="spacing" textLength="247.183" x="83.7" y="123.5618">infix -( other : Numeric [1] ) : Numeric [1]</text></g><!--class Octet--><g class="entity" data-entity="Octet" data-source-line="23" data-uid="ent0008" id="entity_Octet"><rect fill="#F1F1F1" height="48" rx="2.5" ry="2.5" style="stroke:#181818;stroke-width:0.5;" width="66.6779" x="362.05" y="249.4"/><ellipse cx="377.05" cy="265.4" fill="#ADD1B2" rx="11" ry="11" style="stroke:#181818;stroke-width:1;"/><path d="M377.05,271.8219 C378.2219,271.8219 379.4563,271.5563 380.8313,270.9469 L380.3469,269.4313 C379.2531,269.8531 378.2375,270.0406 377.3781,270.0406 C374.6594,270.0406 372.9406,268.1969 372.9406,265.2906 C372.9406,262.5406 374.5031,260.9469 377.2375,260.9469 C378.1594,260.9469 379.175,261.1344 380.3156,261.5563 L380.8938,260.0406 C379.8,259.4625 378.5031,259.1656 377.3156,259.1656 C373.55,259.1656 370.9719,261.8063 370.9719,265.6188 C370.9719,269.2906 373.4563,271.8219 377.05,271.8219 Z " fill="#000000"/><text fill="#000000" font-family="sans-serif" font-size="14" lengthAdjust="spacing" textLength="34.6779" x="391.05" y="270.762">Octet</text><line style="stroke:#181818;stroke-width:0.5;" x1="363.05" x2="427.7279" y1="281.4" y2="281.4"/><line style="stroke:#181818;stroke-width:0.5;" x1="363.05" x2="427.7279" y1="289.4" y2="289.4"/></g><!--class Character--><g class="entity" data-entity="Character" data-source-line="26" data-uid="ent0009" id="entity_Character"><rect fill="#F1F1F1" height="48" rx="2.5" ry="2.5" style="stroke:#181818;stroke-width:0.5;" width="92.8438" x="463.96" y="249.4"/><ellipse cx="478.96" cy="265.4" fill="#ADD1B2" rx="11" ry="11" style="stroke:#181818;stroke-width:1;"/><path d="M478.96,271.8219 C480.1319,271.8219 481.3663,271.5563 482.7413,270.9469 L482.2569,269.4313 C481.1631,269.8531 480.1475,270.0406 479.2881,270.0406 C476.5694,270.0406 474.8506,268.1969 474.8506,265.2906 C474.8506,262.5406 476.4131,260.9469 479.1475,260.9469 C480.0694,260.9469 481.085,261.1344 482.2256,261.5563 L482.8038,260.0406 C481.71,259.4625 480.4131,259.1656 479.2256,259.1656 C475.46,259.1656 472.8819,261.8063 472.8819,265.6188 C472.8819,269.2906 475.3663,271.8219 478.96,271.8219 Z " fill="#000000"/><text fill="#000000" font-family="sans-serif" font-size="14" lengthAdjust="spacing" textLength="60.8438" x="492.96" y="270.762">Character</text><line style="stroke:#181818;stroke-width:0.5;" x1="464.96" x2="555.8038" y1="281.4" y2="281.4"/><line style="stroke:#181818;stroke-width:0.5;" x1="464.96" x2="555.8038" y1="289.4" y2="289.4"/></g><!--class Boolean--><g class="entity" data-entity="Boolean" data-source-line="29" data-uid="ent0010" id="entity_Boolean"><rect fill="#F1F1F1" height="148.7996" rx="2.5" ry="2.5" style="stroke:#181818;stroke-width:0.5;" width="321.0909" x="824.84" y="7"/><ellipse cx="955.5925" cy="23" fill="#ADD1B2" rx="11" ry="11" style="stroke:#181818;stroke-width:1;"/><path d="M955.5925,29.4219 C956.7644,29.4219 957.9988,29.1563 959.3738,28.5469 L958.8894,27.0313 C957.7957,27.4531 956.78,27.6406 955.9207,27.6406 C953.2019,27.6406 951.4832,25.7969 951.4832,22.8906 C951.4832,20.1406 953.0457,18.5469 955.78,18.5469 C956.7019,18.5469 957.7175,18.7344 958.8582,19.1563 L959.4363,17.6406 C958.3425,17.0625 957.0457,16.7656 955.8582,16.7656 C952.0925,16.7656 949.5144,19.4063 949.5144,23.2188 C949.5144,26.8906 951.9988,29.4219 955.5925,29.4219 Z " fill="#000000"/><text fill="#000000" font-family="sans-serif" font-size="14" lengthAdjust="spacing" textLength="51.0858" x="976.0925" y="28.362">Boolean</text><line style="stroke:#181818;stroke-width:0.5;" x1="825.84" x2="1144.9309" y1="39" y2="39"/><line style="stroke:#181818;stroke-width:0.5;" x1="825.84" x2="1144.9309" y1="47" y2="47"/><ellipse cx="835.84" cy="60.9" fill="#84BE84" rx="3" ry="3" style="stroke:#038048;stroke-width:1;"/><text fill="#000000" font-family="sans-serif" font-size="14" lengthAdjust="spacing" textLength="259.769" x="844.84" y="64.7619">infix and( other : Boolean [1] ) : Boolean [1]</text><ellipse cx="835.84" cy="77.6999" fill="#84BE84" rx="3" ry="3" style="stroke:#038048;stroke-width:1;"/><text fill="#000000" font-family="sans-serif" font-size="14" lengthAdjust="spacing" textLength="295.0909" x="844.84" y="81.5619">infix and_then( other : Boolean [1] ) : Boolean [1]</text><ellipse cx="835.84" cy="94.4998" fill="#84BE84" rx="3" ry="3" style="stroke:#038048;stroke-width:1;"/><text fill="#000000" font-family="sans-serif" font-size="14" lengthAdjust="spacing" textLength="249.899" x="844.84" y="98.3618">infix or( other : Boolean [1] ) : Boolean [1]</text><ellipse cx="835.84" cy="111.2997" fill="#84BE84" rx="3" ry="3" style="stroke:#038048;stroke-width:1;"/><text fill="#000000" font-family="sans-serif" font-size="14" lengthAdjust="spacing" textLength="282.0709" x="844.84" y="115.1617">infix or_else( other : Boolean [1] ) : Boolean [1]</text><ellipse cx="835.84" cy="128.0997" fill="#84BE84" rx="3" ry="3" style="stroke:#038048;stroke-width:1;"/><text fill="#000000" font-family="sans-serif" font-size="14" lengthAdjust="spacing" textLength="256.465" x="844.84" y="131.9616">infix xor( other : Boolean [1] ) : Boolean [1]</text><ellipse cx="835.84" cy="144.8996" fill="#84BE84" rx="3" ry="3" style="stroke:#038048;stroke-width:1;"/><text fill="#000000" font-family="sans-serif" font-size="14" lengthAdjust="spacing" textLength="281.7489" x="844.84" y="148.7616">infix implies( other : Boolean [1] ) : Boolean [1]</text></g><!--class String--><g class="entity" data-entity="String" data-source-line="38" data-uid="ent0011" id="entity_String"><rect fill="#F1F1F1" height="115.1997" rx="2.5" ry="2.5" style="stroke:#181818;stroke-width:0.5;" width="243.5032" x="591.63" y="215.8"/><ellipse cx="690.4137" cy="231.8" fill="#ADD1B2" rx="11" ry="11" style="stroke:#181818;stroke-width:1;"/><path d="M690.4137,238.2219 C691.5855,238.2219 692.8199,237.9563 694.1949,237.3469 L693.7105,235.8313 C692.6168,236.2531 691.6012,236.4406 690.7418,236.4406 C688.023,236.4406 686.3043,234.5969 686.3043,231.6906 C686.3043,228.9406 687.8668,227.3469 690.6012,227.3469 C691.523,227.3469 692.5387,227.5344 693.6793,227.9563 L694.2574,226.4406 C693.1637,225.8625 691.8668,225.5656 690.6793,225.5656 C686.9137,225.5656 684.3355,228.2063 684.3355,232.0188 C684.3355,235.6906 686.8199,238.2219 690.4137,238.2219 Z " fill="#000000"/><text fill="#000000" font-family="sans-serif" font-size="14" lengthAdjust="spacing" textLength="37.4359" x="710.9137" y="237.162">String</text><line style="stroke:#181818;stroke-width:0.5;" x1="592.63" x2="834.1332" y1="247.8" y2="247.8"/><line style="stroke:#181818;stroke-width:0.5;" x1="592.63" x2="834.1332" y1="255.8" y2="255.8"/><ellipse cx="602.63" cy="269.7" fill="#84BE84" rx="3" ry="3" style="stroke:#038048;stroke-width:1;"/><text fill="#000000" font-family="sans-serif" font-size="14" lengthAdjust="spacing" textLength="217.5032" x="611.63" y="273.5619">infix +( other : String [1] ) : String [1]</text><ellipse cx="602.63" cy="286.4999" fill="#84BE84" rx="3" ry="3" style="stroke:#038048;stroke-width:1;"/><text fill="#000000" font-family="sans-serif" font-size="14" lengthAdjust="spacing" textLength="144.5634" x="611.63" y="290.3619">is_empty() : Boolean [1]</text><ellipse cx="602.63" cy="303.2998" fill="#84BE84" rx="3" ry="3" style="stroke:#038048;stroke-width:1;"/><text fill="#000000" font-family="sans-serif" font-size="14" lengthAdjust="spacing" textLength="149.4774" x="611.63" y="307.1618">is_integer() : Boolean [1]</text><ellipse cx="602.63" cy="320.0997" fill="#84BE84" rx="3" ry="3" style="stroke:#038048;stroke-width:1;"/><text fill="#000000" font-family="sans-serif" font-size="14" lengthAdjust="spacing" textLength="146.8874" x="611.63" y="323.9617">as_integer() : Integer [1]</text></g><!--class Real--><g class="entity" data-entity="Real" data-source-line="45" data-uid="ent0012" id="entity_Real"><rect fill="#F1F1F1" height="64.7999" rx="2.5" ry="2.5" style="stroke:#181818;stroke-width:0.5;" width="137.5516" x="230.61" y="391"/><ellipse cx="281.5699" cy="407" fill="#ADD1B2" rx="11" ry="11" style="stroke:#181818;stroke-width:1;"/><path d="M281.5699,413.4219 C282.7417,413.4219 283.9761,413.1563 285.3511,412.5469 L284.8667,411.0313 C283.773,411.4531 282.7574,411.6406 281.898,411.6406 C279.1792,411.6406 277.4605,409.7969 277.4605,406.8906 C277.4605,404.1406 279.023,402.5469 281.7574,402.5469 C282.6792,402.5469 283.6949,402.7344 284.8355,403.1563 L285.4136,401.6406 C284.3199,401.0625 283.023,400.7656 281.8355,400.7656 C278.0699,400.7656 275.4917,403.4063 275.4917,407.2188 C275.4917,410.8906 277.9761,413.4219 281.5699,413.4219 Z " fill="#000000"/><text fill="#000000" font-family="sans-serif" font-size="14" lengthAdjust="spacing" textLength="27.1319" x="302.0699" y="412.362">Real</text><line style="stroke:#181818;stroke-width:0.5;" x1="231.61" x2="367.1616" y1="423" y2="423"/><line style="stroke:#181818;stroke-width:0.5;" x1="231.61" x2="367.1616" y1="431" y2="431"/><ellipse cx="241.61" cy="444.9" fill="#84BE84" rx="3" ry="3" style="stroke:#038048;stroke-width:1;"/><text fill="#000000" font-family="sans-serif" font-size="14" lengthAdjust="spacing" textLength="111.5516" x="250.61" y="448.7619">floor() : Integer [1]</text></g><!--class Integer64--><g class="entity" data-entity="Integer64" data-source-line="49" data-uid="ent0013" id="entity_Integer64"><rect fill="#F1F1F1" height="48" rx="2.5" ry="2.5" style="stroke:#181818;stroke-width:0.5;" width="93.2918" x="402.74" y="399.4"/><ellipse cx="417.74" cy="415.4" fill="#ADD1B2" rx="11" ry="11" style="stroke:#181818;stroke-width:1;"/><path d="M417.74,421.8219 C418.9119,421.8219 420.1463,421.5563 421.5213,420.9469 L421.0369,419.4313 C419.9431,419.8531 418.9275,420.0406 418.0681,420.0406 C415.3494,420.0406 413.6306,418.1969 413.6306,415.2906 C413.6306,412.5406 415.1931,410.9469 417.9275,410.9469 C418.8494,410.9469 419.865,411.1344 421.0056,411.5563 L421.5838,410.0406 C420.49,409.4625 419.1931,409.1656 418.0056,409.1656 C414.24,409.1656 411.6619,411.8063 411.6619,415.6188 C411.6619,419.2906 414.1463,421.8219 417.74,421.8219 Z " fill="#000000"/><text fill="#000000" font-family="sans-serif" font-size="14" lengthAdjust="spacing" textLength="61.2918" x="431.74" y="420.762">Integer64</text><line style="stroke:#181818;stroke-width:0.5;" x1="403.74" x2="495.0318" y1="431.4" y2="431.4"/><line style="stroke:#181818;stroke-width:0.5;" x1="403.74" x2="495.0318" y1="439.4" y2="439.4"/></g><!--class Ordered--><g class="entity" data-entity="Ordered" data-source-line="52" data-uid="ent0014" id="entity_Ordered"><rect fill="#F1F1F1" height="64.7999" rx="2.5" ry="2.5" style="stroke:#181818;stroke-width:0.5;" width="271.657" x="374.56" y="49"/><ellipse cx="480.1686" cy="65" fill="#A9DCDF" rx="11" ry="11" style="stroke:#181818;stroke-width:1;"/><path d="M474.6843,70.5 L476.7155,70.5 L480.7624,59.1563 L479.8561,59.1563 L483.6843,70.5 L485.8249,70.5 L481.4968,58.1719 L479.278,58.1719 L474.6843,70.5 Z M477.0124,67 L483.4499,67 L483.4499,65.25 L477.0124,65.25 L477.0124,67 Z " fill="#000000"/><text fill="#000000" font-family="sans-serif" font-size="14" font-style="italic" lengthAdjust="spacing" textLength="51.9398" x="500.6686" y="70.362">Ordered</text><line style="stroke:#181818;stroke-width:0.5;" x1="375.56" x2="645.217" y1="81" y2="81"/><line style="stroke:#181818;stroke-width:0.5;" x1="375.56" x2="645.217" y1="89" y2="89"/><ellipse cx="385.56" cy="102.9" fill="#84BE84" rx="3" ry="3" style="stroke:#038048;stroke-width:1;"/><text fill="#000000" font-family="sans-serif" font-size="14" font-style="italic" lengthAdjust="spacing" textLength="245.657" x="394.56" y="106.7619">infix &lt;( other : Ordered [1] ) : Boolean [1]</text></g><!--reverse link String to Uri--><g class="link" data-entity-1="String" data-entity-2="Uri" data-source-line="56" data-uid="lnk15" id="link_String_Uri"><path codeLine="56" d="M713.39,349.2 C713.39,372.84 713.39,380.96 713.39,399.16" fill="none" id="String-backto-Uri" style="stroke:#181818;stroke-width:1;"/><polygon fill="none" points="713.39,331.2,707.39,349.2,719.39,349.2,713.39,331.2" style="stroke:#181818;stroke-width:1;"/></g><!--reverse link Ordered to Ordered_Numeric--><g class="link" data-entity-1="Ordered" data-entity-2="Ordered_Numeric" data-source-line="57" data-uid="lnk16" id="link_Ordered_Ordered_Numeric"><path codeLine="57" d="M448.2617,124.2571 C391.8117,162.2871 313.59,214.99 263.26,248.91" fill="none" id="Ordered-backto-Ordered_Numeric" style="stroke:#181818;stroke-width:1;"/><polygon fill="none" points="463.19,114.2,444.9093,119.281,451.6141,129.2332,463.19,114.2" style="stroke:#181818;stroke-width:1;"/></g><!--reverse link Numeric to Ordered_Numeric--><g class="link" data-entity-1="Numeric" data-entity-2="Ordered_Numeric" data-source-line="58" data-uid="lnk17" id="link_Numeric_Ordered_Numeric"><path codeLine="58" d="M210.8024,148.661 C216.1924,186.591 220.92,219.86 225.08,249.15" fill="none" id="Numeric-backto-Ordered_Numeric" style="stroke:#181818;stroke-width:1;"/><polygon fill="none" points="208.27,130.84,204.8621,149.5051,216.7428,147.8168,208.27,130.84" style="stroke:#181818;stroke-width:1;"/></g><!--reverse link Ordered_Numeric to Integer--><g class="link" data-entity-1="Ordered_Numeric" data-entity-2="Integer" data-source-line="59" data-uid="lnk18" id="link_Ordered_Numeric_Integer"><path codeLine="59" d="M185.3931,309.1676 C151.1231,336.8776 108.45,371.39 74.25,399.06" fill="none" id="Ordered_Numeric-backto-Integer" style="stroke:#181818;stroke-width:1;"/><polygon fill="none" points="199.39,297.85,181.6206,304.502,189.1657,313.8332,199.39,297.85" style="stroke:#181818;stroke-width:1;"/></g><!--reverse link Ordered_Numeric to Double--><g class="link" data-entity-1="Ordered_Numeric" data-entity-2="Double" data-source-line="60" data-uid="lnk19" id="link_Ordered_Numeric_Double"><path codeLine="60" d="M209.3512,314.0776 C196.0512,341.7876 181.86,371.39 168.58,399.06" fill="none" id="Ordered_Numeric-backto-Double" style="stroke:#181818;stroke-width:1;"/><polygon fill="none" points="217.14,297.85,203.942,311.4813,214.7604,316.6739,217.14,297.85" style="stroke:#181818;stroke-width:1;"/></g><!--reverse link Ordered to Octet--><g class="link" data-entity-1="Ordered" data-entity-2="Octet" data-source-line="61" data-uid="lnk20" id="link_Ordered_Octet"><path codeLine="61" d="M481.819,129.5987 C458.799,167.6287 430.13,214.99 409.61,248.91" fill="none" id="Ordered-backto-Octet" style="stroke:#181818;stroke-width:1;"/><polygon fill="none" points="491.14,114.2,476.6861,126.4917,486.9519,132.7057,491.14,114.2" style="stroke:#181818;stroke-width:1;"/></g><!--reverse link Ordered to Character--><g class="link" data-entity-1="Ordered" data-entity-2="Character" data-source-line="62" data-uid="lnk21" id="link_Ordered_Character"><path codeLine="62" d="M510.39,132.2 C510.39,170.23 510.39,214.99 510.39,248.91" fill="none" id="Ordered-backto-Character" style="stroke:#181818;stroke-width:1;"/><polygon fill="none" points="510.39,114.2,504.39,132.2,516.39,132.2,510.39,114.2" style="stroke:#181818;stroke-width:1;"/></g><!--reverse link Ordered to String--><g class="link" data-entity-1="Ordered" data-entity-2="String" data-source-line="63" data-uid="lnk22" id="link_Ordered_String"><path codeLine="63" d="M557.5025,126.4994 C586.9625,154.0694 617.17,182.35 652.59,215.5" fill="none" id="Ordered-backto-String" style="stroke:#181818;stroke-width:1;"/><polygon fill="none" points="544.36,114.2,553.4027,130.8802,561.6023,122.1185,544.36,114.2" style="stroke:#181818;stroke-width:1;"/></g><!--reverse link Ordered_Numeric to Real--><g class="link" data-entity-1="Ordered_Numeric" data-entity-2="Real" data-source-line="64" data-uid="lnk23" id="link_Ordered_Numeric_Real"><path codeLine="64" d="M247.4241,314.0798 C259.4241,339.0998 270.73,362.67 284.09,390.52" fill="none" id="Ordered_Numeric-backto-Real" style="stroke:#181818;stroke-width:1;"/><polygon fill="none" points="239.64,297.85,242.0141,316.6745,252.834,311.4851,239.64,297.85" style="stroke:#181818;stroke-width:1;"/></g><!--reverse link Ordered_Numeric to Integer64--><g class="link" data-entity-1="Ordered_Numeric" data-entity-2="Integer64" data-source-line="65" data-uid="lnk24" id="link_Ordered_Numeric_Integer64"><path codeLine="65" d="M278.3574,307.8638 C319.7474,335.5738 373.22,371.39 414.53,399.06" fill="none" id="Ordered_Numeric-backto-Integer64" style="stroke:#181818;stroke-width:1;"/><polygon fill="none" points="263.4,297.85,275.0195,312.8496,281.6953,302.878,263.4,297.85" style="stroke:#181818;stroke-width:1;"/></g></g></svg>
