<svg xmlns="http://www.w3.org/2000/svg" xmlns:xlink="http://www.w3.org/1999/xlink" contentStyleType="text/css" data-diagram-type="CLASS" height="654px" preserveAspectRatio="none" style="width:1100px;height:654px;background:#FFFFFF;" version="1.1" viewBox="0 0 1100 654" width="1100px" zoomAndPan="magnify"><defs/><g><!--class IDate--><g class="entity" data-entity="IDate" data-source-line="2" data-uid="ent0002" id="entity_IDate"><rect fill="#F1F1F1" height="131.9996" rx="2.5" ry="2.5" style="stroke:#181818;stroke-width:0.5;" width="185.6974" x="7" y="365.8"/><ellipse cx="78.9457" cy="381.8" fill="#A9DCDF" rx="11" ry="11" style="stroke:#181818;stroke-width:1;"/><path d="M73.4614,387.3 L75.4926,387.3 L79.5395,375.9562 L78.6332,375.9562 L82.4614,387.3 L84.602,387.3 L80.2739,374.9719 L78.0551,374.9719 L73.4614,387.3 Z M75.7895,383.8 L82.227,383.8 L82.227,382.05 L75.7895,382.05 L75.7895,383.8 Z " fill="#000000"/><text fill="#000000" font-family="sans-serif" font-size="14" font-style="italic" lengthAdjust="spacing" textLength="33.3059" x="99.4457" y="387.162">IDate</text><line style="stroke:#181818;stroke-width:0.5;" x1="8" x2="191.6974" y1="397.8" y2="397.8"/><line style="stroke:#181818;stroke-width:0.5;" x1="8" x2="191.6974" y1="405.8" y2="405.8"/><ellipse cx="18" cy="419.7" fill="#84BE84" rx="3" ry="3" style="stroke:#038048;stroke-width:1;"/><text fill="#000000" font-family="sans-serif" font-size="14" lengthAdjust="spacing" textLength="108.3036" x="27" y="423.5619">year() : Integer [1]</text><ellipse cx="18" cy="436.4999" fill="#84BE84" rx="3" ry="3" style="stroke:#038048;stroke-width:1;"/><text fill="#000000" font-family="sans-serif" font-size="14" lengthAdjust="spacing" textLength="123.0175" x="27" y="440.3619">month() : Integer [1]</text><ellipse cx="18" cy="453.2998" fill="#84BE84" rx="3" ry="3" style="stroke:#038048;stroke-width:1;"/><text fill="#000000" font-family="sans-serif" font-size="14" lengthAdjust="spacing" textLength="103.6136" x="27" y="457.1618">day() : Integer [1]</text><ellipse cx="18" cy="470.0997" fill="#84BE84" rx="3" ry="3" style="stroke:#038048;stroke-width:1;"/><text fill="#000000" font-family="sans-serif" font-size="14" lengthAdjust="spacing" textLength="159.6974" x="27" y="473.9617">timezone() : ITimezone [1]</text><ellipse cx="18" cy="486.8997" fill="#84BE84" rx="3" ry="3" style="stroke:#038048;stroke-width:1;"/><text fill="#000000" font-family="sans-serif" font-size="14" lengthAdjust="spacing" textLength="131.2635" x="27" y="490.7616">as_string() : String [1]</text></g><!--class IDate_time--><g class="entity" data-entity="IDate_time" data-source-line="10" data-uid="ent0003" id="entity_IDate_time"><rect fill="#F1F1F1" height="182.3994" rx="2.5" ry="2.5" style="stroke:#181818;stroke-width:0.5;" width="200.5653" x="227.57" y="340.6"/><ellipse cx="289.3028" cy="356.6" fill="#A9DCDF" rx="11" ry="11" style="stroke:#181818;stroke-width:1;"/><path d="M283.8184,362.1 L285.8497,362.1 L289.8965,350.7562 L288.9903,350.7562 L292.8184,362.1 L294.959,362.1 L290.6309,349.7719 L288.4122,349.7719 L283.8184,362.1 Z M286.1465,358.6 L292.584,358.6 L292.584,356.85 L286.1465,356.85 L286.1465,358.6 Z " fill="#000000"/><text fill="#000000" font-family="sans-serif" font-size="14" font-style="italic" lengthAdjust="spacing" textLength="68.5997" x="309.8028" y="361.962">IDate_time</text><line style="stroke:#181818;stroke-width:0.5;" x1="228.57" x2="427.1353" y1="372.6" y2="372.6"/><line style="stroke:#181818;stroke-width:0.5;" x1="228.57" x2="427.1353" y1="380.6" y2="380.6"/><ellipse cx="238.57" cy="394.5" fill="#84BE84" rx="3" ry="3" style="stroke:#038048;stroke-width:1;"/><text fill="#000000" font-family="sans-serif" font-size="14" lengthAdjust="spacing" textLength="108.3036" x="247.57" y="398.3619">year() : Integer [1]</text><ellipse cx="238.57" cy="411.2999" fill="#84BE84" rx="3" ry="3" style="stroke:#038048;stroke-width:1;"/><text fill="#000000" font-family="sans-serif" font-size="14" lengthAdjust="spacing" textLength="123.0175" x="247.57" y="415.1619">month() : Integer [1]</text><ellipse cx="238.57" cy="428.0998" fill="#84BE84" rx="3" ry="3" style="stroke:#038048;stroke-width:1;"/><text fill="#000000" font-family="sans-serif" font-size="14" lengthAdjust="spacing" textLength="103.6136" x="247.57" y="431.9618">day() : Integer [1]</text><ellipse cx="238.57" cy="444.8997" fill="#84BE84" rx="3" ry="3" style="stroke:#038048;stroke-width:1;"/><text fill="#000000" font-family="sans-serif" font-size="14" lengthAdjust="spacing" textLength="110.7116" x="247.57" y="448.7617">hour() : Integer [1]</text><ellipse cx="238.57" cy="461.6997" fill="#84BE84" rx="3" ry="3" style="stroke:#038048;stroke-width:1;"/><text fill="#000000" font-family="sans-serif" font-size="14" lengthAdjust="spacing" textLength="125.7895" x="247.57" y="465.5616">minute() : Integer [1]</text><ellipse cx="238.57" cy="478.4996" fill="#84BE84" rx="3" ry="3" style="stroke:#038048;stroke-width:1;"/><text fill="#000000" font-family="sans-serif" font-size="14" lengthAdjust="spacing" textLength="126.0275" x="247.57" y="482.3616">second() : Integer [1]</text><ellipse cx="238.57" cy="495.2995" fill="#84BE84" rx="3" ry="3" style="stroke:#038048;stroke-width:1;"/><text fill="#000000" font-family="sans-serif" font-size="14" lengthAdjust="spacing" textLength="174.5653" x="247.57" y="499.1615">fractional_second() : Real [1]</text><ellipse cx="238.57" cy="512.0995" fill="#84BE84" rx="3" ry="3" style="stroke:#038048;stroke-width:1;"/><text fill="#000000" font-family="sans-serif" font-size="14" lengthAdjust="spacing" textLength="159.6974" x="247.57" y="515.9614">timezone() : ITimezone [1]</text></g><!--class IDuration--><g class="entity" data-entity="IDuration" data-source-line="21" data-uid="ent0004" id="entity_IDuration"><rect fill="#F1F1F1" height="81.5999" rx="2.5" ry="2.5" style="stroke:#181818;stroke-width:0.5;" width="207.0613" x="463.32" y="391"/><ellipse cx="533.4388" cy="407" fill="#A9DCDF" rx="11" ry="11" style="stroke:#181818;stroke-width:1;"/><path d="M527.9544,412.5 L529.9856,412.5 L534.0325,401.1562 L533.1263,401.1562 L536.9544,412.5 L539.095,412.5 L534.7669,400.1719 L532.5481,400.1719 L527.9544,412.5 Z M530.2825,409 L536.72,409 L536.72,407.25 L530.2825,407.25 L530.2825,409 Z " fill="#000000"/><text fill="#000000" font-family="sans-serif" font-size="14" font-style="italic" lengthAdjust="spacing" textLength="58.3238" x="553.9388" y="412.362">IDuration</text><line style="stroke:#181818;stroke-width:0.5;" x1="464.32" x2="669.3813" y1="423" y2="423"/><line style="stroke:#181818;stroke-width:0.5;" x1="464.32" x2="669.3813" y1="431" y2="431"/><ellipse cx="474.32" cy="444.9" fill="#84BE84" rx="3" ry="3" style="stroke:#038048;stroke-width:1;"/><text fill="#000000" font-family="sans-serif" font-size="14" lengthAdjust="spacing" textLength="132.5235" x="483.32" y="448.7619">seconds() : Integer [1]</text><ellipse cx="474.32" cy="461.6999" fill="#84BE84" rx="3" ry="3" style="stroke:#038048;stroke-width:1;"/><text fill="#000000" font-family="sans-serif" font-size="14" lengthAdjust="spacing" textLength="181.0613" x="483.32" y="465.5619">fractional_seconds() : Real [1]</text></g><!--class ITimezone--><g class="entity" data-entity="ITimezone" data-source-line="26" data-uid="ent0005" id="entity_ITimezone"><rect fill="#F1F1F1" height="98.3998" rx="2.5" ry="2.5" style="stroke:#181818;stroke-width:0.5;" width="151.7895" x="704.95" y="382.6"/><ellipse cx="744.7557" cy="398.6" fill="#A9DCDF" rx="11" ry="11" style="stroke:#181818;stroke-width:1;"/><path d="M739.2713,404.1 L741.3026,404.1 L745.3495,392.7562 L744.4432,392.7562 L748.2713,404.1 L750.412,404.1 L746.0838,391.7719 L743.8651,391.7719 L739.2713,404.1 Z M741.5995,400.6 L748.037,400.6 L748.037,398.85 L741.5995,398.85 L741.5995,400.6 Z " fill="#000000"/><text fill="#000000" font-family="sans-serif" font-size="14" font-style="italic" lengthAdjust="spacing" textLength="64.6657" x="764.2681" y="403.962">ITimezone</text><line style="stroke:#181818;stroke-width:0.5;" x1="705.95" x2="855.7395" y1="414.6" y2="414.6"/><line style="stroke:#181818;stroke-width:0.5;" x1="705.95" x2="855.7395" y1="422.6" y2="422.6"/><ellipse cx="715.95" cy="436.5" fill="#84BE84" rx="3" ry="3" style="stroke:#038048;stroke-width:1;"/><text fill="#000000" font-family="sans-serif" font-size="14" lengthAdjust="spacing" textLength="110.7116" x="724.95" y="440.3619">hour() : Integer [1]</text><ellipse cx="715.95" cy="453.2999" fill="#84BE84" rx="3" ry="3" style="stroke:#038048;stroke-width:1;"/><text fill="#000000" font-family="sans-serif" font-size="14" lengthAdjust="spacing" textLength="125.7895" x="724.95" y="457.1619">minute() : Integer [1]</text><ellipse cx="715.95" cy="470.0998" fill="#84BE84" rx="3" ry="3" style="stroke:#038048;stroke-width:1;"/><text fill="#000000" font-family="sans-serif" font-size="14" lengthAdjust="spacing" textLength="107.6036" x="724.95" y="473.9618">sign() : Integer [1]</text></g><!--class ITime--><g class="entity" data-entity="ITime" data-source-line="32" data-uid="ent0006" id="entity_ITime"><rect fill="#F1F1F1" height="131.9996" rx="2.5" ry="2.5" style="stroke:#181818;stroke-width:0.5;" width="201.4613" x="892.12" y="365.8"/><ellipse cx="971.1497" cy="381.8" fill="#A9DCDF" rx="11" ry="11" style="stroke:#181818;stroke-width:1;"/><path d="M965.6653,387.3 L967.6966,387.3 L971.7435,375.9562 L970.8372,375.9562 L974.6653,387.3 L976.806,387.3 L972.4778,374.9719 L970.2591,374.9719 L965.6653,387.3 Z M967.9935,383.8 L974.431,383.8 L974.431,382.05 L967.9935,382.05 L967.9935,383.8 Z " fill="#000000"/><text fill="#000000" font-family="sans-serif" font-size="14" font-style="italic" lengthAdjust="spacing" textLength="34.9019" x="991.6497" y="387.162">ITime</text><line style="stroke:#181818;stroke-width:0.5;" x1="893.12" x2="1092.5813" y1="397.8" y2="397.8"/><line style="stroke:#181818;stroke-width:0.5;" x1="893.12" x2="1092.5813" y1="405.8" y2="405.8"/><ellipse cx="903.12" cy="419.7" fill="#84BE84" rx="3" ry="3" style="stroke:#038048;stroke-width:1;"/><text fill="#000000" font-family="sans-serif" font-size="14" lengthAdjust="spacing" textLength="110.7116" x="912.12" y="423.5619">hour() : Integer [1]</text><ellipse cx="903.12" cy="436.4999" fill="#84BE84" rx="3" ry="3" style="stroke:#038048;stroke-width:1;"/><text fill="#000000" font-family="sans-serif" font-size="14" lengthAdjust="spacing" textLength="125.7895" x="912.12" y="440.3619">minute() : Integer [1]</text><ellipse cx="903.12" cy="453.2998" fill="#84BE84" rx="3" ry="3" style="stroke:#038048;stroke-width:1;"/><text fill="#000000" font-family="sans-serif" font-size="14" lengthAdjust="spacing" textLength="126.0275" x="912.12" y="457.1618">second() : Integer [1]</text><ellipse cx="903.12" cy="470.0997" fill="#84BE84" rx="3" ry="3" style="stroke:#038048;stroke-width:1;"/><text fill="#000000" font-family="sans-serif" font-size="14" lengthAdjust="spacing" textLength="174.5653" x="912.12" y="473.9617">fractional_second() : Real [1]</text><ellipse cx="903.12" cy="486.8997" fill="#84BE84" rx="3" ry="3" style="stroke:#038048;stroke-width:1;"/><text fill="#000000" font-family="sans-serif" font-size="14" lengthAdjust="spacing" textLength="175.4613" x="912.12" y="490.7616">timezone() : ITimezone [0..1]</text></g><!--class Temporal--><g class="entity" data-entity="Temporal" data-source-line="40" data-uid="ent0007" id="entity_Temporal"><rect fill="#F1F1F1" height="48" rx="2.5" ry="2.5" style="stroke:#181818;stroke-width:0.5;" width="91.9898" x="520.85" y="232.6"/><ellipse cx="535.85" cy="248.6" fill="#A9DCDF" rx="11" ry="11" style="stroke:#181818;stroke-width:1;"/><path d="M530.3656,254.1 L532.3969,254.1 L536.4438,242.7562 L535.5375,242.7562 L539.3656,254.1 L541.5063,254.1 L537.1781,241.7719 L534.9594,241.7719 L530.3656,254.1 Z M532.6938,250.6 L539.1313,250.6 L539.1313,248.85 L532.6938,248.85 L532.6938,250.6 Z " fill="#000000"/><text fill="#000000" font-family="sans-serif" font-size="14" font-style="italic" lengthAdjust="spacing" textLength="59.9898" x="549.85" y="253.962">Temporal</text><line style="stroke:#181818;stroke-width:0.5;" x1="521.85" x2="611.8398" y1="264.6" y2="264.6"/><line style="stroke:#181818;stroke-width:0.5;" x1="521.85" x2="611.8398" y1="272.6" y2="272.6"/></g><!--class Time_Definitions--><g class="entity" data-entity="Time_Definitions" data-source-line="43" data-uid="ent0008" id="entity_Time_Definitions"><rect fill="#F1F1F1" height="165.5995" rx="2.5" ry="2.5" style="stroke:#181818;stroke-width:0.5;" width="445.5084" x="194.09" y="7"/><ellipse cx="359.6114" cy="23" fill="#ADD1B2" rx="11" ry="11" style="stroke:#181818;stroke-width:1;"/><path d="M359.6114,29.4219 C360.7833,29.4219 362.0177,29.1563 363.3927,28.5469 L362.9083,27.0313 C361.8145,27.4531 360.7989,27.6406 359.9395,27.6406 C357.2208,27.6406 355.502,25.7969 355.502,22.8906 C355.502,20.1406 357.0645,18.5469 359.7989,18.5469 C360.7208,18.5469 361.7364,18.7344 362.877,19.1563 L363.4552,17.6406 C362.3614,17.0625 361.0645,16.7656 359.877,16.7656 C356.1114,16.7656 353.5333,19.4063 353.5333,23.2188 C353.5333,26.8906 356.0177,29.4219 359.6114,29.4219 Z " fill="#000000"/><text fill="#000000" font-family="sans-serif" font-size="14" lengthAdjust="spacing" textLength="105.9656" x="380.1114" y="28.362">Time_Definitions</text><line style="stroke:#181818;stroke-width:0.5;" x1="195.09" x2="638.5984" y1="39" y2="39"/><line style="stroke:#181818;stroke-width:0.5;" x1="195.09" x2="638.5984" y1="47" y2="47"/><ellipse cx="205.09" cy="60.9" fill="#84BE84" rx="3" ry="3" style="stroke:#038048;stroke-width:1;"/><text fill="#000000" font-family="sans-serif" font-size="14" lengthAdjust="spacing" textLength="237.0191" x="214.09" y="64.7619">valid_year( y : Integer [1] ) : Boolean [1]</text><ellipse cx="205.09" cy="77.6999" fill="#84BE84" rx="3" ry="3" style="stroke:#038048;stroke-width:1;"/><text fill="#000000" font-family="sans-serif" font-size="14" lengthAdjust="spacing" textLength="257.417" x="214.09" y="81.5619">valid_month( m : Integer [1] ) : Boolean [1]</text><ellipse cx="205.09" cy="94.4998" fill="#84BE84" rx="3" ry="3" style="stroke:#038048;stroke-width:1;"/><text fill="#000000" font-family="sans-serif" font-size="14" lengthAdjust="spacing" textLength="412.6764" x="214.09" y="98.3618">valid_day( y : Integer [1], m : Integer [1], d : Integer [1] ) : Boolean [1]</text><ellipse cx="205.09" cy="111.2997" fill="#84BE84" rx="3" ry="3" style="stroke:#038048;stroke-width:1;"/><text fill="#000000" font-family="sans-serif" font-size="14" lengthAdjust="spacing" textLength="419.5084" x="214.09" y="115.1617">valid_hour( h : Integer [1], m : Integer [1], s : Integer [1] ) : Boolean [1]</text><ellipse cx="205.09" cy="128.0997" fill="#84BE84" rx="3" ry="3" style="stroke:#038048;stroke-width:1;"/><text fill="#000000" font-family="sans-serif" font-size="14" lengthAdjust="spacing" textLength="260.189" x="214.09" y="131.9616">valid_minute( m : Integer [1] ) : Boolean [1]</text><ellipse cx="205.09" cy="144.8996" fill="#84BE84" rx="3" ry="3" style="stroke:#038048;stroke-width:1;"/><text fill="#000000" font-family="sans-serif" font-size="14" lengthAdjust="spacing" textLength="254.519" x="214.09" y="148.7616">valid_second( s : Integer [1] ) : Boolean [1]</text><ellipse cx="205.09" cy="161.6995" fill="#84BE84" rx="3" ry="3" style="stroke:#038048;stroke-width:1;"/><text fill="#000000" font-family="sans-serif" font-size="14" lengthAdjust="spacing" textLength="325.6528" x="214.09" y="165.5615">valid_fractional_second( fs : Double [1] ) : Boolean [1]</text></g><!--class Date--><g class="entity" data-entity="Date" data-source-line="53" data-uid="ent0009" id="entity_Date"><rect fill="#F1F1F1" height="64.7999" rx="2.5" ry="2.5" style="stroke:#181818;stroke-width:0.5;" width="110.9516" x="44.37" y="583"/><ellipse cx="81.5927" cy="599" fill="#ADD1B2" rx="11" ry="11" style="stroke:#181818;stroke-width:1;"/><path d="M81.5927,605.4219 C82.7646,605.4219 83.9989,605.1563 85.3739,604.5469 L84.8896,603.0313 C83.7958,603.4531 82.7802,603.6406 81.9208,603.6406 C79.2021,603.6406 77.4833,601.7969 77.4833,598.8906 C77.4833,596.1406 79.0458,594.5469 81.7802,594.5469 C82.7021,594.5469 83.7177,594.7344 84.8583,595.1563 L85.4364,593.6406 C84.3427,593.0625 83.0458,592.7656 81.8583,592.7656 C78.0927,592.7656 75.5146,595.4063 75.5146,599.2188 C75.5146,602.8906 77.9989,605.4219 81.5927,605.4219 Z " fill="#000000"/><text fill="#000000" font-family="sans-serif" font-size="14" lengthAdjust="spacing" textLength="29.5679" x="100.5311" y="604.362">Date</text><line style="stroke:#181818;stroke-width:0.5;" x1="45.37" x2="154.3216" y1="615" y2="615"/><ellipse cx="55.37" cy="628.9" fill="none" rx="3" ry="3" style="stroke:#038048;stroke-width:1;"/><text fill="#000000" font-family="sans-serif" font-size="14" lengthAdjust="spacing" textLength="84.9516" x="64.37" y="632.7619">value : Any [1]</text><line style="stroke:#181818;stroke-width:0.5;" x1="45.37" x2="154.3216" y1="639.7999" y2="639.7999"/></g><!--class Date_time--><g class="entity" data-entity="Date_time" data-source-line="57" data-uid="ent0010" id="entity_Date_time"><rect fill="#F1F1F1" height="64.7999" rx="2.5" ry="2.5" style="stroke:#181818;stroke-width:0.5;" width="110.9516" x="272.37" y="583"/><ellipse cx="293.7105" cy="599" fill="#ADD1B2" rx="11" ry="11" style="stroke:#181818;stroke-width:1;"/><path d="M293.7105,605.4219 C294.8823,605.4219 296.1167,605.1563 297.4917,604.5469 L297.0073,603.0313 C295.9136,603.4531 294.898,603.6406 294.0386,603.6406 C291.3198,603.6406 289.6011,601.7969 289.6011,598.8906 C289.6011,596.1406 291.1636,594.5469 293.898,594.5469 C294.8198,594.5469 295.8355,594.7344 296.9761,595.1563 L297.5542,593.6406 C296.4605,593.0625 295.1636,592.7656 293.9761,592.7656 C290.2105,592.7656 287.6323,595.4063 287.6323,599.2188 C287.6323,602.8906 290.1167,605.4219 293.7105,605.4219 Z " fill="#000000"/><text fill="#000000" font-family="sans-serif" font-size="14" lengthAdjust="spacing" textLength="64.8617" x="309.1194" y="604.362">Date_time</text><line style="stroke:#181818;stroke-width:0.5;" x1="273.37" x2="382.3216" y1="615" y2="615"/><ellipse cx="283.37" cy="628.9" fill="none" rx="3" ry="3" style="stroke:#038048;stroke-width:1;"/><text fill="#000000" font-family="sans-serif" font-size="14" lengthAdjust="spacing" textLength="84.9516" x="292.37" y="632.7619">value : Any [1]</text><line style="stroke:#181818;stroke-width:0.5;" x1="273.37" x2="382.3216" y1="639.7999" y2="639.7999"/></g><!--class Time--><g class="entity" data-entity="Time" data-source-line="61" data-uid="ent0011" id="entity_Time"><rect fill="#F1F1F1" height="64.7999" rx="2.5" ry="2.5" style="stroke:#181818;stroke-width:0.5;" width="110.9516" x="937.37" y="583"/><ellipse cx="973.8745" cy="599" fill="#ADD1B2" rx="11" ry="11" style="stroke:#181818;stroke-width:1;"/><path d="M973.8745,605.4219 C975.0464,605.4219 976.2808,605.1563 977.6558,604.5469 L977.1714,603.0313 C976.0776,603.4531 975.062,603.6406 974.2026,603.6406 C971.4839,603.6406 969.7651,601.7969 969.7651,598.8906 C969.7651,596.1406 971.3276,594.5469 974.062,594.5469 C974.9839,594.5469 975.9995,594.7344 977.1401,595.1563 L977.7183,593.6406 C976.6245,593.0625 975.3276,592.7656 974.1401,592.7656 C970.3745,592.7656 967.7964,595.4063 967.7964,599.2188 C967.7964,602.8906 970.2808,605.4219 973.8745,605.4219 Z " fill="#000000"/><text fill="#000000" font-family="sans-serif" font-size="14" lengthAdjust="spacing" textLength="31.1639" x="992.6533" y="604.362">Time</text><line style="stroke:#181818;stroke-width:0.5;" x1="938.37" x2="1047.3216" y1="615" y2="615"/><ellipse cx="948.37" cy="628.9" fill="none" rx="3" ry="3" style="stroke:#038048;stroke-width:1;"/><text fill="#000000" font-family="sans-serif" font-size="14" lengthAdjust="spacing" textLength="84.9516" x="957.37" y="632.7619">value : Any [1]</text><line style="stroke:#181818;stroke-width:0.5;" x1="938.37" x2="1047.3216" y1="639.7999" y2="639.7999"/></g><!--class Duration--><g class="entity" data-entity="Duration" data-source-line="65" data-uid="ent0012" id="entity_Duration"><rect fill="#F1F1F1" height="64.7999" rx="2.5" ry="2.5" style="stroke:#181818;stroke-width:0.5;" width="110.9516" x="511.37" y="583"/><ellipse cx="537.3346" cy="599" fill="#ADD1B2" rx="11" ry="11" style="stroke:#181818;stroke-width:1;"/><path d="M537.3346,605.4219 C538.5065,605.4219 539.7409,605.1563 541.1159,604.5469 L540.6315,603.0313 C539.5378,603.4531 538.5221,603.6406 537.6628,603.6406 C534.944,603.6406 533.2253,601.7969 533.2253,598.8906 C533.2253,596.1406 534.7878,594.5469 537.5221,594.5469 C538.444,594.5469 539.4596,594.7344 540.6003,595.1563 L541.1784,593.6406 C540.0846,593.0625 538.7878,592.7656 537.6003,592.7656 C533.8346,592.7656 531.2565,595.4063 531.2565,599.2188 C531.2565,602.8906 533.7409,605.4219 537.3346,605.4219 Z " fill="#000000"/><text fill="#000000" font-family="sans-serif" font-size="14" lengthAdjust="spacing" textLength="54.5858" x="553.7712" y="604.362">Duration</text><line style="stroke:#181818;stroke-width:0.5;" x1="512.37" x2="621.3216" y1="615" y2="615"/><ellipse cx="522.37" cy="628.9" fill="none" rx="3" ry="3" style="stroke:#038048;stroke-width:1;"/><text fill="#000000" font-family="sans-serif" font-size="14" lengthAdjust="spacing" textLength="84.9516" x="531.37" y="632.7619">value : Any [1]</text><line style="stroke:#181818;stroke-width:0.5;" x1="512.37" x2="621.3216" y1="639.7999" y2="639.7999"/></g><!--class Timezone--><g class="entity" data-entity="Timezone" data-source-line="69" data-uid="ent0013" id="entity_Timezone"><rect fill="#F1F1F1" height="48" rx="2.5" ry="2.5" style="stroke:#181818;stroke-width:0.5;" width="92.9277" x="734.38" y="591.4"/><ellipse cx="749.38" cy="607.4" fill="#ADD1B2" rx="11" ry="11" style="stroke:#181818;stroke-width:1;"/><path d="M749.38,613.8219 C750.5519,613.8219 751.7863,613.5563 753.1613,612.9469 L752.6769,611.4313 C751.5831,611.8531 750.5675,612.0406 749.7081,612.0406 C746.9894,612.0406 745.2706,610.1969 745.2706,607.2906 C745.2706,604.5406 746.8331,602.9469 749.5675,602.9469 C750.4894,602.9469 751.505,603.1344 752.6456,603.5563 L753.2238,602.0406 C752.13,601.4625 750.8331,601.1656 749.6456,601.1656 C745.88,601.1656 743.3019,603.8063 743.3019,607.6188 C743.3019,611.2906 745.7863,613.8219 749.38,613.8219 Z " fill="#000000"/><text fill="#000000" font-family="sans-serif" font-size="14" lengthAdjust="spacing" textLength="60.9277" x="763.38" y="612.762">Timezone</text><line style="stroke:#181818;stroke-width:0.5;" x1="735.38" x2="826.3077" y1="623.4" y2="623.4"/><line style="stroke:#181818;stroke-width:0.5;" x1="735.38" x2="826.3077" y1="631.4" y2="631.4"/></g><!--class Ordered--><g class="entity" data-entity="Ordered" data-source-line="77" data-uid="ent0019" id="entity_Ordered"><rect fill="#F1F1F1" height="48" rx="2.5" ry="2.5" style="stroke:#181818;stroke-width:0.5;" width="83.9398" x="674.88" y="65.8"/><ellipse cx="689.88" cy="81.8" fill="#ADD1B2" rx="11" ry="11" style="stroke:#181818;stroke-width:1;"/><path d="M689.88,88.2219 C691.0519,88.2219 692.2863,87.9562 693.6613,87.3469 L693.1769,85.8312 C692.0831,86.2531 691.0675,86.4406 690.2081,86.4406 C687.4894,86.4406 685.7706,84.5969 685.7706,81.6906 C685.7706,78.9406 687.3331,77.3469 690.0675,77.3469 C690.9894,77.3469 692.005,77.5344 693.1456,77.9562 L693.7238,76.4406 C692.63,75.8625 691.3331,75.5656 690.1456,75.5656 C686.38,75.5656 683.8019,78.2062 683.8019,82.0187 C683.8019,85.6906 686.2863,88.2219 689.88,88.2219 Z " fill="#000000"/><text fill="#000000" font-family="sans-serif" font-size="14" lengthAdjust="spacing" textLength="51.9398" x="703.88" y="87.162">Ordered</text><line style="stroke:#181818;stroke-width:0.5;" x1="675.88" x2="757.8198" y1="97.8" y2="97.8"/><line style="stroke:#181818;stroke-width:0.5;" x1="675.88" x2="757.8198" y1="105.8" y2="105.8"/></g><!--reverse link Temporal to IDate--><g class="link" data-entity-1="Temporal" data-entity-2="IDate" data-source-line="72" data-uid="lnk14" id="link_Temporal_IDate"><path codeLine="72" d="M502.4619,263.5124 C432.0819,271.0324 313.6,289.5 209.85,340.6 C196.22,347.31 182.8,356 170.26,365.34" fill="none" id="Temporal-backto-IDate" style="stroke:#181818;stroke-width:1;"/><polygon fill="none" points="520.36,261.6,501.8244,257.5463,503.0993,269.4784,520.36,261.6" style="stroke:#181818;stroke-width:1;"/></g><!--reverse link Temporal to IDate_time--><g class="link" data-entity-1="Temporal" data-entity-2="IDate_time" data-source-line="73" data-uid="lnk15" id="link_Temporal_IDate_time"><path codeLine="73" d="M516.8995,290.9739 C492.5595,307.3639 474.42,319.9 445.85,340.6 C440.11,344.76 434.24,349.07 428.33,353.44" fill="none" id="Temporal-backto-IDate_time" style="stroke:#181818;stroke-width:1;"/><polygon fill="none" points="531.83,280.92,513.5482,285.997,520.2508,295.9507,531.83,280.92" style="stroke:#181818;stroke-width:1;"/></g><!--reverse link Temporal to IDuration--><g class="link" data-entity-1="Temporal" data-entity-2="IDuration" data-source-line="74" data-uid="lnk16" id="link_Temporal_IDuration"><path codeLine="74" d="M566.85,298.96 C566.85,327.03 566.85,356.59 566.85,390.6" fill="none" id="Temporal-backto-IDuration" style="stroke:#181818;stroke-width:1;"/><polygon fill="none" points="566.85,280.96,560.85,298.96,572.85,298.96,566.85,280.96" style="stroke:#181818;stroke-width:1;"/></g><!--reverse link Temporal to ITimezone--><g class="link" data-entity-1="Temporal" data-entity-2="ITimezone" data-source-line="75" data-uid="lnk17" id="link_Temporal_ITimezone"><path codeLine="75" d="M619.3995,290.6973 C643.9195,306.5373 661.13,318.74 687.85,340.6 C703.52,353.42 719.66,368.37 734.01,382.38" fill="none" id="Temporal-backto-ITimezone" style="stroke:#181818;stroke-width:1;"/><polygon fill="none" points="604.28,280.93,616.1438,295.7371,622.6553,285.6574,604.28,280.93" style="stroke:#181818;stroke-width:1;"/></g><!--reverse link Temporal to ITime--><g class="link" data-entity-1="Temporal" data-entity-2="ITime" data-source-line="76" data-uid="lnk18" id="link_Temporal_ITime"><path codeLine="76" d="M631.0425,267.4145 C692.9325,277.7845 786.99,297.96 873.85,340.6 C887.93,347.51 902,356.19 915.28,365.42" fill="none" id="Temporal-backto-ITime" style="stroke:#181818;stroke-width:1;"/><polygon fill="none" points="613.29,264.44,630.051,273.332,632.034,261.497,613.29,264.44" style="stroke:#181818;stroke-width:1;"/></g><!--reverse link Ordered to Temporal--><g class="link" data-entity-1="Ordered" data-entity-2="Temporal" data-source-line="77" data-uid="lnk20" id="link_Ordered_Temporal"><path codeLine="77" d="M691.2813,129.153 C679.7813,146.023 673.4,154.08 656.85,172.6 C637.59,194.15 613.39,216.23 594.94,232.19" fill="none" id="Ordered-backto-Temporal" style="stroke:#181818;stroke-width:1;"/><polygon fill="none" points="701.42,114.28,686.3236,125.7735,696.239,132.5326,701.42,114.28" style="stroke:#181818;stroke-width:1;"/></g><!--reverse link Time_Definitions to Temporal--><g class="link" data-entity-1="Time_Definitions" data-entity-2="Temporal" data-source-line="78" data-uid="lnk21" id="link_Time_Definitions_Temporal"><path codeLine="78" d="M503.5257,186.032 C523.3757,207.842 531.15,216.39 545.53,232.17" fill="none" id="Time_Definitions-backto-Temporal" style="stroke:#181818;stroke-width:1;"/><polygon fill="none" points="491.41,172.72,499.0884,190.0706,507.963,181.9934,491.41,172.72" style="stroke:#181818;stroke-width:1;"/></g><!--reverse link IDate to Date--><g class="link" data-entity-1="IDate" data-entity-2="Date" data-source-line="79" data-uid="lnk22" id="link_IDate_Date"><path codeLine="79" d="M99.85,516.11 C99.85,544.98 99.85,559.61 99.85,582.93" fill="none" id="IDate-backto-Date" style="stroke:#181818;stroke-width:1;"/><polygon fill="none" points="99.85,498.11,93.85,516.11,105.85,516.11,99.85,498.11" style="stroke:#181818;stroke-width:1;"/></g><!--reverse link IDate_time to Date_time--><g class="link" data-entity-1="IDate_time" data-entity-2="Date_time" data-source-line="80" data-uid="lnk23" id="link_IDate_time_Date_time"><path codeLine="80" d="M327.85,541.33 C327.85,562.66 327.85,566 327.85,582.66" fill="none" id="IDate_time-backto-Date_time" style="stroke:#181818;stroke-width:1;"/><polygon fill="none" points="327.85,523.33,321.85,541.33,333.85,541.33,327.85,523.33" style="stroke:#181818;stroke-width:1;"/></g><!--reverse link ITime to Time--><g class="link" data-entity-1="ITime" data-entity-2="Time" data-source-line="81" data-uid="lnk24" id="link_ITime_Time"><path codeLine="81" d="M992.85,516.11 C992.85,544.98 992.85,559.61 992.85,582.93" fill="none" id="ITime-backto-Time" style="stroke:#181818;stroke-width:1;"/><polygon fill="none" points="992.85,498.11,986.85,516.11,998.85,516.11,992.85,498.11" style="stroke:#181818;stroke-width:1;"/></g><!--reverse link IDuration to Duration--><g class="link" data-entity-1="IDuration" data-entity-2="Duration" data-source-line="82" data-uid="lnk25" id="link_IDuration_Duration"><path codeLine="82" d="M566.85,490.65 C566.85,523.75 566.85,552.2 566.85,582.78" fill="none" id="IDuration-backto-Duration" style="stroke:#181818;stroke-width:1;"/><polygon fill="none" points="566.85,472.65,560.85,490.65,572.85,490.65,566.85,472.65" style="stroke:#181818;stroke-width:1;"/></g><!--reverse link ITimezone to Timezone--><g class="link" data-entity-1="ITimezone" data-entity-2="Timezone" data-source-line="83" data-uid="lnk26" id="link_ITimezone_Timezone"><path codeLine="83" d="M780.85,499.47 C780.85,534.98 780.85,563.54 780.85,591.08" fill="none" id="ITimezone-backto-Timezone" style="stroke:#181818;stroke-width:1;"/><polygon fill="none" points="780.85,481.47,774.85,499.47,786.85,499.47,780.85,481.47" style="stroke:#181818;stroke-width:1;"/></g></g></svg>
