<svg xmlns="http://www.w3.org/2000/svg" xmlns:xlink="http://www.w3.org/1999/xlink" contentStyleType="text/css" data-diagram-type="CLASS" height="129px" preserveAspectRatio="none" style="width:504px;height:129px;background:#FFFFFF;" version="1.1" viewBox="0 0 504 129" width="504px" zoomAndPan="magnify"><defs/><g><!--class Terminology_code--><g class="entity" data-entity="Terminology_code" data-source-line="2" data-uid="ent0002" id="entity_Terminology_code"><rect fill="#F1F1F1" height="115.1997" rx="2.5" ry="2.5" style="stroke:#181818;stroke-width:0.5;" width="235.9292" x="7" y="7"/><ellipse cx="62.8668" cy="23" fill="#ADD1B2" rx="11" ry="11" style="stroke:#181818;stroke-width:1;"/><path d="M62.8668,29.4219 C64.0387,29.4219 65.2731,29.1563 66.6481,28.5469 L66.1637,27.0313 C65.0699,27.4531 64.0543,27.6406 63.1949,27.6406 C60.4762,27.6406 58.7574,25.7969 58.7574,22.8906 C58.7574,20.1406 60.3199,18.5469 63.0543,18.5469 C63.9762,18.5469 64.9918,18.7344 66.1324,19.1563 L66.7106,17.6406 C65.6168,17.0625 64.3199,16.7656 63.1324,16.7656 C59.3668,16.7656 56.7887,19.4063 56.7887,23.2188 C56.7887,26.8906 59.2731,29.4219 62.8668,29.4219 Z " fill="#000000"/><text fill="#000000" font-family="sans-serif" font-size="14" lengthAdjust="spacing" textLength="115.6955" x="83.3668" y="28.362">Terminology_code</text><line style="stroke:#181818;stroke-width:0.5;" x1="8" x2="241.9292" y1="39" y2="39"/><ellipse cx="18" cy="52.9" fill="none" rx="3" ry="3" style="stroke:#038048;stroke-width:1;"/><text fill="#000000" font-family="sans-serif" font-size="14" lengthAdjust="spacing" textLength="160.3834" x="27" y="56.7619">terminology_id : String [1]</text><ellipse cx="18" cy="69.6999" fill="none" rx="3" ry="3" style="stroke:#038048;stroke-width:1;"/><text fill="#000000" font-family="sans-serif" font-size="14" lengthAdjust="spacing" textLength="209.9292" x="27" y="73.5619">terminology_version : String [0..1]</text><ellipse cx="18" cy="86.4998" fill="none" rx="3" ry="3" style="stroke:#038048;stroke-width:1;"/><text fill="#000000" font-family="sans-serif" font-size="14" lengthAdjust="spacing" textLength="139.0195" x="27" y="90.3618">code_string : String [1]</text><ellipse cx="18" cy="103.2997" fill="none" rx="3" ry="3" style="stroke:#038048;stroke-width:1;"/><text fill="#000000" font-family="sans-serif" font-size="14" lengthAdjust="spacing" textLength="78.9597" x="27" y="107.1617">uri : Uri [0..1]</text><line style="stroke:#181818;stroke-width:0.5;" x1="8" x2="241.9292" y1="114.1997" y2="114.1997"/></g><!--class Terminology_term--><g class="entity" data-entity="Terminology_term" data-source-line="9" data-uid="ent0003" id="entity_Terminology_term"><rect fill="#F1F1F1" height="81.5999" rx="2.5" ry="2.5" style="stroke:#181818;stroke-width:0.5;" width="219.6333" x="278.15" y="23.8"/><ellipse cx="325.7289" cy="39.8" fill="#ADD1B2" rx="11" ry="11" style="stroke:#181818;stroke-width:1;"/><path d="M325.7289,46.2219 C326.9007,46.2219 328.1351,45.9563 329.5101,45.3469 L329.0257,43.8313 C327.932,44.2531 326.9164,44.4406 326.057,44.4406 C323.3382,44.4406 321.6195,42.5969 321.6195,39.6906 C321.6195,36.9406 323.182,35.3469 325.9164,35.3469 C326.8382,35.3469 327.8539,35.5344 328.9945,35.9563 L329.5726,34.4406 C328.4789,33.8625 327.182,33.5656 325.9945,33.5656 C322.2289,33.5656 319.6507,36.2063 319.6507,40.0188 C319.6507,43.6906 322.1351,46.2219 325.7289,46.2219 Z " fill="#000000"/><text fill="#000000" font-family="sans-serif" font-size="14" lengthAdjust="spacing" textLength="115.9755" x="346.2289" y="45.162">Terminology_term</text><line style="stroke:#181818;stroke-width:0.5;" x1="279.15" x2="496.7833" y1="55.8" y2="55.8"/><ellipse cx="289.15" cy="69.7" fill="none" rx="3" ry="3" style="stroke:#038048;stroke-width:1;"/><text fill="#000000" font-family="sans-serif" font-size="14" lengthAdjust="spacing" textLength="193.6333" x="298.15" y="73.5619">concept : Terminology_code [1]</text><ellipse cx="289.15" cy="86.4999" fill="none" rx="3" ry="3" style="stroke:#038048;stroke-width:1;"/><text fill="#000000" font-family="sans-serif" font-size="14" lengthAdjust="spacing" textLength="90.0477" x="298.15" y="90.3619">text : String [1]</text><line style="stroke:#181818;stroke-width:0.5;" x1="279.15" x2="496.7833" y1="97.3999" y2="97.3999"/></g></g></svg>
