<svg xmlns="http://www.w3.org/2000/svg" xmlns:xlink="http://www.w3.org/1999/xlink" contentStyleType="text/css" data-diagram-type="CLASS" height="173px" preserveAspectRatio="none" style="width:648px;height:173px;background:#FFFFFF;" version="1.1" viewBox="0 0 648 173" width="648px" zoomAndPan="magnify"><defs/><g><!--class TUPLE--><g class="entity" data-entity="TUPLE" data-source-line="2" data-uid="ent0002" id="entity_TUPLE"><rect fill="#F1F1F1" height="48" rx="2.5" ry="2.5" style="stroke:#181818;stroke-width:0.5;" width="72.8378" x="82.72" y="10"/><ellipse cx="97.72" cy="26" fill="#ADD1B2" rx="11" ry="11" style="stroke:#181818;stroke-width:1;"/><path d="M97.72,32.4219 C98.8919,32.4219 100.1263,32.1563 101.5013,31.5469 L101.0169,30.0313 C99.9231,30.4531 98.9075,30.6406 98.0481,30.6406 C95.3294,30.6406 93.6106,28.7969 93.6106,25.8906 C93.6106,23.1406 95.1731,21.5469 97.9075,21.5469 C98.8294,21.5469 99.845,21.7344 100.9856,22.1563 L101.5638,20.6406 C100.47,20.0625 99.1731,19.7656 97.9856,19.7656 C94.22,19.7656 91.6419,22.4063 91.6419,26.2188 C91.6419,29.8906 94.1263,32.4219 97.72,32.4219 Z " fill="#000000"/><text fill="#000000" font-family="sans-serif" font-size="14" lengthAdjust="spacing" textLength="40.8378" x="111.72" y="31.362">TUPLE</text><line style="stroke:#181818;stroke-width:0.5;" x1="83.72" x2="154.5578" y1="42" y2="42"/><line style="stroke:#181818;stroke-width:0.5;" x1="83.72" x2="154.5578" y1="50" y2="50"/></g><!--class FUNCTION--><g class="entity" data-entity="FUNCTION" data-source-line="5" data-uid="ent0003" id="entity_FUNCTION"><rect fill="#F1F1F1" height="48" rx="2.5" ry="2.5" style="stroke:#181818;stroke-width:0.5;" width="183.4883" x="272.39" y="118"/><ellipse cx="287.39" cy="134" fill="#ADD1B2" rx="11" ry="11" style="stroke:#181818;stroke-width:1;"/><path d="M287.39,140.4219 C288.5619,140.4219 289.7963,140.1563 291.1713,139.5469 L290.6869,138.0313 C289.5931,138.4531 288.5775,138.6406 287.7181,138.6406 C284.9994,138.6406 283.2806,136.7969 283.2806,133.8906 C283.2806,131.1406 284.8431,129.5469 287.5775,129.5469 C288.4994,129.5469 289.515,129.7344 290.6556,130.1563 L291.2338,128.6406 C290.14,128.0625 288.8431,127.7656 287.6556,127.7656 C283.89,127.7656 281.3119,130.4063 281.3119,134.2188 C281.3119,137.8906 283.7963,140.4219 287.39,140.4219 Z " fill="#000000"/><text fill="#000000" font-family="sans-serif" font-size="14" lengthAdjust="spacing" textLength="69.6077" x="301.39" y="139.362">FUNCTION</text><rect fill="#FFFFFF" height="16.4001" style="stroke:#181818;stroke-width:1;stroke-dasharray:2,2;" width="79.8806" x="378.9977" y="115"/><text fill="#000000" font-family="sans-serif" font-size="12" font-style="italic" lengthAdjust="spacing" textLength="77.8806" x="379.9977" y="127.7961">ARGS, RESULT</text><line style="stroke:#181818;stroke-width:0.5;" x1="273.39" x2="454.8783" y1="150" y2="150"/><line style="stroke:#181818;stroke-width:0.5;" x1="273.39" x2="454.8783" y1="158" y2="158"/></g><!--class TUPLE1--><g class="entity" data-entity="TUPLE1" data-source-line="8" data-uid="ent0004" id="entity_TUPLE1"><rect fill="#F1F1F1" height="48" rx="2.5" ry="2.5" style="stroke:#181818;stroke-width:0.5;" width="90.2719" x="7" y="118"/><ellipse cx="22" cy="134" fill="#ADD1B2" rx="11" ry="11" style="stroke:#181818;stroke-width:1;"/><path d="M22,140.4219 C23.1719,140.4219 24.4063,140.1563 25.7813,139.5469 L25.2969,138.0313 C24.2031,138.4531 23.1875,138.6406 22.3281,138.6406 C19.6094,138.6406 17.8906,136.7969 17.8906,133.8906 C17.8906,131.1406 19.4531,129.5469 22.1875,129.5469 C23.1094,129.5469 24.125,129.7344 25.2656,130.1563 L25.8438,128.6406 C24.75,128.0625 23.4531,127.7656 22.2656,127.7656 C18.5,127.7656 15.9219,130.4063 15.9219,134.2188 C15.9219,137.8906 18.4063,140.4219 22,140.4219 Z " fill="#000000"/><text fill="#000000" font-family="sans-serif" font-size="14" lengthAdjust="spacing" textLength="46.7598" x="36" y="139.362">TUPLE1</text><rect fill="#FFFFFF" height="16.4001" style="stroke:#181818;stroke-width:1;stroke-dasharray:2,2;" width="9.5121" x="90.7598" y="115"/><text fill="#000000" font-family="sans-serif" font-size="12" font-style="italic" lengthAdjust="spacing" textLength="7.5121" x="91.7598" y="127.7961">A</text><line style="stroke:#181818;stroke-width:0.5;" x1="8" x2="96.2719" y1="150" y2="150"/><line style="stroke:#181818;stroke-width:0.5;" x1="8" x2="96.2719" y1="158" y2="158"/></g><!--class TUPLE2--><g class="entity" data-entity="TUPLE2" data-source-line="11" data-uid="ent0005" id="entity_TUPLE2"><rect fill="#F1F1F1" height="48" rx="2.5" ry="2.5" style="stroke:#181818;stroke-width:0.5;" width="105.0139" x="132.63" y="118"/><ellipse cx="147.63" cy="134" fill="#ADD1B2" rx="11" ry="11" style="stroke:#181818;stroke-width:1;"/><path d="M147.63,140.4219 C148.8019,140.4219 150.0363,140.1563 151.4113,139.5469 L150.9269,138.0313 C149.8331,138.4531 148.8175,138.6406 147.9581,138.6406 C145.2394,138.6406 143.5206,136.7969 143.5206,133.8906 C143.5206,131.1406 145.0831,129.5469 147.8175,129.5469 C148.7394,129.5469 149.755,129.7344 150.8956,130.1563 L151.4738,128.6406 C150.38,128.0625 149.0831,127.7656 147.8956,127.7656 C144.13,127.7656 141.5519,130.4063 141.5519,134.2188 C141.5519,137.8906 144.0363,140.4219 147.63,140.4219 Z " fill="#000000"/><text fill="#000000" font-family="sans-serif" font-size="14" lengthAdjust="spacing" textLength="48.2298" x="161.63" y="139.362">TUPLE2</text><rect fill="#FFFFFF" height="16.4001" style="stroke:#181818;stroke-width:1;stroke-dasharray:2,2;" width="22.7841" x="217.8598" y="115"/><text fill="#000000" font-family="sans-serif" font-size="12" font-style="italic" lengthAdjust="spacing" textLength="20.7841" x="218.8598" y="127.7961">A, B</text><line style="stroke:#181818;stroke-width:0.5;" x1="133.63" x2="236.6439" y1="150" y2="150"/><line style="stroke:#181818;stroke-width:0.5;" x1="133.63" x2="236.6439" y1="158" y2="158"/></g><!--class ROUTINE--><g class="entity" data-entity="ROUTINE" data-source-line="14" data-uid="ent0006" id="entity_ROUTINE"><rect fill="#F1F1F1" height="48" rx="2.5" ry="2.5" style="stroke:#181818;stroke-width:0.5;" width="125.22" x="401.53" y="10"/><ellipse cx="416.53" cy="26" fill="#ADD1B2" rx="11" ry="11" style="stroke:#181818;stroke-width:1;"/><path d="M416.53,32.4219 C417.7019,32.4219 418.9363,32.1563 420.3113,31.5469 L419.8269,30.0313 C418.7331,30.4531 417.7175,30.6406 416.8581,30.6406 C414.1394,30.6406 412.4206,28.7969 412.4206,25.8906 C412.4206,23.1406 413.9831,21.5469 416.7175,21.5469 C417.6394,21.5469 418.655,21.7344 419.7956,22.1563 L420.3738,20.6406 C419.28,20.0625 417.9831,19.7656 416.7956,19.7656 C413.03,19.7656 410.4519,22.4063 410.4519,26.2188 C410.4519,29.8906 412.9363,32.4219 416.53,32.4219 Z " fill="#000000"/><text fill="#000000" font-family="sans-serif" font-size="14" lengthAdjust="spacing" textLength="59.0518" x="430.53" y="31.362">ROUTINE</text><rect fill="#FFFFFF" height="16.4001" style="stroke:#181818;stroke-width:1;stroke-dasharray:2,2;" width="32.1682" x="497.5818" y="7"/><text fill="#000000" font-family="sans-serif" font-size="12" font-style="italic" lengthAdjust="spacing" textLength="30.1682" x="498.5818" y="19.7961">ARGS</text><line style="stroke:#181818;stroke-width:0.5;" x1="402.53" x2="525.75" y1="42" y2="42"/><line style="stroke:#181818;stroke-width:0.5;" x1="402.53" x2="525.75" y1="50" y2="50"/></g><!--class PROCEDURE--><g class="entity" data-entity="PROCEDURE" data-source-line="17" data-uid="ent0007" id="entity_PROCEDURE"><rect fill="#F1F1F1" height="48" rx="2.5" ry="2.5" style="stroke:#181818;stroke-width:0.5;" width="147.1579" x="490.56" y="118"/><ellipse cx="505.56" cy="134" fill="#ADD1B2" rx="11" ry="11" style="stroke:#181818;stroke-width:1;"/><path d="M505.56,140.4219 C506.7319,140.4219 507.9663,140.1563 509.3413,139.5469 L508.8569,138.0313 C507.7631,138.4531 506.7475,138.6406 505.8881,138.6406 C503.1694,138.6406 501.4506,136.7969 501.4506,133.8906 C501.4506,131.1406 503.0131,129.5469 505.7475,129.5469 C506.6694,129.5469 507.685,129.7344 508.8256,130.1563 L509.4038,128.6406 C508.31,128.0625 507.0131,127.7656 505.8256,127.7656 C502.06,127.7656 499.4819,130.4063 499.4819,134.2188 C499.4819,137.8906 501.9663,140.4219 505.56,140.4219 Z " fill="#000000"/><text fill="#000000" font-family="sans-serif" font-size="14" lengthAdjust="spacing" textLength="80.9897" x="519.56" y="139.362">PROCEDURE</text><rect fill="#FFFFFF" height="16.4001" style="stroke:#181818;stroke-width:1;stroke-dasharray:2,2;" width="32.1682" x="608.5497" y="115"/><text fill="#000000" font-family="sans-serif" font-size="12" font-style="italic" lengthAdjust="spacing" textLength="30.1682" x="609.5497" y="127.7961">ARGS</text><line style="stroke:#181818;stroke-width:0.5;" x1="491.56" x2="636.7179" y1="150" y2="150"/><line style="stroke:#181818;stroke-width:0.5;" x1="491.56" x2="636.7179" y1="158" y2="158"/></g><!--reverse link ROUTINE to FUNCTION--><g class="link" data-entity-1="ROUTINE" data-entity-2="FUNCTION" data-source-line="20" data-uid="lnk8" id="link_ROUTINE_FUNCTION"><path codeLine="20" d="M429.8417,71.3565 C413.1717,89.0365 402.69,100.13 386.03,117.79" fill="none" id="ROUTINE-backto-FUNCTION" style="stroke:#181818;stroke-width:1;"/><polygon fill="none" points="442.19,58.26,425.4762,67.2404,434.2072,75.4726,442.19,58.26" style="stroke:#181818;stroke-width:1;"/></g><!--reverse link TUPLE to TUPLE1--><g class="link" data-entity-1="TUPLE" data-entity-2="TUPLE1" data-source-line="21" data-uid="lnk9" id="link_TUPLE_TUPLE1"><path codeLine="21" d="M94.8159,73.4774 C83.6459,91.1574 77.97,100.13 66.81,117.79" fill="none" id="TUPLE-backto-TUPLE1" style="stroke:#181818;stroke-width:1;"/><polygon fill="none" points="104.43,58.26,89.7434,70.2727,99.8883,76.6821,104.43,58.26" style="stroke:#181818;stroke-width:1;"/></g><!--reverse link TUPLE to TUPLE2--><g class="link" data-entity-1="TUPLE" data-entity-2="TUPLE2" data-source-line="22" data-uid="lnk10" id="link_TUPLE_TUPLE2"><path codeLine="22" d="M143.1289,73.5434 C154.1289,91.2234 159.69,100.13 170.69,117.79" fill="none" id="TUPLE-backto-TUPLE2" style="stroke:#181818;stroke-width:1;"/><polygon fill="none" points="133.62,58.26,138.0344,76.713,148.2233,70.3737,133.62,58.26" style="stroke:#181818;stroke-width:1;"/></g><!--reverse link ROUTINE to PROCEDURE--><g class="link" data-entity-1="ROUTINE" data-entity-2="PROCEDURE" data-source-line="23" data-uid="lnk11" id="link_ROUTINE_PROCEDURE"><path codeLine="23" d="M498.4283,71.3565 C515.0983,89.0365 525.58,100.13 542.24,117.79" fill="none" id="ROUTINE-backto-PROCEDURE" style="stroke:#181818;stroke-width:1;"/><polygon fill="none" points="486.08,58.26,494.0628,75.4726,502.7938,67.2404,486.08,58.26" style="stroke:#181818;stroke-width:1;"/></g></g></svg>
