<svg xmlns="http://www.w3.org/2000/svg" xmlns:xlink="http://www.w3.org/1999/xlink" contentStyleType="text/css" data-diagram-type="CLASS" height="254px" preserveAspectRatio="none" style="width:535px;height:254px;background:#FFFFFF;" version="1.1" viewBox="0 0 535 254" width="535px" zoomAndPan="magnify"><defs/><g><!--class OPENEHR_DEFINITIONS--><g class="entity" data-entity="OPENEHR_DEFINITIONS" data-source-line="2" data-uid="ent0002" id="entity_OPENEHR_DEFINITIONS"><rect fill="#F1F1F1" height="48" rx="2.5" ry="2.5" style="stroke:#181818;stroke-width:0.5;" width="188.0574" x="7" y="199"/><ellipse cx="22" cy="215" fill="#ADD1B2" rx="11" ry="11" style="stroke:#181818;stroke-width:1;"/><path d="M22,221.4219 C23.1719,221.4219 24.4063,221.1563 25.7813,220.5469 L25.2969,219.0313 C24.2031,219.4531 23.1875,219.6406 22.3281,219.6406 C19.6094,219.6406 17.8906,217.7969 17.8906,214.8906 C17.8906,212.1406 19.4531,210.5469 22.1875,210.5469 C23.1094,210.5469 24.125,210.7344 25.2656,211.1563 L25.8438,209.6406 C24.75,209.0625 23.4531,208.7656 22.2656,208.7656 C18.5,208.7656 15.9219,211.4063 15.9219,215.2188 C15.9219,218.8906 18.4063,221.4219 22,221.4219 Z " fill="#000000"/><text fill="#000000" font-family="sans-serif" font-size="14" lengthAdjust="spacing" textLength="156.0574" x="36" y="220.362">OPENEHR_DEFINITIONS</text><line style="stroke:#181818;stroke-width:0.5;" x1="8" x2="194.0574" y1="231" y2="231"/><line style="stroke:#181818;stroke-width:0.5;" x1="8" x2="194.0574" y1="239" y2="239"/></g><!--class BASIC_DEFINITIONS--><g class="entity" data-entity="BASIC_DEFINITIONS" data-source-line="5" data-uid="ent0003" id="entity_BASIC_DEFINITIONS"><rect fill="#F1F1F1" height="48" rx="2.5" ry="2.5" style="stroke:#181818;stroke-width:0.5;" width="161.6255" x="20.22" y="49"/><ellipse cx="35.22" cy="65" fill="#ADD1B2" rx="11" ry="11" style="stroke:#181818;stroke-width:1;"/><path d="M35.22,71.4219 C36.3919,71.4219 37.6263,71.1563 39.0013,70.5469 L38.5169,69.0313 C37.4231,69.4531 36.4075,69.6406 35.5481,69.6406 C32.8294,69.6406 31.1106,67.7969 31.1106,64.8906 C31.1106,62.1406 32.6731,60.5469 35.4075,60.5469 C36.3294,60.5469 37.345,60.7344 38.4856,61.1563 L39.0638,59.6406 C37.97,59.0625 36.6731,58.7656 35.4856,58.7656 C31.72,58.7656 29.1419,61.4063 29.1419,65.2188 C29.1419,68.8906 31.6263,71.4219 35.22,71.4219 Z " fill="#000000"/><text fill="#000000" font-family="sans-serif" font-size="14" lengthAdjust="spacing" textLength="129.6255" x="49.22" y="70.362">BASIC_DEFINITIONS</text><line style="stroke:#181818;stroke-width:0.5;" x1="21.22" x2="180.8455" y1="81" y2="81"/><line style="stroke:#181818;stroke-width:0.5;" x1="21.22" x2="180.8455" y1="89" y2="89"/></g><!--class VALIDITY_KIND--><g class="entity" data-entity="VALIDITY_KIND" data-source-line="8" data-uid="ent0004" id="entity_VALIDITY_KIND"><rect fill="#F1F1F1" height="115.1997" rx="2.5" ry="2.5" style="stroke:#181818;stroke-width:0.5;" width="129.4676" x="217.29" y="15.4"/><ellipse cx="232.29" cy="31.4" fill="#EB937F" rx="11" ry="11" style="stroke:#181818;stroke-width:1;"/><path d="M227.8525,37.9 L235.79,37.9 L235.79,36.15 L229.79,36.15 L229.79,32.4156 L235.3369,32.4156 L235.3369,30.65 L229.79,30.65 L229.79,27.3219 L235.79,27.3219 L235.79,25.5719 L227.8525,25.5719 L227.8525,37.9 Z " fill="#000000"/><text fill="#000000" font-family="sans-serif" font-size="14" lengthAdjust="spacing" textLength="97.4676" x="246.29" y="36.762">VALIDITY_KIND</text><line style="stroke:#181818;stroke-width:0.5;" x1="218.29" x2="345.7576" y1="47.4" y2="47.4"/><text fill="#000000" font-family="sans-serif" font-size="14" lengthAdjust="spacing" textLength="67.6477" x="223.29" y="65.1619">mandatory</text><text fill="#000000" font-family="sans-serif" font-size="14" lengthAdjust="spacing" textLength="51.3658" x="223.29" y="81.9619">optional</text><text fill="#000000" font-family="sans-serif" font-size="14" lengthAdjust="spacing" textLength="64.4418" x="223.29" y="98.7618">prohibited</text><text fill="#000000" font-family="sans-serif" font-size="14" lengthAdjust="spacing" textLength="67.1437" x="223.29" y="115.5617">disallowed</text><line style="stroke:#181818;stroke-width:0.5;" x1="218.29" x2="345.7576" y1="122.5997" y2="122.5997"/></g><!--class VERSION_STATUS--><g class="entity" data-entity="VERSION_STATUS" data-source-line="15" data-uid="ent0005" id="entity_VERSION_STATUS"><rect fill="#F1F1F1" height="131.9996" rx="2.5" ry="2.5" style="stroke:#181818;stroke-width:0.5;" width="146.4075" x="381.82" y="7"/><ellipse cx="396.82" cy="23" fill="#EB937F" rx="11" ry="11" style="stroke:#181818;stroke-width:1;"/><path d="M392.3825,29.5 L400.32,29.5 L400.32,27.75 L394.32,27.75 L394.32,24.0156 L399.8669,24.0156 L399.8669,22.25 L394.32,22.25 L394.32,18.9219 L400.32,18.9219 L400.32,17.1719 L392.3825,17.1719 L392.3825,29.5 Z " fill="#000000"/><text fill="#000000" font-family="sans-serif" font-size="14" lengthAdjust="spacing" textLength="114.4075" x="410.82" y="28.362">VERSION_STATUS</text><line style="stroke:#181818;stroke-width:0.5;" x1="382.82" x2="527.2275" y1="39" y2="39"/><text fill="#000000" font-family="sans-serif" font-size="14" lengthAdjust="spacing" textLength="34.1599" x="387.82" y="56.7619">alpha</text><text fill="#000000" font-family="sans-serif" font-size="14" lengthAdjust="spacing" textLength="27.5939" x="387.82" y="73.5619">beta</text><text fill="#000000" font-family="sans-serif" font-size="14" lengthAdjust="spacing" textLength="112.6715" x="387.82" y="90.3618">release_candidate</text><text fill="#000000" font-family="sans-serif" font-size="14" lengthAdjust="spacing" textLength="52.9898" x="387.82" y="107.1617">released</text><text fill="#000000" font-family="sans-serif" font-size="14" lengthAdjust="spacing" textLength="31.1079" x="387.82" y="123.9616">build</text><line style="stroke:#181818;stroke-width:0.5;" x1="382.82" x2="527.2275" y1="130.9996" y2="130.9996"/></g><!--reverse link BASIC_DEFINITIONS to OPENEHR_DEFINITIONS--><g class="link" data-entity-1="BASIC_DEFINITIONS" data-entity-2="OPENEHR_DEFINITIONS" data-source-line="23" data-uid="lnk6" id="link_BASIC_DEFINITIONS_OPENEHR_DEFINITIONS"><path codeLine="23" d="M101.03,115.45 C101.03,143.16 101.03,170.99 101.03,198.66" fill="none" id="BASIC_DEFINITIONS-backto-OPENEHR_DEFINITIONS" style="stroke:#181818;stroke-width:1;"/><polygon fill="none" points="101.03,97.45,95.03,115.45,107.03,115.45,101.03,97.45" style="stroke:#181818;stroke-width:1;"/></g></g></svg>
