<svg xmlns="http://www.w3.org/2000/svg" xmlns:xlink="http://www.w3.org/1999/xlink" contentStyleType="text/css" data-diagram-type="CLASS" height="237px" preserveAspectRatio="none" style="width:2383px;height:237px;background:#FFFFFF;" version="1.1" viewBox="0 0 2383 237" width="2383px" zoomAndPan="magnify"><defs/><g><!--class EXPR_TYPE_DEF--><g class="entity" data-entity="EXPR_TYPE_DEF" data-source-line="2" data-uid="ent0002" id="entity_EXPR_TYPE_DEF"><rect fill="#F1F1F1" height="81.5999" rx="2.5" ry="2.5" style="stroke:#181818;stroke-width:0.5;" width="161.0435" x="1107.77" y="7"/><ellipse cx="1133.1614" cy="23" fill="#A9DCDF" rx="11" ry="11" style="stroke:#181818;stroke-width:1;"/><path d="M1127.677,28.5 L1129.7082,28.5 L1133.7551,17.1563 L1132.8489,17.1563 L1136.677,28.5 L1138.8176,28.5 L1134.4895,16.1719 L1132.2707,16.1719 L1127.677,28.5 Z M1130.0051,25 L1136.4426,25 L1136.4426,23.25 L1130.0051,23.25 L1130.0051,25 Z " fill="#000000"/><text fill="#000000" font-family="sans-serif" font-size="14" font-style="italic" lengthAdjust="spacing" textLength="105.9516" x="1149.4706" y="28.362">EXPR_TYPE_DEF</text><line style="stroke:#181818;stroke-width:0.5;" x1="1108.77" x2="1267.8135" y1="39" y2="39"/><ellipse cx="1118.77" cy="52.9" fill="none" rx="3" ry="3" style="stroke:#038048;stroke-width:1;"/><text fill="#000000" font-family="sans-serif" font-size="14" lengthAdjust="spacing" textLength="135.0435" x="1127.77" y="56.7619">type_name : String [1]</text><ellipse cx="1118.77" cy="69.6999" fill="none" rx="3" ry="3" style="stroke:#038048;stroke-width:1;"/><text fill="#000000" font-family="sans-serif" font-size="14" lengthAdjust="spacing" textLength="128.9255" x="1127.77" y="73.5619">type_anchor : Any [1]</text><line style="stroke:#181818;stroke-width:0.5;" x1="1108.77" x2="1267.8135" y1="80.5999" y2="80.5999"/></g><!--class TYPE_DEF_BOOLEAN--><g class="entity" data-entity="TYPE_DEF_BOOLEAN" data-source-line="7" data-uid="ent0003" id="entity_TYPE_DEF_BOOLEAN"><rect fill="#F1F1F1" height="81.5999" rx="2.5" ry="2.5" style="stroke:#181818;stroke-width:0.5;" width="182.5894" x="7" y="148.6"/><ellipse cx="28.0633" cy="164.6" fill="#ADD1B2" rx="11" ry="11" style="stroke:#181818;stroke-width:1;"/><path d="M28.0633,171.0219 C29.2352,171.0219 30.4695,170.7563 31.8445,170.1469 L31.3602,168.6313 C30.2664,169.0531 29.2508,169.2406 28.3914,169.2406 C25.6727,169.2406 23.9539,167.3969 23.9539,164.4906 C23.9539,161.7406 25.5164,160.1469 28.2508,160.1469 C29.1727,160.1469 30.1883,160.3344 31.3289,160.7563 L31.907,159.2406 C30.8133,158.6625 29.5164,158.3656 28.3289,158.3656 C24.5633,158.3656 21.9852,161.0063 21.9852,164.8188 C21.9852,168.4906 24.4695,171.0219 28.0633,171.0219 Z " fill="#000000"/><text fill="#000000" font-family="sans-serif" font-size="14" lengthAdjust="spacing" textLength="137.1154" x="43.4107" y="169.962">TYPE_DEF_BOOLEAN</text><line style="stroke:#181818;stroke-width:0.5;" x1="8" x2="188.5894" y1="180.6" y2="180.6"/><ellipse cx="18" cy="194.5" fill="none" rx="3" ry="3" style="stroke:#038048;stroke-width:1;"/><text fill="#000000" font-family="sans-serif" font-size="14" lengthAdjust="spacing" textLength="135.0435" x="27" y="198.3619">type_name : String [1]</text><ellipse cx="18" cy="211.2999" fill="none" rx="3" ry="3" style="stroke:#038048;stroke-width:1;"/><text fill="#000000" font-family="sans-serif" font-size="14" lengthAdjust="spacing" textLength="156.5894" x="27" y="215.1619">type_anchor : Boolean [1]</text><line style="stroke:#181818;stroke-width:0.5;" x1="8" x2="188.5894" y1="222.1999" y2="222.1999"/></g><!--class TYPE_DEF_DATE--><g class="entity" data-entity="TYPE_DEF_DATE" data-source-line="12" data-uid="ent0004" id="entity_TYPE_DEF_DATE"><rect fill="#F1F1F1" height="81.5999" rx="2.5" ry="2.5" style="stroke:#181818;stroke-width:0.5;" width="164.8095" x="224.89" y="148.6"/><ellipse cx="251.365" cy="164.6" fill="#ADD1B2" rx="11" ry="11" style="stroke:#181818;stroke-width:1;"/><path d="M251.365,171.0219 C252.5368,171.0219 253.7712,170.7563 255.1462,170.1469 L254.6618,168.6313 C253.5681,169.0531 252.5525,169.2406 251.6931,169.2406 C248.9743,169.2406 247.2556,167.3969 247.2556,164.4906 C247.2556,161.7406 248.8181,160.1469 251.5525,160.1469 C252.4743,160.1469 253.49,160.3344 254.6306,160.7563 L255.2087,159.2406 C254.115,158.6625 252.8181,158.3656 251.6306,158.3656 C247.865,158.3656 245.2868,161.0063 245.2868,164.8188 C245.2868,168.4906 247.7712,171.0219 251.365,171.0219 Z " fill="#000000"/><text fill="#000000" font-family="sans-serif" font-size="14" lengthAdjust="spacing" textLength="107.3096" x="267.915" y="169.962">TYPE_DEF_DATE</text><line style="stroke:#181818;stroke-width:0.5;" x1="225.89" x2="388.6995" y1="180.6" y2="180.6"/><ellipse cx="235.89" cy="194.5" fill="none" rx="3" ry="3" style="stroke:#038048;stroke-width:1;"/><text fill="#000000" font-family="sans-serif" font-size="14" lengthAdjust="spacing" textLength="135.0435" x="244.89" y="198.3619">type_name : String [1]</text><ellipse cx="235.89" cy="211.2999" fill="none" rx="3" ry="3" style="stroke:#038048;stroke-width:1;"/><text fill="#000000" font-family="sans-serif" font-size="14" lengthAdjust="spacing" textLength="138.8095" x="244.89" y="215.1619">type_anchor : IDate [1]</text><line style="stroke:#181818;stroke-width:0.5;" x1="225.89" x2="388.6995" y1="222.1999" y2="222.1999"/></g><!--class TYPE_DEF_DATE_TIME--><g class="entity" data-entity="TYPE_DEF_DATE_TIME" data-source-line="17" data-uid="ent0005" id="entity_TYPE_DEF_DATE_TIME"><rect fill="#F1F1F1" height="81.5999" rx="2.5" ry="2.5" style="stroke:#181818;stroke-width:0.5;" width="200.1033" x="424.24" y="148.6"/><ellipse cx="449.1085" cy="164.6" fill="#ADD1B2" rx="11" ry="11" style="stroke:#181818;stroke-width:1;"/><path d="M449.1085,171.0219 C450.2803,171.0219 451.5147,170.7563 452.8897,170.1469 L452.4053,168.6313 C451.3116,169.0531 450.296,169.2406 449.4366,169.2406 C446.7178,169.2406 444.9991,167.3969 444.9991,164.4906 C444.9991,161.7406 446.5616,160.1469 449.296,160.1469 C450.2178,160.1469 451.2335,160.3344 452.3741,160.7563 L452.9522,159.2406 C451.8585,158.6625 450.5616,158.3656 449.3741,158.3656 C445.6085,158.3656 443.0303,161.0063 443.0303,164.8188 C443.0303,168.4906 445.5147,171.0219 449.1085,171.0219 Z " fill="#000000"/><text fill="#000000" font-family="sans-serif" font-size="14" lengthAdjust="spacing" textLength="146.1734" x="465.3015" y="169.962">TYPE_DEF_DATE_TIME</text><line style="stroke:#181818;stroke-width:0.5;" x1="425.24" x2="623.3433" y1="180.6" y2="180.6"/><ellipse cx="435.24" cy="194.5" fill="none" rx="3" ry="3" style="stroke:#038048;stroke-width:1;"/><text fill="#000000" font-family="sans-serif" font-size="14" lengthAdjust="spacing" textLength="135.0435" x="444.24" y="198.3619">type_name : String [1]</text><ellipse cx="435.24" cy="211.2999" fill="none" rx="3" ry="3" style="stroke:#038048;stroke-width:1;"/><text fill="#000000" font-family="sans-serif" font-size="14" lengthAdjust="spacing" textLength="174.1033" x="444.24" y="215.1619">type_anchor : IDate_time [1]</text><line style="stroke:#181818;stroke-width:0.5;" x1="425.24" x2="623.3433" y1="222.1999" y2="222.1999"/></g><!--class TYPE_DEF_DURATION--><g class="entity" data-entity="TYPE_DEF_DURATION" data-source-line="22" data-uid="ent0006" id="entity_TYPE_DEF_DURATION"><rect fill="#F1F1F1" height="81.5999" rx="2.5" ry="2.5" style="stroke:#181818;stroke-width:0.5;" width="189.8274" x="659.38" y="148.6"/><ellipse cx="681.4639" cy="164.6" fill="#ADD1B2" rx="11" ry="11" style="stroke:#181818;stroke-width:1;"/><path d="M681.4639,171.0219 C682.6358,171.0219 683.8701,170.7563 685.2451,170.1469 L684.7608,168.6313 C683.667,169.0531 682.6514,169.2406 681.792,169.2406 C679.0733,169.2406 677.3545,167.3969 677.3545,164.4906 C677.3545,161.7406 678.917,160.1469 681.6514,160.1469 C682.5733,160.1469 683.5889,160.3344 684.7295,160.7563 L685.3076,159.2406 C684.2139,158.6625 682.917,158.3656 681.7295,158.3656 C677.9639,158.3656 675.3858,161.0063 675.3858,164.8188 C675.3858,168.4906 677.8701,171.0219 681.4639,171.0219 Z " fill="#000000"/><text fill="#000000" font-family="sans-serif" font-size="14" lengthAdjust="spacing" textLength="142.0854" x="697.0381" y="169.962">TYPE_DEF_DURATION</text><line style="stroke:#181818;stroke-width:0.5;" x1="660.38" x2="848.2074" y1="180.6" y2="180.6"/><ellipse cx="670.38" cy="194.5" fill="none" rx="3" ry="3" style="stroke:#038048;stroke-width:1;"/><text fill="#000000" font-family="sans-serif" font-size="14" lengthAdjust="spacing" textLength="135.0435" x="679.38" y="198.3619">type_name : String [1]</text><ellipse cx="670.38" cy="211.2999" fill="none" rx="3" ry="3" style="stroke:#038048;stroke-width:1;"/><text fill="#000000" font-family="sans-serif" font-size="14" lengthAdjust="spacing" textLength="163.8274" x="679.38" y="215.1619">type_anchor : IDuration [1]</text><line style="stroke:#181818;stroke-width:0.5;" x1="660.38" x2="848.2074" y1="222.1999" y2="222.1999"/></g><!--class TYPE_DEF_INTEGER--><g class="entity" data-entity="TYPE_DEF_INTEGER" data-source-line="27" data-uid="ent0007" id="entity_TYPE_DEF_INTEGER"><rect fill="#F1F1F1" height="81.5999" rx="2.5" ry="2.5" style="stroke:#181818;stroke-width:0.5;" width="176.2754" x="884.16" y="148.6"/><ellipse cx="905.721" cy="164.6" fill="#ADD1B2" rx="11" ry="11" style="stroke:#181818;stroke-width:1;"/><path d="M905.721,171.0219 C906.8929,171.0219 908.1272,170.7563 909.5022,170.1469 L909.0179,168.6313 C907.9241,169.0531 906.9085,169.2406 906.0491,169.2406 C903.3304,169.2406 901.6116,167.3969 901.6116,164.4906 C901.6116,161.7406 903.1741,160.1469 905.9085,160.1469 C906.8304,160.1469 907.846,160.3344 908.9866,160.7563 L909.5647,159.2406 C908.471,158.6625 907.1741,158.3656 905.9866,158.3656 C902.221,158.3656 899.6429,161.0063 899.6429,164.8188 C899.6429,168.4906 902.1272,171.0219 905.721,171.0219 Z " fill="#000000"/><text fill="#000000" font-family="sans-serif" font-size="14" lengthAdjust="spacing" textLength="129.6955" x="921.179" y="169.962">TYPE_DEF_INTEGER</text><line style="stroke:#181818;stroke-width:0.5;" x1="885.16" x2="1059.4354" y1="180.6" y2="180.6"/><ellipse cx="895.16" cy="194.5" fill="none" rx="3" ry="3" style="stroke:#038048;stroke-width:1;"/><text fill="#000000" font-family="sans-serif" font-size="14" lengthAdjust="spacing" textLength="135.0435" x="904.16" y="198.3619">type_name : String [1]</text><ellipse cx="895.16" cy="211.2999" fill="none" rx="3" ry="3" style="stroke:#038048;stroke-width:1;"/><text fill="#000000" font-family="sans-serif" font-size="14" lengthAdjust="spacing" textLength="150.2754" x="904.16" y="215.1619">type_anchor : Integer [1]</text><line style="stroke:#181818;stroke-width:0.5;" x1="885.16" x2="1059.4354" y1="222.1999" y2="222.1999"/></g><!--class TYPE_DEF_OBJECT_REF--><g class="entity" data-entity="TYPE_DEF_OBJECT_REF" data-source-line="32" data-uid="ent0008" id="entity_TYPE_DEF_OBJECT_REF"><rect fill="#F1F1F1" height="64.7999" rx="2.5" ry="2.5" style="stroke:#181818;stroke-width:0.5;" width="186.3914" x="1095.1" y="157"/><ellipse cx="1110.1" cy="173" fill="#ADD1B2" rx="11" ry="11" style="stroke:#181818;stroke-width:1;"/><path d="M1110.1,179.4219 C1111.2719,179.4219 1112.5063,179.1563 1113.8813,178.5469 L1113.3969,177.0313 C1112.3031,177.4531 1111.2875,177.6406 1110.4281,177.6406 C1107.7094,177.6406 1105.9906,175.7969 1105.9906,172.8906 C1105.9906,170.1406 1107.5531,168.5469 1110.2875,168.5469 C1111.2094,168.5469 1112.225,168.7344 1113.3656,169.1563 L1113.9438,167.6406 C1112.85,167.0625 1111.5531,166.7656 1110.3656,166.7656 C1106.6,166.7656 1104.0219,169.4063 1104.0219,173.2188 C1104.0219,176.8906 1106.5063,179.4219 1110.1,179.4219 Z " fill="#000000"/><text fill="#000000" font-family="sans-serif" font-size="14" lengthAdjust="spacing" textLength="154.3914" x="1124.1" y="178.362">TYPE_DEF_OBJECT_REF</text><line style="stroke:#181818;stroke-width:0.5;" x1="1096.1" x2="1280.4914" y1="189" y2="189"/><ellipse cx="1106.1" cy="202.9" fill="none" rx="3" ry="3" style="stroke:#038048;stroke-width:1;"/><text fill="#000000" font-family="sans-serif" font-size="14" lengthAdjust="spacing" textLength="135.0435" x="1115.1" y="206.7619">type_name : String [1]</text><line style="stroke:#181818;stroke-width:0.5;" x1="1096.1" x2="1280.4914" y1="213.7999" y2="213.7999"/></g><!--class TYPE_DEF_REAL--><g class="entity" data-entity="TYPE_DEF_REAL" data-source-line="36" data-uid="ent0009" id="entity_TYPE_DEF_REAL"><rect fill="#F1F1F1" height="81.5999" rx="2.5" ry="2.5" style="stroke:#181818;stroke-width:0.5;" width="161.0435" x="1316.77" y="148.6"/><ellipse cx="1342.5016" cy="164.6" fill="#ADD1B2" rx="11" ry="11" style="stroke:#181818;stroke-width:1;"/><path d="M1342.5016,171.0219 C1343.6734,171.0219 1344.9078,170.7563 1346.2828,170.1469 L1345.7984,168.6313 C1344.7047,169.0531 1343.6891,169.2406 1342.8297,169.2406 C1340.1109,169.2406 1338.3922,167.3969 1338.3922,164.4906 C1338.3922,161.7406 1339.9547,160.1469 1342.6891,160.1469 C1343.6109,160.1469 1344.6266,160.3344 1345.7672,160.7563 L1346.3453,159.2406 C1345.2516,158.6625 1343.9547,158.3656 1342.7672,158.3656 C1339.0016,158.3656 1336.4234,161.0063 1336.4234,164.8188 C1336.4234,168.4906 1338.9078,171.0219 1342.5016,171.0219 Z " fill="#000000"/><text fill="#000000" font-family="sans-serif" font-size="14" lengthAdjust="spacing" textLength="105.1956" x="1358.8864" y="169.962">TYPE_DEF_REAL</text><line style="stroke:#181818;stroke-width:0.5;" x1="1317.77" x2="1476.8135" y1="180.6" y2="180.6"/><ellipse cx="1327.77" cy="194.5" fill="none" rx="3" ry="3" style="stroke:#038048;stroke-width:1;"/><text fill="#000000" font-family="sans-serif" font-size="14" lengthAdjust="spacing" textLength="135.0435" x="1336.77" y="198.3619">type_name : String [1]</text><ellipse cx="1327.77" cy="211.2999" fill="none" rx="3" ry="3" style="stroke:#038048;stroke-width:1;"/><text fill="#000000" font-family="sans-serif" font-size="14" lengthAdjust="spacing" textLength="132.6355" x="1336.77" y="215.1619">type_anchor : Real [1]</text><line style="stroke:#181818;stroke-width:0.5;" x1="1317.77" x2="1476.8135" y1="222.1999" y2="222.1999"/></g><!--class TYPE_DEF_STRING--><g class="entity" data-entity="TYPE_DEF_STRING" data-source-line="41" data-uid="ent0010" id="entity_TYPE_DEF_STRING"><rect fill="#F1F1F1" height="81.5999" rx="2.5" ry="2.5" style="stroke:#181818;stroke-width:0.5;" width="168.9395" x="1512.82" y="148.6"/><ellipse cx="1534.9543" cy="164.6" fill="#ADD1B2" rx="11" ry="11" style="stroke:#181818;stroke-width:1;"/><path d="M1534.9543,171.0219 C1536.1262,171.0219 1537.3605,170.7563 1538.7355,170.1469 L1538.2512,168.6313 C1537.1574,169.0531 1536.1418,169.2406 1535.2824,169.2406 C1532.5637,169.2406 1530.8449,167.3969 1530.8449,164.4906 C1530.8449,161.7406 1532.4074,160.1469 1535.1418,160.1469 C1536.0637,160.1469 1537.0793,160.3344 1538.2199,160.7563 L1538.798,159.2406 C1537.7043,158.6625 1536.4074,158.3656 1535.2199,158.3656 C1531.4543,158.3656 1528.8762,161.0063 1528.8762,164.8188 C1528.8762,168.4906 1531.3605,171.0219 1534.9543,171.0219 Z " fill="#000000"/><text fill="#000000" font-family="sans-serif" font-size="14" lengthAdjust="spacing" textLength="121.0855" x="1550.5397" y="169.962">TYPE_DEF_STRING</text><line style="stroke:#181818;stroke-width:0.5;" x1="1513.82" x2="1680.7595" y1="180.6" y2="180.6"/><ellipse cx="1523.82" cy="194.5" fill="none" rx="3" ry="3" style="stroke:#038048;stroke-width:1;"/><text fill="#000000" font-family="sans-serif" font-size="14" lengthAdjust="spacing" textLength="135.0435" x="1532.82" y="198.3619">type_name : String [1]</text><ellipse cx="1523.82" cy="211.2999" fill="none" rx="3" ry="3" style="stroke:#038048;stroke-width:1;"/><text fill="#000000" font-family="sans-serif" font-size="14" lengthAdjust="spacing" textLength="142.9395" x="1532.82" y="215.1619">type_anchor : String [1]</text><line style="stroke:#181818;stroke-width:0.5;" x1="1513.82" x2="1680.7595" y1="222.1999" y2="222.1999"/></g><!--class TYPE_DEF_TERMINOLOGY_CODE--><g class="entity" data-entity="TYPE_DEF_TERMINOLOGY_CODE" data-source-line="46" data-uid="ent0011" id="entity_TYPE_DEF_TERMINOLOGY_CODE"><rect fill="#F1F1F1" height="81.5999" rx="2.5" ry="2.5" style="stroke:#181818;stroke-width:0.5;" width="247.1991" x="1716.7" y="148.6"/><ellipse cx="1731.8665" cy="164.6" fill="#ADD1B2" rx="11" ry="11" style="stroke:#181818;stroke-width:1;"/><path d="M1731.8665,171.0219 C1733.0384,171.0219 1734.2728,170.7563 1735.6478,170.1469 L1735.1634,168.6313 C1734.0696,169.0531 1733.054,169.2406 1732.1946,169.2406 C1729.4759,169.2406 1727.7571,167.3969 1727.7571,164.4906 C1727.7571,161.7406 1729.3196,160.1469 1732.054,160.1469 C1732.9759,160.1469 1733.9915,160.3344 1735.1321,160.7563 L1735.7103,159.2406 C1734.6165,158.6625 1733.3196,158.3656 1732.1321,158.3656 C1728.3665,158.3656 1725.7884,161.0063 1725.7884,164.8188 C1725.7884,168.4906 1728.2728,171.0219 1731.8665,171.0219 Z " fill="#000000"/><text fill="#000000" font-family="sans-serif" font-size="14" lengthAdjust="spacing" textLength="214.8291" x="1745.9035" y="169.962">TYPE_DEF_TERMINOLOGY_CODE</text><line style="stroke:#181818;stroke-width:0.5;" x1="1717.7" x2="1962.8991" y1="180.6" y2="180.6"/><ellipse cx="1727.7" cy="194.5" fill="none" rx="3" ry="3" style="stroke:#038048;stroke-width:1;"/><text fill="#000000" font-family="sans-serif" font-size="14" lengthAdjust="spacing" textLength="135.0435" x="1736.7" y="198.3619">type_name : String [1]</text><ellipse cx="1727.7" cy="211.2999" fill="none" rx="3" ry="3" style="stroke:#038048;stroke-width:1;"/><text fill="#000000" font-family="sans-serif" font-size="14" lengthAdjust="spacing" textLength="221.1991" x="1736.7" y="215.1619">type_anchor : Terminology_code [1]</text><line style="stroke:#181818;stroke-width:0.5;" x1="1717.7" x2="1962.8991" y1="222.1999" y2="222.1999"/></g><!--class TYPE_DEF_TIME--><g class="entity" data-entity="TYPE_DEF_TIME" data-source-line="51" data-uid="ent0012" id="entity_TYPE_DEF_TIME"><rect fill="#F1F1F1" height="81.5999" rx="2.5" ry="2.5" style="stroke:#181818;stroke-width:0.5;" width="166.4055" x="1999.09" y="148.6"/><ellipse cx="2027.6124" cy="164.6" fill="#ADD1B2" rx="11" ry="11" style="stroke:#181818;stroke-width:1;"/><path d="M2027.6124,171.0219 C2028.7843,171.0219 2030.0187,170.7563 2031.3937,170.1469 L2030.9093,168.6313 C2029.8156,169.0531 2028.7999,169.2406 2027.9406,169.2406 C2025.2218,169.2406 2023.5031,167.3969 2023.5031,164.4906 C2023.5031,161.7406 2025.0656,160.1469 2027.7999,160.1469 C2028.7218,160.1469 2029.7374,160.3344 2030.8781,160.7563 L2031.4562,159.2406 C2030.3624,158.6625 2029.0656,158.3656 2027.8781,158.3656 C2024.1124,158.3656 2021.5343,161.0063 2021.5343,164.8188 C2021.5343,168.4906 2024.0187,171.0219 2027.6124,171.0219 Z " fill="#000000"/><text fill="#000000" font-family="sans-serif" font-size="14" lengthAdjust="spacing" textLength="104.3556" x="2044.6174" y="169.962">TYPE_DEF_TIME</text><line style="stroke:#181818;stroke-width:0.5;" x1="2000.09" x2="2164.4955" y1="180.6" y2="180.6"/><ellipse cx="2010.09" cy="194.5" fill="none" rx="3" ry="3" style="stroke:#038048;stroke-width:1;"/><text fill="#000000" font-family="sans-serif" font-size="14" lengthAdjust="spacing" textLength="135.0435" x="2019.09" y="198.3619">type_name : String [1]</text><ellipse cx="2010.09" cy="211.2999" fill="none" rx="3" ry="3" style="stroke:#038048;stroke-width:1;"/><text fill="#000000" font-family="sans-serif" font-size="14" lengthAdjust="spacing" textLength="140.4055" x="2019.09" y="215.1619">type_anchor : ITime [1]</text><line style="stroke:#181818;stroke-width:0.5;" x1="2000.09" x2="2164.4955" y1="222.1999" y2="222.1999"/></g><!--class TYPE_DEF_URI--><g class="entity" data-entity="TYPE_DEF_URI" data-source-line="56" data-uid="ent0013" id="entity_TYPE_DEF_URI"><rect fill="#F1F1F1" height="81.5999" rx="2.5" ry="2.5" style="stroke:#181818;stroke-width:0.5;" width="176.2754" x="2200.16" y="148.6"/><ellipse cx="2237.6473" cy="164.6" fill="#ADD1B2" rx="11" ry="11" style="stroke:#181818;stroke-width:1;"/><path d="M2237.6473,171.0219 C2238.8192,171.0219 2240.0536,170.7563 2241.4286,170.1469 L2240.9442,168.6313 C2239.8504,169.0531 2238.8348,169.2406 2237.9754,169.2406 C2235.2567,169.2406 2233.5379,167.3969 2233.5379,164.4906 C2233.5379,161.7406 2235.1004,160.1469 2237.8348,160.1469 C2238.7567,160.1469 2239.7723,160.3344 2240.9129,160.7563 L2241.4911,159.2406 C2240.3973,158.6625 2239.1004,158.3656 2237.9129,158.3656 C2234.1473,158.3656 2231.5692,161.0063 2231.5692,164.8188 C2231.5692,168.4906 2234.0536,171.0219 2237.6473,171.0219 Z " fill="#000000"/><text fill="#000000" font-family="sans-serif" font-size="14" lengthAdjust="spacing" textLength="94.3036" x="2256.6445" y="169.962">TYPE_DEF_URI</text><line style="stroke:#181818;stroke-width:0.5;" x1="2201.16" x2="2375.4354" y1="180.6" y2="180.6"/><ellipse cx="2211.16" cy="194.5" fill="none" rx="3" ry="3" style="stroke:#038048;stroke-width:1;"/><text fill="#000000" font-family="sans-serif" font-size="14" lengthAdjust="spacing" textLength="135.0435" x="2220.16" y="198.3619">type_name : String [1]</text><ellipse cx="2211.16" cy="211.2999" fill="none" rx="3" ry="3" style="stroke:#038048;stroke-width:1;"/><text fill="#000000" font-family="sans-serif" font-size="14" lengthAdjust="spacing" textLength="150.2754" x="2220.16" y="215.1619">type_anchor : Integer [1]</text><line style="stroke:#181818;stroke-width:0.5;" x1="2201.16" x2="2375.4354" y1="222.1999" y2="222.1999"/></g><!--reverse link EXPR_TYPE_DEF to TYPE_DEF_BOOLEAN--><g class="link" data-entity-1="EXPR_TYPE_DEF" data-entity-2="TYPE_DEF_BOOLEAN" data-source-line="61" data-uid="lnk14" id="link_EXPR_TYPE_DEF_TYPE_DEF_BOOLEAN"><path codeLine="61" d="M1089.4064,50.7407 C920.1964,55.2607 535.36,73.26 207.29,148.6 C201.6,149.91 195.8,151.43 189.98,153.1" fill="none" id="EXPR_TYPE_DEF-backto-TYPE_DEF_BOOLEAN" style="stroke:#181818;stroke-width:1;"/><polygon fill="none" points="1107.4,50.26,1089.2462,44.7428,1089.5666,56.7385,1107.4,50.26" style="stroke:#181818;stroke-width:1;"/></g><!--reverse link EXPR_TYPE_DEF to TYPE_DEF_DATE--><g class="link" data-entity-1="EXPR_TYPE_DEF" data-entity-2="TYPE_DEF_DATE" data-source-line="62" data-uid="lnk15" id="link_EXPR_TYPE_DEF_TYPE_DEF_DATE"><path codeLine="62" d="M1089.3962,53.3001 C945.9962,61.0401 656.8,83.41 406.29,148.6 C400.92,150 395.44,151.62 389.96,153.38" fill="none" id="EXPR_TYPE_DEF-backto-TYPE_DEF_DATE" style="stroke:#181818;stroke-width:1;"/><polygon fill="none" points="1107.37,52.33,1089.0728,47.3089,1089.7195,59.2914,1107.37,52.33" style="stroke:#181818;stroke-width:1;"/></g><!--reverse link EXPR_TYPE_DEF to TYPE_DEF_DATE_TIME--><g class="link" data-entity-1="EXPR_TYPE_DEF" data-entity-2="TYPE_DEF_DATE_TIME" data-source-line="63" data-uid="lnk16" id="link_EXPR_TYPE_DEF_TYPE_DEF_DATE_TIME"><path codeLine="63" d="M1089.655,62.4142 C982.385,77.9142 805.32,106.44 642.29,148.6 C636.54,150.09 630.66,151.72 624.74,153.44" fill="none" id="EXPR_TYPE_DEF-backto-TYPE_DEF_DATE_TIME" style="stroke:#181818;stroke-width:1;"/><polygon fill="none" points="1107.47,59.84,1088.797,56.4759,1090.5131,68.3525,1107.47,59.84" style="stroke:#181818;stroke-width:1;"/></g><!--reverse link EXPR_TYPE_DEF to TYPE_DEF_DURATION--><g class="link" data-entity-1="EXPR_TYPE_DEF" data-entity-2="TYPE_DEF_DURATION" data-source-line="64" data-uid="lnk17" id="link_EXPR_TYPE_DEF_TYPE_DEF_DURATION"><path codeLine="64" d="M1090.0452,78.1024 C1024.7552,97.7724 947.93,121.46 866.29,148.6 C860.81,150.42 855.19,152.32 849.52,154.26" fill="none" id="EXPR_TYPE_DEF-backto-TYPE_DEF_DURATION" style="stroke:#181818;stroke-width:1;"/><polygon fill="none" points="1107.28,72.91,1088.3144,72.3574,1091.776,83.8473,1107.28,72.91" style="stroke:#181818;stroke-width:1;"/></g><!--reverse link EXPR_TYPE_DEF to TYPE_DEF_INTEGER--><g class="link" data-entity-1="EXPR_TYPE_DEF" data-entity-2="TYPE_DEF_INTEGER" data-source-line="65" data-uid="lnk18" id="link_EXPR_TYPE_DEF_TYPE_DEF_INTEGER"><path codeLine="65" d="M1110.9932,98.7616 C1082.2032,117.3716 1063.2,129.65 1034.42,148.25" fill="none" id="EXPR_TYPE_DEF-backto-TYPE_DEF_INTEGER" style="stroke:#181818;stroke-width:1;"/><polygon fill="none" points="1126.11,88.99,1107.736,93.7226,1114.2504,103.8005,1126.11,88.99" style="stroke:#181818;stroke-width:1;"/></g><!--reverse link EXPR_TYPE_DEF to TYPE_DEF_OBJECT_REF--><g class="link" data-entity-1="EXPR_TYPE_DEF" data-entity-2="TYPE_DEF_OBJECT_REF" data-source-line="66" data-uid="lnk19" id="link_EXPR_TYPE_DEF_TYPE_DEF_OBJECT_REF"><path codeLine="66" d="M1188.29,106.8 C1188.29,128.4 1188.29,136.67 1188.29,156.81" fill="none" id="EXPR_TYPE_DEF-backto-TYPE_DEF_OBJECT_REF" style="stroke:#181818;stroke-width:1;"/><polygon fill="none" points="1188.29,88.8,1182.29,106.8,1194.29,106.8,1188.29,88.8" style="stroke:#181818;stroke-width:1;"/></g><!--reverse link EXPR_TYPE_DEF to TYPE_DEF_REAL--><g class="link" data-entity-1="EXPR_TYPE_DEF" data-entity-2="TYPE_DEF_REAL" data-source-line="67" data-uid="lnk20" id="link_EXPR_TYPE_DEF_TYPE_DEF_REAL"><path codeLine="67" d="M1263.4361,98.9907 C1291.2861,117.6007 1309.34,129.65 1337.19,148.25" fill="none" id="EXPR_TYPE_DEF-backto-TYPE_DEF_REAL" style="stroke:#181818;stroke-width:1;"/><polygon fill="none" points="1248.47,88.99,1260.1026,103.9794,1266.7697,94.002,1248.47,88.99" style="stroke:#181818;stroke-width:1;"/></g><!--reverse link EXPR_TYPE_DEF to TYPE_DEF_STRING--><g class="link" data-entity-1="EXPR_TYPE_DEF" data-entity-2="TYPE_DEF_STRING" data-source-line="68" data-uid="lnk21" id="link_EXPR_TYPE_DEF_TYPE_DEF_STRING"><path codeLine="68" d="M1286.3779,79.0778 C1348.5379,98.5378 1419.16,121.4 1495.29,148.6 C1500.93,150.61 1506.73,152.74 1512.56,154.91" fill="none" id="EXPR_TYPE_DEF-backto-TYPE_DEF_STRING" style="stroke:#181818;stroke-width:1;"/><polygon fill="none" points="1269.2,73.7,1284.5853,84.8037,1288.1705,73.3518,1269.2,73.7" style="stroke:#181818;stroke-width:1;"/></g><!--reverse link EXPR_TYPE_DEF to TYPE_DEF_TERMINOLOGY_CODE--><g class="link" data-entity-1="EXPR_TYPE_DEF" data-entity-2="TYPE_DEF_TERMINOLOGY_CODE" data-source-line="69" data-uid="lnk22" id="link_EXPR_TYPE_DEF_TYPE_DEF_TERMINOLOGY_CODE"><path codeLine="69" d="M1287.0137,65.5745 C1388.1437,83.1645 1548.5,112.66 1699.29,148.6 C1704.86,149.93 1710.54,151.33 1716.27,152.78" fill="none" id="EXPR_TYPE_DEF-backto-TYPE_DEF_TERMINOLOGY_CODE" style="stroke:#181818;stroke-width:1;"/><polygon fill="none" points="1269.28,62.49,1285.9856,71.4858,1288.0419,59.6633,1269.28,62.49" style="stroke:#181818;stroke-width:1;"/></g><!--reverse link EXPR_TYPE_DEF to TYPE_DEF_TIME--><g class="link" data-entity-1="EXPR_TYPE_DEF" data-entity-2="TYPE_DEF_TIME" data-source-line="70" data-uid="lnk23" id="link_EXPR_TYPE_DEF_TYPE_DEF_TIME"><path codeLine="70" d="M1287.1444,53.2705 C1431.9844,61.0105 1726.37,83.43 1981.29,148.6 C1987.05,150.07 1992.91,151.78 1998.78,153.65" fill="none" id="EXPR_TYPE_DEF-backto-TYPE_DEF_TIME" style="stroke:#181818;stroke-width:1;"/><polygon fill="none" points="1269.17,52.31,1286.8242,59.262,1287.4645,47.2791,1269.17,52.31" style="stroke:#181818;stroke-width:1;"/></g><!--reverse link EXPR_TYPE_DEF to TYPE_DEF_URI--><g class="link" data-entity-1="EXPR_TYPE_DEF" data-entity-2="TYPE_DEF_URI" data-source-line="71" data-uid="lnk24" id="link_EXPR_TYPE_DEF_TYPE_DEF_URI"><path codeLine="71" d="M1287.106,50.1478 C1458.096,53.7378 1850.17,70.2 2183.29,148.6 C2188.7,149.87 2194.21,151.36 2199.72,152.99" fill="none" id="EXPR_TYPE_DEF-backto-TYPE_DEF_URI" style="stroke:#181818;stroke-width:1;"/><polygon fill="none" points="1269.11,49.77,1286.9801,56.1465,1287.232,44.1492,1269.11,49.77" style="stroke:#181818;stroke-width:1;"/></g></g></svg>
