<svg xmlns="http://www.w3.org/2000/svg" xmlns:xlink="http://www.w3.org/1999/xlink" contentStyleType="text/css" data-diagram-type="CLASS" height="573px" preserveAspectRatio="none" style="width:1154px;height:573px;background:#FFFFFF;" version="1.1" viewBox="0 0 1154 573" width="1154px" zoomAndPan="magnify"><defs/><g><!--class AUTHORED_RESOURCE--><g class="entity" data-entity="AUTHORED_RESOURCE" data-source-line="2" data-uid="ent0002" id="entity_AUTHORED_RESOURCE"><rect fill="#F1F1F1" height="165.5995" rx="2.5" ry="2.5" style="stroke:#181818;stroke-width:0.5;" width="385.7706" x="7" y="91"/><ellipse cx="120.0636" cy="107" fill="#A9DCDF" rx="11" ry="11" style="stroke:#181818;stroke-width:1;"/><path d="M114.5792,112.5 L116.6105,112.5 L120.6573,101.1563 L119.7511,101.1563 L123.5792,112.5 L125.7198,112.5 L121.3917,100.1719 L119.173,100.1719 L114.5792,112.5 Z M116.9073,109 L123.3448,109 L123.3448,107.25 L116.9073,107.25 L116.9073,109 Z " fill="#000000"/><text fill="#000000" font-family="sans-serif" font-size="14" font-style="italic" lengthAdjust="spacing" textLength="151.1434" x="140.5636" y="112.362">AUTHORED_RESOURCE</text><line style="stroke:#181818;stroke-width:0.5;" x1="8" x2="391.7706" y1="123" y2="123"/><ellipse cx="18" cy="136.9" fill="none" rx="3" ry="3" style="stroke:#038048;stroke-width:1;"/><text fill="#000000" font-family="sans-serif" font-size="14" lengthAdjust="spacing" textLength="96.0256" x="27" y="140.7619">uid : UUID [0..1]</text><ellipse cx="18" cy="153.6999" fill="none" rx="3" ry="3" style="stroke:#038048;stroke-width:1;"/><text fill="#000000" font-family="sans-serif" font-size="14" lengthAdjust="spacing" textLength="255.653" x="27" y="157.5619">original_language : Terminology_code [1]</text><ellipse cx="18" cy="170.4998" fill="none" rx="3" ry="3" style="stroke:#038048;stroke-width:1;"/><text fill="#000000" font-family="sans-serif" font-size="14" lengthAdjust="spacing" textLength="279.7049" x="27" y="174.3618">description : RESOURCE_DESCRIPTION [0..1]</text><ellipse cx="18" cy="187.2997" fill="none" rx="3" ry="3" style="stroke:#038048;stroke-width:1;"/><text fill="#000000" font-family="sans-serif" font-size="14" lengthAdjust="spacing" textLength="176.1753" x="27" y="191.1617">is_controlled : Boolean [0..1]</text><ellipse cx="18" cy="204.0997" fill="none" rx="3" ry="3" style="stroke:#038048;stroke-width:1;"/><text fill="#000000" font-family="sans-serif" font-size="14" lengthAdjust="spacing" textLength="293.5368" x="27" y="207.9616">annotations : RESOURCE_ANNOTATIONS [0..1]</text><ellipse cx="18" cy="220.8996" fill="none" rx="3" ry="3" style="stroke:#038048;stroke-width:1;"/><text fill="#000000" font-family="sans-serif" font-size="14" lengthAdjust="spacing" textLength="359.7706" x="27" y="224.7616">translations : Hash&lt;String,TRANSLATION_DETAILS&gt; [0..1]</text><line style="stroke:#181818;stroke-width:0.5;" x1="8" x2="391.7706" y1="231.7996" y2="231.7996"/><ellipse cx="18" cy="245.6995" fill="#84BE84" rx="3" ry="3" style="stroke:#038048;stroke-width:1;"/><text fill="#000000" font-family="sans-serif" font-size="14" lengthAdjust="spacing" textLength="252.111" x="27" y="249.5615">languages_available() : List&lt;String&gt; [1..*]</text></g><!--class RESOURCE_DESCRIPTION--><g class="entity" data-entity="RESOURCE_DESCRIPTION" data-source-line="12" data-uid="ent0003" id="entity_RESOURCE_DESCRIPTION"><rect fill="#F1F1F1" height="333.5988" rx="2.5" ry="2.5" style="stroke:#181818;stroke-width:0.5;" width="405.4544" x="428.16" y="7"/><ellipse cx="543.6875" cy="23" fill="#ADD1B2" rx="11" ry="11" style="stroke:#181818;stroke-width:1;"/><path d="M543.6875,29.4219 C544.8594,29.4219 546.0938,29.1563 547.4688,28.5469 L546.9844,27.0313 C545.8907,27.4531 544.875,27.6406 544.0157,27.6406 C541.2969,27.6406 539.5782,25.7969 539.5782,22.8906 C539.5782,20.1406 541.1407,18.5469 543.875,18.5469 C544.7969,18.5469 545.8125,18.7344 546.9532,19.1563 L547.5313,17.6406 C546.4375,17.0625 545.1407,16.7656 543.9532,16.7656 C540.1875,16.7656 537.6094,19.4063 537.6094,23.2188 C537.6094,26.8906 540.0938,29.4219 543.6875,29.4219 Z " fill="#000000"/><text fill="#000000" font-family="sans-serif" font-size="14" lengthAdjust="spacing" textLength="165.8993" x="564.1875" y="28.362">RESOURCE_DESCRIPTION</text><line style="stroke:#181818;stroke-width:0.5;" x1="429.16" x2="832.6144" y1="39" y2="39"/><ellipse cx="439.16" cy="52.9" fill="none" rx="3" ry="3" style="stroke:#038048;stroke-width:1;"/><text fill="#000000" font-family="sans-serif" font-size="14" lengthAdjust="spacing" textLength="106.5816" x="448.16" y="56.7619">title : String [0..1]</text><ellipse cx="439.16" cy="69.6999" fill="none" rx="3" ry="3" style="stroke:#038048;stroke-width:1;"/><text fill="#000000" font-family="sans-serif" font-size="14" lengthAdjust="spacing" textLength="250.207" x="448.16" y="73.5619">original_author : Hash&lt;String,String&gt; [1]</text><ellipse cx="439.16" cy="86.4998" fill="none" rx="3" ry="3" style="stroke:#038048;stroke-width:1;"/><text fill="#000000" font-family="sans-serif" font-size="14" lengthAdjust="spacing" textLength="206.3172" x="448.16" y="90.3618">original_namespace : String [0..1]</text><ellipse cx="439.16" cy="103.2997" fill="none" rx="3" ry="3" style="stroke:#038048;stroke-width:1;"/><text fill="#000000" font-family="sans-serif" font-size="14" lengthAdjust="spacing" textLength="194.0532" x="448.16" y="107.1617">original_publisher : String [0..1]</text><ellipse cx="439.16" cy="120.0997" fill="none" rx="3" ry="3" style="stroke:#038048;stroke-width:1;"/><text fill="#000000" font-family="sans-serif" font-size="14" lengthAdjust="spacing" textLength="222.2912" x="448.16" y="123.9616">other_contributors : List&lt;String&gt; [*]</text><ellipse cx="439.16" cy="136.8996" fill="none" rx="3" ry="3" style="stroke:#038048;stroke-width:1;"/><text fill="#000000" font-family="sans-serif" font-size="14" lengthAdjust="spacing" textLength="281.6369" x="448.16" y="140.7616">parent_resource : AUTHORED_RESOURCE [1]</text><ellipse cx="439.16" cy="153.6995" fill="none" rx="3" ry="3" style="stroke:#038048;stroke-width:1;"/><text fill="#000000" font-family="sans-serif" font-size="14" lengthAdjust="spacing" textLength="154.7134" x="448.16" y="157.5615">lifecycle_state : String [1]</text><ellipse cx="439.16" cy="170.4995" fill="none" rx="3" ry="3" style="stroke:#038048;stroke-width:1;"/><text fill="#000000" font-family="sans-serif" font-size="14" lengthAdjust="spacing" textLength="219.6031" x="448.16" y="174.3614">custodian_namespace : String [0..1]</text><ellipse cx="439.16" cy="187.2994" fill="none" rx="3" ry="3" style="stroke:#038048;stroke-width:1;"/><text fill="#000000" font-family="sans-serif" font-size="14" lengthAdjust="spacing" textLength="226.8971" x="448.16" y="191.1614">custodian_organisation : String [0..1]</text><ellipse cx="439.16" cy="204.0993" fill="none" rx="3" ry="3" style="stroke:#038048;stroke-width:1;"/><text fill="#000000" font-family="sans-serif" font-size="14" lengthAdjust="spacing" textLength="140.6295" x="448.16" y="207.9613">copyright : String [0..1]</text><ellipse cx="439.16" cy="220.8992" fill="none" rx="3" ry="3" style="stroke:#038048;stroke-width:1;"/><text fill="#000000" font-family="sans-serif" font-size="14" lengthAdjust="spacing" textLength="124.8795" x="448.16" y="224.7612">licence : String [0..1]</text><ellipse cx="439.16" cy="237.6992" fill="none" rx="3" ry="3" style="stroke:#038048;stroke-width:1;"/><text fill="#000000" font-family="sans-serif" font-size="14" lengthAdjust="spacing" textLength="310.5748" x="448.16" y="241.5611">ip_acknowledgements : Hash&lt;String,String&gt; [0..1]</text><ellipse cx="439.16" cy="254.4991" fill="none" rx="3" ry="3" style="stroke:#038048;stroke-width:1;"/><text fill="#000000" font-family="sans-serif" font-size="14" lengthAdjust="spacing" textLength="236.5571" x="448.16" y="258.3611">references : Hash&lt;String,String&gt; [0..1]</text><ellipse cx="439.16" cy="271.299" fill="none" rx="3" ry="3" style="stroke:#038048;stroke-width:1;"/><text fill="#000000" font-family="sans-serif" font-size="14" lengthAdjust="spacing" textLength="217.6151" x="448.16" y="275.161">resource_package_uri : String [0..1]</text><ellipse cx="439.16" cy="288.0989" fill="none" rx="3" ry="3" style="stroke:#038048;stroke-width:1;"/><text fill="#000000" font-family="sans-serif" font-size="14" lengthAdjust="spacing" textLength="286.7469" x="448.16" y="291.9609">conversion_details : Hash&lt;String,String&gt; [0..1]</text><ellipse cx="439.16" cy="304.8989" fill="none" rx="3" ry="3" style="stroke:#038048;stroke-width:1;"/><text fill="#000000" font-family="sans-serif" font-size="14" lengthAdjust="spacing" textLength="379.4544" x="448.16" y="308.7608">details : Hash&lt;String,RESOURCE_DESCRIPTION_ITEM&gt; [0..1]</text><ellipse cx="439.16" cy="321.6988" fill="none" rx="3" ry="3" style="stroke:#038048;stroke-width:1;"/><text fill="#000000" font-family="sans-serif" font-size="14" lengthAdjust="spacing" textLength="252.727" x="448.16" y="325.5608">other_details : Hash&lt;String,String&gt; [0..1]</text><line style="stroke:#181818;stroke-width:0.5;" x1="429.16" x2="832.6144" y1="332.5988" y2="332.5988"/></g><!--class TRANSLATION_DETAILS--><g class="entity" data-entity="TRANSLATION_DETAILS" data-source-line="32" data-uid="ent0004" id="entity_TRANSLATION_DETAILS"><rect fill="#F1F1F1" height="148.7996" rx="2.5" ry="2.5" style="stroke:#181818;stroke-width:0.5;" width="278.727" x="868.52" y="99.4"/><ellipse cx="927.3128" cy="115.4" fill="#ADD1B2" rx="11" ry="11" style="stroke:#181818;stroke-width:1;"/><path d="M927.3128,121.8219 C928.4847,121.8219 929.7191,121.5563 931.0941,120.9469 L930.6097,119.4313 C929.5159,119.8531 928.5003,120.0406 927.6409,120.0406 C924.9222,120.0406 923.2034,118.1969 923.2034,115.2906 C923.2034,112.5406 924.7659,110.9469 927.5003,110.9469 C928.4222,110.9469 929.4378,111.1344 930.5784,111.5563 L931.1566,110.0406 C930.0628,109.4625 928.7659,109.1656 927.5784,109.1656 C923.8128,109.1656 921.2347,111.8063 921.2347,115.6188 C921.2347,119.2906 923.7191,121.8219 927.3128,121.8219 Z " fill="#000000"/><text fill="#000000" font-family="sans-serif" font-size="14" lengthAdjust="spacing" textLength="152.6414" x="947.8128" y="120.762">TRANSLATION_DETAILS</text><line style="stroke:#181818;stroke-width:0.5;" x1="869.52" x2="1146.247" y1="131.4" y2="131.4"/><ellipse cx="879.52" cy="145.3" fill="none" rx="3" ry="3" style="stroke:#038048;stroke-width:1;"/><text fill="#000000" font-family="sans-serif" font-size="14" lengthAdjust="spacing" textLength="201.5712" x="888.52" y="149.1619">language : Terminology_code [1]</text><ellipse cx="879.52" cy="162.0999" fill="none" rx="3" ry="3" style="stroke:#038048;stroke-width:1;"/><text fill="#000000" font-family="sans-serif" font-size="14" lengthAdjust="spacing" textLength="196.1253" x="888.52" y="165.9619">author : Hash&lt;String,String&gt; [1]</text><ellipse cx="879.52" cy="178.8998" fill="none" rx="3" ry="3" style="stroke:#038048;stroke-width:1;"/><text fill="#000000" font-family="sans-serif" font-size="14" lengthAdjust="spacing" textLength="162.6794" x="888.52" y="182.7618">accreditation : String [0..1]</text><ellipse cx="879.52" cy="195.6997" fill="none" rx="3" ry="3" style="stroke:#038048;stroke-width:1;"/><text fill="#000000" font-family="sans-serif" font-size="14" lengthAdjust="spacing" textLength="252.727" x="888.52" y="199.5617">other_details : Hash&lt;String,String&gt; [0..1]</text><ellipse cx="879.52" cy="212.4997" fill="none" rx="3" ry="3" style="stroke:#038048;stroke-width:1;"/><text fill="#000000" font-family="sans-serif" font-size="14" lengthAdjust="spacing" textLength="226.9811" x="888.52" y="216.3616">version_last_translated : String [0..1]</text><ellipse cx="879.52" cy="229.2996" fill="none" rx="3" ry="3" style="stroke:#038048;stroke-width:1;"/><text fill="#000000" font-family="sans-serif" font-size="14" lengthAdjust="spacing" textLength="222.2912" x="888.52" y="233.1616">other_contributors : List&lt;String&gt; [*]</text><line style="stroke:#181818;stroke-width:0.5;" x1="869.52" x2="1146.247" y1="240.1996" y2="240.1996"/></g><!--class RESOURCE_DESCRIPTION_ITEM--><g class="entity" data-entity="RESOURCE_DESCRIPTION_ITEM" data-source-line="41" data-uid="ent0005" id="entity_RESOURCE_DESCRIPTION_ITEM"><rect fill="#F1F1F1" height="165.5995" rx="2.5" ry="2.5" style="stroke:#181818;stroke-width:0.5;" width="328.4408" x="35.66" y="400.6"/><ellipse cx="93.2488" cy="416.6" fill="#ADD1B2" rx="11" ry="11" style="stroke:#181818;stroke-width:1;"/><path d="M93.2488,423.0219 C94.4207,423.0219 95.6551,422.7563 97.0301,422.1469 L96.5457,420.6313 C95.4519,421.0531 94.4363,421.2406 93.5769,421.2406 C90.8582,421.2406 89.1394,419.3969 89.1394,416.4906 C89.1394,413.7406 90.7019,412.1469 93.4363,412.1469 C94.3582,412.1469 95.3738,412.3344 96.5144,412.7563 L97.0926,411.2406 C95.9988,410.6625 94.7019,410.3656 93.5144,410.3656 C89.7488,410.3656 87.1707,413.0063 87.1707,416.8188 C87.1707,420.4906 89.6551,423.0219 93.2488,423.0219 Z " fill="#000000"/><text fill="#000000" font-family="sans-serif" font-size="14" lengthAdjust="spacing" textLength="204.7632" x="113.7488" y="421.962">RESOURCE_DESCRIPTION_ITEM</text><line style="stroke:#181818;stroke-width:0.5;" x1="36.66" x2="363.1008" y1="432.6" y2="432.6"/><ellipse cx="46.66" cy="446.5" fill="none" rx="3" ry="3" style="stroke:#038048;stroke-width:1;"/><text fill="#000000" font-family="sans-serif" font-size="14" lengthAdjust="spacing" textLength="201.5712" x="55.66" y="450.3619">language : Terminology_code [1]</text><ellipse cx="46.66" cy="463.2999" fill="none" rx="3" ry="3" style="stroke:#038048;stroke-width:1;"/><text fill="#000000" font-family="sans-serif" font-size="14" lengthAdjust="spacing" textLength="116.8856" x="55.66" y="467.1619">purpose : String [1]</text><ellipse cx="46.66" cy="480.0998" fill="none" rx="3" ry="3" style="stroke:#038048;stroke-width:1;"/><text fill="#000000" font-family="sans-serif" font-size="14" lengthAdjust="spacing" textLength="164.6814" x="55.66" y="483.9618">keywords : List&lt;String&gt; [*]</text><ellipse cx="46.66" cy="496.8997" fill="none" rx="3" ry="3" style="stroke:#038048;stroke-width:1;"/><text fill="#000000" font-family="sans-serif" font-size="14" lengthAdjust="spacing" textLength="103.4456" x="55.66" y="500.7617">use : String [0..1]</text><ellipse cx="46.66" cy="513.6997" fill="none" rx="3" ry="3" style="stroke:#038048;stroke-width:1;"/><text fill="#000000" font-family="sans-serif" font-size="14" lengthAdjust="spacing" textLength="125.7895" x="55.66" y="517.5616">misuse : String [0..1]</text><ellipse cx="46.66" cy="530.4996" fill="none" rx="3" ry="3" style="stroke:#038048;stroke-width:1;"/><text fill="#000000" font-family="sans-serif" font-size="14" lengthAdjust="spacing" textLength="302.4408" x="55.66" y="534.3616">original_resource_uri : Hash&lt;String,String&gt; [0..1]</text><ellipse cx="46.66" cy="547.2995" fill="none" rx="3" ry="3" style="stroke:#038048;stroke-width:1;"/><text fill="#000000" font-family="sans-serif" font-size="14" lengthAdjust="spacing" textLength="252.727" x="55.66" y="551.1615">other_details : Hash&lt;String,String&gt; [0..1]</text><line style="stroke:#181818;stroke-width:0.5;" x1="36.66" x2="363.1008" y1="558.1995" y2="558.1995"/></g><!--class RESOURCE_ANNOTATIONS--><g class="entity" data-entity="RESOURCE_ANNOTATIONS" data-source-line="51" data-uid="ent0006" id="entity_RESOURCE_ANNOTATIONS"><rect fill="#F1F1F1" height="64.7999" rx="2.5" ry="2.5" style="stroke:#181818;stroke-width:0.5;" width="453.4464" x="399.16" y="451"/><ellipse cx="534.0566" cy="467" fill="#ADD1B2" rx="11" ry="11" style="stroke:#181818;stroke-width:1;"/><path d="M534.0566,473.4219 C535.2284,473.4219 536.4628,473.1563 537.8378,472.5469 L537.3534,471.0313 C536.2597,471.4531 535.2441,471.6406 534.3847,471.6406 C531.6659,471.6406 529.9472,469.7969 529.9472,466.8906 C529.9472,464.1406 531.5097,462.5469 534.2441,462.5469 C535.1659,462.5469 536.1816,462.7344 537.3222,463.1563 L537.9003,461.6406 C536.8066,461.0625 535.5097,460.7656 534.3222,460.7656 C530.5566,460.7656 527.9784,463.4063 527.9784,467.2188 C527.9784,470.8906 530.4628,473.4219 534.0566,473.4219 Z " fill="#000000"/><text fill="#000000" font-family="sans-serif" font-size="14" lengthAdjust="spacing" textLength="175.1533" x="554.5566" y="472.362">RESOURCE_ANNOTATIONS</text><line style="stroke:#181818;stroke-width:0.5;" x1="400.16" x2="851.6064" y1="483" y2="483"/><ellipse cx="410.16" cy="496.9" fill="none" rx="3" ry="3" style="stroke:#038048;stroke-width:1;"/><text fill="#000000" font-family="sans-serif" font-size="14" lengthAdjust="spacing" textLength="427.4464" x="419.16" y="500.7619">documentation : Hash&lt;String,Hash&lt;String,Hash&lt;String,String&gt;&gt;&gt; [1]</text><line style="stroke:#181818;stroke-width:0.5;" x1="400.16" x2="851.6064" y1="507.7999" y2="507.7999"/></g></g></svg>
