<svg xmlns="http://www.w3.org/2000/svg" xmlns:xlink="http://www.w3.org/1999/xlink" contentStyleType="text/css" data-diagram-type="CLASS" height="570px" preserveAspectRatio="none" style="width:1648px;height:570px;background:#FFFFFF;" version="1.1" viewBox="0 0 1648 570" width="1648px" zoomAndPan="magnify"><defs/><g><!--class ASSERTION--><g class="entity" data-entity="ASSERTION" data-source-line="2" data-uid="ent0002" id="entity_ASSERTION"><rect fill="#F1F1F1" height="98.3998" rx="2.5" ry="2.5" style="stroke:#181818;stroke-width:0.5;" width="217.8693" x="7" y="165.4"/><ellipse cx="74.7318" cy="181.4" fill="#ADD1B2" rx="11" ry="11" style="stroke:#181818;stroke-width:1;"/><path d="M74.7318,187.8219 C75.9037,187.8219 77.138,187.5562 78.513,186.9469 L78.0287,185.4312 C76.9349,185.8531 75.9193,186.0406 75.0599,186.0406 C72.3412,186.0406 70.6224,184.1969 70.6224,181.2906 C70.6224,178.5406 72.1849,176.9469 74.9193,176.9469 C75.8412,176.9469 76.8568,177.1344 77.9974,177.5562 L78.5755,176.0406 C77.4818,175.4625 76.1849,175.1656 74.9974,175.1656 C71.2318,175.1656 68.6537,177.8062 68.6537,181.6187 C68.6537,185.2906 71.138,187.8219 74.7318,187.8219 Z " fill="#000000"/><text fill="#000000" font-family="sans-serif" font-size="14" lengthAdjust="spacing" textLength="73.9057" x="95.2318" y="186.762">ASSERTION</text><line style="stroke:#181818;stroke-width:0.5;" x1="8" x2="223.8693" y1="197.4" y2="197.4"/><ellipse cx="18" cy="211.3" fill="none" rx="3" ry="3" style="stroke:#038048;stroke-width:1;"/><text fill="#000000" font-family="sans-serif" font-size="14" lengthAdjust="spacing" textLength="101.9476" x="27" y="215.1619">tag : String [0..1]</text><ellipse cx="18" cy="228.0999" fill="none" rx="3" ry="3" style="stroke:#038048;stroke-width:1;"/><text fill="#000000" font-family="sans-serif" font-size="14" lengthAdjust="spacing" textLength="191.8693" x="27" y="231.9619">string_expression : String [0..1]</text><ellipse cx="18" cy="244.8998" fill="none" rx="3" ry="3" style="stroke:#038048;stroke-width:1;"/><text fill="#000000" font-family="sans-serif" font-size="14" lengthAdjust="spacing" textLength="177.4773" x="27" y="248.7618">expression : EXPRESSION [1]</text><line style="stroke:#181818;stroke-width:0.5;" x1="8" x2="223.8693" y1="255.7998" y2="255.7998"/></g><!--class ASSIGNMENT--><g class="entity" data-entity="ASSIGNMENT" data-source-line="8" data-uid="ent0003" id="entity_ASSIGNMENT"><rect fill="#F1F1F1" height="81.5999" rx="2.5" ry="2.5" style="stroke:#181818;stroke-width:0.5;" width="255.1931" x="260.34" y="173.8"/><ellipse cx="340.1257" cy="189.8" fill="#ADD1B2" rx="11" ry="11" style="stroke:#181818;stroke-width:1;"/><path d="M340.1257,196.2219 C341.2976,196.2219 342.532,195.9562 343.907,195.3469 L343.4226,193.8312 C342.3288,194.2531 341.3132,194.4406 340.4538,194.4406 C337.7351,194.4406 336.0163,192.5969 336.0163,189.6906 C336.0163,186.9406 337.5788,185.3469 340.3132,185.3469 C341.2351,185.3469 342.2507,185.5344 343.3913,185.9562 L343.9695,184.4406 C342.8757,183.8625 341.5788,183.5656 340.3913,183.5656 C336.6257,183.5656 334.0476,186.2062 334.0476,190.0187 C334.0476,193.6906 336.532,196.2219 340.1257,196.2219 Z " fill="#000000"/><text fill="#000000" font-family="sans-serif" font-size="14" lengthAdjust="spacing" textLength="87.1217" x="360.6257" y="195.162">ASSIGNMENT</text><line style="stroke:#181818;stroke-width:0.5;" x1="261.34" x2="514.5331" y1="205.8" y2="205.8"/><ellipse cx="271.34" cy="219.7" fill="none" rx="3" ry="3" style="stroke:#038048;stroke-width:1;"/><text fill="#000000" font-family="sans-serif" font-size="14" lengthAdjust="spacing" textLength="229.1931" x="280.34" y="223.5619">target : VARIABLE_DECLARATION [1]</text><ellipse cx="271.34" cy="236.4999" fill="none" rx="3" ry="3" style="stroke:#038048;stroke-width:1;"/><text fill="#000000" font-family="sans-serif" font-size="14" lengthAdjust="spacing" textLength="152.3194" x="280.34" y="240.3619">source : EXPR_VALUE [1]</text><line style="stroke:#181818;stroke-width:0.5;" x1="261.34" x2="514.5331" y1="247.3999" y2="247.3999"/></g><!--class EXPR_BINARY_OPERATOR--><g class="entity" data-entity="EXPR_BINARY_OPERATOR" data-source-line="13" data-uid="ent0004" id="entity_EXPR_BINARY_OPERATOR"><rect fill="#F1F1F1" height="81.5999" rx="2.5" ry="2.5" style="stroke:#181818;stroke-width:0.5;" width="224.9252" x="929.47" y="482.2"/><ellipse cx="955.756" cy="498.2" fill="#ADD1B2" rx="11" ry="11" style="stroke:#181818;stroke-width:1;"/><path d="M955.756,504.6219 C956.9278,504.6219 958.1622,504.3562 959.5372,503.7469 L959.0528,502.2312 C957.9591,502.6531 956.9435,502.8406 956.0841,502.8406 C953.3653,502.8406 951.6466,500.9969 951.6466,498.0906 C951.6466,495.3406 953.2091,493.7469 955.9435,493.7469 C956.8653,493.7469 957.881,493.9344 959.0216,494.3562 L959.5997,492.8406 C958.506,492.2625 957.2091,491.9656 956.0216,491.9656 C952.256,491.9656 949.6778,494.6062 949.6778,498.4187 C949.6778,502.0906 952.1622,504.6219 955.756,504.6219 Z " fill="#000000"/><text fill="#000000" font-family="sans-serif" font-size="14" lengthAdjust="spacing" textLength="167.8453" x="972.264" y="503.562">EXPR_BINARY_OPERATOR</text><line style="stroke:#181818;stroke-width:0.5;" x1="930.47" x2="1153.3952" y1="514.2" y2="514.2"/><ellipse cx="940.47" cy="528.1" fill="none" rx="3" ry="3" style="stroke:#038048;stroke-width:1;"/><text fill="#000000" font-family="sans-serif" font-size="14" lengthAdjust="spacing" textLength="190.3292" x="949.47" y="531.9619">left_operand : EXPRESSION [1]</text><ellipse cx="940.47" cy="544.8999" fill="none" rx="3" ry="3" style="stroke:#038048;stroke-width:1;"/><text fill="#000000" font-family="sans-serif" font-size="14" lengthAdjust="spacing" textLength="198.9252" x="949.47" y="548.7619">right_operand : EXPRESSION [1]</text><line style="stroke:#181818;stroke-width:0.5;" x1="930.47" x2="1153.3952" y1="555.7999" y2="555.7999"/></g><!--class EXPR_FUNCTION_CALL--><g class="entity" data-entity="EXPR_FUNCTION_CALL" data-source-line="18" data-uid="ent0005" id="entity_EXPR_FUNCTION_CALL"><rect fill="#F1F1F1" height="64.7999" rx="2.5" ry="2.5" style="stroke:#181818;stroke-width:0.5;" width="243.0271" x="31.42" y="490.6"/><ellipse cx="74.319" cy="506.6" fill="#ADD1B2" rx="11" ry="11" style="stroke:#181818;stroke-width:1;"/><path d="M74.319,513.0219 C75.4909,513.0219 76.7252,512.7562 78.1002,512.1469 L77.6159,510.6312 C76.5221,511.0531 75.5065,511.2406 74.6471,511.2406 C71.9284,511.2406 70.2096,509.3969 70.2096,506.4906 C70.2096,503.7406 71.7721,502.1469 74.5065,502.1469 C75.4284,502.1469 76.444,502.3344 77.5846,502.7562 L78.1627,501.2406 C77.069,500.6625 75.7721,500.3656 74.5846,500.3656 C70.819,500.3656 68.2409,503.0062 68.2409,506.8187 C68.2409,510.4906 70.7252,513.0219 74.319,513.0219 Z " fill="#000000"/><text fill="#000000" font-family="sans-serif" font-size="14" lengthAdjust="spacing" textLength="149.0294" x="94.5187" y="511.962">EXPR_FUNCTION_CALL</text><line style="stroke:#181818;stroke-width:0.5;" x1="32.42" x2="273.4471" y1="522.6" y2="522.6"/><ellipse cx="42.42" cy="536.5" fill="none" rx="3" ry="3" style="stroke:#038048;stroke-width:1;"/><text fill="#000000" font-family="sans-serif" font-size="14" lengthAdjust="spacing" textLength="217.0271" x="51.42" y="540.3619">arguments : List&lt;EXPRESSION&gt; [*]</text><line style="stroke:#181818;stroke-width:0.5;" x1="32.42" x2="273.4471" y1="547.3999" y2="547.3999"/></g><!--class EXPRESSION--><g class="entity" data-entity="EXPRESSION" data-source-line="22" data-uid="ent0006" id="entity_EXPRESSION"><rect fill="#F1F1F1" height="64.7999" rx="2.5" ry="2.5" style="stroke:#181818;stroke-width:0.5;" width="196.0853" x="779.89" y="182.2"/><ellipse cx="832.6838" cy="198.2" fill="#A9DCDF" rx="11" ry="11" style="stroke:#181818;stroke-width:1;"/><path d="M827.1994,203.7 L829.2307,203.7 L833.2776,192.3562 L832.3713,192.3562 L836.1994,203.7 L838.3401,203.7 L834.0119,191.3719 L831.7932,191.3719 L827.1994,203.7 Z M829.5276,200.2 L835.9651,200.2 L835.9651,198.45 L829.5276,198.45 L829.5276,200.2 Z " fill="#000000"/><text fill="#000000" font-family="sans-serif" font-size="14" font-style="italic" lengthAdjust="spacing" textLength="81.9977" x="853.1838" y="203.562">EXPRESSION</text><line style="stroke:#181818;stroke-width:0.5;" x1="780.89" x2="974.9753" y1="214.2" y2="214.2"/><line style="stroke:#181818;stroke-width:0.5;" x1="780.89" x2="974.9753" y1="222.2" y2="222.2"/><ellipse cx="790.89" cy="236.1" fill="#84BE84" rx="3" ry="3" style="stroke:#038048;stroke-width:1;"/><text fill="#000000" font-family="sans-serif" font-size="14" font-style="italic" lengthAdjust="spacing" textLength="170.0853" x="799.89" y="239.9619">type() : EXPR_TYPE_DEF [1]</text></g><!--class EXPR_LEAF--><g class="entity" data-entity="EXPR_LEAF" data-source-line="26" data-uid="ent0007" id="entity_EXPR_LEAF"><rect fill="#F1F1F1" height="64.7999" rx="2.5" ry="2.5" style="stroke:#181818;stroke-width:0.5;" width="122.0256" x="529.92" y="340.6"/><ellipse cx="552.867" cy="356.6" fill="#A9DCDF" rx="11" ry="11" style="stroke:#181818;stroke-width:1;"/><path d="M547.3826,362.1 L549.4138,362.1 L553.4607,350.7562 L552.5545,350.7562 L556.3826,362.1 L558.5232,362.1 L554.1951,349.7719 L551.9763,349.7719 L547.3826,362.1 Z M549.7107,358.6 L556.1482,358.6 L556.1482,356.85 L549.7107,356.85 L549.7107,358.6 Z " fill="#000000"/><text fill="#000000" font-family="sans-serif" font-size="14" font-style="italic" lengthAdjust="spacing" textLength="72.3657" x="568.633" y="361.962">EXPR_LEAF</text><line style="stroke:#181818;stroke-width:0.5;" x1="530.92" x2="650.9456" y1="372.6" y2="372.6"/><ellipse cx="540.92" cy="386.5" fill="none" rx="3" ry="3" style="stroke:#038048;stroke-width:1;"/><text fill="#000000" font-family="sans-serif" font-size="14" lengthAdjust="spacing" textLength="96.0256" x="549.92" y="390.3619">item : Any [0..1]</text><line style="stroke:#181818;stroke-width:0.5;" x1="530.92" x2="650.9456" y1="397.3999" y2="397.3999"/></g><!--class EXPR_LITERAL--><g class="entity" data-entity="EXPR_LITERAL" data-source-line="30" data-uid="ent0008" id="entity_EXPR_LITERAL"><rect fill="#F1F1F1" height="64.7999" rx="2.5" ry="2.5" style="stroke:#181818;stroke-width:0.5;" width="123.9096" x="308.98" y="490.6"/><ellipse cx="323.98" cy="506.6" fill="#ADD1B2" rx="11" ry="11" style="stroke:#181818;stroke-width:1;"/><path d="M323.98,513.0219 C325.1519,513.0219 326.3863,512.7562 327.7613,512.1469 L327.2769,510.6312 C326.1831,511.0531 325.1675,511.2406 324.3081,511.2406 C321.5894,511.2406 319.8706,509.3969 319.8706,506.4906 C319.8706,503.7406 321.4331,502.1469 324.1675,502.1469 C325.0894,502.1469 326.105,502.3344 327.2456,502.7562 L327.8238,501.2406 C326.73,500.6625 325.4331,500.3656 324.2456,500.3656 C320.48,500.3656 317.9019,503.0062 317.9019,506.8187 C317.9019,510.4906 320.3863,513.0219 323.98,513.0219 Z " fill="#000000"/><text fill="#000000" font-family="sans-serif" font-size="14" lengthAdjust="spacing" textLength="91.9096" x="337.98" y="511.962">EXPR_LITERAL</text><line style="stroke:#181818;stroke-width:0.5;" x1="309.98" x2="431.8896" y1="522.6" y2="522.6"/><ellipse cx="319.98" cy="536.5" fill="none" rx="3" ry="3" style="stroke:#038048;stroke-width:1;"/><text fill="#000000" font-family="sans-serif" font-size="14" lengthAdjust="spacing" textLength="80.2617" x="328.98" y="540.3619">item : Any [1]</text><line style="stroke:#181818;stroke-width:0.5;" x1="309.98" x2="431.8896" y1="547.3999" y2="547.3999"/></g><!--class EXPR_OPERATOR--><g class="entity" data-entity="EXPR_OPERATOR" data-source-line="34" data-uid="ent0009" id="entity_EXPR_OPERATOR"><rect fill="#F1F1F1" height="98.3998" rx="2.5" ry="2.5" style="stroke:#181818;stroke-width:0.5;" width="267.569" x="1031.15" y="323.8"/><ellipse cx="1104.5728" cy="339.8" fill="#A9DCDF" rx="11" ry="11" style="stroke:#181818;stroke-width:1;"/><path d="M1099.0884,345.3 L1101.1196,345.3 L1105.1665,333.9562 L1104.2603,333.9562 L1108.0884,345.3 L1110.229,345.3 L1105.9009,332.9719 L1103.6821,332.9719 L1099.0884,345.3 Z M1101.4165,341.8 L1107.854,341.8 L1107.854,340.05 L1101.4165,340.05 L1101.4165,341.8 Z " fill="#000000"/><text fill="#000000" font-family="sans-serif" font-size="14" font-style="italic" lengthAdjust="spacing" textLength="112.2235" x="1125.0728" y="345.162">EXPR_OPERATOR</text><line style="stroke:#181818;stroke-width:0.5;" x1="1032.15" x2="1297.719" y1="355.8" y2="355.8"/><ellipse cx="1042.15" cy="369.7" fill="none" rx="3" ry="3" style="stroke:#038048;stroke-width:1;"/><text fill="#000000" font-family="sans-serif" font-size="14" lengthAdjust="spacing" textLength="241.569" x="1051.15" y="373.5619">precedence_overridden : Boolean [0..1]</text><ellipse cx="1042.15" cy="386.4999" fill="none" rx="3" ry="3" style="stroke:#038048;stroke-width:1;"/><text fill="#000000" font-family="sans-serif" font-size="14" lengthAdjust="spacing" textLength="214.4931" x="1051.15" y="390.3619">operator_def : OPERATOR_DEF [1]</text><ellipse cx="1042.15" cy="403.2998" fill="none" rx="3" ry="3" style="stroke:#038048;stroke-width:1;"/><text fill="#000000" font-family="sans-serif" font-size="14" lengthAdjust="spacing" textLength="127.1755" x="1051.15" y="407.1618">symbol : String [0..1]</text><line style="stroke:#181818;stroke-width:0.5;" x1="1032.15" x2="1297.719" y1="414.1998" y2="414.1998"/></g><!--class EXPR_UNARY_OPERATOR--><g class="entity" data-entity="EXPR_UNARY_OPERATOR" data-source-line="40" data-uid="ent0010" id="entity_EXPR_UNARY_OPERATOR"><rect fill="#F1F1F1" height="64.7999" rx="2.5" ry="2.5" style="stroke:#181818;stroke-width:0.5;" width="196.6813" x="1189.59" y="490.6"/><ellipse cx="1204.59" cy="506.6" fill="#ADD1B2" rx="11" ry="11" style="stroke:#181818;stroke-width:1;"/><path d="M1204.59,513.0219 C1205.7619,513.0219 1206.9963,512.7562 1208.3713,512.1469 L1207.8869,510.6312 C1206.7931,511.0531 1205.7775,511.2406 1204.9181,511.2406 C1202.1994,511.2406 1200.4806,509.3969 1200.4806,506.4906 C1200.4806,503.7406 1202.0431,502.1469 1204.7775,502.1469 C1205.6994,502.1469 1206.715,502.3344 1207.8556,502.7562 L1208.4338,501.2406 C1207.34,500.6625 1206.0431,500.3656 1204.8556,500.3656 C1201.09,500.3656 1198.5119,503.0062 1198.5119,506.8187 C1198.5119,510.4906 1200.9963,513.0219 1204.59,513.0219 Z " fill="#000000"/><text fill="#000000" font-family="sans-serif" font-size="14" lengthAdjust="spacing" textLength="164.6813" x="1218.59" y="511.962">EXPR_UNARY_OPERATOR</text><line style="stroke:#181818;stroke-width:0.5;" x1="1190.59" x2="1385.2713" y1="522.6" y2="522.6"/><ellipse cx="1200.59" cy="536.5" fill="none" rx="3" ry="3" style="stroke:#038048;stroke-width:1;"/><text fill="#000000" font-family="sans-serif" font-size="14" lengthAdjust="spacing" textLength="162.2314" x="1209.59" y="540.3619">operand : EXPRESSION [1]</text><line style="stroke:#181818;stroke-width:0.5;" x1="1190.59" x2="1385.2713" y1="547.3999" y2="547.3999"/></g><!--class EXPR_VARIABLE_REF--><g class="entity" data-entity="EXPR_VARIABLE_REF" data-source-line="44" data-uid="ent0011" id="entity_EXPR_VARIABLE_REF"><rect fill="#F1F1F1" height="64.7999" rx="2.5" ry="2.5" style="stroke:#181818;stroke-width:0.5;" width="245.5611" x="468.15" y="490.6"/><ellipse cx="519.3478" cy="506.6" fill="#ADD1B2" rx="11" ry="11" style="stroke:#181818;stroke-width:1;"/><path d="M519.3478,513.0219 C520.5197,513.0219 521.7541,512.7562 523.1291,512.1469 L522.6447,510.6312 C521.551,511.0531 520.5353,511.2406 519.676,511.2406 C516.9572,511.2406 515.2385,509.3969 515.2385,506.4906 C515.2385,503.7406 516.801,502.1469 519.5353,502.1469 C520.4572,502.1469 521.4728,502.3344 522.6135,502.7562 L523.1916,501.2406 C522.0978,500.6625 520.801,500.3656 519.6135,500.3656 C515.8478,500.3656 513.2697,503.0062 513.2697,506.8187 C513.2697,510.4906 515.7541,513.0219 519.3478,513.0219 Z " fill="#000000"/><text fill="#000000" font-family="sans-serif" font-size="14" lengthAdjust="spacing" textLength="134.6654" x="539.8478" y="511.962">EXPR_VARIABLE_REF</text><line style="stroke:#181818;stroke-width:0.5;" x1="469.15" x2="712.7111" y1="522.6" y2="522.6"/><ellipse cx="479.15" cy="536.5" fill="none" rx="3" ry="3" style="stroke:#038048;stroke-width:1;"/><text fill="#000000" font-family="sans-serif" font-size="14" lengthAdjust="spacing" textLength="219.5611" x="488.15" y="540.3619">item : VARIABLE_DECLARATION [1]</text><line style="stroke:#181818;stroke-width:0.5;" x1="469.15" x2="712.7111" y1="547.3999" y2="547.3999"/></g><!--class EXTERNAL_QUERY--><g class="entity" data-entity="EXTERNAL_QUERY" data-source-line="48" data-uid="ent0012" id="entity_EXTERNAL_QUERY"><rect fill="#F1F1F1" height="98.3998" rx="2.5" ry="2.5" style="stroke:#181818;stroke-width:0.5;" width="200.0473" x="1010.91" y="165.4"/><ellipse cx="1047.6539" cy="181.4" fill="#ADD1B2" rx="11" ry="11" style="stroke:#181818;stroke-width:1;"/><path d="M1047.6539,187.8219 C1048.8258,187.8219 1050.0602,187.5562 1051.4352,186.9469 L1050.9508,185.4312 C1049.857,185.8531 1048.8414,186.0406 1047.982,186.0406 C1045.2633,186.0406 1043.5445,184.1969 1043.5445,181.2906 C1043.5445,178.5406 1045.107,176.9469 1047.8414,176.9469 C1048.7633,176.9469 1049.7789,177.1344 1050.9195,177.5562 L1051.4977,176.0406 C1050.4039,175.4625 1049.107,175.1656 1047.9195,175.1656 C1044.1539,175.1656 1041.5758,177.8062 1041.5758,181.6187 C1041.5758,185.2906 1044.0602,187.8219 1047.6539,187.8219 Z " fill="#000000"/><text fill="#000000" font-family="sans-serif" font-size="14" lengthAdjust="spacing" textLength="119.7275" x="1066.4859" y="186.762">EXTERNAL_QUERY</text><line style="stroke:#181818;stroke-width:0.5;" x1="1011.91" x2="1209.9573" y1="197.4" y2="197.4"/><ellipse cx="1021.91" cy="211.3" fill="none" rx="3" ry="3" style="stroke:#038048;stroke-width:1;"/><text fill="#000000" font-family="sans-serif" font-size="14" lengthAdjust="spacing" textLength="112.4616" x="1030.91" y="215.1619">context : String [1]</text><ellipse cx="1021.91" cy="228.0999" fill="none" rx="3" ry="3" style="stroke:#038048;stroke-width:1;"/><text fill="#000000" font-family="sans-serif" font-size="14" lengthAdjust="spacing" textLength="119.5875" x="1030.91" y="231.9619">query_id : String [1]</text><ellipse cx="1021.91" cy="244.8998" fill="none" rx="3" ry="3" style="stroke:#038048;stroke-width:1;"/><text fill="#000000" font-family="sans-serif" font-size="14" lengthAdjust="spacing" textLength="174.0473" x="1030.91" y="248.7618">query_args : List&lt;String&gt; [*]</text><line style="stroke:#181818;stroke-width:0.5;" x1="1011.91" x2="1209.9573" y1="255.7998" y2="255.7998"/></g><!--class EXPR_VALUE--><g class="entity" data-entity="EXPR_VALUE" data-source-line="54" data-uid="ent0013" id="entity_EXPR_VALUE"><rect fill="#F1F1F1" height="64.7999" rx="2.5" ry="2.5" style="stroke:#181818;stroke-width:0.5;" width="119.3796" x="934.24" y="23.8"/><ellipse cx="951.517" cy="39.8" fill="#A9DCDF" rx="11" ry="11" style="stroke:#181818;stroke-width:1;"/><path d="M946.0326,45.3 L948.0639,45.3 L952.1107,33.9562 L951.2045,33.9562 L955.0326,45.3 L957.1732,45.3 L952.8451,32.9719 L950.6264,32.9719 L946.0326,45.3 Z M948.3607,41.8 L954.7982,41.8 L954.7982,40.05 L948.3607,40.05 L948.3607,41.8 Z " fill="#000000"/><text fill="#000000" font-family="sans-serif" font-size="14" font-style="italic" lengthAdjust="spacing" textLength="82.3197" x="966.023" y="45.162">EXPR_VALUE</text><line style="stroke:#181818;stroke-width:0.5;" x1="935.24" x2="1052.6196" y1="55.8" y2="55.8"/><line style="stroke:#181818;stroke-width:0.5;" x1="935.24" x2="1052.6196" y1="63.8" y2="63.8"/><ellipse cx="945.24" cy="77.7" fill="#84BE84" rx="3" ry="3" style="stroke:#038048;stroke-width:1;"/><text fill="#000000" font-family="sans-serif" font-size="14" font-style="italic" lengthAdjust="spacing" textLength="93.3796" x="954.24" y="81.5619">value() : Any [1]</text></g><!--class STATEMENT_SET--><g class="entity" data-entity="STATEMENT_SET" data-source-line="58" data-uid="ent0014" id="entity_STATEMENT_SET"><rect fill="#F1F1F1" height="98.3998" rx="2.5" ry="2.5" style="stroke:#181818;stroke-width:0.5;" width="236.6151" x="1088.63" y="7"/><ellipse cx="1147.6888" cy="23" fill="#ADD1B2" rx="11" ry="11" style="stroke:#181818;stroke-width:1;"/><path d="M1147.6888,29.4219 C1148.8607,29.4219 1150.095,29.1563 1151.47,28.5469 L1150.9857,27.0313 C1149.8919,27.4531 1148.8763,27.6406 1148.0169,27.6406 C1145.2982,27.6406 1143.5794,25.7969 1143.5794,22.8906 C1143.5794,20.1406 1145.1419,18.5469 1147.8763,18.5469 C1148.7982,18.5469 1149.8138,18.7344 1150.9544,19.1563 L1151.5325,17.6406 C1150.4388,17.0625 1149.1419,16.7656 1147.9544,16.7656 C1144.1888,16.7656 1141.6107,19.4063 1141.6107,23.2188 C1141.6107,26.8906 1144.095,29.4219 1147.6888,29.4219 Z " fill="#000000"/><text fill="#000000" font-family="sans-serif" font-size="14" lengthAdjust="spacing" textLength="109.9975" x="1168.1888" y="28.362">STATEMENT_SET</text><line style="stroke:#181818;stroke-width:0.5;" x1="1089.63" x2="1324.2451" y1="39" y2="39"/><ellipse cx="1099.63" cy="52.9" fill="none" rx="3" ry="3" style="stroke:#038048;stroke-width:1;"/><text fill="#000000" font-family="sans-serif" font-size="14" lengthAdjust="spacing" textLength="210.6151" x="1108.63" y="56.7619">statement : List&lt;STATEMENT&gt; [*]</text><ellipse cx="1099.63" cy="69.6999" fill="none" rx="3" ry="3" style="stroke:#038048;stroke-width:1;"/><text fill="#000000" font-family="sans-serif" font-size="14" lengthAdjust="spacing" textLength="116.6475" x="1108.63" y="73.5619">name : String [0..1]</text><line style="stroke:#181818;stroke-width:0.5;" x1="1089.63" x2="1324.2451" y1="80.5999" y2="80.5999"/><ellipse cx="1099.63" cy="94.4998" fill="#84BE84" rx="3" ry="3" style="stroke:#038048;stroke-width:1;"/><text fill="#000000" font-family="sans-serif" font-size="14" lengthAdjust="spacing" textLength="191.0573" x="1108.63" y="98.3618">execution_result() : Boolean [1]</text></g><!--class STATEMENT--><g class="entity" data-entity="STATEMENT" data-source-line="64" data-uid="ent0015" id="entity_STATEMENT"><rect fill="#F1F1F1" height="48" rx="2.5" ry="2.5" style="stroke:#181818;stroke-width:0.5;" width="111.1557" x="332.36" y="32.2"/><ellipse cx="347.36" cy="48.2" fill="#A9DCDF" rx="11" ry="11" style="stroke:#181818;stroke-width:1;"/><path d="M341.8756,53.7 L343.9069,53.7 L347.9538,42.3562 L347.0475,42.3562 L350.8756,53.7 L353.0163,53.7 L348.6881,41.3719 L346.4694,41.3719 L341.8756,53.7 Z M344.2038,50.2 L350.6413,50.2 L350.6413,48.45 L344.2038,48.45 L344.2038,50.2 Z " fill="#000000"/><text fill="#000000" font-family="sans-serif" font-size="14" font-style="italic" lengthAdjust="spacing" textLength="79.1557" x="361.36" y="53.562">STATEMENT</text><line style="stroke:#181818;stroke-width:0.5;" x1="333.36" x2="442.5157" y1="64.2" y2="64.2"/><line style="stroke:#181818;stroke-width:0.5;" x1="333.36" x2="442.5157" y1="72.2" y2="72.2"/></g><!--class VARIABLE_DECLARATION--><g class="entity" data-entity="VARIABLE_DECLARATION" data-source-line="67" data-uid="ent0016" id="entity_VARIABLE_DECLARATION"><rect fill="#F1F1F1" height="81.5999" rx="2.5" ry="2.5" style="stroke:#181818;stroke-width:0.5;" width="194.7213" x="550.57" y="173.8"/><ellipse cx="565.57" cy="189.8" fill="#ADD1B2" rx="11" ry="11" style="stroke:#181818;stroke-width:1;"/><path d="M565.57,196.2219 C566.7419,196.2219 567.9763,195.9562 569.3513,195.3469 L568.8669,193.8312 C567.7731,194.2531 566.7575,194.4406 565.8981,194.4406 C563.1794,194.4406 561.4606,192.5969 561.4606,189.6906 C561.4606,186.9406 563.0231,185.3469 565.7575,185.3469 C566.6794,185.3469 567.695,185.5344 568.8356,185.9562 L569.4138,184.4406 C568.32,183.8625 567.0231,183.5656 565.8356,183.5656 C562.07,183.5656 559.4919,186.2062 559.4919,190.0187 C559.4919,193.6906 561.9763,196.2219 565.57,196.2219 Z " fill="#000000"/><text fill="#000000" font-family="sans-serif" font-size="14" lengthAdjust="spacing" textLength="162.7213" x="579.57" y="195.162">VARIABLE_DECLARATION</text><line style="stroke:#181818;stroke-width:0.5;" x1="551.57" x2="744.2913" y1="205.8" y2="205.8"/><ellipse cx="561.57" cy="219.7" fill="none" rx="3" ry="3" style="stroke:#038048;stroke-width:1;"/><text fill="#000000" font-family="sans-serif" font-size="14" lengthAdjust="spacing" textLength="100.8836" x="570.57" y="223.5619">name : String [1]</text><ellipse cx="561.57" cy="236.4999" fill="none" rx="3" ry="3" style="stroke:#038048;stroke-width:1;"/><text fill="#000000" font-family="sans-serif" font-size="14" lengthAdjust="spacing" textLength="161.6573" x="570.57" y="240.3619">type : EXPR_TYPE_DEF [1]</text><line style="stroke:#181818;stroke-width:0.5;" x1="551.57" x2="744.2913" y1="247.3999" y2="247.3999"/></g><!--class OPERATOR_DEF--><g class="entity" data-entity="OPERATOR_DEF" data-source-line="72" data-uid="ent0017" id="entity_OPERATOR_DEF"><rect fill="#F1F1F1" height="81.5999" rx="2.5" ry="2.5" style="stroke:#181818;stroke-width:0.5;" width="182.8694" x="1360.5" y="15.4"/><ellipse cx="1396.2422" cy="31.4" fill="#ADD1B2" rx="11" ry="11" style="stroke:#181818;stroke-width:1;"/><path d="M1396.2422,37.8219 C1397.4141,37.8219 1398.6485,37.5562 1400.0235,36.9469 L1399.5391,35.4312 C1398.4453,35.8531 1397.4297,36.0406 1396.5703,36.0406 C1393.8516,36.0406 1392.1328,34.1969 1392.1328,31.2906 C1392.1328,28.5406 1393.6953,26.9469 1396.4297,26.9469 C1397.3516,26.9469 1398.3672,27.1344 1399.5078,27.5562 L1400.086,26.0406 C1398.9922,25.4625 1397.6953,25.1656 1396.5078,25.1656 C1392.7422,25.1656 1390.1641,27.8062 1390.1641,31.6187 C1390.1641,35.2906 1392.6485,37.8219 1396.2422,37.8219 Z " fill="#000000"/><text fill="#000000" font-family="sans-serif" font-size="14" lengthAdjust="spacing" textLength="104.7756" x="1414.8516" y="36.762">OPERATOR_DEF</text><line style="stroke:#181818;stroke-width:0.5;" x1="1361.5" x2="1542.3694" y1="47.4" y2="47.4"/><ellipse cx="1371.5" cy="61.3" fill="none" rx="3" ry="3" style="stroke:#038048;stroke-width:1;"/><text fill="#000000" font-family="sans-serif" font-size="14" lengthAdjust="spacing" textLength="122.1075" x="1380.5" y="65.1619">identifier : String [1]</text><ellipse cx="1371.5" cy="78.0999" fill="none" rx="3" ry="3" style="stroke:#038048;stroke-width:1;"/><text fill="#000000" font-family="sans-serif" font-size="14" lengthAdjust="spacing" textLength="156.8694" x="1380.5" y="81.9619">symbols : List&lt;String&gt; [*]</text><line style="stroke:#181818;stroke-width:0.5;" x1="1361.5" x2="1542.3694" y1="88.9999" y2="88.9999"/></g><!--class EXPR_VALUE_REF--><g class="entity" data-entity="EXPR_VALUE_REF" data-source-line="77" data-uid="ent0018" id="entity_EXPR_VALUE_REF"><rect fill="#F1F1F1" height="48" rx="2.5" ry="2.5" style="stroke:#181818;stroke-width:0.5;" width="146.0575" x="748.91" y="499"/><ellipse cx="763.91" cy="515" fill="#ADD1B2" rx="11" ry="11" style="stroke:#181818;stroke-width:1;"/><path d="M763.91,521.4219 C765.0819,521.4219 766.3163,521.1563 767.6913,520.5469 L767.2069,519.0313 C766.1131,519.4531 765.0975,519.6406 764.2381,519.6406 C761.5194,519.6406 759.8006,517.7969 759.8006,514.8906 C759.8006,512.1406 761.3631,510.5469 764.0975,510.5469 C765.0194,510.5469 766.035,510.7344 767.1756,511.1563 L767.7538,509.6406 C766.66,509.0625 765.3631,508.7656 764.1756,508.7656 C760.41,508.7656 757.8319,511.4063 757.8319,515.2188 C757.8319,518.8906 760.3163,521.4219 763.91,521.4219 Z " fill="#000000"/><text fill="#000000" font-family="sans-serif" font-size="14" lengthAdjust="spacing" textLength="114.0575" x="777.91" y="520.362">EXPR_VALUE_REF</text><line style="stroke:#181818;stroke-width:0.5;" x1="749.91" x2="893.9675" y1="531" y2="531"/><line style="stroke:#181818;stroke-width:0.5;" x1="749.91" x2="893.9675" y1="539" y2="539"/></g><!--class EXPR_FOR_ALL--><g class="entity" data-entity="EXPR_FOR_ALL" data-source-line="80" data-uid="ent0019" id="entity_EXPR_FOR_ALL"><rect fill="#F1F1F1" height="81.5999" rx="2.5" ry="2.5" style="stroke:#181818;stroke-width:0.5;" width="220.2912" x="1420.79" y="482.2"/><ellipse cx="1477.8888" cy="498.2" fill="#ADD1B2" rx="11" ry="11" style="stroke:#181818;stroke-width:1;"/><path d="M1477.8888,504.6219 C1479.0607,504.6219 1480.2951,504.3562 1481.6701,503.7469 L1481.1857,502.2312 C1480.0919,502.6531 1479.0763,502.8406 1478.2169,502.8406 C1475.4982,502.8406 1473.7794,500.9969 1473.7794,498.0906 C1473.7794,495.3406 1475.3419,493.7469 1478.0763,493.7469 C1478.9982,493.7469 1480.0138,493.9344 1481.1544,494.3562 L1481.7326,492.8406 C1480.6388,492.2625 1479.3419,491.9656 1478.1544,491.9656 C1474.3888,491.9656 1471.8107,494.6062 1471.8107,498.4187 C1471.8107,502.0906 1474.2951,504.6219 1477.8888,504.6219 Z " fill="#000000"/><text fill="#000000" font-family="sans-serif" font-size="14" lengthAdjust="spacing" textLength="97.5936" x="1498.3888" y="503.562">EXPR_FOR_ALL</text><line style="stroke:#181818;stroke-width:0.5;" x1="1421.79" x2="1640.0812" y1="514.2" y2="514.2"/><ellipse cx="1431.79" cy="528.1" fill="none" rx="3" ry="3" style="stroke:#038048;stroke-width:1;"/><text fill="#000000" font-family="sans-serif" font-size="14" lengthAdjust="spacing" textLength="160.6634" x="1440.79" y="531.9619">condition : ASSERTION [1]</text><ellipse cx="1431.79" cy="544.8999" fill="none" rx="3" ry="3" style="stroke:#038048;stroke-width:1;"/><text fill="#000000" font-family="sans-serif" font-size="14" lengthAdjust="spacing" textLength="194.2912" x="1440.79" y="548.7619">operand : EXPR_VALUE_REF [1]</text><line style="stroke:#181818;stroke-width:0.5;" x1="1421.79" x2="1640.0812" y1="555.7999" y2="555.7999"/></g><!--reverse link STATEMENT to ASSERTION--><g class="link" data-entity-1="STATEMENT" data-entity-2="ASSERTION" data-source-line="85" data-uid="lnk20" id="link_STATEMENT_ASSERTION"><path codeLine="85" d="M331.6048,89.591 C293.0048,111.781 249.42,136.85 200.58,164.93" fill="none" id="STATEMENT-backto-ASSERTION" style="stroke:#181818;stroke-width:1;"/><polygon fill="none" points="347.21,80.62,328.6145,84.3892,334.5951,94.7927,347.21,80.62" style="stroke:#181818;stroke-width:1;"/></g><!--reverse link STATEMENT to ASSIGNMENT--><g class="link" data-entity-1="STATEMENT" data-entity-2="ASSIGNMENT" data-source-line="86" data-uid="lnk21" id="link_STATEMENT_ASSIGNMENT"><path codeLine="86" d="M387.93,98.62 C387.93,123.16 387.93,144.17 387.93,173.6" fill="none" id="STATEMENT-backto-ASSIGNMENT" style="stroke:#181818;stroke-width:1;"/><polygon fill="none" points="387.93,80.62,381.93,98.62,393.93,98.62,387.93,80.62" style="stroke:#181818;stroke-width:1;"/></g><!--reverse link EXPR_OPERATOR to EXPR_BINARY_OPERATOR--><g class="link" data-entity-1="EXPR_OPERATOR" data-entity-2="EXPR_BINARY_OPERATOR" data-source-line="87" data-uid="lnk22" id="link_EXPR_OPERATOR_EXPR_BINARY_OPERATOR"><path codeLine="87" d="M1113.1565,436.3045 C1097.1865,455.5245 1090.53,463.52 1075.31,481.84" fill="none" id="EXPR_OPERATOR-backto-EXPR_BINARY_OPERATOR" style="stroke:#181818;stroke-width:1;"/><polygon fill="none" points="1124.66,422.46,1108.5417,432.47,1117.7714,440.139,1124.66,422.46" style="stroke:#181818;stroke-width:1;"/></g><!--reverse link EXPR_LEAF to EXPR_FUNCTION_CALL--><g class="link" data-entity-1="EXPR_LEAF" data-entity-2="EXPR_FUNCTION_CALL" data-source-line="88" data-uid="lnk23" id="link_EXPR_LEAF_EXPR_FUNCTION_CALL"><path codeLine="88" d="M512.5178,400.4939 C439.1778,425.2839 332.72,461.25 247.23,490.14" fill="none" id="EXPR_LEAF-backto-EXPR_FUNCTION_CALL" style="stroke:#181818;stroke-width:1;"/><polygon fill="none" points="529.57,394.73,510.5965,394.8098,514.4391,406.178,529.57,394.73" style="stroke:#181818;stroke-width:1;"/></g><!--reverse link EXPR_VALUE to EXPRESSION--><g class="link" data-entity-1="EXPR_VALUE" data-entity-2="EXPRESSION" data-source-line="89" data-uid="lnk24" id="link_EXPR_VALUE_EXPRESSION"><path codeLine="89" d="M959.738,103.3082 C939.678,130.3582 921.68,154.62 901.57,181.73" fill="none" id="EXPR_VALUE-backto-EXPRESSION" style="stroke:#181818;stroke-width:1;"/><polygon fill="none" points="970.46,88.85,954.9186,99.7342,964.5574,106.8822,970.46,88.85" style="stroke:#181818;stroke-width:1;"/></g><!--reverse link EXPRESSION to EXPR_LEAF--><g class="link" data-entity-1="EXPRESSION" data-entity-2="EXPR_LEAF" data-source-line="90" data-uid="lnk25" id="link_EXPRESSION_EXPR_LEAF"><path codeLine="90" d="M803.7042,256.0526 C754.0442,283.1126 698.91,313.16 649.28,340.21" fill="none" id="EXPRESSION-backto-EXPR_LEAF" style="stroke:#181818;stroke-width:1;"/><polygon fill="none" points="819.51,247.44,800.8333,250.7841,806.5751,261.3212,819.51,247.44" style="stroke:#181818;stroke-width:1;"/></g><!--reverse link EXPR_LEAF to EXPR_LITERAL--><g class="link" data-entity-1="EXPR_LEAF" data-entity-2="EXPR_LITERAL" data-source-line="91" data-uid="lnk26" id="link_EXPR_LEAF_EXPR_LITERAL"><path codeLine="91" d="M528.8047,415.7967 C491.6847,440.7667 455.15,465.35 418.05,490.3" fill="none" id="EXPR_LEAF-backto-EXPR_LITERAL" style="stroke:#181818;stroke-width:1;"/><polygon fill="none" points="543.74,405.75,525.4558,410.8183,532.1536,420.7752,543.74,405.75" style="stroke:#181818;stroke-width:1;"/></g><!--reverse link EXPRESSION to EXPR_OPERATOR--><g class="link" data-entity-1="EXPRESSION" data-entity-2="EXPR_OPERATOR" data-source-line="92" data-uid="lnk27" id="link_EXPRESSION_EXPR_OPERATOR"><path codeLine="92" d="M952.1648,256.0544 C992.2348,277.8944 1030.36,298.66 1075.77,323.41" fill="none" id="EXPRESSION-backto-EXPR_OPERATOR" style="stroke:#181818;stroke-width:1;"/><polygon fill="none" points="936.36,247.44,949.2934,261.3226,955.0363,250.7861,936.36,247.44" style="stroke:#181818;stroke-width:1;"/></g><!--reverse link EXPR_OPERATOR to EXPR_UNARY_OPERATOR--><g class="link" data-entity-1="EXPR_OPERATOR" data-entity-2="EXPR_UNARY_OPERATOR" data-source-line="93" data-uid="lnk28" id="link_EXPR_OPERATOR_EXPR_UNARY_OPERATOR"><path codeLine="93" d="M1216.715,436.3033 C1235.215,458.5633 1245.12,470.49 1261.53,490.23" fill="none" id="EXPR_OPERATOR-backto-EXPR_UNARY_OPERATOR" style="stroke:#181818;stroke-width:1;"/><polygon fill="none" points="1205.21,422.46,1212.1005,440.1382,1221.3294,432.4683,1205.21,422.46" style="stroke:#181818;stroke-width:1;"/></g><!--reverse link EXPR_LEAF to EXPR_VARIABLE_REF--><g class="link" data-entity-1="EXPR_LEAF" data-entity-2="EXPR_VARIABLE_REF" data-source-line="94" data-uid="lnk29" id="link_EXPR_LEAF_EXPR_VARIABLE_REF"><path codeLine="94" d="M590.93,423.75 C590.93,448.72 590.93,465.35 590.93,490.3" fill="none" id="EXPR_LEAF-backto-EXPR_VARIABLE_REF" style="stroke:#181818;stroke-width:1;"/><polygon fill="none" points="590.93,405.75,584.93,423.75,596.93,423.75,590.93,405.75" style="stroke:#181818;stroke-width:1;"/></g><!--reverse link EXPR_VALUE to EXTERNAL_QUERY--><g class="link" data-entity-1="EXPR_VALUE" data-entity-2="EXTERNAL_QUERY" data-source-line="95" data-uid="lnk30" id="link_EXPR_VALUE_EXTERNAL_QUERY"><path codeLine="95" d="M1028.3921,103.2634 C1044.7521,125.1334 1056.04,140.22 1074.61,165.05" fill="none" id="EXPR_VALUE-backto-EXTERNAL_QUERY" style="stroke:#181818;stroke-width:1;"/><polygon fill="none" points="1017.61,88.85,1023.5876,106.8575,1033.1965,99.6694,1017.61,88.85" style="stroke:#181818;stroke-width:1;"/></g><!--reverse link STATEMENT to VARIABLE_DECLARATION--><g class="link" data-entity-1="STATEMENT" data-entity-2="VARIABLE_DECLARATION" data-source-line="96" data-uid="lnk31" id="link_STATEMENT_VARIABLE_DECLARATION"><path codeLine="96" d="M442.2862,89.8954 C483.0162,114.3854 532.28,144.03 581.19,173.45" fill="none" id="STATEMENT-backto-VARIABLE_DECLARATION" style="stroke:#181818;stroke-width:1;"/><polygon fill="none" points="426.86,80.62,439.1944,95.0375,445.378,84.7533,426.86,80.62" style="stroke:#181818;stroke-width:1;"/></g><!--reverse link EXPR_LEAF to EXPR_VALUE_REF--><g class="link" data-entity-1="EXPR_LEAF" data-entity-2="EXPR_VALUE_REF" data-source-line="97" data-uid="lnk32" id="link_EXPR_LEAF_EXPR_VALUE_REF"><path codeLine="97" d="M655.6457,415.4611 C699.1257,443.3211 746.21,473.48 785.32,498.54" fill="none" id="EXPR_LEAF-backto-EXPR_VALUE_REF" style="stroke:#181818;stroke-width:1;"/><polygon fill="none" points="640.49,405.75,652.4087,420.513,658.8827,410.4092,640.49,405.75" style="stroke:#181818;stroke-width:1;"/></g><!--reverse link EXPR_OPERATOR to EXPR_FOR_ALL--><g class="link" data-entity-1="EXPR_OPERATOR" data-entity-2="EXPR_FOR_ALL" data-source-line="98" data-uid="lnk33" id="link_EXPR_OPERATOR_EXPR_FOR_ALL"><path codeLine="98" d="M1301.9681,429.4158 C1349.2681,448.5358 1386.22,463.48 1431.29,481.71" fill="none" id="EXPR_OPERATOR-backto-EXPR_FOR_ALL" style="stroke:#181818;stroke-width:1;"/><polygon fill="none" points="1285.28,422.67,1299.7195,434.9785,1304.2167,423.8531,1285.28,422.67" style="stroke:#181818;stroke-width:1;"/></g></g></svg>
