<svg xmlns="http://www.w3.org/2000/svg" xmlns:xlink="http://www.w3.org/1999/xlink" contentStyleType="text/css" data-diagram-type="CLASS" height="546px" preserveAspectRatio="none" style="width:1915px;height:546px;background:#FFFFFF;" version="1.1" viewBox="0 0 1915 546" width="1915px" zoomAndPan="magnify"><defs/><g><!--class ARCHETYPE_ID--><g class="entity" data-entity="ARCHETYPE_ID" data-source-line="2" data-uid="ent0002" id="entity_ARCHETYPE_ID"><rect fill="#F1F1F1" height="165.5995" rx="2.5" ry="2.5" style="stroke:#181818;stroke-width:0.5;" width="221.5652" x="7" y="199"/><ellipse cx="64.5748" cy="215" fill="#ADD1B2" rx="11" ry="11" style="stroke:#181818;stroke-width:1;"/><path d="M64.5748,221.4219 C65.7467,221.4219 66.9811,221.1562 68.3561,220.5469 L67.8717,219.0312 C66.7779,219.4531 65.7623,219.6406 64.9029,219.6406 C62.1842,219.6406 60.4654,217.7969 60.4654,214.8906 C60.4654,212.1406 62.0279,210.5469 64.7623,210.5469 C65.6842,210.5469 66.6998,210.7344 67.8404,211.1562 L68.4186,209.6406 C67.3248,209.0625 66.0279,208.7656 64.8404,208.7656 C61.0748,208.7656 58.4967,211.4062 58.4967,215.2187 C58.4967,218.8906 60.9811,221.4219 64.5748,221.4219 Z " fill="#000000"/><text fill="#000000" font-family="sans-serif" font-size="14" lengthAdjust="spacing" textLength="97.9156" x="85.0748" y="220.362">ARCHETYPE_ID</text><line style="stroke:#181818;stroke-width:0.5;" x1="8" x2="227.5652" y1="231" y2="231"/><line style="stroke:#181818;stroke-width:0.5;" x1="8" x2="227.5652" y1="239" y2="239"/><ellipse cx="18" cy="252.9" fill="#84BE84" rx="3" ry="3" style="stroke:#038048;stroke-width:1;"/><text fill="#000000" font-family="sans-serif" font-size="14" lengthAdjust="spacing" textLength="195.5652" x="27" y="256.7619">qualified_rm_entity() : String [1]</text><ellipse cx="18" cy="269.6999" fill="#84BE84" rx="3" ry="3" style="stroke:#038048;stroke-width:1;"/><text fill="#000000" font-family="sans-serif" font-size="14" lengthAdjust="spacing" textLength="177.6733" x="27" y="273.5619">domain_concept() : String [1]</text><ellipse cx="18" cy="286.4998" fill="#84BE84" rx="3" ry="3" style="stroke:#038048;stroke-width:1;"/><text fill="#000000" font-family="sans-serif" font-size="14" lengthAdjust="spacing" textLength="160.5514" x="27" y="290.3618">rm_originator() : String [1]</text><ellipse cx="18" cy="303.2997" fill="#84BE84" rx="3" ry="3" style="stroke:#038048;stroke-width:1;"/><text fill="#000000" font-family="sans-serif" font-size="14" lengthAdjust="spacing" textLength="133.9935" x="27" y="307.1617">rm_name() : String [1]</text><ellipse cx="18" cy="320.0997" fill="#84BE84" rx="3" ry="3" style="stroke:#038048;stroke-width:1;"/><text fill="#000000" font-family="sans-serif" font-size="14" lengthAdjust="spacing" textLength="134.6935" x="27" y="323.9616">rm_entity() : String [1]</text><ellipse cx="18" cy="336.8996" fill="#84BE84" rx="3" ry="3" style="stroke:#038048;stroke-width:1;"/><text fill="#000000" font-family="sans-serif" font-size="14" lengthAdjust="spacing" textLength="158.8154" x="27" y="340.7616">specialisation() : String [1]</text><ellipse cx="18" cy="353.6995" fill="#84BE84" rx="3" ry="3" style="stroke:#038048;stroke-width:1;"/><text fill="#000000" font-family="sans-serif" font-size="14" lengthAdjust="spacing" textLength="138.0395" x="27" y="357.5615">version_id() : String [1]</text></g><!--class GENERIC_ID--><g class="entity" data-entity="GENERIC_ID" data-source-line="12" data-uid="ent0003" id="entity_GENERIC_ID"><rect fill="#F1F1F1" height="64.7999" rx="2.5" ry="2.5" style="stroke:#181818;stroke-width:0.5;" width="140.1416" x="263.71" y="249.4"/><ellipse cx="291.8229" cy="265.4" fill="#ADD1B2" rx="11" ry="11" style="stroke:#181818;stroke-width:1;"/><path d="M291.8229,271.8219 C292.9948,271.8219 294.2292,271.5563 295.6042,270.9469 L295.1198,269.4313 C294.0261,269.8531 293.0104,270.0406 292.1511,270.0406 C289.4323,270.0406 287.7136,268.1969 287.7136,265.2906 C287.7136,262.5406 289.2761,260.9469 292.0104,260.9469 C292.9323,260.9469 293.9479,261.1344 295.0886,261.5563 L295.6667,260.0406 C294.5729,259.4625 293.2761,259.1656 292.0886,259.1656 C288.3229,259.1656 285.7448,261.8063 285.7448,265.6188 C285.7448,269.2906 288.2292,271.8219 291.8229,271.8219 Z " fill="#000000"/><text fill="#000000" font-family="sans-serif" font-size="14" lengthAdjust="spacing" textLength="79.0017" x="308.7369" y="270.762">GENERIC_ID</text><line style="stroke:#181818;stroke-width:0.5;" x1="264.71" x2="402.8516" y1="281.4" y2="281.4"/><ellipse cx="274.71" cy="295.3" fill="none" rx="3" ry="3" style="stroke:#038048;stroke-width:1;"/><text fill="#000000" font-family="sans-serif" font-size="14" lengthAdjust="spacing" textLength="114.1416" x="283.71" y="299.1619">scheme : String [1]</text><line style="stroke:#181818;stroke-width:0.5;" x1="264.71" x2="402.8516" y1="306.1999" y2="306.1999"/></g><!--class HIER_OBJECT_ID--><g class="entity" data-entity="HIER_OBJECT_ID" data-source-line="16" data-uid="ent0004" id="entity_HIER_OBJECT_ID"><rect fill="#F1F1F1" height="48" rx="2.5" ry="2.5" style="stroke:#181818;stroke-width:0.5;" width="140.5416" x="546.51" y="458.2"/><ellipse cx="561.51" cy="474.2" fill="#ADD1B2" rx="11" ry="11" style="stroke:#181818;stroke-width:1;"/><path d="M561.51,480.6219 C562.6819,480.6219 563.9163,480.3562 565.2913,479.7469 L564.8069,478.2312 C563.7131,478.6531 562.6975,478.8406 561.8381,478.8406 C559.1194,478.8406 557.4006,476.9969 557.4006,474.0906 C557.4006,471.3406 558.9631,469.7469 561.6975,469.7469 C562.6194,469.7469 563.635,469.9344 564.7756,470.3562 L565.3538,468.8406 C564.26,468.2625 562.9631,467.9656 561.7756,467.9656 C558.01,467.9656 555.4319,470.6062 555.4319,474.4187 C555.4319,478.0906 557.9163,480.6219 561.51,480.6219 Z " fill="#000000"/><text fill="#000000" font-family="sans-serif" font-size="14" lengthAdjust="spacing" textLength="108.5416" x="575.51" y="479.562">HIER_OBJECT_ID</text><line style="stroke:#181818;stroke-width:0.5;" x1="547.51" x2="686.0516" y1="490.2" y2="490.2"/><line style="stroke:#181818;stroke-width:0.5;" x1="547.51" x2="686.0516" y1="498.2" y2="498.2"/></g><!--class LOCATABLE_REF--><g class="entity" data-entity="LOCATABLE_REF" data-source-line="19" data-uid="ent0005" id="entity_LOCATABLE_REF"><rect fill="#F1F1F1" height="98.3998" rx="2.5" ry="2.5" style="stroke:#181818;stroke-width:0.5;" width="160.2035" x="1031.68" y="232.6"/><ellipse cx="1055.761" cy="248.6" fill="#ADD1B2" rx="11" ry="11" style="stroke:#181818;stroke-width:1;"/><path d="M1055.761,255.0219 C1056.9328,255.0219 1058.1672,254.7562 1059.5422,254.1469 L1059.0578,252.6312 C1057.9641,253.0531 1056.9485,253.2406 1056.0891,253.2406 C1053.3703,253.2406 1051.6516,251.3969 1051.6516,248.4906 C1051.6516,245.7406 1053.2141,244.1469 1055.9485,244.1469 C1056.8703,244.1469 1057.886,244.3344 1059.0266,244.7562 L1059.6047,243.2406 C1058.511,242.6625 1057.2141,242.3656 1056.0266,242.3656 C1052.261,242.3656 1049.6828,245.0062 1049.6828,248.8187 C1049.6828,252.4906 1052.1672,255.0219 1055.761,255.0219 Z " fill="#000000"/><text fill="#000000" font-family="sans-serif" font-size="14" lengthAdjust="spacing" textLength="108.0235" x="1071.779" y="253.962">LOCATABLE_REF</text><line style="stroke:#181818;stroke-width:0.5;" x1="1032.68" x2="1190.8835" y1="264.6" y2="264.6"/><ellipse cx="1042.68" cy="278.5" fill="none" rx="3" ry="3" style="stroke:#038048;stroke-width:1;"/><text fill="#000000" font-family="sans-serif" font-size="14" lengthAdjust="spacing" textLength="109.8996" x="1051.68" y="282.3619">path : String [0..1]</text><ellipse cx="1042.68" cy="295.2999" fill="none" rx="3" ry="3" style="stroke:#038048;stroke-width:1;"/><text fill="#000000" font-family="sans-serif" font-size="14" lengthAdjust="spacing" textLength="134.2035" x="1051.68" y="299.1619">id : UID_BASED_ID [1]</text><line style="stroke:#181818;stroke-width:0.5;" x1="1032.68" x2="1190.8835" y1="306.1999" y2="306.1999"/><ellipse cx="1042.68" cy="320.0998" fill="#84BE84" rx="3" ry="3" style="stroke:#038048;stroke-width:1;"/><text fill="#000000" font-family="sans-serif" font-size="14" lengthAdjust="spacing" textLength="111.6076" x="1051.68" y="323.9618">as_uri() : String [1]</text></g><!--class OBJECT_ID--><g class="entity" data-entity="OBJECT_ID" data-source-line="25" data-uid="ent0006" id="entity_OBJECT_ID"><rect fill="#F1F1F1" height="64.7999" rx="2.5" ry="2.5" style="stroke:#181818;stroke-width:0.5;" width="124.9656" x="458.3" y="40.6"/><ellipse cx="483.2504" cy="56.6" fill="#A9DCDF" rx="11" ry="11" style="stroke:#181818;stroke-width:1;"/><path d="M477.766,62.1 L479.7972,62.1 L483.8441,50.7562 L482.9379,50.7562 L486.766,62.1 L488.9066,62.1 L484.5785,49.7719 L482.3597,49.7719 L477.766,62.1 Z M480.0941,58.6 L486.5316,58.6 L486.5316,56.85 L480.0941,56.85 L480.0941,58.6 Z " fill="#000000"/><text fill="#000000" font-family="sans-serif" font-size="14" font-style="italic" lengthAdjust="spacing" textLength="70.8537" x="499.4615" y="61.962">OBJECT_ID</text><line style="stroke:#181818;stroke-width:0.5;" x1="459.3" x2="582.2656" y1="72.6" y2="72.6"/><ellipse cx="469.3" cy="86.5" fill="none" rx="3" ry="3" style="stroke:#038048;stroke-width:1;"/><text fill="#000000" font-family="sans-serif" font-size="14" lengthAdjust="spacing" textLength="98.9656" x="478.3" y="90.3619">value : String [1]</text><line style="stroke:#181818;stroke-width:0.5;" x1="459.3" x2="582.2656" y1="97.3999" y2="97.3999"/></g><!--class OBJECT_REF--><g class="entity" data-entity="OBJECT_REF" data-source-line="29" data-uid="ent0007" id="entity_OBJECT_REF"><rect fill="#F1F1F1" height="98.3998" rx="2.5" ry="2.5" style="stroke:#181818;stroke-width:0.5;" width="162.4715" x="1198.55" y="23.8"/><ellipse cx="1235.4073" cy="39.8" fill="#ADD1B2" rx="11" ry="11" style="stroke:#181818;stroke-width:1;"/><path d="M1235.4073,46.2219 C1236.5792,46.2219 1237.8136,45.9562 1239.1886,45.3469 L1238.7042,43.8312 C1237.6104,44.2531 1236.5948,44.4406 1235.7354,44.4406 C1233.0167,44.4406 1231.2979,42.5969 1231.2979,39.6906 C1231.2979,36.9406 1232.8604,35.3469 1235.5948,35.3469 C1236.5167,35.3469 1237.5323,35.5344 1238.6729,35.9562 L1239.2511,34.4406 C1238.1573,33.8625 1236.8604,33.5656 1235.6729,33.5656 C1231.9073,33.5656 1229.3292,36.2062 1229.3292,40.0187 C1229.3292,43.6906 1231.8136,46.2219 1235.4073,46.2219 Z " fill="#000000"/><text fill="#000000" font-family="sans-serif" font-size="14" lengthAdjust="spacing" textLength="81.8997" x="1254.2645" y="45.162">OBJECT_REF</text><line style="stroke:#181818;stroke-width:0.5;" x1="1199.55" x2="1360.0215" y1="55.8" y2="55.8"/><ellipse cx="1209.55" cy="69.7" fill="none" rx="3" ry="3" style="stroke:#038048;stroke-width:1;"/><text fill="#000000" font-family="sans-serif" font-size="14" lengthAdjust="spacing" textLength="136.4715" x="1218.55" y="73.5619">namespace : String [1]</text><ellipse cx="1209.55" cy="86.4999" fill="none" rx="3" ry="3" style="stroke:#038048;stroke-width:1;"/><text fill="#000000" font-family="sans-serif" font-size="14" lengthAdjust="spacing" textLength="93.1416" x="1218.55" y="90.3619">type : String [1]</text><ellipse cx="1209.55" cy="103.2998" fill="none" rx="3" ry="3" style="stroke:#038048;stroke-width:1;"/><text fill="#000000" font-family="sans-serif" font-size="14" lengthAdjust="spacing" textLength="110.8235" x="1218.55" y="107.1618">id : OBJECT_ID [1]</text><line style="stroke:#181818;stroke-width:0.5;" x1="1199.55" x2="1360.0215" y1="114.1998" y2="114.1998"/></g><!--class OBJECT_VERSION_ID--><g class="entity" data-entity="OBJECT_VERSION_ID" data-source-line="35" data-uid="ent0008" id="entity_OBJECT_VERSION_ID"><rect fill="#F1F1F1" height="115.1997" rx="2.5" ry="2.5" style="stroke:#181818;stroke-width:0.5;" width="277.285" x="722.14" y="424.6"/><ellipse cx="788.6468" cy="440.6" fill="#ADD1B2" rx="11" ry="11" style="stroke:#181818;stroke-width:1;"/><path d="M788.6468,447.0219 C789.8186,447.0219 791.053,446.7562 792.428,446.1469 L791.9436,444.6312 C790.8499,445.0531 789.8343,445.2406 788.9749,445.2406 C786.2561,445.2406 784.5374,443.3969 784.5374,440.4906 C784.5374,437.7406 786.0999,436.1469 788.8343,436.1469 C789.7561,436.1469 790.7718,436.3344 791.9124,436.7562 L792.4905,435.2406 C791.3968,434.6625 790.0999,434.3656 788.9124,434.3656 C785.1468,434.3656 782.5686,437.0062 782.5686,440.8187 C782.5686,444.4906 785.053,447.0219 788.6468,447.0219 Z " fill="#000000"/><text fill="#000000" font-family="sans-serif" font-size="14" lengthAdjust="spacing" textLength="135.7715" x="809.1468" y="445.962">OBJECT_VERSION_ID</text><line style="stroke:#181818;stroke-width:0.5;" x1="723.14" x2="998.425" y1="456.6" y2="456.6"/><line style="stroke:#181818;stroke-width:0.5;" x1="723.14" x2="998.425" y1="464.6" y2="464.6"/><ellipse cx="733.14" cy="478.5" fill="#84BE84" rx="3" ry="3" style="stroke:#038048;stroke-width:1;"/><text fill="#000000" font-family="sans-serif" font-size="14" lengthAdjust="spacing" textLength="116.8296" x="742.14" y="482.3619">object_id() : UID [1]</text><ellipse cx="733.14" cy="495.2999" fill="#84BE84" rx="3" ry="3" style="stroke:#038048;stroke-width:1;"/><text fill="#000000" font-family="sans-serif" font-size="14" lengthAdjust="spacing" textLength="251.285" x="742.14" y="499.1619">version_tree_id() : VERSION_TREE_ID [1]</text><ellipse cx="733.14" cy="512.0998" fill="#84BE84" rx="3" ry="3" style="stroke:#038048;stroke-width:1;"/><text fill="#000000" font-family="sans-serif" font-size="14" lengthAdjust="spacing" textLength="180.8373" x="742.14" y="515.9618">creating_system_id() : UID [1]</text><ellipse cx="733.14" cy="528.8997" fill="#84BE84" rx="3" ry="3" style="stroke:#038048;stroke-width:1;"/><text fill="#000000" font-family="sans-serif" font-size="14" lengthAdjust="spacing" textLength="147.8394" x="742.14" y="532.7617">is_branch() : Boolean [1]</text></g><!--class PARTY_REF--><g class="entity" data-entity="PARTY_REF" data-source-line="42" data-uid="ent0009" id="entity_PARTY_REF"><rect fill="#F1F1F1" height="48" rx="2.5" ry="2.5" style="stroke:#181818;stroke-width:0.5;" width="105.4857" x="1227.04" y="257.8"/><ellipse cx="1242.04" cy="273.8" fill="#ADD1B2" rx="11" ry="11" style="stroke:#181818;stroke-width:1;"/><path d="M1242.04,280.2219 C1243.2119,280.2219 1244.4463,279.9562 1245.8213,279.3469 L1245.3369,277.8312 C1244.2431,278.2531 1243.2275,278.4406 1242.3681,278.4406 C1239.6494,278.4406 1237.9306,276.5969 1237.9306,273.6906 C1237.9306,270.9406 1239.4931,269.3469 1242.2275,269.3469 C1243.1494,269.3469 1244.165,269.5344 1245.3056,269.9562 L1245.8838,268.4406 C1244.79,267.8625 1243.4931,267.5656 1242.3056,267.5656 C1238.54,267.5656 1235.9619,270.2062 1235.9619,274.0187 C1235.9619,277.6906 1238.4463,280.2219 1242.04,280.2219 Z " fill="#000000"/><text fill="#000000" font-family="sans-serif" font-size="14" lengthAdjust="spacing" textLength="73.4857" x="1256.04" y="279.162">PARTY_REF</text><line style="stroke:#181818;stroke-width:0.5;" x1="1228.04" x2="1331.5257" y1="289.8" y2="289.8"/><line style="stroke:#181818;stroke-width:0.5;" x1="1228.04" x2="1331.5257" y1="297.8" y2="297.8"/></g><!--class TERMINOLOGY_ID--><g class="entity" data-entity="TERMINOLOGY_ID" data-source-line="45" data-uid="ent0010" id="entity_TERMINOLOGY_ID"><rect fill="#F1F1F1" height="81.5999" rx="2.5" ry="2.5" style="stroke:#181818;stroke-width:0.5;" width="164.0395" x="438.76" y="241"/><ellipse cx="459.9745" cy="257" fill="#ADD1B2" rx="11" ry="11" style="stroke:#181818;stroke-width:1;"/><path d="M459.9745,263.4219 C461.1464,263.4219 462.3807,263.1562 463.7557,262.5469 L463.2714,261.0312 C462.1776,261.4531 461.162,261.6406 460.3026,261.6406 C457.5839,261.6406 455.8651,259.7969 455.8651,256.8906 C455.8651,254.1406 457.4276,252.5469 460.162,252.5469 C461.0839,252.5469 462.0995,252.7344 463.2401,253.1562 L463.8182,251.6406 C462.7245,251.0625 461.4276,250.7656 460.2401,250.7656 C456.4745,250.7656 453.8964,253.4062 453.8964,257.2187 C453.8964,260.8906 456.3807,263.4219 459.9745,263.4219 Z " fill="#000000"/><text fill="#000000" font-family="sans-serif" font-size="14" lengthAdjust="spacing" textLength="118.2295" x="475.3555" y="262.362">TERMINOLOGY_ID</text><line style="stroke:#181818;stroke-width:0.5;" x1="439.76" x2="601.7995" y1="273" y2="273"/><line style="stroke:#181818;stroke-width:0.5;" x1="439.76" x2="601.7995" y1="281" y2="281"/><ellipse cx="449.76" cy="294.9" fill="#84BE84" rx="3" ry="3" style="stroke:#038048;stroke-width:1;"/><text fill="#000000" font-family="sans-serif" font-size="14" lengthAdjust="spacing" textLength="109.3116" x="458.76" y="298.7619">name() : String [1]</text><ellipse cx="449.76" cy="311.6999" fill="#84BE84" rx="3" ry="3" style="stroke:#038048;stroke-width:1;"/><text fill="#000000" font-family="sans-serif" font-size="14" lengthAdjust="spacing" textLength="138.0395" x="458.76" y="315.5619">version_id() : String [1]</text></g><!--class VERSION_TREE_ID--><g class="entity" data-entity="VERSION_TREE_ID" data-source-line="50" data-uid="ent0011" id="entity_VERSION_TREE_ID"><rect fill="#F1F1F1" height="131.9996" rx="2.5" ry="2.5" style="stroke:#181818;stroke-width:0.5;" width="199.0533" x="1414.26" y="7"/><ellipse cx="1451.0795" cy="23" fill="#ADD1B2" rx="11" ry="11" style="stroke:#181818;stroke-width:1;"/><path d="M1451.0795,29.4219 C1452.2514,29.4219 1453.4858,29.1563 1454.8608,28.5469 L1454.3764,27.0313 C1453.2826,27.4531 1452.267,27.6406 1451.4076,27.6406 C1448.6889,27.6406 1446.9701,25.7969 1446.9701,22.8906 C1446.9701,20.1406 1448.5326,18.5469 1451.267,18.5469 C1452.1889,18.5469 1453.2045,18.7344 1454.3451,19.1563 L1454.9233,17.6406 C1453.8295,17.0625 1452.5326,16.7656 1451.3451,16.7656 C1447.5795,16.7656 1445.0014,19.4063 1445.0014,23.2188 C1445.0014,26.8906 1447.4858,29.4219 1451.0795,29.4219 Z " fill="#000000"/><text fill="#000000" font-family="sans-serif" font-size="14" lengthAdjust="spacing" textLength="118.5655" x="1469.9283" y="28.362">VERSION_TREE_ID</text><line style="stroke:#181818;stroke-width:0.5;" x1="1415.26" x2="1612.3133" y1="39" y2="39"/><ellipse cx="1425.26" cy="52.9" fill="none" rx="3" ry="3" style="stroke:#038048;stroke-width:1;"/><text fill="#000000" font-family="sans-serif" font-size="14" lengthAdjust="spacing" textLength="98.9656" x="1434.26" y="56.7619">value : String [1]</text><line style="stroke:#181818;stroke-width:0.5;" x1="1415.26" x2="1612.3133" y1="63.7999" y2="63.7999"/><ellipse cx="1425.26" cy="77.6999" fill="#84BE84" rx="3" ry="3" style="stroke:#038048;stroke-width:1;"/><text fill="#000000" font-family="sans-serif" font-size="14" lengthAdjust="spacing" textLength="159.6694" x="1434.26" y="81.5619">trunk_version() : String [1]</text><ellipse cx="1425.26" cy="94.4998" fill="#84BE84" rx="3" ry="3" style="stroke:#038048;stroke-width:1;"/><text fill="#000000" font-family="sans-serif" font-size="14" lengthAdjust="spacing" textLength="147.8394" x="1434.26" y="98.3618">is_branch() : Boolean [1]</text><ellipse cx="1425.26" cy="111.2997" fill="#84BE84" rx="3" ry="3" style="stroke:#038048;stroke-width:1;"/><text fill="#000000" font-family="sans-serif" font-size="14" lengthAdjust="spacing" textLength="173.0533" x="1434.26" y="115.1617">branch_number() : String [1]</text><ellipse cx="1425.26" cy="128.0997" fill="#84BE84" rx="3" ry="3" style="stroke:#038048;stroke-width:1;"/><text fill="#000000" font-family="sans-serif" font-size="14" lengthAdjust="spacing" textLength="169.4554" x="1434.26" y="131.9616">branch_version() : String [1]</text></g><!--class UID_BASED_ID--><g class="entity" data-entity="UID_BASED_ID" data-source-line="58" data-uid="ent0012" id="entity_UID_BASED_ID"><rect fill="#F1F1F1" height="98.3998" rx="2.5" ry="2.5" style="stroke:#181818;stroke-width:0.5;" width="202.8193" x="637.37" y="232.6"/><ellipse cx="687.4128" cy="248.6" fill="#A9DCDF" rx="11" ry="11" style="stroke:#181818;stroke-width:1;"/><path d="M681.9285,254.1 L683.9597,254.1 L688.0066,242.7562 L687.1003,242.7562 L690.9285,254.1 L693.0691,254.1 L688.741,241.7719 L686.5222,241.7719 L681.9285,254.1 Z M684.2566,250.6 L690.6941,250.6 L690.6941,248.85 L684.2566,248.85 L684.2566,250.6 Z " fill="#000000"/><text fill="#000000" font-family="sans-serif" font-size="14" font-style="italic" lengthAdjust="spacing" textLength="94.2336" x="707.9128" y="253.962">UID_BASED_ID</text><line style="stroke:#181818;stroke-width:0.5;" x1="638.37" x2="839.1893" y1="264.6" y2="264.6"/><line style="stroke:#181818;stroke-width:0.5;" x1="638.37" x2="839.1893" y1="272.6" y2="272.6"/><ellipse cx="648.37" cy="286.5" fill="#84BE84" rx="3" ry="3" style="stroke:#038048;stroke-width:1;"/><text fill="#000000" font-family="sans-serif" font-size="14" lengthAdjust="spacing" textLength="86.2677" x="657.37" y="290.3619">root() : UID [1]</text><ellipse cx="648.37" cy="303.2999" fill="#84BE84" rx="3" ry="3" style="stroke:#038048;stroke-width:1;"/><text fill="#000000" font-family="sans-serif" font-size="14" lengthAdjust="spacing" textLength="134.5675" x="657.37" y="307.1619">extension() : String [1]</text><ellipse cx="648.37" cy="320.0998" fill="#84BE84" rx="3" ry="3" style="stroke:#038048;stroke-width:1;"/><text fill="#000000" font-family="sans-serif" font-size="14" lengthAdjust="spacing" textLength="176.8193" x="657.37" y="323.9618">has_extension() : Boolean [1]</text></g><!--class UUID--><g class="entity" data-entity="UUID" data-source-line="64" data-uid="ent0013" id="entity_UUID"><rect fill="#F1F1F1" height="48" rx="2.5" ry="2.5" style="stroke:#181818;stroke-width:0.5;" width="64.4799" x="1570.54" y="257.8"/><ellipse cx="1585.54" cy="273.8" fill="#ADD1B2" rx="11" ry="11" style="stroke:#181818;stroke-width:1;"/><path d="M1585.54,280.2219 C1586.7119,280.2219 1587.9463,279.9562 1589.3213,279.3469 L1588.8369,277.8312 C1587.7431,278.2531 1586.7275,278.4406 1585.8681,278.4406 C1583.1494,278.4406 1581.4306,276.5969 1581.4306,273.6906 C1581.4306,270.9406 1582.9931,269.3469 1585.7275,269.3469 C1586.6494,269.3469 1587.665,269.5344 1588.8056,269.9562 L1589.3838,268.4406 C1588.29,267.8625 1586.9931,267.5656 1585.8056,267.5656 C1582.04,267.5656 1579.4619,270.2062 1579.4619,274.0187 C1579.4619,277.6906 1581.9463,280.2219 1585.54,280.2219 Z " fill="#000000"/><text fill="#000000" font-family="sans-serif" font-size="14" lengthAdjust="spacing" textLength="32.4799" x="1599.54" y="279.162">UUID</text><line style="stroke:#181818;stroke-width:0.5;" x1="1571.54" x2="1634.0199" y1="289.8" y2="289.8"/><line style="stroke:#181818;stroke-width:0.5;" x1="1571.54" x2="1634.0199" y1="297.8" y2="297.8"/></g><!--class INTERNET_ID--><g class="entity" data-entity="INTERNET_ID" data-source-line="67" data-uid="ent0014" id="entity_INTERNET_ID"><rect fill="#F1F1F1" height="48" rx="2.5" ry="2.5" style="stroke:#181818;stroke-width:0.5;" width="118.3096" x="1669.63" y="257.8"/><ellipse cx="1684.63" cy="273.8" fill="#ADD1B2" rx="11" ry="11" style="stroke:#181818;stroke-width:1;"/><path d="M1684.63,280.2219 C1685.8019,280.2219 1687.0363,279.9562 1688.4113,279.3469 L1687.9269,277.8312 C1686.8331,278.2531 1685.8175,278.4406 1684.9581,278.4406 C1682.2394,278.4406 1680.5206,276.5969 1680.5206,273.6906 C1680.5206,270.9406 1682.0831,269.3469 1684.8175,269.3469 C1685.7394,269.3469 1686.755,269.5344 1687.8956,269.9562 L1688.4738,268.4406 C1687.38,267.8625 1686.0831,267.5656 1684.8956,267.5656 C1681.13,267.5656 1678.5519,270.2062 1678.5519,274.0187 C1678.5519,277.6906 1681.0363,280.2219 1684.63,280.2219 Z " fill="#000000"/><text fill="#000000" font-family="sans-serif" font-size="14" lengthAdjust="spacing" textLength="86.3096" x="1698.63" y="279.162">INTERNET_ID</text><line style="stroke:#181818;stroke-width:0.5;" x1="1670.63" x2="1786.9396" y1="289.8" y2="289.8"/><line style="stroke:#181818;stroke-width:0.5;" x1="1670.63" x2="1786.9396" y1="297.8" y2="297.8"/></g><!--class UID--><g class="entity" data-entity="UID" data-source-line="70" data-uid="ent0015" id="entity_UID"><rect fill="#F1F1F1" height="64.7999" rx="2.5" ry="2.5" style="stroke:#181818;stroke-width:0.5;" width="124.9656" x="1666.3" y="40.6"/><ellipse cx="1712.9898" cy="56.6" fill="#A9DCDF" rx="11" ry="11" style="stroke:#181818;stroke-width:1;"/><path d="M1707.5055,62.1 L1709.5367,62.1 L1713.5836,50.7562 L1712.6773,50.7562 L1716.5055,62.1 L1718.6461,62.1 L1714.318,49.7719 L1712.0992,49.7719 L1707.5055,62.1 Z M1709.8336,58.6 L1716.2711,58.6 L1716.2711,56.85 L1709.8336,56.85 L1709.8336,58.6 Z " fill="#000000"/><text fill="#000000" font-family="sans-serif" font-size="14" font-style="italic" lengthAdjust="spacing" textLength="23.0859" x="1733.4898" y="61.962">UID</text><line style="stroke:#181818;stroke-width:0.5;" x1="1667.3" x2="1790.2656" y1="72.6" y2="72.6"/><ellipse cx="1677.3" cy="86.5" fill="none" rx="3" ry="3" style="stroke:#038048;stroke-width:1;"/><text fill="#000000" font-family="sans-serif" font-size="14" lengthAdjust="spacing" textLength="98.9656" x="1686.3" y="90.3619">value : String [1]</text><line style="stroke:#181818;stroke-width:0.5;" x1="1667.3" x2="1790.2656" y1="97.3999" y2="97.3999"/></g><!--class ISO_OID--><g class="entity" data-entity="ISO_OID" data-source-line="74" data-uid="ent0016" id="entity_ISO_OID"><rect fill="#F1F1F1" height="48" rx="2.5" ry="2.5" style="stroke:#181818;stroke-width:0.5;" width="85.4518" x="1823.06" y="257.8"/><ellipse cx="1838.06" cy="273.8" fill="#ADD1B2" rx="11" ry="11" style="stroke:#181818;stroke-width:1;"/><path d="M1838.06,280.2219 C1839.2319,280.2219 1840.4663,279.9562 1841.8413,279.3469 L1841.3569,277.8312 C1840.2631,278.2531 1839.2475,278.4406 1838.3881,278.4406 C1835.6694,278.4406 1833.9506,276.5969 1833.9506,273.6906 C1833.9506,270.9406 1835.5131,269.3469 1838.2475,269.3469 C1839.1694,269.3469 1840.185,269.5344 1841.3256,269.9562 L1841.9038,268.4406 C1840.81,267.8625 1839.5131,267.5656 1838.3256,267.5656 C1834.56,267.5656 1831.9819,270.2062 1831.9819,274.0187 C1831.9819,277.6906 1834.4663,280.2219 1838.06,280.2219 Z " fill="#000000"/><text fill="#000000" font-family="sans-serif" font-size="14" lengthAdjust="spacing" textLength="53.4518" x="1852.06" y="279.162">ISO_OID</text><line style="stroke:#181818;stroke-width:0.5;" x1="1824.06" x2="1907.5118" y1="289.8" y2="289.8"/><line style="stroke:#181818;stroke-width:0.5;" x1="1824.06" x2="1907.5118" y1="297.8" y2="297.8"/></g><!--class TEMPLATE_ID--><g class="entity" data-entity="TEMPLATE_ID" data-source-line="77" data-uid="ent0017" id="entity_TEMPLATE_ID"><rect fill="#F1F1F1" height="48" rx="2.5" ry="2.5" style="stroke:#181818;stroke-width:0.5;" width="121.0256" x="875.27" y="257.8"/><ellipse cx="890.27" cy="273.8" fill="#ADD1B2" rx="11" ry="11" style="stroke:#181818;stroke-width:1;"/><path d="M890.27,280.2219 C891.4419,280.2219 892.6763,279.9562 894.0513,279.3469 L893.5669,277.8312 C892.4731,278.2531 891.4575,278.4406 890.5981,278.4406 C887.8794,278.4406 886.1606,276.5969 886.1606,273.6906 C886.1606,270.9406 887.7231,269.3469 890.4575,269.3469 C891.3794,269.3469 892.395,269.5344 893.5356,269.9562 L894.1138,268.4406 C893.02,267.8625 891.7231,267.5656 890.5356,267.5656 C886.77,267.5656 884.1919,270.2062 884.1919,274.0187 C884.1919,277.6906 886.6763,280.2219 890.27,280.2219 Z " fill="#000000"/><text fill="#000000" font-family="sans-serif" font-size="14" lengthAdjust="spacing" textLength="89.0256" x="904.27" y="279.162">TEMPLATE_ID</text><line style="stroke:#181818;stroke-width:0.5;" x1="876.27" x2="995.2956" y1="289.8" y2="289.8"/><line style="stroke:#181818;stroke-width:0.5;" x1="876.27" x2="995.2956" y1="297.8" y2="297.8"/></g><!--class ACCESS_GROUP_REF--><g class="entity" data-entity="ACCESS_GROUP_REF" data-source-line="80" data-uid="ent0018" id="entity_ACCESS_GROUP_REF"><rect fill="#F1F1F1" height="48" rx="2.5" ry="2.5" style="stroke:#181818;stroke-width:0.5;" width="168.2055" x="1367.68" y="257.8"/><ellipse cx="1382.68" cy="273.8" fill="#ADD1B2" rx="11" ry="11" style="stroke:#181818;stroke-width:1;"/><path d="M1382.68,280.2219 C1383.8519,280.2219 1385.0863,279.9562 1386.4613,279.3469 L1385.9769,277.8312 C1384.8831,278.2531 1383.8675,278.4406 1383.0081,278.4406 C1380.2894,278.4406 1378.5706,276.5969 1378.5706,273.6906 C1378.5706,270.9406 1380.1331,269.3469 1382.8675,269.3469 C1383.7894,269.3469 1384.805,269.5344 1385.9456,269.9562 L1386.5238,268.4406 C1385.43,267.8625 1384.1331,267.5656 1382.9456,267.5656 C1379.18,267.5656 1376.6019,270.2062 1376.6019,274.0187 C1376.6019,277.6906 1379.0863,280.2219 1382.68,280.2219 Z " fill="#000000"/><text fill="#000000" font-family="sans-serif" font-size="14" lengthAdjust="spacing" textLength="136.2055" x="1396.68" y="279.162">ACCESS_GROUP_REF</text><line style="stroke:#181818;stroke-width:0.5;" x1="1368.68" x2="1534.8855" y1="289.8" y2="289.8"/><line style="stroke:#181818;stroke-width:0.5;" x1="1368.68" x2="1534.8855" y1="297.8" y2="297.8"/></g><!--reverse link OBJECT_ID to ARCHETYPE_ID--><g class="link" data-entity-1="OBJECT_ID" data-entity-2="ARCHETYPE_ID" data-source-line="83" data-uid="lnk19" id="link_OBJECT_ID_ARCHETYPE_ID"><path codeLine="83" d="M441.249,106.5475 C384.699,130.2475 316.52,160.57 245.78,199 C240.22,202.02 234.58,205.2 228.92,208.47" fill="none" id="OBJECT_ID-backto-ARCHETYPE_ID" style="stroke:#181818;stroke-width:1;"/><polygon fill="none" points="457.85,99.59,438.9298,101.0138,443.5681,112.0811,457.85,99.59" style="stroke:#181818;stroke-width:1;"/></g><!--reverse link OBJECT_ID to GENERIC_ID--><g class="link" data-entity-1="OBJECT_ID" data-entity-2="GENERIC_ID" data-source-line="84" data-uid="lnk20" id="link_OBJECT_ID_GENERIC_ID"><path codeLine="84" d="M479.8972,119.2109 C444.7572,158.0709 397.78,210.03 362.62,248.91" fill="none" id="OBJECT_ID-backto-GENERIC_ID" style="stroke:#181818;stroke-width:1;"/><polygon fill="none" points="491.97,105.86,475.4469,115.1866,484.3475,123.2352,491.97,105.86" style="stroke:#181818;stroke-width:1;"/></g><!--reverse link UID_BASED_ID to HIER_OBJECT_ID--><g class="link" data-entity-1="UID_BASED_ID" data-entity-2="HIER_OBJECT_ID" data-source-line="85" data-uid="lnk21" id="link_UID_BASED_ID_HIER_OBJECT_ID"><path codeLine="85" d="M699.5129,346.6639 C674.8229,386.8239 650.25,426.78 631.21,457.74" fill="none" id="UID_BASED_ID-backto-HIER_OBJECT_ID" style="stroke:#181818;stroke-width:1;"/><polygon fill="none" points="708.94,331.33,694.4015,343.5215,704.6242,349.8063,708.94,331.33" style="stroke:#181818;stroke-width:1;"/></g><!--reverse link OBJECT_REF to LOCATABLE_REF--><g class="link" data-entity-1="OBJECT_REF" data-entity-2="LOCATABLE_REF" data-source-line="86" data-uid="lnk22" id="link_OBJECT_REF_LOCATABLE_REF"><path codeLine="86" d="M1229.0417,136.462 C1202.1817,169.532 1178.09,199.18 1151.22,232.26" fill="none" id="OBJECT_REF-backto-LOCATABLE_REF" style="stroke:#181818;stroke-width:1;"/><polygon fill="none" points="1240.39,122.49,1224.3844,132.6792,1233.699,140.2448,1240.39,122.49" style="stroke:#181818;stroke-width:1;"/></g><!--reverse link UID_BASED_ID to OBJECT_VERSION_ID--><g class="link" data-entity-1="UID_BASED_ID" data-entity-2="OBJECT_VERSION_ID" data-source-line="87" data-uid="lnk23" id="link_UID_BASED_ID_OBJECT_VERSION_ID"><path codeLine="87" d="M778.0564,346.6643 C795.3364,374.7743 807.75,394.96 825.84,424.37" fill="none" id="UID_BASED_ID-backto-OBJECT_VERSION_ID" style="stroke:#181818;stroke-width:1;"/><polygon fill="none" points="768.63,331.33,772.945,349.8065,783.1679,343.5222,768.63,331.33" style="stroke:#181818;stroke-width:1;"/></g><!--reverse link OBJECT_REF to PARTY_REF--><g class="link" data-entity-1="OBJECT_REF" data-entity-2="PARTY_REF" data-source-line="88" data-uid="lnk24" id="link_OBJECT_REF_PARTY_REF"><path codeLine="88" d="M1279.78,140.49 C1279.78,182.99 1279.78,224.92 1279.78,257.5" fill="none" id="OBJECT_REF-backto-PARTY_REF" style="stroke:#181818;stroke-width:1;"/><polygon fill="none" points="1279.78,122.49,1273.78,140.49,1285.78,140.49,1279.78,122.49" style="stroke:#181818;stroke-width:1;"/></g><!--reverse link OBJECT_ID to TERMINOLOGY_ID--><g class="link" data-entity-1="OBJECT_ID" data-entity-2="TERMINOLOGY_ID" data-source-line="89" data-uid="lnk25" id="link_OBJECT_ID_TERMINOLOGY_ID"><path codeLine="89" d="M520.78,123.86 C520.78,160.12 520.78,201.39 520.78,240.74" fill="none" id="OBJECT_ID-backto-TERMINOLOGY_ID" style="stroke:#181818;stroke-width:1;"/><polygon fill="none" points="520.78,105.86,514.78,123.86,526.78,123.86,520.78,105.86" style="stroke:#181818;stroke-width:1;"/></g><!--reverse link OBJECT_ID to UID_BASED_ID--><g class="link" data-entity-1="OBJECT_ID" data-entity-2="UID_BASED_ID" data-source-line="90" data-uid="lnk26" id="link_OBJECT_ID_UID_BASED_ID"><path codeLine="90" d="M567.4292,118.2477 C603.0192,152.0077 646.59,193.35 687.72,232.36" fill="none" id="OBJECT_ID-backto-UID_BASED_ID" style="stroke:#181818;stroke-width:1;"/><polygon fill="none" points="554.37,105.86,563.3,122.6008,571.5585,113.8947,554.37,105.86" style="stroke:#181818;stroke-width:1;"/></g><!--reverse link UID to UUID--><g class="link" data-entity-1="UID" data-entity-2="UUID" data-source-line="91" data-uid="lnk27" id="link_UID_UUID"><path codeLine="91" d="M1699.5723,121.0927 C1683.9523,146.3127 1671.1,167.2 1651.78,199 C1639.84,218.67 1626.42,241.09 1616.65,257.48" fill="none" id="UID-backto-UUID" style="stroke:#181818;stroke-width:1;"/><polygon fill="none" points="1709.05,105.79,1694.4714,117.9335,1704.6732,124.2519,1709.05,105.79" style="stroke:#181818;stroke-width:1;"/></g><!--reverse link UID to INTERNET_ID--><g class="link" data-entity-1="UID" data-entity-2="INTERNET_ID" data-source-line="92" data-uid="lnk28" id="link_UID_INTERNET_ID"><path codeLine="92" d="M1728.78,123.86 C1728.78,165.78 1728.78,220.47 1728.78,257.57" fill="none" id="UID-backto-INTERNET_ID" style="stroke:#181818;stroke-width:1;"/><polygon fill="none" points="1728.78,105.86,1722.78,123.86,1734.78,123.86,1728.78,105.86" style="stroke:#181818;stroke-width:1;"/></g><!--reverse link UID to ISO_OID--><g class="link" data-entity-1="UID" data-entity-2="ISO_OID" data-source-line="93" data-uid="lnk29" id="link_UID_ISO_OID"><path codeLine="93" d="M1759.8308,120.866 C1787.6008,162.786 1825.82,220.47 1850.39,257.57" fill="none" id="UID-backto-ISO_OID" style="stroke:#181818;stroke-width:1;"/><polygon fill="none" points="1749.89,105.86,1754.8288,124.1796,1764.8328,117.5524,1749.89,105.86" style="stroke:#181818;stroke-width:1;"/></g><!--reverse link OBJECT_ID to TEMPLATE_ID--><g class="link" data-entity-1="OBJECT_ID" data-entity-2="TEMPLATE_ID" data-source-line="94" data-uid="lnk30" id="link_OBJECT_ID_TEMPLATE_ID"><path codeLine="94" d="M601.1771,92.6371 C671.9971,110.6071 771,141.87 857.78,199 C881.88,214.86 904.02,239.48 918.51,257.57" fill="none" id="OBJECT_ID-backto-TEMPLATE_ID" style="stroke:#181818;stroke-width:1;"/><polygon fill="none" points="583.73,88.21,599.7014,98.4528,602.6528,86.8214,583.73,88.21" style="stroke:#181818;stroke-width:1;"/></g><!--reverse link OBJECT_REF to ACCESS_GROUP_REF--><g class="link" data-entity-1="OBJECT_REF" data-entity-2="ACCESS_GROUP_REF" data-source-line="95" data-uid="lnk31" id="link_OBJECT_REF_ACCESS_GROUP_REF"><path codeLine="95" d="M1331.6205,136.3287 C1366.9705,178.8287 1405.31,224.92 1432.4,257.5" fill="none" id="OBJECT_REF-backto-ACCESS_GROUP_REF" style="stroke:#181818;stroke-width:1;"/><polygon fill="none" points="1320.11,122.49,1327.0076,140.1655,1336.2334,132.4918,1320.11,122.49" style="stroke:#181818;stroke-width:1;"/></g></g></svg>
