<svg xmlns="http://www.w3.org/2000/svg" xmlns:xlink="http://www.w3.org/1999/xlink" contentStyleType="text/css" data-diagram-type="CLASS" height="546px" preserveAspectRatio="none" style="width:1560px;height:546px;background:#FFFFFF;" version="1.1" viewBox="0 0 1560 546" width="1560px" zoomAndPan="magnify"><defs/><g><!--class Iso8601_date_time--><g class="entity" data-entity="Iso8601_date_time" data-source-line="2" data-uid="ent0002" id="entity_Iso8601_date_time"><rect fill="#F1F1F1" height="232.7992" rx="2.5" ry="2.5" style="stroke:#181818;stroke-width:0.5;" width="347.4667" x="7" y="290.2"/><ellipse cx="117.0536" cy="306.2" fill="#ADD1B2" rx="11" ry="11" style="stroke:#181818;stroke-width:1;"/><path d="M117.0536,312.6219 C118.2255,312.6219 119.4599,312.3562 120.8349,311.7469 L120.3505,310.2312 C119.2567,310.6531 118.2411,310.8406 117.3817,310.8406 C114.663,310.8406 112.9442,308.9969 112.9442,306.0906 C112.9442,303.3406 114.5067,301.7469 117.2411,301.7469 C118.163,301.7469 119.1786,301.9344 120.3192,302.3562 L120.8974,300.8406 C119.8036,300.2625 118.5067,299.9656 117.3192,299.9656 C113.5536,299.9656 110.9755,302.6062 110.9755,306.4187 C110.9755,310.0906 113.4599,312.6219 117.0536,312.6219 Z " fill="#000000"/><text fill="#000000" font-family="sans-serif" font-size="14" lengthAdjust="spacing" textLength="118.8595" x="137.5536" y="311.562">Iso8601_date_time</text><line style="stroke:#181818;stroke-width:0.5;" x1="8" x2="353.4667" y1="322.2" y2="322.2"/><line style="stroke:#181818;stroke-width:0.5;" x1="8" x2="353.4667" y1="330.2" y2="330.2"/><ellipse cx="18" cy="344.1" fill="#84BE84" rx="3" ry="3" style="stroke:#038048;stroke-width:1;"/><text fill="#000000" font-family="sans-serif" font-size="14" lengthAdjust="spacing" textLength="193.8293" x="27" y="347.9619">month_unknown() : Boolean [1]</text><ellipse cx="18" cy="360.8999" fill="#84BE84" rx="3" ry="3" style="stroke:#038048;stroke-width:1;"/><text fill="#000000" font-family="sans-serif" font-size="14" lengthAdjust="spacing" textLength="174.4253" x="27" y="364.7619">day_unknown() : Boolean [1]</text><ellipse cx="18" cy="377.6998" fill="#84BE84" rx="3" ry="3" style="stroke:#038048;stroke-width:1;"/><text fill="#000000" font-family="sans-serif" font-size="14" lengthAdjust="spacing" textLength="196.6012" x="27" y="381.5618">minute_unknown() : Boolean [1]</text><ellipse cx="18" cy="394.4997" fill="#84BE84" rx="3" ry="3" style="stroke:#038048;stroke-width:1;"/><text fill="#000000" font-family="sans-serif" font-size="14" lengthAdjust="spacing" textLength="196.8392" x="27" y="398.3617">second_unknown() : Boolean [1]</text><ellipse cx="18" cy="411.2997" fill="#84BE84" rx="3" ry="3" style="stroke:#038048;stroke-width:1;"/><text fill="#000000" font-family="sans-serif" font-size="14" lengthAdjust="spacing" textLength="240.127" x="27" y="415.1616">is_decimal_sign_comma() : Boolean [1]</text><ellipse cx="18" cy="428.0996" fill="#84BE84" rx="3" ry="3" style="stroke:#038048;stroke-width:1;"/><text fill="#000000" font-family="sans-serif" font-size="14" lengthAdjust="spacing" textLength="321.4667" x="27" y="431.9616">valid_iso8601_date_time( s : String [1] ) : Boolean [1]</text><ellipse cx="18" cy="444.8995" fill="#84BE84" rx="3" ry="3" style="stroke:#038048;stroke-width:1;"/><text fill="#000000" font-family="sans-serif" font-size="14" lengthAdjust="spacing" textLength="144.9974" x="27" y="448.7615">is_partial() : Boolean [1]</text><ellipse cx="18" cy="461.6995" fill="#84BE84" rx="3" ry="3" style="stroke:#038048;stroke-width:1;"/><text fill="#000000" font-family="sans-serif" font-size="14" lengthAdjust="spacing" textLength="162.6934" x="27" y="465.5614">is_extended() : Boolean [1]</text><ellipse cx="18" cy="478.4994" fill="#84BE84" rx="3" ry="3" style="stroke:#038048;stroke-width:1;"/><text fill="#000000" font-family="sans-serif" font-size="14" lengthAdjust="spacing" textLength="131.2635" x="27" y="482.3614">as_string() : String [1]</text><ellipse cx="18" cy="495.2993" fill="#84BE84" rx="3" ry="3" style="stroke:#038048;stroke-width:1;"/><text fill="#000000" font-family="sans-serif" font-size="14" lengthAdjust="spacing" textLength="227.1211" x="27" y="499.1613">has_fractional_second() : Boolean [1]</text><ellipse cx="18" cy="512.0992" fill="#84BE84" rx="3" ry="3" style="stroke:#038048;stroke-width:1;"/><text fill="#000000" font-family="sans-serif" font-size="14" lengthAdjust="spacing" textLength="185.3873" x="27" y="515.9612">as_date_time() : Date_time [1]</text></g><!--class Iso8601_duration--><g class="entity" data-entity="Iso8601_duration" data-source-line="16" data-uid="ent0003" id="entity_Iso8601_duration"><rect fill="#F1F1F1" height="266.399" rx="2.5" ry="2.5" style="stroke:#181818;stroke-width:0.5;" width="337.1908" x="389.14" y="273.4"/><ellipse cx="499.1936" cy="289.4" fill="#ADD1B2" rx="11" ry="11" style="stroke:#181818;stroke-width:1;"/><path d="M499.1936,295.8219 C500.3655,295.8219 501.5999,295.5563 502.9749,294.9469 L502.4905,293.4313 C501.3967,293.8531 500.3811,294.0406 499.5217,294.0406 C496.803,294.0406 495.0842,292.1969 495.0842,289.2906 C495.0842,286.5406 496.6467,284.9469 499.3811,284.9469 C500.303,284.9469 501.3186,285.1344 502.4592,285.5563 L503.0374,284.0406 C501.9436,283.4625 500.6467,283.1656 499.4592,283.1656 C495.6936,283.1656 493.1155,285.8063 493.1155,289.6188 C493.1155,293.2906 495.5999,295.8219 499.1936,295.8219 Z " fill="#000000"/><text fill="#000000" font-family="sans-serif" font-size="14" lengthAdjust="spacing" textLength="108.5836" x="519.6936" y="294.762">Iso8601_duration</text><line style="stroke:#181818;stroke-width:0.5;" x1="390.14" x2="725.3308" y1="305.4" y2="305.4"/><line style="stroke:#181818;stroke-width:0.5;" x1="390.14" x2="725.3308" y1="313.4" y2="313.4"/><ellipse cx="400.14" cy="327.3" fill="#84BE84" rx="3" ry="3" style="stroke:#038048;stroke-width:1;"/><text fill="#000000" font-family="sans-serif" font-size="14" lengthAdjust="spacing" textLength="240.127" x="409.14" y="331.1619">is_decimal_sign_comma() : Boolean [1]</text><ellipse cx="400.14" cy="344.0999" fill="#84BE84" rx="3" ry="3" style="stroke:#038048;stroke-width:1;"/><text fill="#000000" font-family="sans-serif" font-size="14" lengthAdjust="spacing" textLength="311.1908" x="409.14" y="347.9619">valid_iso8601_duration( s : String [1] ) : Boolean [1]</text><ellipse cx="400.14" cy="360.8998" fill="#84BE84" rx="3" ry="3" style="stroke:#038048;stroke-width:1;"/><text fill="#000000" font-family="sans-serif" font-size="14" lengthAdjust="spacing" textLength="144.9974" x="409.14" y="364.7618">is_partial() : Boolean [1]</text><ellipse cx="400.14" cy="377.6997" fill="#84BE84" rx="3" ry="3" style="stroke:#038048;stroke-width:1;"/><text fill="#000000" font-family="sans-serif" font-size="14" lengthAdjust="spacing" textLength="162.6934" x="409.14" y="381.5617">is_extended() : Boolean [1]</text><ellipse cx="400.14" cy="394.4997" fill="#84BE84" rx="3" ry="3" style="stroke:#038048;stroke-width:1;"/><text fill="#000000" font-family="sans-serif" font-size="14" lengthAdjust="spacing" textLength="131.2635" x="409.14" y="398.3616">as_string() : String [1]</text><ellipse cx="400.14" cy="411.2996" fill="#84BE84" rx="3" ry="3" style="stroke:#038048;stroke-width:1;"/><text fill="#000000" font-family="sans-serif" font-size="14" lengthAdjust="spacing" textLength="129.5135" x="409.14" y="415.1616">months() : Integer [1]</text><ellipse cx="400.14" cy="428.0995" fill="#84BE84" rx="3" ry="3" style="stroke:#038048;stroke-width:1;"/><text fill="#000000" font-family="sans-serif" font-size="14" lengthAdjust="spacing" textLength="114.7996" x="409.14" y="431.9615">years() : Integer [1]</text><ellipse cx="400.14" cy="444.8995" fill="#84BE84" rx="3" ry="3" style="stroke:#038048;stroke-width:1;"/><text fill="#000000" font-family="sans-serif" font-size="14" lengthAdjust="spacing" textLength="120.9595" x="409.14" y="448.7614">weeks() : Integer [1]</text><ellipse cx="400.14" cy="461.6994" fill="#84BE84" rx="3" ry="3" style="stroke:#038048;stroke-width:1;"/><text fill="#000000" font-family="sans-serif" font-size="14" lengthAdjust="spacing" textLength="152.5154" x="409.14" y="465.5614">to_seconds() : Integer [1]</text><ellipse cx="400.14" cy="478.4993" fill="#84BE84" rx="3" ry="3" style="stroke:#038048;stroke-width:1;"/><text fill="#000000" font-family="sans-serif" font-size="14" lengthAdjust="spacing" textLength="132.2855" x="409.14" y="482.3613">minutes() : Integer [1]</text><ellipse cx="400.14" cy="495.2992" fill="#84BE84" rx="3" ry="3" style="stroke:#038048;stroke-width:1;"/><text fill="#000000" font-family="sans-serif" font-size="14" lengthAdjust="spacing" textLength="117.2076" x="409.14" y="499.1612">hours() : Integer [1]</text><ellipse cx="400.14" cy="512.0992" fill="#84BE84" rx="3" ry="3" style="stroke:#038048;stroke-width:1;"/><text fill="#000000" font-family="sans-serif" font-size="14" lengthAdjust="spacing" textLength="110.1096" x="409.14" y="515.9611">days() : Integer [1]</text><ellipse cx="400.14" cy="528.8991" fill="#84BE84" rx="3" ry="3" style="stroke:#038048;stroke-width:1;"/><text fill="#000000" font-family="sans-serif" font-size="14" lengthAdjust="spacing" textLength="164.8354" x="409.14" y="532.7611">as_duration() : Duration [1]</text></g><!--class Iso8601_time--><g class="entity" data-entity="Iso8601_time" data-source-line="32" data-uid="ent0004" id="entity_Iso8601_time"><rect fill="#F1F1F1" height="199.1993" rx="2.5" ry="2.5" style="stroke:#181818;stroke-width:0.5;" width="266.127" x="761.67" y="307"/><ellipse cx="848.3507" cy="323" fill="#ADD1B2" rx="11" ry="11" style="stroke:#181818;stroke-width:1;"/><path d="M848.3507,329.4219 C849.5226,329.4219 850.7569,329.1562 852.1319,328.5469 L851.6476,327.0312 C850.5538,327.4531 849.5382,327.6406 848.6788,327.6406 C845.9601,327.6406 844.2413,325.7969 844.2413,322.8906 C844.2413,320.1406 845.8038,318.5469 848.5382,318.5469 C849.4601,318.5469 850.4757,318.7344 851.6163,319.1562 L852.1944,317.6406 C851.1007,317.0625 849.8038,316.7656 848.6163,316.7656 C844.8507,316.7656 842.2726,319.4062 842.2726,323.2187 C842.2726,326.8906 844.7569,329.4219 848.3507,329.4219 Z " fill="#000000"/><text fill="#000000" font-family="sans-serif" font-size="14" lengthAdjust="spacing" textLength="84.2657" x="868.8507" y="328.362">Iso8601_time</text><line style="stroke:#181818;stroke-width:0.5;" x1="762.67" x2="1026.797" y1="339" y2="339"/><line style="stroke:#181818;stroke-width:0.5;" x1="762.67" x2="1026.797" y1="347" y2="347"/><ellipse cx="772.67" cy="360.9" fill="#84BE84" rx="3" ry="3" style="stroke:#038048;stroke-width:1;"/><text fill="#000000" font-family="sans-serif" font-size="14" lengthAdjust="spacing" textLength="196.6012" x="781.67" y="364.7619">minute_unknown() : Boolean [1]</text><ellipse cx="772.67" cy="377.6999" fill="#84BE84" rx="3" ry="3" style="stroke:#038048;stroke-width:1;"/><text fill="#000000" font-family="sans-serif" font-size="14" lengthAdjust="spacing" textLength="196.8392" x="781.67" y="381.5619">second_unknown() : Boolean [1]</text><ellipse cx="772.67" cy="394.4998" fill="#84BE84" rx="3" ry="3" style="stroke:#038048;stroke-width:1;"/><text fill="#000000" font-family="sans-serif" font-size="14" lengthAdjust="spacing" textLength="240.127" x="781.67" y="398.3618">is_decimal_sign_comma() : Boolean [1]</text><ellipse cx="772.67" cy="411.2997" fill="#84BE84" rx="3" ry="3" style="stroke:#038048;stroke-width:1;"/><text fill="#000000" font-family="sans-serif" font-size="14" lengthAdjust="spacing" textLength="208.2352" x="781.67" y="415.1617">valid_iso8601_time() : Boolean [1]</text><ellipse cx="772.67" cy="428.0997" fill="#84BE84" rx="3" ry="3" style="stroke:#038048;stroke-width:1;"/><text fill="#000000" font-family="sans-serif" font-size="14" lengthAdjust="spacing" textLength="144.9974" x="781.67" y="431.9616">is_partial() : Boolean [1]</text><ellipse cx="772.67" cy="444.8996" fill="#84BE84" rx="3" ry="3" style="stroke:#038048;stroke-width:1;"/><text fill="#000000" font-family="sans-serif" font-size="14" lengthAdjust="spacing" textLength="162.6934" x="781.67" y="448.7616">is_extended() : Boolean [1]</text><ellipse cx="772.67" cy="461.6995" fill="#84BE84" rx="3" ry="3" style="stroke:#038048;stroke-width:1;"/><text fill="#000000" font-family="sans-serif" font-size="14" lengthAdjust="spacing" textLength="131.2635" x="781.67" y="465.5615">as_string() : String [1]</text><ellipse cx="772.67" cy="478.4995" fill="#84BE84" rx="3" ry="3" style="stroke:#038048;stroke-width:1;"/><text fill="#000000" font-family="sans-serif" font-size="14" lengthAdjust="spacing" textLength="227.1211" x="781.67" y="482.3614">has_fractional_second() : Boolean [1]</text><ellipse cx="772.67" cy="495.2994" fill="#84BE84" rx="3" ry="3" style="stroke:#038048;stroke-width:1;"/><text fill="#000000" font-family="sans-serif" font-size="14" lengthAdjust="spacing" textLength="117.0955" x="781.67" y="499.1614">as_time() : Time [1]</text></g><!--class Iso8601_timezone--><g class="entity" data-entity="Iso8601_timezone" data-source-line="44" data-uid="ent0005" id="entity_Iso8601_timezone"><rect fill="#F1F1F1" height="148.7996" rx="2.5" ry="2.5" style="stroke:#181818;stroke-width:0.5;" width="222.6012" x="1062.43" y="332.2"/><ellipse cx="1112.4658" cy="348.2" fill="#ADD1B2" rx="11" ry="11" style="stroke:#181818;stroke-width:1;"/><path d="M1112.4658,354.6219 C1113.6377,354.6219 1114.8721,354.3562 1116.2471,353.7469 L1115.7627,352.2312 C1114.669,352.6531 1113.6533,352.8406 1112.794,352.8406 C1110.0752,352.8406 1108.3565,350.9969 1108.3565,348.0906 C1108.3565,345.3406 1109.919,343.7469 1112.6533,343.7469 C1113.5752,343.7469 1114.5908,343.9344 1115.7315,344.3562 L1116.3096,342.8406 C1115.2158,342.2625 1113.919,341.9656 1112.7315,341.9656 C1108.9658,341.9656 1106.3877,344.6062 1106.3877,348.4187 C1106.3877,352.0906 1108.8721,354.6219 1112.4658,354.6219 Z " fill="#000000"/><text fill="#000000" font-family="sans-serif" font-size="14" lengthAdjust="spacing" textLength="114.0296" x="1132.9658" y="353.562">Iso8601_timezone</text><line style="stroke:#181818;stroke-width:0.5;" x1="1063.43" x2="1284.0312" y1="364.2" y2="364.2"/><line style="stroke:#181818;stroke-width:0.5;" x1="1063.43" x2="1284.0312" y1="372.2" y2="372.2"/><ellipse cx="1073.43" cy="386.1" fill="#84BE84" rx="3" ry="3" style="stroke:#038048;stroke-width:1;"/><text fill="#000000" font-family="sans-serif" font-size="14" lengthAdjust="spacing" textLength="196.6012" x="1082.43" y="389.9619">minute_unknown() : Boolean [1]</text><ellipse cx="1073.43" cy="402.8999" fill="#84BE84" rx="3" ry="3" style="stroke:#038048;stroke-width:1;"/><text fill="#000000" font-family="sans-serif" font-size="14" lengthAdjust="spacing" textLength="144.9974" x="1082.43" y="406.7619">is_partial() : Boolean [1]</text><ellipse cx="1073.43" cy="419.6998" fill="#84BE84" rx="3" ry="3" style="stroke:#038048;stroke-width:1;"/><text fill="#000000" font-family="sans-serif" font-size="14" lengthAdjust="spacing" textLength="162.6934" x="1082.43" y="423.5618">is_extended() : Boolean [1]</text><ellipse cx="1073.43" cy="436.4997" fill="#84BE84" rx="3" ry="3" style="stroke:#038048;stroke-width:1;"/><text fill="#000000" font-family="sans-serif" font-size="14" lengthAdjust="spacing" textLength="131.2635" x="1082.43" y="440.3617">as_string() : String [1]</text><ellipse cx="1073.43" cy="453.2997" fill="#84BE84" rx="3" ry="3" style="stroke:#038048;stroke-width:1;"/><text fill="#000000" font-family="sans-serif" font-size="14" lengthAdjust="spacing" textLength="130.4375" x="1082.43" y="457.1616">is_gmt() : Boolean [1]</text><ellipse cx="1073.43" cy="470.0996" fill="#84BE84" rx="3" ry="3" style="stroke:#038048;stroke-width:1;"/><text fill="#000000" font-family="sans-serif" font-size="14" lengthAdjust="spacing" textLength="176.6233" x="1082.43" y="473.9616">as_timezone() : Timezone [1]</text></g><!--class Iso8601_type--><g class="entity" data-entity="Iso8601_type" data-source-line="53" data-uid="ent0006" id="entity_Iso8601_type"><rect fill="#F1F1F1" height="98.3998" rx="2.5" ry="2.5" style="stroke:#181818;stroke-width:0.5;" width="188.6934" x="719.39" y="115"/><ellipse cx="767.9208" cy="131" fill="#A9DCDF" rx="11" ry="11" style="stroke:#181818;stroke-width:1;"/><path d="M762.4365,136.5 L764.4677,136.5 L768.5146,125.1562 L767.6083,125.1562 L771.4365,136.5 L773.5771,136.5 L769.249,124.1719 L767.0302,124.1719 L762.4365,136.5 Z M764.7646,133 L771.2021,133 L771.2021,131.25 L764.7646,131.25 L764.7646,133 Z " fill="#000000"/><text fill="#000000" font-family="sans-serif" font-size="14" font-style="italic" lengthAdjust="spacing" textLength="83.1317" x="788.4208" y="136.362">Iso8601_type</text><line style="stroke:#181818;stroke-width:0.5;" x1="720.39" x2="907.0834" y1="147" y2="147"/><ellipse cx="730.39" cy="160.9" fill="none" rx="3" ry="3" style="stroke:#038048;stroke-width:1;"/><text fill="#000000" font-family="sans-serif" font-size="14" lengthAdjust="spacing" textLength="98.9656" x="739.39" y="164.7619">value : String [1]</text><line style="stroke:#181818;stroke-width:0.5;" x1="720.39" x2="907.0834" y1="171.7999" y2="171.7999"/><ellipse cx="730.39" cy="185.6999" fill="#84BE84" rx="3" ry="3" style="stroke:#038048;stroke-width:1;"/><text fill="#000000" font-family="sans-serif" font-size="14" font-style="italic" lengthAdjust="spacing" textLength="144.9974" x="739.39" y="189.5619">is_partial() : Boolean [1]</text><ellipse cx="730.39" cy="202.4998" fill="#84BE84" rx="3" ry="3" style="stroke:#038048;stroke-width:1;"/><text fill="#000000" font-family="sans-serif" font-size="14" font-style="italic" lengthAdjust="spacing" textLength="162.6934" x="739.39" y="206.3618">is_extended() : Boolean [1]</text></g><!--class Iso8601_date--><g class="entity" data-entity="Iso8601_date" data-source-line="59" data-uid="ent0007" id="entity_Iso8601_date"><rect fill="#F1F1F1" height="165.5995" rx="2.5" ry="2.5" style="stroke:#181818;stroke-width:0.5;" width="233.5352" x="1319.97" y="323.8"/><ellipse cx="1390.7047" cy="339.8" fill="#ADD1B2" rx="11" ry="11" style="stroke:#181818;stroke-width:1;"/><path d="M1390.7047,346.2219 C1391.8766,346.2219 1393.111,345.9562 1394.486,345.3469 L1394.0016,343.8312 C1392.9079,344.2531 1391.8922,344.4406 1391.0329,344.4406 C1388.3141,344.4406 1386.5954,342.5969 1386.5954,339.6906 C1386.5954,336.9406 1388.1579,335.3469 1390.8922,335.3469 C1391.8141,335.3469 1392.8297,335.5344 1393.9704,335.9562 L1394.5485,334.4406 C1393.4547,333.8625 1392.1579,333.5656 1390.9704,333.5656 C1387.2047,333.5656 1384.6266,336.2062 1384.6266,340.0187 C1384.6266,343.6906 1387.111,346.2219 1390.7047,346.2219 Z " fill="#000000"/><text fill="#000000" font-family="sans-serif" font-size="14" lengthAdjust="spacing" textLength="83.5657" x="1411.2047" y="345.162">Iso8601_date</text><line style="stroke:#181818;stroke-width:0.5;" x1="1320.97" x2="1552.5052" y1="355.8" y2="355.8"/><line style="stroke:#181818;stroke-width:0.5;" x1="1320.97" x2="1552.5052" y1="363.8" y2="363.8"/><ellipse cx="1330.97" cy="377.7" fill="#84BE84" rx="3" ry="3" style="stroke:#038048;stroke-width:1;"/><text fill="#000000" font-family="sans-serif" font-size="14" lengthAdjust="spacing" textLength="193.8293" x="1339.97" y="381.5619">month_unknown() : Boolean [1]</text><ellipse cx="1330.97" cy="394.4999" fill="#84BE84" rx="3" ry="3" style="stroke:#038048;stroke-width:1;"/><text fill="#000000" font-family="sans-serif" font-size="14" lengthAdjust="spacing" textLength="174.4253" x="1339.97" y="398.3619">day_unknown() : Boolean [1]</text><ellipse cx="1330.97" cy="411.2998" fill="#84BE84" rx="3" ry="3" style="stroke:#038048;stroke-width:1;"/><text fill="#000000" font-family="sans-serif" font-size="14" lengthAdjust="spacing" textLength="207.5352" x="1339.97" y="415.1618">valid_iso8601_date() : Boolean [1]</text><ellipse cx="1330.97" cy="428.0997" fill="#84BE84" rx="3" ry="3" style="stroke:#038048;stroke-width:1;"/><text fill="#000000" font-family="sans-serif" font-size="14" lengthAdjust="spacing" textLength="144.9974" x="1339.97" y="431.9617">is_partial() : Boolean [1]</text><ellipse cx="1330.97" cy="444.8997" fill="#84BE84" rx="3" ry="3" style="stroke:#038048;stroke-width:1;"/><text fill="#000000" font-family="sans-serif" font-size="14" lengthAdjust="spacing" textLength="162.6934" x="1339.97" y="448.7616">is_extended() : Boolean [1]</text><ellipse cx="1330.97" cy="461.6996" fill="#84BE84" rx="3" ry="3" style="stroke:#038048;stroke-width:1;"/><text fill="#000000" font-family="sans-serif" font-size="14" lengthAdjust="spacing" textLength="131.2635" x="1339.97" y="465.5616">as_string() : String [1]</text><ellipse cx="1330.97" cy="478.4995" fill="#84BE84" rx="3" ry="3" style="stroke:#038048;stroke-width:1;"/><text fill="#000000" font-family="sans-serif" font-size="14" lengthAdjust="spacing" textLength="114.7995" x="1339.97" y="482.3615">as_date() : Date [1]</text></g><!--class IDate_time--><g class="entity" data-entity="IDate_time" data-source-line="70" data-uid="ent0009" id="entity_IDate_time"><rect fill="#F1F1F1" height="48" rx="2.5" ry="2.5" style="stroke:#181818;stroke-width:0.5;" width="100.5997" x="130.43" y="140.2"/><ellipse cx="145.43" cy="156.2" fill="#ADD1B2" rx="11" ry="11" style="stroke:#181818;stroke-width:1;"/><path d="M145.43,162.6219 C146.6019,162.6219 147.8363,162.3562 149.2113,161.7469 L148.7269,160.2312 C147.6331,160.6531 146.6175,160.8406 145.7581,160.8406 C143.0394,160.8406 141.3206,158.9969 141.3206,156.0906 C141.3206,153.3406 142.8831,151.7469 145.6175,151.7469 C146.5394,151.7469 147.555,151.9344 148.6956,152.3562 L149.2738,150.8406 C148.18,150.2625 146.8831,149.9656 145.6956,149.9656 C141.93,149.9656 139.3519,152.6062 139.3519,156.4187 C139.3519,160.0906 141.8363,162.6219 145.43,162.6219 Z " fill="#000000"/><text fill="#000000" font-family="sans-serif" font-size="14" lengthAdjust="spacing" textLength="68.5997" x="159.43" y="161.562">IDate_time</text><line style="stroke:#181818;stroke-width:0.5;" x1="131.43" x2="230.0297" y1="172.2" y2="172.2"/><line style="stroke:#181818;stroke-width:0.5;" x1="131.43" x2="230.0297" y1="180.2" y2="180.2"/></g><!--class IDuration--><g class="entity" data-entity="IDuration" data-source-line="72" data-uid="ent0012" id="entity_IDuration"><rect fill="#F1F1F1" height="48" rx="2.5" ry="2.5" style="stroke:#181818;stroke-width:0.5;" width="90.3238" x="512.57" y="140.2"/><ellipse cx="527.57" cy="156.2" fill="#ADD1B2" rx="11" ry="11" style="stroke:#181818;stroke-width:1;"/><path d="M527.57,162.6219 C528.7419,162.6219 529.9762,162.3562 531.3512,161.7469 L530.8669,160.2312 C529.7731,160.6531 528.7575,160.8406 527.8981,160.8406 C525.1794,160.8406 523.4606,158.9969 523.4606,156.0906 C523.4606,153.3406 525.0231,151.7469 527.7575,151.7469 C528.6794,151.7469 529.695,151.9344 530.8356,152.3562 L531.4137,150.8406 C530.32,150.2625 529.0231,149.9656 527.8356,149.9656 C524.07,149.9656 521.4919,152.6062 521.4919,156.4187 C521.4919,160.0906 523.9762,162.6219 527.57,162.6219 Z " fill="#000000"/><text fill="#000000" font-family="sans-serif" font-size="14" lengthAdjust="spacing" textLength="58.3238" x="541.57" y="161.562">IDuration</text><line style="stroke:#181818;stroke-width:0.5;" x1="513.57" x2="601.8938" y1="172.2" y2="172.2"/><line style="stroke:#181818;stroke-width:0.5;" x1="513.57" x2="601.8938" y1="180.2" y2="180.2"/></g><!--class ITime--><g class="entity" data-entity="ITime" data-source-line="74" data-uid="ent0015" id="entity_ITime"><rect fill="#F1F1F1" height="48" rx="2.5" ry="2.5" style="stroke:#181818;stroke-width:0.5;" width="66.9019" x="943.28" y="140.2"/><ellipse cx="958.28" cy="156.2" fill="#ADD1B2" rx="11" ry="11" style="stroke:#181818;stroke-width:1;"/><path d="M958.28,162.6219 C959.4519,162.6219 960.6863,162.3562 962.0613,161.7469 L961.5769,160.2312 C960.4831,160.6531 959.4675,160.8406 958.6081,160.8406 C955.8894,160.8406 954.1706,158.9969 954.1706,156.0906 C954.1706,153.3406 955.7331,151.7469 958.4675,151.7469 C959.3894,151.7469 960.405,151.9344 961.5456,152.3562 L962.1238,150.8406 C961.03,150.2625 959.7331,149.9656 958.5456,149.9656 C954.78,149.9656 952.2019,152.6062 952.2019,156.4187 C952.2019,160.0906 954.6863,162.6219 958.28,162.6219 Z " fill="#000000"/><text fill="#000000" font-family="sans-serif" font-size="14" lengthAdjust="spacing" textLength="34.9019" x="972.28" y="161.562">ITime</text><line style="stroke:#181818;stroke-width:0.5;" x1="944.28" x2="1009.1819" y1="172.2" y2="172.2"/><line style="stroke:#181818;stroke-width:0.5;" x1="944.28" x2="1009.1819" y1="180.2" y2="180.2"/></g><!--class ITimezone--><g class="entity" data-entity="ITimezone" data-source-line="76" data-uid="ent0018" id="entity_ITimezone"><rect fill="#F1F1F1" height="48" rx="2.5" ry="2.5" style="stroke:#181818;stroke-width:0.5;" width="96.6657" x="1125.4" y="140.2"/><ellipse cx="1140.4" cy="156.2" fill="#ADD1B2" rx="11" ry="11" style="stroke:#181818;stroke-width:1;"/><path d="M1140.4,162.6219 C1141.5719,162.6219 1142.8063,162.3562 1144.1813,161.7469 L1143.6969,160.2312 C1142.6031,160.6531 1141.5875,160.8406 1140.7281,160.8406 C1138.0094,160.8406 1136.2906,158.9969 1136.2906,156.0906 C1136.2906,153.3406 1137.8531,151.7469 1140.5875,151.7469 C1141.5094,151.7469 1142.525,151.9344 1143.6656,152.3562 L1144.2438,150.8406 C1143.15,150.2625 1141.8531,149.9656 1140.6656,149.9656 C1136.9,149.9656 1134.3219,152.6062 1134.3219,156.4187 C1134.3219,160.0906 1136.8063,162.6219 1140.4,162.6219 Z " fill="#000000"/><text fill="#000000" font-family="sans-serif" font-size="14" lengthAdjust="spacing" textLength="64.6657" x="1154.4" y="161.562">ITimezone</text><line style="stroke:#181818;stroke-width:0.5;" x1="1126.4" x2="1221.0657" y1="172.2" y2="172.2"/><line style="stroke:#181818;stroke-width:0.5;" x1="1126.4" x2="1221.0657" y1="180.2" y2="180.2"/></g><!--class Ordered--><g class="entity" data-entity="Ordered" data-source-line="77" data-uid="ent0020" id="entity_Ordered"><rect fill="#F1F1F1" height="48" rx="2.5" ry="2.5" style="stroke:#181818;stroke-width:0.5;" width="83.9398" x="771.76" y="7"/><ellipse cx="786.76" cy="23" fill="#ADD1B2" rx="11" ry="11" style="stroke:#181818;stroke-width:1;"/><path d="M786.76,29.4219 C787.9319,29.4219 789.1663,29.1563 790.5413,28.5469 L790.0569,27.0313 C788.9631,27.4531 787.9475,27.6406 787.0881,27.6406 C784.3694,27.6406 782.6506,25.7969 782.6506,22.8906 C782.6506,20.1406 784.2131,18.5469 786.9475,18.5469 C787.8694,18.5469 788.885,18.7344 790.0256,19.1563 L790.6038,17.6406 C789.51,17.0625 788.2131,16.7656 787.0256,16.7656 C783.26,16.7656 780.6819,19.4063 780.6819,23.2188 C780.6819,26.8906 783.1663,29.4219 786.76,29.4219 Z " fill="#000000"/><text fill="#000000" font-family="sans-serif" font-size="14" lengthAdjust="spacing" textLength="51.9398" x="800.76" y="28.362">Ordered</text><line style="stroke:#181818;stroke-width:0.5;" x1="772.76" x2="854.6998" y1="39" y2="39"/><line style="stroke:#181818;stroke-width:0.5;" x1="772.76" x2="854.6998" y1="47" y2="47"/></g><!--class IDate--><g class="entity" data-entity="IDate" data-source-line="79" data-uid="ent0023" id="entity_IDate"><rect fill="#F1F1F1" height="48" rx="2.5" ry="2.5" style="stroke:#181818;stroke-width:0.5;" width="65.3059" x="1404.08" y="140.2"/><ellipse cx="1419.08" cy="156.2" fill="#ADD1B2" rx="11" ry="11" style="stroke:#181818;stroke-width:1;"/><path d="M1419.08,162.6219 C1420.2519,162.6219 1421.4863,162.3562 1422.8613,161.7469 L1422.3769,160.2312 C1421.2831,160.6531 1420.2675,160.8406 1419.4081,160.8406 C1416.6894,160.8406 1414.9706,158.9969 1414.9706,156.0906 C1414.9706,153.3406 1416.5331,151.7469 1419.2675,151.7469 C1420.1894,151.7469 1421.205,151.9344 1422.3456,152.3562 L1422.9238,150.8406 C1421.83,150.2625 1420.5331,149.9656 1419.3456,149.9656 C1415.58,149.9656 1413.0019,152.6062 1413.0019,156.4187 C1413.0019,160.0906 1415.4863,162.6219 1419.08,162.6219 Z " fill="#000000"/><text fill="#000000" font-family="sans-serif" font-size="14" lengthAdjust="spacing" textLength="33.3059" x="1433.08" y="161.562">IDate</text><line style="stroke:#181818;stroke-width:0.5;" x1="1405.08" x2="1468.3859" y1="172.2" y2="172.2"/><line style="stroke:#181818;stroke-width:0.5;" x1="1405.08" x2="1468.3859" y1="180.2" y2="180.2"/></g><!--reverse link Iso8601_type to Iso8601_date_time--><g class="link" data-entity-1="Iso8601_type" data-entity-2="Iso8601_date_time" data-source-line="69" data-uid="lnk8" id="link_Iso8601_type_Iso8601_date_time"><path codeLine="69" d="M701.5774,193.3856 C670.2974,201.2056 652.77,205.54 620.73,213.4 C510.18,240.53 475.63,226.89 371.73,273.4 C360.78,278.3 349.8,283.85 338.94,289.83" fill="none" id="Iso8601_type-backto-Iso8601_date_time" style="stroke:#181818;stroke-width:1;"/><polygon fill="none" points="719.04,189.02,700.1222,187.5648,703.0326,199.2065,719.04,189.02" style="stroke:#181818;stroke-width:1;"/></g><!--reverse link IDate_time to Iso8601_date_time--><g class="link" data-entity-1="IDate_time" data-entity-2="Iso8601_date_time" data-source-line="70" data-uid="lnk10" id="link_IDate_time_Iso8601_date_time"><path codeLine="70" d="M180.73,206.69 C180.73,230.61 180.73,251.54 180.73,289.87" fill="none" id="IDate_time-backto-Iso8601_date_time" style="stroke:#181818;stroke-width:1;"/><polygon fill="none" points="180.73,188.69,174.73,206.69,186.73,206.69,180.73,188.69" style="stroke:#181818;stroke-width:1;"/></g><!--reverse link Iso8601_type to Iso8601_duration--><g class="link" data-entity-1="Iso8601_type" data-entity-2="Iso8601_duration" data-source-line="71" data-uid="lnk11" id="link_Iso8601_type_Iso8601_duration"><path codeLine="71" d="M748.8054,226.1685 C730.2454,243.5885 721.46,251.85 699,272.95" fill="none" id="Iso8601_type-backto-Iso8601_duration" style="stroke:#181818;stroke-width:1;"/><polygon fill="none" points="761.93,213.85,744.6992,221.7936,752.9115,230.5433,761.93,213.85" style="stroke:#181818;stroke-width:1;"/></g><!--reverse link IDuration to Iso8601_duration--><g class="link" data-entity-1="IDuration" data-entity-2="Iso8601_duration" data-source-line="72" data-uid="lnk13" id="link_IDuration_Iso8601_duration"><path codeLine="72" d="M557.73,206.69 C557.73,227.13 557.73,240.52 557.73,273.13" fill="none" id="IDuration-backto-Iso8601_duration" style="stroke:#181818;stroke-width:1;"/><polygon fill="none" points="557.73,188.69,551.73,206.69,563.73,206.69,557.73,188.69" style="stroke:#181818;stroke-width:1;"/></g><!--reverse link Iso8601_type to Iso8601_time--><g class="link" data-entity-1="Iso8601_type" data-entity-2="Iso8601_time" data-source-line="73" data-uid="lnk14" id="link_Iso8601_type_Iso8601_time"><path codeLine="73" d="M835.8714,230.9064 C844.8914,257.6564 850.66,274.79 861.47,306.87" fill="none" id="Iso8601_type-backto-Iso8601_time" style="stroke:#181818;stroke-width:1;"/><polygon fill="none" points="830.12,213.85,830.1859,232.8236,841.5568,228.9893,830.12,213.85" style="stroke:#181818;stroke-width:1;"/></g><!--reverse link ITime to Iso8601_time--><g class="link" data-entity-1="ITime" data-entity-2="Iso8601_time" data-source-line="74" data-uid="lnk16" id="link_ITime_Iso8601_time"><path codeLine="74" d="M962.9087,205.7261 C953.5587,233.1361 943.3,263.21 928.53,306.53" fill="none" id="ITime-backto-Iso8601_time" style="stroke:#181818;stroke-width:1;"/><polygon fill="none" points="968.72,188.69,957.23,203.789,968.5874,207.6632,968.72,188.69" style="stroke:#181818;stroke-width:1;"/></g><!--reverse link Iso8601_type to Iso8601_timezone--><g class="link" data-entity-1="Iso8601_type" data-entity-2="Iso8601_timezone" data-source-line="75" data-uid="lnk17" id="link_Iso8601_type_Iso8601_timezone"><path codeLine="75" d="M924.9351,214.8577 C983.4451,241.2777 1033.27,264.52 1045.73,273.4 C1069.15,290.08 1091.92,311.37 1111.61,331.97" fill="none" id="Iso8601_type-backto-Iso8601_timezone" style="stroke:#181818;stroke-width:1;"/><polygon fill="none" points="908.53,207.45,922.4659,220.326,927.4043,209.3893,908.53,207.45" style="stroke:#181818;stroke-width:1;"/></g><!--reverse link ITimezone to Iso8601_timezone--><g class="link" data-entity-1="ITimezone" data-entity-2="Iso8601_timezone" data-source-line="76" data-uid="lnk19" id="link_ITimezone_Iso8601_timezone"><path codeLine="76" d="M1173.73,206.69 C1173.73,239.59 1173.73,282.88 1173.73,331.94" fill="none" id="ITimezone-backto-Iso8601_timezone" style="stroke:#181818;stroke-width:1;"/><polygon fill="none" points="1173.73,188.69,1167.73,206.69,1179.73,206.69,1173.73,188.69" style="stroke:#181818;stroke-width:1;"/></g><!--reverse link Ordered to Iso8601_type--><g class="link" data-entity-1="Ordered" data-entity-2="Iso8601_type" data-source-line="77" data-uid="lnk21" id="link_Ordered_Iso8601_type"><path codeLine="77" d="M813.73,73.46 C813.73,89.89 813.73,94.45 813.73,114.68" fill="none" id="Ordered-backto-Iso8601_type" style="stroke:#181818;stroke-width:1;"/><polygon fill="none" points="813.73,55.46,807.73,73.46,819.73,73.46,813.73,55.46" style="stroke:#181818;stroke-width:1;"/></g><!--reverse link Iso8601_type to Iso8601_date--><g class="link" data-entity-1="Iso8601_type" data-entity-2="Iso8601_date" data-source-line="78" data-uid="lnk22" id="link_Iso8601_type_Iso8601_date"><path codeLine="78" d="M925.4554,213.7993 C931.2454,215.8193 920.04,211.75 925.73,213.4 C1088.69,260.63 1151.33,196.83 1302.73,273.4 C1327.23,285.79 1350.08,304.28 1369.72,323.54" fill="none" id="Iso8601_type-backto-Iso8601_date" style="stroke:#181818;stroke-width:1;"/><polygon fill="none" points="908.46,207.87,923.479,219.4644,927.4318,208.1342,908.46,207.87" style="stroke:#181818;stroke-width:1;"/></g><!--reverse link IDate to Iso8601_date--><g class="link" data-entity-1="IDate" data-entity-2="Iso8601_date" data-source-line="79" data-uid="lnk24" id="link_IDate_Iso8601_date"><path codeLine="79" d="M1436.73,206.69 C1436.73,237.7 1436.73,275.93 1436.73,323.37" fill="none" id="IDate-backto-Iso8601_date" style="stroke:#181818;stroke-width:1;"/><polygon fill="none" points="1436.73,188.69,1430.73,206.69,1442.73,206.69,1436.73,188.69" style="stroke:#181818;stroke-width:1;"/></g></g></svg>
