<svg xmlns="http://www.w3.org/2000/svg" xmlns:xlink="http://www.w3.org/1999/xlink" contentStyleType="text/css" data-diagram-type="CLASS" height="445px" preserveAspectRatio="none" style="width:1149px;height:445px;background:#FFFFFF;" version="1.1" viewBox="0 0 1149 445" width="1149px" zoomAndPan="magnify"><defs/><g><!--class Uri--><g class="entity" data-entity="Uri" data-source-line="2" data-uid="ent0002" id="entity_Uri"><rect fill="#F1F1F1" height="48" rx="2.5" ry="2.5" style="stroke:#181818;stroke-width:0.5;" width="50.1159" x="142.49" y="32.2"/><ellipse cx="157.49" cy="48.2" fill="#ADD1B2" rx="11" ry="11" style="stroke:#181818;stroke-width:1;"/><path d="M157.49,54.6219 C158.6619,54.6219 159.8963,54.3562 161.2713,53.7469 L160.7869,52.2312 C159.6931,52.6531 158.6775,52.8406 157.8181,52.8406 C155.0994,52.8406 153.3806,50.9969 153.3806,48.0906 C153.3806,45.3406 154.9431,43.7469 157.6775,43.7469 C158.5994,43.7469 159.615,43.9344 160.7556,44.3562 L161.3338,42.8406 C160.24,42.2625 158.9431,41.9656 157.7556,41.9656 C153.99,41.9656 151.4119,44.6062 151.4119,48.4187 C151.4119,52.0906 153.8963,54.6219 157.49,54.6219 Z " fill="#000000"/><text fill="#000000" font-family="sans-serif" font-size="14" lengthAdjust="spacing" textLength="18.1159" x="171.49" y="53.562">Uri</text><line style="stroke:#181818;stroke-width:0.5;" x1="143.49" x2="191.6059" y1="64.2" y2="64.2"/><line style="stroke:#181818;stroke-width:0.5;" x1="143.49" x2="191.6059" y1="72.2" y2="72.2"/></g><!--class Comparable--><g class="entity" data-entity="Comparable" data-source-line="5" data-uid="ent0003" id="entity_Comparable"><rect fill="#F1F1F1" height="48" rx="2.5" ry="2.5" style="stroke:#181818;stroke-width:0.5;" width="108.2437" x="227.42" y="32.2"/><ellipse cx="242.42" cy="48.2" fill="#A9DCDF" rx="11" ry="11" style="stroke:#181818;stroke-width:1;"/><path d="M236.9356,53.7 L238.9669,53.7 L243.0138,42.3562 L242.1075,42.3562 L245.9356,53.7 L248.0763,53.7 L243.7481,41.3719 L241.5294,41.3719 L236.9356,53.7 Z M239.2638,50.2 L245.7013,50.2 L245.7013,48.45 L239.2638,48.45 L239.2638,50.2 Z " fill="#000000"/><text fill="#000000" font-family="sans-serif" font-size="14" font-style="italic" lengthAdjust="spacing" textLength="76.2437" x="256.42" y="53.562">Comparable</text><line style="stroke:#181818;stroke-width:0.5;" x1="228.42" x2="334.6637" y1="64.2" y2="64.2"/><line style="stroke:#181818;stroke-width:0.5;" x1="228.42" x2="334.6637" y1="72.2" y2="72.2"/></g><!--class Ordered_Numeric--><g class="entity" data-entity="Ordered_Numeric" data-source-line="8" data-uid="ent0004" id="entity_Ordered_Numeric"><rect fill="#F1F1F1" height="48" rx="2.5" ry="2.5" style="stroke:#181818;stroke-width:0.5;" width="144.3075" x="463.39" y="215.8"/><ellipse cx="478.39" cy="231.8" fill="#A9DCDF" rx="11" ry="11" style="stroke:#181818;stroke-width:1;"/><path d="M472.9056,237.3 L474.9369,237.3 L478.9838,225.9563 L478.0775,225.9563 L481.9056,237.3 L484.0463,237.3 L479.7181,224.9719 L477.4994,224.9719 L472.9056,237.3 Z M475.2338,233.8 L481.6713,233.8 L481.6713,232.05 L475.2338,232.05 L475.2338,233.8 Z " fill="#000000"/><text fill="#000000" font-family="sans-serif" font-size="14" font-style="italic" lengthAdjust="spacing" textLength="112.3075" x="492.39" y="237.162">Ordered_Numeric</text><line style="stroke:#181818;stroke-width:0.5;" x1="464.39" x2="606.6975" y1="247.8" y2="247.8"/><line style="stroke:#181818;stroke-width:0.5;" x1="464.39" x2="606.6975" y1="255.8" y2="255.8"/></g><!--class Integer--><g class="entity" data-entity="Integer" data-source-line="11" data-uid="ent0005" id="entity_Integer"><rect fill="#F1F1F1" height="48" rx="2.5" ry="2.5" style="stroke:#181818;stroke-width:0.5;" width="76.7718" x="314.16" y="382.6"/><ellipse cx="329.16" cy="398.6" fill="#ADD1B2" rx="11" ry="11" style="stroke:#181818;stroke-width:1;"/><path d="M329.16,405.0219 C330.3319,405.0219 331.5663,404.7563 332.9413,404.1469 L332.4569,402.6313 C331.3631,403.0531 330.3475,403.2406 329.4881,403.2406 C326.7694,403.2406 325.0506,401.3969 325.0506,398.4906 C325.0506,395.7406 326.6131,394.1469 329.3475,394.1469 C330.2694,394.1469 331.285,394.3344 332.4256,394.7563 L333.0038,393.2406 C331.91,392.6625 330.6131,392.3656 329.4256,392.3656 C325.66,392.3656 323.0819,395.0063 323.0819,398.8188 C323.0819,402.4906 325.5663,405.0219 329.16,405.0219 Z " fill="#000000"/><text fill="#000000" font-family="sans-serif" font-size="14" lengthAdjust="spacing" textLength="44.7718" x="343.16" y="403.962">Integer</text><line style="stroke:#181818;stroke-width:0.5;" x1="315.16" x2="389.9318" y1="414.6" y2="414.6"/><line style="stroke:#181818;stroke-width:0.5;" x1="315.16" x2="389.9318" y1="422.6" y2="422.6"/></g><!--class Double--><g class="entity" data-entity="Double" data-source-line="14" data-uid="ent0006" id="entity_Double"><rect fill="#F1F1F1" height="48" rx="2.5" ry="2.5" style="stroke:#181818;stroke-width:0.5;" width="76.9678" x="426.06" y="382.6"/><ellipse cx="441.06" cy="398.6" fill="#ADD1B2" rx="11" ry="11" style="stroke:#181818;stroke-width:1;"/><path d="M441.06,405.0219 C442.2319,405.0219 443.4663,404.7563 444.8413,404.1469 L444.3569,402.6313 C443.2631,403.0531 442.2475,403.2406 441.3881,403.2406 C438.6694,403.2406 436.9506,401.3969 436.9506,398.4906 C436.9506,395.7406 438.5131,394.1469 441.2475,394.1469 C442.1694,394.1469 443.185,394.3344 444.3256,394.7563 L444.9038,393.2406 C443.81,392.6625 442.5131,392.3656 441.3256,392.3656 C437.56,392.3656 434.9819,395.0063 434.9819,398.8188 C434.9819,402.4906 437.4663,405.0219 441.06,405.0219 Z " fill="#000000"/><text fill="#000000" font-family="sans-serif" font-size="14" lengthAdjust="spacing" textLength="44.9678" x="455.06" y="403.962">Double</text><line style="stroke:#181818;stroke-width:0.5;" x1="427.06" x2="502.0278" y1="414.6" y2="414.6"/><line style="stroke:#181818;stroke-width:0.5;" x1="427.06" x2="502.0278" y1="422.6" y2="422.6"/></g><!--class Numeric--><g class="entity" data-entity="Numeric" data-source-line="17" data-uid="ent0007" id="entity_Numeric"><rect fill="#F1F1F1" height="98.3998" rx="2.5" ry="2.5" style="stroke:#181818;stroke-width:0.5;" width="275.367" x="370.86" y="7"/><ellipse cx="477.6096" cy="23" fill="#A9DCDF" rx="11" ry="11" style="stroke:#181818;stroke-width:1;"/><path d="M472.1252,28.5 L474.1565,28.5 L478.2034,17.1563 L477.2971,17.1563 L481.1252,28.5 L483.2659,28.5 L478.9377,16.1719 L476.719,16.1719 L472.1252,28.5 Z M474.4534,25 L480.8909,25 L480.8909,23.25 L474.4534,23.25 L474.4534,25 Z " fill="#000000"/><text fill="#000000" font-family="sans-serif" font-size="14" font-style="italic" lengthAdjust="spacing" textLength="53.3678" x="498.1096" y="28.362">Numeric</text><line style="stroke:#181818;stroke-width:0.5;" x1="371.86" x2="645.227" y1="39" y2="39"/><line style="stroke:#181818;stroke-width:0.5;" x1="371.86" x2="645.227" y1="47" y2="47"/><ellipse cx="381.86" cy="60.9" fill="#84BE84" rx="3" ry="3" style="stroke:#038048;stroke-width:1;"/><text fill="#000000" font-family="sans-serif" font-size="14" font-style="italic" lengthAdjust="spacing" textLength="247.813" x="390.86" y="64.7619">infix *( other : Numeric [1] ) : Numeric [1]</text><ellipse cx="381.86" cy="77.6999" fill="#84BE84" rx="3" ry="3" style="stroke:#038048;stroke-width:1;"/><text fill="#000000" font-family="sans-serif" font-size="14" font-style="italic" lengthAdjust="spacing" textLength="249.367" x="390.86" y="81.5619">infix +( other : Numeric [1] ) : Numeric [1]</text><ellipse cx="381.86" cy="94.4998" fill="#84BE84" rx="3" ry="3" style="stroke:#038048;stroke-width:1;"/><text fill="#000000" font-family="sans-serif" font-size="14" font-style="italic" lengthAdjust="spacing" textLength="247.183" x="390.86" y="98.3618">infix -( other : Numeric [1] ) : Numeric [1]</text></g><!--class Octet--><g class="entity" data-entity="Octet" data-source-line="23" data-uid="ent0008" id="entity_Octet"><rect fill="#F1F1F1" height="48" rx="2.5" ry="2.5" style="stroke:#181818;stroke-width:0.5;" width="66.6779" x="669.21" y="215.8"/><ellipse cx="684.21" cy="231.8" fill="#ADD1B2" rx="11" ry="11" style="stroke:#181818;stroke-width:1;"/><path d="M684.21,238.2219 C685.3819,238.2219 686.6163,237.9563 687.9913,237.3469 L687.5069,235.8313 C686.4131,236.2531 685.3975,236.4406 684.5381,236.4406 C681.8194,236.4406 680.1006,234.5969 680.1006,231.6906 C680.1006,228.9406 681.6631,227.3469 684.3975,227.3469 C685.3194,227.3469 686.335,227.5344 687.4756,227.9563 L688.0538,226.4406 C686.96,225.8625 685.6631,225.5656 684.4756,225.5656 C680.71,225.5656 678.1319,228.2063 678.1319,232.0188 C678.1319,235.6906 680.6163,238.2219 684.21,238.2219 Z " fill="#000000"/><text fill="#000000" font-family="sans-serif" font-size="14" lengthAdjust="spacing" textLength="34.6779" x="698.21" y="237.162">Octet</text><line style="stroke:#181818;stroke-width:0.5;" x1="670.21" x2="734.8879" y1="247.8" y2="247.8"/><line style="stroke:#181818;stroke-width:0.5;" x1="670.21" x2="734.8879" y1="255.8" y2="255.8"/></g><!--class Character--><g class="entity" data-entity="Character" data-source-line="26" data-uid="ent0009" id="entity_Character"><rect fill="#F1F1F1" height="48" rx="2.5" ry="2.5" style="stroke:#181818;stroke-width:0.5;" width="92.8438" x="771.12" y="215.8"/><ellipse cx="786.12" cy="231.8" fill="#ADD1B2" rx="11" ry="11" style="stroke:#181818;stroke-width:1;"/><path d="M786.12,238.2219 C787.2919,238.2219 788.5263,237.9563 789.9013,237.3469 L789.4169,235.8313 C788.3231,236.2531 787.3075,236.4406 786.4481,236.4406 C783.7294,236.4406 782.0106,234.5969 782.0106,231.6906 C782.0106,228.9406 783.5731,227.3469 786.3075,227.3469 C787.2294,227.3469 788.245,227.5344 789.3856,227.9563 L789.9638,226.4406 C788.87,225.8625 787.5731,225.5656 786.3856,225.5656 C782.62,225.5656 780.0419,228.2063 780.0419,232.0188 C780.0419,235.6906 782.5263,238.2219 786.12,238.2219 Z " fill="#000000"/><text fill="#000000" font-family="sans-serif" font-size="14" lengthAdjust="spacing" textLength="60.8438" x="800.12" y="237.162">Character</text><line style="stroke:#181818;stroke-width:0.5;" x1="772.12" x2="862.9638" y1="247.8" y2="247.8"/><line style="stroke:#181818;stroke-width:0.5;" x1="772.12" x2="862.9638" y1="255.8" y2="255.8"/></g><!--class Boolean--><g class="entity" data-entity="Boolean" data-source-line="29" data-uid="ent0010" id="entity_Boolean"><rect fill="#F1F1F1" height="148.7996" rx="2.5" ry="2.5" style="stroke:#181818;stroke-width:0.5;" width="321.0909" x="7" y="165.4"/><ellipse cx="137.7525" cy="181.4" fill="#ADD1B2" rx="11" ry="11" style="stroke:#181818;stroke-width:1;"/><path d="M137.7525,187.8219 C138.9244,187.8219 140.1588,187.5562 141.5338,186.9469 L141.0494,185.4312 C139.9557,185.8531 138.94,186.0406 138.0807,186.0406 C135.3619,186.0406 133.6432,184.1969 133.6432,181.2906 C133.6432,178.5406 135.2057,176.9469 137.94,176.9469 C138.8619,176.9469 139.8775,177.1344 141.0182,177.5562 L141.5963,176.0406 C140.5025,175.4625 139.2057,175.1656 138.0182,175.1656 C134.2525,175.1656 131.6744,177.8062 131.6744,181.6187 C131.6744,185.2906 134.1588,187.8219 137.7525,187.8219 Z " fill="#000000"/><text fill="#000000" font-family="sans-serif" font-size="14" lengthAdjust="spacing" textLength="51.0858" x="158.2525" y="186.762">Boolean</text><line style="stroke:#181818;stroke-width:0.5;" x1="8" x2="327.0909" y1="197.4" y2="197.4"/><line style="stroke:#181818;stroke-width:0.5;" x1="8" x2="327.0909" y1="205.4" y2="205.4"/><ellipse cx="18" cy="219.3" fill="#84BE84" rx="3" ry="3" style="stroke:#038048;stroke-width:1;"/><text fill="#000000" font-family="sans-serif" font-size="14" lengthAdjust="spacing" textLength="259.769" x="27" y="223.1619">infix and( other : Boolean [1] ) : Boolean [1]</text><ellipse cx="18" cy="236.0999" fill="#84BE84" rx="3" ry="3" style="stroke:#038048;stroke-width:1;"/><text fill="#000000" font-family="sans-serif" font-size="14" lengthAdjust="spacing" textLength="295.0909" x="27" y="239.9619">infix and_then( other : Boolean [1] ) : Boolean [1]</text><ellipse cx="18" cy="252.8998" fill="#84BE84" rx="3" ry="3" style="stroke:#038048;stroke-width:1;"/><text fill="#000000" font-family="sans-serif" font-size="14" lengthAdjust="spacing" textLength="249.899" x="27" y="256.7618">infix or( other : Boolean [1] ) : Boolean [1]</text><ellipse cx="18" cy="269.6997" fill="#84BE84" rx="3" ry="3" style="stroke:#038048;stroke-width:1;"/><text fill="#000000" font-family="sans-serif" font-size="14" lengthAdjust="spacing" textLength="282.0709" x="27" y="273.5617">infix or_else( other : Boolean [1] ) : Boolean [1]</text><ellipse cx="18" cy="286.4997" fill="#84BE84" rx="3" ry="3" style="stroke:#038048;stroke-width:1;"/><text fill="#000000" font-family="sans-serif" font-size="14" lengthAdjust="spacing" textLength="256.465" x="27" y="290.3616">infix xor( other : Boolean [1] ) : Boolean [1]</text><ellipse cx="18" cy="303.2996" fill="#84BE84" rx="3" ry="3" style="stroke:#038048;stroke-width:1;"/><text fill="#000000" font-family="sans-serif" font-size="14" lengthAdjust="spacing" textLength="281.7489" x="27" y="307.1616">infix implies( other : Boolean [1] ) : Boolean [1]</text></g><!--class String--><g class="entity" data-entity="String" data-source-line="38" data-uid="ent0011" id="entity_String"><rect fill="#F1F1F1" height="115.1997" rx="2.5" ry="2.5" style="stroke:#181818;stroke-width:0.5;" width="243.5032" x="898.79" y="182.2"/><ellipse cx="997.5737" cy="198.2" fill="#ADD1B2" rx="11" ry="11" style="stroke:#181818;stroke-width:1;"/><path d="M997.5737,204.6219 C998.7455,204.6219 999.9799,204.3563 1001.3549,203.7469 L1000.8705,202.2313 C999.7768,202.6531 998.7612,202.8406 997.9018,202.8406 C995.183,202.8406 993.4643,200.9969 993.4643,198.0906 C993.4643,195.3406 995.0268,193.7469 997.7612,193.7469 C998.683,193.7469 999.6987,193.9344 1000.8393,194.3563 L1001.4174,192.8406 C1000.3237,192.2625 999.0268,191.9656 997.8393,191.9656 C994.0737,191.9656 991.4955,194.6063 991.4955,198.4188 C991.4955,202.0906 993.9799,204.6219 997.5737,204.6219 Z " fill="#000000"/><text fill="#000000" font-family="sans-serif" font-size="14" lengthAdjust="spacing" textLength="37.4359" x="1018.0737" y="203.562">String</text><line style="stroke:#181818;stroke-width:0.5;" x1="899.79" x2="1141.2932" y1="214.2" y2="214.2"/><line style="stroke:#181818;stroke-width:0.5;" x1="899.79" x2="1141.2932" y1="222.2" y2="222.2"/><ellipse cx="909.79" cy="236.1" fill="#84BE84" rx="3" ry="3" style="stroke:#038048;stroke-width:1;"/><text fill="#000000" font-family="sans-serif" font-size="14" lengthAdjust="spacing" textLength="217.5032" x="918.79" y="239.9619">infix +( other : String [1] ) : String [1]</text><ellipse cx="909.79" cy="252.8999" fill="#84BE84" rx="3" ry="3" style="stroke:#038048;stroke-width:1;"/><text fill="#000000" font-family="sans-serif" font-size="14" lengthAdjust="spacing" textLength="144.5634" x="918.79" y="256.7619">is_empty() : Boolean [1]</text><ellipse cx="909.79" cy="269.6998" fill="#84BE84" rx="3" ry="3" style="stroke:#038048;stroke-width:1;"/><text fill="#000000" font-family="sans-serif" font-size="14" lengthAdjust="spacing" textLength="149.4774" x="918.79" y="273.5618">is_integer() : Boolean [1]</text><ellipse cx="909.79" cy="286.4997" fill="#84BE84" rx="3" ry="3" style="stroke:#038048;stroke-width:1;"/><text fill="#000000" font-family="sans-serif" font-size="14" lengthAdjust="spacing" textLength="146.8874" x="918.79" y="290.3617">as_integer() : Integer [1]</text></g><!--class Real--><g class="entity" data-entity="Real" data-source-line="45" data-uid="ent0012" id="entity_Real"><rect fill="#F1F1F1" height="64.7999" rx="2.5" ry="2.5" style="stroke:#181818;stroke-width:0.5;" width="137.5516" x="537.77" y="374.2"/><ellipse cx="588.7299" cy="390.2" fill="#ADD1B2" rx="11" ry="11" style="stroke:#181818;stroke-width:1;"/><path d="M588.7299,396.6219 C589.9017,396.6219 591.1361,396.3563 592.5111,395.7469 L592.0267,394.2313 C590.933,394.6531 589.9174,394.8406 589.058,394.8406 C586.3392,394.8406 584.6205,392.9969 584.6205,390.0906 C584.6205,387.3406 586.183,385.7469 588.9174,385.7469 C589.8392,385.7469 590.8549,385.9344 591.9955,386.3563 L592.5736,384.8406 C591.4799,384.2625 590.183,383.9656 588.9955,383.9656 C585.2299,383.9656 582.6517,386.6063 582.6517,390.4188 C582.6517,394.0906 585.1361,396.6219 588.7299,396.6219 Z " fill="#000000"/><text fill="#000000" font-family="sans-serif" font-size="14" lengthAdjust="spacing" textLength="27.1319" x="609.2299" y="395.562">Real</text><line style="stroke:#181818;stroke-width:0.5;" x1="538.77" x2="674.3216" y1="406.2" y2="406.2"/><line style="stroke:#181818;stroke-width:0.5;" x1="538.77" x2="674.3216" y1="414.2" y2="414.2"/><ellipse cx="548.77" cy="428.1" fill="#84BE84" rx="3" ry="3" style="stroke:#038048;stroke-width:1;"/><text fill="#000000" font-family="sans-serif" font-size="14" lengthAdjust="spacing" textLength="111.5516" x="557.77" y="431.9619">floor() : Integer [1]</text></g><!--class Integer64--><g class="entity" data-entity="Integer64" data-source-line="49" data-uid="ent0013" id="entity_Integer64"><rect fill="#F1F1F1" height="48" rx="2.5" ry="2.5" style="stroke:#181818;stroke-width:0.5;" width="93.2918" x="709.9" y="382.6"/><ellipse cx="724.9" cy="398.6" fill="#ADD1B2" rx="11" ry="11" style="stroke:#181818;stroke-width:1;"/><path d="M724.9,405.0219 C726.0719,405.0219 727.3063,404.7563 728.6813,404.1469 L728.1969,402.6313 C727.1031,403.0531 726.0875,403.2406 725.2281,403.2406 C722.5094,403.2406 720.7906,401.3969 720.7906,398.4906 C720.7906,395.7406 722.3531,394.1469 725.0875,394.1469 C726.0094,394.1469 727.025,394.3344 728.1656,394.7563 L728.7438,393.2406 C727.65,392.6625 726.3531,392.3656 725.1656,392.3656 C721.4,392.3656 718.8219,395.0063 718.8219,398.8188 C718.8219,402.4906 721.3063,405.0219 724.9,405.0219 Z " fill="#000000"/><text fill="#000000" font-family="sans-serif" font-size="14" lengthAdjust="spacing" textLength="61.2918" x="738.9" y="403.962">Integer64</text><line style="stroke:#181818;stroke-width:0.5;" x1="710.9" x2="802.1918" y1="414.6" y2="414.6"/><line style="stroke:#181818;stroke-width:0.5;" x1="710.9" x2="802.1918" y1="422.6" y2="422.6"/></g><!--class Ordered--><g class="entity" data-entity="Ordered" data-source-line="52" data-uid="ent0014" id="entity_Ordered"><rect fill="#F1F1F1" height="64.7999" rx="2.5" ry="2.5" style="stroke:#181818;stroke-width:0.5;" width="271.657" x="681.72" y="23.8"/><ellipse cx="787.3286" cy="39.8" fill="#A9DCDF" rx="11" ry="11" style="stroke:#181818;stroke-width:1;"/><path d="M781.8443,45.3 L783.8755,45.3 L787.9224,33.9563 L787.0161,33.9563 L790.8443,45.3 L792.9849,45.3 L788.6568,32.9719 L786.438,32.9719 L781.8443,45.3 Z M784.1724,41.8 L790.6099,41.8 L790.6099,40.05 L784.1724,40.05 L784.1724,41.8 Z " fill="#000000"/><text fill="#000000" font-family="sans-serif" font-size="14" font-style="italic" lengthAdjust="spacing" textLength="51.9398" x="807.8286" y="45.162">Ordered</text><line style="stroke:#181818;stroke-width:0.5;" x1="682.72" x2="952.377" y1="55.8" y2="55.8"/><line style="stroke:#181818;stroke-width:0.5;" x1="682.72" x2="952.377" y1="63.8" y2="63.8"/><ellipse cx="692.72" cy="77.7" fill="#84BE84" rx="3" ry="3" style="stroke:#038048;stroke-width:1;"/><text fill="#000000" font-family="sans-serif" font-size="14" font-style="italic" lengthAdjust="spacing" textLength="245.657" x="701.72" y="81.5619">infix &lt;( other : Ordered [1] ) : Boolean [1]</text></g><!--reverse link Ordered to Ordered_Numeric--><g class="link" data-entity-1="Ordered" data-entity-2="Ordered_Numeric" data-source-line="56" data-uid="lnk15" id="link_Ordered_Ordered_Numeric"><path codeLine="56" d="M752.9668,98.786 C696.8968,134.896 621.91,183.18 571.92,215.38" fill="none" id="Ordered-backto-Ordered_Numeric" style="stroke:#181818;stroke-width:1;"/><polygon fill="none" points="768.1,89.04,749.7181,93.7416,756.2155,103.8305,768.1,89.04" style="stroke:#181818;stroke-width:1;"/></g><!--reverse link Numeric to Ordered_Numeric--><g class="link" data-entity-1="Numeric" data-entity-2="Ordered_Numeric" data-source-line="57" data-uid="lnk16" id="link_Numeric_Ordered_Numeric"><path codeLine="57" d="M518.4273,123.6743 C523.7073,159.1843 527.98,187.94 532.08,215.48" fill="none" id="Numeric-backto-Ordered_Numeric" style="stroke:#181818;stroke-width:1;"/><polygon fill="none" points="515.78,105.87,512.4926,124.5567,524.3621,122.7918,515.78,105.87" style="stroke:#181818;stroke-width:1;"/></g><!--reverse link Ordered_Numeric to Integer--><g class="link" data-entity-1="Ordered_Numeric" data-entity-2="Integer" data-source-line="58" data-uid="lnk17" id="link_Ordered_Numeric_Integer"><path codeLine="58" d="M496.3359,276.1071 C461.5659,307.4271 413.4,350.79 378.54,382.19" fill="none" id="Ordered_Numeric-backto-Integer" style="stroke:#181818;stroke-width:1;"/><polygon fill="none" points="509.71,264.06,492.3202,271.6491,500.3516,280.5651,509.71,264.06" style="stroke:#181818;stroke-width:1;"/></g><!--reverse link Ordered_Numeric to Double--><g class="link" data-entity-1="Ordered_Numeric" data-entity-2="Double" data-source-line="59" data-uid="lnk18" id="link_Ordered_Numeric_Double"><path codeLine="59" d="M518.3995,280.5918 C504.9095,311.9118 488.16,350.79 474.63,382.19" fill="none" id="Ordered_Numeric-backto-Double" style="stroke:#181818;stroke-width:1;"/><polygon fill="none" points="525.52,264.06,512.8889,278.2183,523.9101,282.9652,525.52,264.06" style="stroke:#181818;stroke-width:1;"/></g><!--reverse link Ordered to Octet--><g class="link" data-entity-1="Ordered" data-entity-2="Octet" data-source-line="60" data-uid="lnk19" id="link_Ordered_Octet"><path codeLine="60" d="M787.8823,104.0388 C765.0423,140.1188 737.85,183.05 717.41,215.32" fill="none" id="Ordered-backto-Octet" style="stroke:#181818;stroke-width:1;"/><polygon fill="none" points="797.51,88.83,782.8127,100.8295,792.9519,107.248,797.51,88.83" style="stroke:#181818;stroke-width:1;"/></g><!--reverse link Ordered to Character--><g class="link" data-entity-1="Ordered" data-entity-2="Character" data-source-line="61" data-uid="lnk20" id="link_Ordered_Character"><path codeLine="61" d="M817.55,106.83 C817.55,142.91 817.55,183.05 817.55,215.32" fill="none" id="Ordered-backto-Character" style="stroke:#181818;stroke-width:1;"/><polygon fill="none" points="817.55,88.83,811.55,106.83,823.55,106.83,817.55,88.83" style="stroke:#181818;stroke-width:1;"/></g><!--reverse link Ordered to String--><g class="link" data-entity-1="Ordered" data-entity-2="String" data-source-line="62" data-uid="lnk21" id="link_Ordered_String"><path codeLine="62" d="M866.3237,100.833 C894.9437,126.443 922.59,151.17 956.91,181.87" fill="none" id="Ordered-backto-String" style="stroke:#181818;stroke-width:1;"/><polygon fill="none" points="852.91,88.83,862.3227,105.3042,870.3247,96.3617,852.91,88.83" style="stroke:#181818;stroke-width:1;"/></g><!--reverse link Ordered_Numeric to Real--><g class="link" data-entity-1="Ordered_Numeric" data-entity-2="Real" data-source-line="63" data-uid="lnk22" id="link_Ordered_Numeric_Real"><path codeLine="63" d="M552.689,280.5924 C565.069,309.3424 579.08,341.85 592.93,373.99" fill="none" id="Ordered_Numeric-backto-Real" style="stroke:#181818;stroke-width:1;"/><polygon fill="none" points="545.57,264.06,547.1782,282.9654,558.1998,278.2194,545.57,264.06" style="stroke:#181818;stroke-width:1;"/></g><!--reverse link Ordered_Numeric to Integer64--><g class="link" data-entity-1="Ordered_Numeric" data-entity-2="Integer64" data-source-line="64" data-uid="lnk23" id="link_Ordered_Numeric_Integer64"><path codeLine="64" d="M581.1696,274.8204 C623.1696,306.1404 683.05,350.79 725.15,382.19" fill="none" id="Ordered_Numeric-backto-Integer64" style="stroke:#181818;stroke-width:1;"/><polygon fill="none" points="566.74,264.06,577.5828,279.6303,584.7564,270.0105,566.74,264.06" style="stroke:#181818;stroke-width:1;"/></g></g></svg>
