<svg xmlns="http://www.w3.org/2000/svg" xmlns:xlink="http://www.w3.org/1999/xlink" contentStyleType="text/css" data-diagram-type="CLASS" height="256px" preserveAspectRatio="none" style="width:599px;height:256px;background:#FFFFFF;" version="1.1" viewBox="0 0 599 256" width="599px" zoomAndPan="magnify"><defs/><g><!--class Hash--><g class="entity" data-entity="Hash" data-source-line="2" data-uid="ent0002" id="entity_Hash"><rect fill="#F1F1F1" height="81.5999" rx="2.5" ry="2.5" style="stroke:#181818;stroke-width:0.5;" width="242.2151" x="7" y="168.4"/><ellipse cx="95.8876" cy="184.4" fill="#ADD1B2" rx="11" ry="11" style="stroke:#181818;stroke-width:1;"/><path d="M95.8876,190.8219 C97.0594,190.8219 98.2938,190.5563 99.6688,189.9469 L99.1844,188.4313 C98.0907,188.8531 97.0751,189.0406 96.2157,189.0406 C93.4969,189.0406 91.7782,187.1969 91.7782,184.2906 C91.7782,181.5406 93.3407,179.9469 96.0751,179.9469 C96.9969,179.9469 98.0126,180.1344 99.1532,180.5563 L99.7313,179.0406 C98.6376,178.4625 97.3407,178.1656 96.1532,178.1656 C92.3876,178.1656 89.8094,180.8063 89.8094,184.6188 C89.8094,188.2906 92.2938,190.8219 95.8876,190.8219 Z " fill="#000000"/><text fill="#000000" font-family="sans-serif" font-size="14" lengthAdjust="spacing" textLength="31.6959" x="116.3876" y="189.762">Hash</text><rect fill="#FFFFFF" height="16.4001" style="stroke:#181818;stroke-width:1;stroke-dasharray:2,2;" width="22.2441" x="229.971" y="165.4"/><text fill="#000000" font-family="sans-serif" font-size="12" font-style="italic" lengthAdjust="spacing" textLength="20.2441" x="230.971" y="178.1961">K, V</text><line style="stroke:#181818;stroke-width:0.5;" x1="8" x2="248.2151" y1="200.4" y2="200.4"/><line style="stroke:#181818;stroke-width:0.5;" x1="8" x2="248.2151" y1="208.4" y2="208.4"/><ellipse cx="18" cy="222.3" fill="#84BE84" rx="3" ry="3" style="stroke:#038048;stroke-width:1;"/><text fill="#000000" font-family="sans-serif" font-size="14" lengthAdjust="spacing" textLength="216.2151" x="27" y="226.1619">has_key( a_key : K [1] ) : Boolean [1]</text><ellipse cx="18" cy="239.0999" fill="#84BE84" rx="3" ry="3" style="stroke:#038048;stroke-width:1;"/><text fill="#000000" font-family="sans-serif" font-size="14" lengthAdjust="spacing" textLength="152.1794" x="27" y="242.9619">item( a_key : K [1] ) : V [1]</text></g><!--class Container--><g class="entity" data-entity="Container" data-source-line="7" data-uid="ent0003" id="entity_Container"><rect fill="#F1F1F1" height="98.3998" rx="2.5" ry="2.5" style="stroke:#181818;stroke-width:0.5;" width="185.0114" x="296.6" y="10"/><ellipse cx="348.8698" cy="26" fill="#A9DCDF" rx="11" ry="11" style="stroke:#181818;stroke-width:1;"/><path d="M343.3854,31.5 L345.4166,31.5 L349.4635,20.1563 L348.5573,20.1563 L352.3854,31.5 L354.526,31.5 L350.1979,19.1719 L347.9791,19.1719 L343.3854,31.5 Z M345.7135,28 L352.151,28 L352.151,26.25 L345.7135,26.25 L345.7135,28 Z " fill="#000000"/><text fill="#000000" font-family="sans-serif" font-size="14" font-style="italic" lengthAdjust="spacing" textLength="61.1798" x="369.3698" y="31.362">Container</text><rect fill="#FFFFFF" height="16.4001" style="stroke:#181818;stroke-width:1;stroke-dasharray:2,2;" width="8.7921" x="475.8193" y="7"/><text fill="#000000" font-family="sans-serif" font-size="12" font-style="italic" lengthAdjust="spacing" textLength="6.7921" x="476.8193" y="19.7961">T</text><line style="stroke:#181818;stroke-width:0.5;" x1="297.6" x2="480.6114" y1="42" y2="42"/><line style="stroke:#181818;stroke-width:0.5;" x1="297.6" x2="480.6114" y1="50" y2="50"/><ellipse cx="307.6" cy="63.9" fill="#84BE84" rx="3" ry="3" style="stroke:#038048;stroke-width:1;"/><text fill="#000000" font-family="sans-serif" font-size="14" font-style="italic" lengthAdjust="spacing" textLength="159.0114" x="316.6" y="67.7619">has( v : T [1] ) : Boolean [1]</text><ellipse cx="307.6" cy="80.6999" fill="#84BE84" rx="3" ry="3" style="stroke:#038048;stroke-width:1;"/><text fill="#000000" font-family="sans-serif" font-size="14" font-style="italic" lengthAdjust="spacing" textLength="117.0256" x="316.6" y="84.5619">count() : Integer [1]</text><ellipse cx="307.6" cy="97.4998" fill="#84BE84" rx="3" ry="3" style="stroke:#038048;stroke-width:1;"/><text fill="#000000" font-family="sans-serif" font-size="14" font-style="italic" lengthAdjust="spacing" textLength="144.5634" x="316.6" y="101.3618">is_empty() : Boolean [1]</text></g><!--class List--><g class="entity" data-entity="List" data-source-line="13" data-uid="ent0004" id="entity_List"><rect fill="#F1F1F1" height="81.5999" rx="2.5" ry="2.5" style="stroke:#181818;stroke-width:0.5;" width="95.9297" x="284.14" y="168.4"/><ellipse cx="313.1169" cy="184.4" fill="#ADD1B2" rx="11" ry="11" style="stroke:#181818;stroke-width:1;"/><path d="M313.1169,190.8219 C314.2888,190.8219 315.5231,190.5563 316.8981,189.9469 L316.4138,188.4313 C315.32,188.8531 314.3044,189.0406 313.445,189.0406 C310.7263,189.0406 309.0075,187.1969 309.0075,184.2906 C309.0075,181.5406 310.57,179.9469 313.3044,179.9469 C314.2263,179.9469 315.2419,180.1344 316.3825,180.5563 L316.9606,179.0406 C315.8669,178.4625 314.57,178.1656 313.3825,178.1656 C309.6169,178.1656 307.0388,180.8063 307.0388,184.6188 C307.0388,188.2906 309.5231,190.8219 313.1169,190.8219 Z " fill="#000000"/><text fill="#000000" font-family="sans-serif" font-size="14" lengthAdjust="spacing" textLength="22.0779" x="330.2229" y="189.762">List</text><rect fill="#FFFFFF" height="16.4001" style="stroke:#181818;stroke-width:1;stroke-dasharray:2,2;" width="8.7921" x="374.2777" y="165.4"/><text fill="#000000" font-family="sans-serif" font-size="12" font-style="italic" lengthAdjust="spacing" textLength="6.7921" x="375.2777" y="178.1961">T</text><line style="stroke:#181818;stroke-width:0.5;" x1="285.14" x2="379.0697" y1="200.4" y2="200.4"/><line style="stroke:#181818;stroke-width:0.5;" x1="285.14" x2="379.0697" y1="208.4" y2="208.4"/><ellipse cx="295.14" cy="222.3" fill="#84BE84" rx="3" ry="3" style="stroke:#038048;stroke-width:1;"/><text fill="#000000" font-family="sans-serif" font-size="14" lengthAdjust="spacing" textLength="69.9297" x="304.14" y="226.1619">first() : T [1]</text><ellipse cx="295.14" cy="239.0999" fill="#84BE84" rx="3" ry="3" style="stroke:#038048;stroke-width:1;"/><text fill="#000000" font-family="sans-serif" font-size="14" lengthAdjust="spacing" textLength="67.5077" x="304.14" y="242.9619">last() : T [1]</text></g><!--class Set--><g class="entity" data-entity="Set" data-source-line="18" data-uid="ent0005" id="entity_Set"><rect fill="#F1F1F1" height="48" rx="2.5" ry="2.5" style="stroke:#181818;stroke-width:0.5;" width="62.98" x="414.62" y="185.2"/><ellipse cx="429.62" cy="201.2" fill="#ADD1B2" rx="11" ry="11" style="stroke:#181818;stroke-width:1;"/><path d="M429.62,207.6219 C430.7919,207.6219 432.0263,207.3563 433.4013,206.7469 L432.9169,205.2313 C431.8231,205.6531 430.8075,205.8406 429.9481,205.8406 C427.2294,205.8406 425.5106,203.9969 425.5106,201.0906 C425.5106,198.3406 427.0731,196.7469 429.8075,196.7469 C430.7294,196.7469 431.745,196.9344 432.8856,197.3563 L433.4638,195.8406 C432.37,195.2625 431.0731,194.9656 429.8856,194.9656 C426.12,194.9656 423.5419,197.6063 423.5419,201.4188 C423.5419,205.0906 426.0263,207.6219 429.62,207.6219 Z " fill="#000000"/><text fill="#000000" font-family="sans-serif" font-size="14" lengthAdjust="spacing" textLength="20.1879" x="443.62" y="206.562">Set</text><rect fill="#FFFFFF" height="16.4001" style="stroke:#181818;stroke-width:1;stroke-dasharray:2,2;" width="8.7921" x="471.8079" y="182.2"/><text fill="#000000" font-family="sans-serif" font-size="12" font-style="italic" lengthAdjust="spacing" textLength="6.7921" x="472.8079" y="194.9961">T</text><line style="stroke:#181818;stroke-width:0.5;" x1="415.62" x2="476.6" y1="217.2" y2="217.2"/><line style="stroke:#181818;stroke-width:0.5;" x1="415.62" x2="476.6" y1="225.2" y2="225.2"/></g><!--class Array--><g class="entity" data-entity="Array" data-source-line="21" data-uid="ent0006" id="entity_Array"><rect fill="#F1F1F1" height="48" rx="2.5" ry="2.5" style="stroke:#181818;stroke-width:0.5;" width="75.9999" x="512.11" y="185.2"/><ellipse cx="527.11" cy="201.2" fill="#ADD1B2" rx="11" ry="11" style="stroke:#181818;stroke-width:1;"/><path d="M527.11,207.6219 C528.2819,207.6219 529.5163,207.3563 530.8913,206.7469 L530.4069,205.2313 C529.3131,205.6531 528.2975,205.8406 527.4381,205.8406 C524.7194,205.8406 523.0006,203.9969 523.0006,201.0906 C523.0006,198.3406 524.5631,196.7469 527.2975,196.7469 C528.2194,196.7469 529.235,196.9344 530.3756,197.3563 L530.9538,195.8406 C529.86,195.2625 528.5631,194.9656 527.3756,194.9656 C523.61,194.9656 521.0319,197.6063 521.0319,201.4188 C521.0319,205.0906 523.5163,207.6219 527.11,207.6219 Z " fill="#000000"/><text fill="#000000" font-family="sans-serif" font-size="14" lengthAdjust="spacing" textLength="33.2079" x="541.11" y="206.562">Array</text><rect fill="#FFFFFF" height="16.4001" style="stroke:#181818;stroke-width:1;stroke-dasharray:2,2;" width="8.7921" x="582.3179" y="182.2"/><text fill="#000000" font-family="sans-serif" font-size="12" font-style="italic" lengthAdjust="spacing" textLength="6.7921" x="583.3179" y="194.9961">T</text><line style="stroke:#181818;stroke-width:0.5;" x1="513.11" x2="587.1099" y1="217.2" y2="217.2"/><line style="stroke:#181818;stroke-width:0.5;" x1="513.11" x2="587.1099" y1="225.2" y2="225.2"/></g><!--reverse link Container to Hash--><g class="link" data-entity-1="Container" data-entity-2="Hash" data-source-line="24" data-uid="lnk7" id="link_Container_Hash"><path codeLine="24" d="M287.622,117.7484 C253.902,136.8684 231.3,149.68 199.16,167.91" fill="none" id="Container-backto-Hash" style="stroke:#181818;stroke-width:1;"/><polygon fill="none" points="303.28,108.87,284.6625,112.5291,290.5815,122.9678,303.28,108.87" style="stroke:#181818;stroke-width:1;"/></g><!--reverse link Container to List--><g class="link" data-entity-1="Container" data-entity-2="List" data-source-line="25" data-uid="lnk8" id="link_Container_List"><path codeLine="25" d="M363.9725,125.458 C356.5725,144.678 354.63,149.72 347.57,168.04" fill="none" id="Container-backto-List" style="stroke:#181818;stroke-width:1;"/><polygon fill="none" points="370.44,108.66,358.3732,123.3021,369.5718,127.6138,370.44,108.66" style="stroke:#181818;stroke-width:1;"/></g><!--reverse link Container to Set--><g class="link" data-entity-1="Container" data-entity-2="Set" data-source-line="26" data-uid="lnk9" id="link_Container_Set"><path codeLine="26" d="M414.2386,125.4575 C424.1086,151.0875 429.31,164.58 437.15,184.95" fill="none" id="Container-backto-Set" style="stroke:#181818;stroke-width:1;"/><polygon fill="none" points="407.77,108.66,408.6395,127.6137,419.8378,123.3013,407.77,108.66" style="stroke:#181818;stroke-width:1;"/></g><!--reverse link Container to Array--><g class="link" data-entity-1="Container" data-entity-2="Array" data-source-line="27" data-uid="lnk10" id="link_Container_Array"><path codeLine="27" d="M455.0714,120.842 C482.9514,146.472 502.65,164.58 524.82,184.95" fill="none" id="Container-backto-Array" style="stroke:#181818;stroke-width:1;"/><polygon fill="none" points="441.82,108.66,451.0107,125.2591,459.1321,116.4248,441.82,108.66" style="stroke:#181818;stroke-width:1;"/></g></g></svg>
