<svg xmlns="http://www.w3.org/2000/svg" xmlns:xlink="http://www.w3.org/1999/xlink" contentStyleType="text/css" data-diagram-type="CLASS" height="765px" preserveAspectRatio="none" style="width:1897px;height:765px;background:#FFFFFF;" version="1.1" viewBox="0 0 1897 765" width="1897px" zoomAndPan="magnify"><defs/><g><!--class BMM_MODEL_ACCESS--><g class="entity" data-entity="BMM_MODEL_ACCESS" data-source-line="2" data-uid="ent0002" id="entity_BMM_MODEL_ACCESS"><rect fill="#F1F1F1" height="199.1993" rx="2.5" ry="2.5" style="stroke:#181818;stroke-width:0.5;" width="686.4891" x="7" y="341.8"/><ellipse cx="273.3769" cy="357.8" fill="#ADD1B2" rx="11" ry="11" style="stroke:#181818;stroke-width:1;"/><path d="M273.3769,364.2219 C274.5487,364.2219 275.7831,363.9563 277.1581,363.3469 L276.6737,361.8313 C275.58,362.2531 274.5644,362.4406 273.705,362.4406 C270.9862,362.4406 269.2675,360.5969 269.2675,357.6906 C269.2675,354.9406 270.83,353.3469 273.5644,353.3469 C274.4862,353.3469 275.5019,353.5344 276.6425,353.9563 L277.2206,352.4406 C276.1269,351.8625 274.83,351.5656 273.6425,351.5656 C269.8769,351.5656 267.2987,354.2063 267.2987,358.0188 C267.2987,361.6906 269.7831,364.2219 273.3769,364.2219 Z " fill="#000000"/><text fill="#000000" font-family="sans-serif" font-size="14" lengthAdjust="spacing" textLength="145.2354" x="293.8769" y="363.162">BMM_MODEL_ACCESS</text><line style="stroke:#181818;stroke-width:0.5;" x1="8" x2="692.4891" y1="373.8" y2="373.8"/><ellipse cx="18" cy="387.7" fill="none" rx="3" ry="3" style="stroke:#038048;stroke-width:1;"/><text fill="#000000" font-family="sans-serif" font-size="14" lengthAdjust="spacing" textLength="226.1131" x="27" y="391.5619">schema_directories : List&lt;String&gt; [*]</text><ellipse cx="18" cy="404.4999" fill="none" rx="3" ry="3" style="stroke:#038048;stroke-width:1;"/><text fill="#000000" font-family="sans-serif" font-size="14" lengthAdjust="spacing" textLength="181.3273" x="27" y="408.3619">all_schemas : List&lt;String&gt; [*]</text><ellipse cx="18" cy="421.2998" fill="none" rx="3" ry="3" style="stroke:#038048;stroke-width:1;"/><text fill="#000000" font-family="sans-serif" font-size="14" lengthAdjust="spacing" textLength="306.9067" x="27" y="425.1618">bmm_models : Hash&lt;String,BMM_MODEL&gt; [0..1]</text><ellipse cx="18" cy="438.0997" fill="none" rx="3" ry="3" style="stroke:#038048;stroke-width:1;"/><text fill="#000000" font-family="sans-serif" font-size="14" lengthAdjust="spacing" textLength="256.297" x="27" y="441.9617">matching_bmm_models : List&lt;String&gt; [*]</text><line style="stroke:#181818;stroke-width:0.5;" x1="8" x2="692.4891" y1="448.9997" y2="448.9997"/><ellipse cx="18" cy="462.8997" fill="#84BE84" rx="3" ry="3" style="stroke:#038048;stroke-width:1;"/><text fill="#000000" font-family="sans-serif" font-size="14" lengthAdjust="spacing" textLength="660.4891" x="27" y="466.7616">initialise_with_load_list( a_schema_dirs : List&lt;String&gt; [1], a_schema_load_list : List&lt;String&gt; [0..1] ) : void [1]</text><ellipse cx="18" cy="479.6996" fill="#84BE84" rx="3" ry="3" style="stroke:#038048;stroke-width:1;"/><text fill="#000000" font-family="sans-serif" font-size="14" lengthAdjust="spacing" textLength="339.4846" x="27" y="483.5616">initialise_all( a_schema_dirs : List&lt;String&gt; [1] ) : void [1]</text><ellipse cx="18" cy="496.4995" fill="#84BE84" rx="3" ry="3" style="stroke:#038048;stroke-width:1;"/><text fill="#000000" font-family="sans-serif" font-size="14" lengthAdjust="spacing" textLength="164.1353" x="27" y="500.3615">reload_schemas() : void [1]</text><ellipse cx="18" cy="513.2995" fill="#84BE84" rx="3" ry="3" style="stroke:#038048;stroke-width:1;"/><text fill="#000000" font-family="sans-serif" font-size="14" lengthAdjust="spacing" textLength="358.1186" x="27" y="517.1614">bmm_model( a_model_key : String [1] ) : BMM_MODEL [1]</text><ellipse cx="18" cy="530.0994" fill="#84BE84" rx="3" ry="3" style="stroke:#038048;stroke-width:1;"/><text fill="#000000" font-family="sans-serif" font-size="14" lengthAdjust="spacing" textLength="350.0546" x="27" y="533.9614">has_bmm_model( a_model_key : String [1] ) : Boolean [1]</text></g><!--class BMM_SCHEMA_DESCRIPTOR--><g class="entity" data-entity="BMM_SCHEMA_DESCRIPTOR" data-source-line="14" data-uid="ent0003" id="entity_BMM_SCHEMA_DESCRIPTOR"><rect fill="#F1F1F1" height="232.7992" rx="2.5" ry="2.5" style="stroke:#181818;stroke-width:0.5;" width="424.8584" x="728.82" y="325"/><ellipse cx="844.2356" cy="341" fill="#A9DCDF" rx="11" ry="11" style="stroke:#181818;stroke-width:1;"/><path d="M838.7512,346.5 L840.7824,346.5 L844.8293,335.1563 L843.9231,335.1563 L847.7512,346.5 L849.8918,346.5 L845.5637,334.1719 L843.3449,334.1719 L838.7512,346.5 Z M841.0793,343 L847.5168,343 L847.5168,341.25 L841.0793,341.25 L841.0793,343 Z " fill="#000000"/><text fill="#000000" font-family="sans-serif" font-size="14" font-style="italic" lengthAdjust="spacing" textLength="185.5273" x="864.7356" y="346.362">BMM_SCHEMA_DESCRIPTOR</text><line style="stroke:#181818;stroke-width:0.5;" x1="729.82" x2="1152.6784" y1="357" y2="357"/><ellipse cx="739.82" cy="370.9" fill="none" rx="3" ry="3" style="stroke:#038048;stroke-width:1;"/><text fill="#000000" font-family="sans-serif" font-size="14" lengthAdjust="spacing" textLength="227.7371" x="748.82" y="374.7619">bmm_schema : BMM_SCHEMA [0..1]</text><ellipse cx="739.82" cy="387.6999" fill="none" rx="3" ry="3" style="stroke:#038048;stroke-width:1;"/><text fill="#000000" font-family="sans-serif" font-size="14" lengthAdjust="spacing" textLength="211.4551" x="748.82" y="391.5619">bmm_model : BMM_MODEL [0..1]</text><ellipse cx="739.82" cy="404.4998" fill="none" rx="3" ry="3" style="stroke:#038048;stroke-width:1;"/><text fill="#000000" font-family="sans-serif" font-size="14" lengthAdjust="spacing" textLength="132.3415" x="748.82" y="408.3618">schema_id : String [1]</text><ellipse cx="739.82" cy="421.2997" fill="none" rx="3" ry="3" style="stroke:#038048;stroke-width:1;"/><text fill="#000000" font-family="sans-serif" font-size="14" lengthAdjust="spacing" textLength="221.3251" x="748.82" y="425.1617">meta_data : Hash&lt;String,String&gt; [1]</text><ellipse cx="739.82" cy="438.0997" fill="none" rx="3" ry="3" style="stroke:#038048;stroke-width:1;"/><text fill="#000000" font-family="sans-serif" font-size="14" lengthAdjust="spacing" textLength="156.4354" x="748.82" y="441.9616">includes : List&lt;String&gt; [*]</text><line style="stroke:#181818;stroke-width:0.5;" x1="729.82" x2="1152.6784" y1="448.9996" y2="448.9996"/><ellipse cx="739.82" cy="462.8996" fill="#84BE84" rx="3" ry="3" style="stroke:#038048;stroke-width:1;"/><text fill="#000000" font-family="sans-serif" font-size="14" lengthAdjust="spacing" textLength="162.2734" x="748.82" y="466.7616">is_top_level() : Boolean [1]</text><ellipse cx="739.82" cy="479.6995" fill="#84BE84" rx="3" ry="3" style="stroke:#038048;stroke-width:1;"/><text fill="#000000" font-family="sans-serif" font-size="14" lengthAdjust="spacing" textLength="214.5911" x="748.82" y="483.5615">is_bmm_compatible() : Boolean [1]</text><ellipse cx="739.82" cy="496.4995" fill="#84BE84" rx="3" ry="3" style="stroke:#038048;stroke-width:1;"/><text fill="#000000" font-family="sans-serif" font-size="14" lengthAdjust="spacing" textLength="90.0336" x="748.82" y="500.3614">load() : void [1]</text><ellipse cx="739.82" cy="513.2994" fill="#84BE84" rx="3" ry="3" style="stroke:#038048;stroke-width:1;"/><text fill="#000000" font-family="sans-serif" font-size="14" lengthAdjust="spacing" textLength="167.2993" x="748.82" y="517.1614">validate_merged() : void [1]</text><ellipse cx="739.82" cy="530.0993" fill="#84BE84" rx="3" ry="3" style="stroke:#038048;stroke-width:1;"/><text fill="#000000" font-family="sans-serif" font-size="14" lengthAdjust="spacing" textLength="398.8584" x="748.82" y="533.9613">validate_includes( all_schemas_list : List&lt;String&gt; [0..1] ) : void [1]</text><ellipse cx="739.82" cy="546.8992" fill="#84BE84" rx="3" ry="3" style="stroke:#038048;stroke-width:1;"/><text fill="#000000" font-family="sans-serif" font-size="14" lengthAdjust="spacing" textLength="148.4834" x="748.82" y="550.7612">create_model() : void [1]</text></g><!--class BMM_SCHEMA--><g class="entity" data-entity="BMM_SCHEMA" data-source-line="28" data-uid="ent0004" id="entity_BMM_SCHEMA"><rect fill="#F1F1F1" height="383.9985" rx="2.5" ry="2.5" style="stroke:#181818;stroke-width:0.5;" width="348.7127" x="1217.89" y="249.4"/><ellipse cx="1340.1445" cy="265.4" fill="#A9DCDF" rx="11" ry="11" style="stroke:#181818;stroke-width:1;"/><path d="M1334.6602,270.9 L1336.6914,270.9 L1340.7383,259.5563 L1339.832,259.5563 L1343.6602,270.9 L1345.8008,270.9 L1341.4727,258.5719 L1339.2539,258.5719 L1334.6602,270.9 Z M1336.9883,267.4 L1343.4258,267.4 L1343.4258,265.65 L1336.9883,265.65 L1336.9883,267.4 Z " fill="#000000"/><text fill="#000000" font-family="sans-serif" font-size="14" font-style="italic" lengthAdjust="spacing" textLength="95.7036" x="1360.6445" y="270.762">BMM_SCHEMA</text><line style="stroke:#181818;stroke-width:0.5;" x1="1218.89" x2="1565.6027" y1="281.4" y2="281.4"/><ellipse cx="1228.89" cy="295.3" fill="none" rx="3" ry="3" style="stroke:#038048;stroke-width:1;"/><text fill="#000000" font-family="sans-serif" font-size="14" lengthAdjust="spacing" textLength="150.9754" x="1237.89" y="299.1619">bmm_version : String [1]</text><ellipse cx="1228.89" cy="312.0999" fill="none" rx="3" ry="3" style="stroke:#038048;stroke-width:1;"/><text fill="#000000" font-family="sans-serif" font-size="14" lengthAdjust="spacing" textLength="258.831" x="1237.89" y="315.9619">primitive_types : List&lt;P_BMM_CLASS&gt; [*]</text><ellipse cx="1228.89" cy="328.8998" fill="none" rx="3" ry="3" style="stroke:#038048;stroke-width:1;"/><text fill="#000000" font-family="sans-serif" font-size="14" lengthAdjust="spacing" textLength="266.4189" x="1237.89" y="332.7618">class_definitions : List&lt;P_BMM_CLASS&gt; [*]</text><ellipse cx="1228.89" cy="345.6997" fill="none" rx="3" ry="3" style="stroke:#038048;stroke-width:1;"/><text fill="#000000" font-family="sans-serif" font-size="14" lengthAdjust="spacing" textLength="322.7127" x="1237.89" y="349.5617">includes : Hash&lt;String,BMM_INCLUDE_SPEC&gt; [0..1]</text><ellipse cx="1228.89" cy="362.4997" fill="none" rx="3" ry="3" style="stroke:#038048;stroke-width:1;"/><text fill="#000000" font-family="sans-serif" font-size="14" lengthAdjust="spacing" textLength="219.7851" x="1237.89" y="366.3616">bmm_schema : BMM_MODEL [0..1]</text><ellipse cx="1228.89" cy="379.2996" fill="none" rx="3" ry="3" style="stroke:#038048;stroke-width:1;"/><text fill="#000000" font-family="sans-serif" font-size="14" lengthAdjust="spacing" textLength="202.9432" x="1237.89" y="383.1616">state : BMM_SCHEMA_STATE [1]</text><ellipse cx="1228.89" cy="396.0995" fill="none" rx="3" ry="3" style="stroke:#038048;stroke-width:1;"/><text fill="#000000" font-family="sans-serif" font-size="14" lengthAdjust="spacing" textLength="163.2533" x="1237.89" y="399.9615">model_name : String [0..1]</text><ellipse cx="1228.89" cy="412.8995" fill="none" rx="3" ry="3" style="stroke:#038048;stroke-width:1;"/><text fill="#000000" font-family="sans-serif" font-size="14" lengthAdjust="spacing" textLength="155.8194" x="1237.89" y="416.7614">schema_name : String [1]</text><ellipse cx="1228.89" cy="429.6994" fill="none" rx="3" ry="3" style="stroke:#038048;stroke-width:1;"/><text fill="#000000" font-family="sans-serif" font-size="14" lengthAdjust="spacing" textLength="169.5673" x="1237.89" y="433.5614">schema_revision : String [1]</text><ellipse cx="1228.89" cy="446.4993" fill="none" rx="3" ry="3" style="stroke:#038048;stroke-width:1;"/><text fill="#000000" font-family="sans-serif" font-size="14" lengthAdjust="spacing" textLength="209.6492" x="1237.89" y="450.3613">schema_lifecycle_state : String [1]</text><ellipse cx="1228.89" cy="463.2992" fill="none" rx="3" ry="3" style="stroke:#038048;stroke-width:1;"/><text fill="#000000" font-family="sans-serif" font-size="14" lengthAdjust="spacing" textLength="162.1054" x="1237.89" y="467.1612">schema_author : String [1]</text><ellipse cx="1228.89" cy="480.0992" fill="none" rx="3" ry="3" style="stroke:#038048;stroke-width:1;"/><text fill="#000000" font-family="sans-serif" font-size="14" lengthAdjust="spacing" textLength="190.4133" x="1237.89" y="483.9611">schema_description : String [1]</text><ellipse cx="1228.89" cy="496.8991" fill="none" rx="3" ry="3" style="stroke:#038048;stroke-width:1;"/><text fill="#000000" font-family="sans-serif" font-size="14" lengthAdjust="spacing" textLength="236.6271" x="1237.89" y="500.7611">schema_contributors : List&lt;String&gt; [*]</text><line style="stroke:#181818;stroke-width:0.5;" x1="1218.89" x2="1565.6027" y1="507.799" y2="507.799"/><ellipse cx="1228.89" cy="521.699" fill="#84BE84" rx="3" ry="3" style="stroke:#038048;stroke-width:1;"/><text fill="#000000" font-family="sans-serif" font-size="14" font-style="italic" lengthAdjust="spacing" textLength="165.6753" x="1237.89" y="525.561">validate_created() : void [1]</text><ellipse cx="1228.89" cy="538.4989" fill="#84BE84" rx="3" ry="3" style="stroke:#038048;stroke-width:1;"/><text fill="#000000" font-family="sans-serif" font-size="14" font-style="italic" lengthAdjust="spacing" textLength="141.5674" x="1237.89" y="542.3609">load_finalise() : void [1]</text><ellipse cx="1228.89" cy="555.2989" fill="#84BE84" rx="3" ry="3" style="stroke:#038048;stroke-width:1;"/><text fill="#000000" font-family="sans-serif" font-size="14" font-style="italic" lengthAdjust="spacing" textLength="267.5109" x="1237.89" y="559.1608">merge( other : BMM_SCHEMA [1] ) : void [1]</text><ellipse cx="1228.89" cy="572.0988" fill="#84BE84" rx="3" ry="3" style="stroke:#038048;stroke-width:1;"/><text fill="#000000" font-family="sans-serif" font-size="14" font-style="italic" lengthAdjust="spacing" textLength="111.8736" x="1237.89" y="575.9608">validate() : void [1]</text><ellipse cx="1228.89" cy="588.8987" fill="#84BE84" rx="3" ry="3" style="stroke:#038048;stroke-width:1;"/><text fill="#000000" font-family="sans-serif" font-size="14" font-style="italic" lengthAdjust="spacing" textLength="188.2712" x="1237.89" y="592.7607">create_bmm_model() : void [1]</text><ellipse cx="1228.89" cy="605.6986" fill="#84BE84" rx="3" ry="3" style="stroke:#038048;stroke-width:1;"/><text fill="#000000" font-family="sans-serif" font-size="14" lengthAdjust="spacing" textLength="191.6872" x="1237.89" y="609.5606">read_to_validate() : Boolean [1]</text><ellipse cx="1228.89" cy="622.4986" fill="#84BE84" rx="3" ry="3" style="stroke:#038048;stroke-width:1;"/><text fill="#000000" font-family="sans-serif" font-size="14" lengthAdjust="spacing" textLength="140.7695" x="1237.89" y="626.3605">schema_id() : String [1]</text></g><!--class P_BMM_SCHEMA_DESCRIPTOR--><g class="entity" data-entity="P_BMM_SCHEMA_DESCRIPTOR" data-source-line="51" data-uid="ent0005" id="entity_P_BMM_SCHEMA_DESCRIPTOR"><rect fill="#F1F1F1" height="64.7999" rx="2.5" ry="2.5" style="stroke:#181818;stroke-width:0.5;" width="268.997" x="806.75" y="693.4"/><ellipse cx="838.0444" cy="709.4" fill="#ADD1B2" rx="11" ry="11" style="stroke:#181818;stroke-width:1;"/><path d="M838.0444,715.8219 C839.2163,715.8219 840.4507,715.5563 841.8257,714.9469 L841.3413,713.4313 C840.2475,713.8531 839.2319,714.0406 838.3725,714.0406 C835.6538,714.0406 833.935,712.1969 833.935,709.2906 C833.935,706.5406 835.4975,704.9469 838.2319,704.9469 C839.1538,704.9469 840.1694,705.1344 841.31,705.5563 L841.8882,704.0406 C840.7944,703.4625 839.4975,703.1656 838.31,703.1656 C834.5444,703.1656 831.9663,705.8063 831.9663,709.6188 C831.9663,713.2906 834.4507,715.8219 838.0444,715.8219 Z " fill="#000000"/><text fill="#000000" font-family="sans-serif" font-size="14" lengthAdjust="spacing" textLength="200.7872" x="855.6654" y="714.762">P_BMM_SCHEMA_DESCRIPTOR</text><line style="stroke:#181818;stroke-width:0.5;" x1="807.75" x2="1074.747" y1="725.4" y2="725.4"/><ellipse cx="817.75" cy="739.3" fill="none" rx="3" ry="3" style="stroke:#038048;stroke-width:1;"/><text fill="#000000" font-family="sans-serif" font-size="14" lengthAdjust="spacing" textLength="242.997" x="826.75" y="743.1619">bmm_schema : P_BMM_SCHEMA [0..1]</text><line style="stroke:#181818;stroke-width:0.5;" x1="807.75" x2="1074.747" y1="750.1999" y2="750.1999"/></g><!--class BMM_SCHEMA_METADATA_KEY--><g class="entity" data-entity="BMM_SCHEMA_METADATA_KEY" data-source-line="55" data-uid="ent0006" id="entity_BMM_SCHEMA_METADATA_KEY"><rect fill="#F1F1F1" height="182.3994" rx="2.5" ry="2.5" style="stroke:#181818;stroke-width:0.5;" width="238.8072" x="1651.84" y="7"/><ellipse cx="1666.84" cy="23" fill="#EB937F" rx="11" ry="11" style="stroke:#181818;stroke-width:1;"/><path d="M1662.4025,29.5 L1670.34,29.5 L1670.34,27.75 L1664.34,27.75 L1664.34,24.0156 L1669.8869,24.0156 L1669.8869,22.25 L1664.34,22.25 L1664.34,18.9219 L1670.34,18.9219 L1670.34,17.1719 L1662.4025,17.1719 L1662.4025,29.5 Z " fill="#000000"/><text fill="#000000" font-family="sans-serif" font-size="14" lengthAdjust="spacing" textLength="206.8072" x="1680.84" y="28.362">BMM_SCHEMA_METADATA_KEY</text><line style="stroke:#181818;stroke-width:0.5;" x1="1652.84" x2="1889.6472" y1="39" y2="39"/><text fill="#000000" font-family="sans-serif" font-size="14" lengthAdjust="spacing" textLength="84.9937" x="1657.84" y="56.7619">bmm_version</text><text fill="#000000" font-family="sans-serif" font-size="14" lengthAdjust="spacing" textLength="104.8316" x="1657.84" y="73.5619">model_publisher</text><text fill="#000000" font-family="sans-serif" font-size="14" lengthAdjust="spacing" textLength="89.8376" x="1657.84" y="90.3618">schema_name</text><text fill="#000000" font-family="sans-serif" font-size="14" lengthAdjust="spacing" textLength="91.6156" x="1657.84" y="107.1617">model_release</text><text fill="#000000" font-family="sans-serif" font-size="14" lengthAdjust="spacing" textLength="103.5856" x="1657.84" y="123.9616">schema_revision</text><text fill="#000000" font-family="sans-serif" font-size="14" lengthAdjust="spacing" textLength="143.6674" x="1657.84" y="140.7616">schema_lifecycle_state</text><text fill="#000000" font-family="sans-serif" font-size="14" lengthAdjust="spacing" textLength="124.4315" x="1657.84" y="157.5615">schema_description</text><text fill="#000000" font-family="sans-serif" font-size="14" lengthAdjust="spacing" textLength="83.0897" x="1657.84" y="174.3614">schema_path</text><line style="stroke:#181818;stroke-width:0.5;" x1="1652.84" x2="1889.6472" y1="181.3994" y2="181.3994"/></g><!--class BMM_DEFINITIONS--><g class="entity" data-entity="BMM_DEFINITIONS" data-source-line="66" data-uid="ent0007" id="entity_BMM_DEFINITIONS"><rect fill="#F1F1F1" height="48" rx="2.5" ry="2.5" style="stroke:#181818;stroke-width:0.5;" width="156.4035" x="678.04" y="74.2"/><ellipse cx="693.04" cy="90.2" fill="#ADD1B2" rx="11" ry="11" style="stroke:#181818;stroke-width:1;"/><path d="M693.04,96.6219 C694.2119,96.6219 695.4463,96.3563 696.8213,95.7469 L696.3369,94.2313 C695.2431,94.6531 694.2275,94.8406 693.3681,94.8406 C690.6494,94.8406 688.9306,92.9969 688.9306,90.0906 C688.9306,87.3406 690.4931,85.7469 693.2275,85.7469 C694.1494,85.7469 695.165,85.9344 696.3056,86.3563 L696.8838,84.8406 C695.79,84.2625 694.4931,83.9656 693.3056,83.9656 C689.54,83.9656 686.9619,86.6063 686.9619,90.4188 C686.9619,94.0906 689.4463,96.6219 693.04,96.6219 Z " fill="#000000"/><text fill="#000000" font-family="sans-serif" font-size="14" lengthAdjust="spacing" textLength="124.4035" x="707.04" y="95.562">BMM_DEFINITIONS</text><line style="stroke:#181818;stroke-width:0.5;" x1="679.04" x2="833.4435" y1="106.2" y2="106.2"/><line style="stroke:#181818;stroke-width:0.5;" x1="679.04" x2="833.4435" y1="114.2" y2="114.2"/></g><!--class P_BMM_PACKAGE_CONTAINER--><g class="entity" data-entity="P_BMM_PACKAGE_CONTAINER" data-source-line="68" data-uid="ent0010" id="entity_P_BMM_PACKAGE_CONTAINER"><rect fill="#F1F1F1" height="48" rx="2.5" ry="2.5" style="stroke:#181818;stroke-width:0.5;" width="233.5992" x="1149.44" y="74.2"/><ellipse cx="1164.44" cy="90.2" fill="#ADD1B2" rx="11" ry="11" style="stroke:#181818;stroke-width:1;"/><path d="M1164.44,96.6219 C1165.6119,96.6219 1166.8463,96.3563 1168.2213,95.7469 L1167.7369,94.2313 C1166.6431,94.6531 1165.6275,94.8406 1164.7681,94.8406 C1162.0494,94.8406 1160.3306,92.9969 1160.3306,90.0906 C1160.3306,87.3406 1161.8931,85.7469 1164.6275,85.7469 C1165.5494,85.7469 1166.565,85.9344 1167.7056,86.3563 L1168.2838,84.8406 C1167.19,84.2625 1165.8931,83.9656 1164.7056,83.9656 C1160.94,83.9656 1158.3619,86.6063 1158.3619,90.4188 C1158.3619,94.0906 1160.8463,96.6219 1164.44,96.6219 Z " fill="#000000"/><text fill="#000000" font-family="sans-serif" font-size="14" lengthAdjust="spacing" textLength="201.5992" x="1178.44" y="95.562">P_BMM_PACKAGE_CONTAINER</text><line style="stroke:#181818;stroke-width:0.5;" x1="1150.44" x2="1382.0392" y1="106.2" y2="106.2"/><line style="stroke:#181818;stroke-width:0.5;" x1="1150.44" x2="1382.0392" y1="114.2" y2="114.2"/></g><!--class BMM_MODEL_METADATA--><g class="entity" data-entity="BMM_MODEL_METADATA" data-source-line="69" data-uid="ent0012" id="entity_BMM_MODEL_METADATA"><rect fill="#F1F1F1" height="48" rx="2.5" ry="2.5" style="stroke:#181818;stroke-width:0.5;" width="199.0473" x="1417.72" y="74.2"/><ellipse cx="1432.72" cy="90.2" fill="#ADD1B2" rx="11" ry="11" style="stroke:#181818;stroke-width:1;"/><path d="M1432.72,96.6219 C1433.8919,96.6219 1435.1263,96.3563 1436.5013,95.7469 L1436.0169,94.2313 C1434.9231,94.6531 1433.9075,94.8406 1433.0481,94.8406 C1430.3294,94.8406 1428.6106,92.9969 1428.6106,90.0906 C1428.6106,87.3406 1430.1731,85.7469 1432.9075,85.7469 C1433.8294,85.7469 1434.845,85.9344 1435.9856,86.3563 L1436.5638,84.8406 C1435.47,84.2625 1434.1731,83.9656 1432.9856,83.9656 C1429.22,83.9656 1426.6419,86.6063 1426.6419,90.4188 C1426.6419,94.0906 1429.1263,96.6219 1432.72,96.6219 Z " fill="#000000"/><text fill="#000000" font-family="sans-serif" font-size="14" lengthAdjust="spacing" textLength="167.0473" x="1446.72" y="95.562">BMM_MODEL_METADATA</text><line style="stroke:#181818;stroke-width:0.5;" x1="1418.72" x2="1615.7673" y1="106.2" y2="106.2"/><line style="stroke:#181818;stroke-width:0.5;" x1="1418.72" x2="1615.7673" y1="114.2" y2="114.2"/></g><!--reverse link BMM_DEFINITIONS to BMM_MODEL_ACCESS--><g class="link" data-entity-1="BMM_DEFINITIONS" data-entity-2="BMM_MODEL_ACCESS" data-source-line="66" data-uid="lnk8" id="link_BMM_DEFINITIONS_BMM_MODEL_ACCESS"><path codeLine="66" d="M714.5607,134.2314 C661.7107,178.6514 558.02,265.79 467.94,341.49" fill="none" id="BMM_DEFINITIONS-backto-BMM_MODEL_ACCESS" style="stroke:#181818;stroke-width:1;"/><polygon fill="none" points="728.34,122.65,710.7002,129.6383,718.4211,138.8245,728.34,122.65" style="stroke:#181818;stroke-width:1;"/></g><!--reverse link BMM_DEFINITIONS to BMM_SCHEMA_DESCRIPTOR--><g class="link" data-entity-1="BMM_DEFINITIONS" data-entity-2="BMM_SCHEMA_DESCRIPTOR" data-source-line="67" data-uid="lnk9" id="link_BMM_DEFINITIONS_BMM_SCHEMA_DESCRIPTOR"><path codeLine="67" d="M777.5403,138.4734 C799.8703,179.6534 838.92,251.69 878.46,324.6" fill="none" id="BMM_DEFINITIONS-backto-BMM_SCHEMA_DESCRIPTOR" style="stroke:#181818;stroke-width:1;"/><polygon fill="none" points="768.96,122.65,772.2658,141.3335,782.8147,135.6133,768.96,122.65" style="stroke:#181818;stroke-width:1;"/></g><!--reverse link P_BMM_PACKAGE_CONTAINER to BMM_SCHEMA--><g class="link" data-entity-1="P_BMM_PACKAGE_CONTAINER" data-entity-2="BMM_SCHEMA" data-source-line="68" data-uid="lnk11" id="link_P_BMM_PACKAGE_CONTAINER_BMM_SCHEMA"><path codeLine="68" d="M1281.1412,139.537 C1291.2812,167.017 1302.87,198.39 1321.61,249.13" fill="none" id="P_BMM_PACKAGE_CONTAINER-backto-BMM_SCHEMA" style="stroke:#181818;stroke-width:1;"/><polygon fill="none" points="1274.91,122.65,1275.5122,141.6141,1286.7702,137.4599,1274.91,122.65" style="stroke:#181818;stroke-width:1;"/></g><!--reverse link BMM_MODEL_METADATA to BMM_SCHEMA--><g class="link" data-entity-1="BMM_MODEL_METADATA" data-entity-2="BMM_SCHEMA" data-source-line="69" data-uid="lnk13" id="link_BMM_MODEL_METADATA_BMM_SCHEMA"><path codeLine="69" d="M1502.4621,139.553 C1492.4021,167.033 1480.91,198.39 1462.32,249.13" fill="none" id="BMM_MODEL_METADATA-backto-BMM_SCHEMA" style="stroke:#181818;stroke-width:1;"/><polygon fill="none" points="1508.65,122.65,1496.8278,137.4903,1508.0964,141.6156,1508.65,122.65" style="stroke:#181818;stroke-width:1;"/></g><!--reverse link BMM_SCHEMA_DESCRIPTOR to P_BMM_SCHEMA_DESCRIPTOR--><g class="link" data-entity-1="BMM_SCHEMA_DESCRIPTOR" data-entity-2="P_BMM_SCHEMA_DESCRIPTOR" data-source-line="70" data-uid="lnk14" id="link_BMM_SCHEMA_DESCRIPTOR_P_BMM_SCHEMA_DESCRIPTOR"><path codeLine="70" d="M941.24,576.08 C941.24,624.97 941.24,660.09 941.24,692.92" fill="none" id="BMM_SCHEMA_DESCRIPTOR-backto-P_BMM_SCHEMA_DESCRIPTOR" style="stroke:#181818;stroke-width:1;"/><polygon fill="none" points="941.24,558.08,935.24,576.08,947.24,576.08,941.24,558.08" style="stroke:#181818;stroke-width:1;"/></g></g></svg>
