<svg xmlns="http://www.w3.org/2000/svg" xmlns:xlink="http://www.w3.org/1999/xlink" contentStyleType="text/css" data-diagram-type="CLASS" height="906px" preserveAspectRatio="none" style="width:1409px;height:906px;background:#FFFFFF;" version="1.1" viewBox="0 0 1409 906" width="1409px" zoomAndPan="magnify"><defs/><g><!--class Iso8601_date_time--><g class="entity" data-entity="Iso8601_date_time" data-source-line="2" data-uid="ent0002" id="entity_Iso8601_date_time"><rect fill="#F1F1F1" height="333.5988" rx="2.5" ry="2.5" style="stroke:#181818;stroke-width:0.5;" width="266.127" x="7" y="566.2"/><ellipse cx="76.3838" cy="582.2" fill="#ADD1B2" rx="11" ry="11" style="stroke:#181818;stroke-width:1;"/><path d="M76.3838,588.6219 C77.5556,588.6219 78.79,588.3562 80.165,587.7469 L79.6806,586.2312 C78.5869,586.6531 77.5713,586.8406 76.7119,586.8406 C73.9931,586.8406 72.2744,584.9969 72.2744,582.0906 C72.2744,579.3406 73.8369,577.7469 76.5713,577.7469 C77.4931,577.7469 78.5088,577.9344 79.6494,578.3562 L80.2275,576.8406 C79.1338,576.2625 77.8369,575.9656 76.6494,575.9656 C72.8838,575.9656 70.3056,578.6062 70.3056,582.4187 C70.3056,586.0906 72.79,588.6219 76.3838,588.6219 Z " fill="#000000"/><text fill="#000000" font-family="sans-serif" font-size="14" lengthAdjust="spacing" textLength="118.8595" x="96.8838" y="587.562">Iso8601_date_time</text><line style="stroke:#181818;stroke-width:0.5;" x1="8" x2="272.127" y1="598.2" y2="598.2"/><line style="stroke:#181818;stroke-width:0.5;" x1="8" x2="272.127" y1="606.2" y2="606.2"/><ellipse cx="18" cy="620.1" fill="#84BE84" rx="3" ry="3" style="stroke:#038048;stroke-width:1;"/><text fill="#000000" font-family="sans-serif" font-size="14" lengthAdjust="spacing" textLength="108.3036" x="27" y="623.9619">year() : Integer [1]</text><ellipse cx="18" cy="636.8999" fill="#84BE84" rx="3" ry="3" style="stroke:#038048;stroke-width:1;"/><text fill="#000000" font-family="sans-serif" font-size="14" lengthAdjust="spacing" textLength="123.0175" x="27" y="640.7619">month() : Integer [1]</text><ellipse cx="18" cy="653.6998" fill="#84BE84" rx="3" ry="3" style="stroke:#038048;stroke-width:1;"/><text fill="#000000" font-family="sans-serif" font-size="14" lengthAdjust="spacing" textLength="103.6136" x="27" y="657.5618">day() : Integer [1]</text><ellipse cx="18" cy="670.4997" fill="#84BE84" rx="3" ry="3" style="stroke:#038048;stroke-width:1;"/><text fill="#000000" font-family="sans-serif" font-size="14" lengthAdjust="spacing" textLength="110.7116" x="27" y="674.3617">hour() : Integer [1]</text><ellipse cx="18" cy="687.2997" fill="#84BE84" rx="3" ry="3" style="stroke:#038048;stroke-width:1;"/><text fill="#000000" font-family="sans-serif" font-size="14" lengthAdjust="spacing" textLength="125.7895" x="27" y="691.1616">minute() : Integer [1]</text><ellipse cx="18" cy="704.0996" fill="#84BE84" rx="3" ry="3" style="stroke:#038048;stroke-width:1;"/><text fill="#000000" font-family="sans-serif" font-size="14" lengthAdjust="spacing" textLength="126.0275" x="27" y="707.9616">second() : Integer [1]</text><ellipse cx="18" cy="720.8995" fill="#84BE84" rx="3" ry="3" style="stroke:#038048;stroke-width:1;"/><text fill="#000000" font-family="sans-serif" font-size="14" lengthAdjust="spacing" textLength="174.5653" x="27" y="724.7615">fractional_second() : Real [1]</text><ellipse cx="18" cy="737.6995" fill="#84BE84" rx="3" ry="3" style="stroke:#038048;stroke-width:1;"/><text fill="#000000" font-family="sans-serif" font-size="14" lengthAdjust="spacing" textLength="209.0612" x="27" y="741.5614">timezone() : Iso8601_timezone [1]</text><ellipse cx="18" cy="754.4994" fill="#84BE84" rx="3" ry="3" style="stroke:#038048;stroke-width:1;"/><text fill="#000000" font-family="sans-serif" font-size="14" lengthAdjust="spacing" textLength="193.8293" x="27" y="758.3614">month_unknown() : Boolean [1]</text><ellipse cx="18" cy="771.2993" fill="#84BE84" rx="3" ry="3" style="stroke:#038048;stroke-width:1;"/><text fill="#000000" font-family="sans-serif" font-size="14" lengthAdjust="spacing" textLength="174.4253" x="27" y="775.1613">day_unknown() : Boolean [1]</text><ellipse cx="18" cy="788.0992" fill="#84BE84" rx="3" ry="3" style="stroke:#038048;stroke-width:1;"/><text fill="#000000" font-family="sans-serif" font-size="14" lengthAdjust="spacing" textLength="196.6012" x="27" y="791.9612">minute_unknown() : Boolean [1]</text><ellipse cx="18" cy="804.8992" fill="#84BE84" rx="3" ry="3" style="stroke:#038048;stroke-width:1;"/><text fill="#000000" font-family="sans-serif" font-size="14" lengthAdjust="spacing" textLength="196.8392" x="27" y="808.7611">second_unknown() : Boolean [1]</text><ellipse cx="18" cy="821.6991" fill="#84BE84" rx="3" ry="3" style="stroke:#038048;stroke-width:1;"/><text fill="#000000" font-family="sans-serif" font-size="14" lengthAdjust="spacing" textLength="240.127" x="27" y="825.5611">is_decimal_sign_comma() : Boolean [1]</text><ellipse cx="18" cy="838.499" fill="#84BE84" rx="3" ry="3" style="stroke:#038048;stroke-width:1;"/><text fill="#000000" font-family="sans-serif" font-size="14" lengthAdjust="spacing" textLength="144.9974" x="27" y="842.361">is_partial() : Boolean [1]</text><ellipse cx="18" cy="855.2989" fill="#84BE84" rx="3" ry="3" style="stroke:#038048;stroke-width:1;"/><text fill="#000000" font-family="sans-serif" font-size="14" lengthAdjust="spacing" textLength="162.6934" x="27" y="859.1609">is_extended() : Boolean [1]</text><ellipse cx="18" cy="872.0989" fill="#84BE84" rx="3" ry="3" style="stroke:#038048;stroke-width:1;"/><text fill="#000000" font-family="sans-serif" font-size="14" lengthAdjust="spacing" textLength="227.1211" x="27" y="875.9608">has_fractional_second() : Boolean [1]</text><ellipse cx="18" cy="888.8988" fill="#84BE84" rx="3" ry="3" style="stroke:#038048;stroke-width:1;"/><text fill="#000000" font-family="sans-serif" font-size="14" lengthAdjust="spacing" textLength="131.2635" x="27" y="892.7608">as_string() : String [1]</text></g><!--class Iso8601_duration--><g class="entity" data-entity="Iso8601_duration" data-source-line="22" data-uid="ent0003" id="entity_Iso8601_duration"><rect fill="#F1F1F1" height="266.399" rx="2.5" ry="2.5" style="stroke:#181818;stroke-width:0.5;" width="266.127" x="308" y="599.8"/><ellipse cx="382.5217" cy="615.8" fill="#ADD1B2" rx="11" ry="11" style="stroke:#181818;stroke-width:1;"/><path d="M382.5217,622.2219 C383.6936,622.2219 384.928,621.9563 386.303,621.3469 L385.8186,619.8313 C384.7248,620.2531 383.7092,620.4406 382.8498,620.4406 C380.1311,620.4406 378.4123,618.5969 378.4123,615.6906 C378.4123,612.9406 379.9748,611.3469 382.7092,611.3469 C383.6311,611.3469 384.6467,611.5344 385.7873,611.9563 L386.3655,610.4406 C385.2717,609.8625 383.9748,609.5656 382.7873,609.5656 C379.0217,609.5656 376.4436,612.2063 376.4436,616.0188 C376.4436,619.6906 378.928,622.2219 382.5217,622.2219 Z " fill="#000000"/><text fill="#000000" font-family="sans-serif" font-size="14" lengthAdjust="spacing" textLength="108.5836" x="403.0217" y="621.162">Iso8601_duration</text><line style="stroke:#181818;stroke-width:0.5;" x1="309" x2="573.127" y1="631.8" y2="631.8"/><line style="stroke:#181818;stroke-width:0.5;" x1="309" x2="573.127" y1="639.8" y2="639.8"/><ellipse cx="319" cy="653.7" fill="#84BE84" rx="3" ry="3" style="stroke:#038048;stroke-width:1;"/><text fill="#000000" font-family="sans-serif" font-size="14" lengthAdjust="spacing" textLength="132.5235" x="328" y="657.5619">seconds() : Integer [1]</text><ellipse cx="319" cy="670.4999" fill="#84BE84" rx="3" ry="3" style="stroke:#038048;stroke-width:1;"/><text fill="#000000" font-family="sans-serif" font-size="14" lengthAdjust="spacing" textLength="181.0613" x="328" y="674.3619">fractional_seconds() : Real [1]</text><ellipse cx="319" cy="687.2998" fill="#84BE84" rx="3" ry="3" style="stroke:#038048;stroke-width:1;"/><text fill="#000000" font-family="sans-serif" font-size="14" lengthAdjust="spacing" textLength="240.127" x="328" y="691.1618">is_decimal_sign_comma() : Boolean [1]</text><ellipse cx="319" cy="704.0997" fill="#84BE84" rx="3" ry="3" style="stroke:#038048;stroke-width:1;"/><text fill="#000000" font-family="sans-serif" font-size="14" lengthAdjust="spacing" textLength="144.9974" x="328" y="707.9617">is_partial() : Boolean [1]</text><ellipse cx="319" cy="720.8997" fill="#84BE84" rx="3" ry="3" style="stroke:#038048;stroke-width:1;"/><text fill="#000000" font-family="sans-serif" font-size="14" lengthAdjust="spacing" textLength="162.6934" x="328" y="724.7616">is_extended() : Boolean [1]</text><ellipse cx="319" cy="737.6996" fill="#84BE84" rx="3" ry="3" style="stroke:#038048;stroke-width:1;"/><text fill="#000000" font-family="sans-serif" font-size="14" lengthAdjust="spacing" textLength="129.5135" x="328" y="741.5616">months() : Integer [1]</text><ellipse cx="319" cy="754.4995" fill="#84BE84" rx="3" ry="3" style="stroke:#038048;stroke-width:1;"/><text fill="#000000" font-family="sans-serif" font-size="14" lengthAdjust="spacing" textLength="114.7996" x="328" y="758.3615">years() : Integer [1]</text><ellipse cx="319" cy="771.2995" fill="#84BE84" rx="3" ry="3" style="stroke:#038048;stroke-width:1;"/><text fill="#000000" font-family="sans-serif" font-size="14" lengthAdjust="spacing" textLength="120.9595" x="328" y="775.1614">weeks() : Integer [1]</text><ellipse cx="319" cy="788.0994" fill="#84BE84" rx="3" ry="3" style="stroke:#038048;stroke-width:1;"/><text fill="#000000" font-family="sans-serif" font-size="14" lengthAdjust="spacing" textLength="134.8755" x="328" y="791.9614">to_seconds() : Real [1]</text><ellipse cx="319" cy="804.8993" fill="#84BE84" rx="3" ry="3" style="stroke:#038048;stroke-width:1;"/><text fill="#000000" font-family="sans-serif" font-size="14" lengthAdjust="spacing" textLength="132.2855" x="328" y="808.7613">minutes() : Integer [1]</text><ellipse cx="319" cy="821.6992" fill="#84BE84" rx="3" ry="3" style="stroke:#038048;stroke-width:1;"/><text fill="#000000" font-family="sans-serif" font-size="14" lengthAdjust="spacing" textLength="117.2076" x="328" y="825.5612">hours() : Integer [1]</text><ellipse cx="319" cy="838.4992" fill="#84BE84" rx="3" ry="3" style="stroke:#038048;stroke-width:1;"/><text fill="#000000" font-family="sans-serif" font-size="14" lengthAdjust="spacing" textLength="110.1096" x="328" y="842.3611">days() : Integer [1]</text><ellipse cx="319" cy="855.2991" fill="#84BE84" rx="3" ry="3" style="stroke:#038048;stroke-width:1;"/><text fill="#000000" font-family="sans-serif" font-size="14" lengthAdjust="spacing" textLength="131.2635" x="328" y="859.1611">as_string() : String [1]</text></g><!--class Iso8601_time--><g class="entity" data-entity="Iso8601_time" data-source-line="38" data-uid="ent0004" id="entity_Iso8601_time"><rect fill="#F1F1F1" height="249.5991" rx="2.5" ry="2.5" style="stroke:#181818;stroke-width:0.5;" width="266.127" x="609" y="608.2"/><ellipse cx="695.6807" cy="624.2" fill="#ADD1B2" rx="11" ry="11" style="stroke:#181818;stroke-width:1;"/><path d="M695.6807,630.6219 C696.8526,630.6219 698.0869,630.3562 699.4619,629.7469 L698.9776,628.2312 C697.8838,628.6531 696.8682,628.8406 696.0088,628.8406 C693.2901,628.8406 691.5713,626.9969 691.5713,624.0906 C691.5713,621.3406 693.1338,619.7469 695.8682,619.7469 C696.7901,619.7469 697.8057,619.9344 698.9463,620.3562 L699.5244,618.8406 C698.4307,618.2625 697.1338,617.9656 695.9463,617.9656 C692.1807,617.9656 689.6026,620.6062 689.6026,624.4187 C689.6026,628.0906 692.0869,630.6219 695.6807,630.6219 Z " fill="#000000"/><text fill="#000000" font-family="sans-serif" font-size="14" lengthAdjust="spacing" textLength="84.2657" x="716.1807" y="629.562">Iso8601_time</text><line style="stroke:#181818;stroke-width:0.5;" x1="610" x2="874.127" y1="640.2" y2="640.2"/><line style="stroke:#181818;stroke-width:0.5;" x1="610" x2="874.127" y1="648.2" y2="648.2"/><ellipse cx="620" cy="662.1" fill="#84BE84" rx="3" ry="3" style="stroke:#038048;stroke-width:1;"/><text fill="#000000" font-family="sans-serif" font-size="14" lengthAdjust="spacing" textLength="110.7116" x="629" y="665.9619">hour() : Integer [1]</text><ellipse cx="620" cy="678.8999" fill="#84BE84" rx="3" ry="3" style="stroke:#038048;stroke-width:1;"/><text fill="#000000" font-family="sans-serif" font-size="14" lengthAdjust="spacing" textLength="125.7895" x="629" y="682.7619">minute() : Integer [1]</text><ellipse cx="620" cy="695.6998" fill="#84BE84" rx="3" ry="3" style="stroke:#038048;stroke-width:1;"/><text fill="#000000" font-family="sans-serif" font-size="14" lengthAdjust="spacing" textLength="126.0275" x="629" y="699.5618">second() : Integer [1]</text><ellipse cx="620" cy="712.4997" fill="#84BE84" rx="3" ry="3" style="stroke:#038048;stroke-width:1;"/><text fill="#000000" font-family="sans-serif" font-size="14" lengthAdjust="spacing" textLength="174.5653" x="629" y="716.3617">fractional_second() : Real [1]</text><ellipse cx="620" cy="729.2997" fill="#84BE84" rx="3" ry="3" style="stroke:#038048;stroke-width:1;"/><text fill="#000000" font-family="sans-serif" font-size="14" lengthAdjust="spacing" textLength="209.0612" x="629" y="733.1616">timezone() : Iso8601_timezone [1]</text><ellipse cx="620" cy="746.0996" fill="#84BE84" rx="3" ry="3" style="stroke:#038048;stroke-width:1;"/><text fill="#000000" font-family="sans-serif" font-size="14" lengthAdjust="spacing" textLength="196.6012" x="629" y="749.9616">minute_unknown() : Boolean [1]</text><ellipse cx="620" cy="762.8995" fill="#84BE84" rx="3" ry="3" style="stroke:#038048;stroke-width:1;"/><text fill="#000000" font-family="sans-serif" font-size="14" lengthAdjust="spacing" textLength="196.8392" x="629" y="766.7615">second_unknown() : Boolean [1]</text><ellipse cx="620" cy="779.6995" fill="#84BE84" rx="3" ry="3" style="stroke:#038048;stroke-width:1;"/><text fill="#000000" font-family="sans-serif" font-size="14" lengthAdjust="spacing" textLength="240.127" x="629" y="783.5614">is_decimal_sign_comma() : Boolean [1]</text><ellipse cx="620" cy="796.4994" fill="#84BE84" rx="3" ry="3" style="stroke:#038048;stroke-width:1;"/><text fill="#000000" font-family="sans-serif" font-size="14" lengthAdjust="spacing" textLength="144.9974" x="629" y="800.3614">is_partial() : Boolean [1]</text><ellipse cx="620" cy="813.2993" fill="#84BE84" rx="3" ry="3" style="stroke:#038048;stroke-width:1;"/><text fill="#000000" font-family="sans-serif" font-size="14" lengthAdjust="spacing" textLength="162.6934" x="629" y="817.1613">is_extended() : Boolean [1]</text><ellipse cx="620" cy="830.0992" fill="#84BE84" rx="3" ry="3" style="stroke:#038048;stroke-width:1;"/><text fill="#000000" font-family="sans-serif" font-size="14" lengthAdjust="spacing" textLength="227.1211" x="629" y="833.9612">has_fractional_second() : Boolean [1]</text><ellipse cx="620" cy="846.8992" fill="#84BE84" rx="3" ry="3" style="stroke:#038048;stroke-width:1;"/><text fill="#000000" font-family="sans-serif" font-size="14" lengthAdjust="spacing" textLength="131.2635" x="629" y="850.7611">as_string() : String [1]</text></g><!--class Iso8601_timezone--><g class="entity" data-entity="Iso8601_timezone" data-source-line="53" data-uid="ent0005" id="entity_Iso8601_timezone"><rect fill="#F1F1F1" height="182.3994" rx="2.5" ry="2.5" style="stroke:#181818;stroke-width:0.5;" width="222.6012" x="909.76" y="641.8"/><ellipse cx="959.7958" cy="657.8" fill="#ADD1B2" rx="11" ry="11" style="stroke:#181818;stroke-width:1;"/><path d="M959.7958,664.2219 C960.9677,664.2219 962.2021,663.9563 963.5771,663.3469 L963.0927,661.8313 C961.999,662.2531 960.9833,662.4406 960.124,662.4406 C957.4052,662.4406 955.6865,660.5969 955.6865,657.6906 C955.6865,654.9406 957.249,653.3469 959.9833,653.3469 C960.9052,653.3469 961.9208,653.5344 963.0615,653.9563 L963.6396,652.4406 C962.5458,651.8625 961.249,651.5656 960.0615,651.5656 C956.2958,651.5656 953.7177,654.2063 953.7177,658.0188 C953.7177,661.6906 956.2021,664.2219 959.7958,664.2219 Z " fill="#000000"/><text fill="#000000" font-family="sans-serif" font-size="14" lengthAdjust="spacing" textLength="114.0296" x="980.2958" y="663.162">Iso8601_timezone</text><line style="stroke:#181818;stroke-width:0.5;" x1="910.76" x2="1131.3612" y1="673.8" y2="673.8"/><line style="stroke:#181818;stroke-width:0.5;" x1="910.76" x2="1131.3612" y1="681.8" y2="681.8"/><ellipse cx="920.76" cy="695.7" fill="#84BE84" rx="3" ry="3" style="stroke:#038048;stroke-width:1;"/><text fill="#000000" font-family="sans-serif" font-size="14" lengthAdjust="spacing" textLength="110.7116" x="929.76" y="699.5619">hour() : Integer [1]</text><ellipse cx="920.76" cy="712.4999" fill="#84BE84" rx="3" ry="3" style="stroke:#038048;stroke-width:1;"/><text fill="#000000" font-family="sans-serif" font-size="14" lengthAdjust="spacing" textLength="125.7895" x="929.76" y="716.3619">minute() : Integer [1]</text><ellipse cx="920.76" cy="729.2998" fill="#84BE84" rx="3" ry="3" style="stroke:#038048;stroke-width:1;"/><text fill="#000000" font-family="sans-serif" font-size="14" lengthAdjust="spacing" textLength="107.6036" x="929.76" y="733.1618">sign() : Integer [1]</text><ellipse cx="920.76" cy="746.0997" fill="#84BE84" rx="3" ry="3" style="stroke:#038048;stroke-width:1;"/><text fill="#000000" font-family="sans-serif" font-size="14" lengthAdjust="spacing" textLength="196.6012" x="929.76" y="749.9617">minute_unknown() : Boolean [1]</text><ellipse cx="920.76" cy="762.8997" fill="#84BE84" rx="3" ry="3" style="stroke:#038048;stroke-width:1;"/><text fill="#000000" font-family="sans-serif" font-size="14" lengthAdjust="spacing" textLength="144.9974" x="929.76" y="766.7616">is_partial() : Boolean [1]</text><ellipse cx="920.76" cy="779.6996" fill="#84BE84" rx="3" ry="3" style="stroke:#038048;stroke-width:1;"/><text fill="#000000" font-family="sans-serif" font-size="14" lengthAdjust="spacing" textLength="162.6934" x="929.76" y="783.5616">is_extended() : Boolean [1]</text><ellipse cx="920.76" cy="796.4995" fill="#84BE84" rx="3" ry="3" style="stroke:#038048;stroke-width:1;"/><text fill="#000000" font-family="sans-serif" font-size="14" lengthAdjust="spacing" textLength="130.4375" x="929.76" y="800.3615">is_gmt() : Boolean [1]</text><ellipse cx="920.76" cy="813.2995" fill="#84BE84" rx="3" ry="3" style="stroke:#038048;stroke-width:1;"/><text fill="#000000" font-family="sans-serif" font-size="14" lengthAdjust="spacing" textLength="131.2635" x="929.76" y="817.1614">as_string() : String [1]</text></g><!--class Iso8601_type--><g class="entity" data-entity="Iso8601_type" data-source-line="64" data-uid="ent0006" id="entity_Iso8601_type"><rect fill="#F1F1F1" height="98.3998" rx="2.5" ry="2.5" style="stroke:#181818;stroke-width:0.5;" width="188.6934" x="647.72" y="407.8"/><ellipse cx="696.2508" cy="423.8" fill="#A9DCDF" rx="11" ry="11" style="stroke:#181818;stroke-width:1;"/><path d="M690.7665,429.3 L692.7977,429.3 L696.8446,417.9562 L695.9383,417.9562 L699.7665,429.3 L701.9071,429.3 L697.579,416.9719 L695.3602,416.9719 L690.7665,429.3 Z M693.0946,425.8 L699.5321,425.8 L699.5321,424.05 L693.0946,424.05 L693.0946,425.8 Z " fill="#000000"/><text fill="#000000" font-family="sans-serif" font-size="14" font-style="italic" lengthAdjust="spacing" textLength="83.1317" x="716.7508" y="429.162">Iso8601_type</text><line style="stroke:#181818;stroke-width:0.5;" x1="648.72" x2="835.4134" y1="439.8" y2="439.8"/><ellipse cx="658.72" cy="453.7" fill="none" rx="3" ry="3" style="stroke:#038048;stroke-width:1;"/><text fill="#000000" font-family="sans-serif" font-size="14" lengthAdjust="spacing" textLength="98.9656" x="667.72" y="457.5619">value : String [1]</text><line style="stroke:#181818;stroke-width:0.5;" x1="648.72" x2="835.4134" y1="464.5999" y2="464.5999"/><ellipse cx="658.72" cy="478.4999" fill="#84BE84" rx="3" ry="3" style="stroke:#038048;stroke-width:1;"/><text fill="#000000" font-family="sans-serif" font-size="14" font-style="italic" lengthAdjust="spacing" textLength="144.9974" x="667.72" y="482.3619">is_partial() : Boolean [1]</text><ellipse cx="658.72" cy="495.2998" fill="#84BE84" rx="3" ry="3" style="stroke:#038048;stroke-width:1;"/><text fill="#000000" font-family="sans-serif" font-size="14" font-style="italic" lengthAdjust="spacing" textLength="162.6934" x="667.72" y="499.1618">is_extended() : Boolean [1]</text></g><!--class Iso8601_date--><g class="entity" data-entity="Iso8601_date" data-source-line="70" data-uid="ent0007" id="entity_Iso8601_date"><rect fill="#F1F1F1" height="199.1993" rx="2.5" ry="2.5" style="stroke:#181818;stroke-width:0.5;" width="235.0612" x="1167.53" y="633.4"/><ellipse cx="1239.0278" cy="649.4" fill="#ADD1B2" rx="11" ry="11" style="stroke:#181818;stroke-width:1;"/><path d="M1239.0278,655.8219 C1240.1996,655.8219 1241.434,655.5563 1242.809,654.9469 L1242.3246,653.4313 C1241.2309,653.8531 1240.2153,654.0406 1239.3559,654.0406 C1236.6371,654.0406 1234.9184,652.1969 1234.9184,649.2906 C1234.9184,646.5406 1236.4809,644.9469 1239.2153,644.9469 C1240.1371,644.9469 1241.1528,645.1344 1242.2934,645.5563 L1242.8715,644.0406 C1241.7778,643.4625 1240.4809,643.1656 1239.2934,643.1656 C1235.5278,643.1656 1232.9496,645.8063 1232.9496,649.6188 C1232.9496,653.2906 1235.434,655.8219 1239.0278,655.8219 Z " fill="#000000"/><text fill="#000000" font-family="sans-serif" font-size="14" lengthAdjust="spacing" textLength="83.5657" x="1259.5278" y="654.762">Iso8601_date</text><line style="stroke:#181818;stroke-width:0.5;" x1="1168.53" x2="1401.5912" y1="665.4" y2="665.4"/><line style="stroke:#181818;stroke-width:0.5;" x1="1168.53" x2="1401.5912" y1="673.4" y2="673.4"/><ellipse cx="1178.53" cy="687.3" fill="#84BE84" rx="3" ry="3" style="stroke:#038048;stroke-width:1;"/><text fill="#000000" font-family="sans-serif" font-size="14" lengthAdjust="spacing" textLength="108.3036" x="1187.53" y="691.1619">year() : Integer [1]</text><ellipse cx="1178.53" cy="704.0999" fill="#84BE84" rx="3" ry="3" style="stroke:#038048;stroke-width:1;"/><text fill="#000000" font-family="sans-serif" font-size="14" lengthAdjust="spacing" textLength="123.0175" x="1187.53" y="707.9619">month() : Integer [1]</text><ellipse cx="1178.53" cy="720.8998" fill="#84BE84" rx="3" ry="3" style="stroke:#038048;stroke-width:1;"/><text fill="#000000" font-family="sans-serif" font-size="14" lengthAdjust="spacing" textLength="103.6136" x="1187.53" y="724.7618">day() : Integer [1]</text><ellipse cx="1178.53" cy="737.6997" fill="#84BE84" rx="3" ry="3" style="stroke:#038048;stroke-width:1;"/><text fill="#000000" font-family="sans-serif" font-size="14" lengthAdjust="spacing" textLength="209.0612" x="1187.53" y="741.5617">timezone() : Iso8601_timezone [1]</text><ellipse cx="1178.53" cy="754.4997" fill="#84BE84" rx="3" ry="3" style="stroke:#038048;stroke-width:1;"/><text fill="#000000" font-family="sans-serif" font-size="14" lengthAdjust="spacing" textLength="193.8293" x="1187.53" y="758.3616">month_unknown() : Boolean [1]</text><ellipse cx="1178.53" cy="771.2996" fill="#84BE84" rx="3" ry="3" style="stroke:#038048;stroke-width:1;"/><text fill="#000000" font-family="sans-serif" font-size="14" lengthAdjust="spacing" textLength="174.4253" x="1187.53" y="775.1616">day_unknown() : Boolean [1]</text><ellipse cx="1178.53" cy="788.0995" fill="#84BE84" rx="3" ry="3" style="stroke:#038048;stroke-width:1;"/><text fill="#000000" font-family="sans-serif" font-size="14" lengthAdjust="spacing" textLength="144.9974" x="1187.53" y="791.9615">is_partial() : Boolean [1]</text><ellipse cx="1178.53" cy="804.8995" fill="#84BE84" rx="3" ry="3" style="stroke:#038048;stroke-width:1;"/><text fill="#000000" font-family="sans-serif" font-size="14" lengthAdjust="spacing" textLength="162.6934" x="1187.53" y="808.7614">is_extended() : Boolean [1]</text><ellipse cx="1178.53" cy="821.6994" fill="#84BE84" rx="3" ry="3" style="stroke:#038048;stroke-width:1;"/><text fill="#000000" font-family="sans-serif" font-size="14" lengthAdjust="spacing" textLength="131.2635" x="1187.53" y="825.5614">as_string() : String [1]</text></g><!--class Time_Definitions--><g class="entity" data-entity="Time_Definitions" data-source-line="82" data-uid="ent0008" id="entity_Time_Definitions"><rect fill="#F1F1F1" height="232.7992" rx="2.5" ry="2.5" style="stroke:#181818;stroke-width:0.5;" width="445.5084" x="367.31" y="115"/><ellipse cx="532.8314" cy="131" fill="#ADD1B2" rx="11" ry="11" style="stroke:#181818;stroke-width:1;"/><path d="M532.8314,137.4219 C534.0033,137.4219 535.2377,137.1563 536.6127,136.5469 L536.1283,135.0313 C535.0345,135.4531 534.0189,135.6406 533.1595,135.6406 C530.4408,135.6406 528.722,133.7969 528.722,130.8906 C528.722,128.1406 530.2845,126.5469 533.0189,126.5469 C533.9408,126.5469 534.9564,126.7344 536.097,127.1563 L536.6752,125.6406 C535.5814,125.0625 534.2845,124.7656 533.097,124.7656 C529.3314,124.7656 526.7533,127.4063 526.7533,131.2188 C526.7533,134.8906 529.2377,137.4219 532.8314,137.4219 Z " fill="#000000"/><text fill="#000000" font-family="sans-serif" font-size="14" lengthAdjust="spacing" textLength="105.9656" x="553.3314" y="136.362">Time_Definitions</text><line style="stroke:#181818;stroke-width:0.5;" x1="368.31" x2="811.8184" y1="147" y2="147"/><line style="stroke:#181818;stroke-width:0.5;" x1="368.31" x2="811.8184" y1="155" y2="155"/><ellipse cx="378.31" cy="168.9" fill="#84BE84" rx="3" ry="3" style="stroke:#038048;stroke-width:1;"/><text fill="#000000" font-family="sans-serif" font-size="14" lengthAdjust="spacing" textLength="237.0191" x="387.31" y="172.7619">valid_year( y : Integer [1] ) : Boolean [1]</text><ellipse cx="378.31" cy="185.6999" fill="#84BE84" rx="3" ry="3" style="stroke:#038048;stroke-width:1;"/><text fill="#000000" font-family="sans-serif" font-size="14" lengthAdjust="spacing" textLength="257.417" x="387.31" y="189.5619">valid_month( m : Integer [1] ) : Boolean [1]</text><ellipse cx="378.31" cy="202.4998" fill="#84BE84" rx="3" ry="3" style="stroke:#038048;stroke-width:1;"/><text fill="#000000" font-family="sans-serif" font-size="14" lengthAdjust="spacing" textLength="412.6764" x="387.31" y="206.3618">valid_day( y : Integer [1], m : Integer [1], d : Integer [1] ) : Boolean [1]</text><ellipse cx="378.31" cy="219.2997" fill="#84BE84" rx="3" ry="3" style="stroke:#038048;stroke-width:1;"/><text fill="#000000" font-family="sans-serif" font-size="14" lengthAdjust="spacing" textLength="419.5084" x="387.31" y="223.1617">valid_hour( h : Integer [1], m : Integer [1], s : Integer [1] ) : Boolean [1]</text><ellipse cx="378.31" cy="236.0997" fill="#84BE84" rx="3" ry="3" style="stroke:#038048;stroke-width:1;"/><text fill="#000000" font-family="sans-serif" font-size="14" lengthAdjust="spacing" textLength="260.189" x="387.31" y="239.9616">valid_minute( m : Integer [1] ) : Boolean [1]</text><ellipse cx="378.31" cy="252.8996" fill="#84BE84" rx="3" ry="3" style="stroke:#038048;stroke-width:1;"/><text fill="#000000" font-family="sans-serif" font-size="14" lengthAdjust="spacing" textLength="254.519" x="387.31" y="256.7616">valid_second( s : Integer [1] ) : Boolean [1]</text><ellipse cx="378.31" cy="269.6995" fill="#84BE84" rx="3" ry="3" style="stroke:#038048;stroke-width:1;"/><text fill="#000000" font-family="sans-serif" font-size="14" lengthAdjust="spacing" textLength="325.6528" x="387.31" y="273.5615">valid_fractional_second( fs : Double [1] ) : Boolean [1]</text><ellipse cx="378.31" cy="286.4995" fill="#84BE84" rx="3" ry="3" style="stroke:#038048;stroke-width:1;"/><text fill="#000000" font-family="sans-serif" font-size="14" lengthAdjust="spacing" textLength="286.1729" x="387.31" y="290.3614">valid_iso8601_date( s : String [1] ) : Boolean [1]</text><ellipse cx="378.31" cy="303.2994" fill="#84BE84" rx="3" ry="3" style="stroke:#038048;stroke-width:1;"/><text fill="#000000" font-family="sans-serif" font-size="14" lengthAdjust="spacing" textLength="286.8729" x="387.31" y="307.1614">valid_iso8601_time( s : String [1] ) : Boolean [1]</text><ellipse cx="378.31" cy="320.0993" fill="#84BE84" rx="3" ry="3" style="stroke:#038048;stroke-width:1;"/><text fill="#000000" font-family="sans-serif" font-size="14" lengthAdjust="spacing" textLength="321.4667" x="387.31" y="323.9613">valid_iso8601_date_time( s : String [1] ) : Boolean [1]</text><ellipse cx="378.31" cy="336.8992" fill="#84BE84" rx="3" ry="3" style="stroke:#038048;stroke-width:1;"/><text fill="#000000" font-family="sans-serif" font-size="14" lengthAdjust="spacing" textLength="311.1908" x="387.31" y="340.7612">valid_iso8601_duration( s : String [1] ) : Boolean [1]</text></g><!--class Temporal--><g class="entity" data-entity="Temporal" data-source-line="96" data-uid="ent0009" id="entity_Temporal"><rect fill="#F1F1F1" height="48" rx="2.5" ry="2.5" style="stroke:#181818;stroke-width:0.5;" width="91.9898" x="848.07" y="207.4"/><ellipse cx="863.07" cy="223.4" fill="#A9DCDF" rx="11" ry="11" style="stroke:#181818;stroke-width:1;"/><path d="M857.5856,228.9 L859.6169,228.9 L863.6638,217.5562 L862.7575,217.5562 L866.5856,228.9 L868.7263,228.9 L864.3981,216.5719 L862.1794,216.5719 L857.5856,228.9 Z M859.9138,225.4 L866.3513,225.4 L866.3513,223.65 L859.9138,223.65 L859.9138,225.4 Z " fill="#000000"/><text fill="#000000" font-family="sans-serif" font-size="14" font-style="italic" lengthAdjust="spacing" textLength="59.9898" x="877.07" y="228.762">Temporal</text><line style="stroke:#181818;stroke-width:0.5;" x1="849.07" x2="939.0598" y1="239.4" y2="239.4"/><line style="stroke:#181818;stroke-width:0.5;" x1="849.07" x2="939.0598" y1="247.4" y2="247.4"/></g><!--class Ordered--><g class="entity" data-entity="Ordered" data-source-line="106" data-uid="ent0017" id="entity_Ordered"><rect fill="#F1F1F1" height="48" rx="2.5" ry="2.5" style="stroke:#181818;stroke-width:0.5;" width="83.9398" x="852.09" y="7"/><ellipse cx="867.09" cy="23" fill="#ADD1B2" rx="11" ry="11" style="stroke:#181818;stroke-width:1;"/><path d="M867.09,29.4219 C868.2619,29.4219 869.4963,29.1563 870.8713,28.5469 L870.3869,27.0313 C869.2931,27.4531 868.2775,27.6406 867.4181,27.6406 C864.6994,27.6406 862.9806,25.7969 862.9806,22.8906 C862.9806,20.1406 864.5431,18.5469 867.2775,18.5469 C868.1994,18.5469 869.215,18.7344 870.3556,19.1563 L870.9338,17.6406 C869.84,17.0625 868.5431,16.7656 867.3556,16.7656 C863.59,16.7656 861.0119,19.4063 861.0119,23.2188 C861.0119,26.8906 863.4963,29.4219 867.09,29.4219 Z " fill="#000000"/><text fill="#000000" font-family="sans-serif" font-size="14" lengthAdjust="spacing" textLength="51.9398" x="881.09" y="28.362">Ordered</text><line style="stroke:#181818;stroke-width:0.5;" x1="853.09" x2="935.0298" y1="39" y2="39"/><line style="stroke:#181818;stroke-width:0.5;" x1="853.09" x2="935.0298" y1="47" y2="47"/></g><!--reverse link Iso8601_type to Iso8601_date_time--><g class="link" data-entity-1="Iso8601_type" data-entity-2="Iso8601_date_time" data-source-line="99" data-uid="lnk10" id="link_Iso8601_type_Iso8601_date_time"><path codeLine="99" d="M629.3368,466.1844 C533.4068,476.1744 401.64,500.05 290.06,566.2 C284.39,569.57 278.8,573.22 273.32,577.1" fill="none" id="Iso8601_type-backto-Iso8601_date_time" style="stroke:#181818;stroke-width:1;"/><polygon fill="none" points="647.24,464.32,628.7153,460.2167,629.9583,472.1521,647.24,464.32" style="stroke:#181818;stroke-width:1;"/></g><!--reverse link Iso8601_type to Iso8601_duration--><g class="link" data-entity-1="Iso8601_type" data-entity-2="Iso8601_duration" data-source-line="100" data-uid="lnk11" id="link_Iso8601_type_Iso8601_duration"><path codeLine="100" d="M653.0988,516.7894 C627.8388,534.4894 614.77,545.05 591.06,566.2 C579.33,576.67 567.56,587.97 556.05,599.59" fill="none" id="Iso8601_type-backto-Iso8601_duration" style="stroke:#181818;stroke-width:1;"/><polygon fill="none" points="667.84,506.46,649.6556,511.8756,656.5419,521.7031,667.84,506.46" style="stroke:#181818;stroke-width:1;"/></g><!--reverse link Iso8601_type to Iso8601_time--><g class="link" data-entity-1="Iso8601_type" data-entity-2="Iso8601_time" data-source-line="101" data-uid="lnk12" id="link_Iso8601_type_Iso8601_time"><path codeLine="101" d="M742.06,524.67 C742.06,552.97 742.06,572.03 742.06,607.9" fill="none" id="Iso8601_type-backto-Iso8601_time" style="stroke:#181818;stroke-width:1;"/><polygon fill="none" points="742.06,506.67,736.06,524.67,748.06,524.67,742.06,506.67" style="stroke:#181818;stroke-width:1;"/></g><!--reverse link Iso8601_type to Iso8601_timezone--><g class="link" data-entity-1="Iso8601_type" data-entity-2="Iso8601_timezone" data-source-line="102" data-uid="lnk13" id="link_Iso8601_type_Iso8601_timezone"><path codeLine="102" d="M833.5465,516.8076 C858.4565,534.2076 870.67,544.59 893.06,566.2 C916.48,588.8 939.17,615.86 958.78,641.51" fill="none" id="Iso8601_type-backto-Iso8601_timezone" style="stroke:#181818;stroke-width:1;"/><polygon fill="none" points="818.79,506.5,830.1106,521.7264,836.9823,511.8888,818.79,506.5" style="stroke:#181818;stroke-width:1;"/></g><!--reverse link Temporal to Iso8601_type--><g class="link" data-entity-1="Temporal" data-entity-2="Iso8601_type" data-source-line="103" data-uid="lnk14" id="link_Temporal_Iso8601_type"><path codeLine="103" d="M874.607,271.738 C862.617,295.558 850.72,317.25 830.06,347.8 C816.36,368.06 799.78,389.17 784.71,407.32" fill="none" id="Temporal-backto-Iso8601_type" style="stroke:#181818;stroke-width:1;"/><polygon fill="none" points="882.7,255.66,869.2476,269.0404,879.9663,274.4357,882.7,255.66" style="stroke:#181818;stroke-width:1;"/></g><!--reverse link Time_Definitions to Iso8601_type--><g class="link" data-entity-1="Time_Definitions" data-entity-2="Iso8601_type" data-source-line="104" data-uid="lnk15" id="link_Time_Definitions_Iso8601_type"><path codeLine="104" d="M678.849,363.0164 C693.049,383.9064 697.01,389.72 708.97,407.32" fill="none" id="Time_Definitions-backto-Iso8601_type" style="stroke:#181818;stroke-width:1;"/><polygon fill="none" points="668.73,348.13,673.8869,366.3894,683.8112,359.6434,668.73,348.13" style="stroke:#181818;stroke-width:1;"/></g><!--reverse link Iso8601_type to Iso8601_date--><g class="link" data-entity-1="Iso8601_type" data-entity-2="Iso8601_date" data-source-line="105" data-uid="lnk16" id="link_Iso8601_type_Iso8601_date"><path codeLine="105" d="M854.4995,468.6229 C941.7895,479.9829 1054.18,504.29 1150.06,566.2 C1177.04,583.62 1201.2,608.19 1221.36,633.1" fill="none" id="Iso8601_type-backto-Iso8601_date" style="stroke:#181818;stroke-width:1;"/><polygon fill="none" points="836.65,466.3,853.7252,474.5728,855.2738,462.6731,836.65,466.3" style="stroke:#181818;stroke-width:1;"/></g><!--reverse link Ordered to Temporal--><g class="link" data-entity-1="Ordered" data-entity-2="Temporal" data-source-line="106" data-uid="lnk18" id="link_Ordered_Temporal"><path codeLine="106" d="M894.06,73.15 C894.06,111.28 894.06,168.86 894.06,207.1" fill="none" id="Ordered-backto-Temporal" style="stroke:#181818;stroke-width:1;"/><polygon fill="none" points="894.06,55.15,888.06,73.15,900.06,73.15,894.06,55.15" style="stroke:#181818;stroke-width:1;"/></g></g></svg>
