<svg xmlns="http://www.w3.org/2000/svg" xmlns:xlink="http://www.w3.org/1999/xlink" contentStyleType="text/css" data-diagram-type="CLASS" height="664px" preserveAspectRatio="none" style="width:1867px;height:664px;background:#FFFFFF;" version="1.1" viewBox="0 0 1867 664" width="1867px" zoomAndPan="magnify"><defs/><g><!--class Uri--><g class="entity" data-entity="Uri" data-source-line="2" data-uid="ent0002" id="entity_Uri"><rect fill="#F1F1F1" height="48" rx="2.5" ry="2.5" style="stroke:#181818;stroke-width:0.5;" width="50.1159" x="1316.2" y="525.4"/><ellipse cx="1331.2" cy="541.4" fill="#ADD1B2" rx="11" ry="11" style="stroke:#181818;stroke-width:1;"/><path d="M1331.2,547.8219 C1332.3719,547.8219 1333.6063,547.5563 1334.9813,546.9469 L1334.4969,545.4313 C1333.4031,545.8531 1332.3875,546.0406 1331.5281,546.0406 C1328.8094,546.0406 1327.0906,544.1969 1327.0906,541.2906 C1327.0906,538.5406 1328.6531,536.9469 1331.3875,536.9469 C1332.3094,536.9469 1333.325,537.1344 1334.4656,537.5563 L1335.0438,536.0406 C1333.95,535.4625 1332.6531,535.1656 1331.4656,535.1656 C1327.7,535.1656 1325.1219,537.8063 1325.1219,541.6188 C1325.1219,545.2906 1327.6063,547.8219 1331.2,547.8219 Z " fill="#000000"/><text fill="#000000" font-family="sans-serif" font-size="14" lengthAdjust="spacing" textLength="18.1159" x="1345.2" y="546.762">Uri</text><line style="stroke:#181818;stroke-width:0.5;" x1="1317.2" x2="1365.3159" y1="557.4" y2="557.4"/><line style="stroke:#181818;stroke-width:0.5;" x1="1317.2" x2="1365.3159" y1="565.4" y2="565.4"/></g><!--class Comparable--><g class="entity" data-entity="Comparable" data-source-line="5" data-uid="ent0003" id="entity_Comparable"><rect fill="#F1F1F1" height="48" rx="2.5" ry="2.5" style="stroke:#181818;stroke-width:0.5;" width="108.2437" x="1343.13" y="65.8"/><ellipse cx="1358.13" cy="81.8" fill="#A9DCDF" rx="11" ry="11" style="stroke:#181818;stroke-width:1;"/><path d="M1352.6456,87.3 L1354.6769,87.3 L1358.7238,75.9562 L1357.8175,75.9562 L1361.6456,87.3 L1363.7863,87.3 L1359.4581,74.9719 L1357.2394,74.9719 L1352.6456,87.3 Z M1354.9738,83.8 L1361.4113,83.8 L1361.4113,82.05 L1354.9738,82.05 L1354.9738,83.8 Z " fill="#000000"/><text fill="#000000" font-family="sans-serif" font-size="14" font-style="italic" lengthAdjust="spacing" textLength="76.2437" x="1372.13" y="87.162">Comparable</text><line style="stroke:#181818;stroke-width:0.5;" x1="1344.13" x2="1450.3737" y1="97.8" y2="97.8"/><line style="stroke:#181818;stroke-width:0.5;" x1="1344.13" x2="1450.3737" y1="105.8" y2="105.8"/></g><!--class Ordered_Numeric--><g class="entity" data-entity="Ordered_Numeric" data-source-line="8" data-uid="ent0004" id="entity_Ordered_Numeric"><rect fill="#F1F1F1" height="48" rx="2.5" ry="2.5" style="stroke:#181818;stroke-width:0.5;" width="144.3075" x="704.1" y="283"/><ellipse cx="719.1" cy="299" fill="#A9DCDF" rx="11" ry="11" style="stroke:#181818;stroke-width:1;"/><path d="M713.6156,304.5 L715.6469,304.5 L719.6938,293.1563 L718.7875,293.1563 L722.6156,304.5 L724.7563,304.5 L720.4281,292.1719 L718.2094,292.1719 L713.6156,304.5 Z M715.9438,301 L722.3813,301 L722.3813,299.25 L715.9438,299.25 L715.9438,301 Z " fill="#000000"/><text fill="#000000" font-family="sans-serif" font-size="14" font-style="italic" lengthAdjust="spacing" textLength="112.3075" x="733.1" y="304.362">Ordered_Numeric</text><line style="stroke:#181818;stroke-width:0.5;" x1="705.1" x2="847.4075" y1="315" y2="315"/><line style="stroke:#181818;stroke-width:0.5;" x1="705.1" x2="847.4075" y1="323" y2="323"/></g><!--class Integer--><g class="entity" data-entity="Integer" data-source-line="11" data-uid="ent0005" id="entity_Integer"><rect fill="#F1F1F1" height="215.9993" rx="2.5" ry="2.5" style="stroke:#181818;stroke-width:0.5;" width="286.511" x="7" y="441.4"/><ellipse cx="123.6196" cy="457.4" fill="#ADD1B2" rx="11" ry="11" style="stroke:#181818;stroke-width:1;"/><path d="M123.6196,463.8219 C124.7915,463.8219 126.0258,463.5563 127.4008,462.9469 L126.9165,461.4313 C125.8227,461.8531 124.8071,462.0406 123.9477,462.0406 C121.229,462.0406 119.5102,460.1969 119.5102,457.2906 C119.5102,454.5406 121.0727,452.9469 123.8071,452.9469 C124.729,452.9469 125.7446,453.1344 126.8852,453.5563 L127.4633,452.0406 C126.3696,451.4625 125.0727,451.1656 123.8852,451.1656 C120.1196,451.1656 117.5415,453.8063 117.5415,457.6188 C117.5415,461.2906 120.0258,463.8219 123.6196,463.8219 Z " fill="#000000"/><text fill="#000000" font-family="sans-serif" font-size="14" lengthAdjust="spacing" textLength="44.7718" x="144.1196" y="462.762">Integer</text><line style="stroke:#181818;stroke-width:0.5;" x1="8" x2="292.511" y1="473.4" y2="473.4"/><line style="stroke:#181818;stroke-width:0.5;" x1="8" x2="292.511" y1="481.4" y2="481.4"/><ellipse cx="18" cy="495.3" fill="#84BE84" rx="3" ry="3" style="stroke:#038048;stroke-width:1;"/><text fill="#000000" font-family="sans-serif" font-size="14" lengthAdjust="spacing" textLength="217.9512" x="27" y="499.1619">add( other : Integer [1] ) : Integer [1]</text><ellipse cx="18" cy="512.0999" fill="#84BE84" rx="3" ry="3" style="stroke:#038048;stroke-width:1;"/><text fill="#000000" font-family="sans-serif" font-size="14" lengthAdjust="spacing" textLength="246.2031" x="27" y="515.9619">subtract( other : Integer [1] ) : Integer [1]</text><ellipse cx="18" cy="528.8998" fill="#84BE84" rx="3" ry="3" style="stroke:#038048;stroke-width:1;"/><text fill="#000000" font-family="sans-serif" font-size="14" lengthAdjust="spacing" textLength="246.0351" x="27" y="532.7618">multiply( other : Integer [1] ) : Integer [1]</text><ellipse cx="18" cy="545.6997" fill="#84BE84" rx="3" ry="3" style="stroke:#038048;stroke-width:1;"/><text fill="#000000" font-family="sans-serif" font-size="14" lengthAdjust="spacing" textLength="231.9791" x="27" y="549.5617">divide( other : Integer [1] ) : Double [1]</text><ellipse cx="18" cy="562.4997" fill="#84BE84" rx="3" ry="3" style="stroke:#038048;stroke-width:1;"/><text fill="#000000" font-family="sans-serif" font-size="14" lengthAdjust="spacing" textLength="253.427" x="27" y="566.3616">exponent( other : Double [1] ) : Double [1]</text><ellipse cx="18" cy="579.2996" fill="#84BE84" rx="3" ry="3" style="stroke:#038048;stroke-width:1;"/><text fill="#000000" font-family="sans-serif" font-size="14" lengthAdjust="spacing" textLength="237.5091" x="27" y="583.1616">modulo( mod : Integer [1] ) : Integer [1]</text><ellipse cx="18" cy="596.0995" fill="#84BE84" rx="3" ry="3" style="stroke:#038048;stroke-width:1;"/><text fill="#000000" font-family="sans-serif" font-size="14" lengthAdjust="spacing" textLength="260.511" x="27" y="599.9615">less_than( other : Integer [1] ) : Boolean [1]</text><ellipse cx="18" cy="612.8995" fill="#84BE84" rx="3" ry="3" style="stroke:#038048;stroke-width:1;"/><text fill="#000000" font-family="sans-serif" font-size="14" lengthAdjust="spacing" textLength="134.8335" x="27" y="616.7614">negative() : Integer [1]</text><ellipse cx="18" cy="629.6994" fill="#84BE84" rx="3" ry="3" style="stroke:#038048;stroke-width:1;"/><text fill="#000000" font-family="sans-serif" font-size="14" lengthAdjust="spacing" textLength="252.321" x="27" y="633.5614">is_equal( other : Integer [1] ) : Boolean [1]</text><ellipse cx="18" cy="646.4993" fill="#84BE84" rx="3" ry="3" style="stroke:#038048;stroke-width:1;"/><text fill="#000000" font-family="sans-serif" font-size="14" lengthAdjust="spacing" textLength="235.3811" x="27" y="650.3613">equal( other : Integer [1] ) : Boolean [1]</text></g><!--class Double--><g class="entity" data-entity="Double" data-source-line="24" data-uid="ent0006" id="entity_Double"><rect fill="#F1F1F1" height="215.9993" rx="2.5" ry="2.5" style="stroke:#181818;stroke-width:0.5;" width="286.707" x="328.9" y="441.4"/><ellipse cx="445.5196" cy="457.4" fill="#ADD1B2" rx="11" ry="11" style="stroke:#181818;stroke-width:1;"/><path d="M445.5196,463.8219 C446.6915,463.8219 447.9258,463.5563 449.3008,462.9469 L448.8165,461.4313 C447.7227,461.8531 446.7071,462.0406 445.8477,462.0406 C443.129,462.0406 441.4102,460.1969 441.4102,457.2906 C441.4102,454.5406 442.9727,452.9469 445.7071,452.9469 C446.629,452.9469 447.6446,453.1344 448.7852,453.5563 L449.3633,452.0406 C448.2696,451.4625 446.9727,451.1656 445.7852,451.1656 C442.0196,451.1656 439.4415,453.8063 439.4415,457.6188 C439.4415,461.2906 441.9258,463.8219 445.5196,463.8219 Z " fill="#000000"/><text fill="#000000" font-family="sans-serif" font-size="14" lengthAdjust="spacing" textLength="44.9678" x="466.0196" y="462.762">Double</text><line style="stroke:#181818;stroke-width:0.5;" x1="329.9" x2="614.607" y1="473.4" y2="473.4"/><line style="stroke:#181818;stroke-width:0.5;" x1="329.9" x2="614.607" y1="481.4" y2="481.4"/><ellipse cx="339.9" cy="495.3" fill="#84BE84" rx="3" ry="3" style="stroke:#038048;stroke-width:1;"/><text fill="#000000" font-family="sans-serif" font-size="14" lengthAdjust="spacing" textLength="111.5516" x="348.9" y="499.1619">floor() : Integer [1]</text><ellipse cx="339.9" cy="512.0999" fill="#84BE84" rx="3" ry="3" style="stroke:#038048;stroke-width:1;"/><text fill="#000000" font-family="sans-serif" font-size="14" lengthAdjust="spacing" textLength="218.3431" x="348.9" y="515.9619">add( other : Double [1] ) : Double [1]</text><ellipse cx="339.9" cy="528.8998" fill="#84BE84" rx="3" ry="3" style="stroke:#038048;stroke-width:1;"/><text fill="#000000" font-family="sans-serif" font-size="14" lengthAdjust="spacing" textLength="246.595" x="348.9" y="532.7618">subtract( other : Double [1] ) : Double [1]</text><ellipse cx="339.9" cy="545.6997" fill="#84BE84" rx="3" ry="3" style="stroke:#038048;stroke-width:1;"/><text fill="#000000" font-family="sans-serif" font-size="14" lengthAdjust="spacing" textLength="246.427" x="348.9" y="549.5617">multiply( other : Double [1] ) : Double [1]</text><ellipse cx="339.9" cy="562.4997" fill="#84BE84" rx="3" ry="3" style="stroke:#038048;stroke-width:1;"/><text fill="#000000" font-family="sans-serif" font-size="14" lengthAdjust="spacing" textLength="232.1751" x="348.9" y="566.3616">divide( other : Double [1] ) : Double [1]</text><ellipse cx="339.9" cy="579.2996" fill="#84BE84" rx="3" ry="3" style="stroke:#038048;stroke-width:1;"/><text fill="#000000" font-family="sans-serif" font-size="14" lengthAdjust="spacing" textLength="253.427" x="348.9" y="583.1616">exponent( other : Double [1] ) : Double [1]</text><ellipse cx="339.9" cy="596.0995" fill="#84BE84" rx="3" ry="3" style="stroke:#038048;stroke-width:1;"/><text fill="#000000" font-family="sans-serif" font-size="14" lengthAdjust="spacing" textLength="260.707" x="348.9" y="599.9615">less_than( other : Double [1] ) : Boolean [1]</text><ellipse cx="339.9" cy="612.8995" fill="#84BE84" rx="3" ry="3" style="stroke:#038048;stroke-width:1;"/><text fill="#000000" font-family="sans-serif" font-size="14" lengthAdjust="spacing" textLength="135.0295" x="348.9" y="616.7614">negative() : Double [1]</text><ellipse cx="339.9" cy="629.6994" fill="#84BE84" rx="3" ry="3" style="stroke:#038048;stroke-width:1;"/><text fill="#000000" font-family="sans-serif" font-size="14" lengthAdjust="spacing" textLength="252.517" x="348.9" y="633.5614">is_equal( other : Double [1] ) : Boolean [1]</text><ellipse cx="339.9" cy="646.4993" fill="#84BE84" rx="3" ry="3" style="stroke:#038048;stroke-width:1;"/><text fill="#000000" font-family="sans-serif" font-size="14" lengthAdjust="spacing" textLength="235.5771" x="348.9" y="650.3613">equal( other : Double [1] ) : Boolean [1]</text></g><!--class Numeric--><g class="entity" data-entity="Numeric" data-source-line="37" data-uid="ent0007" id="entity_Numeric"><rect fill="#F1F1F1" height="148.7996" rx="2.5" ry="2.5" style="stroke:#181818;stroke-width:0.5;" width="296.2269" x="601.14" y="15.4"/><ellipse cx="718.3196" cy="31.4" fill="#A9DCDF" rx="11" ry="11" style="stroke:#181818;stroke-width:1;"/><path d="M712.8352,36.9 L714.8664,36.9 L718.9133,25.5562 L718.0071,25.5562 L721.8352,36.9 L723.9758,36.9 L719.6477,24.5719 L717.4289,24.5719 L712.8352,36.9 Z M715.1633,33.4 L721.6008,33.4 L721.6008,31.65 L715.1633,31.65 L715.1633,33.4 Z " fill="#000000"/><text fill="#000000" font-family="sans-serif" font-size="14" font-style="italic" lengthAdjust="spacing" textLength="53.3678" x="738.8196" y="36.762">Numeric</text><line style="stroke:#181818;stroke-width:0.5;" x1="602.14" x2="896.3669" y1="47.4" y2="47.4"/><line style="stroke:#181818;stroke-width:0.5;" x1="602.14" x2="896.3669" y1="55.4" y2="55.4"/><ellipse cx="612.14" cy="69.3" fill="#84BE84" rx="3" ry="3" style="stroke:#038048;stroke-width:1;"/><text fill="#000000" font-family="sans-serif" font-size="14" font-style="italic" lengthAdjust="spacing" textLength="235.1431" x="621.14" y="73.1619">add( other : Numeric [1] ) : Numeric [1]</text><ellipse cx="612.14" cy="86.0999" fill="#84BE84" rx="3" ry="3" style="stroke:#038048;stroke-width:1;"/><text fill="#000000" font-family="sans-serif" font-size="14" font-style="italic" lengthAdjust="spacing" textLength="263.395" x="621.14" y="89.9619">subtract( other : Numeric [1] ) : Numeric [1]</text><ellipse cx="612.14" cy="102.8998" fill="#84BE84" rx="3" ry="3" style="stroke:#038048;stroke-width:1;"/><text fill="#000000" font-family="sans-serif" font-size="14" font-style="italic" lengthAdjust="spacing" textLength="263.2269" x="621.14" y="106.7618">multiply( other : Numeric [1] ) : Numeric [1]</text><ellipse cx="612.14" cy="119.6997" fill="#84BE84" rx="3" ry="3" style="stroke:#038048;stroke-width:1;"/><text fill="#000000" font-family="sans-serif" font-size="14" font-style="italic" lengthAdjust="spacing" textLength="248.975" x="621.14" y="123.5617">divide( other : Numeric [1] ) : Numeric [1]</text><ellipse cx="612.14" cy="136.4997" fill="#84BE84" rx="3" ry="3" style="stroke:#038048;stroke-width:1;"/><text fill="#000000" font-family="sans-serif" font-size="14" font-style="italic" lengthAdjust="spacing" textLength="270.2269" x="621.14" y="140.3616">exponent( other : Numeric [1] ) : Numeric [1]</text><ellipse cx="612.14" cy="153.2996" fill="#84BE84" rx="3" ry="3" style="stroke:#038048;stroke-width:1;"/><text fill="#000000" font-family="sans-serif" font-size="14" font-style="italic" lengthAdjust="spacing" textLength="143.4294" x="621.14" y="157.1616">negative() : Numeric [1]</text></g><!--class Octet--><g class="entity" data-entity="Octet" data-source-line="46" data-uid="ent0008" id="entity_Octet"><rect fill="#F1F1F1" height="48" rx="2.5" ry="2.5" style="stroke:#181818;stroke-width:0.5;" width="66.6779" x="971.92" y="283"/><ellipse cx="986.92" cy="299" fill="#ADD1B2" rx="11" ry="11" style="stroke:#181818;stroke-width:1;"/><path d="M986.92,305.4219 C988.0919,305.4219 989.3263,305.1563 990.7013,304.5469 L990.2169,303.0313 C989.1231,303.4531 988.1075,303.6406 987.2481,303.6406 C984.5294,303.6406 982.8106,301.7969 982.8106,298.8906 C982.8106,296.1406 984.3731,294.5469 987.1075,294.5469 C988.0294,294.5469 989.045,294.7344 990.1856,295.1563 L990.7638,293.6406 C989.67,293.0625 988.3731,292.7656 987.1856,292.7656 C983.42,292.7656 980.8419,295.4063 980.8419,299.2188 C980.8419,302.8906 983.3263,305.4219 986.92,305.4219 Z " fill="#000000"/><text fill="#000000" font-family="sans-serif" font-size="14" lengthAdjust="spacing" textLength="34.6779" x="1000.92" y="304.362">Octet</text><line style="stroke:#181818;stroke-width:0.5;" x1="972.92" x2="1037.5979" y1="315" y2="315"/><line style="stroke:#181818;stroke-width:0.5;" x1="972.92" x2="1037.5979" y1="323" y2="323"/></g><!--class Character--><g class="entity" data-entity="Character" data-source-line="49" data-uid="ent0009" id="entity_Character"><rect fill="#F1F1F1" height="48" rx="2.5" ry="2.5" style="stroke:#181818;stroke-width:0.5;" width="92.8438" x="1073.83" y="283"/><ellipse cx="1088.83" cy="299" fill="#ADD1B2" rx="11" ry="11" style="stroke:#181818;stroke-width:1;"/><path d="M1088.83,305.4219 C1090.0019,305.4219 1091.2363,305.1563 1092.6113,304.5469 L1092.1269,303.0313 C1091.0331,303.4531 1090.0175,303.6406 1089.1581,303.6406 C1086.4394,303.6406 1084.7206,301.7969 1084.7206,298.8906 C1084.7206,296.1406 1086.2831,294.5469 1089.0175,294.5469 C1089.9394,294.5469 1090.955,294.7344 1092.0956,295.1563 L1092.6738,293.6406 C1091.58,293.0625 1090.2831,292.7656 1089.0956,292.7656 C1085.33,292.7656 1082.7519,295.4063 1082.7519,299.2188 C1082.7519,302.8906 1085.2363,305.4219 1088.83,305.4219 Z " fill="#000000"/><text fill="#000000" font-family="sans-serif" font-size="14" lengthAdjust="spacing" textLength="60.8438" x="1102.83" y="304.362">Character</text><line style="stroke:#181818;stroke-width:0.5;" x1="1074.83" x2="1165.6738" y1="315" y2="315"/><line style="stroke:#181818;stroke-width:0.5;" x1="1074.83" x2="1165.6738" y1="323" y2="323"/></g><!--class Boolean--><g class="entity" data-entity="Boolean" data-source-line="52" data-uid="ent0010" id="entity_Boolean"><rect fill="#F1F1F1" height="165.5995" rx="2.5" ry="2.5" style="stroke:#181818;stroke-width:0.5;" width="374.5707" x="1485.97" y="7"/><ellipse cx="1643.4625" cy="23" fill="#ADD1B2" rx="11" ry="11" style="stroke:#181818;stroke-width:1;"/><path d="M1643.4625,29.4219 C1644.6343,29.4219 1645.8687,29.1563 1647.2437,28.5469 L1646.7593,27.0313 C1645.6656,27.4531 1644.65,27.6406 1643.7906,27.6406 C1641.0718,27.6406 1639.3531,25.7969 1639.3531,22.8906 C1639.3531,20.1406 1640.9156,18.5469 1643.65,18.5469 C1644.5718,18.5469 1645.5875,18.7344 1646.7281,19.1563 L1647.3062,17.6406 C1646.2125,17.0625 1644.9156,16.7656 1643.7281,16.7656 C1639.9625,16.7656 1637.3843,19.4063 1637.3843,23.2188 C1637.3843,26.8906 1639.8687,29.4219 1643.4625,29.4219 Z " fill="#000000"/><text fill="#000000" font-family="sans-serif" font-size="14" lengthAdjust="spacing" textLength="51.0858" x="1663.9625" y="28.362">Boolean</text><line style="stroke:#181818;stroke-width:0.5;" x1="1486.97" x2="1859.5407" y1="39" y2="39"/><line style="stroke:#181818;stroke-width:0.5;" x1="1486.97" x2="1859.5407" y1="47" y2="47"/><ellipse cx="1496.97" cy="60.9" fill="#84BE84" rx="3" ry="3" style="stroke:#038048;stroke-width:1;"/><text fill="#000000" font-family="sans-serif" font-size="14" lengthAdjust="spacing" textLength="279.9709" x="1505.97" y="64.7619">conjunction( other : Boolean [1] ) : Boolean [1]</text><ellipse cx="1496.97" cy="77.6999" fill="#84BE84" rx="3" ry="3" style="stroke:#038048;stroke-width:1;"/><text fill="#000000" font-family="sans-serif" font-size="14" lengthAdjust="spacing" textLength="348.5707" x="1505.97" y="81.5619">semistrict_conjunction( other : Boolean [1] ) : Boolean [1]</text><ellipse cx="1496.97" cy="94.4998" fill="#84BE84" rx="3" ry="3" style="stroke:#038048;stroke-width:1;"/><text fill="#000000" font-family="sans-serif" font-size="14" lengthAdjust="spacing" textLength="275.4769" x="1505.97" y="98.3618">disjunction( other : Boolean [1] ) : Boolean [1]</text><ellipse cx="1496.97" cy="111.2997" fill="#84BE84" rx="3" ry="3" style="stroke:#038048;stroke-width:1;"/><text fill="#000000" font-family="sans-serif" font-size="14" lengthAdjust="spacing" textLength="344.0767" x="1505.97" y="115.1617">semistrict_disjunction( other : Boolean [1] ) : Boolean [1]</text><ellipse cx="1496.97" cy="128.0997" fill="#84BE84" rx="3" ry="3" style="stroke:#038048;stroke-width:1;"/><text fill="#000000" font-family="sans-serif" font-size="14" lengthAdjust="spacing" textLength="338.7287" x="1505.97" y="131.9616">exclusive_disjunction( other : Boolean [1] ) : Boolean [1]</text><ellipse cx="1496.97" cy="144.8996" fill="#84BE84" rx="3" ry="3" style="stroke:#038048;stroke-width:1;"/><text fill="#000000" font-family="sans-serif" font-size="14" lengthAdjust="spacing" textLength="276.7089" x="1505.97" y="148.7616">implication( other : Boolean [1] ) : Boolean [1]</text><ellipse cx="1496.97" cy="161.6995" fill="#84BE84" rx="3" ry="3" style="stroke:#038048;stroke-width:1;"/><text fill="#000000" font-family="sans-serif" font-size="14" lengthAdjust="spacing" textLength="142.9115" x="1505.97" y="165.5615">negation() : Boolean [1]</text></g><!--class String--><g class="entity" data-entity="String" data-source-line="62" data-uid="ent0011" id="entity_String"><rect fill="#F1F1F1" height="148.7996" rx="2.5" ry="2.5" style="stroke:#181818;stroke-width:0.5;" width="279.175" x="1201.67" y="232.6"/><ellipse cx="1318.2896" cy="248.6" fill="#ADD1B2" rx="11" ry="11" style="stroke:#181818;stroke-width:1;"/><path d="M1318.2896,255.0219 C1319.4615,255.0219 1320.6958,254.7562 1322.0708,254.1469 L1321.5865,252.6312 C1320.4927,253.0531 1319.4771,253.2406 1318.6177,253.2406 C1315.899,253.2406 1314.1802,251.3969 1314.1802,248.4906 C1314.1802,245.7406 1315.7427,244.1469 1318.4771,244.1469 C1319.399,244.1469 1320.4146,244.3344 1321.5552,244.7562 L1322.1333,243.2406 C1321.0396,242.6625 1319.7427,242.3656 1318.5552,242.3656 C1314.7896,242.3656 1312.2115,245.0062 1312.2115,248.8187 C1312.2115,252.4906 1314.6958,255.0219 1318.2896,255.0219 Z " fill="#000000"/><text fill="#000000" font-family="sans-serif" font-size="14" lengthAdjust="spacing" textLength="37.4359" x="1338.7896" y="253.962">String</text><line style="stroke:#181818;stroke-width:0.5;" x1="1202.67" x2="1479.845" y1="264.6" y2="264.6"/><line style="stroke:#181818;stroke-width:0.5;" x1="1202.67" x2="1479.845" y1="272.6" y2="272.6"/><ellipse cx="1212.67" cy="286.5" fill="#84BE84" rx="3" ry="3" style="stroke:#038048;stroke-width:1;"/><text fill="#000000" font-family="sans-serif" font-size="14" lengthAdjust="spacing" textLength="144.5634" x="1221.67" y="290.3619">is_empty() : Boolean [1]</text><ellipse cx="1212.67" cy="303.2999" fill="#84BE84" rx="3" ry="3" style="stroke:#038048;stroke-width:1;"/><text fill="#000000" font-family="sans-serif" font-size="14" lengthAdjust="spacing" textLength="149.4774" x="1221.67" y="307.1619">is_integer() : Boolean [1]</text><ellipse cx="1212.67" cy="320.0998" fill="#84BE84" rx="3" ry="3" style="stroke:#038048;stroke-width:1;"/><text fill="#000000" font-family="sans-serif" font-size="14" lengthAdjust="spacing" textLength="146.8874" x="1221.67" y="323.9618">as_integer() : Integer [1]</text><ellipse cx="1212.67" cy="336.8997" fill="#84BE84" rx="3" ry="3" style="stroke:#038048;stroke-width:1;"/><text fill="#000000" font-family="sans-serif" font-size="14" lengthAdjust="spacing" textLength="226.6172" x="1221.67" y="340.7617">append( other : String [1] ) : String [1]</text><ellipse cx="1212.67" cy="353.6997" fill="#84BE84" rx="3" ry="3" style="stroke:#038048;stroke-width:1;"/><text fill="#000000" font-family="sans-serif" font-size="14" lengthAdjust="spacing" textLength="253.175" x="1221.67" y="357.5616">less_than( other : String [1] ) : Boolean [1]</text><ellipse cx="1212.67" cy="370.4996" fill="#84BE84" rx="3" ry="3" style="stroke:#038048;stroke-width:1;"/><text fill="#000000" font-family="sans-serif" font-size="14" lengthAdjust="spacing" textLength="246.3151" x="1221.67" y="374.3616">contains( other : String [1] ) : Boolean [1]</text></g><!--class Real--><g class="entity" data-entity="Real" data-source-line="71" data-uid="ent0012" id="entity_Real"><rect fill="#F1F1F1" height="215.9993" rx="2.5" ry="2.5" style="stroke:#181818;stroke-width:0.5;" width="279.427" x="650.54" y="441.4"/><ellipse cx="772.4376" cy="457.4" fill="#ADD1B2" rx="11" ry="11" style="stroke:#181818;stroke-width:1;"/><path d="M772.4376,463.8219 C773.6095,463.8219 774.8438,463.5563 776.2188,462.9469 L775.7345,461.4313 C774.6407,461.8531 773.6251,462.0406 772.7657,462.0406 C770.047,462.0406 768.3282,460.1969 768.3282,457.2906 C768.3282,454.5406 769.8907,452.9469 772.6251,452.9469 C773.547,452.9469 774.5626,453.1344 775.7032,453.5563 L776.2813,452.0406 C775.1876,451.4625 773.8907,451.1656 772.7032,451.1656 C768.9376,451.1656 766.3595,453.8063 766.3595,457.6188 C766.3595,461.2906 768.8438,463.8219 772.4376,463.8219 Z " fill="#000000"/><text fill="#000000" font-family="sans-serif" font-size="14" lengthAdjust="spacing" textLength="27.1319" x="792.9376" y="462.762">Real</text><line style="stroke:#181818;stroke-width:0.5;" x1="651.54" x2="928.967" y1="473.4" y2="473.4"/><line style="stroke:#181818;stroke-width:0.5;" x1="651.54" x2="928.967" y1="481.4" y2="481.4"/><ellipse cx="661.54" cy="495.3" fill="#84BE84" rx="3" ry="3" style="stroke:#038048;stroke-width:1;"/><text fill="#000000" font-family="sans-serif" font-size="14" lengthAdjust="spacing" textLength="111.5516" x="670.54" y="499.1619">floor() : Integer [1]</text><ellipse cx="661.54" cy="512.0999" fill="#84BE84" rx="3" ry="3" style="stroke:#038048;stroke-width:1;"/><text fill="#000000" font-family="sans-serif" font-size="14" lengthAdjust="spacing" textLength="182.6713" x="670.54" y="515.9619">add( other : Real [1] ) : Real [1]</text><ellipse cx="661.54" cy="528.8998" fill="#84BE84" rx="3" ry="3" style="stroke:#038048;stroke-width:1;"/><text fill="#000000" font-family="sans-serif" font-size="14" lengthAdjust="spacing" textLength="210.9232" x="670.54" y="532.7618">subtract( other : Real [1] ) : Real [1]</text><ellipse cx="661.54" cy="545.6997" fill="#84BE84" rx="3" ry="3" style="stroke:#038048;stroke-width:1;"/><text fill="#000000" font-family="sans-serif" font-size="14" lengthAdjust="spacing" textLength="210.7552" x="670.54" y="549.5617">multiply( other : Real [1] ) : Real [1]</text><ellipse cx="661.54" cy="562.4997" fill="#84BE84" rx="3" ry="3" style="stroke:#038048;stroke-width:1;"/><text fill="#000000" font-family="sans-serif" font-size="14" lengthAdjust="spacing" textLength="214.3391" x="670.54" y="566.3616">divide( other : Real [1] ) : Double [1]</text><ellipse cx="661.54" cy="579.2996" fill="#84BE84" rx="3" ry="3" style="stroke:#038048;stroke-width:1;"/><text fill="#000000" font-family="sans-serif" font-size="14" lengthAdjust="spacing" textLength="253.427" x="670.54" y="583.1616">exponent( other : Double [1] ) : Double [1]</text><ellipse cx="661.54" cy="596.0995" fill="#84BE84" rx="3" ry="3" style="stroke:#038048;stroke-width:1;"/><text fill="#000000" font-family="sans-serif" font-size="14" lengthAdjust="spacing" textLength="242.871" x="670.54" y="599.9615">less_than( other : Real [1] ) : Boolean [1]</text><ellipse cx="661.54" cy="612.8995" fill="#84BE84" rx="3" ry="3" style="stroke:#038048;stroke-width:1;"/><text fill="#000000" font-family="sans-serif" font-size="14" lengthAdjust="spacing" textLength="117.1935" x="670.54" y="616.7614">negative() : Real [1]</text><ellipse cx="661.54" cy="629.6994" fill="#84BE84" rx="3" ry="3" style="stroke:#038048;stroke-width:1;"/><text fill="#000000" font-family="sans-serif" font-size="14" lengthAdjust="spacing" textLength="234.6811" x="670.54" y="633.5614">is_equal( other : Real [1] ) : Boolean [1]</text><ellipse cx="661.54" cy="646.4993" fill="#84BE84" rx="3" ry="3" style="stroke:#038048;stroke-width:1;"/><text fill="#000000" font-family="sans-serif" font-size="14" lengthAdjust="spacing" textLength="217.7411" x="670.54" y="650.3613">equal( other : Real [1] ) : Boolean [1]</text></g><!--class Integer64--><g class="entity" data-entity="Integer64" data-source-line="84" data-uid="ent0013" id="entity_Integer64"><rect fill="#F1F1F1" height="215.9993" rx="2.5" ry="2.5" style="stroke:#181818;stroke-width:0.5;" width="303.0309" x="964.74" y="441.4"/><ellipse cx="1081.3596" cy="457.4" fill="#ADD1B2" rx="11" ry="11" style="stroke:#181818;stroke-width:1;"/><path d="M1081.3596,463.8219 C1082.5315,463.8219 1083.7658,463.5563 1085.1408,462.9469 L1084.6565,461.4313 C1083.5627,461.8531 1082.5471,462.0406 1081.6877,462.0406 C1078.969,462.0406 1077.2502,460.1969 1077.2502,457.2906 C1077.2502,454.5406 1078.8127,452.9469 1081.5471,452.9469 C1082.469,452.9469 1083.4846,453.1344 1084.6252,453.5563 L1085.2033,452.0406 C1084.1096,451.4625 1082.8127,451.1656 1081.6252,451.1656 C1077.8596,451.1656 1075.2815,453.8063 1075.2815,457.6188 C1075.2815,461.2906 1077.7658,463.8219 1081.3596,463.8219 Z " fill="#000000"/><text fill="#000000" font-family="sans-serif" font-size="14" lengthAdjust="spacing" textLength="61.2918" x="1101.8596" y="462.762">Integer64</text><line style="stroke:#181818;stroke-width:0.5;" x1="965.74" x2="1266.7709" y1="473.4" y2="473.4"/><line style="stroke:#181818;stroke-width:0.5;" x1="965.74" x2="1266.7709" y1="481.4" y2="481.4"/><ellipse cx="975.74" cy="495.3" fill="#84BE84" rx="3" ry="3" style="stroke:#038048;stroke-width:1;"/><text fill="#000000" font-family="sans-serif" font-size="14" lengthAdjust="spacing" textLength="234.4711" x="984.74" y="499.1619">add( other : Integer [1] ) : Integer64 [1]</text><ellipse cx="975.74" cy="512.0999" fill="#84BE84" rx="3" ry="3" style="stroke:#038048;stroke-width:1;"/><text fill="#000000" font-family="sans-serif" font-size="14" lengthAdjust="spacing" textLength="262.723" x="984.74" y="515.9619">subtract( other : Integer [1] ) : Integer64 [1]</text><ellipse cx="975.74" cy="528.8998" fill="#84BE84" rx="3" ry="3" style="stroke:#038048;stroke-width:1;"/><text fill="#000000" font-family="sans-serif" font-size="14" lengthAdjust="spacing" textLength="262.555" x="984.74" y="532.7618">multiply( other : Integer [1] ) : Integer64 [1]</text><ellipse cx="975.74" cy="545.6997" fill="#84BE84" rx="3" ry="3" style="stroke:#038048;stroke-width:1;"/><text fill="#000000" font-family="sans-serif" font-size="14" lengthAdjust="spacing" textLength="231.9791" x="984.74" y="549.5617">divide( other : Integer [1] ) : Double [1]</text><ellipse cx="975.74" cy="562.4997" fill="#84BE84" rx="3" ry="3" style="stroke:#038048;stroke-width:1;"/><text fill="#000000" font-family="sans-serif" font-size="14" lengthAdjust="spacing" textLength="253.427" x="984.74" y="566.3616">exponent( other : Double [1] ) : Double [1]</text><ellipse cx="975.74" cy="579.2996" fill="#84BE84" rx="3" ry="3" style="stroke:#038048;stroke-width:1;"/><text fill="#000000" font-family="sans-serif" font-size="14" lengthAdjust="spacing" textLength="254.029" x="984.74" y="583.1616">modulo( mod : Integer [1] ) : Integer64 [1]</text><ellipse cx="975.74" cy="596.0995" fill="#84BE84" rx="3" ry="3" style="stroke:#038048;stroke-width:1;"/><text fill="#000000" font-family="sans-serif" font-size="14" lengthAdjust="spacing" textLength="277.0309" x="984.74" y="599.9615">less_than( other : Integer64 [1] ) : Boolean [1]</text><ellipse cx="975.74" cy="612.8995" fill="#84BE84" rx="3" ry="3" style="stroke:#038048;stroke-width:1;"/><text fill="#000000" font-family="sans-serif" font-size="14" lengthAdjust="spacing" textLength="151.3534" x="984.74" y="616.7614">negative() : Integer64 [1]</text><ellipse cx="975.74" cy="629.6994" fill="#84BE84" rx="3" ry="3" style="stroke:#038048;stroke-width:1;"/><text fill="#000000" font-family="sans-serif" font-size="14" lengthAdjust="spacing" textLength="268.8409" x="984.74" y="633.5614">is_equal( other : Integer64 [1] ) : Boolean [1]</text><ellipse cx="975.74" cy="646.4993" fill="#84BE84" rx="3" ry="3" style="stroke:#038048;stroke-width:1;"/><text fill="#000000" font-family="sans-serif" font-size="14" lengthAdjust="spacing" textLength="251.901" x="984.74" y="650.3613">equal( other : Integer64 [1] ) : Boolean [1]</text></g><!--class Ordered--><g class="entity" data-entity="Ordered" data-source-line="97" data-uid="ent0014" id="entity_Ordered"><rect fill="#F1F1F1" height="115.1997" rx="2.5" ry="2.5" style="stroke:#181818;stroke-width:0.5;" width="376.4047" x="932.05" y="32.2"/><ellipse cx="1090.0324" cy="48.2" fill="#A9DCDF" rx="11" ry="11" style="stroke:#181818;stroke-width:1;"/><path d="M1084.5481,53.7 L1086.5793,53.7 L1090.6262,42.3562 L1089.7199,42.3562 L1093.5481,53.7 L1095.6887,53.7 L1091.3606,41.3719 L1089.1418,41.3719 L1084.5481,53.7 Z M1086.8762,50.2 L1093.3137,50.2 L1093.3137,48.45 L1086.8762,48.45 L1086.8762,50.2 Z " fill="#000000"/><text fill="#000000" font-family="sans-serif" font-size="14" font-style="italic" lengthAdjust="spacing" textLength="51.9398" x="1110.5324" y="53.562">Ordered</text><line style="stroke:#181818;stroke-width:0.5;" x1="933.05" x2="1307.4547" y1="64.2" y2="64.2"/><line style="stroke:#181818;stroke-width:0.5;" x1="933.05" x2="1307.4547" y1="72.2" y2="72.2"/><ellipse cx="943.05" cy="86.1" fill="#84BE84" rx="3" ry="3" style="stroke:#038048;stroke-width:1;"/><text fill="#000000" font-family="sans-serif" font-size="14" font-style="italic" lengthAdjust="spacing" textLength="267.679" x="952.05" y="89.9619">less_than( other : Ordered [1] ) : Boolean [1]</text><ellipse cx="943.05" cy="102.8999" fill="#84BE84" rx="3" ry="3" style="stroke:#038048;stroke-width:1;"/><text fill="#000000" font-family="sans-serif" font-size="14" lengthAdjust="spacing" textLength="329.1387" x="952.05" y="106.7619">less_than_or_equal( other : Ordered [1] ) : Boolean [1]</text><ellipse cx="943.05" cy="119.6998" fill="#84BE84" rx="3" ry="3" style="stroke:#038048;stroke-width:1;"/><text fill="#000000" font-family="sans-serif" font-size="14" lengthAdjust="spacing" textLength="288.9449" x="952.05" y="123.5618">greater_than( other : Ordered [1] ) : Boolean [1]</text><ellipse cx="943.05" cy="136.4997" fill="#84BE84" rx="3" ry="3" style="stroke:#038048;stroke-width:1;"/><text fill="#000000" font-family="sans-serif" font-size="14" lengthAdjust="spacing" textLength="350.4047" x="952.05" y="140.3617">greater_than_or_equal( other : Ordered [1] ) : Boolean [1]</text></g><!--reverse link String to Uri--><g class="link" data-entity-1="String" data-entity-2="Uri" data-source-line="104" data-uid="lnk15" id="link_String_Uri"><path codeLine="104" d="M1341.26,399.76 C1341.26,448.9 1341.26,492.27 1341.26,525.1" fill="none" id="String-backto-Uri" style="stroke:#181818;stroke-width:1;"/><polygon fill="none" points="1341.26,381.76,1335.26,399.76,1347.26,399.76,1341.26,381.76" style="stroke:#181818;stroke-width:1;"/></g><!--reverse link Ordered to Ordered_Numeric--><g class="link" data-entity-1="Ordered" data-entity-2="Ordered_Numeric" data-source-line="105" data-uid="lnk16" id="link_Ordered_Ordered_Numeric"><path codeLine="105" d="M1014.1611,157.1682 C943.7011,201.2582 864.91,250.54 813.57,282.66" fill="none" id="Ordered-backto-Ordered_Numeric" style="stroke:#181818;stroke-width:1;"/><polygon fill="none" points="1029.42,147.62,1010.9784,152.0819,1017.3439,162.2544,1029.42,147.62" style="stroke:#181818;stroke-width:1;"/></g><!--reverse link Numeric to Ordered_Numeric--><g class="link" data-entity-1="Numeric" data-entity-2="Ordered_Numeric" data-source-line="106" data-uid="lnk17" id="link_Numeric_Ordered_Numeric"><path codeLine="106" d="M760.7506,182.42 C765.9406,223.79 769.82,254.73 773.35,282.84" fill="none" id="Numeric-backto-Ordered_Numeric" style="stroke:#181818;stroke-width:1;"/><polygon fill="none" points="758.51,164.56,754.7973,183.1669,766.7039,181.6731,758.51,164.56" style="stroke:#181818;stroke-width:1;"/></g><!--reverse link Ordered_Numeric to Integer--><g class="link" data-entity-1="Ordered_Numeric" data-entity-2="Integer" data-source-line="107" data-uid="lnk18" id="link_Ordered_Numeric_Integer"><path codeLine="107" d="M686.0744,325.1936 C592.4544,344.3236 443.52,380.26 311.26,441.4 C305.47,444.08 299.65,446.94 293.84,449.96" fill="none" id="Ordered_Numeric-backto-Integer" style="stroke:#181818;stroke-width:1;"/><polygon fill="none" points="703.71,321.59,684.8732,319.3151,687.2756,331.0721,703.71,321.59" style="stroke:#181818;stroke-width:1;"/></g><!--reverse link Ordered_Numeric to Double--><g class="link" data-entity-1="Ordered_Numeric" data-entity-2="Double" data-source-line="108" data-uid="lnk19" id="link_Ordered_Numeric_Double"><path codeLine="108" d="M732.4327,342.657 C699.9427,368.357 659.67,400.19 607.86,441.17" fill="none" id="Ordered_Numeric-backto-Double" style="stroke:#181818;stroke-width:1;"/><polygon fill="none" points="746.55,331.49,728.7104,337.9512,736.155,347.3627,746.55,331.49" style="stroke:#181818;stroke-width:1;"/></g><!--reverse link Ordered to Octet--><g class="link" data-entity-1="Ordered" data-entity-2="Octet" data-source-line="109" data-uid="lnk20" id="link_Ordered_Octet"><path codeLine="109" d="M1081.4067,163.4956 C1057.8467,207.5856 1034.89,250.54 1017.73,282.66" fill="none" id="Ordered-backto-Octet" style="stroke:#181818;stroke-width:1;"/><polygon fill="none" points="1089.89,147.62,1076.1148,160.6678,1086.6986,166.3233,1089.89,147.62" style="stroke:#181818;stroke-width:1;"/></g><!--reverse link Ordered to Character--><g class="link" data-entity-1="Ordered" data-entity-2="Character" data-source-line="110" data-uid="lnk21" id="link_Ordered_Character"><path codeLine="110" d="M1120.26,165.62 C1120.26,209.71 1120.26,250.54 1120.26,282.66" fill="none" id="Ordered-backto-Character" style="stroke:#181818;stroke-width:1;"/><polygon fill="none" points="1120.26,147.62,1114.26,165.62,1126.26,165.62,1120.26,147.62" style="stroke:#181818;stroke-width:1;"/></g><!--reverse link Ordered to String--><g class="link" data-entity-1="Ordered" data-entity-2="String" data-source-line="111" data-uid="lnk22" id="link_Ordered_String"><path codeLine="111" d="M1191.5041,160.1796 C1218.1041,186.0896 1237.04,204.52 1265.46,232.2" fill="none" id="Ordered-backto-String" style="stroke:#181818;stroke-width:1;"/><polygon fill="none" points="1178.61,147.62,1187.3175,164.4776,1195.6906,155.8816,1178.61,147.62" style="stroke:#181818;stroke-width:1;"/></g><!--reverse link Ordered_Numeric to Real--><g class="link" data-entity-1="Ordered_Numeric" data-entity-2="Real" data-source-line="112" data-uid="lnk23" id="link_Ordered_Numeric_Real"><path codeLine="112" d="M778.6688,349.4594 C780.1688,375.1594 781.62,400.19 784.01,441.17" fill="none" id="Ordered_Numeric-backto-Real" style="stroke:#181818;stroke-width:1;"/><polygon fill="none" points="777.62,331.49,772.679,349.809,784.6586,349.1098,777.62,331.49" style="stroke:#181818;stroke-width:1;"/></g><!--reverse link Ordered_Numeric to Integer64--><g class="link" data-entity-1="Ordered_Numeric" data-entity-2="Integer64" data-source-line="113" data-uid="lnk24" id="link_Ordered_Numeric_Integer64"><path codeLine="113" d="M824.1762,341.8833 C860.5162,367.5833 906.65,400.19 964.6,441.17" fill="none" id="Ordered_Numeric-backto-Integer64" style="stroke:#181818;stroke-width:1;"/><polygon fill="none" points="809.48,331.49,820.7118,346.7821,827.6407,336.9846,809.48,331.49" style="stroke:#181818;stroke-width:1;"/></g></g></svg>
