<svg xmlns="http://www.w3.org/2000/svg" xmlns:xlink="http://www.w3.org/1999/xlink" contentStyleType="text/css" data-diagram-type="CLASS" height="371px" preserveAspectRatio="none" style="width:1050px;height:371px;background:#FFFFFF;" version="1.1" viewBox="0 0 1050 371" width="1050px" zoomAndPan="magnify"><defs/><g><!--class Env--><g class="entity" data-entity="Env" data-source-line="2" data-uid="ent0002" id="entity_Env"><rect fill="#F1F1F1" height="115.1997" rx="2.5" ry="2.5" style="stroke:#181818;stroke-width:0.5;" width="297.0109" x="7" y="49"/><ellipse cx="139.8385" cy="65" fill="#B4A7E5" rx="11" ry="11" style="stroke:#181818;stroke-width:1;"/><path d="M138.401,71.5 L140.3385,71.5 L140.3385,59.1719 L138.401,59.1719 L138.401,71.5 Z " fill="#000000"/><text fill="#000000" font-family="sans-serif" font-size="14" font-style="italic" lengthAdjust="spacing" textLength="22.8339" x="160.3385" y="70.362">Env</text><line style="stroke:#181818;stroke-width:0.5;" x1="8" x2="303.0109" y1="81" y2="81"/><line style="stroke:#181818;stroke-width:0.5;" x1="8" x2="303.0109" y1="89" y2="89"/><ellipse cx="18" cy="102.9" fill="#84BE84" rx="3" ry="3" style="stroke:#038048;stroke-width:1;"/><text fill="#000000" font-family="sans-serif" font-size="14" lengthAdjust="spacing" textLength="200.4232" x="27" y="106.7619">current_date() : Iso8601_date [1]</text><ellipse cx="18" cy="119.6999" fill="#84BE84" rx="3" ry="3" style="stroke:#038048;stroke-width:1;"/><text fill="#000000" font-family="sans-serif" font-size="14" lengthAdjust="spacing" textLength="201.8232" x="27" y="123.5619">current_time() : Iso8601_time [1]</text><ellipse cx="18" cy="136.4998" fill="#84BE84" rx="3" ry="3" style="stroke:#038048;stroke-width:1;"/><text fill="#000000" font-family="sans-serif" font-size="14" lengthAdjust="spacing" textLength="271.0109" x="27" y="140.3618">current_date_time() : Iso8601_date_time [1]</text><ellipse cx="18" cy="153.2997" fill="#84BE84" rx="3" ry="3" style="stroke:#038048;stroke-width:1;"/><text fill="#000000" font-family="sans-serif" font-size="14" lengthAdjust="spacing" textLength="268.351" x="27" y="157.1617">current_time_zone() : Iso8601_timezone [1]</text></g><!--class Statistical_evaluator--><g class="entity" data-entity="Statistical_evaluator" data-source-line="9" data-uid="ent0003" id="entity_Statistical_evaluator"><rect fill="#F1F1F1" height="199.1993" rx="2.5" ry="2.5" style="stroke:#181818;stroke-width:0.5;" width="352.4367" x="339.29" y="7"/><ellipse cx="448.0206" cy="23" fill="#B4A7E5" rx="11" ry="11" style="stroke:#181818;stroke-width:1;"/><path d="M446.5831,29.5 L448.5206,29.5 L448.5206,17.1719 L446.5831,17.1719 L446.5831,29.5 Z " fill="#000000"/><text fill="#000000" font-family="sans-serif" font-size="14" font-style="italic" lengthAdjust="spacing" textLength="126.4755" x="468.5206" y="28.362">Statistical_evaluator</text><line style="stroke:#181818;stroke-width:0.5;" x1="340.29" x2="690.7267" y1="39" y2="39"/><line style="stroke:#181818;stroke-width:0.5;" x1="340.29" x2="690.7267" y1="47" y2="47"/><ellipse cx="350.29" cy="60.9" fill="#84BE84" rx="3" ry="3" style="stroke:#038048;stroke-width:1;"/><text fill="#000000" font-family="sans-serif" font-size="14" lengthAdjust="spacing" textLength="298.4228" x="359.29" y="64.7619">sum( vals : Container&lt;Numeric&gt; [1] ) : Double [1]</text><ellipse cx="350.29" cy="77.6999" fill="#84BE84" rx="3" ry="3" style="stroke:#038048;stroke-width:1;"/><text fill="#000000" font-family="sans-serif" font-size="14" lengthAdjust="spacing" textLength="293.5789" x="359.29" y="81.5619">avg( vals : Container&lt;Numeric&gt; [1] ) : Double [1]</text><ellipse cx="350.29" cy="94.4998" fill="#84BE84" rx="3" ry="3" style="stroke:#038048;stroke-width:1;"/><text fill="#000000" font-family="sans-serif" font-size="14" lengthAdjust="spacing" textLength="306.6128" x="359.29" y="98.3618">mean( vals : Container&lt;Numeric&gt; [1] ) : Double [1]</text><ellipse cx="350.29" cy="111.2997" fill="#84BE84" rx="3" ry="3" style="stroke:#038048;stroke-width:1;"/><text fill="#000000" font-family="sans-serif" font-size="14" lengthAdjust="spacing" textLength="326.4367" x="359.29" y="115.1617">median( vals : Container&lt;Numeric&gt; [1] ) : Numeric [1]</text><ellipse cx="350.29" cy="128.0997" fill="#84BE84" rx="3" ry="3" style="stroke:#038048;stroke-width:1;"/><text fill="#000000" font-family="sans-serif" font-size="14" lengthAdjust="spacing" textLength="315.8248" x="359.29" y="131.9616">mode( vals : Container&lt;Numeric&gt; [1] ) : Numeric [1]</text><ellipse cx="350.29" cy="144.8996" fill="#84BE84" rx="3" ry="3" style="stroke:#038048;stroke-width:1;"/><text fill="#000000" font-family="sans-serif" font-size="14" lengthAdjust="spacing" textLength="306.2488" x="359.29" y="148.7616">max( vals : Container&lt;Numeric&gt; [1] ) : Numeric [1]</text><ellipse cx="350.29" cy="161.6995" fill="#84BE84" rx="3" ry="3" style="stroke:#038048;stroke-width:1;"/><text fill="#000000" font-family="sans-serif" font-size="14" lengthAdjust="spacing" textLength="303.8968" x="359.29" y="165.5615">min( vals : Container&lt;Numeric&gt; [1] ) : Numeric [1]</text><ellipse cx="350.29" cy="178.4995" fill="#84BE84" rx="3" ry="3" style="stroke:#038048;stroke-width:1;"/><text fill="#000000" font-family="sans-serif" font-size="14" lengthAdjust="spacing" textLength="315.3907" x="359.29" y="182.3614">count( vals : Container&lt;Numeric&gt; [1] ) : Numeric [1]</text><ellipse cx="350.29" cy="195.2994" fill="#84BE84" rx="3" ry="3" style="stroke:#038048;stroke-width:1;"/><text fill="#000000" font-family="sans-serif" font-size="14" lengthAdjust="spacing" textLength="320.3328" x="359.29" y="199.1614">std_dev( vals : Container&lt;Numeric&gt; [1] ) : Double [1]</text></g><!--class Locale--><g class="entity" data-entity="Locale" data-source-line="21" data-uid="ent0004" id="entity_Locale"><rect fill="#F1F1F1" height="64.7999" rx="2.5" ry="2.5" style="stroke:#181818;stroke-width:0.5;" width="291.2849" x="726.86" y="74.2"/><ellipse cx="848.2465" cy="90.2" fill="#B4A7E5" rx="11" ry="11" style="stroke:#181818;stroke-width:1;"/><path d="M846.809,96.7 L848.7465,96.7 L848.7465,84.3719 L846.809,84.3719 L846.809,96.7 Z " fill="#000000"/><text fill="#000000" font-family="sans-serif" font-size="14" font-style="italic" lengthAdjust="spacing" textLength="40.0118" x="868.7465" y="95.562">Locale</text><line style="stroke:#181818;stroke-width:0.5;" x1="727.86" x2="1017.1449" y1="106.2" y2="106.2"/><line style="stroke:#181818;stroke-width:0.5;" x1="727.86" x2="1017.1449" y1="114.2" y2="114.2"/><ellipse cx="737.86" cy="128.1" fill="#84BE84" rx="3" ry="3" style="stroke:#038048;stroke-width:1;"/><text fill="#000000" font-family="sans-serif" font-size="14" lengthAdjust="spacing" textLength="265.2849" x="746.86" y="131.9619">primary_language() : Terminology_code [1]</text></g><!--class Math--><g class="entity" data-entity="Math" data-source-line="25" data-uid="ent0005" id="entity_Math"><rect fill="#F1F1F1" height="98.3998" rx="2.5" ry="2.5" style="stroke:#181818;stroke-width:0.5;" width="224.8272" x="43.09" y="266.2"/><ellipse cx="135.1607" cy="282.2" fill="#B4A7E5" rx="11" ry="11" style="stroke:#181818;stroke-width:1;"/><path d="M133.7232,288.7 L135.6607,288.7 L135.6607,276.3719 L133.7232,276.3719 L133.7232,288.7 Z " fill="#000000"/><text fill="#000000" font-family="sans-serif" font-size="14" font-style="italic" lengthAdjust="spacing" textLength="32.1859" x="155.6607" y="287.562">Math</text><line style="stroke:#181818;stroke-width:0.5;" x1="44.09" x2="266.9172" y1="298.2" y2="298.2"/><line style="stroke:#181818;stroke-width:0.5;" x1="44.09" x2="266.9172" y1="306.2" y2="306.2"/><ellipse cx="54.09" cy="320.1" fill="#84BE84" rx="3" ry="3" style="stroke:#038048;stroke-width:1;"/><text fill="#000000" font-family="sans-serif" font-size="14" lengthAdjust="spacing" textLength="188.5652" x="63.09" y="323.9619">ln( v : Numeric [1] ) : Double [1]</text><ellipse cx="54.09" cy="336.8999" fill="#84BE84" rx="3" ry="3" style="stroke:#038048;stroke-width:1;"/><text fill="#000000" font-family="sans-serif" font-size="14" lengthAdjust="spacing" textLength="196.5452" x="63.09" y="340.7619">log( v : Numeric [1] ) : Double [1]</text><ellipse cx="54.09" cy="353.6998" fill="#84BE84" rx="3" ry="3" style="stroke:#038048;stroke-width:1;"/><text fill="#000000" font-family="sans-serif" font-size="14" lengthAdjust="spacing" textLength="198.8272" x="63.09" y="357.5618">sin( (v : Numeric [1] ) : Double [1]</text></g><!--class Quantity_converter--><g class="entity" data-entity="Quantity_converter" data-source-line="31" data-uid="ent0006" id="entity_Quantity_converter"><rect fill="#F1F1F1" height="64.7999" rx="2.5" ry="2.5" style="stroke:#181818;stroke-width:0.5;" width="740.473" x="303.27" y="283"/><ellipse cx="609.0427" cy="299" fill="#B4A7E5" rx="11" ry="11" style="stroke:#181818;stroke-width:1;"/><path d="M607.6052,305.5 L609.5427,305.5 L609.5427,293.1719 L607.6052,293.1719 L607.6052,305.5 Z " fill="#000000"/><text fill="#000000" font-family="sans-serif" font-size="14" font-style="italic" lengthAdjust="spacing" textLength="120.4276" x="629.5427" y="304.362">Quantity_converter</text><line style="stroke:#181818;stroke-width:0.5;" x1="304.27" x2="1042.743" y1="315" y2="315"/><line style="stroke:#181818;stroke-width:0.5;" x1="304.27" x2="1042.743" y1="323" y2="323"/><ellipse cx="314.27" cy="336.9" fill="#84BE84" rx="3" ry="3" style="stroke:#038048;stroke-width:1;"/><text fill="#000000" font-family="sans-serif" font-size="14" lengthAdjust="spacing" textLength="714.473" x="323.27" y="340.7619">convert_value( value : Real [1], from_units : String [1], to_units : String [1], property : Terminology_code [1] ) : Real [1]</text></g></g></svg>
