<svg xmlns="http://www.w3.org/2000/svg" xmlns:xlink="http://www.w3.org/1999/xlink" contentStyleType="text/css" data-diagram-type="CLASS" height="583px" preserveAspectRatio="none" style="width:625px;height:583px;background:#FFFFFF;" version="1.1" viewBox="0 0 625 583" width="625px" zoomAndPan="magnify"><defs/><g><!--class Multiplicity_interval--><g class="entity" data-entity="Multiplicity_interval" data-source-line="2" data-uid="ent0002" id="entity_Multiplicity_interval"><rect fill="#F1F1F1" height="115.1997" rx="2.5" ry="2.5" style="stroke:#181818;stroke-width:0.5;" width="198.6473" x="7" y="461.2"/><ellipse cx="41.5515" cy="477.2" fill="#ADD1B2" rx="11" ry="11" style="stroke:#181818;stroke-width:1;"/><path d="M41.5515,483.6219 C42.7234,483.6219 43.9578,483.3563 45.3328,482.7469 L44.8484,481.2313 C43.7546,481.6531 42.739,481.8406 41.8796,481.8406 C39.1609,481.8406 37.4421,479.9969 37.4421,477.0906 C37.4421,474.3406 39.0046,472.7469 41.739,472.7469 C42.6609,472.7469 43.6765,472.9344 44.8171,473.3563 L45.3953,471.8406 C44.3015,471.2625 43.0046,470.9656 41.8171,470.9656 C38.0515,470.9656 35.4734,473.6063 35.4734,477.4188 C35.4734,481.0906 37.9578,483.6219 41.5515,483.6219 Z " fill="#000000"/><text fill="#000000" font-family="sans-serif" font-size="14" lengthAdjust="spacing" textLength="123.1995" x="59.8963" y="482.562">Multiplicity_interval</text><line style="stroke:#181818;stroke-width:0.5;" x1="8" x2="204.6473" y1="493.2" y2="493.2"/><line style="stroke:#181818;stroke-width:0.5;" x1="8" x2="204.6473" y1="501.2" y2="501.2"/><ellipse cx="18" cy="515.1" fill="#84BE84" rx="3" ry="3" style="stroke:#038048;stroke-width:1;"/><text fill="#000000" font-family="sans-serif" font-size="14" lengthAdjust="spacing" textLength="136.2615" x="27" y="518.9619">is_open() : Boolean [1]</text><ellipse cx="18" cy="531.8999" fill="#84BE84" rx="3" ry="3" style="stroke:#038048;stroke-width:1;"/><text fill="#000000" font-family="sans-serif" font-size="14" lengthAdjust="spacing" textLength="156.3654" x="27" y="535.7619">is_optional() : Boolean [1]</text><ellipse cx="18" cy="548.6998" fill="#84BE84" rx="3" ry="3" style="stroke:#038048;stroke-width:1;"/><text fill="#000000" font-family="sans-serif" font-size="14" lengthAdjust="spacing" textLength="172.6473" x="27" y="552.5618">is_mandatory() : Boolean [1]</text><ellipse cx="18" cy="565.4997" fill="#84BE84" rx="3" ry="3" style="stroke:#038048;stroke-width:1;"/><text fill="#000000" font-family="sans-serif" font-size="14" lengthAdjust="spacing" textLength="169.4413" x="27" y="569.3617">is_prohibited() : Boolean [1]</text></g><!--class Proper_interval--><g class="entity" data-entity="Proper_interval" data-source-line="9" data-uid="ent0003" id="entity_Proper_interval"><rect fill="#F1F1F1" height="48" rx="2.5" ry="2.5" style="stroke:#181818;stroke-width:0.5;" width="138.8177" x="36.91" y="319.6"/><ellipse cx="51.91" cy="335.6" fill="#ADD1B2" rx="11" ry="11" style="stroke:#181818;stroke-width:1;"/><path d="M51.91,342.0219 C53.0819,342.0219 54.3163,341.7562 55.6913,341.1469 L55.2069,339.6312 C54.1131,340.0531 53.0975,340.2406 52.2381,340.2406 C49.5194,340.2406 47.8006,338.3969 47.8006,335.4906 C47.8006,332.7406 49.3631,331.1469 52.0975,331.1469 C53.0194,331.1469 54.035,331.3344 55.1756,331.7562 L55.7538,330.2406 C54.66,329.6625 53.3631,329.3656 52.1756,329.3656 C48.41,329.3656 45.8319,332.0062 45.8319,335.8187 C45.8319,339.4906 48.3163,342.0219 51.91,342.0219 Z " fill="#000000"/><text fill="#000000" font-family="sans-serif" font-size="14" lengthAdjust="spacing" textLength="96.0256" x="65.91" y="340.962">Proper_interval</text><rect fill="#FFFFFF" height="16.4001" style="stroke:#181818;stroke-width:1;stroke-dasharray:2,2;" width="8.7921" x="169.9356" y="316.6"/><text fill="#000000" font-family="sans-serif" font-size="12" font-style="italic" lengthAdjust="spacing" textLength="6.7921" x="170.9356" y="329.3961">T</text><line style="stroke:#181818;stroke-width:0.5;" x1="37.91" x2="174.7277" y1="351.6" y2="351.6"/><line style="stroke:#181818;stroke-width:0.5;" x1="37.91" x2="174.7277" y1="359.6" y2="359.6"/></g><!--class Interval--><g class="entity" data-entity="Interval" data-source-line="12" data-uid="ent0004" id="entity_Interval"><rect fill="#F1F1F1" height="215.9993" rx="2.5" ry="2.5" style="stroke:#181818;stroke-width:0.5;" width="290.627" x="68.01" y="10"/><ellipse cx="180.0876" cy="26" fill="#A9DCDF" rx="11" ry="11" style="stroke:#181818;stroke-width:1;"/><path d="M174.6032,31.5 L176.6344,31.5 L180.6813,20.1563 L179.7751,20.1563 L183.6032,31.5 L185.7438,31.5 L181.4157,19.1719 L179.1969,19.1719 L174.6032,31.5 Z M176.9313,28 L183.3688,28 L183.3688,26.25 L176.9313,26.25 L176.9313,28 Z " fill="#000000"/><text fill="#000000" font-family="sans-serif" font-size="14" font-style="italic" lengthAdjust="spacing" textLength="47.1798" x="200.5876" y="31.362">Interval</text><rect fill="#FFFFFF" height="16.4001" style="stroke:#181818;stroke-width:1;stroke-dasharray:2,2;" width="8.7921" x="352.845" y="7"/><text fill="#000000" font-family="sans-serif" font-size="12" font-style="italic" lengthAdjust="spacing" textLength="6.7921" x="353.845" y="19.7961">T</text><line style="stroke:#181818;stroke-width:0.5;" x1="69.01" x2="357.637" y1="42" y2="42"/><ellipse cx="79.01" cy="55.9" fill="none" rx="3" ry="3" style="stroke:#038048;stroke-width:1;"/><text fill="#000000" font-family="sans-serif" font-size="14" lengthAdjust="spacing" textLength="87.6956" x="88.01" y="59.7619">lower : T [0..1]</text><ellipse cx="79.01" cy="72.6999" fill="none" rx="3" ry="3" style="stroke:#038048;stroke-width:1;"/><text fill="#000000" font-family="sans-serif" font-size="14" lengthAdjust="spacing" textLength="88.7036" x="88.01" y="76.5619">upper : T [0..1]</text><ellipse cx="79.01" cy="89.4998" fill="none" rx="3" ry="3" style="stroke:#038048;stroke-width:1;"/><text fill="#000000" font-family="sans-serif" font-size="14" lengthAdjust="spacing" textLength="192.8632" x="88.01" y="93.3618">lower_unbounded : Boolean [1]</text><ellipse cx="79.01" cy="106.2997" fill="none" rx="3" ry="3" style="stroke:#038048;stroke-width:1;"/><text fill="#000000" font-family="sans-serif" font-size="14" lengthAdjust="spacing" textLength="193.8712" x="88.01" y="110.1617">upper_unbounded : Boolean [1]</text><ellipse cx="79.01" cy="123.0997" fill="none" rx="3" ry="3" style="stroke:#038048;stroke-width:1;"/><text fill="#000000" font-family="sans-serif" font-size="14" lengthAdjust="spacing" textLength="175.0693" x="88.01" y="126.9616">lower_included : Boolean [1]</text><ellipse cx="79.01" cy="139.8996" fill="none" rx="3" ry="3" style="stroke:#038048;stroke-width:1;"/><text fill="#000000" font-family="sans-serif" font-size="14" lengthAdjust="spacing" textLength="176.0773" x="88.01" y="143.7616">upper_included : Boolean [1]</text><line style="stroke:#181818;stroke-width:0.5;" x1="69.01" x2="357.637" y1="150.7996" y2="150.7996"/><ellipse cx="79.01" cy="164.6995" fill="#84BE84" rx="3" ry="3" style="stroke:#038048;stroke-width:1;"/><text fill="#000000" font-family="sans-serif" font-size="14" font-style="italic" lengthAdjust="spacing" textLength="159.6834" x="88.01" y="168.5615">has( e : T [1] ) : Boolean [1]</text><ellipse cx="79.01" cy="181.4995" fill="#84BE84" rx="3" ry="3" style="stroke:#038048;stroke-width:1;"/><text fill="#000000" font-family="sans-serif" font-size="14" font-style="italic" lengthAdjust="spacing" textLength="264.627" x="88.01" y="185.3614">intersects( other : Interval [1] ) : Boolean [1]</text><ellipse cx="79.01" cy="198.2994" fill="#84BE84" rx="3" ry="3" style="stroke:#038048;stroke-width:1;"/><text fill="#000000" font-family="sans-serif" font-size="14" font-style="italic" lengthAdjust="spacing" textLength="256.059" x="88.01" y="202.1614">contains( other : Interval [1] ) : Boolean [1]</text><ellipse cx="79.01" cy="215.0993" fill="#84BE84" rx="3" ry="3" style="stroke:#038048;stroke-width:1;"/><text fill="#000000" font-family="sans-serif" font-size="14" font-style="italic" lengthAdjust="spacing" textLength="230.9711" x="88.01" y="218.9613">is_equal( other : Any [1] ) : Boolean [1]</text></g><!--class Point_interval--><g class="entity" data-entity="Point_interval" data-source-line="25" data-uid="ent0005" id="entity_Point_interval"><rect fill="#F1F1F1" height="115.1997" rx="2.5" ry="2.5" style="stroke:#181818;stroke-width:0.5;" width="219.8712" x="210.39" y="286"/><ellipse cx="267.4198" cy="302" fill="#ADD1B2" rx="11" ry="11" style="stroke:#181818;stroke-width:1;"/><path d="M267.4198,308.4219 C268.5916,308.4219 269.826,308.1563 271.201,307.5469 L270.7166,306.0313 C269.6229,306.4531 268.6073,306.6406 267.7479,306.6406 C265.0291,306.6406 263.3104,304.7969 263.3104,301.8906 C263.3104,299.1406 264.8729,297.5469 267.6073,297.5469 C268.5291,297.5469 269.5448,297.7344 270.6854,298.1563 L271.2635,296.6406 C270.1698,296.0625 268.8729,295.7656 267.6854,295.7656 C263.9198,295.7656 261.3416,298.4063 261.3416,302.2188 C261.3416,305.8906 263.826,308.4219 267.4198,308.4219 Z " fill="#000000"/><text fill="#000000" font-family="sans-serif" font-size="14" lengthAdjust="spacing" textLength="86.5197" x="287.9198" y="307.362">Point_interval</text><rect fill="#FFFFFF" height="16.4001" style="stroke:#181818;stroke-width:1;stroke-dasharray:2,2;" width="8.7921" x="424.4692" y="283"/><text fill="#000000" font-family="sans-serif" font-size="12" font-style="italic" lengthAdjust="spacing" textLength="6.7921" x="425.4692" y="295.7961">T</text><line style="stroke:#181818;stroke-width:0.5;" x1="211.39" x2="429.2612" y1="318" y2="318"/><ellipse cx="221.39" cy="331.9" fill="none" rx="3" ry="3" style="stroke:#038048;stroke-width:1;"/><text fill="#000000" font-family="sans-serif" font-size="14" lengthAdjust="spacing" textLength="192.8632" x="230.39" y="335.7619">lower_unbounded : Boolean [1]</text><ellipse cx="221.39" cy="348.6999" fill="none" rx="3" ry="3" style="stroke:#038048;stroke-width:1;"/><text fill="#000000" font-family="sans-serif" font-size="14" lengthAdjust="spacing" textLength="193.8712" x="230.39" y="352.5619">upper_unbounded : Boolean [1]</text><ellipse cx="221.39" cy="365.4998" fill="none" rx="3" ry="3" style="stroke:#038048;stroke-width:1;"/><text fill="#000000" font-family="sans-serif" font-size="14" lengthAdjust="spacing" textLength="175.0693" x="230.39" y="369.3618">lower_included : Boolean [1]</text><ellipse cx="221.39" cy="382.2997" fill="none" rx="3" ry="3" style="stroke:#038048;stroke-width:1;"/><text fill="#000000" font-family="sans-serif" font-size="14" lengthAdjust="spacing" textLength="176.0773" x="230.39" y="386.1617">upper_included : Boolean [1]</text><line style="stroke:#181818;stroke-width:0.5;" x1="211.39" x2="429.2612" y1="393.1997" y2="393.1997"/></g><!--class Cardinality--><g class="entity" data-entity="Cardinality" data-source-line="32" data-uid="ent0006" id="entity_Cardinality"><rect fill="#F1F1F1" height="148.7996" rx="2.5" ry="2.5" style="stroke:#181818;stroke-width:0.5;" width="224.6312" x="394.01" y="43.6"/><ellipse cx="468.5177" cy="59.6" fill="#ADD1B2" rx="11" ry="11" style="stroke:#181818;stroke-width:1;"/><path d="M468.5177,66.0219 C469.6896,66.0219 470.924,65.7563 472.299,65.1469 L471.8146,63.6313 C470.7209,64.0531 469.7052,64.2406 468.8459,64.2406 C466.1271,64.2406 464.4084,62.3969 464.4084,59.4906 C464.4084,56.7406 465.9709,55.1469 468.7052,55.1469 C469.6271,55.1469 470.6427,55.3344 471.7834,55.7563 L472.3615,54.2406 C471.2677,53.6625 469.9709,53.3656 468.7834,53.3656 C465.0177,53.3656 462.4396,56.0063 462.4396,59.8188 C462.4396,63.4906 464.924,66.0219 468.5177,66.0219 Z " fill="#000000"/><text fill="#000000" font-family="sans-serif" font-size="14" lengthAdjust="spacing" textLength="67.1157" x="489.0177" y="64.962">Cardinality</text><line style="stroke:#181818;stroke-width:0.5;" x1="395.01" x2="617.6412" y1="75.6" y2="75.6"/><ellipse cx="405.01" cy="89.5" fill="none" rx="3" ry="3" style="stroke:#038048;stroke-width:1;"/><text fill="#000000" font-family="sans-serif" font-size="14" lengthAdjust="spacing" textLength="198.6312" x="414.01" y="93.3619">interval : Multiplicity_interval [1]</text><ellipse cx="405.01" cy="106.2999" fill="none" rx="3" ry="3" style="stroke:#038048;stroke-width:1;"/><text fill="#000000" font-family="sans-serif" font-size="14" lengthAdjust="spacing" textLength="145.8094" x="414.01" y="110.1619">is_ordered : Boolean [1]</text><ellipse cx="405.01" cy="123.0998" fill="none" rx="3" ry="3" style="stroke:#038048;stroke-width:1;"/><text fill="#000000" font-family="sans-serif" font-size="14" lengthAdjust="spacing" textLength="138.9494" x="414.01" y="126.9618">is_unique : Boolean [1]</text><line style="stroke:#181818;stroke-width:0.5;" x1="395.01" x2="617.6412" y1="133.9998" y2="133.9998"/><ellipse cx="405.01" cy="147.8997" fill="#84BE84" rx="3" ry="3" style="stroke:#038048;stroke-width:1;"/><text fill="#000000" font-family="sans-serif" font-size="14" lengthAdjust="spacing" textLength="128.1275" x="414.01" y="151.7617">is_bag() : Boolean [1]</text><ellipse cx="405.01" cy="164.6997" fill="#84BE84" rx="3" ry="3" style="stroke:#038048;stroke-width:1;"/><text fill="#000000" font-family="sans-serif" font-size="14" lengthAdjust="spacing" textLength="123.8855" x="414.01" y="168.5616">is_list() : Boolean [1]</text><ellipse cx="405.01" cy="181.4996" fill="#84BE84" rx="3" ry="3" style="stroke:#038048;stroke-width:1;"/><text fill="#000000" font-family="sans-serif" font-size="14" lengthAdjust="spacing" textLength="123.9415" x="414.01" y="185.3616">is_set() : Boolean [1]</text></g><!--reverse link Proper_interval to Multiplicity_interval--><g class="link" data-entity-1="Proper_interval" data-entity-2="Multiplicity_interval" data-source-line="41" data-uid="lnk7" id="link_Proper_interval_Multiplicity_interval"><path codeLine="41" d="M106.32,385.96 C106.32,409.69 106.32,429.35 106.32,460.98" fill="none" id="Proper_interval-backto-Multiplicity_interval" style="stroke:#181818;stroke-width:1;"/><polygon fill="none" points="106.32,367.96,100.32,385.96,112.32,385.96,106.32,367.96" style="stroke:#181818;stroke-width:1;"/></g><!--reverse link Interval to Proper_interval--><g class="link" data-entity-1="Interval" data-entity-2="Proper_interval" data-source-line="42" data-uid="lnk8" id="link_Interval_Proper_interval"><path codeLine="42" d="M154.2481,242.4557 C137.5081,277.4257 128.26,296.75 117.52,319.21" fill="none" id="Interval-backto-Proper_interval" style="stroke:#181818;stroke-width:1;"/><polygon fill="none" points="162.02,226.22,148.8362,239.865,159.6599,245.0463,162.02,226.22" style="stroke:#181818;stroke-width:1;"/></g><!--reverse link Interval to Point_interval--><g class="link" data-entity-1="Interval" data-entity-2="Point_interval" data-source-line="43" data-uid="lnk9" id="link_Interval_Point_interval"><path codeLine="43" d="M272.4032,242.4551 C282.2232,262.9651 284.36,267.44 293.05,285.6" fill="none" id="Interval-backto-Point_interval" style="stroke:#181818;stroke-width:1;"/><polygon fill="none" points="264.63,226.22,266.9915,245.0461,277.8149,239.864,264.63,226.22" style="stroke:#181818;stroke-width:1;"/></g></g></svg>
