<svg xmlns="http://www.w3.org/2000/svg" xmlns:xlink="http://www.w3.org/1999/xlink" contentStyleType="text/css" data-diagram-type="CLASS" height="220px" preserveAspectRatio="none" style="width:182px;height:220px;background:#FFFFFF;" version="1.1" viewBox="0 0 182 220" width="182px" zoomAndPan="magnify"><defs/><g><!--class ACCESS_GROUP_REF--><g class="entity" data-entity="ACCESS_GROUP_REF" data-source-line="2" data-uid="ent0002" id="entity_ACCESS_GROUP_REF"><rect fill="#F1F1F1" height="48" rx="2.5" ry="2.5" style="stroke:#181818;stroke-width:0.5;" width="168.2055" x="7" y="165.4"/><ellipse cx="22" cy="181.4" fill="#ADD1B2" rx="11" ry="11" style="stroke:#181818;stroke-width:1;"/><path d="M22,187.8219 C23.1719,187.8219 24.4063,187.5563 25.7813,186.9469 L25.2969,185.4313 C24.2031,185.8531 23.1875,186.0406 22.3281,186.0406 C19.6094,186.0406 17.8906,184.1969 17.8906,181.2906 C17.8906,178.5406 19.4531,176.9469 22.1875,176.9469 C23.1094,176.9469 24.125,177.1344 25.2656,177.5563 L25.8438,176.0406 C24.75,175.4625 23.4531,175.1656 22.2656,175.1656 C18.5,175.1656 15.9219,177.8063 15.9219,181.6188 C15.9219,185.2906 18.4063,187.8219 22,187.8219 Z " fill="#000000"/><text fill="#000000" font-family="sans-serif" font-size="14" lengthAdjust="spacing" textLength="136.2055" x="36" y="186.762">ACCESS_GROUP_REF</text><line style="stroke:#181818;stroke-width:0.5;" x1="8" x2="174.2055" y1="197.4" y2="197.4"/><line style="stroke:#181818;stroke-width:0.5;" x1="8" x2="174.2055" y1="205.4" y2="205.4"/></g><!--class OBJECT_REF--><g class="entity" data-entity="OBJECT_REF" data-source-line="5" data-uid="ent0003" id="entity_OBJECT_REF"><rect fill="#F5F5F5" height="98.3998" rx="2.5" ry="2.5" style="stroke:#808080;stroke-width:1;stroke-dasharray:1,3;" width="162.4715" x="9.87" y="7"/><ellipse cx="46.7273" cy="23" fill="#ADD1B2" rx="11" ry="11" style="stroke:#181818;stroke-width:1;"/><path d="M46.7273,29.4219 C47.8992,29.4219 49.1336,29.1563 50.5086,28.5469 L50.0242,27.0313 C48.9304,27.4531 47.9148,27.6406 47.0554,27.6406 C44.3367,27.6406 42.6179,25.7969 42.6179,22.8906 C42.6179,20.1406 44.1804,18.5469 46.9148,18.5469 C47.8367,18.5469 48.8523,18.7344 49.9929,19.1563 L50.5711,17.6406 C49.4773,17.0625 48.1804,16.7656 46.9929,16.7656 C43.2273,16.7656 40.6492,19.4063 40.6492,23.2188 C40.6492,26.8906 43.1336,29.4219 46.7273,29.4219 Z " fill="#000000"/><text fill="#808080" font-family="sans-serif" font-size="14" lengthAdjust="spacing" textLength="81.8997" x="65.5845" y="28.362">OBJECT_REF</text><line style="stroke:#808080;stroke-width:1;stroke-dasharray:1,3;" x1="10.87" x2="171.3415" y1="39" y2="39"/><ellipse cx="20.87" cy="52.9" fill="none" rx="3" ry="3" style="stroke:#038048;stroke-width:1;"/><text fill="#808080" font-family="sans-serif" font-size="14" lengthAdjust="spacing" textLength="136.4715" x="29.87" y="56.7619">namespace : String [1]</text><ellipse cx="20.87" cy="69.6999" fill="none" rx="3" ry="3" style="stroke:#038048;stroke-width:1;"/><text fill="#808080" font-family="sans-serif" font-size="14" lengthAdjust="spacing" textLength="93.1416" x="29.87" y="73.5619">type : String [1]</text><ellipse cx="20.87" cy="86.4998" fill="none" rx="3" ry="3" style="stroke:#038048;stroke-width:1;"/><text fill="#808080" font-family="sans-serif" font-size="14" lengthAdjust="spacing" textLength="110.8235" x="29.87" y="90.3618">id : OBJECT_ID [1]</text><line style="stroke:#808080;stroke-width:1;stroke-dasharray:1,3;" x1="10.87" x2="171.3415" y1="97.3998" y2="97.3998"/></g><!--reverse link OBJECT_REF to ACCESS_GROUP_REF--><g class="link" data-entity-1="OBJECT_REF" data-entity-2="ACCESS_GROUP_REF" data-source-line="11" data-uid="lnk4" id="link_OBJECT_REF_ACCESS_GROUP_REF"><path codeLine="11" d="M91.1,123.68 C91.1,143.97 91.1,148.62 91.1,165.08" fill="none" id="OBJECT_REF-backto-ACCESS_GROUP_REF" style="stroke:#181818;stroke-width:1;"/><polygon fill="none" points="91.1,105.68,85.1,123.68,97.1,123.68,91.1,105.68" style="stroke:#181818;stroke-width:1;"/></g></g></svg>
