<svg xmlns="http://www.w3.org/2000/svg" xmlns:xlink="http://www.w3.org/1999/xlink" contentStyleType="text/css" data-diagram-type="CLASS" height="119px" preserveAspectRatio="none" style="width:206px;height:119px;background:#FFFFFF;" version="1.1" viewBox="0 0 206 119" width="206px" zoomAndPan="magnify"><defs/><g><!--class Aggregate--><g class="entity" data-entity="Aggregate" data-source-line="2" data-uid="ent0002" id="entity_Aggregate"><rect fill="#F1F1F1" height="98.3998" rx="2.5" ry="2.5" style="stroke:#181818;stroke-width:0.5;" width="185.0114" x="7" y="7"/><ellipse cx="57.3658" cy="23" fill="#A9DCDF" rx="11" ry="11" style="stroke:#181818;stroke-width:1;"/><path d="M51.8814,28.5 L53.9127,28.5 L57.9595,17.1563 L57.0533,17.1563 L60.8814,28.5 L63.022,28.5 L58.6939,16.1719 L56.4752,16.1719 L51.8814,28.5 Z M54.2095,25 L60.647,25 L60.647,23.25 L54.2095,23.25 L54.2095,25 Z " fill="#000000"/><text fill="#000000" font-family="sans-serif" font-size="14" font-style="italic" lengthAdjust="spacing" textLength="64.9877" x="77.8658" y="28.362">Aggregate</text><rect fill="#FFFFFF" height="16.4001" style="stroke:#181818;stroke-width:1;stroke-dasharray:2,2;" width="8.7921" x="186.2193" y="4"/><text fill="#000000" font-family="sans-serif" font-size="12" font-style="italic" lengthAdjust="spacing" textLength="6.7921" x="187.2193" y="16.7961">T</text><line style="stroke:#181818;stroke-width:0.5;" x1="8" x2="191.0114" y1="39" y2="39"/><line style="stroke:#181818;stroke-width:0.5;" x1="8" x2="191.0114" y1="47" y2="47"/><ellipse cx="18" cy="60.9" fill="#84BE84" rx="3" ry="3" style="stroke:#038048;stroke-width:1;"/><text fill="#000000" font-family="sans-serif" font-size="14" font-style="italic" lengthAdjust="spacing" textLength="159.0114" x="27" y="64.7619">has( v : T [1] ) : Boolean [1]</text><ellipse cx="18" cy="77.6999" fill="#84BE84" rx="3" ry="3" style="stroke:#038048;stroke-width:1;"/><text fill="#000000" font-family="sans-serif" font-size="14" font-style="italic" lengthAdjust="spacing" textLength="117.0256" x="27" y="81.5619">count() : Integer [1]</text><ellipse cx="18" cy="94.4998" fill="#84BE84" rx="3" ry="3" style="stroke:#038048;stroke-width:1;"/><text fill="#000000" font-family="sans-serif" font-size="14" font-style="italic" lengthAdjust="spacing" textLength="144.5634" x="27" y="98.3618">is_empty() : Boolean [1]</text></g></g></svg>
