<svg xmlns="http://www.w3.org/2000/svg" xmlns:xlink="http://www.w3.org/1999/xlink" contentStyleType="text/css" data-diagram-type="CLASS" height="136px" preserveAspectRatio="none" style="width:292px;height:136px;background:#FFFFFF;" version="1.1" viewBox="0 0 292 136" width="292px" zoomAndPan="magnify"><defs/><g><!--class Any--><g class="entity" data-entity="Any" data-source-line="2" data-uid="ent0002" id="entity_Any"><rect fill="#F1F1F1" height="115.1997" rx="2.5" ry="2.5" style="stroke:#181818;stroke-width:0.5;" width="271.5311" x="7" y="7"/><ellipse cx="126.8046" cy="23" fill="#A9DCDF" rx="11" ry="11" style="stroke:#181818;stroke-width:1;"/><path d="M121.3202,28.5 L123.3514,28.5 L127.3983,17.1563 L126.4921,17.1563 L130.3202,28.5 L132.4608,28.5 L128.1327,16.1719 L125.9139,16.1719 L121.3202,28.5 Z M123.6483,25 L130.0858,25 L130.0858,23.25 L123.6483,23.25 L123.6483,25 Z " fill="#000000"/><text fill="#000000" font-family="sans-serif" font-size="14" font-style="italic" lengthAdjust="spacing" textLength="23.4219" x="147.3046" y="28.362">Any</text><line style="stroke:#181818;stroke-width:0.5;" x1="8" x2="277.5311" y1="39" y2="39"/><line style="stroke:#181818;stroke-width:0.5;" x1="8" x2="277.5311" y1="47" y2="47"/><ellipse cx="18" cy="60.9" fill="#84BE84" rx="3" ry="3" style="stroke:#038048;stroke-width:1;"/><text fill="#000000" font-family="sans-serif" font-size="14" font-style="italic" lengthAdjust="spacing" textLength="230.9711" x="27" y="64.7619">is_equal( other : Any [1] ) : Boolean [1]</text><ellipse cx="18" cy="77.6999" fill="#84BE84" rx="3" ry="3" style="stroke:#038048;stroke-width:1;"/><text fill="#000000" font-family="sans-serif" font-size="14" lengthAdjust="spacing" textLength="217.1392" x="27" y="81.5619">infix =( other : Any [1] ) : Boolean [1]</text><ellipse cx="18" cy="94.4998" fill="#84BE84" rx="3" ry="3" style="stroke:#038048;stroke-width:1;"/><text fill="#000000" font-family="sans-serif" font-size="14" lengthAdjust="spacing" textLength="245.5311" x="27" y="98.3618">instance_of( a_type : String [1] ) : Any [1]</text><ellipse cx="18" cy="111.2997" fill="#84BE84" rx="3" ry="3" style="stroke:#038048;stroke-width:1;"/><text fill="#000000" font-family="sans-serif" font-size="14" lengthAdjust="spacing" textLength="239.8471" x="27" y="115.1617">type_of( an_object : Any [1] ) : String [1]</text></g></g></svg>
