<svg xmlns="http://www.w3.org/2000/svg" xmlns:xlink="http://www.w3.org/1999/xlink" contentStyleType="text/css" data-diagram-type="CLASS" height="304px" preserveAspectRatio="none" style="width:235px;height:304px;background:#FFFFFF;" version="1.1" viewBox="0 0 235 304" width="235px" zoomAndPan="magnify"><defs/><g><!--class ARCHETYPE_ID--><g class="entity" data-entity="ARCHETYPE_ID" data-source-line="2" data-uid="ent0002" id="entity_ARCHETYPE_ID"><rect fill="#F1F1F1" height="165.5995" rx="2.5" ry="2.5" style="stroke:#181818;stroke-width:0.5;" width="221.5652" x="7" y="131.8"/><ellipse cx="64.5748" cy="147.8" fill="#ADD1B2" rx="11" ry="11" style="stroke:#181818;stroke-width:1;"/><path d="M64.5748,154.2219 C65.7467,154.2219 66.9811,153.9562 68.3561,153.3469 L67.8717,151.8312 C66.7779,152.2531 65.7623,152.4406 64.9029,152.4406 C62.1842,152.4406 60.4654,150.5969 60.4654,147.6906 C60.4654,144.9406 62.0279,143.3469 64.7623,143.3469 C65.6842,143.3469 66.6998,143.5344 67.8404,143.9562 L68.4186,142.4406 C67.3248,141.8625 66.0279,141.5656 64.8404,141.5656 C61.0748,141.5656 58.4967,144.2062 58.4967,148.0187 C58.4967,151.6906 60.9811,154.2219 64.5748,154.2219 Z " fill="#000000"/><text fill="#000000" font-family="sans-serif" font-size="14" lengthAdjust="spacing" textLength="97.9156" x="85.0748" y="153.162">ARCHETYPE_ID</text><line style="stroke:#181818;stroke-width:0.5;" x1="8" x2="227.5652" y1="163.8" y2="163.8"/><line style="stroke:#181818;stroke-width:0.5;" x1="8" x2="227.5652" y1="171.8" y2="171.8"/><ellipse cx="18" cy="185.7" fill="#84BE84" rx="3" ry="3" style="stroke:#038048;stroke-width:1;"/><text fill="#000000" font-family="sans-serif" font-size="14" lengthAdjust="spacing" textLength="195.5652" x="27" y="189.5619">qualified_rm_entity() : String [1]</text><ellipse cx="18" cy="202.4999" fill="#84BE84" rx="3" ry="3" style="stroke:#038048;stroke-width:1;"/><text fill="#000000" font-family="sans-serif" font-size="14" lengthAdjust="spacing" textLength="177.6733" x="27" y="206.3619">domain_concept() : String [1]</text><ellipse cx="18" cy="219.2998" fill="#84BE84" rx="3" ry="3" style="stroke:#038048;stroke-width:1;"/><text fill="#000000" font-family="sans-serif" font-size="14" lengthAdjust="spacing" textLength="160.5514" x="27" y="223.1618">rm_originator() : String [1]</text><ellipse cx="18" cy="236.0997" fill="#84BE84" rx="3" ry="3" style="stroke:#038048;stroke-width:1;"/><text fill="#000000" font-family="sans-serif" font-size="14" lengthAdjust="spacing" textLength="133.9935" x="27" y="239.9617">rm_name() : String [1]</text><ellipse cx="18" cy="252.8997" fill="#84BE84" rx="3" ry="3" style="stroke:#038048;stroke-width:1;"/><text fill="#000000" font-family="sans-serif" font-size="14" lengthAdjust="spacing" textLength="134.6935" x="27" y="256.7616">rm_entity() : String [1]</text><ellipse cx="18" cy="269.6996" fill="#84BE84" rx="3" ry="3" style="stroke:#038048;stroke-width:1;"/><text fill="#000000" font-family="sans-serif" font-size="14" lengthAdjust="spacing" textLength="158.8154" x="27" y="273.5616">specialisation() : String [1]</text><ellipse cx="18" cy="286.4995" fill="#84BE84" rx="3" ry="3" style="stroke:#038048;stroke-width:1;"/><text fill="#000000" font-family="sans-serif" font-size="14" lengthAdjust="spacing" textLength="138.0395" x="27" y="290.3615">version_id() : String [1]</text></g><!--class OBJECT_ID--><g class="entity" data-entity="OBJECT_ID" data-source-line="12" data-uid="ent0003" id="entity_OBJECT_ID"><rect fill="#F5F5F5" height="64.7999" rx="2.5" ry="2.5" style="stroke:#808080;stroke-width:1;stroke-dasharray:1,3;" width="124.9656" x="55.3" y="7"/><ellipse cx="80.2504" cy="23" fill="#A9DCDF" rx="11" ry="11" style="stroke:#181818;stroke-width:1;"/><path d="M74.766,28.5 L76.7972,28.5 L80.8441,17.1563 L79.9379,17.1563 L83.766,28.5 L85.9066,28.5 L81.5785,16.1719 L79.3597,16.1719 L74.766,28.5 Z M77.0941,25 L83.5316,25 L83.5316,23.25 L77.0941,23.25 L77.0941,25 Z " fill="#000000"/><text fill="#808080" font-family="sans-serif" font-size="14" font-style="italic" lengthAdjust="spacing" textLength="70.8537" x="96.4615" y="28.362">OBJECT_ID</text><line style="stroke:#808080;stroke-width:1;stroke-dasharray:1,3;" x1="56.3" x2="179.2656" y1="39" y2="39"/><ellipse cx="66.3" cy="52.9" fill="none" rx="3" ry="3" style="stroke:#038048;stroke-width:1;"/><text fill="#808080" font-family="sans-serif" font-size="14" lengthAdjust="spacing" textLength="98.9656" x="75.3" y="56.7619">value : String [1]</text><line style="stroke:#808080;stroke-width:1;stroke-dasharray:1,3;" x1="56.3" x2="179.2656" y1="63.7999" y2="63.7999"/></g><!--reverse link OBJECT_ID to ARCHETYPE_ID--><g class="link" data-entity-1="OBJECT_ID" data-entity-2="ARCHETYPE_ID" data-source-line="16" data-uid="lnk4" id="link_OBJECT_ID_ARCHETYPE_ID"><path codeLine="16" d="M117.78,90.17 C117.78,106.97 117.78,110.44 117.78,131.55" fill="none" id="OBJECT_ID-backto-ARCHETYPE_ID" style="stroke:#181818;stroke-width:1;"/><polygon fill="none" points="117.78,72.17,111.78,90.17,123.78,90.17,117.78,72.17" style="stroke:#181818;stroke-width:1;"/></g></g></svg>
