<svg xmlns="http://www.w3.org/2000/svg" xmlns:xlink="http://www.w3.org/1999/xlink" contentStyleType="text/css" data-diagram-type="CLASS" height="223px" preserveAspectRatio="none" style="width:203px;height:223px;background:#FFFFFF;" version="1.1" viewBox="0 0 203 223" width="203px" zoomAndPan="magnify"><defs/><g><!--class Array--><g class="entity" data-entity="Array" data-source-line="2" data-uid="ent0002" id="entity_Array"><rect fill="#F1F1F1" height="48" rx="2.5" ry="2.5" style="stroke:#181818;stroke-width:0.5;" width="75.9999" x="61.51" y="168.4"/><ellipse cx="76.51" cy="184.4" fill="#ADD1B2" rx="11" ry="11" style="stroke:#181818;stroke-width:1;"/><path d="M76.51,190.8219 C77.6819,190.8219 78.9162,190.5563 80.2912,189.9469 L79.8069,188.4313 C78.7131,188.8531 77.6975,189.0406 76.8381,189.0406 C74.1194,189.0406 72.4006,187.1969 72.4006,184.2906 C72.4006,181.5406 73.9631,179.9469 76.6975,179.9469 C77.6194,179.9469 78.635,180.1344 79.7756,180.5563 L80.3537,179.0406 C79.26,178.4625 77.9631,178.1656 76.7756,178.1656 C73.01,178.1656 70.4319,180.8063 70.4319,184.6188 C70.4319,188.2906 72.9162,190.8219 76.51,190.8219 Z " fill="#000000"/><text fill="#000000" font-family="sans-serif" font-size="14" lengthAdjust="spacing" textLength="33.2079" x="90.51" y="189.762">Array</text><rect fill="#FFFFFF" height="16.4001" style="stroke:#181818;stroke-width:1;stroke-dasharray:2,2;" width="8.7921" x="131.7179" y="165.4"/><text fill="#000000" font-family="sans-serif" font-size="12" font-style="italic" lengthAdjust="spacing" textLength="6.7921" x="132.7179" y="178.1961">T</text><line style="stroke:#181818;stroke-width:0.5;" x1="62.51" x2="136.5099" y1="200.4" y2="200.4"/><line style="stroke:#181818;stroke-width:0.5;" x1="62.51" x2="136.5099" y1="208.4" y2="208.4"/></g><!--class Container--><g class="entity" data-entity="Container" data-source-line="5" data-uid="ent0003" id="entity_Container"><rect fill="#F5F5F5" height="98.3998" rx="2.5" ry="2.5" style="stroke:#808080;stroke-width:1;stroke-dasharray:1,3;" width="185.0114" x="7" y="10"/><ellipse cx="59.2698" cy="26" fill="#A9DCDF" rx="11" ry="11" style="stroke:#181818;stroke-width:1;"/><path d="M53.7854,31.5 L55.8166,31.5 L59.8635,20.1563 L58.9573,20.1563 L62.7854,31.5 L64.926,31.5 L60.5979,19.1719 L58.3791,19.1719 L53.7854,31.5 Z M56.1135,28 L62.551,28 L62.551,26.25 L56.1135,26.25 L56.1135,28 Z " fill="#000000"/><text fill="#808080" font-family="sans-serif" font-size="14" font-style="italic" lengthAdjust="spacing" textLength="61.1798" x="79.7698" y="31.362">Container</text><rect fill="#FFFFFF" height="16.4001" style="stroke:#181818;stroke-width:1;stroke-dasharray:2,2;" width="8.7921" x="186.2193" y="7"/><text fill="#000000" font-family="sans-serif" font-size="12" font-style="italic" lengthAdjust="spacing" textLength="6.7921" x="187.2193" y="19.7961">T</text><line style="stroke:#808080;stroke-width:1;stroke-dasharray:1,3;" x1="8" x2="191.0114" y1="42" y2="42"/><line style="stroke:#808080;stroke-width:1;stroke-dasharray:1,3;" x1="8" x2="191.0114" y1="50" y2="50"/><ellipse cx="18" cy="63.9" fill="#84BE84" rx="3" ry="3" style="stroke:#038048;stroke-width:1;"/><text fill="#808080" font-family="sans-serif" font-size="14" font-style="italic" lengthAdjust="spacing" textLength="159.0114" x="27" y="67.7619">has( v : T [1] ) : Boolean [1]</text><ellipse cx="18" cy="80.6999" fill="#84BE84" rx="3" ry="3" style="stroke:#038048;stroke-width:1;"/><text fill="#808080" font-family="sans-serif" font-size="14" font-style="italic" lengthAdjust="spacing" textLength="117.0256" x="27" y="84.5619">count() : Integer [1]</text><ellipse cx="18" cy="97.4998" fill="#84BE84" rx="3" ry="3" style="stroke:#038048;stroke-width:1;"/><text fill="#808080" font-family="sans-serif" font-size="14" font-style="italic" lengthAdjust="spacing" textLength="144.5634" x="27" y="101.3618">is_empty() : Boolean [1]</text></g><!--reverse link Container to Array--><g class="link" data-entity-1="Container" data-entity-2="Array" data-source-line="11" data-uid="lnk4" id="link_Container_Array"><path codeLine="11" d="M99.51,126.68 C99.51,146.97 99.51,151.62 99.51,168.08" fill="none" id="Container-backto-Array" style="stroke:#181818;stroke-width:1;"/><polygon fill="none" points="99.51,108.68,93.51,126.68,105.51,126.68,99.51,108.68" style="stroke:#181818;stroke-width:1;"/></g></g></svg>
