<svg xmlns="http://www.w3.org/2000/svg" xmlns:xlink="http://www.w3.org/1999/xlink" contentStyleType="text/css" data-diagram-type="CLASS" height="307px" preserveAspectRatio="none" style="width:329px;height:307px;background:#FFFFFF;" version="1.1" viewBox="0 0 329 307" width="329px" zoomAndPan="magnify"><defs/><g><!--class Array--><g class="entity" data-entity="Array" data-source-line="2" data-uid="ent0002" id="entity_Array"><rect fill="#F1F1F1" height="64.7999" rx="2.5" ry="2.5" style="stroke:#181818;stroke-width:0.5;" width="213.9212" x="55.59" y="235.6"/><ellipse cx="136.3007" cy="251.6" fill="#ADD1B2" rx="11" ry="11" style="stroke:#181818;stroke-width:1;"/><path d="M136.3007,258.0219 C137.4725,258.0219 138.7069,257.7562 140.0819,257.1469 L139.5975,255.6312 C138.5038,256.0531 137.4882,256.2406 136.6288,256.2406 C133.91,256.2406 132.1913,254.3969 132.1913,251.4906 C132.1913,248.7406 133.7538,247.1469 136.4882,247.1469 C137.41,247.1469 138.4257,247.3344 139.5663,247.7562 L140.1444,246.2406 C139.0507,245.6625 137.7538,245.3656 136.5663,245.3656 C132.8007,245.3656 130.2225,248.0062 130.2225,251.8187 C130.2225,255.4906 132.7069,258.0219 136.3007,258.0219 Z " fill="#000000"/><text fill="#000000" font-family="sans-serif" font-size="14" lengthAdjust="spacing" textLength="33.2079" x="156.8007" y="256.962">Array</text><rect fill="#FFFFFF" height="16.4001" style="stroke:#181818;stroke-width:1;stroke-dasharray:2,2;" width="8.7921" x="263.7192" y="232.6"/><text fill="#000000" font-family="sans-serif" font-size="12" font-style="italic" lengthAdjust="spacing" textLength="6.7921" x="264.7192" y="245.3961">T</text><line style="stroke:#181818;stroke-width:0.5;" x1="56.59" x2="268.5112" y1="267.6" y2="267.6"/><line style="stroke:#181818;stroke-width:0.5;" x1="56.59" x2="268.5112" y1="275.6" y2="275.6"/><ellipse cx="66.59" cy="289.5" fill="#84BE84" rx="3" ry="3" style="stroke:#038048;stroke-width:1;"/><text fill="#000000" font-family="sans-serif" font-size="14" lengthAdjust="spacing" textLength="187.9212" x="75.59" y="293.3619">item( a_key : Integer [1] ) : T [1]</text></g><!--class Container--><g class="entity" data-entity="Container" data-source-line="6" data-uid="ent0003" id="entity_Container"><rect fill="#F5F5F5" height="165.5995" rx="2.5" ry="2.5" style="stroke:#808080;stroke-width:1;stroke-dasharray:1,3;" width="311.1089" x="7" y="10"/><ellipse cx="122.3186" cy="26" fill="#A9DCDF" rx="11" ry="11" style="stroke:#181818;stroke-width:1;"/><path d="M116.8342,31.5 L118.8654,31.5 L122.9123,20.1563 L122.0061,20.1563 L125.8342,31.5 L127.9748,31.5 L123.6467,19.1719 L121.4279,19.1719 L116.8342,31.5 Z M119.1623,28 L125.5998,28 L125.5998,26.25 L119.1623,26.25 L119.1623,28 Z " fill="#000000"/><text fill="#808080" font-family="sans-serif" font-size="14" font-style="italic" lengthAdjust="spacing" textLength="61.1798" x="142.8186" y="31.362">Container</text><rect fill="#FFFFFF" height="16.4001" style="stroke:#181818;stroke-width:1;stroke-dasharray:2,2;" width="8.7921" x="312.3169" y="7"/><text fill="#000000" font-family="sans-serif" font-size="12" font-style="italic" lengthAdjust="spacing" textLength="6.7921" x="313.3169" y="19.7961">T</text><line style="stroke:#808080;stroke-width:1;stroke-dasharray:1,3;" x1="8" x2="317.1089" y1="42" y2="42"/><line style="stroke:#808080;stroke-width:1;stroke-dasharray:1,3;" x1="8" x2="317.1089" y1="50" y2="50"/><ellipse cx="18" cy="63.9" fill="#84BE84" rx="3" ry="3" style="stroke:#038048;stroke-width:1;"/><text fill="#808080" font-family="sans-serif" font-size="14" font-style="italic" lengthAdjust="spacing" textLength="159.0114" x="27" y="67.7619">has( v : T [1] ) : Boolean [1]</text><ellipse cx="18" cy="80.6999" fill="#84BE84" rx="3" ry="3" style="stroke:#038048;stroke-width:1;"/><text fill="#808080" font-family="sans-serif" font-size="14" font-style="italic" lengthAdjust="spacing" textLength="117.0256" x="27" y="84.5619">count() : Integer [1]</text><ellipse cx="18" cy="97.4998" fill="#84BE84" rx="3" ry="3" style="stroke:#038048;stroke-width:1;"/><text fill="#808080" font-family="sans-serif" font-size="14" font-style="italic" lengthAdjust="spacing" textLength="144.5634" x="27" y="101.3618">is_empty() : Boolean [1]</text><ellipse cx="18" cy="114.2997" fill="#84BE84" rx="3" ry="3" style="stroke:#038048;stroke-width:1;"/><text fill="#808080" font-family="sans-serif" font-size="14" lengthAdjust="spacing" textLength="285.1089" x="27" y="118.1617">there_exists( test : Operation [1] ) : Boolean [1]</text><ellipse cx="18" cy="131.0997" fill="#84BE84" rx="3" ry="3" style="stroke:#038048;stroke-width:1;"/><text fill="#808080" font-family="sans-serif" font-size="14" lengthAdjust="spacing" textLength="249.535" x="27" y="134.9616">for_all( test : Operation [1] ) : Boolean [1]</text><ellipse cx="18" cy="147.8996" fill="#84BE84" rx="3" ry="3" style="stroke:#038048;stroke-width:1;"/><text fill="#808080" font-family="sans-serif" font-size="14" lengthAdjust="spacing" textLength="263.871" x="27" y="151.7616">matching( test : Operation [1] ) : List&lt;T&gt; [*]</text><ellipse cx="18" cy="164.6995" fill="#84BE84" rx="3" ry="3" style="stroke:#038048;stroke-width:1;"/><text fill="#808080" font-family="sans-serif" font-size="14" lengthAdjust="spacing" textLength="218.9731" x="27" y="168.5615">select( test : Operation [1] ) : T [0..1]</text></g><!--reverse link Container to Array--><g class="link" data-entity-1="Container" data-entity-2="Array" data-source-line="16" data-uid="lnk4" id="link_Container_Array"><path codeLine="16" d="M162.55,194.09 C162.55,215.21 162.55,218.68 162.55,235.44" fill="none" id="Container-backto-Array" style="stroke:#181818;stroke-width:1;"/><polygon fill="none" points="162.55,176.09,156.55,194.09,168.55,194.09,162.55,176.09" style="stroke:#181818;stroke-width:1;"/></g></g></svg>
