<svg xmlns="http://www.w3.org/2000/svg" xmlns:xlink="http://www.w3.org/1999/xlink" contentStyleType="text/css" data-diagram-type="CLASS" height="220px" preserveAspectRatio="none" style="width:231px;height:220px;background:#FFFFFF;" version="1.1" viewBox="0 0 231 220" width="231px" zoomAndPan="magnify"><defs/><g><!--class ASSERTION--><g class="entity" data-entity="ASSERTION" data-source-line="2" data-uid="ent0002" id="entity_ASSERTION"><rect fill="#F1F1F1" height="98.3998" rx="2.5" ry="2.5" style="stroke:#181818;stroke-width:0.5;" width="217.8693" x="7" y="115"/><ellipse cx="74.7318" cy="131" fill="#ADD1B2" rx="11" ry="11" style="stroke:#181818;stroke-width:1;"/><path d="M74.7318,137.4219 C75.9037,137.4219 77.138,137.1563 78.513,136.5469 L78.0287,135.0313 C76.9349,135.4531 75.9193,135.6406 75.0599,135.6406 C72.3412,135.6406 70.6224,133.7969 70.6224,130.8906 C70.6224,128.1406 72.1849,126.5469 74.9193,126.5469 C75.8412,126.5469 76.8568,126.7344 77.9974,127.1563 L78.5755,125.6406 C77.4818,125.0625 76.1849,124.7656 74.9974,124.7656 C71.2318,124.7656 68.6537,127.4063 68.6537,131.2188 C68.6537,134.8906 71.138,137.4219 74.7318,137.4219 Z " fill="#000000"/><text fill="#000000" font-family="sans-serif" font-size="14" lengthAdjust="spacing" textLength="73.9057" x="95.2318" y="136.362">ASSERTION</text><line style="stroke:#181818;stroke-width:0.5;" x1="8" x2="223.8693" y1="147" y2="147"/><ellipse cx="18" cy="160.9" fill="none" rx="3" ry="3" style="stroke:#038048;stroke-width:1;"/><text fill="#000000" font-family="sans-serif" font-size="14" lengthAdjust="spacing" textLength="101.9476" x="27" y="164.7619">tag : String [0..1]</text><ellipse cx="18" cy="177.6999" fill="none" rx="3" ry="3" style="stroke:#038048;stroke-width:1;"/><text fill="#000000" font-family="sans-serif" font-size="14" lengthAdjust="spacing" textLength="191.8693" x="27" y="181.5619">string_expression : String [0..1]</text><ellipse cx="18" cy="194.4998" fill="none" rx="3" ry="3" style="stroke:#038048;stroke-width:1;"/><text fill="#000000" font-family="sans-serif" font-size="14" lengthAdjust="spacing" textLength="177.4773" x="27" y="198.3618">expression : EXPRESSION [1]</text><line style="stroke:#181818;stroke-width:0.5;" x1="8" x2="223.8693" y1="205.3998" y2="205.3998"/></g><!--class STATEMENT--><g class="entity" data-entity="STATEMENT" data-source-line="8" data-uid="ent0003" id="entity_STATEMENT"><rect fill="#F5F5F5" height="48" rx="2.5" ry="2.5" style="stroke:#808080;stroke-width:1;stroke-dasharray:1,3;" width="111.1557" x="60.36" y="7"/><ellipse cx="75.36" cy="23" fill="#A9DCDF" rx="11" ry="11" style="stroke:#181818;stroke-width:1;"/><path d="M69.8756,28.5 L71.9069,28.5 L75.9538,17.1563 L75.0475,17.1563 L78.8756,28.5 L81.0163,28.5 L76.6881,16.1719 L74.4694,16.1719 L69.8756,28.5 Z M72.2038,25 L78.6413,25 L78.6413,23.25 L72.2038,23.25 L72.2038,25 Z " fill="#000000"/><text fill="#808080" font-family="sans-serif" font-size="14" font-style="italic" lengthAdjust="spacing" textLength="79.1557" x="89.36" y="28.362">STATEMENT</text><line style="stroke:#808080;stroke-width:1;stroke-dasharray:1,3;" x1="61.36" x2="170.5157" y1="39" y2="39"/><line style="stroke:#808080;stroke-width:1;stroke-dasharray:1,3;" x1="61.36" x2="170.5157" y1="47" y2="47"/></g><!--reverse link STATEMENT to ASSERTION--><g class="link" data-entity-1="STATEMENT" data-entity-2="ASSERTION" data-source-line="11" data-uid="lnk4" id="link_STATEMENT_ASSERTION"><path codeLine="11" d="M115.93,73.46 C115.93,89.89 115.93,94.45 115.93,114.68" fill="none" id="STATEMENT-backto-ASSERTION" style="stroke:#181818;stroke-width:1;"/><polygon fill="none" points="115.93,55.46,109.93,73.46,121.93,73.46,115.93,55.46" style="stroke:#181818;stroke-width:1;"/></g></g></svg>
