<svg xmlns="http://www.w3.org/2000/svg" xmlns:xlink="http://www.w3.org/1999/xlink" contentStyleType="text/css" data-diagram-type="CLASS" height="203px" preserveAspectRatio="none" style="width:269px;height:203px;background:#FFFFFF;" version="1.1" viewBox="0 0 269 203" width="269px" zoomAndPan="magnify"><defs/><g><!--class ASSIGNMENT--><g class="entity" data-entity="ASSIGNMENT" data-source-line="2" data-uid="ent0002" id="entity_ASSIGNMENT"><rect fill="#F1F1F1" height="81.5999" rx="2.5" ry="2.5" style="stroke:#181818;stroke-width:0.5;" width="255.1931" x="7" y="115"/><ellipse cx="86.7857" cy="131" fill="#ADD1B2" rx="11" ry="11" style="stroke:#181818;stroke-width:1;"/><path d="M86.7857,137.4219 C87.9576,137.4219 89.192,137.1563 90.567,136.5469 L90.0826,135.0313 C88.9888,135.4531 87.9732,135.6406 87.1138,135.6406 C84.3951,135.6406 82.6763,133.7969 82.6763,130.8906 C82.6763,128.1406 84.2388,126.5469 86.9732,126.5469 C87.8951,126.5469 88.9107,126.7344 90.0513,127.1563 L90.6295,125.6406 C89.5357,125.0625 88.2388,124.7656 87.0513,124.7656 C83.2857,124.7656 80.7076,127.4063 80.7076,131.2188 C80.7076,134.8906 83.192,137.4219 86.7857,137.4219 Z " fill="#000000"/><text fill="#000000" font-family="sans-serif" font-size="14" lengthAdjust="spacing" textLength="87.1217" x="107.2857" y="136.362">ASSIGNMENT</text><line style="stroke:#181818;stroke-width:0.5;" x1="8" x2="261.1931" y1="147" y2="147"/><ellipse cx="18" cy="160.9" fill="none" rx="3" ry="3" style="stroke:#038048;stroke-width:1;"/><text fill="#000000" font-family="sans-serif" font-size="14" lengthAdjust="spacing" textLength="229.1931" x="27" y="164.7619">target : VARIABLE_DECLARATION [1]</text><ellipse cx="18" cy="177.6999" fill="none" rx="3" ry="3" style="stroke:#038048;stroke-width:1;"/><text fill="#000000" font-family="sans-serif" font-size="14" lengthAdjust="spacing" textLength="152.3194" x="27" y="181.5619">source : EXPR_VALUE [1]</text><line style="stroke:#181818;stroke-width:0.5;" x1="8" x2="261.1931" y1="188.5999" y2="188.5999"/></g><!--class STATEMENT--><g class="entity" data-entity="STATEMENT" data-source-line="7" data-uid="ent0003" id="entity_STATEMENT"><rect fill="#F5F5F5" height="48" rx="2.5" ry="2.5" style="stroke:#808080;stroke-width:1;stroke-dasharray:1,3;" width="111.1557" x="79.02" y="7"/><ellipse cx="94.02" cy="23" fill="#A9DCDF" rx="11" ry="11" style="stroke:#181818;stroke-width:1;"/><path d="M88.5356,28.5 L90.5669,28.5 L94.6138,17.1563 L93.7075,17.1563 L97.5356,28.5 L99.6763,28.5 L95.3481,16.1719 L93.1294,16.1719 L88.5356,28.5 Z M90.8638,25 L97.3013,25 L97.3013,23.25 L90.8638,23.25 L90.8638,25 Z " fill="#000000"/><text fill="#808080" font-family="sans-serif" font-size="14" font-style="italic" lengthAdjust="spacing" textLength="79.1557" x="108.02" y="28.362">STATEMENT</text><line style="stroke:#808080;stroke-width:1;stroke-dasharray:1,3;" x1="80.02" x2="189.1757" y1="39" y2="39"/><line style="stroke:#808080;stroke-width:1;stroke-dasharray:1,3;" x1="80.02" x2="189.1757" y1="47" y2="47"/></g><!--reverse link STATEMENT to ASSIGNMENT--><g class="link" data-entity-1="STATEMENT" data-entity-2="ASSIGNMENT" data-source-line="10" data-uid="lnk4" id="link_STATEMENT_ASSIGNMENT"><path codeLine="10" d="M134.6,73.39 C134.6,90.09 134.6,94.98 134.6,114.58" fill="none" id="STATEMENT-backto-ASSIGNMENT" style="stroke:#181818;stroke-width:1;"/><polygon fill="none" points="134.6,55.39,128.6,73.39,140.6,73.39,134.6,55.39" style="stroke:#181818;stroke-width:1;"/></g></g></svg>
