<svg xmlns="http://www.w3.org/2000/svg" xmlns:xlink="http://www.w3.org/1999/xlink" contentStyleType="text/css" data-diagram-type="CLASS" height="203px" preserveAspectRatio="none" style="width:406px;height:203px;background:#FFFFFF;" version="1.1" viewBox="0 0 406 203" width="406px" zoomAndPan="magnify"><defs/><g><!--class AUTHORED_RESOURCE--><g class="entity" data-entity="AUTHORED_RESOURCE" data-source-line="2" data-uid="ent0002" id="entity_AUTHORED_RESOURCE"><rect fill="#F1F1F1" height="182.3994" rx="2.5" ry="2.5" style="stroke:#181818;stroke-width:0.5;" width="385.7706" x="7" y="7"/><ellipse cx="120.0636" cy="23" fill="#A9DCDF" rx="11" ry="11" style="stroke:#181818;stroke-width:1;"/><path d="M114.5792,28.5 L116.6105,28.5 L120.6573,17.1563 L119.7511,17.1563 L123.5792,28.5 L125.7198,28.5 L121.3917,16.1719 L119.173,16.1719 L114.5792,28.5 Z M116.9073,25 L123.3448,25 L123.3448,23.25 L116.9073,23.25 L116.9073,25 Z " fill="#000000"/><text fill="#000000" font-family="sans-serif" font-size="14" font-style="italic" lengthAdjust="spacing" textLength="151.1434" x="140.5636" y="28.362">AUTHORED_RESOURCE</text><line style="stroke:#181818;stroke-width:0.5;" x1="8" x2="391.7706" y1="39" y2="39"/><ellipse cx="18" cy="52.9" fill="none" rx="3" ry="3" style="stroke:#038048;stroke-width:1;"/><text fill="#000000" font-family="sans-serif" font-size="14" lengthAdjust="spacing" textLength="96.0256" x="27" y="56.7619">uid : UUID [0..1]</text><ellipse cx="18" cy="69.6999" fill="none" rx="3" ry="3" style="stroke:#038048;stroke-width:1;"/><text fill="#000000" font-family="sans-serif" font-size="14" lengthAdjust="spacing" textLength="255.653" x="27" y="73.5619">original_language : Terminology_code [1]</text><ellipse cx="18" cy="86.4998" fill="none" rx="3" ry="3" style="stroke:#038048;stroke-width:1;"/><text fill="#000000" font-family="sans-serif" font-size="14" lengthAdjust="spacing" textLength="279.7049" x="27" y="90.3618">description : RESOURCE_DESCRIPTION [0..1]</text><ellipse cx="18" cy="103.2997" fill="none" rx="3" ry="3" style="stroke:#038048;stroke-width:1;"/><text fill="#000000" font-family="sans-serif" font-size="14" lengthAdjust="spacing" textLength="176.1753" x="27" y="107.1617">is_controlled : Boolean [0..1]</text><ellipse cx="18" cy="120.0997" fill="none" rx="3" ry="3" style="stroke:#038048;stroke-width:1;"/><text fill="#000000" font-family="sans-serif" font-size="14" lengthAdjust="spacing" textLength="293.5368" x="27" y="123.9616">annotations : RESOURCE_ANNOTATIONS [0..1]</text><ellipse cx="18" cy="136.8996" fill="none" rx="3" ry="3" style="stroke:#038048;stroke-width:1;"/><text fill="#000000" font-family="sans-serif" font-size="14" lengthAdjust="spacing" textLength="359.7706" x="27" y="140.7616">translations : Hash&lt;String,TRANSLATION_DETAILS&gt; [0..1]</text><line style="stroke:#181818;stroke-width:0.5;" x1="8" x2="391.7706" y1="147.7996" y2="147.7996"/><ellipse cx="18" cy="161.6995" fill="#84BE84" rx="3" ry="3" style="stroke:#038048;stroke-width:1;"/><text fill="#000000" font-family="sans-serif" font-size="14" lengthAdjust="spacing" textLength="175.3493" x="27" y="165.5615">current_revision() : String [1]</text><ellipse cx="18" cy="178.4995" fill="#84BE84" rx="3" ry="3" style="stroke:#038048;stroke-width:1;"/><text fill="#000000" font-family="sans-serif" font-size="14" lengthAdjust="spacing" textLength="252.111" x="27" y="182.3614">languages_available() : List&lt;String&gt; [1..*]</text></g></g></svg>
