<svg xmlns="http://www.w3.org/2000/svg" xmlns:xlink="http://www.w3.org/1999/xlink" contentStyleType="text/css" data-diagram-type="CLASS" height="988px" preserveAspectRatio="none" style="width:381px;height:988px;background:#FFFFFF;" version="1.1" viewBox="0 0 381 988" width="381px" zoomAndPan="magnify"><defs/><g><!--class BMM_GENERIC_TYPE--><g class="entity" data-entity="BMM_GENERIC_TYPE" data-source-line="2" data-uid="ent0002" id="entity_BMM_GENERIC_TYPE"><rect fill="#F1F1F1" height="215.9993" rx="2.5" ry="2.5" style="stroke:#181818;stroke-width:0.5;" width="367.6546" x="7" y="765.4"/><ellipse cx="117.7466" cy="781.4" fill="#ADD1B2" rx="11" ry="11" style="stroke:#181818;stroke-width:1;"/><path d="M117.7466,787.8219 C118.9185,787.8219 120.1528,787.5563 121.5278,786.9469 L121.0435,785.4313 C119.9497,785.8531 118.9341,786.0406 118.0747,786.0406 C115.356,786.0406 113.6372,784.1969 113.6372,781.2906 C113.6372,778.5406 115.1997,776.9469 117.9341,776.9469 C118.856,776.9469 119.8716,777.1344 121.0122,777.5563 L121.5903,776.0406 C120.4966,775.4625 119.1997,775.1656 118.0122,775.1656 C114.2466,775.1656 111.6685,777.8063 111.6685,781.6188 C111.6685,785.2906 114.1528,787.8219 117.7466,787.8219 Z " fill="#000000"/><text fill="#000000" font-family="sans-serif" font-size="14" lengthAdjust="spacing" textLength="137.6614" x="138.2466" y="786.762">BMM_GENERIC_TYPE</text><line style="stroke:#181818;stroke-width:0.5;" x1="8" x2="373.6546" y1="797.4" y2="797.4"/><ellipse cx="18" cy="811.3" fill="none" rx="3" ry="3" style="stroke:#038048;stroke-width:1;"/><text fill="#000000" font-family="sans-serif" font-size="14" lengthAdjust="spacing" textLength="341.6546" x="27" y="815.1619">generic_parameters : List&lt;BMM_UNITARY_TYPE&gt; [1..*]</text><ellipse cx="18" cy="828.0999" fill="none" rx="3" ry="3" style="stroke:#038048;stroke-width:1;"/><text fill="#000000" font-family="sans-serif" font-size="14" lengthAdjust="spacing" textLength="240.715" x="27" y="831.9619">base_class : BMM_GENERIC_CLASS [1]</text><line style="stroke:#181818;stroke-width:0.5;" x1="8" x2="373.6546" y1="838.9999" y2="838.9999"/><ellipse cx="18" cy="852.8998" fill="#84BE84" rx="3" ry="3" style="stroke:#038048;stroke-width:1;"/><text fill="#000000" font-family="sans-serif" font-size="14" lengthAdjust="spacing" textLength="143.4715" x="27" y="856.7618">type_name() : String [1]</text><ellipse cx="18" cy="869.6997" fill="#84BE84" rx="3" ry="3" style="stroke:#038048;stroke-width:1;"/><text fill="#000000" font-family="sans-serif" font-size="14" lengthAdjust="spacing" textLength="167.1314" x="27" y="873.5617">type_signature() : String [1]</text><ellipse cx="18" cy="886.4997" fill="#84BE84" rx="3" ry="3" style="stroke:#038048;stroke-width:1;"/><text fill="#000000" font-family="sans-serif" font-size="14" lengthAdjust="spacing" textLength="155.7354" x="27" y="890.3616">is_abstract() : Boolean [1]</text><ellipse cx="18" cy="903.2996" fill="#84BE84" rx="3" ry="3" style="stroke:#038048;stroke-width:1;"/><text fill="#000000" font-family="sans-serif" font-size="14" lengthAdjust="spacing" textLength="243.1371" x="27" y="907.1616">flattened_type_list() : List&lt;String&gt; [1..*]</text><ellipse cx="18" cy="920.0995" fill="#84BE84" rx="3" ry="3" style="stroke:#038048;stroke-width:1;"/><text fill="#000000" font-family="sans-serif" font-size="14" lengthAdjust="spacing" textLength="182.4053" x="27" y="923.9615">subtypes() : List&lt;String&gt; [1..*]</text><ellipse cx="18" cy="936.8995" fill="#84BE84" rx="3" ry="3" style="stroke:#038048;stroke-width:1;"/><text fill="#000000" font-family="sans-serif" font-size="14" lengthAdjust="spacing" textLength="172.6053" x="27" y="940.7614">has_subtypes() : Boolean [1]</text><ellipse cx="18" cy="953.6994" fill="#84BE84" rx="3" ry="3" style="stroke:#038048;stroke-width:1;"/><text fill="#000000" font-family="sans-serif" font-size="14" lengthAdjust="spacing" textLength="202.8452" x="27" y="957.5614">is_partially_closed() : Boolean [1]</text><ellipse cx="18" cy="970.4993" fill="#84BE84" rx="3" ry="3" style="stroke:#038048;stroke-width:1;"/><text fill="#000000" font-family="sans-serif" font-size="14" lengthAdjust="spacing" textLength="309.5948" x="27" y="974.3613">effective_base_class() : BMM_GENERIC_CLASS [1]</text></g><!--class BMM_DEFINED_TYPE--><g class="entity" data-entity="BMM_DEFINED_TYPE" data-source-line="15" data-uid="ent0003" id="entity_BMM_DEFINED_TYPE"><rect fill="#F5F5F5" height="64.7999" rx="2.5" ry="2.5" style="stroke:#808080;stroke-width:1;stroke-dasharray:1,3;" width="201.4053" x="90.12" y="640.6"/><ellipse cx="119.3732" cy="656.6" fill="#A9DCDF" rx="11" ry="11" style="stroke:#181818;stroke-width:1;"/><path d="M113.8889,662.1 L115.9201,662.1 L119.967,650.7563 L119.0607,650.7563 L122.8889,662.1 L125.0295,662.1 L120.7014,649.7719 L118.4826,649.7719 L113.8889,662.1 Z M116.217,658.6 L122.6545,658.6 L122.6545,656.85 L116.217,656.85 L116.217,658.6 Z " fill="#000000"/><text fill="#808080" font-family="sans-serif" font-size="14" font-style="italic" lengthAdjust="spacing" textLength="137.7314" x="136.5406" y="661.962">BMM_DEFINED_TYPE</text><line style="stroke:#808080;stroke-width:1;stroke-dasharray:1,3;" x1="91.12" x2="290.5253" y1="672.6" y2="672.6"/><ellipse cx="101.12" cy="686.5" fill="none" rx="3" ry="3" style="stroke:#038048;stroke-width:1;"/><text fill="#808080" font-family="sans-serif" font-size="14" lengthAdjust="spacing" textLength="175.4053" x="110.12" y="690.3619">base_class : BMM_CLASS [1]</text><line style="stroke:#808080;stroke-width:1;stroke-dasharray:1,3;" x1="91.12" x2="290.5253" y1="697.3999" y2="697.3999"/></g><!--class BMM_UNITARY_TYPE--><g class="entity" data-entity="BMM_UNITARY_TYPE" data-source-line="19" data-uid="ent0004" id="entity_BMM_UNITARY_TYPE"><rect fill="#F5F5F5" height="48" rx="2.5" ry="2.5" style="stroke:#808080;stroke-width:1;stroke-dasharray:1,3;" width="168.4714" x="106.59" y="532.6"/><ellipse cx="121.59" cy="548.6" fill="#A9DCDF" rx="11" ry="11" style="stroke:#181818;stroke-width:1;"/><path d="M116.1056,554.1 L118.1369,554.1 L122.1838,542.7563 L121.2775,542.7563 L125.1056,554.1 L127.2463,554.1 L122.9181,541.7719 L120.6994,541.7719 L116.1056,554.1 Z M118.4338,550.6 L124.8713,550.6 L124.8713,548.85 L118.4338,548.85 L118.4338,550.6 Z " fill="#000000"/><text fill="#808080" font-family="sans-serif" font-size="14" font-style="italic" lengthAdjust="spacing" textLength="136.4714" x="135.59" y="553.962">BMM_UNITARY_TYPE</text><line style="stroke:#808080;stroke-width:1;stroke-dasharray:1,3;" x1="107.59" x2="274.0614" y1="564.6" y2="564.6"/><line style="stroke:#808080;stroke-width:1;stroke-dasharray:1,3;" x1="107.59" x2="274.0614" y1="572.6" y2="572.6"/></g><!--class BMM_TYPE--><g class="entity" data-entity="BMM_TYPE" data-source-line="22" data-uid="ent0005" id="entity_BMM_TYPE"><rect fill="#F5F5F5" height="182.3994" rx="2.5" ry="2.5" style="stroke:#808080;stroke-width:1;stroke-dasharray:1,3;" width="270.285" x="55.68" y="290.2"/><ellipse cx="150.3967" cy="306.2" fill="#A9DCDF" rx="11" ry="11" style="stroke:#181818;stroke-width:1;"/><path d="M144.9123,311.7 L146.9435,311.7 L150.9904,300.3562 L150.0842,300.3562 L153.9123,311.7 L156.0529,311.7 L151.7248,299.3719 L149.506,299.3719 L144.9123,311.7 Z M147.2404,308.2 L153.6779,308.2 L153.6779,306.45 L147.2404,306.45 L147.2404,308.2 Z " fill="#000000"/><text fill="#808080" font-family="sans-serif" font-size="14" font-style="italic" lengthAdjust="spacing" textLength="72.3517" x="170.8967" y="311.562">BMM_TYPE</text><line style="stroke:#808080;stroke-width:1;stroke-dasharray:1,3;" x1="56.68" x2="324.965" y1="322.2" y2="322.2"/><line style="stroke:#808080;stroke-width:1;stroke-dasharray:1,3;" x1="56.68" x2="324.965" y1="330.2" y2="330.2"/><ellipse cx="66.68" cy="344.1" fill="#84BE84" rx="3" ry="3" style="stroke:#038048;stroke-width:1;"/><text fill="#808080" font-family="sans-serif" font-size="14" font-style="italic" lengthAdjust="spacing" textLength="244.285" x="75.68" y="347.9619">effective_base_class() : BMM_CLASS [1]</text><ellipse cx="66.68" cy="360.8999" fill="#84BE84" rx="3" ry="3" style="stroke:#038048;stroke-width:1;"/><text fill="#808080" font-family="sans-serif" font-size="14" font-style="italic" lengthAdjust="spacing" textLength="143.4715" x="75.68" y="364.7619">type_name() : String [1]</text><ellipse cx="66.68" cy="377.6998" fill="#84BE84" rx="3" ry="3" style="stroke:#038048;stroke-width:1;"/><text fill="#808080" font-family="sans-serif" font-size="14" font-style="italic" lengthAdjust="spacing" textLength="172.6053" x="75.68" y="381.5618">has_subtypes() : Boolean [1]</text><ellipse cx="66.68" cy="394.4997" fill="#84BE84" rx="3" ry="3" style="stroke:#038048;stroke-width:1;"/><text fill="#808080" font-family="sans-serif" font-size="14" font-style="italic" lengthAdjust="spacing" textLength="182.4053" x="75.68" y="398.3617">subtypes() : List&lt;String&gt; [1..*]</text><ellipse cx="66.68" cy="411.2997" fill="#84BE84" rx="3" ry="3" style="stroke:#038048;stroke-width:1;"/><text fill="#808080" font-family="sans-serif" font-size="14" font-style="italic" lengthAdjust="spacing" textLength="243.1371" x="75.68" y="415.1616">flattened_type_list() : List&lt;String&gt; [1..*]</text><ellipse cx="66.68" cy="428.0996" fill="#84BE84" rx="3" ry="3" style="stroke:#038048;stroke-width:1;"/><text fill="#808080" font-family="sans-serif" font-size="14" lengthAdjust="spacing" textLength="167.1314" x="75.68" y="431.9616">type_signature() : String [1]</text><ellipse cx="66.68" cy="444.8995" fill="#84BE84" rx="3" ry="3" style="stroke:#038048;stroke-width:1;"/><text fill="#808080" font-family="sans-serif" font-size="14" lengthAdjust="spacing" textLength="160.1734" x="75.68" y="448.7615">is_primitive() : Boolean [1]</text><ellipse cx="66.68" cy="461.6995" fill="#84BE84" rx="3" ry="3" style="stroke:#038048;stroke-width:1;"/><text fill="#808080" font-family="sans-serif" font-size="14" lengthAdjust="spacing" textLength="176.1893" x="75.68" y="465.5614">entity_metatype() : String [1]</text></g><!--class BMM_ENTITY--><g class="entity" data-entity="BMM_ENTITY" data-source-line="33" data-uid="ent0006" id="entity_BMM_ENTITY"><rect fill="#F5F5F5" height="115.1997" rx="2.5" ry="2.5" style="stroke:#808080;stroke-width:1;stroke-dasharray:1,3;" width="202.1893" x="89.73" y="115"/><ellipse cx="143.4478" cy="131" fill="#A9DCDF" rx="11" ry="11" style="stroke:#181818;stroke-width:1;"/><path d="M137.9635,136.5 L139.9947,136.5 L144.0416,125.1563 L143.1353,125.1563 L146.9635,136.5 L149.1041,136.5 L144.776,124.1719 L142.5572,124.1719 L137.9635,136.5 Z M140.2916,133 L146.7291,133 L146.7291,131.25 L140.2916,131.25 L140.2916,133 Z " fill="#000000"/><text fill="#808080" font-family="sans-serif" font-size="14" font-style="italic" lengthAdjust="spacing" textLength="86.2536" x="163.9478" y="136.362">BMM_ENTITY</text><line style="stroke:#808080;stroke-width:1;stroke-dasharray:1,3;" x1="90.73" x2="290.9193" y1="147" y2="147"/><line style="stroke:#808080;stroke-width:1;stroke-dasharray:1,3;" x1="90.73" x2="290.9193" y1="155" y2="155"/><ellipse cx="100.73" cy="168.9" fill="#84BE84" rx="3" ry="3" style="stroke:#038048;stroke-width:1;"/><text fill="#808080" font-family="sans-serif" font-size="14" font-style="italic" lengthAdjust="spacing" textLength="171.0794" x="109.73" y="172.7619">entity_category() : String [1]</text><ellipse cx="100.73" cy="185.6999" fill="#84BE84" rx="3" ry="3" style="stroke:#038048;stroke-width:1;"/><text fill="#808080" font-family="sans-serif" font-size="14" font-style="italic" lengthAdjust="spacing" textLength="176.1893" x="109.73" y="189.5619">entity_metatype() : String [1]</text><ellipse cx="100.73" cy="202.4998" fill="#84BE84" rx="3" ry="3" style="stroke:#038048;stroke-width:1;"/><text fill="#808080" font-family="sans-serif" font-size="14" font-style="italic" lengthAdjust="spacing" textLength="155.7354" x="109.73" y="206.3618">is_abstract() : Boolean [1]</text><ellipse cx="100.73" cy="219.2997" fill="#84BE84" rx="3" ry="3" style="stroke:#038048;stroke-width:1;"/><text fill="#808080" font-family="sans-serif" font-size="14" font-style="italic" lengthAdjust="spacing" textLength="160.1734" x="109.73" y="223.1617">is_primitive() : Boolean [1]</text></g><!--class BMM_DEFINITIONS--><g class="entity" data-entity="BMM_DEFINITIONS" data-source-line="40" data-uid="ent0007" id="entity_BMM_DEFINITIONS"><rect fill="#F5F5F5" height="48" rx="2.5" ry="2.5" style="stroke:#808080;stroke-width:1;stroke-dasharray:1,3;" width="156.4035" x="112.63" y="7"/><ellipse cx="127.63" cy="23" fill="#ADD1B2" rx="11" ry="11" style="stroke:#181818;stroke-width:1;"/><path d="M127.63,29.4219 C128.8019,29.4219 130.0363,29.1563 131.4113,28.5469 L130.9269,27.0313 C129.8331,27.4531 128.8175,27.6406 127.9581,27.6406 C125.2394,27.6406 123.5206,25.7969 123.5206,22.8906 C123.5206,20.1406 125.0831,18.5469 127.8175,18.5469 C128.7394,18.5469 129.755,18.7344 130.8956,19.1563 L131.4738,17.6406 C130.38,17.0625 129.0831,16.7656 127.8956,16.7656 C124.13,16.7656 121.5519,19.4063 121.5519,23.2188 C121.5519,26.8906 124.0363,29.4219 127.63,29.4219 Z " fill="#000000"/><text fill="#808080" font-family="sans-serif" font-size="14" lengthAdjust="spacing" textLength="124.4035" x="141.63" y="28.362">BMM_DEFINITIONS</text><line style="stroke:#808080;stroke-width:1;stroke-dasharray:1,3;" x1="113.63" x2="268.0335" y1="39" y2="39"/><line style="stroke:#808080;stroke-width:1;stroke-dasharray:1,3;" x1="113.63" x2="268.0335" y1="47" y2="47"/></g><!--reverse link BMM_DEFINITIONS to BMM_ENTITY--><g class="link" data-entity-1="BMM_DEFINITIONS" data-entity-2="BMM_ENTITY" data-source-line="43" data-uid="lnk8" id="link_BMM_DEFINITIONS_BMM_ENTITY"><path codeLine="43" d="M190.83,73.37 C190.83,89.59 190.83,93.94 190.83,114.7" fill="none" id="BMM_DEFINITIONS-backto-BMM_ENTITY" style="stroke:#181818;stroke-width:1;"/><polygon fill="none" points="190.83,55.37,184.83,73.37,196.83,73.37,190.83,55.37" style="stroke:#181818;stroke-width:1;"/></g><!--reverse link BMM_ENTITY to BMM_TYPE--><g class="link" data-entity-1="BMM_ENTITY" data-entity-2="BMM_TYPE" data-source-line="45" data-uid="lnk9" id="link_BMM_ENTITY_BMM_TYPE"><path codeLine="45" d="M190.83,248.66 C190.83,266.95 190.83,269.68 190.83,289.76" fill="none" id="BMM_ENTITY-backto-BMM_TYPE" style="stroke:#181818;stroke-width:1;"/><polygon fill="none" points="190.83,230.66,184.83,248.66,196.83,248.66,190.83,230.66" style="stroke:#181818;stroke-width:1;"/></g><!--reverse link BMM_TYPE to BMM_UNITARY_TYPE--><g class="link" data-entity-1="BMM_TYPE" data-entity-2="BMM_UNITARY_TYPE" data-source-line="47" data-uid="lnk10" id="link_BMM_TYPE_BMM_UNITARY_TYPE"><path codeLine="47" d="M190.83,491.06 C190.83,512.99 190.83,516.58 190.83,532.17" fill="none" id="BMM_TYPE-backto-BMM_UNITARY_TYPE" style="stroke:#181818;stroke-width:1;"/><polygon fill="none" points="190.83,473.06,184.83,491.06,196.83,491.06,190.83,473.06" style="stroke:#181818;stroke-width:1;"/></g><!--reverse link BMM_UNITARY_TYPE to BMM_DEFINED_TYPE--><g class="link" data-entity-1="BMM_UNITARY_TYPE" data-entity-2="BMM_DEFINED_TYPE" data-source-line="49" data-uid="lnk11" id="link_BMM_UNITARY_TYPE_BMM_DEFINED_TYPE"><path codeLine="49" d="M190.83,599.03 C190.83,616.15 190.83,621.57 190.83,640.36" fill="none" id="BMM_UNITARY_TYPE-backto-BMM_DEFINED_TYPE" style="stroke:#181818;stroke-width:1;"/><polygon fill="none" points="190.83,581.03,184.83,599.03,196.83,599.03,190.83,581.03" style="stroke:#181818;stroke-width:1;"/></g><!--reverse link BMM_DEFINED_TYPE to BMM_GENERIC_TYPE--><g class="link" data-entity-1="BMM_DEFINED_TYPE" data-entity-2="BMM_GENERIC_TYPE" data-source-line="51" data-uid="lnk12" id="link_BMM_DEFINED_TYPE_BMM_GENERIC_TYPE"><path codeLine="51" d="M190.83,723.88 C190.83,740.31 190.83,743.4 190.83,765.02" fill="none" id="BMM_DEFINED_TYPE-backto-BMM_GENERIC_TYPE" style="stroke:#181818;stroke-width:1;"/><polygon fill="none" points="190.83,705.88,184.83,723.88,196.83,723.88,190.83,705.88" style="stroke:#181818;stroke-width:1;"/></g></g></svg>
