<svg xmlns="http://www.w3.org/2000/svg" xmlns:xlink="http://www.w3.org/1999/xlink" contentStyleType="text/css" data-diagram-type="CLASS" height="186px" preserveAspectRatio="none" style="width:216px;height:186px;background:#FFFFFF;" version="1.1" viewBox="0 0 216 186" width="216px" zoomAndPan="magnify"><defs/><g><!--class BMM_MODEL_ELEMENT--><g class="entity" data-entity="BMM_MODEL_ELEMENT" data-source-line="2" data-uid="ent0002" id="entity_BMM_MODEL_ELEMENT"><rect fill="#F1F1F1" height="64.7999" rx="2.5" ry="2.5" style="stroke:#181818;stroke-width:0.5;" width="202.3433" x="7" y="115"/><ellipse cx="28.0885" cy="131" fill="#A9DCDF" rx="11" ry="11" style="stroke:#181818;stroke-width:1;"/><path d="M22.6041,136.5 L24.6354,136.5 L28.6822,125.1563 L27.776,125.1563 L31.6041,136.5 L33.7447,136.5 L29.4166,124.1719 L27.1979,124.1719 L22.6041,136.5 Z M24.9322,133 L31.3697,133 L31.3697,131.25 L24.9322,131.25 L24.9322,133 Z " fill="#000000"/><text fill="#000000" font-family="sans-serif" font-size="14" font-style="italic" lengthAdjust="spacing" textLength="156.8134" x="43.4415" y="136.362">BMM_MODEL_ELEMENT</text><line style="stroke:#181818;stroke-width:0.5;" x1="8" x2="208.3433" y1="147" y2="147"/><ellipse cx="18" cy="160.9" fill="none" rx="3" ry="3" style="stroke:#038048;stroke-width:1;"/><text fill="#000000" font-family="sans-serif" font-size="14" lengthAdjust="spacing" textLength="176.3433" x="27" y="164.7619">documentation : String [0..1]</text><line style="stroke:#181818;stroke-width:0.5;" x1="8" x2="208.3433" y1="171.7999" y2="171.7999"/></g><!--class BMM_DEFINITIONS--><g class="entity" data-entity="BMM_DEFINITIONS" data-source-line="6" data-uid="ent0003" id="entity_BMM_DEFINITIONS"><rect fill="#F5F5F5" height="48" rx="2.5" ry="2.5" style="stroke:#808080;stroke-width:1;stroke-dasharray:1,3;" width="156.4035" x="29.97" y="7"/><ellipse cx="44.97" cy="23" fill="#ADD1B2" rx="11" ry="11" style="stroke:#181818;stroke-width:1;"/><path d="M44.97,29.4219 C46.1419,29.4219 47.3763,29.1563 48.7513,28.5469 L48.2669,27.0313 C47.1731,27.4531 46.1575,27.6406 45.2981,27.6406 C42.5794,27.6406 40.8606,25.7969 40.8606,22.8906 C40.8606,20.1406 42.4231,18.5469 45.1575,18.5469 C46.0794,18.5469 47.095,18.7344 48.2356,19.1563 L48.8138,17.6406 C47.72,17.0625 46.4231,16.7656 45.2356,16.7656 C41.47,16.7656 38.8919,19.4063 38.8919,23.2188 C38.8919,26.8906 41.3763,29.4219 44.97,29.4219 Z " fill="#000000"/><text fill="#808080" font-family="sans-serif" font-size="14" lengthAdjust="spacing" textLength="124.4035" x="58.97" y="28.362">BMM_DEFINITIONS</text><line style="stroke:#808080;stroke-width:1;stroke-dasharray:1,3;" x1="30.97" x2="185.3735" y1="39" y2="39"/><line style="stroke:#808080;stroke-width:1;stroke-dasharray:1,3;" x1="30.97" x2="185.3735" y1="47" y2="47"/></g><!--reverse link BMM_DEFINITIONS to BMM_MODEL_ELEMENT--><g class="link" data-entity-1="BMM_DEFINITIONS" data-entity-2="BMM_MODEL_ELEMENT" data-source-line="9" data-uid="lnk4" id="link_BMM_DEFINITIONS_BMM_MODEL_ELEMENT"><path codeLine="9" d="M108.17,73.43 C108.17,90.55 108.17,95.97 108.17,114.76" fill="none" id="BMM_DEFINITIONS-backto-BMM_MODEL_ELEMENT" style="stroke:#181818;stroke-width:1;"/><polygon fill="none" points="108.17,55.43,102.17,73.43,114.17,73.43,108.17,55.43" style="stroke:#181818;stroke-width:1;"/></g></g></svg>
