<svg xmlns="http://www.w3.org/2000/svg" xmlns:xlink="http://www.w3.org/1999/xlink" contentStyleType="text/css" data-diagram-type="CLASS" height="361px" preserveAspectRatio="none" style="width:414px;height:361px;background:#FFFFFF;" version="1.1" viewBox="0 0 414 361" width="414px" zoomAndPan="magnify"><defs/><g><!--class BMM_PACKAGE_CONTAINER--><g class="entity" data-entity="BMM_PACKAGE_CONTAINER" data-source-line="2" data-uid="ent0002" id="entity_BMM_PACKAGE_CONTAINER"><rect fill="#F1F1F1" height="115.1997" rx="2.5" ry="2.5" style="stroke:#181818;stroke-width:0.5;" width="400.1766" x="7" y="239.8"/><ellipse cx="109.6687" cy="255.8" fill="#ADD1B2" rx="11" ry="11" style="stroke:#181818;stroke-width:1;"/><path d="M109.6687,262.2219 C110.8405,262.2219 112.0749,261.9563 113.4499,261.3469 L112.9655,259.8313 C111.8718,260.2531 110.8562,260.4406 109.9968,260.4406 C107.278,260.4406 105.5593,258.5969 105.5593,255.6906 C105.5593,252.9406 107.1218,251.3469 109.8562,251.3469 C110.778,251.3469 111.7937,251.5344 112.9343,251.9563 L113.5124,250.4406 C112.4187,249.8625 111.1218,249.5656 109.9343,249.5656 C106.1687,249.5656 103.5905,252.2063 103.5905,256.0188 C103.5905,259.6906 106.0749,262.2219 109.6687,262.2219 Z " fill="#000000"/><text fill="#000000" font-family="sans-serif" font-size="14" lengthAdjust="spacing" textLength="186.3392" x="130.1687" y="261.162">BMM_PACKAGE_CONTAINER</text><line style="stroke:#181818;stroke-width:0.5;" x1="8" x2="406.1766" y1="271.8" y2="271.8"/><ellipse cx="18" cy="285.7" fill="none" rx="3" ry="3" style="stroke:#038048;stroke-width:1;"/><text fill="#000000" font-family="sans-serif" font-size="14" lengthAdjust="spacing" textLength="292.3608" x="27" y="289.5619">packages : Hash&lt;String,BMM_PACKAGE&gt; [0..1]</text><line style="stroke:#181818;stroke-width:0.5;" x1="8" x2="406.1766" y1="296.5999" y2="296.5999"/><ellipse cx="18" cy="310.4999" fill="#84BE84" rx="3" ry="3" style="stroke:#038048;stroke-width:1;"/><text fill="#000000" font-family="sans-serif" font-size="14" lengthAdjust="spacing" textLength="374.1766" x="27" y="314.3619">package_at_path( a_path : String [1] ) : BMM_PACKAGE [0..1]</text><ellipse cx="18" cy="327.2998" fill="#84BE84" rx="3" ry="3" style="stroke:#038048;stroke-width:1;"/><text fill="#000000" font-family="sans-serif" font-size="14" lengthAdjust="spacing" textLength="360.8066" x="27" y="331.1618">do_recursive_packages( action : PROCEDURE [1] ) : void [1]</text><ellipse cx="18" cy="344.0997" fill="#84BE84" rx="3" ry="3" style="stroke:#038048;stroke-width:1;"/><text fill="#000000" font-family="sans-serif" font-size="14" lengthAdjust="spacing" textLength="317.4908" x="27" y="347.9617">has_package_path( a_path : String [1] ) : Boolean [1]</text></g><!--class BMM_MODEL_ELEMENT--><g class="entity" data-entity="BMM_MODEL_ELEMENT" data-source-line="9" data-uid="ent0003" id="entity_BMM_MODEL_ELEMENT"><rect fill="#F5F5F5" height="64.7999" rx="2.5" ry="2.5" style="stroke:#808080;stroke-width:1;stroke-dasharray:1,3;" width="202.3433" x="105.92" y="115"/><ellipse cx="127.0085" cy="131" fill="#A9DCDF" rx="11" ry="11" style="stroke:#181818;stroke-width:1;"/><path d="M121.5241,136.5 L123.5554,136.5 L127.6022,125.1563 L126.696,125.1563 L130.5241,136.5 L132.6647,136.5 L128.3366,124.1719 L126.1179,124.1719 L121.5241,136.5 Z M123.8522,133 L130.2897,133 L130.2897,131.25 L123.8522,131.25 L123.8522,133 Z " fill="#000000"/><text fill="#808080" font-family="sans-serif" font-size="14" font-style="italic" lengthAdjust="spacing" textLength="156.8134" x="142.3615" y="136.362">BMM_MODEL_ELEMENT</text><line style="stroke:#808080;stroke-width:1;stroke-dasharray:1,3;" x1="106.92" x2="307.2633" y1="147" y2="147"/><ellipse cx="116.92" cy="160.9" fill="none" rx="3" ry="3" style="stroke:#038048;stroke-width:1;"/><text fill="#808080" font-family="sans-serif" font-size="14" lengthAdjust="spacing" textLength="176.3433" x="125.92" y="164.7619">documentation : String [0..1]</text><line style="stroke:#808080;stroke-width:1;stroke-dasharray:1,3;" x1="106.92" x2="307.2633" y1="171.7999" y2="171.7999"/></g><!--class BMM_DEFINITIONS--><g class="entity" data-entity="BMM_DEFINITIONS" data-source-line="13" data-uid="ent0004" id="entity_BMM_DEFINITIONS"><rect fill="#F5F5F5" height="48" rx="2.5" ry="2.5" style="stroke:#808080;stroke-width:1;stroke-dasharray:1,3;" width="156.4035" x="128.89" y="7"/><ellipse cx="143.89" cy="23" fill="#ADD1B2" rx="11" ry="11" style="stroke:#181818;stroke-width:1;"/><path d="M143.89,29.4219 C145.0619,29.4219 146.2963,29.1563 147.6713,28.5469 L147.1869,27.0313 C146.0931,27.4531 145.0775,27.6406 144.2181,27.6406 C141.4994,27.6406 139.7806,25.7969 139.7806,22.8906 C139.7806,20.1406 141.3431,18.5469 144.0775,18.5469 C144.9994,18.5469 146.015,18.7344 147.1556,19.1563 L147.7338,17.6406 C146.64,17.0625 145.3431,16.7656 144.1556,16.7656 C140.39,16.7656 137.8119,19.4063 137.8119,23.2188 C137.8119,26.8906 140.2963,29.4219 143.89,29.4219 Z " fill="#000000"/><text fill="#808080" font-family="sans-serif" font-size="14" lengthAdjust="spacing" textLength="124.4035" x="157.89" y="28.362">BMM_DEFINITIONS</text><line style="stroke:#808080;stroke-width:1;stroke-dasharray:1,3;" x1="129.89" x2="284.2935" y1="39" y2="39"/><line style="stroke:#808080;stroke-width:1;stroke-dasharray:1,3;" x1="129.89" x2="284.2935" y1="47" y2="47"/></g><!--reverse link BMM_DEFINITIONS to BMM_MODEL_ELEMENT--><g class="link" data-entity-1="BMM_DEFINITIONS" data-entity-2="BMM_MODEL_ELEMENT" data-source-line="16" data-uid="lnk5" id="link_BMM_DEFINITIONS_BMM_MODEL_ELEMENT"><path codeLine="16" d="M207.09,73.43 C207.09,90.55 207.09,95.97 207.09,114.76" fill="none" id="BMM_DEFINITIONS-backto-BMM_MODEL_ELEMENT" style="stroke:#181818;stroke-width:1;"/><polygon fill="none" points="207.09,55.43,201.09,73.43,213.09,73.43,207.09,55.43" style="stroke:#181818;stroke-width:1;"/></g><!--reverse link BMM_MODEL_ELEMENT to BMM_PACKAGE_CONTAINER--><g class="link" data-entity-1="BMM_MODEL_ELEMENT" data-entity-2="BMM_PACKAGE_CONTAINER" data-source-line="18" data-uid="lnk6" id="link_BMM_MODEL_ELEMENT_BMM_PACKAGE_CONTAINER"><path codeLine="18" d="M207.09,198.15 C207.09,215.39 207.09,219.24 207.09,239.32" fill="none" id="BMM_MODEL_ELEMENT-backto-BMM_PACKAGE_CONTAINER" style="stroke:#181818;stroke-width:1;"/><polygon fill="none" points="207.09,180.15,201.09,198.15,213.09,198.15,207.09,180.15" style="stroke:#181818;stroke-width:1;"/></g></g></svg>
