<svg xmlns="http://www.w3.org/2000/svg" xmlns:xlink="http://www.w3.org/1999/xlink" contentStyleType="text/css" data-diagram-type="CLASS" height="863px" preserveAspectRatio="none" style="width:310px;height:863px;background:#FFFFFF;" version="1.1" viewBox="0 0 310 863" width="310px" zoomAndPan="magnify"><defs/><g><!--class BMM_INDEXED_CONTAINER_TYPE--><g class="entity" data-entity="BMM_INDEXED_CONTAINER_TYPE" data-source-line="2" data-uid="ent0002" id="entity_BMM_INDEXED_CONTAINER_TYPE"><rect fill="#F1F1F1" height="64.7999" rx="2.5" ry="2.5" style="stroke:#181818;stroke-width:0.5;" width="255.1451" x="27.61" y="791.8"/><ellipse cx="42.61" cy="807.8" fill="#ADD1B2" rx="11" ry="11" style="stroke:#181818;stroke-width:1;"/><path d="M42.61,814.2219 C43.7819,814.2219 45.0163,813.9563 46.3913,813.3469 L45.9069,811.8313 C44.8131,812.2531 43.7975,812.4406 42.9381,812.4406 C40.2194,812.4406 38.5006,810.5969 38.5006,807.6906 C38.5006,804.9406 40.0631,803.3469 42.7975,803.3469 C43.7194,803.3469 44.735,803.5344 45.8756,803.9563 L46.4538,802.4406 C45.36,801.8625 44.0631,801.5656 42.8756,801.5656 C39.11,801.5656 36.5319,804.2063 36.5319,808.0188 C36.5319,811.6906 39.0163,814.2219 42.61,814.2219 Z " fill="#000000"/><text fill="#000000" font-family="sans-serif" font-size="14" lengthAdjust="spacing" textLength="223.1451" x="56.61" y="813.162">BMM_INDEXED_CONTAINER_TYPE</text><line style="stroke:#181818;stroke-width:0.5;" x1="28.61" x2="281.7551" y1="823.8" y2="823.8"/><ellipse cx="38.61" cy="837.7" fill="none" rx="3" ry="3" style="stroke:#038048;stroke-width:1;"/><text fill="#000000" font-family="sans-serif" font-size="14" lengthAdjust="spacing" textLength="222.4031" x="47.61" y="841.5619">index_type : BMM_SIMPLE_TYPE [1]</text><line style="stroke:#181818;stroke-width:0.5;" x1="28.61" x2="281.7551" y1="848.5999" y2="848.5999"/></g><!--class BMM_CONTAINER_TYPE--><g class="entity" data-entity="BMM_CONTAINER_TYPE" data-source-line="6" data-uid="ent0003" id="entity_BMM_CONTAINER_TYPE"><rect fill="#F5F5F5" height="199.1993" rx="2.5" ry="2.5" style="stroke:#808080;stroke-width:1;stroke-dasharray:1,3;" width="296.3669" x="7" y="532.6"/><ellipse cx="72.2818" cy="548.6" fill="#ADD1B2" rx="11" ry="11" style="stroke:#181818;stroke-width:1;"/><path d="M72.2818,555.0219 C73.4537,555.0219 74.688,554.7563 76.063,554.1469 L75.5787,552.6313 C74.4849,553.0531 73.4693,553.2406 72.6099,553.2406 C69.8912,553.2406 68.1724,551.3969 68.1724,548.4906 C68.1724,545.7406 69.7349,544.1469 72.4693,544.1469 C73.3912,544.1469 74.4068,544.3344 75.5474,544.7563 L76.1255,543.2406 C75.0318,542.6625 73.7349,542.3656 72.5474,542.3656 C68.7818,542.3656 66.2037,545.0063 66.2037,548.8188 C66.2037,552.4906 68.688,555.0219 72.2818,555.0219 Z " fill="#000000"/><text fill="#808080" font-family="sans-serif" font-size="14" lengthAdjust="spacing" textLength="157.3033" x="92.7818" y="553.962">BMM_CONTAINER_TYPE</text><line style="stroke:#808080;stroke-width:1;stroke-dasharray:1,3;" x1="8" x2="302.3669" y1="564.6" y2="564.6"/><ellipse cx="18" cy="578.5" fill="none" rx="3" ry="3" style="stroke:#038048;stroke-width:1;"/><text fill="#808080" font-family="sans-serif" font-size="14" lengthAdjust="spacing" textLength="270.3669" x="27" y="582.3619">container_class : BMM_GENERIC_CLASS [1]</text><ellipse cx="18" cy="595.2999" fill="none" rx="3" ry="3" style="stroke:#038048;stroke-width:1;"/><text fill="#808080" font-family="sans-serif" font-size="14" lengthAdjust="spacing" textLength="228.2131" x="27" y="599.1619">base_type : BMM_UNITARY_TYPE [1]</text><line style="stroke:#808080;stroke-width:1;stroke-dasharray:1,3;" x1="8" x2="302.3669" y1="606.1999" y2="606.1999"/><ellipse cx="18" cy="620.0998" fill="#84BE84" rx="3" ry="3" style="stroke:#038048;stroke-width:1;"/><text fill="#808080" font-family="sans-serif" font-size="14" lengthAdjust="spacing" textLength="143.4715" x="27" y="623.9618">type_name() : String [1]</text><ellipse cx="18" cy="636.8997" fill="#84BE84" rx="3" ry="3" style="stroke:#038048;stroke-width:1;"/><text fill="#808080" font-family="sans-serif" font-size="14" lengthAdjust="spacing" textLength="244.285" x="27" y="640.7617">effective_base_class() : BMM_CLASS [1]</text><ellipse cx="18" cy="653.6997" fill="#84BE84" rx="3" ry="3" style="stroke:#038048;stroke-width:1;"/><text fill="#808080" font-family="sans-serif" font-size="14" lengthAdjust="spacing" textLength="155.7354" x="27" y="657.5616">is_abstract() : Boolean [1]</text><ellipse cx="18" cy="670.4996" fill="#84BE84" rx="3" ry="3" style="stroke:#038048;stroke-width:1;"/><text fill="#808080" font-family="sans-serif" font-size="14" lengthAdjust="spacing" textLength="176.1893" x="27" y="674.3616">entity_metatype() : String [1]</text><ellipse cx="18" cy="687.2995" fill="#84BE84" rx="3" ry="3" style="stroke:#038048;stroke-width:1;"/><text fill="#808080" font-family="sans-serif" font-size="14" lengthAdjust="spacing" textLength="243.1371" x="27" y="691.1615">flattened_type_list() : List&lt;String&gt; [1..*]</text><ellipse cx="18" cy="704.0995" fill="#84BE84" rx="3" ry="3" style="stroke:#038048;stroke-width:1;"/><text fill="#808080" font-family="sans-serif" font-size="14" lengthAdjust="spacing" textLength="182.4053" x="27" y="707.9614">subtypes() : List&lt;String&gt; [1..*]</text><ellipse cx="18" cy="720.8994" fill="#84BE84" rx="3" ry="3" style="stroke:#038048;stroke-width:1;"/><text fill="#808080" font-family="sans-serif" font-size="14" lengthAdjust="spacing" textLength="172.6053" x="27" y="724.7614">has_subtypes() : Boolean [1]</text></g><!--class BMM_TYPE--><g class="entity" data-entity="BMM_TYPE" data-source-line="18" data-uid="ent0004" id="entity_BMM_TYPE"><rect fill="#F5F5F5" height="182.3994" rx="2.5" ry="2.5" style="stroke:#808080;stroke-width:1;stroke-dasharray:1,3;" width="270.285" x="20.04" y="290.2"/><ellipse cx="114.7567" cy="306.2" fill="#A9DCDF" rx="11" ry="11" style="stroke:#181818;stroke-width:1;"/><path d="M109.2723,311.7 L111.3035,311.7 L115.3504,300.3563 L114.4442,300.3563 L118.2723,311.7 L120.4129,311.7 L116.0848,299.3719 L113.866,299.3719 L109.2723,311.7 Z M111.6004,308.2 L118.0379,308.2 L118.0379,306.45 L111.6004,306.45 L111.6004,308.2 Z " fill="#000000"/><text fill="#808080" font-family="sans-serif" font-size="14" font-style="italic" lengthAdjust="spacing" textLength="72.3517" x="135.2567" y="311.562">BMM_TYPE</text><line style="stroke:#808080;stroke-width:1;stroke-dasharray:1,3;" x1="21.04" x2="289.325" y1="322.2" y2="322.2"/><line style="stroke:#808080;stroke-width:1;stroke-dasharray:1,3;" x1="21.04" x2="289.325" y1="330.2" y2="330.2"/><ellipse cx="31.04" cy="344.1" fill="#84BE84" rx="3" ry="3" style="stroke:#038048;stroke-width:1;"/><text fill="#808080" font-family="sans-serif" font-size="14" font-style="italic" lengthAdjust="spacing" textLength="244.285" x="40.04" y="347.9619">effective_base_class() : BMM_CLASS [1]</text><ellipse cx="31.04" cy="360.8999" fill="#84BE84" rx="3" ry="3" style="stroke:#038048;stroke-width:1;"/><text fill="#808080" font-family="sans-serif" font-size="14" font-style="italic" lengthAdjust="spacing" textLength="143.4715" x="40.04" y="364.7619">type_name() : String [1]</text><ellipse cx="31.04" cy="377.6998" fill="#84BE84" rx="3" ry="3" style="stroke:#038048;stroke-width:1;"/><text fill="#808080" font-family="sans-serif" font-size="14" font-style="italic" lengthAdjust="spacing" textLength="172.6053" x="40.04" y="381.5618">has_subtypes() : Boolean [1]</text><ellipse cx="31.04" cy="394.4997" fill="#84BE84" rx="3" ry="3" style="stroke:#038048;stroke-width:1;"/><text fill="#808080" font-family="sans-serif" font-size="14" font-style="italic" lengthAdjust="spacing" textLength="182.4053" x="40.04" y="398.3617">subtypes() : List&lt;String&gt; [1..*]</text><ellipse cx="31.04" cy="411.2997" fill="#84BE84" rx="3" ry="3" style="stroke:#038048;stroke-width:1;"/><text fill="#808080" font-family="sans-serif" font-size="14" font-style="italic" lengthAdjust="spacing" textLength="243.1371" x="40.04" y="415.1616">flattened_type_list() : List&lt;String&gt; [1..*]</text><ellipse cx="31.04" cy="428.0996" fill="#84BE84" rx="3" ry="3" style="stroke:#038048;stroke-width:1;"/><text fill="#808080" font-family="sans-serif" font-size="14" lengthAdjust="spacing" textLength="167.1314" x="40.04" y="431.9616">type_signature() : String [1]</text><ellipse cx="31.04" cy="444.8995" fill="#84BE84" rx="3" ry="3" style="stroke:#038048;stroke-width:1;"/><text fill="#808080" font-family="sans-serif" font-size="14" lengthAdjust="spacing" textLength="160.1734" x="40.04" y="448.7615">is_primitive() : Boolean [1]</text><ellipse cx="31.04" cy="461.6995" fill="#84BE84" rx="3" ry="3" style="stroke:#038048;stroke-width:1;"/><text fill="#808080" font-family="sans-serif" font-size="14" lengthAdjust="spacing" textLength="176.1893" x="40.04" y="465.5614">entity_metatype() : String [1]</text></g><!--class BMM_ENTITY--><g class="entity" data-entity="BMM_ENTITY" data-source-line="29" data-uid="ent0005" id="entity_BMM_ENTITY"><rect fill="#F5F5F5" height="115.1997" rx="2.5" ry="2.5" style="stroke:#808080;stroke-width:1;stroke-dasharray:1,3;" width="202.1893" x="54.09" y="115"/><ellipse cx="107.8078" cy="131" fill="#A9DCDF" rx="11" ry="11" style="stroke:#181818;stroke-width:1;"/><path d="M102.3235,136.5 L104.3547,136.5 L108.4016,125.1563 L107.4953,125.1563 L111.3235,136.5 L113.4641,136.5 L109.136,124.1719 L106.9172,124.1719 L102.3235,136.5 Z M104.6516,133 L111.0891,133 L111.0891,131.25 L104.6516,131.25 L104.6516,133 Z " fill="#000000"/><text fill="#808080" font-family="sans-serif" font-size="14" font-style="italic" lengthAdjust="spacing" textLength="86.2536" x="128.3078" y="136.362">BMM_ENTITY</text><line style="stroke:#808080;stroke-width:1;stroke-dasharray:1,3;" x1="55.09" x2="255.2793" y1="147" y2="147"/><line style="stroke:#808080;stroke-width:1;stroke-dasharray:1,3;" x1="55.09" x2="255.2793" y1="155" y2="155"/><ellipse cx="65.09" cy="168.9" fill="#84BE84" rx="3" ry="3" style="stroke:#038048;stroke-width:1;"/><text fill="#808080" font-family="sans-serif" font-size="14" font-style="italic" lengthAdjust="spacing" textLength="171.0794" x="74.09" y="172.7619">entity_category() : String [1]</text><ellipse cx="65.09" cy="185.6999" fill="#84BE84" rx="3" ry="3" style="stroke:#038048;stroke-width:1;"/><text fill="#808080" font-family="sans-serif" font-size="14" font-style="italic" lengthAdjust="spacing" textLength="176.1893" x="74.09" y="189.5619">entity_metatype() : String [1]</text><ellipse cx="65.09" cy="202.4998" fill="#84BE84" rx="3" ry="3" style="stroke:#038048;stroke-width:1;"/><text fill="#808080" font-family="sans-serif" font-size="14" font-style="italic" lengthAdjust="spacing" textLength="155.7354" x="74.09" y="206.3618">is_abstract() : Boolean [1]</text><ellipse cx="65.09" cy="219.2997" fill="#84BE84" rx="3" ry="3" style="stroke:#038048;stroke-width:1;"/><text fill="#808080" font-family="sans-serif" font-size="14" font-style="italic" lengthAdjust="spacing" textLength="160.1734" x="74.09" y="223.1617">is_primitive() : Boolean [1]</text></g><!--class BMM_DEFINITIONS--><g class="entity" data-entity="BMM_DEFINITIONS" data-source-line="36" data-uid="ent0006" id="entity_BMM_DEFINITIONS"><rect fill="#F5F5F5" height="48" rx="2.5" ry="2.5" style="stroke:#808080;stroke-width:1;stroke-dasharray:1,3;" width="156.4035" x="76.98" y="7"/><ellipse cx="91.98" cy="23" fill="#ADD1B2" rx="11" ry="11" style="stroke:#181818;stroke-width:1;"/><path d="M91.98,29.4219 C93.1519,29.4219 94.3863,29.1563 95.7613,28.5469 L95.2769,27.0313 C94.1831,27.4531 93.1675,27.6406 92.3081,27.6406 C89.5894,27.6406 87.8706,25.7969 87.8706,22.8906 C87.8706,20.1406 89.4331,18.5469 92.1675,18.5469 C93.0894,18.5469 94.105,18.7344 95.2456,19.1563 L95.8238,17.6406 C94.73,17.0625 93.4331,16.7656 92.2456,16.7656 C88.48,16.7656 85.9019,19.4063 85.9019,23.2188 C85.9019,26.8906 88.3863,29.4219 91.98,29.4219 Z " fill="#000000"/><text fill="#808080" font-family="sans-serif" font-size="14" lengthAdjust="spacing" textLength="124.4035" x="105.98" y="28.362">BMM_DEFINITIONS</text><line style="stroke:#808080;stroke-width:1;stroke-dasharray:1,3;" x1="77.98" x2="232.3835" y1="39" y2="39"/><line style="stroke:#808080;stroke-width:1;stroke-dasharray:1,3;" x1="77.98" x2="232.3835" y1="47" y2="47"/></g><!--reverse link BMM_DEFINITIONS to BMM_ENTITY--><g class="link" data-entity-1="BMM_DEFINITIONS" data-entity-2="BMM_ENTITY" data-source-line="39" data-uid="lnk7" id="link_BMM_DEFINITIONS_BMM_ENTITY"><path codeLine="39" d="M155.18,73.37 C155.18,89.59 155.18,93.94 155.18,114.7" fill="none" id="BMM_DEFINITIONS-backto-BMM_ENTITY" style="stroke:#181818;stroke-width:1;"/><polygon fill="none" points="155.18,55.37,149.18,73.37,161.18,73.37,155.18,55.37" style="stroke:#181818;stroke-width:1;"/></g><!--reverse link BMM_ENTITY to BMM_TYPE--><g class="link" data-entity-1="BMM_ENTITY" data-entity-2="BMM_TYPE" data-source-line="41" data-uid="lnk8" id="link_BMM_ENTITY_BMM_TYPE"><path codeLine="41" d="M155.18,248.66 C155.18,266.95 155.18,269.68 155.18,289.76" fill="none" id="BMM_ENTITY-backto-BMM_TYPE" style="stroke:#181818;stroke-width:1;"/><polygon fill="none" points="155.18,230.66,149.18,248.66,161.18,248.66,155.18,230.66" style="stroke:#181818;stroke-width:1;"/></g><!--reverse link BMM_TYPE to BMM_CONTAINER_TYPE--><g class="link" data-entity-1="BMM_TYPE" data-entity-2="BMM_CONTAINER_TYPE" data-source-line="43" data-uid="lnk9" id="link_BMM_TYPE_BMM_CONTAINER_TYPE"><path codeLine="43" d="M155.18,490.93 C155.18,510.24 155.18,512.73 155.18,532.34" fill="none" id="BMM_TYPE-backto-BMM_CONTAINER_TYPE" style="stroke:#181818;stroke-width:1;"/><polygon fill="none" points="155.18,472.93,149.18,490.93,161.18,490.93,155.18,472.93" style="stroke:#181818;stroke-width:1;"/></g><!--reverse link BMM_CONTAINER_TYPE to BMM_INDEXED_CONTAINER_TYPE--><g class="link" data-entity-1="BMM_CONTAINER_TYPE" data-entity-2="BMM_INDEXED_CONTAINER_TYPE" data-source-line="45" data-uid="lnk10" id="link_BMM_CONTAINER_TYPE_BMM_INDEXED_CONTAINER_TYPE"><path codeLine="45" d="M155.18,750.1 C155.18,771.74 155.18,775.11 155.18,791.71" fill="none" id="BMM_CONTAINER_TYPE-backto-BMM_INDEXED_CONTAINER_TYPE" style="stroke:#181818;stroke-width:1;"/><polygon fill="none" points="155.18,732.1,149.18,750.1,161.18,750.1,155.18,732.1" style="stroke:#181818;stroke-width:1;"/></g></g></svg>
