<svg xmlns="http://www.w3.org/2000/svg" xmlns:xlink="http://www.w3.org/1999/xlink" contentStyleType="text/css" data-diagram-type="CLASS" height="930px" preserveAspectRatio="none" style="width:379px;height:930px;background:#FFFFFF;" version="1.1" viewBox="0 0 379 930" width="379px" zoomAndPan="magnify"><defs/><g><!--class BMM_PARAMETER_TYPE--><g class="entity" data-entity="BMM_PARAMETER_TYPE" data-source-line="2" data-uid="ent0002" id="entity_BMM_PARAMETER_TYPE"><rect fill="#F1F1F1" height="283.199" rx="2.5" ry="2.5" style="stroke:#181818;stroke-width:0.5;" width="365.6387" x="7" y="640.6"/><ellipse cx="106.1687" cy="656.6" fill="#ADD1B2" rx="11" ry="11" style="stroke:#181818;stroke-width:1;"/><path d="M106.1687,663.0219 C107.3405,663.0219 108.5749,662.7562 109.9499,662.1469 L109.4655,660.6312 C108.3718,661.0531 107.3562,661.2406 106.4968,661.2406 C103.778,661.2406 102.0593,659.3969 102.0593,656.4906 C102.0593,653.7406 103.6218,652.1469 106.3562,652.1469 C107.278,652.1469 108.2937,652.3344 109.4343,652.7562 L110.0124,651.2406 C108.9187,650.6625 107.6218,650.3656 106.4343,650.3656 C102.6687,650.3656 100.0905,653.0062 100.0905,656.8187 C100.0905,660.4906 102.5749,663.0219 106.1687,663.0219 Z " fill="#000000"/><text fill="#000000" font-family="sans-serif" font-size="14" lengthAdjust="spacing" textLength="158.8013" x="126.6687" y="661.962">BMM_PARAMETER_TYPE</text><line style="stroke:#181818;stroke-width:0.5;" x1="8" x2="371.6387" y1="672.6" y2="672.6"/><ellipse cx="18" cy="686.5" fill="none" rx="3" ry="3" style="stroke:#038048;stroke-width:1;"/><text fill="#000000" font-family="sans-serif" font-size="14" lengthAdjust="spacing" textLength="100.8836" x="27" y="690.3619">name : String [1]</text><ellipse cx="18" cy="703.2999" fill="none" rx="3" ry="3" style="stroke:#038048;stroke-width:1;"/><text fill="#000000" font-family="sans-serif" font-size="14" lengthAdjust="spacing" textLength="279.0469" x="27" y="707.1619">type_constraint : BMM_DEFINED_TYPE [0..1]</text><ellipse cx="18" cy="720.0998" fill="none" rx="3" ry="3" style="stroke:#038048;stroke-width:1;"/><text fill="#000000" font-family="sans-serif" font-size="14" lengthAdjust="spacing" textLength="339.6387" x="27" y="723.9618">inheritance_precursor : BMM_PARAMETER_TYPE [0..1]</text><line style="stroke:#181818;stroke-width:0.5;" x1="8" x2="371.6387" y1="730.9998" y2="730.9998"/><ellipse cx="18" cy="744.8997" fill="#84BE84" rx="3" ry="3" style="stroke:#038048;stroke-width:1;"/><text fill="#000000" font-family="sans-serif" font-size="14" lengthAdjust="spacing" textLength="251.481" x="27" y="748.7617">flattened_conforms_to_type() : String [1]</text><ellipse cx="18" cy="761.6997" fill="#84BE84" rx="3" ry="3" style="stroke:#038048;stroke-width:1;"/><text fill="#000000" font-family="sans-serif" font-size="14" lengthAdjust="spacing" textLength="291.1009" x="27" y="765.5616">effective_conforms_to_type() : BMM_CLASS [1]</text><ellipse cx="18" cy="778.4996" fill="#84BE84" rx="3" ry="3" style="stroke:#038048;stroke-width:1;"/><text fill="#000000" font-family="sans-serif" font-size="14" lengthAdjust="spacing" textLength="167.1314" x="27" y="782.3616">type_signature() : String [1]</text><ellipse cx="18" cy="795.2995" fill="#84BE84" rx="3" ry="3" style="stroke:#038048;stroke-width:1;"/><text fill="#000000" font-family="sans-serif" font-size="14" lengthAdjust="spacing" textLength="160.1734" x="27" y="799.1615">is_primitive() : Boolean [1]</text><ellipse cx="18" cy="812.0995" fill="#84BE84" rx="3" ry="3" style="stroke:#038048;stroke-width:1;"/><text fill="#000000" font-family="sans-serif" font-size="14" lengthAdjust="spacing" textLength="155.7354" x="27" y="815.9614">is_abstract() : Boolean [1]</text><ellipse cx="18" cy="828.8994" fill="#84BE84" rx="3" ry="3" style="stroke:#038048;stroke-width:1;"/><text fill="#000000" font-family="sans-serif" font-size="14" lengthAdjust="spacing" textLength="176.1893" x="27" y="832.7614">entity_metatype() : String [1]</text><ellipse cx="18" cy="845.6993" fill="#84BE84" rx="3" ry="3" style="stroke:#038048;stroke-width:1;"/><text fill="#000000" font-family="sans-serif" font-size="14" lengthAdjust="spacing" textLength="244.285" x="27" y="849.5613">effective_base_class() : BMM_CLASS [1]</text><ellipse cx="18" cy="862.4992" fill="#84BE84" rx="3" ry="3" style="stroke:#038048;stroke-width:1;"/><text fill="#000000" font-family="sans-serif" font-size="14" lengthAdjust="spacing" textLength="172.6053" x="27" y="866.3612">has_subtypes() : Boolean [1]</text><ellipse cx="18" cy="879.2992" fill="#84BE84" rx="3" ry="3" style="stroke:#038048;stroke-width:1;"/><text fill="#000000" font-family="sans-serif" font-size="14" lengthAdjust="spacing" textLength="182.4053" x="27" y="883.1611">subtypes() : List&lt;String&gt; [1..*]</text><ellipse cx="18" cy="896.0991" fill="#84BE84" rx="3" ry="3" style="stroke:#038048;stroke-width:1;"/><text fill="#000000" font-family="sans-serif" font-size="14" lengthAdjust="spacing" textLength="143.4715" x="27" y="899.9611">type_name() : String [1]</text><ellipse cx="18" cy="912.899" fill="#84BE84" rx="3" ry="3" style="stroke:#038048;stroke-width:1;"/><text fill="#000000" font-family="sans-serif" font-size="14" lengthAdjust="spacing" textLength="243.1371" x="27" y="916.761">flattened_type_list() : List&lt;String&gt; [1..*]</text></g><!--class BMM_UNITARY_TYPE--><g class="entity" data-entity="BMM_UNITARY_TYPE" data-source-line="19" data-uid="ent0003" id="entity_BMM_UNITARY_TYPE"><rect fill="#F5F5F5" height="48" rx="2.5" ry="2.5" style="stroke:#808080;stroke-width:1;stroke-dasharray:1,3;" width="168.4714" x="105.58" y="532.6"/><ellipse cx="120.58" cy="548.6" fill="#A9DCDF" rx="11" ry="11" style="stroke:#181818;stroke-width:1;"/><path d="M115.0956,554.1 L117.1269,554.1 L121.1738,542.7562 L120.2675,542.7562 L124.0956,554.1 L126.2363,554.1 L121.9081,541.7719 L119.6894,541.7719 L115.0956,554.1 Z M117.4238,550.6 L123.8613,550.6 L123.8613,548.85 L117.4238,548.85 L117.4238,550.6 Z " fill="#000000"/><text fill="#808080" font-family="sans-serif" font-size="14" font-style="italic" lengthAdjust="spacing" textLength="136.4714" x="134.58" y="553.962">BMM_UNITARY_TYPE</text><line style="stroke:#808080;stroke-width:1;stroke-dasharray:1,3;" x1="106.58" x2="273.0514" y1="564.6" y2="564.6"/><line style="stroke:#808080;stroke-width:1;stroke-dasharray:1,3;" x1="106.58" x2="273.0514" y1="572.6" y2="572.6"/></g><!--class BMM_TYPE--><g class="entity" data-entity="BMM_TYPE" data-source-line="22" data-uid="ent0004" id="entity_BMM_TYPE"><rect fill="#F5F5F5" height="182.3994" rx="2.5" ry="2.5" style="stroke:#808080;stroke-width:1;stroke-dasharray:1,3;" width="270.285" x="54.68" y="290.2"/><ellipse cx="149.3967" cy="306.2" fill="#A9DCDF" rx="11" ry="11" style="stroke:#181818;stroke-width:1;"/><path d="M143.9123,311.7 L145.9435,311.7 L149.9904,300.3562 L149.0842,300.3562 L152.9123,311.7 L155.0529,311.7 L150.7248,299.3719 L148.506,299.3719 L143.9123,311.7 Z M146.2404,308.2 L152.6779,308.2 L152.6779,306.45 L146.2404,306.45 L146.2404,308.2 Z " fill="#000000"/><text fill="#808080" font-family="sans-serif" font-size="14" font-style="italic" lengthAdjust="spacing" textLength="72.3517" x="169.8967" y="311.562">BMM_TYPE</text><line style="stroke:#808080;stroke-width:1;stroke-dasharray:1,3;" x1="55.68" x2="323.965" y1="322.2" y2="322.2"/><line style="stroke:#808080;stroke-width:1;stroke-dasharray:1,3;" x1="55.68" x2="323.965" y1="330.2" y2="330.2"/><ellipse cx="65.68" cy="344.1" fill="#84BE84" rx="3" ry="3" style="stroke:#038048;stroke-width:1;"/><text fill="#808080" font-family="sans-serif" font-size="14" font-style="italic" lengthAdjust="spacing" textLength="244.285" x="74.68" y="347.9619">effective_base_class() : BMM_CLASS [1]</text><ellipse cx="65.68" cy="360.8999" fill="#84BE84" rx="3" ry="3" style="stroke:#038048;stroke-width:1;"/><text fill="#808080" font-family="sans-serif" font-size="14" font-style="italic" lengthAdjust="spacing" textLength="143.4715" x="74.68" y="364.7619">type_name() : String [1]</text><ellipse cx="65.68" cy="377.6998" fill="#84BE84" rx="3" ry="3" style="stroke:#038048;stroke-width:1;"/><text fill="#808080" font-family="sans-serif" font-size="14" font-style="italic" lengthAdjust="spacing" textLength="172.6053" x="74.68" y="381.5618">has_subtypes() : Boolean [1]</text><ellipse cx="65.68" cy="394.4997" fill="#84BE84" rx="3" ry="3" style="stroke:#038048;stroke-width:1;"/><text fill="#808080" font-family="sans-serif" font-size="14" font-style="italic" lengthAdjust="spacing" textLength="182.4053" x="74.68" y="398.3617">subtypes() : List&lt;String&gt; [1..*]</text><ellipse cx="65.68" cy="411.2997" fill="#84BE84" rx="3" ry="3" style="stroke:#038048;stroke-width:1;"/><text fill="#808080" font-family="sans-serif" font-size="14" font-style="italic" lengthAdjust="spacing" textLength="243.1371" x="74.68" y="415.1616">flattened_type_list() : List&lt;String&gt; [1..*]</text><ellipse cx="65.68" cy="428.0996" fill="#84BE84" rx="3" ry="3" style="stroke:#038048;stroke-width:1;"/><text fill="#808080" font-family="sans-serif" font-size="14" lengthAdjust="spacing" textLength="167.1314" x="74.68" y="431.9616">type_signature() : String [1]</text><ellipse cx="65.68" cy="444.8995" fill="#84BE84" rx="3" ry="3" style="stroke:#038048;stroke-width:1;"/><text fill="#808080" font-family="sans-serif" font-size="14" lengthAdjust="spacing" textLength="160.1734" x="74.68" y="448.7615">is_primitive() : Boolean [1]</text><ellipse cx="65.68" cy="461.6995" fill="#84BE84" rx="3" ry="3" style="stroke:#038048;stroke-width:1;"/><text fill="#808080" font-family="sans-serif" font-size="14" lengthAdjust="spacing" textLength="176.1893" x="74.68" y="465.5614">entity_metatype() : String [1]</text></g><!--class BMM_ENTITY--><g class="entity" data-entity="BMM_ENTITY" data-source-line="33" data-uid="ent0005" id="entity_BMM_ENTITY"><rect fill="#F5F5F5" height="115.1997" rx="2.5" ry="2.5" style="stroke:#808080;stroke-width:1;stroke-dasharray:1,3;" width="202.1893" x="88.72" y="115"/><ellipse cx="142.4378" cy="131" fill="#A9DCDF" rx="11" ry="11" style="stroke:#181818;stroke-width:1;"/><path d="M136.9535,136.5 L138.9847,136.5 L143.0316,125.1563 L142.1253,125.1563 L145.9535,136.5 L148.0941,136.5 L143.766,124.1719 L141.5472,124.1719 L136.9535,136.5 Z M139.2816,133 L145.7191,133 L145.7191,131.25 L139.2816,131.25 L139.2816,133 Z " fill="#000000"/><text fill="#808080" font-family="sans-serif" font-size="14" font-style="italic" lengthAdjust="spacing" textLength="86.2536" x="162.9378" y="136.362">BMM_ENTITY</text><line style="stroke:#808080;stroke-width:1;stroke-dasharray:1,3;" x1="89.72" x2="289.9093" y1="147" y2="147"/><line style="stroke:#808080;stroke-width:1;stroke-dasharray:1,3;" x1="89.72" x2="289.9093" y1="155" y2="155"/><ellipse cx="99.72" cy="168.9" fill="#84BE84" rx="3" ry="3" style="stroke:#038048;stroke-width:1;"/><text fill="#808080" font-family="sans-serif" font-size="14" font-style="italic" lengthAdjust="spacing" textLength="171.0794" x="108.72" y="172.7619">entity_category() : String [1]</text><ellipse cx="99.72" cy="185.6999" fill="#84BE84" rx="3" ry="3" style="stroke:#038048;stroke-width:1;"/><text fill="#808080" font-family="sans-serif" font-size="14" font-style="italic" lengthAdjust="spacing" textLength="176.1893" x="108.72" y="189.5619">entity_metatype() : String [1]</text><ellipse cx="99.72" cy="202.4998" fill="#84BE84" rx="3" ry="3" style="stroke:#038048;stroke-width:1;"/><text fill="#808080" font-family="sans-serif" font-size="14" font-style="italic" lengthAdjust="spacing" textLength="155.7354" x="108.72" y="206.3618">is_abstract() : Boolean [1]</text><ellipse cx="99.72" cy="219.2997" fill="#84BE84" rx="3" ry="3" style="stroke:#038048;stroke-width:1;"/><text fill="#808080" font-family="sans-serif" font-size="14" font-style="italic" lengthAdjust="spacing" textLength="160.1734" x="108.72" y="223.1617">is_primitive() : Boolean [1]</text></g><!--class BMM_DEFINITIONS--><g class="entity" data-entity="BMM_DEFINITIONS" data-source-line="40" data-uid="ent0006" id="entity_BMM_DEFINITIONS"><rect fill="#F5F5F5" height="48" rx="2.5" ry="2.5" style="stroke:#808080;stroke-width:1;stroke-dasharray:1,3;" width="156.4035" x="111.62" y="7"/><ellipse cx="126.62" cy="23" fill="#ADD1B2" rx="11" ry="11" style="stroke:#181818;stroke-width:1;"/><path d="M126.62,29.4219 C127.7919,29.4219 129.0263,29.1563 130.4013,28.5469 L129.9169,27.0313 C128.8231,27.4531 127.8075,27.6406 126.9481,27.6406 C124.2294,27.6406 122.5106,25.7969 122.5106,22.8906 C122.5106,20.1406 124.0731,18.5469 126.8075,18.5469 C127.7294,18.5469 128.745,18.7344 129.8856,19.1563 L130.4638,17.6406 C129.37,17.0625 128.0731,16.7656 126.8856,16.7656 C123.12,16.7656 120.5419,19.4063 120.5419,23.2188 C120.5419,26.8906 123.0263,29.4219 126.62,29.4219 Z " fill="#000000"/><text fill="#808080" font-family="sans-serif" font-size="14" lengthAdjust="spacing" textLength="124.4035" x="140.62" y="28.362">BMM_DEFINITIONS</text><line style="stroke:#808080;stroke-width:1;stroke-dasharray:1,3;" x1="112.62" x2="267.0235" y1="39" y2="39"/><line style="stroke:#808080;stroke-width:1;stroke-dasharray:1,3;" x1="112.62" x2="267.0235" y1="47" y2="47"/></g><!--reverse link BMM_DEFINITIONS to BMM_ENTITY--><g class="link" data-entity-1="BMM_DEFINITIONS" data-entity-2="BMM_ENTITY" data-source-line="43" data-uid="lnk7" id="link_BMM_DEFINITIONS_BMM_ENTITY"><path codeLine="43" d="M189.82,73.37 C189.82,89.59 189.82,93.94 189.82,114.7" fill="none" id="BMM_DEFINITIONS-backto-BMM_ENTITY" style="stroke:#181818;stroke-width:1;"/><polygon fill="none" points="189.82,55.37,183.82,73.37,195.82,73.37,189.82,55.37" style="stroke:#181818;stroke-width:1;"/></g><!--reverse link BMM_ENTITY to BMM_TYPE--><g class="link" data-entity-1="BMM_ENTITY" data-entity-2="BMM_TYPE" data-source-line="45" data-uid="lnk8" id="link_BMM_ENTITY_BMM_TYPE"><path codeLine="45" d="M189.82,248.66 C189.82,266.95 189.82,269.68 189.82,289.76" fill="none" id="BMM_ENTITY-backto-BMM_TYPE" style="stroke:#181818;stroke-width:1;"/><polygon fill="none" points="189.82,230.66,183.82,248.66,195.82,248.66,189.82,230.66" style="stroke:#181818;stroke-width:1;"/></g><!--reverse link BMM_TYPE to BMM_UNITARY_TYPE--><g class="link" data-entity-1="BMM_TYPE" data-entity-2="BMM_UNITARY_TYPE" data-source-line="47" data-uid="lnk9" id="link_BMM_TYPE_BMM_UNITARY_TYPE"><path codeLine="47" d="M189.82,491.06 C189.82,512.99 189.82,516.58 189.82,532.18" fill="none" id="BMM_TYPE-backto-BMM_UNITARY_TYPE" style="stroke:#181818;stroke-width:1;"/><polygon fill="none" points="189.82,473.06,183.82,491.06,195.82,491.06,189.82,473.06" style="stroke:#181818;stroke-width:1;"/></g><!--reverse link BMM_UNITARY_TYPE to BMM_PARAMETER_TYPE--><g class="link" data-entity-1="BMM_UNITARY_TYPE" data-entity-2="BMM_PARAMETER_TYPE" data-source-line="49" data-uid="lnk10" id="link_BMM_UNITARY_TYPE_BMM_PARAMETER_TYPE"><path codeLine="49" d="M189.82,598.69 C189.82,613.86 189.82,617.12 189.82,640.17" fill="none" id="BMM_UNITARY_TYPE-backto-BMM_PARAMETER_TYPE" style="stroke:#181818;stroke-width:1;"/><polygon fill="none" points="189.82,580.69,183.82,598.69,195.82,598.69,189.82,580.69" style="stroke:#181818;stroke-width:1;"/></g></g></svg>
