<svg xmlns="http://www.w3.org/2000/svg" xmlns:xlink="http://www.w3.org/1999/xlink" contentStyleType="text/css" data-diagram-type="CLASS" height="539px" preserveAspectRatio="none" style="width:565px;height:539px;background:#FFFFFF;" version="1.1" viewBox="0 0 565 539" width="565px" zoomAndPan="magnify"><defs/><g><!--class BMM_SCHEMA--><g class="entity" data-entity="BMM_SCHEMA" data-source-line="2" data-uid="ent0002" id="entity_BMM_SCHEMA"><rect fill="#F1F1F1" height="383.9985" rx="2.5" ry="2.5" style="stroke:#181818;stroke-width:0.5;" width="348.7127" x="137.57" y="148.6"/><ellipse cx="259.8245" cy="164.6" fill="#A9DCDF" rx="11" ry="11" style="stroke:#181818;stroke-width:1;"/><path d="M254.3402,170.1 L256.3714,170.1 L260.4183,158.7563 L259.512,158.7563 L263.3402,170.1 L265.4808,170.1 L261.1527,157.7719 L258.9339,157.7719 L254.3402,170.1 Z M256.6683,166.6 L263.1058,166.6 L263.1058,164.85 L256.6683,164.85 L256.6683,166.6 Z " fill="#000000"/><text fill="#000000" font-family="sans-serif" font-size="14" font-style="italic" lengthAdjust="spacing" textLength="95.7036" x="280.3245" y="169.962">BMM_SCHEMA</text><line style="stroke:#181818;stroke-width:0.5;" x1="138.57" x2="485.2827" y1="180.6" y2="180.6"/><ellipse cx="148.57" cy="194.5" fill="none" rx="3" ry="3" style="stroke:#038048;stroke-width:1;"/><text fill="#000000" font-family="sans-serif" font-size="14" lengthAdjust="spacing" textLength="150.9754" x="157.57" y="198.3619">bmm_version : String [1]</text><ellipse cx="148.57" cy="211.2999" fill="none" rx="3" ry="3" style="stroke:#038048;stroke-width:1;"/><text fill="#000000" font-family="sans-serif" font-size="14" lengthAdjust="spacing" textLength="258.831" x="157.57" y="215.1619">primitive_types : List&lt;P_BMM_CLASS&gt; [*]</text><ellipse cx="148.57" cy="228.0998" fill="none" rx="3" ry="3" style="stroke:#038048;stroke-width:1;"/><text fill="#000000" font-family="sans-serif" font-size="14" lengthAdjust="spacing" textLength="266.4189" x="157.57" y="231.9618">class_definitions : List&lt;P_BMM_CLASS&gt; [*]</text><ellipse cx="148.57" cy="244.8997" fill="none" rx="3" ry="3" style="stroke:#038048;stroke-width:1;"/><text fill="#000000" font-family="sans-serif" font-size="14" lengthAdjust="spacing" textLength="322.7127" x="157.57" y="248.7617">includes : Hash&lt;String,BMM_INCLUDE_SPEC&gt; [0..1]</text><ellipse cx="148.57" cy="261.6997" fill="none" rx="3" ry="3" style="stroke:#038048;stroke-width:1;"/><text fill="#000000" font-family="sans-serif" font-size="14" lengthAdjust="spacing" textLength="219.7851" x="157.57" y="265.5616">bmm_schema : BMM_MODEL [0..1]</text><ellipse cx="148.57" cy="278.4996" fill="none" rx="3" ry="3" style="stroke:#038048;stroke-width:1;"/><text fill="#000000" font-family="sans-serif" font-size="14" lengthAdjust="spacing" textLength="202.9432" x="157.57" y="282.3616">state : BMM_SCHEMA_STATE [1]</text><ellipse cx="148.57" cy="295.2995" fill="none" rx="3" ry="3" style="stroke:#038048;stroke-width:1;"/><text fill="#000000" font-family="sans-serif" font-size="14" lengthAdjust="spacing" textLength="163.2533" x="157.57" y="299.1615">model_name : String [0..1]</text><ellipse cx="148.57" cy="312.0995" fill="none" rx="3" ry="3" style="stroke:#038048;stroke-width:1;"/><text fill="#000000" font-family="sans-serif" font-size="14" lengthAdjust="spacing" textLength="155.8194" x="157.57" y="315.9614">schema_name : String [1]</text><ellipse cx="148.57" cy="328.8994" fill="none" rx="3" ry="3" style="stroke:#038048;stroke-width:1;"/><text fill="#000000" font-family="sans-serif" font-size="14" lengthAdjust="spacing" textLength="169.5673" x="157.57" y="332.7614">schema_revision : String [1]</text><ellipse cx="148.57" cy="345.6993" fill="none" rx="3" ry="3" style="stroke:#038048;stroke-width:1;"/><text fill="#000000" font-family="sans-serif" font-size="14" lengthAdjust="spacing" textLength="209.6492" x="157.57" y="349.5613">schema_lifecycle_state : String [1]</text><ellipse cx="148.57" cy="362.4992" fill="none" rx="3" ry="3" style="stroke:#038048;stroke-width:1;"/><text fill="#000000" font-family="sans-serif" font-size="14" lengthAdjust="spacing" textLength="162.1054" x="157.57" y="366.3612">schema_author : String [1]</text><ellipse cx="148.57" cy="379.2992" fill="none" rx="3" ry="3" style="stroke:#038048;stroke-width:1;"/><text fill="#000000" font-family="sans-serif" font-size="14" lengthAdjust="spacing" textLength="190.4133" x="157.57" y="383.1611">schema_description : String [1]</text><ellipse cx="148.57" cy="396.0991" fill="none" rx="3" ry="3" style="stroke:#038048;stroke-width:1;"/><text fill="#000000" font-family="sans-serif" font-size="14" lengthAdjust="spacing" textLength="236.6271" x="157.57" y="399.9611">schema_contributors : List&lt;String&gt; [*]</text><line style="stroke:#181818;stroke-width:0.5;" x1="138.57" x2="485.2827" y1="406.999" y2="406.999"/><ellipse cx="148.57" cy="420.899" fill="#84BE84" rx="3" ry="3" style="stroke:#038048;stroke-width:1;"/><text fill="#000000" font-family="sans-serif" font-size="14" font-style="italic" lengthAdjust="spacing" textLength="165.6753" x="157.57" y="424.761">validate_created() : void [1]</text><ellipse cx="148.57" cy="437.6989" fill="#84BE84" rx="3" ry="3" style="stroke:#038048;stroke-width:1;"/><text fill="#000000" font-family="sans-serif" font-size="14" font-style="italic" lengthAdjust="spacing" textLength="141.5674" x="157.57" y="441.5609">load_finalise() : void [1]</text><ellipse cx="148.57" cy="454.4989" fill="#84BE84" rx="3" ry="3" style="stroke:#038048;stroke-width:1;"/><text fill="#000000" font-family="sans-serif" font-size="14" font-style="italic" lengthAdjust="spacing" textLength="267.5109" x="157.57" y="458.3608">merge( other : BMM_SCHEMA [1] ) : void [1]</text><ellipse cx="148.57" cy="471.2988" fill="#84BE84" rx="3" ry="3" style="stroke:#038048;stroke-width:1;"/><text fill="#000000" font-family="sans-serif" font-size="14" font-style="italic" lengthAdjust="spacing" textLength="111.8736" x="157.57" y="475.1608">validate() : void [1]</text><ellipse cx="148.57" cy="488.0987" fill="#84BE84" rx="3" ry="3" style="stroke:#038048;stroke-width:1;"/><text fill="#000000" font-family="sans-serif" font-size="14" font-style="italic" lengthAdjust="spacing" textLength="188.2712" x="157.57" y="491.9607">create_bmm_model() : void [1]</text><ellipse cx="148.57" cy="504.8986" fill="#84BE84" rx="3" ry="3" style="stroke:#038048;stroke-width:1;"/><text fill="#000000" font-family="sans-serif" font-size="14" lengthAdjust="spacing" textLength="191.6872" x="157.57" y="508.7606">read_to_validate() : Boolean [1]</text><ellipse cx="148.57" cy="521.6986" fill="#84BE84" rx="3" ry="3" style="stroke:#038048;stroke-width:1;"/><text fill="#000000" font-family="sans-serif" font-size="14" lengthAdjust="spacing" textLength="140.7695" x="157.57" y="525.5605">schema_id() : String [1]</text></g><!--class P_BMM_PACKAGE_CONTAINER--><g class="entity" data-entity="P_BMM_PACKAGE_CONTAINER" data-source-line="25" data-uid="ent0003" id="entity_P_BMM_PACKAGE_CONTAINER"><rect fill="#F5F5F5" height="64.7999" rx="2.5" ry="2.5" style="stroke:#808080;stroke-width:1;stroke-dasharray:1,3;" width="317.8568" x="7" y="15.4"/><ellipse cx="60.8788" cy="31.4" fill="#ADD1B2" rx="11" ry="11" style="stroke:#181818;stroke-width:1;"/><path d="M60.8788,37.8219 C62.0507,37.8219 63.2851,37.5562 64.6601,36.9469 L64.1757,35.4312 C63.0819,35.8531 62.0663,36.0406 61.2069,36.0406 C58.4882,36.0406 56.7694,34.1969 56.7694,31.2906 C56.7694,28.5406 58.3319,26.9469 61.0663,26.9469 C61.9882,26.9469 63.0038,27.1344 64.1444,27.5562 L64.7226,26.0406 C63.6288,25.4625 62.3319,25.1656 61.1444,25.1656 C57.3788,25.1656 54.8007,27.8062 54.8007,31.6187 C54.8007,35.2906 57.2851,37.8219 60.8788,37.8219 Z " fill="#000000"/><text fill="#808080" font-family="sans-serif" font-size="14" lengthAdjust="spacing" textLength="201.5992" x="81.3788" y="36.762">P_BMM_PACKAGE_CONTAINER</text><line style="stroke:#808080;stroke-width:1;stroke-dasharray:1,3;" x1="8" x2="323.8568" y1="47.4" y2="47.4"/><ellipse cx="18" cy="61.3" fill="none" rx="3" ry="3" style="stroke:#038048;stroke-width:1;"/><text fill="#808080" font-family="sans-serif" font-size="14" lengthAdjust="spacing" textLength="291.8568" x="27" y="65.1619">packages : Hash&lt;String,P_BMM_PACKAGE&gt; [1]</text><line style="stroke:#808080;stroke-width:1;stroke-dasharray:1,3;" x1="8" x2="323.8568" y1="72.1999" y2="72.1999"/></g><!--class BMM_MODEL_METADATA--><g class="entity" data-entity="BMM_MODEL_METADATA" data-source-line="31" data-uid="ent0005" id="entity_BMM_MODEL_METADATA"><rect fill="#F5F5F5" height="81.5999" rx="2.5" ry="2.5" style="stroke:#808080;stroke-width:1;stroke-dasharray:1,3;" width="199.0473" x="359.4" y="7"/><ellipse cx="374.4" cy="23" fill="#ADD1B2" rx="11" ry="11" style="stroke:#181818;stroke-width:1;"/><path d="M374.4,29.4219 C375.5719,29.4219 376.8063,29.1563 378.1813,28.5469 L377.6969,27.0313 C376.6031,27.4531 375.5875,27.6406 374.7281,27.6406 C372.0094,27.6406 370.2906,25.7969 370.2906,22.8906 C370.2906,20.1406 371.8531,18.5469 374.5875,18.5469 C375.5094,18.5469 376.525,18.7344 377.6656,19.1563 L378.2438,17.6406 C377.15,17.0625 375.8531,16.7656 374.6656,16.7656 C370.9,16.7656 368.3219,19.4063 368.3219,23.2188 C368.3219,26.8906 370.8063,29.4219 374.4,29.4219 Z " fill="#000000"/><text fill="#808080" font-family="sans-serif" font-size="14" lengthAdjust="spacing" textLength="167.0473" x="388.4" y="28.362">BMM_MODEL_METADATA</text><line style="stroke:#808080;stroke-width:1;stroke-dasharray:1,3;" x1="360.4" x2="557.4473" y1="39" y2="39"/><ellipse cx="370.4" cy="52.9" fill="none" rx="3" ry="3" style="stroke:#038048;stroke-width:1;"/><text fill="#808080" font-family="sans-serif" font-size="14" lengthAdjust="spacing" textLength="148.8894" x="379.4" y="56.7619">rm_publisher : String [1]</text><ellipse cx="370.4" cy="69.6999" fill="none" rx="3" ry="3" style="stroke:#038048;stroke-width:1;"/><text fill="#808080" font-family="sans-serif" font-size="14" lengthAdjust="spacing" textLength="135.6735" x="379.4" y="73.5619">rm_release : String [1]</text><line style="stroke:#808080;stroke-width:1;stroke-dasharray:1,3;" x1="360.4" x2="557.4473" y1="80.5999" y2="80.5999"/></g><!--reverse link P_BMM_PACKAGE_CONTAINER to BMM_SCHEMA--><g class="link" data-entity-1="P_BMM_PACKAGE_CONTAINER" data-entity-2="BMM_SCHEMA" data-source-line="29" data-uid="lnk4" id="link_P_BMM_PACKAGE_CONTAINER_BMM_SCHEMA"><path codeLine="29" d="M189.9051,96.567 C198.8451,114.377 202.76,122.15 215.84,148.22" fill="none" id="P_BMM_PACKAGE_CONTAINER-backto-BMM_SCHEMA" style="stroke:#181818;stroke-width:1;"/><polygon fill="none" points="181.83,80.48,184.5428,99.2587,195.2675,93.8753,181.83,80.48" style="stroke:#181818;stroke-width:1;"/></g><!--reverse link BMM_MODEL_METADATA to BMM_SCHEMA--><g class="link" data-entity-1="BMM_MODEL_METADATA" data-entity-2="BMM_SCHEMA" data-source-line="36" data-uid="lnk6" id="link_BMM_MODEL_METADATA_BMM_SCHEMA"><path codeLine="36" d="M430.5167,104.9927 C422.1267,121.5827 419.87,126.06 408.69,148.18" fill="none" id="BMM_MODEL_METADATA-backto-BMM_SCHEMA" style="stroke:#181818;stroke-width:1;"/><polygon fill="none" points="438.64,88.93,425.1624,102.2849,435.8709,107.7005,438.64,88.93" style="stroke:#181818;stroke-width:1;"/></g></g></svg>
