<svg xmlns="http://www.w3.org/2000/svg" xmlns:xlink="http://www.w3.org/1999/xlink" contentStyleType="text/css" data-diagram-type="CLASS" height="85px" preserveAspectRatio="none" style="width:190px;height:85px;background:#FFFFFF;" version="1.1" viewBox="0 0 190 85" width="190px" zoomAndPan="magnify"><defs/><g><!--class BMM_INCLUDE_SPEC--><g class="entity" data-entity="BMM_INCLUDE_SPEC" data-source-line="2" data-uid="ent0002" id="entity_BMM_INCLUDE_SPEC"><rect fill="#F1F1F1" height="64.7999" rx="2.5" ry="2.5" style="stroke:#181818;stroke-width:0.5;" width="169.9555" x="7" y="7"/><ellipse cx="22" cy="23" fill="#ADD1B2" rx="11" ry="11" style="stroke:#181818;stroke-width:1;"/><path d="M22,29.4219 C23.1719,29.4219 24.4063,29.1563 25.7813,28.5469 L25.2969,27.0313 C24.2031,27.4531 23.1875,27.6406 22.3281,27.6406 C19.6094,27.6406 17.8906,25.7969 17.8906,22.8906 C17.8906,20.1406 19.4531,18.5469 22.1875,18.5469 C23.1094,18.5469 24.125,18.7344 25.2656,19.1563 L25.8438,17.6406 C24.75,17.0625 23.4531,16.7656 22.2656,16.7656 C18.5,16.7656 15.9219,19.4063 15.9219,23.2188 C15.9219,26.8906 18.4063,29.4219 22,29.4219 Z " fill="#000000"/><text fill="#000000" font-family="sans-serif" font-size="14" lengthAdjust="spacing" textLength="137.9555" x="36" y="28.362">BMM_INCLUDE_SPEC</text><line style="stroke:#181818;stroke-width:0.5;" x1="8" x2="175.9555" y1="39" y2="39"/><ellipse cx="18" cy="52.9" fill="none" rx="3" ry="3" style="stroke:#038048;stroke-width:1;"/><text fill="#000000" font-family="sans-serif" font-size="14" lengthAdjust="spacing" textLength="77.4057" x="27" y="56.7619">id : String [1]</text><line style="stroke:#181818;stroke-width:0.5;" x1="8" x2="175.9555" y1="63.7999" y2="63.7999"/></g></g></svg>
