<svg xmlns="http://www.w3.org/2000/svg" xmlns:xlink="http://www.w3.org/1999/xlink" contentStyleType="text/css" data-diagram-type="CLASS" height="1072px" preserveAspectRatio="none" style="width:494px;height:1072px;background:#FFFFFF;" version="1.1" viewBox="0 0 494 1072" width="494px" zoomAndPan="magnify"><defs/><g><!--class BMM_ENUMERATION_INTEGER--><g class="entity" data-entity="BMM_ENUMERATION_INTEGER" data-source-line="2" data-uid="ent0002" id="entity_BMM_ENUMERATION_INTEGER"><rect fill="#F1F1F1" height="48" rx="2.5" ry="2.5" style="stroke:#181818;stroke-width:0.5;" width="234.5932" x="129.82" y="1017.4"/><ellipse cx="144.82" cy="1033.4" fill="#ADD1B2" rx="11" ry="11" style="stroke:#181818;stroke-width:1;"/><path d="M144.82,1039.8219 C145.9919,1039.8219 147.2263,1039.5563 148.6013,1038.9469 L148.1169,1037.4313 C147.0231,1037.8531 146.0075,1038.0406 145.1481,1038.0406 C142.4294,1038.0406 140.7106,1036.1969 140.7106,1033.2906 C140.7106,1030.5406 142.2731,1028.9469 145.0075,1028.9469 C145.9294,1028.9469 146.945,1029.1344 148.0856,1029.5563 L148.6638,1028.0406 C147.57,1027.4625 146.2731,1027.1656 145.0856,1027.1656 C141.32,1027.1656 138.7419,1029.8063 138.7419,1033.6188 C138.7419,1037.2906 141.2263,1039.8219 144.82,1039.8219 Z " fill="#000000"/><text fill="#000000" font-family="sans-serif" font-size="14" lengthAdjust="spacing" textLength="202.5932" x="158.82" y="1038.762">BMM_ENUMERATION_INTEGER</text><line style="stroke:#181818;stroke-width:0.5;" x1="130.82" x2="363.4132" y1="1049.4" y2="1049.4"/><line style="stroke:#181818;stroke-width:0.5;" x1="130.82" x2="363.4132" y1="1057.4" y2="1057.4"/></g><!--class BMM_ENUMERATION--><g class="entity" data-entity="BMM_ENUMERATION" data-source-line="5" data-uid="ent0003" id="entity_BMM_ENUMERATION"><rect fill="#F5F5F5" height="115.1997" rx="2.5" ry="2.5" style="stroke:#808080;stroke-width:1;stroke-dasharray:1,3;" width="258.8331" x="117.7" y="842.2"/><ellipse cx="168.2758" cy="858.2" fill="#ADD1B2" rx="11" ry="11" style="stroke:#181818;stroke-width:1;"/><path d="M168.2758,864.6219 C169.4477,864.6219 170.6821,864.3563 172.0571,863.7469 L171.5727,862.2313 C170.4789,862.6531 169.4633,862.8406 168.6039,862.8406 C165.8852,862.8406 164.1664,860.9969 164.1664,858.0906 C164.1664,855.3406 165.7289,853.7469 168.4633,853.7469 C169.3852,853.7469 170.4008,853.9344 171.5414,854.3563 L172.1196,852.8406 C171.0258,852.2625 169.7289,851.9656 168.5414,851.9656 C164.7758,851.9656 162.1977,854.6063 162.1977,858.4188 C162.1977,862.0906 164.6821,864.6219 168.2758,864.6219 Z " fill="#000000"/><text fill="#808080" font-family="sans-serif" font-size="14" lengthAdjust="spacing" textLength="138.3894" x="188.7758" y="863.562">BMM_ENUMERATION</text><rect fill="#FFFFFF" height="16.4001" style="stroke:#181818;stroke-width:1;stroke-dasharray:2,2;" width="8.7921" x="370.741" y="839.2"/><text fill="#000000" font-family="sans-serif" font-size="12" font-style="italic" lengthAdjust="spacing" textLength="6.7921" x="371.741" y="851.9961">T</text><line style="stroke:#808080;stroke-width:1;stroke-dasharray:1,3;" x1="118.7" x2="375.5331" y1="874.2" y2="874.2"/><ellipse cx="128.7" cy="888.1" fill="none" rx="3" ry="3" style="stroke:#038048;stroke-width:1;"/><text fill="#808080" font-family="sans-serif" font-size="14" lengthAdjust="spacing" textLength="181.6353" x="137.7" y="891.9619">item_names : List&lt;String&gt; [*]</text><ellipse cx="128.7" cy="904.8999" fill="none" rx="3" ry="3" style="stroke:#038048;stroke-width:1;"/><text fill="#808080" font-family="sans-serif" font-size="14" lengthAdjust="spacing" textLength="127.0075" x="137.7" y="908.7619">item_values : T [0..1]</text><line style="stroke:#808080;stroke-width:1;stroke-dasharray:1,3;" x1="118.7" x2="375.5331" y1="915.7999" y2="915.7999"/><ellipse cx="128.7" cy="929.6998" fill="#84BE84" rx="3" ry="3" style="stroke:#038048;stroke-width:1;"/><text fill="#808080" font-family="sans-serif" font-size="14" lengthAdjust="spacing" textLength="176.1893" x="137.7" y="933.5618">entity_metatype() : String [1]</text><ellipse cx="128.7" cy="946.4997" fill="#84BE84" rx="3" ry="3" style="stroke:#038048;stroke-width:1;"/><text fill="#808080" font-family="sans-serif" font-size="14" lengthAdjust="spacing" textLength="232.8331" x="137.7" y="950.3617">name_map() : Hash&lt;String,String&gt; [1]</text></g><!--class BMM_SIMPLE_CLASS--><g class="entity" data-entity="BMM_SIMPLE_CLASS" data-source-line="12" data-uid="ent0004" id="entity_BMM_SIMPLE_CLASS"><rect fill="#F5F5F5" height="81.5999" rx="2.5" ry="2.5" style="stroke:#808080;stroke-width:1;stroke-dasharray:1,3;" width="216.5112" x="138.86" y="700.6"/><ellipse cx="176.4733" cy="716.6" fill="#ADD1B2" rx="11" ry="11" style="stroke:#181818;stroke-width:1;"/><path d="M176.4733,723.0219 C177.6452,723.0219 178.8795,722.7563 180.2545,722.1469 L179.7702,720.6313 C178.6764,721.0531 177.6608,721.2406 176.8014,721.2406 C174.0827,721.2406 172.3639,719.3969 172.3639,716.4906 C172.3639,713.7406 173.9264,712.1469 176.6608,712.1469 C177.5827,712.1469 178.5983,712.3344 179.7389,712.7563 L180.317,711.2406 C179.2233,710.6625 177.9264,710.3656 176.7389,710.3656 C172.9733,710.3656 170.3952,713.0063 170.3952,716.8188 C170.3952,720.4906 172.8795,723.0219 176.4733,723.0219 Z " fill="#000000"/><text fill="#808080" font-family="sans-serif" font-size="14" lengthAdjust="spacing" textLength="134.2595" x="195.4985" y="721.962">BMM_SIMPLE_CLASS</text><line style="stroke:#808080;stroke-width:1;stroke-dasharray:1,3;" x1="139.86" x2="354.3712" y1="732.6" y2="732.6"/><line style="stroke:#808080;stroke-width:1;stroke-dasharray:1,3;" x1="139.86" x2="354.3712" y1="740.6" y2="740.6"/><ellipse cx="149.86" cy="754.5" fill="#84BE84" rx="3" ry="3" style="stroke:#038048;stroke-width:1;"/><text fill="#808080" font-family="sans-serif" font-size="14" lengthAdjust="spacing" textLength="190.5112" x="158.86" y="758.3619">type() : BMM_SIMPLE_TYPE [1]</text><ellipse cx="149.86" cy="771.2999" fill="#84BE84" rx="3" ry="3" style="stroke:#038048;stroke-width:1;"/><text fill="#808080" font-family="sans-serif" font-size="14" lengthAdjust="spacing" textLength="176.1893" x="158.86" y="775.1619">entity_metatype() : String [1]</text></g><!--class BMM_CLASS--><g class="entity" data-entity="BMM_CLASS" data-source-line="17" data-uid="ent0005" id="entity_BMM_CLASS"><rect fill="#F5F5F5" height="350.3987" rx="2.5" ry="2.5" style="stroke:#808080;stroke-width:1;stroke-dasharray:1,3;" width="480.2281" x="7" y="290.2"/><ellipse cx="202.7472" cy="306.2" fill="#A9DCDF" rx="11" ry="11" style="stroke:#181818;stroke-width:1;"/><path d="M197.2629,311.7 L199.2941,311.7 L203.341,300.3563 L202.4347,300.3563 L206.2629,311.7 L208.4035,311.7 L204.0754,299.3719 L201.8566,299.3719 L197.2629,311.7 Z M199.591,308.2 L206.0285,308.2 L206.0285,306.45 L199.591,306.45 L199.591,308.2 Z " fill="#000000"/><text fill="#808080" font-family="sans-serif" font-size="14" font-style="italic" lengthAdjust="spacing" textLength="80.2337" x="223.2472" y="311.562">BMM_CLASS</text><line style="stroke:#808080;stroke-width:1;stroke-dasharray:1,3;" x1="8" x2="486.2281" y1="322.2" y2="322.2"/><ellipse cx="18" cy="336.1" fill="none" rx="3" ry="3" style="stroke:#038048;stroke-width:1;"/><text fill="#808080" font-family="sans-serif" font-size="14" lengthAdjust="spacing" textLength="100.8836" x="27" y="339.9619">name : String [1]</text><ellipse cx="18" cy="352.8999" fill="none" rx="3" ry="3" style="stroke:#038048;stroke-width:1;"/><text fill="#808080" font-family="sans-serif" font-size="14" lengthAdjust="spacing" textLength="165.2414" x="27" y="356.7619">ancestors : List&lt;String&gt; [*]</text><ellipse cx="18" cy="369.6998" fill="none" rx="3" ry="3" style="stroke:#038048;stroke-width:1;"/><text fill="#808080" font-family="sans-serif" font-size="14" lengthAdjust="spacing" textLength="181.1453" x="27" y="373.5618">package : BMM_PACKAGE [1]</text><ellipse cx="18" cy="386.4997" fill="none" rx="3" ry="3" style="stroke:#038048;stroke-width:1;"/><text fill="#808080" font-family="sans-serif" font-size="14" lengthAdjust="spacing" textLength="306.1368" x="27" y="390.3617">properties : Hash&lt;String,BMM_PROPERTY&gt; [0..1]</text><ellipse cx="18" cy="403.2997" fill="none" rx="3" ry="3" style="stroke:#038048;stroke-width:1;"/><text fill="#808080" font-family="sans-serif" font-size="14" lengthAdjust="spacing" textLength="180.7953" x="27" y="407.1616">source_schema_id : String [1]</text><ellipse cx="18" cy="420.0996" fill="none" rx="3" ry="3" style="stroke:#038048;stroke-width:1;"/><text fill="#808080" font-family="sans-serif" font-size="14" lengthAdjust="spacing" textLength="299.7947" x="27" y="423.9616">immediate_descendants : List&lt;BMM_CLASS&gt; [*]</text><ellipse cx="18" cy="436.8995" fill="none" rx="3" ry="3" style="stroke:#038048;stroke-width:1;"/><text fill="#808080" font-family="sans-serif" font-size="14" lengthAdjust="spacing" textLength="147.9934" x="27" y="440.7615">is_override : Boolean [1]</text><line style="stroke:#808080;stroke-width:1;stroke-dasharray:1,3;" x1="8" x2="486.2281" y1="447.7995" y2="447.7995"/><ellipse cx="18" cy="461.6995" fill="#84BE84" rx="3" ry="3" style="stroke:#038048;stroke-width:1;"/><text fill="#808080" font-family="sans-serif" font-size="14" lengthAdjust="spacing" textLength="195.6212" x="27" y="465.5614">all_ancestors() : List&lt;String&gt; [*]</text><ellipse cx="18" cy="478.4994" fill="#84BE84" rx="3" ry="3" style="stroke:#038048;stroke-width:1;"/><text fill="#808080" font-family="sans-serif" font-size="14" lengthAdjust="spacing" textLength="213.6952" x="27" y="482.3614">all_descendants() : List&lt;String&gt; [*]</text><ellipse cx="18" cy="495.2993" fill="#84BE84" rx="3" ry="3" style="stroke:#038048;stroke-width:1;"/><text fill="#808080" font-family="sans-serif" font-size="14" lengthAdjust="spacing" textLength="170.1693" x="27" y="499.1613">suppliers() : List&lt;String&gt; [*]</text><ellipse cx="18" cy="512.0992" fill="#84BE84" rx="3" ry="3" style="stroke:#038048;stroke-width:1;"/><text fill="#808080" font-family="sans-serif" font-size="14" lengthAdjust="spacing" textLength="263.157" x="27" y="515.9612">suppliers_non_primitive() : List&lt;String&gt; [*]</text><ellipse cx="18" cy="528.8992" fill="#84BE84" rx="3" ry="3" style="stroke:#038048;stroke-width:1;"/><text fill="#808080" font-family="sans-serif" font-size="14" lengthAdjust="spacing" textLength="216.0192" x="27" y="532.7611">supplier_closure() : List&lt;String&gt; [*]</text><ellipse cx="18" cy="545.6991" fill="#84BE84" rx="3" ry="3" style="stroke:#038048;stroke-width:1;"/><text fill="#808080" font-family="sans-serif" font-size="14" lengthAdjust="spacing" textLength="160.7754" x="27" y="549.5611">package_path() : String [1]</text><ellipse cx="18" cy="562.499" fill="#84BE84" rx="3" ry="3" style="stroke:#038048;stroke-width:1;"/><text fill="#808080" font-family="sans-serif" font-size="14" lengthAdjust="spacing" textLength="140.1535" x="27" y="566.361">class_path() : String [1]</text><ellipse cx="18" cy="579.2989" fill="#84BE84" rx="3" ry="3" style="stroke:#038048;stroke-width:1;"/><text fill="#808080" font-family="sans-serif" font-size="14" lengthAdjust="spacing" textLength="454.2281" x="27" y="583.1609">flat_properties() : List&lt;Hash&lt;String,BMM_PROPERTY&lt;BMM_TYPE&gt;&gt;&gt; [*]</text><ellipse cx="18" cy="596.0989" fill="#84BE84" rx="3" ry="3" style="stroke:#038048;stroke-width:1;"/><text fill="#808080" font-family="sans-serif" font-size="14" lengthAdjust="spacing" textLength="160.1734" x="27" y="599.9608">is_primitive() : Boolean [1]</text><ellipse cx="18" cy="612.8988" fill="#84BE84" rx="3" ry="3" style="stroke:#038048;stroke-width:1;"/><text fill="#808080" font-family="sans-serif" font-size="14" lengthAdjust="spacing" textLength="155.7354" x="27" y="616.7608">is_abstract() : Boolean [1]</text><ellipse cx="18" cy="629.6987" fill="#84BE84" rx="3" ry="3" style="stroke:#038048;stroke-width:1;"/><text fill="#808080" font-family="sans-serif" font-size="14" font-style="italic" lengthAdjust="spacing" textLength="201.8652" x="27" y="633.5607">type() : BMM_DEFINED_TYPE [1]</text></g><!--class BMM_ENTITY--><g class="entity" data-entity="BMM_ENTITY" data-source-line="38" data-uid="ent0006" id="entity_BMM_ENTITY"><rect fill="#F5F5F5" height="115.1997" rx="2.5" ry="2.5" style="stroke:#808080;stroke-width:1;stroke-dasharray:1,3;" width="202.1893" x="28.02" y="115"/><ellipse cx="81.7378" cy="131" fill="#A9DCDF" rx="11" ry="11" style="stroke:#181818;stroke-width:1;"/><path d="M76.2535,136.5 L78.2847,136.5 L82.3316,125.1563 L81.4253,125.1563 L85.2535,136.5 L87.3941,136.5 L83.066,124.1719 L80.8472,124.1719 L76.2535,136.5 Z M78.5816,133 L85.0191,133 L85.0191,131.25 L78.5816,131.25 L78.5816,133 Z " fill="#000000"/><text fill="#808080" font-family="sans-serif" font-size="14" font-style="italic" lengthAdjust="spacing" textLength="86.2536" x="102.2378" y="136.362">BMM_ENTITY</text><line style="stroke:#808080;stroke-width:1;stroke-dasharray:1,3;" x1="29.02" x2="229.2093" y1="147" y2="147"/><line style="stroke:#808080;stroke-width:1;stroke-dasharray:1,3;" x1="29.02" x2="229.2093" y1="155" y2="155"/><ellipse cx="39.02" cy="168.9" fill="#84BE84" rx="3" ry="3" style="stroke:#038048;stroke-width:1;"/><text fill="#808080" font-family="sans-serif" font-size="14" font-style="italic" lengthAdjust="spacing" textLength="171.0794" x="48.02" y="172.7619">entity_category() : String [1]</text><ellipse cx="39.02" cy="185.6999" fill="#84BE84" rx="3" ry="3" style="stroke:#038048;stroke-width:1;"/><text fill="#808080" font-family="sans-serif" font-size="14" font-style="italic" lengthAdjust="spacing" textLength="176.1893" x="48.02" y="189.5619">entity_metatype() : String [1]</text><ellipse cx="39.02" cy="202.4998" fill="#84BE84" rx="3" ry="3" style="stroke:#038048;stroke-width:1;"/><text fill="#808080" font-family="sans-serif" font-size="14" font-style="italic" lengthAdjust="spacing" textLength="155.7354" x="48.02" y="206.3618">is_abstract() : Boolean [1]</text><ellipse cx="39.02" cy="219.2997" fill="#84BE84" rx="3" ry="3" style="stroke:#038048;stroke-width:1;"/><text fill="#808080" font-family="sans-serif" font-size="14" font-style="italic" lengthAdjust="spacing" textLength="160.1734" x="48.02" y="223.1617">is_primitive() : Boolean [1]</text></g><!--class BMM_DEFINITIONS--><g class="entity" data-entity="BMM_DEFINITIONS" data-source-line="45" data-uid="ent0007" id="entity_BMM_DEFINITIONS"><rect fill="#F5F5F5" height="48" rx="2.5" ry="2.5" style="stroke:#808080;stroke-width:1;stroke-dasharray:1,3;" width="156.4035" x="168.91" y="7"/><ellipse cx="183.91" cy="23" fill="#ADD1B2" rx="11" ry="11" style="stroke:#181818;stroke-width:1;"/><path d="M183.91,29.4219 C185.0819,29.4219 186.3163,29.1563 187.6913,28.5469 L187.2069,27.0313 C186.1131,27.4531 185.0975,27.6406 184.2381,27.6406 C181.5194,27.6406 179.8006,25.7969 179.8006,22.8906 C179.8006,20.1406 181.3631,18.5469 184.0975,18.5469 C185.0194,18.5469 186.035,18.7344 187.1756,19.1563 L187.7538,17.6406 C186.66,17.0625 185.3631,16.7656 184.1756,16.7656 C180.41,16.7656 177.8319,19.4063 177.8319,23.2188 C177.8319,26.8906 180.3163,29.4219 183.91,29.4219 Z " fill="#000000"/><text fill="#808080" font-family="sans-serif" font-size="14" lengthAdjust="spacing" textLength="124.4035" x="197.91" y="28.362">BMM_DEFINITIONS</text><line style="stroke:#808080;stroke-width:1;stroke-dasharray:1,3;" x1="169.91" x2="324.3135" y1="39" y2="39"/><line style="stroke:#808080;stroke-width:1;stroke-dasharray:1,3;" x1="169.91" x2="324.3135" y1="47" y2="47"/></g><!--class BMM_MODEL_ELEMENT--><g class="entity" data-entity="BMM_MODEL_ELEMENT" data-source-line="52" data-uid="ent0010" id="entity_BMM_MODEL_ELEMENT"><rect fill="#F5F5F5" height="64.7999" rx="2.5" ry="2.5" style="stroke:#808080;stroke-width:1;stroke-dasharray:1,3;" width="202.3433" x="264.94" y="140.2"/><ellipse cx="286.0285" cy="156.2" fill="#A9DCDF" rx="11" ry="11" style="stroke:#181818;stroke-width:1;"/><path d="M280.5441,161.7 L282.5754,161.7 L286.6222,150.3563 L285.716,150.3563 L289.5441,161.7 L291.6847,161.7 L287.3566,149.3719 L285.1379,149.3719 L280.5441,161.7 Z M282.8722,158.2 L289.3097,158.2 L289.3097,156.45 L282.8722,156.45 L282.8722,158.2 Z " fill="#000000"/><text fill="#808080" font-family="sans-serif" font-size="14" font-style="italic" lengthAdjust="spacing" textLength="156.8134" x="301.3815" y="161.562">BMM_MODEL_ELEMENT</text><line style="stroke:#808080;stroke-width:1;stroke-dasharray:1,3;" x1="265.94" x2="466.2833" y1="172.2" y2="172.2"/><ellipse cx="275.94" cy="186.1" fill="none" rx="3" ry="3" style="stroke:#038048;stroke-width:1;"/><text fill="#808080" font-family="sans-serif" font-size="14" lengthAdjust="spacing" textLength="176.3433" x="284.94" y="189.9619">documentation : String [0..1]</text><line style="stroke:#808080;stroke-width:1;stroke-dasharray:1,3;" x1="265.94" x2="466.2833" y1="196.9999" y2="196.9999"/></g><!--reverse link BMM_DEFINITIONS to BMM_ENTITY--><g class="link" data-entity-1="BMM_DEFINITIONS" data-entity-2="BMM_ENTITY" data-source-line="48" data-uid="lnk8" id="link_BMM_DEFINITIONS_BMM_ENTITY"><path codeLine="48" d="M215.7403,69.1171 C202.0303,85.3371 194.76,93.94 177.21,114.7" fill="none" id="BMM_DEFINITIONS-backto-BMM_ENTITY" style="stroke:#181818;stroke-width:1;"/><polygon fill="none" points="227.36,55.37,211.1579,65.2438,220.3226,72.9903,227.36,55.37" style="stroke:#181818;stroke-width:1;"/></g><!--reverse link BMM_ENTITY to BMM_CLASS--><g class="link" data-entity-1="BMM_ENTITY" data-entity-2="BMM_CLASS" data-source-line="50" data-uid="lnk9" id="link_BMM_ENTITY_BMM_CLASS"><path codeLine="50" d="M158.9114,247.0418 C166.0814,264.7318 167.65,268.56 176.33,289.95" fill="none" id="BMM_ENTITY-backto-BMM_CLASS" style="stroke:#181818;stroke-width:1;"/><polygon fill="none" points="152.15,230.36,153.3508,249.2956,164.472,244.788,152.15,230.36" style="stroke:#181818;stroke-width:1;"/></g><!--reverse link BMM_DEFINITIONS to BMM_MODEL_ELEMENT--><g class="link" data-entity-1="BMM_DEFINITIONS" data-entity-2="BMM_MODEL_ELEMENT" data-source-line="59" data-uid="lnk11" id="link_BMM_DEFINITIONS_BMM_MODEL_ELEMENT"><path codeLine="59" d="M278.7081,69.0675 C298.4281,92.1975 317.08,114.08 338.99,139.78" fill="none" id="BMM_DEFINITIONS-backto-BMM_MODEL_ELEMENT" style="stroke:#181818;stroke-width:1;"/><polygon fill="none" points="267.03,55.37,274.1423,72.9602,283.2739,65.1748,267.03,55.37" style="stroke:#181818;stroke-width:1;"/></g><!--reverse link BMM_MODEL_ELEMENT to BMM_CLASS--><g class="link" data-entity-1="BMM_MODEL_ELEMENT" data-entity-2="BMM_CLASS" data-source-line="61" data-uid="lnk12" id="link_BMM_MODEL_ELEMENT_BMM_CLASS"><path codeLine="61" d="M346.3346,221.9398 C337.5146,243.4998 331.87,257.28 318.58,289.75" fill="none" id="BMM_MODEL_ELEMENT-backto-BMM_CLASS" style="stroke:#181818;stroke-width:1;"/><polygon fill="none" points="353.15,205.28,340.7813,219.668,351.8879,224.2116,353.15,205.28" style="stroke:#181818;stroke-width:1;"/></g><!--reverse link BMM_CLASS to BMM_SIMPLE_CLASS--><g class="link" data-entity-1="BMM_CLASS" data-entity-2="BMM_SIMPLE_CLASS" data-source-line="63" data-uid="lnk13" id="link_BMM_CLASS_BMM_SIMPLE_CLASS"><path codeLine="63" d="M247.11,659.09 C247.11,681.19 247.11,683.86 247.11,700.57" fill="none" id="BMM_CLASS-backto-BMM_SIMPLE_CLASS" style="stroke:#181818;stroke-width:1;"/><polygon fill="none" points="247.11,641.09,241.11,659.09,253.11,659.09,247.11,641.09" style="stroke:#181818;stroke-width:1;"/></g><!--reverse link BMM_SIMPLE_CLASS to BMM_ENUMERATION--><g class="link" data-entity-1="BMM_SIMPLE_CLASS" data-entity-2="BMM_ENUMERATION" data-source-line="65" data-uid="lnk14" id="link_BMM_SIMPLE_CLASS_BMM_ENUMERATION"><path codeLine="65" d="M247.11,800.68 C247.11,818.69 247.11,822.24 247.11,841.86" fill="none" id="BMM_SIMPLE_CLASS-backto-BMM_ENUMERATION" style="stroke:#181818;stroke-width:1;"/><polygon fill="none" points="247.11,782.68,241.11,800.68,253.11,800.68,247.11,782.68" style="stroke:#181818;stroke-width:1;"/></g><!--reverse link BMM_ENUMERATION to BMM_ENUMERATION_INTEGER--><g class="link" data-entity-1="BMM_ENUMERATION" data-entity-2="BMM_ENUMERATION_INTEGER" data-source-line="67" data-uid="lnk15" id="link_BMM_ENUMERATION_BMM_ENUMERATION_INTEGER"><path codeLine="67" d="M247.11,975.58 C247.11,996.41 247.11,1000.85 247.11,1017.11" fill="none" id="BMM_ENUMERATION-backto-BMM_ENUMERATION_INTEGER" style="stroke:#181818;stroke-width:1;"/><polygon fill="none" points="247.11,957.58,241.11,975.58,253.11,975.58,247.11,957.58" style="stroke:#181818;stroke-width:1;"/></g></g></svg>
