<svg xmlns="http://www.w3.org/2000/svg" xmlns:xlink="http://www.w3.org/1999/xlink" contentStyleType="text/css" data-diagram-type="CLASS" height="203px" preserveAspectRatio="none" style="width:259px;height:203px;background:#FFFFFF;" version="1.1" viewBox="0 0 259 203" width="259px" zoomAndPan="magnify"><defs/><g><!--class BMM_SCHEMA_METADATA_KEY--><g class="entity" data-entity="BMM_SCHEMA_METADATA_KEY" data-source-line="2" data-uid="ent0002" id="entity_BMM_SCHEMA_METADATA_KEY"><rect fill="#F1F1F1" height="182.3994" rx="2.5" ry="2.5" style="stroke:#181818;stroke-width:0.5;" width="238.8072" x="7" y="7"/><ellipse cx="22" cy="23" fill="#EB937F" rx="11" ry="11" style="stroke:#181818;stroke-width:1;"/><path d="M17.5625,29.5 L25.5,29.5 L25.5,27.75 L19.5,27.75 L19.5,24.0156 L25.0469,24.0156 L25.0469,22.25 L19.5,22.25 L19.5,18.9219 L25.5,18.9219 L25.5,17.1719 L17.5625,17.1719 L17.5625,29.5 Z " fill="#000000"/><text fill="#000000" font-family="sans-serif" font-size="14" lengthAdjust="spacing" textLength="206.8072" x="36" y="28.362">BMM_SCHEMA_METADATA_KEY</text><line style="stroke:#181818;stroke-width:0.5;" x1="8" x2="244.8072" y1="39" y2="39"/><text fill="#000000" font-family="sans-serif" font-size="14" lengthAdjust="spacing" textLength="84.9937" x="13" y="56.7619">bmm_version</text><text fill="#000000" font-family="sans-serif" font-size="14" lengthAdjust="spacing" textLength="104.8316" x="13" y="73.5619">model_publisher</text><text fill="#000000" font-family="sans-serif" font-size="14" lengthAdjust="spacing" textLength="89.8376" x="13" y="90.3618">schema_name</text><text fill="#000000" font-family="sans-serif" font-size="14" lengthAdjust="spacing" textLength="91.6156" x="13" y="107.1617">model_release</text><text fill="#000000" font-family="sans-serif" font-size="14" lengthAdjust="spacing" textLength="103.5856" x="13" y="123.9616">schema_revision</text><text fill="#000000" font-family="sans-serif" font-size="14" lengthAdjust="spacing" textLength="143.6674" x="13" y="140.7616">schema_lifecycle_state</text><text fill="#000000" font-family="sans-serif" font-size="14" lengthAdjust="spacing" textLength="124.4315" x="13" y="157.5615">schema_description</text><text fill="#000000" font-family="sans-serif" font-size="14" lengthAdjust="spacing" textLength="83.0897" x="13" y="174.3614">schema_path</text><line style="stroke:#181818;stroke-width:0.5;" x1="8" x2="244.8072" y1="181.3994" y2="181.3994"/></g></g></svg>
