<svg xmlns="http://www.w3.org/2000/svg" xmlns:xlink="http://www.w3.org/1999/xlink" contentStyleType="text/css" data-diagram-type="CLASS" height="604px" preserveAspectRatio="none" style="width:282px;height:604px;background:#FFFFFF;" version="1.1" viewBox="0 0 282 604" width="282px" zoomAndPan="magnify"><defs/><g><!--class BMM_CONTAINER_PROPERTY--><g class="entity" data-entity="BMM_CONTAINER_PROPERTY" data-source-line="2" data-uid="ent0002" id="entity_BMM_CONTAINER_PROPERTY"><rect fill="#F1F1F1" height="98.3998" rx="2.5" ry="2.5" style="stroke:#181818;stroke-width:0.5;" width="258.1331" x="10.25" y="499"/><ellipse cx="39.9065" cy="515" fill="#ADD1B2" rx="11" ry="11" style="stroke:#181818;stroke-width:1;"/><path d="M39.9065,521.4219 C41.0783,521.4219 42.3127,521.1563 43.6877,520.5469 L43.2033,519.0313 C42.1096,519.4531 41.094,519.6406 40.2346,519.6406 C37.5158,519.6406 35.7971,517.7969 35.7971,514.8906 C35.7971,512.1406 37.3596,510.5469 40.094,510.5469 C41.0158,510.5469 42.0315,510.7344 43.1721,511.1563 L43.7502,509.6406 C42.6565,509.0625 41.3596,508.7656 40.1721,508.7656 C36.4065,508.7656 33.8283,511.4063 33.8283,515.2188 C33.8283,518.8906 36.3127,521.4219 39.9065,521.4219 Z " fill="#000000"/><text fill="#000000" font-family="sans-serif" font-size="14" lengthAdjust="spacing" textLength="193.5632" x="57.1634" y="520.362">BMM_CONTAINER_PROPERTY</text><line style="stroke:#181818;stroke-width:0.5;" x1="11.25" x2="267.3831" y1="531" y2="531"/><ellipse cx="21.25" cy="544.9" fill="none" rx="3" ry="3" style="stroke:#038048;stroke-width:1;"/><text fill="#000000" font-family="sans-serif" font-size="14" lengthAdjust="spacing" textLength="213.0091" x="30.25" y="548.7619">type : BMM_CONTAINER_TYPE [1]</text><ellipse cx="21.25" cy="561.6999" fill="none" rx="3" ry="3" style="stroke:#038048;stroke-width:1;"/><text fill="#000000" font-family="sans-serif" font-size="14" lengthAdjust="spacing" textLength="232.1331" x="30.25" y="565.5619">cardinality : Multiplicity_interval [0..1]</text><line style="stroke:#181818;stroke-width:0.5;" x1="11.25" x2="267.3831" y1="572.5999" y2="572.5999"/><ellipse cx="21.25" cy="586.4998" fill="#84BE84" rx="3" ry="3" style="stroke:#038048;stroke-width:1;"/><text fill="#000000" font-family="sans-serif" font-size="14" lengthAdjust="spacing" textLength="160.0054" x="30.25" y="590.3618">display_name() : String [1]</text></g><!--class BMM_PROPERTY--><g class="entity" data-entity="BMM_PROPERTY" data-source-line="8" data-uid="ent0003" id="entity_BMM_PROPERTY"><rect fill="#F5F5F5" height="199.1993" rx="2.5" ry="2.5" style="stroke:#808080;stroke-width:1;stroke-dasharray:1,3;" width="264.643" x="7" y="239.8"/><ellipse cx="75.3697" cy="255.8" fill="#ADD1B2" rx="11" ry="11" style="stroke:#181818;stroke-width:1;"/><path d="M75.3697,262.2219 C76.5416,262.2219 77.776,261.9562 79.151,261.3469 L78.6666,259.8312 C77.5728,260.2531 76.5572,260.4406 75.6978,260.4406 C72.9791,260.4406 71.2603,258.5969 71.2603,255.6906 C71.2603,252.9406 72.8228,251.3469 75.5572,251.3469 C76.4791,251.3469 77.4947,251.5344 78.6353,251.9562 L79.2135,250.4406 C78.1197,249.8625 76.8228,249.5656 75.6353,249.5656 C71.8697,249.5656 69.2916,252.2062 69.2916,256.0187 C69.2916,259.6906 71.776,262.2219 75.3697,262.2219 Z " fill="#000000"/><text fill="#808080" font-family="sans-serif" font-size="14" lengthAdjust="spacing" textLength="108.6115" x="95.8697" y="261.162">BMM_PROPERTY</text><rect fill="#FFFFFF" height="16.4001" style="stroke:#181818;stroke-width:1;stroke-dasharray:2,2;" width="8.7921" x="265.851" y="236.8"/><text fill="#000000" font-family="sans-serif" font-size="12" font-style="italic" lengthAdjust="spacing" textLength="6.7921" x="266.851" y="249.5961">T</text><line style="stroke:#808080;stroke-width:1;stroke-dasharray:1,3;" x1="8" x2="270.643" y1="271.8" y2="271.8"/><ellipse cx="18" cy="285.7" fill="none" rx="3" ry="3" style="stroke:#038048;stroke-width:1;"/><text fill="#808080" font-family="sans-serif" font-size="14" lengthAdjust="spacing" textLength="100.8836" x="27" y="289.5619">name : String [1]</text><ellipse cx="18" cy="302.4999" fill="none" rx="3" ry="3" style="stroke:#038048;stroke-width:1;"/><text fill="#808080" font-family="sans-serif" font-size="14" lengthAdjust="spacing" textLength="179.9833" x="27" y="306.3619">is_mandatory : Boolean [0..1]</text><ellipse cx="18" cy="319.2998" fill="none" rx="3" ry="3" style="stroke:#038048;stroke-width:1;"/><text fill="#808080" font-family="sans-serif" font-size="14" lengthAdjust="spacing" textLength="175.4473" x="27" y="323.1618">is_computed : Boolean [0..1]</text><ellipse cx="18" cy="336.0997" fill="none" rx="3" ry="3" style="stroke:#038048;stroke-width:1;"/><text fill="#808080" font-family="sans-serif" font-size="14" lengthAdjust="spacing" textLength="63.6297" x="27" y="339.9617">type : T [1]</text><ellipse cx="18" cy="352.8997" fill="none" rx="3" ry="3" style="stroke:#038048;stroke-width:1;"/><text fill="#808080" font-family="sans-serif" font-size="14" lengthAdjust="spacing" textLength="184.5052" x="27" y="356.7616">is_im_runtime : Boolean [0..1]</text><ellipse cx="18" cy="369.6996" fill="none" rx="3" ry="3" style="stroke:#038048;stroke-width:1;"/><text fill="#808080" font-family="sans-serif" font-size="14" lengthAdjust="spacing" textLength="220.4851" x="27" y="373.5616">is_im_infrastructure : Boolean [0..1]</text><ellipse cx="18" cy="386.4995" fill="none" rx="3" ry="3" style="stroke:#038048;stroke-width:1;"/><text fill="#808080" font-family="sans-serif" font-size="14" lengthAdjust="spacing" textLength="238.643" x="27" y="390.3615">is_synthesised_generic : Boolean [0..1]</text><line style="stroke:#808080;stroke-width:1;stroke-dasharray:1,3;" x1="8" x2="270.643" y1="397.3995" y2="397.3995"/><ellipse cx="18" cy="411.2995" fill="#84BE84" rx="3" ry="3" style="stroke:#038048;stroke-width:1;"/><text fill="#808080" font-family="sans-serif" font-size="14" lengthAdjust="spacing" textLength="218.3852" x="27" y="415.1614">existence() : Multiplicity_interval [1]</text><ellipse cx="18" cy="428.0994" fill="#84BE84" rx="3" ry="3" style="stroke:#038048;stroke-width:1;"/><text fill="#808080" font-family="sans-serif" font-size="14" lengthAdjust="spacing" textLength="160.0054" x="27" y="431.9614">display_name() : String [1]</text></g><!--class BMM_MODEL_ELEMENT--><g class="entity" data-entity="BMM_MODEL_ELEMENT" data-source-line="20" data-uid="ent0004" id="entity_BMM_MODEL_ELEMENT"><rect fill="#F5F5F5" height="64.7999" rx="2.5" ry="2.5" style="stroke:#808080;stroke-width:1;stroke-dasharray:1,3;" width="202.3433" x="38.15" y="115"/><ellipse cx="59.2385" cy="131" fill="#A9DCDF" rx="11" ry="11" style="stroke:#181818;stroke-width:1;"/><path d="M53.7541,136.5 L55.7854,136.5 L59.8322,125.1563 L58.926,125.1563 L62.7541,136.5 L64.8947,136.5 L60.5666,124.1719 L58.3479,124.1719 L53.7541,136.5 Z M56.0822,133 L62.5197,133 L62.5197,131.25 L56.0822,131.25 L56.0822,133 Z " fill="#000000"/><text fill="#808080" font-family="sans-serif" font-size="14" font-style="italic" lengthAdjust="spacing" textLength="156.8134" x="74.5915" y="136.362">BMM_MODEL_ELEMENT</text><line style="stroke:#808080;stroke-width:1;stroke-dasharray:1,3;" x1="39.15" x2="239.4933" y1="147" y2="147"/><ellipse cx="49.15" cy="160.9" fill="none" rx="3" ry="3" style="stroke:#038048;stroke-width:1;"/><text fill="#808080" font-family="sans-serif" font-size="14" lengthAdjust="spacing" textLength="176.3433" x="58.15" y="164.7619">documentation : String [0..1]</text><line style="stroke:#808080;stroke-width:1;stroke-dasharray:1,3;" x1="39.15" x2="239.4933" y1="171.7999" y2="171.7999"/></g><!--class BMM_DEFINITIONS--><g class="entity" data-entity="BMM_DEFINITIONS" data-source-line="24" data-uid="ent0005" id="entity_BMM_DEFINITIONS"><rect fill="#F5F5F5" height="48" rx="2.5" ry="2.5" style="stroke:#808080;stroke-width:1;stroke-dasharray:1,3;" width="156.4035" x="61.12" y="7"/><ellipse cx="76.12" cy="23" fill="#ADD1B2" rx="11" ry="11" style="stroke:#181818;stroke-width:1;"/><path d="M76.12,29.4219 C77.2919,29.4219 78.5263,29.1563 79.9013,28.5469 L79.4169,27.0313 C78.3231,27.4531 77.3075,27.6406 76.4481,27.6406 C73.7294,27.6406 72.0106,25.7969 72.0106,22.8906 C72.0106,20.1406 73.5731,18.5469 76.3075,18.5469 C77.2294,18.5469 78.245,18.7344 79.3856,19.1563 L79.9638,17.6406 C78.87,17.0625 77.5731,16.7656 76.3856,16.7656 C72.62,16.7656 70.0419,19.4063 70.0419,23.2188 C70.0419,26.8906 72.5263,29.4219 76.12,29.4219 Z " fill="#000000"/><text fill="#808080" font-family="sans-serif" font-size="14" lengthAdjust="spacing" textLength="124.4035" x="90.12" y="28.362">BMM_DEFINITIONS</text><line style="stroke:#808080;stroke-width:1;stroke-dasharray:1,3;" x1="62.12" x2="216.5235" y1="39" y2="39"/><line style="stroke:#808080;stroke-width:1;stroke-dasharray:1,3;" x1="62.12" x2="216.5235" y1="47" y2="47"/></g><!--reverse link BMM_DEFINITIONS to BMM_MODEL_ELEMENT--><g class="link" data-entity-1="BMM_DEFINITIONS" data-entity-2="BMM_MODEL_ELEMENT" data-source-line="27" data-uid="lnk6" id="link_BMM_DEFINITIONS_BMM_MODEL_ELEMENT"><path codeLine="27" d="M139.32,73.43 C139.32,90.55 139.32,95.97 139.32,114.76" fill="none" id="BMM_DEFINITIONS-backto-BMM_MODEL_ELEMENT" style="stroke:#181818;stroke-width:1;"/><polygon fill="none" points="139.32,55.43,133.32,73.43,145.32,73.43,139.32,55.43" style="stroke:#181818;stroke-width:1;"/></g><!--reverse link BMM_MODEL_ELEMENT to BMM_PROPERTY--><g class="link" data-entity-1="BMM_MODEL_ELEMENT" data-entity-2="BMM_PROPERTY" data-source-line="29" data-uid="lnk7" id="link_BMM_MODEL_ELEMENT_BMM_PROPERTY"><path codeLine="29" d="M139.32,198.2 C139.32,214.79 139.32,218.08 139.32,239.63" fill="none" id="BMM_MODEL_ELEMENT-backto-BMM_PROPERTY" style="stroke:#181818;stroke-width:1;"/><polygon fill="none" points="139.32,180.2,133.32,198.2,145.32,198.2,139.32,180.2" style="stroke:#181818;stroke-width:1;"/></g><!--reverse link BMM_PROPERTY to BMM_CONTAINER_PROPERTY--><g class="link" data-entity-1="BMM_PROPERTY" data-entity-2="BMM_CONTAINER_PROPERTY" data-source-line="31" data-uid="lnk8" id="link_BMM_PROPERTY_BMM_CONTAINER_PROPERTY"><path codeLine="31" d="M139.32,457.26 C139.32,477.92 139.32,480.83 139.32,498.67" fill="none" id="BMM_PROPERTY-backto-BMM_CONTAINER_PROPERTY" style="stroke:#181818;stroke-width:1;"/><polygon fill="none" points="139.32,439.26,133.32,457.26,145.32,457.26,139.32,439.26" style="stroke:#181818;stroke-width:1;"/></g></g></svg>
