<svg xmlns="http://www.w3.org/2000/svg" xmlns:xlink="http://www.w3.org/1999/xlink" contentStyleType="text/css" data-diagram-type="CLASS" height="237px" preserveAspectRatio="none" style="width:216px;height:237px;background:#FFFFFF;" version="1.1" viewBox="0 0 216 237" width="216px" zoomAndPan="magnify"><defs/><g><!--class BMM_ENTITY--><g class="entity" data-entity="BMM_ENTITY" data-source-line="2" data-uid="ent0002" id="entity_BMM_ENTITY"><rect fill="#F1F1F1" height="115.1997" rx="2.5" ry="2.5" style="stroke:#181818;stroke-width:0.5;" width="202.1893" x="7" y="115"/><ellipse cx="60.7178" cy="131" fill="#A9DCDF" rx="11" ry="11" style="stroke:#181818;stroke-width:1;"/><path d="M55.2335,136.5 L57.2647,136.5 L61.3116,125.1563 L60.4053,125.1563 L64.2335,136.5 L66.3741,136.5 L62.046,124.1719 L59.8272,124.1719 L55.2335,136.5 Z M57.5616,133 L63.9991,133 L63.9991,131.25 L57.5616,131.25 L57.5616,133 Z " fill="#000000"/><text fill="#000000" font-family="sans-serif" font-size="14" font-style="italic" lengthAdjust="spacing" textLength="86.2536" x="81.2178" y="136.362">BMM_ENTITY</text><line style="stroke:#181818;stroke-width:0.5;" x1="8" x2="208.1893" y1="147" y2="147"/><line style="stroke:#181818;stroke-width:0.5;" x1="8" x2="208.1893" y1="155" y2="155"/><ellipse cx="18" cy="168.9" fill="#84BE84" rx="3" ry="3" style="stroke:#038048;stroke-width:1;"/><text fill="#000000" font-family="sans-serif" font-size="14" font-style="italic" lengthAdjust="spacing" textLength="171.0794" x="27" y="172.7619">entity_category() : String [1]</text><ellipse cx="18" cy="185.6999" fill="#84BE84" rx="3" ry="3" style="stroke:#038048;stroke-width:1;"/><text fill="#000000" font-family="sans-serif" font-size="14" font-style="italic" lengthAdjust="spacing" textLength="176.1893" x="27" y="189.5619">entity_metatype() : String [1]</text><ellipse cx="18" cy="202.4998" fill="#84BE84" rx="3" ry="3" style="stroke:#038048;stroke-width:1;"/><text fill="#000000" font-family="sans-serif" font-size="14" font-style="italic" lengthAdjust="spacing" textLength="155.7354" x="27" y="206.3618">is_abstract() : Boolean [1]</text><ellipse cx="18" cy="219.2997" fill="#84BE84" rx="3" ry="3" style="stroke:#038048;stroke-width:1;"/><text fill="#000000" font-family="sans-serif" font-size="14" font-style="italic" lengthAdjust="spacing" textLength="160.1734" x="27" y="223.1617">is_primitive() : Boolean [1]</text></g><!--class BMM_DEFINITIONS--><g class="entity" data-entity="BMM_DEFINITIONS" data-source-line="9" data-uid="ent0003" id="entity_BMM_DEFINITIONS"><rect fill="#F5F5F5" height="48" rx="2.5" ry="2.5" style="stroke:#808080;stroke-width:1;stroke-dasharray:1,3;" width="156.4035" x="29.89" y="7"/><ellipse cx="44.89" cy="23" fill="#ADD1B2" rx="11" ry="11" style="stroke:#181818;stroke-width:1;"/><path d="M44.89,29.4219 C46.0619,29.4219 47.2963,29.1563 48.6713,28.5469 L48.1869,27.0313 C47.0931,27.4531 46.0775,27.6406 45.2181,27.6406 C42.4994,27.6406 40.7806,25.7969 40.7806,22.8906 C40.7806,20.1406 42.3431,18.5469 45.0775,18.5469 C45.9994,18.5469 47.015,18.7344 48.1556,19.1563 L48.7338,17.6406 C47.64,17.0625 46.3431,16.7656 45.1556,16.7656 C41.39,16.7656 38.8119,19.4063 38.8119,23.2188 C38.8119,26.8906 41.2963,29.4219 44.89,29.4219 Z " fill="#000000"/><text fill="#808080" font-family="sans-serif" font-size="14" lengthAdjust="spacing" textLength="124.4035" x="58.89" y="28.362">BMM_DEFINITIONS</text><line style="stroke:#808080;stroke-width:1;stroke-dasharray:1,3;" x1="30.89" x2="185.2935" y1="39" y2="39"/><line style="stroke:#808080;stroke-width:1;stroke-dasharray:1,3;" x1="30.89" x2="185.2935" y1="47" y2="47"/></g><!--reverse link BMM_DEFINITIONS to BMM_ENTITY--><g class="link" data-entity-1="BMM_DEFINITIONS" data-entity-2="BMM_ENTITY" data-source-line="12" data-uid="lnk4" id="link_BMM_DEFINITIONS_BMM_ENTITY"><path codeLine="12" d="M108.09,73.37 C108.09,89.59 108.09,93.93 108.09,114.7" fill="none" id="BMM_DEFINITIONS-backto-BMM_ENTITY" style="stroke:#181818;stroke-width:1;"/><polygon fill="none" points="108.09,55.37,102.09,73.37,114.09,73.37,108.09,55.37" style="stroke:#181818;stroke-width:1;"/></g></g></svg>
