<svg xmlns="http://www.w3.org/2000/svg" xmlns:xlink="http://www.w3.org/1999/xlink" contentStyleType="text/css" data-diagram-type="CLASS" height="321px" preserveAspectRatio="none" style="width:700px;height:321px;background:#FFFFFF;" version="1.1" viewBox="0 0 700 321" width="700px" zoomAndPan="magnify"><defs/><g><!--class BMM_MODEL_ACCESS--><g class="entity" data-entity="BMM_MODEL_ACCESS" data-source-line="2" data-uid="ent0002" id="entity_BMM_MODEL_ACCESS"><rect fill="#F1F1F1" height="199.1993" rx="2.5" ry="2.5" style="stroke:#181818;stroke-width:0.5;" width="686.4891" x="7" y="115"/><ellipse cx="273.3769" cy="131" fill="#ADD1B2" rx="11" ry="11" style="stroke:#181818;stroke-width:1;"/><path d="M273.3769,137.4219 C274.5487,137.4219 275.7831,137.1563 277.1581,136.5469 L276.6737,135.0313 C275.58,135.4531 274.5644,135.6406 273.705,135.6406 C270.9862,135.6406 269.2675,133.7969 269.2675,130.8906 C269.2675,128.1406 270.83,126.5469 273.5644,126.5469 C274.4862,126.5469 275.5019,126.7344 276.6425,127.1563 L277.2206,125.6406 C276.1269,125.0625 274.83,124.7656 273.6425,124.7656 C269.8769,124.7656 267.2987,127.4063 267.2987,131.2188 C267.2987,134.8906 269.7831,137.4219 273.3769,137.4219 Z " fill="#000000"/><text fill="#000000" font-family="sans-serif" font-size="14" lengthAdjust="spacing" textLength="145.2354" x="293.8769" y="136.362">BMM_MODEL_ACCESS</text><line style="stroke:#181818;stroke-width:0.5;" x1="8" x2="692.4891" y1="147" y2="147"/><ellipse cx="18" cy="160.9" fill="none" rx="3" ry="3" style="stroke:#038048;stroke-width:1;"/><text fill="#000000" font-family="sans-serif" font-size="14" lengthAdjust="spacing" textLength="226.1131" x="27" y="164.7619">schema_directories : List&lt;String&gt; [*]</text><ellipse cx="18" cy="177.6999" fill="none" rx="3" ry="3" style="stroke:#038048;stroke-width:1;"/><text fill="#000000" font-family="sans-serif" font-size="14" lengthAdjust="spacing" textLength="181.3273" x="27" y="181.5619">all_schemas : List&lt;String&gt; [*]</text><ellipse cx="18" cy="194.4998" fill="none" rx="3" ry="3" style="stroke:#038048;stroke-width:1;"/><text fill="#000000" font-family="sans-serif" font-size="14" lengthAdjust="spacing" textLength="306.9067" x="27" y="198.3618">bmm_models : Hash&lt;String,BMM_MODEL&gt; [0..1]</text><ellipse cx="18" cy="211.2997" fill="none" rx="3" ry="3" style="stroke:#038048;stroke-width:1;"/><text fill="#000000" font-family="sans-serif" font-size="14" lengthAdjust="spacing" textLength="256.297" x="27" y="215.1617">matching_bmm_models : List&lt;String&gt; [*]</text><line style="stroke:#181818;stroke-width:0.5;" x1="8" x2="692.4891" y1="222.1997" y2="222.1997"/><ellipse cx="18" cy="236.0997" fill="#84BE84" rx="3" ry="3" style="stroke:#038048;stroke-width:1;"/><text fill="#000000" font-family="sans-serif" font-size="14" lengthAdjust="spacing" textLength="660.4891" x="27" y="239.9616">initialise_with_load_list( a_schema_dirs : List&lt;String&gt; [1], a_schema_load_list : List&lt;String&gt; [0..1] ) : void [1]</text><ellipse cx="18" cy="252.8996" fill="#84BE84" rx="3" ry="3" style="stroke:#038048;stroke-width:1;"/><text fill="#000000" font-family="sans-serif" font-size="14" lengthAdjust="spacing" textLength="339.4846" x="27" y="256.7616">initialise_all( a_schema_dirs : List&lt;String&gt; [1] ) : void [1]</text><ellipse cx="18" cy="269.6995" fill="#84BE84" rx="3" ry="3" style="stroke:#038048;stroke-width:1;"/><text fill="#000000" font-family="sans-serif" font-size="14" lengthAdjust="spacing" textLength="164.1353" x="27" y="273.5615">reload_schemas() : void [1]</text><ellipse cx="18" cy="286.4995" fill="#84BE84" rx="3" ry="3" style="stroke:#038048;stroke-width:1;"/><text fill="#000000" font-family="sans-serif" font-size="14" lengthAdjust="spacing" textLength="358.1186" x="27" y="290.3614">bmm_model( a_model_key : String [1] ) : BMM_MODEL [1]</text><ellipse cx="18" cy="303.2994" fill="#84BE84" rx="3" ry="3" style="stroke:#038048;stroke-width:1;"/><text fill="#000000" font-family="sans-serif" font-size="14" lengthAdjust="spacing" textLength="350.0546" x="27" y="307.1614">has_bmm_model( a_model_key : String [1] ) : Boolean [1]</text></g><!--class BMM_DEFINITIONS--><g class="entity" data-entity="BMM_DEFINITIONS" data-source-line="14" data-uid="ent0003" id="entity_BMM_DEFINITIONS"><rect fill="#F5F5F5" height="48" rx="2.5" ry="2.5" style="stroke:#808080;stroke-width:1;stroke-dasharray:1,3;" width="156.4035" x="272.04" y="7"/><ellipse cx="287.04" cy="23" fill="#ADD1B2" rx="11" ry="11" style="stroke:#181818;stroke-width:1;"/><path d="M287.04,29.4219 C288.2119,29.4219 289.4463,29.1563 290.8213,28.5469 L290.3369,27.0313 C289.2431,27.4531 288.2275,27.6406 287.3681,27.6406 C284.6494,27.6406 282.9306,25.7969 282.9306,22.8906 C282.9306,20.1406 284.4931,18.5469 287.2275,18.5469 C288.1494,18.5469 289.165,18.7344 290.3056,19.1563 L290.8838,17.6406 C289.79,17.0625 288.4931,16.7656 287.3056,16.7656 C283.54,16.7656 280.9619,19.4063 280.9619,23.2188 C280.9619,26.8906 283.4463,29.4219 287.04,29.4219 Z " fill="#000000"/><text fill="#808080" font-family="sans-serif" font-size="14" lengthAdjust="spacing" textLength="124.4035" x="301.04" y="28.362">BMM_DEFINITIONS</text><line style="stroke:#808080;stroke-width:1;stroke-dasharray:1,3;" x1="273.04" x2="427.4435" y1="39" y2="39"/><line style="stroke:#808080;stroke-width:1;stroke-dasharray:1,3;" x1="273.04" x2="427.4435" y1="47" y2="47"/></g><!--reverse link BMM_DEFINITIONS to BMM_MODEL_ACCESS--><g class="link" data-entity-1="BMM_DEFINITIONS" data-entity-2="BMM_MODEL_ACCESS" data-source-line="17" data-uid="lnk4" id="link_BMM_DEFINITIONS_BMM_MODEL_ACCESS"><path codeLine="17" d="M350.24,73.37 C350.24,88.89 350.24,92.43 350.24,114.62" fill="none" id="BMM_DEFINITIONS-backto-BMM_MODEL_ACCESS" style="stroke:#181818;stroke-width:1;"/><polygon fill="none" points="350.24,55.37,344.24,73.37,356.24,73.37,350.24,55.37" style="stroke:#181818;stroke-width:1;"/></g></g></svg>
