<svg xmlns="http://www.w3.org/2000/svg" xmlns:xlink="http://www.w3.org/1999/xlink" contentStyleType="text/css" data-diagram-type="CLASS" height="921px" preserveAspectRatio="none" style="width:338px;height:921px;background:#FFFFFF;" version="1.1" viewBox="0 0 338 921" width="338px" zoomAndPan="magnify"><defs/><g><!--class BMM_SIMPLE_TYPE--><g class="entity" data-entity="BMM_SIMPLE_TYPE" data-source-line="2" data-uid="ent0002" id="entity_BMM_SIMPLE_TYPE"><rect fill="#F1F1F1" height="148.7996" rx="2.5" ry="2.5" style="stroke:#181818;stroke-width:0.5;" width="324.3108" x="7" y="765.4"/><ellipse cx="101.7167" cy="781.4" fill="#ADD1B2" rx="11" ry="11" style="stroke:#181818;stroke-width:1;"/><path d="M101.7167,787.8219 C102.8885,787.8219 104.1229,787.5563 105.4979,786.9469 L105.0135,785.4313 C103.9198,785.8531 102.9042,786.0406 102.0448,786.0406 C99.326,786.0406 97.6073,784.1969 97.6073,781.2906 C97.6073,778.5406 99.1698,776.9469 101.9042,776.9469 C102.826,776.9469 103.8417,777.1344 104.9823,777.5563 L105.5604,776.0406 C104.4667,775.4625 103.1698,775.1656 101.9823,775.1656 C98.2167,775.1656 95.6385,777.8063 95.6385,781.6188 C95.6385,785.2906 98.1229,787.8219 101.7167,787.8219 Z " fill="#000000"/><text fill="#000000" font-family="sans-serif" font-size="14" lengthAdjust="spacing" textLength="126.3775" x="122.2167" y="786.762">BMM_SIMPLE_TYPE</text><line style="stroke:#181818;stroke-width:0.5;" x1="8" x2="330.3108" y1="797.4" y2="797.4"/><line style="stroke:#181818;stroke-width:0.5;" x1="8" x2="330.3108" y1="805.4" y2="805.4"/><ellipse cx="18" cy="819.3" fill="#84BE84" rx="3" ry="3" style="stroke:#038048;stroke-width:1;"/><text fill="#000000" font-family="sans-serif" font-size="14" lengthAdjust="spacing" textLength="143.4715" x="27" y="823.1619">type_name() : String [1]</text><ellipse cx="18" cy="836.0999" fill="#84BE84" rx="3" ry="3" style="stroke:#038048;stroke-width:1;"/><text fill="#000000" font-family="sans-serif" font-size="14" lengthAdjust="spacing" textLength="155.7354" x="27" y="839.9619">is_abstract() : Boolean [1]</text><ellipse cx="18" cy="852.8998" fill="#84BE84" rx="3" ry="3" style="stroke:#038048;stroke-width:1;"/><text fill="#000000" font-family="sans-serif" font-size="14" lengthAdjust="spacing" textLength="243.1371" x="27" y="856.7618">flattened_type_list() : List&lt;String&gt; [1..*]</text><ellipse cx="18" cy="869.6997" fill="#84BE84" rx="3" ry="3" style="stroke:#038048;stroke-width:1;"/><text fill="#000000" font-family="sans-serif" font-size="14" lengthAdjust="spacing" textLength="182.4053" x="27" y="873.5617">subtypes() : List&lt;String&gt; [1..*]</text><ellipse cx="18" cy="886.4997" fill="#84BE84" rx="3" ry="3" style="stroke:#038048;stroke-width:1;"/><text fill="#000000" font-family="sans-serif" font-size="14" lengthAdjust="spacing" textLength="172.6053" x="27" y="890.3616">has_subtypes() : Boolean [1]</text><ellipse cx="18" cy="903.2996" fill="#84BE84" rx="3" ry="3" style="stroke:#038048;stroke-width:1;"/><text fill="#000000" font-family="sans-serif" font-size="14" lengthAdjust="spacing" textLength="298.3108" x="27" y="907.1616">effective_base_class() : BMM_SIMPLE_CLASS [1]</text></g><!--class BMM_DEFINED_TYPE--><g class="entity" data-entity="BMM_DEFINED_TYPE" data-source-line="11" data-uid="ent0003" id="entity_BMM_DEFINED_TYPE"><rect fill="#F5F5F5" height="64.7999" rx="2.5" ry="2.5" style="stroke:#808080;stroke-width:1;stroke-dasharray:1,3;" width="201.4053" x="68.45" y="640.6"/><ellipse cx="97.7032" cy="656.6" fill="#A9DCDF" rx="11" ry="11" style="stroke:#181818;stroke-width:1;"/><path d="M92.2189,662.1 L94.2501,662.1 L98.297,650.7563 L97.3907,650.7563 L101.2189,662.1 L103.3595,662.1 L99.0314,649.7719 L96.8126,649.7719 L92.2189,662.1 Z M94.547,658.6 L100.9845,658.6 L100.9845,656.85 L94.547,656.85 L94.547,658.6 Z " fill="#000000"/><text fill="#808080" font-family="sans-serif" font-size="14" font-style="italic" lengthAdjust="spacing" textLength="137.7314" x="114.8706" y="661.962">BMM_DEFINED_TYPE</text><line style="stroke:#808080;stroke-width:1;stroke-dasharray:1,3;" x1="69.45" x2="268.8553" y1="672.6" y2="672.6"/><ellipse cx="79.45" cy="686.5" fill="none" rx="3" ry="3" style="stroke:#038048;stroke-width:1;"/><text fill="#808080" font-family="sans-serif" font-size="14" lengthAdjust="spacing" textLength="175.4053" x="88.45" y="690.3619">base_class : BMM_CLASS [1]</text><line style="stroke:#808080;stroke-width:1;stroke-dasharray:1,3;" x1="69.45" x2="268.8553" y1="697.3999" y2="697.3999"/></g><!--class BMM_UNITARY_TYPE--><g class="entity" data-entity="BMM_UNITARY_TYPE" data-source-line="15" data-uid="ent0004" id="entity_BMM_UNITARY_TYPE"><rect fill="#F5F5F5" height="48" rx="2.5" ry="2.5" style="stroke:#808080;stroke-width:1;stroke-dasharray:1,3;" width="168.4714" x="84.92" y="532.6"/><ellipse cx="99.92" cy="548.6" fill="#A9DCDF" rx="11" ry="11" style="stroke:#181818;stroke-width:1;"/><path d="M94.4356,554.1 L96.4669,554.1 L100.5138,542.7563 L99.6075,542.7563 L103.4356,554.1 L105.5763,554.1 L101.2481,541.7719 L99.0294,541.7719 L94.4356,554.1 Z M96.7638,550.6 L103.2013,550.6 L103.2013,548.85 L96.7638,548.85 L96.7638,550.6 Z " fill="#000000"/><text fill="#808080" font-family="sans-serif" font-size="14" font-style="italic" lengthAdjust="spacing" textLength="136.4714" x="113.92" y="553.962">BMM_UNITARY_TYPE</text><line style="stroke:#808080;stroke-width:1;stroke-dasharray:1,3;" x1="85.92" x2="252.3914" y1="564.6" y2="564.6"/><line style="stroke:#808080;stroke-width:1;stroke-dasharray:1,3;" x1="85.92" x2="252.3914" y1="572.6" y2="572.6"/></g><!--class BMM_TYPE--><g class="entity" data-entity="BMM_TYPE" data-source-line="18" data-uid="ent0005" id="entity_BMM_TYPE"><rect fill="#F5F5F5" height="182.3994" rx="2.5" ry="2.5" style="stroke:#808080;stroke-width:1;stroke-dasharray:1,3;" width="270.285" x="34.01" y="290.2"/><ellipse cx="128.7267" cy="306.2" fill="#A9DCDF" rx="11" ry="11" style="stroke:#181818;stroke-width:1;"/><path d="M123.2423,311.7 L125.2735,311.7 L129.3204,300.3563 L128.4142,300.3563 L132.2423,311.7 L134.3829,311.7 L130.0548,299.3719 L127.836,299.3719 L123.2423,311.7 Z M125.5704,308.2 L132.0079,308.2 L132.0079,306.45 L125.5704,306.45 L125.5704,308.2 Z " fill="#000000"/><text fill="#808080" font-family="sans-serif" font-size="14" font-style="italic" lengthAdjust="spacing" textLength="72.3517" x="149.2267" y="311.562">BMM_TYPE</text><line style="stroke:#808080;stroke-width:1;stroke-dasharray:1,3;" x1="35.01" x2="303.295" y1="322.2" y2="322.2"/><line style="stroke:#808080;stroke-width:1;stroke-dasharray:1,3;" x1="35.01" x2="303.295" y1="330.2" y2="330.2"/><ellipse cx="45.01" cy="344.1" fill="#84BE84" rx="3" ry="3" style="stroke:#038048;stroke-width:1;"/><text fill="#808080" font-family="sans-serif" font-size="14" font-style="italic" lengthAdjust="spacing" textLength="244.285" x="54.01" y="347.9619">effective_base_class() : BMM_CLASS [1]</text><ellipse cx="45.01" cy="360.8999" fill="#84BE84" rx="3" ry="3" style="stroke:#038048;stroke-width:1;"/><text fill="#808080" font-family="sans-serif" font-size="14" font-style="italic" lengthAdjust="spacing" textLength="143.4715" x="54.01" y="364.7619">type_name() : String [1]</text><ellipse cx="45.01" cy="377.6998" fill="#84BE84" rx="3" ry="3" style="stroke:#038048;stroke-width:1;"/><text fill="#808080" font-family="sans-serif" font-size="14" font-style="italic" lengthAdjust="spacing" textLength="172.6053" x="54.01" y="381.5618">has_subtypes() : Boolean [1]</text><ellipse cx="45.01" cy="394.4997" fill="#84BE84" rx="3" ry="3" style="stroke:#038048;stroke-width:1;"/><text fill="#808080" font-family="sans-serif" font-size="14" font-style="italic" lengthAdjust="spacing" textLength="182.4053" x="54.01" y="398.3617">subtypes() : List&lt;String&gt; [1..*]</text><ellipse cx="45.01" cy="411.2997" fill="#84BE84" rx="3" ry="3" style="stroke:#038048;stroke-width:1;"/><text fill="#808080" font-family="sans-serif" font-size="14" font-style="italic" lengthAdjust="spacing" textLength="243.1371" x="54.01" y="415.1616">flattened_type_list() : List&lt;String&gt; [1..*]</text><ellipse cx="45.01" cy="428.0996" fill="#84BE84" rx="3" ry="3" style="stroke:#038048;stroke-width:1;"/><text fill="#808080" font-family="sans-serif" font-size="14" lengthAdjust="spacing" textLength="167.1314" x="54.01" y="431.9616">type_signature() : String [1]</text><ellipse cx="45.01" cy="444.8995" fill="#84BE84" rx="3" ry="3" style="stroke:#038048;stroke-width:1;"/><text fill="#808080" font-family="sans-serif" font-size="14" lengthAdjust="spacing" textLength="160.1734" x="54.01" y="448.7615">is_primitive() : Boolean [1]</text><ellipse cx="45.01" cy="461.6995" fill="#84BE84" rx="3" ry="3" style="stroke:#038048;stroke-width:1;"/><text fill="#808080" font-family="sans-serif" font-size="14" lengthAdjust="spacing" textLength="176.1893" x="54.01" y="465.5614">entity_metatype() : String [1]</text></g><!--class BMM_ENTITY--><g class="entity" data-entity="BMM_ENTITY" data-source-line="29" data-uid="ent0006" id="entity_BMM_ENTITY"><rect fill="#F5F5F5" height="115.1997" rx="2.5" ry="2.5" style="stroke:#808080;stroke-width:1;stroke-dasharray:1,3;" width="202.1893" x="68.06" y="115"/><ellipse cx="121.7778" cy="131" fill="#A9DCDF" rx="11" ry="11" style="stroke:#181818;stroke-width:1;"/><path d="M116.2935,136.5 L118.3247,136.5 L122.3716,125.1563 L121.4653,125.1563 L125.2935,136.5 L127.4341,136.5 L123.106,124.1719 L120.8872,124.1719 L116.2935,136.5 Z M118.6216,133 L125.0591,133 L125.0591,131.25 L118.6216,131.25 L118.6216,133 Z " fill="#000000"/><text fill="#808080" font-family="sans-serif" font-size="14" font-style="italic" lengthAdjust="spacing" textLength="86.2536" x="142.2778" y="136.362">BMM_ENTITY</text><line style="stroke:#808080;stroke-width:1;stroke-dasharray:1,3;" x1="69.06" x2="269.2493" y1="147" y2="147"/><line style="stroke:#808080;stroke-width:1;stroke-dasharray:1,3;" x1="69.06" x2="269.2493" y1="155" y2="155"/><ellipse cx="79.06" cy="168.9" fill="#84BE84" rx="3" ry="3" style="stroke:#038048;stroke-width:1;"/><text fill="#808080" font-family="sans-serif" font-size="14" font-style="italic" lengthAdjust="spacing" textLength="171.0794" x="88.06" y="172.7619">entity_category() : String [1]</text><ellipse cx="79.06" cy="185.6999" fill="#84BE84" rx="3" ry="3" style="stroke:#038048;stroke-width:1;"/><text fill="#808080" font-family="sans-serif" font-size="14" font-style="italic" lengthAdjust="spacing" textLength="176.1893" x="88.06" y="189.5619">entity_metatype() : String [1]</text><ellipse cx="79.06" cy="202.4998" fill="#84BE84" rx="3" ry="3" style="stroke:#038048;stroke-width:1;"/><text fill="#808080" font-family="sans-serif" font-size="14" font-style="italic" lengthAdjust="spacing" textLength="155.7354" x="88.06" y="206.3618">is_abstract() : Boolean [1]</text><ellipse cx="79.06" cy="219.2997" fill="#84BE84" rx="3" ry="3" style="stroke:#038048;stroke-width:1;"/><text fill="#808080" font-family="sans-serif" font-size="14" font-style="italic" lengthAdjust="spacing" textLength="160.1734" x="88.06" y="223.1617">is_primitive() : Boolean [1]</text></g><!--class BMM_DEFINITIONS--><g class="entity" data-entity="BMM_DEFINITIONS" data-source-line="36" data-uid="ent0007" id="entity_BMM_DEFINITIONS"><rect fill="#F5F5F5" height="48" rx="2.5" ry="2.5" style="stroke:#808080;stroke-width:1;stroke-dasharray:1,3;" width="156.4035" x="90.95" y="7"/><ellipse cx="105.95" cy="23" fill="#ADD1B2" rx="11" ry="11" style="stroke:#181818;stroke-width:1;"/><path d="M105.95,29.4219 C107.1219,29.4219 108.3563,29.1563 109.7313,28.5469 L109.2469,27.0313 C108.1531,27.4531 107.1375,27.6406 106.2781,27.6406 C103.5594,27.6406 101.8406,25.7969 101.8406,22.8906 C101.8406,20.1406 103.4031,18.5469 106.1375,18.5469 C107.0594,18.5469 108.075,18.7344 109.2156,19.1563 L109.7938,17.6406 C108.7,17.0625 107.4031,16.7656 106.2156,16.7656 C102.45,16.7656 99.8719,19.4063 99.8719,23.2188 C99.8719,26.8906 102.3563,29.4219 105.95,29.4219 Z " fill="#000000"/><text fill="#808080" font-family="sans-serif" font-size="14" lengthAdjust="spacing" textLength="124.4035" x="119.95" y="28.362">BMM_DEFINITIONS</text><line style="stroke:#808080;stroke-width:1;stroke-dasharray:1,3;" x1="91.95" x2="246.3535" y1="39" y2="39"/><line style="stroke:#808080;stroke-width:1;stroke-dasharray:1,3;" x1="91.95" x2="246.3535" y1="47" y2="47"/></g><!--reverse link BMM_DEFINITIONS to BMM_ENTITY--><g class="link" data-entity-1="BMM_DEFINITIONS" data-entity-2="BMM_ENTITY" data-source-line="39" data-uid="lnk8" id="link_BMM_DEFINITIONS_BMM_ENTITY"><path codeLine="39" d="M169.16,73.37 C169.16,89.59 169.16,93.94 169.16,114.7" fill="none" id="BMM_DEFINITIONS-backto-BMM_ENTITY" style="stroke:#181818;stroke-width:1;"/><polygon fill="none" points="169.16,55.37,163.16,73.37,175.16,73.37,169.16,55.37" style="stroke:#181818;stroke-width:1;"/></g><!--reverse link BMM_ENTITY to BMM_TYPE--><g class="link" data-entity-1="BMM_ENTITY" data-entity-2="BMM_TYPE" data-source-line="41" data-uid="lnk9" id="link_BMM_ENTITY_BMM_TYPE"><path codeLine="41" d="M169.16,248.66 C169.16,266.95 169.16,269.68 169.16,289.76" fill="none" id="BMM_ENTITY-backto-BMM_TYPE" style="stroke:#181818;stroke-width:1;"/><polygon fill="none" points="169.16,230.66,163.16,248.66,175.16,248.66,169.16,230.66" style="stroke:#181818;stroke-width:1;"/></g><!--reverse link BMM_TYPE to BMM_UNITARY_TYPE--><g class="link" data-entity-1="BMM_TYPE" data-entity-2="BMM_UNITARY_TYPE" data-source-line="43" data-uid="lnk10" id="link_BMM_TYPE_BMM_UNITARY_TYPE"><path codeLine="43" d="M169.16,491.06 C169.16,512.99 169.16,516.58 169.16,532.17" fill="none" id="BMM_TYPE-backto-BMM_UNITARY_TYPE" style="stroke:#181818;stroke-width:1;"/><polygon fill="none" points="169.16,473.06,163.16,491.06,175.16,491.06,169.16,473.06" style="stroke:#181818;stroke-width:1;"/></g><!--reverse link BMM_UNITARY_TYPE to BMM_DEFINED_TYPE--><g class="link" data-entity-1="BMM_UNITARY_TYPE" data-entity-2="BMM_DEFINED_TYPE" data-source-line="45" data-uid="lnk11" id="link_BMM_UNITARY_TYPE_BMM_DEFINED_TYPE"><path codeLine="45" d="M169.16,599.03 C169.16,616.15 169.16,621.57 169.16,640.36" fill="none" id="BMM_UNITARY_TYPE-backto-BMM_DEFINED_TYPE" style="stroke:#181818;stroke-width:1;"/><polygon fill="none" points="169.16,581.03,163.16,599.03,175.16,599.03,169.16,581.03" style="stroke:#181818;stroke-width:1;"/></g><!--reverse link BMM_DEFINED_TYPE to BMM_SIMPLE_TYPE--><g class="link" data-entity-1="BMM_DEFINED_TYPE" data-entity-2="BMM_SIMPLE_TYPE" data-source-line="47" data-uid="lnk12" id="link_BMM_DEFINED_TYPE_BMM_SIMPLE_TYPE"><path codeLine="47" d="M169.16,723.78 C169.16,740.7 169.16,744.29 169.16,765.12" fill="none" id="BMM_DEFINED_TYPE-backto-BMM_SIMPLE_TYPE" style="stroke:#181818;stroke-width:1;"/><polygon fill="none" points="169.16,705.78,163.16,723.78,175.16,723.78,169.16,705.78" style="stroke:#181818;stroke-width:1;"/></g></g></svg>
