<svg xmlns="http://www.w3.org/2000/svg" xmlns:xlink="http://www.w3.org/1999/xlink" contentStyleType="text/css" data-diagram-type="CLASS" height="479px" preserveAspectRatio="none" style="width:284px;height:479px;background:#FFFFFF;" version="1.1" viewBox="0 0 284 479" width="284px" zoomAndPan="magnify"><defs/><g><!--class BMM_TYPE--><g class="entity" data-entity="BMM_TYPE" data-source-line="2" data-uid="ent0002" id="entity_BMM_TYPE"><rect fill="#F1F1F1" height="182.3994" rx="2.5" ry="2.5" style="stroke:#181818;stroke-width:0.5;" width="270.285" x="7" y="290.2"/><ellipse cx="101.7167" cy="306.2" fill="#A9DCDF" rx="11" ry="11" style="stroke:#181818;stroke-width:1;"/><path d="M96.2323,311.7 L98.2635,311.7 L102.3104,300.3563 L101.4042,300.3563 L105.2323,311.7 L107.3729,311.7 L103.0448,299.3719 L100.826,299.3719 L96.2323,311.7 Z M98.5604,308.2 L104.9979,308.2 L104.9979,306.45 L98.5604,306.45 L98.5604,308.2 Z " fill="#000000"/><text fill="#000000" font-family="sans-serif" font-size="14" font-style="italic" lengthAdjust="spacing" textLength="72.3517" x="122.2167" y="311.562">BMM_TYPE</text><line style="stroke:#181818;stroke-width:0.5;" x1="8" x2="276.285" y1="322.2" y2="322.2"/><line style="stroke:#181818;stroke-width:0.5;" x1="8" x2="276.285" y1="330.2" y2="330.2"/><ellipse cx="18" cy="344.1" fill="#84BE84" rx="3" ry="3" style="stroke:#038048;stroke-width:1;"/><text fill="#000000" font-family="sans-serif" font-size="14" font-style="italic" lengthAdjust="spacing" textLength="244.285" x="27" y="347.9619">effective_base_class() : BMM_CLASS [1]</text><ellipse cx="18" cy="360.8999" fill="#84BE84" rx="3" ry="3" style="stroke:#038048;stroke-width:1;"/><text fill="#000000" font-family="sans-serif" font-size="14" font-style="italic" lengthAdjust="spacing" textLength="143.4715" x="27" y="364.7619">type_name() : String [1]</text><ellipse cx="18" cy="377.6998" fill="#84BE84" rx="3" ry="3" style="stroke:#038048;stroke-width:1;"/><text fill="#000000" font-family="sans-serif" font-size="14" font-style="italic" lengthAdjust="spacing" textLength="172.6053" x="27" y="381.5618">has_subtypes() : Boolean [1]</text><ellipse cx="18" cy="394.4997" fill="#84BE84" rx="3" ry="3" style="stroke:#038048;stroke-width:1;"/><text fill="#000000" font-family="sans-serif" font-size="14" font-style="italic" lengthAdjust="spacing" textLength="182.4053" x="27" y="398.3617">subtypes() : List&lt;String&gt; [1..*]</text><ellipse cx="18" cy="411.2997" fill="#84BE84" rx="3" ry="3" style="stroke:#038048;stroke-width:1;"/><text fill="#000000" font-family="sans-serif" font-size="14" font-style="italic" lengthAdjust="spacing" textLength="243.1371" x="27" y="415.1616">flattened_type_list() : List&lt;String&gt; [1..*]</text><ellipse cx="18" cy="428.0996" fill="#84BE84" rx="3" ry="3" style="stroke:#038048;stroke-width:1;"/><text fill="#000000" font-family="sans-serif" font-size="14" lengthAdjust="spacing" textLength="167.1314" x="27" y="431.9616">type_signature() : String [1]</text><ellipse cx="18" cy="444.8995" fill="#84BE84" rx="3" ry="3" style="stroke:#038048;stroke-width:1;"/><text fill="#000000" font-family="sans-serif" font-size="14" lengthAdjust="spacing" textLength="160.1734" x="27" y="448.7615">is_primitive() : Boolean [1]</text><ellipse cx="18" cy="461.6995" fill="#84BE84" rx="3" ry="3" style="stroke:#038048;stroke-width:1;"/><text fill="#000000" font-family="sans-serif" font-size="14" lengthAdjust="spacing" textLength="176.1893" x="27" y="465.5614">entity_metatype() : String [1]</text></g><!--class BMM_ENTITY--><g class="entity" data-entity="BMM_ENTITY" data-source-line="13" data-uid="ent0003" id="entity_BMM_ENTITY"><rect fill="#F5F5F5" height="115.1997" rx="2.5" ry="2.5" style="stroke:#808080;stroke-width:1;stroke-dasharray:1,3;" width="202.1893" x="41.05" y="115"/><ellipse cx="94.7678" cy="131" fill="#A9DCDF" rx="11" ry="11" style="stroke:#181818;stroke-width:1;"/><path d="M89.2835,136.5 L91.3147,136.5 L95.3616,125.1563 L94.4553,125.1563 L98.2835,136.5 L100.4241,136.5 L96.096,124.1719 L93.8772,124.1719 L89.2835,136.5 Z M91.6116,133 L98.0491,133 L98.0491,131.25 L91.6116,131.25 L91.6116,133 Z " fill="#000000"/><text fill="#808080" font-family="sans-serif" font-size="14" font-style="italic" lengthAdjust="spacing" textLength="86.2536" x="115.2678" y="136.362">BMM_ENTITY</text><line style="stroke:#808080;stroke-width:1;stroke-dasharray:1,3;" x1="42.05" x2="242.2393" y1="147" y2="147"/><line style="stroke:#808080;stroke-width:1;stroke-dasharray:1,3;" x1="42.05" x2="242.2393" y1="155" y2="155"/><ellipse cx="52.05" cy="168.9" fill="#84BE84" rx="3" ry="3" style="stroke:#038048;stroke-width:1;"/><text fill="#808080" font-family="sans-serif" font-size="14" font-style="italic" lengthAdjust="spacing" textLength="171.0794" x="61.05" y="172.7619">entity_category() : String [1]</text><ellipse cx="52.05" cy="185.6999" fill="#84BE84" rx="3" ry="3" style="stroke:#038048;stroke-width:1;"/><text fill="#808080" font-family="sans-serif" font-size="14" font-style="italic" lengthAdjust="spacing" textLength="176.1893" x="61.05" y="189.5619">entity_metatype() : String [1]</text><ellipse cx="52.05" cy="202.4998" fill="#84BE84" rx="3" ry="3" style="stroke:#038048;stroke-width:1;"/><text fill="#808080" font-family="sans-serif" font-size="14" font-style="italic" lengthAdjust="spacing" textLength="155.7354" x="61.05" y="206.3618">is_abstract() : Boolean [1]</text><ellipse cx="52.05" cy="219.2997" fill="#84BE84" rx="3" ry="3" style="stroke:#038048;stroke-width:1;"/><text fill="#808080" font-family="sans-serif" font-size="14" font-style="italic" lengthAdjust="spacing" textLength="160.1734" x="61.05" y="223.1617">is_primitive() : Boolean [1]</text></g><!--class BMM_DEFINITIONS--><g class="entity" data-entity="BMM_DEFINITIONS" data-source-line="20" data-uid="ent0004" id="entity_BMM_DEFINITIONS"><rect fill="#F5F5F5" height="48" rx="2.5" ry="2.5" style="stroke:#808080;stroke-width:1;stroke-dasharray:1,3;" width="156.4035" x="63.94" y="7"/><ellipse cx="78.94" cy="23" fill="#ADD1B2" rx="11" ry="11" style="stroke:#181818;stroke-width:1;"/><path d="M78.94,29.4219 C80.1119,29.4219 81.3463,29.1563 82.7213,28.5469 L82.2369,27.0313 C81.1431,27.4531 80.1275,27.6406 79.2681,27.6406 C76.5494,27.6406 74.8306,25.7969 74.8306,22.8906 C74.8306,20.1406 76.3931,18.5469 79.1275,18.5469 C80.0494,18.5469 81.065,18.7344 82.2056,19.1563 L82.7838,17.6406 C81.69,17.0625 80.3931,16.7656 79.2056,16.7656 C75.44,16.7656 72.8619,19.4063 72.8619,23.2188 C72.8619,26.8906 75.3463,29.4219 78.94,29.4219 Z " fill="#000000"/><text fill="#808080" font-family="sans-serif" font-size="14" lengthAdjust="spacing" textLength="124.4035" x="92.94" y="28.362">BMM_DEFINITIONS</text><line style="stroke:#808080;stroke-width:1;stroke-dasharray:1,3;" x1="64.94" x2="219.3435" y1="39" y2="39"/><line style="stroke:#808080;stroke-width:1;stroke-dasharray:1,3;" x1="64.94" x2="219.3435" y1="47" y2="47"/></g><!--reverse link BMM_DEFINITIONS to BMM_ENTITY--><g class="link" data-entity-1="BMM_DEFINITIONS" data-entity-2="BMM_ENTITY" data-source-line="23" data-uid="lnk5" id="link_BMM_DEFINITIONS_BMM_ENTITY"><path codeLine="23" d="M142.14,73.37 C142.14,89.59 142.14,93.94 142.14,114.7" fill="none" id="BMM_DEFINITIONS-backto-BMM_ENTITY" style="stroke:#181818;stroke-width:1;"/><polygon fill="none" points="142.14,55.37,136.14,73.37,148.14,73.37,142.14,55.37" style="stroke:#181818;stroke-width:1;"/></g><!--reverse link BMM_ENTITY to BMM_TYPE--><g class="link" data-entity-1="BMM_ENTITY" data-entity-2="BMM_TYPE" data-source-line="25" data-uid="lnk6" id="link_BMM_ENTITY_BMM_TYPE"><path codeLine="25" d="M142.14,248.66 C142.14,266.95 142.14,269.68 142.14,289.76" fill="none" id="BMM_ENTITY-backto-BMM_TYPE" style="stroke:#181818;stroke-width:1;"/><polygon fill="none" points="142.14,230.66,136.14,248.66,148.14,248.66,142.14,230.66" style="stroke:#181818;stroke-width:1;"/></g></g></svg>
