<svg xmlns="http://www.w3.org/2000/svg" xmlns:xlink="http://www.w3.org/1999/xlink" contentStyleType="text/css" data-diagram-type="CLASS" height="789px" preserveAspectRatio="none" style="width:947px;height:789px;background:#FFFFFF;" version="1.1" viewBox="0 0 947 789" width="947px" zoomAndPan="magnify"><defs/><g><!--class BMM_MODEL--><g class="entity" data-entity="BMM_MODEL" data-source-line="2" data-uid="ent0002" id="entity_BMM_MODEL"><rect fill="#F1F1F1" height="367.1986" rx="2.5" ry="2.5" style="stroke:#181818;stroke-width:0.5;" width="933.2941" x="7" y="415"/><ellipse cx="425.5212" cy="431" fill="#ADD1B2" rx="11" ry="11" style="stroke:#181818;stroke-width:1;"/><path d="M425.5212,437.4219 C426.6931,437.4219 427.9275,437.1563 429.3025,436.5469 L428.8181,435.0313 C427.7243,435.4531 426.7087,435.6406 425.8493,435.6406 C423.1306,435.6406 421.4118,433.7969 421.4118,430.8906 C421.4118,428.1406 422.9743,426.5469 425.7087,426.5469 C426.6306,426.5469 427.6462,426.7344 428.7868,427.1563 L429.365,425.6406 C428.2712,425.0625 426.9743,424.7656 425.7868,424.7656 C422.0212,424.7656 419.4431,427.4063 419.4431,431.2188 C419.4431,434.8906 421.9275,437.4219 425.5212,437.4219 Z " fill="#000000"/><text fill="#000000" font-family="sans-serif" font-size="14" lengthAdjust="spacing" textLength="87.7516" x="446.0212" y="436.362">BMM_MODEL</text><line style="stroke:#181818;stroke-width:0.5;" x1="8" x2="939.2941" y1="447" y2="447"/><ellipse cx="18" cy="460.9" fill="none" rx="3" ry="3" style="stroke:#038048;stroke-width:1;"/><text fill="#000000" font-family="sans-serif" font-size="14" lengthAdjust="spacing" textLength="316.9167" x="27" y="464.7619">class_definitions : Hash&lt;String,BMM_CLASS&gt; [0..1]</text><ellipse cx="18" cy="477.6999" fill="none" rx="3" ry="3" style="stroke:#038048;stroke-width:1;"/><text fill="#000000" font-family="sans-serif" font-size="14" lengthAdjust="spacing" textLength="147.4894" x="27" y="481.5619">model_name : String [1]</text><line style="stroke:#181818;stroke-width:0.5;" x1="8" x2="939.2941" y1="488.5999" y2="488.5999"/><ellipse cx="18" cy="502.4998" fill="#84BE84" rx="3" ry="3" style="stroke:#038048;stroke-width:1;"/><text fill="#000000" font-family="sans-serif" font-size="14" lengthAdjust="spacing" textLength="132.4395" x="27" y="506.3618">model_id() : String [1]</text><ellipse cx="18" cy="519.2997" fill="#84BE84" rx="3" ry="3" style="stroke:#038048;stroke-width:1;"/><text fill="#000000" font-family="sans-serif" font-size="14" lengthAdjust="spacing" textLength="335.3407" x="27" y="523.1617">class_definition( a_name : String [1] ) : BMM_CLASS [1]</text><ellipse cx="18" cy="536.0997" fill="#84BE84" rx="3" ry="3" style="stroke:#038048;stroke-width:1;"/><text fill="#000000" font-family="sans-serif" font-size="14" lengthAdjust="spacing" textLength="210.6992" x="27" y="539.9616">type_definition() : BMM_CLASS [1]</text><ellipse cx="18" cy="552.8996" fill="#84BE84" rx="3" ry="3" style="stroke:#038048;stroke-width:1;"/><text fill="#000000" font-family="sans-serif" font-size="14" lengthAdjust="spacing" textLength="372.3846" x="27" y="556.7616">has_class_definition( a_class_name : String [1] ) : Boolean [1]</text><ellipse cx="18" cy="569.6995" fill="#84BE84" rx="3" ry="3" style="stroke:#038048;stroke-width:1;"/><text fill="#000000" font-family="sans-serif" font-size="14" lengthAdjust="spacing" textLength="365.5247" x="27" y="573.5615">has_type_definition( a_type_name : String [1] ) : Boolean [1]</text><ellipse cx="18" cy="586.4995" fill="#84BE84" rx="3" ry="3" style="stroke:#038048;stroke-width:1;"/><text fill="#000000" font-family="sans-serif" font-size="14" lengthAdjust="spacing" textLength="442.6642" x="27" y="590.3614">enumeration_definition( a_name : String [1] ) : BMM_ENUMERATION [1]</text><ellipse cx="18" cy="603.2994" fill="#84BE84" rx="3" ry="3" style="stroke:#038048;stroke-width:1;"/><text fill="#000000" font-family="sans-serif" font-size="14" lengthAdjust="spacing" textLength="209.2012" x="27" y="607.1614">primitive_types() : List&lt;String&gt; [*]</text><ellipse cx="18" cy="620.0993" fill="#84BE84" rx="3" ry="3" style="stroke:#038048;stroke-width:1;"/><text fill="#000000" font-family="sans-serif" font-size="14" lengthAdjust="spacing" textLength="233.7851" x="27" y="623.9613">enumeration_types() : List&lt;String&gt; [*]</text><ellipse cx="18" cy="636.8992" fill="#84BE84" rx="3" ry="3" style="stroke:#038048;stroke-width:1;"/><text fill="#000000" font-family="sans-serif" font-size="14" lengthAdjust="spacing" textLength="265.5649" x="27" y="640.7612">property_definition() : BMM_PROPERTY [1]</text><ellipse cx="18" cy="653.6992" fill="#84BE84" rx="3" ry="3" style="stroke:#038048;stroke-width:1;"/><text fill="#000000" font-family="sans-serif" font-size="14" lengthAdjust="spacing" textLength="907.2941" x="27" y="657.5611">ms_conformant_property_type( a_bmm_type_name : String [1], a_bmm_property_name : String [1], a_ms_property_name : String [1] ) : Boolean [1]</text><ellipse cx="18" cy="670.4991" fill="#84BE84" rx="3" ry="3" style="stroke:#038048;stroke-width:1;"/><text fill="#000000" font-family="sans-serif" font-size="14" lengthAdjust="spacing" textLength="319.9407" x="27" y="674.3611">property_definition_at_path() : BMM_PROPERTY [1]</text><ellipse cx="18" cy="687.299" fill="#84BE84" rx="3" ry="3" style="stroke:#038048;stroke-width:1;"/><text fill="#000000" font-family="sans-serif" font-size="14" lengthAdjust="spacing" textLength="575.0477" x="27" y="691.161">class_definition_at_path( a_type_name : String [1], a_prop_path : String [1] ) : BMM_CLASS [1]</text><ellipse cx="18" cy="704.0989" fill="#84BE84" rx="3" ry="3" style="stroke:#038048;stroke-width:1;"/><text fill="#000000" font-family="sans-serif" font-size="14" lengthAdjust="spacing" textLength="357.5026" x="27" y="707.9609">all_ancestor_classes( a_class : String [1] ) : List&lt;String&gt; [*]</text><ellipse cx="18" cy="720.8989" fill="#84BE84" rx="3" ry="3" style="stroke:#038048;stroke-width:1;"/><text fill="#000000" font-family="sans-serif" font-size="14" lengthAdjust="spacing" textLength="562.5038" x="27" y="724.7608">is_descendant_of( a_class_name : String [1], a_parent_class_name : String [1] ) : Boolean [1]</text><ellipse cx="18" cy="737.6988" fill="#84BE84" rx="3" ry="3" style="stroke:#038048;stroke-width:1;"/><text fill="#000000" font-family="sans-serif" font-size="14" lengthAdjust="spacing" textLength="500.9321" x="27" y="741.5608">type_conforms_to( a_desc_type : String [1], an_anc_type : String [1] ) : Boolean [1]</text><ellipse cx="18" cy="754.4987" fill="#84BE84" rx="3" ry="3" style="stroke:#038048;stroke-width:1;"/><text fill="#000000" font-family="sans-serif" font-size="14" lengthAdjust="spacing" textLength="296.9808" x="27" y="758.3607">any_class_definition() : BMM_SIMPLE_CLASS [1]</text><ellipse cx="18" cy="771.2986" fill="#84BE84" rx="3" ry="3" style="stroke:#038048;stroke-width:1;"/><text fill="#000000" font-family="sans-serif" font-size="14" lengthAdjust="spacing" textLength="285.6689" x="27" y="775.1606">any_type_definition() : BMM_SIMPLE_TYPE [1]</text></g><!--class BMM_PACKAGE_CONTAINER--><g class="entity" data-entity="BMM_PACKAGE_CONTAINER" data-source-line="24" data-uid="ent0003" id="entity_BMM_PACKAGE_CONTAINER"><rect fill="#F5F5F5" height="115.1997" rx="2.5" ry="2.5" style="stroke:#808080;stroke-width:1;stroke-dasharray:1,3;" width="400.1766" x="106.56" y="239.8"/><ellipse cx="209.2287" cy="255.8" fill="#ADD1B2" rx="11" ry="11" style="stroke:#181818;stroke-width:1;"/><path d="M209.2287,262.2219 C210.4005,262.2219 211.6349,261.9563 213.0099,261.3469 L212.5255,259.8313 C211.4318,260.2531 210.4162,260.4406 209.5568,260.4406 C206.838,260.4406 205.1193,258.5969 205.1193,255.6906 C205.1193,252.9406 206.6818,251.3469 209.4162,251.3469 C210.338,251.3469 211.3537,251.5344 212.4943,251.9563 L213.0724,250.4406 C211.9787,249.8625 210.6818,249.5656 209.4943,249.5656 C205.7287,249.5656 203.1505,252.2063 203.1505,256.0188 C203.1505,259.6906 205.6349,262.2219 209.2287,262.2219 Z " fill="#000000"/><text fill="#808080" font-family="sans-serif" font-size="14" lengthAdjust="spacing" textLength="186.3392" x="229.7287" y="261.162">BMM_PACKAGE_CONTAINER</text><line style="stroke:#808080;stroke-width:1;stroke-dasharray:1,3;" x1="107.56" x2="505.7366" y1="271.8" y2="271.8"/><ellipse cx="117.56" cy="285.7" fill="none" rx="3" ry="3" style="stroke:#038048;stroke-width:1;"/><text fill="#808080" font-family="sans-serif" font-size="14" lengthAdjust="spacing" textLength="292.3608" x="126.56" y="289.5619">packages : Hash&lt;String,BMM_PACKAGE&gt; [0..1]</text><line style="stroke:#808080;stroke-width:1;stroke-dasharray:1,3;" x1="107.56" x2="505.7366" y1="296.5999" y2="296.5999"/><ellipse cx="117.56" cy="310.4999" fill="#84BE84" rx="3" ry="3" style="stroke:#038048;stroke-width:1;"/><text fill="#808080" font-family="sans-serif" font-size="14" lengthAdjust="spacing" textLength="374.1766" x="126.56" y="314.3619">package_at_path( a_path : String [1] ) : BMM_PACKAGE [0..1]</text><ellipse cx="117.56" cy="327.2998" fill="#84BE84" rx="3" ry="3" style="stroke:#038048;stroke-width:1;"/><text fill="#808080" font-family="sans-serif" font-size="14" lengthAdjust="spacing" textLength="360.8066" x="126.56" y="331.1618">do_recursive_packages( action : PROCEDURE [1] ) : void [1]</text><ellipse cx="117.56" cy="344.0997" fill="#84BE84" rx="3" ry="3" style="stroke:#038048;stroke-width:1;"/><text fill="#808080" font-family="sans-serif" font-size="14" lengthAdjust="spacing" textLength="317.4908" x="126.56" y="347.9617">has_package_path( a_path : String [1] ) : Boolean [1]</text></g><!--class BMM_MODEL_ELEMENT--><g class="entity" data-entity="BMM_MODEL_ELEMENT" data-source-line="31" data-uid="ent0004" id="entity_BMM_MODEL_ELEMENT"><rect fill="#F5F5F5" height="64.7999" rx="2.5" ry="2.5" style="stroke:#808080;stroke-width:1;stroke-dasharray:1,3;" width="202.3433" x="205.48" y="115"/><ellipse cx="226.5685" cy="131" fill="#A9DCDF" rx="11" ry="11" style="stroke:#181818;stroke-width:1;"/><path d="M221.0841,136.5 L223.1154,136.5 L227.1622,125.1563 L226.256,125.1563 L230.0841,136.5 L232.2247,136.5 L227.8966,124.1719 L225.6779,124.1719 L221.0841,136.5 Z M223.4122,133 L229.8497,133 L229.8497,131.25 L223.4122,131.25 L223.4122,133 Z " fill="#000000"/><text fill="#808080" font-family="sans-serif" font-size="14" font-style="italic" lengthAdjust="spacing" textLength="156.8134" x="241.9215" y="136.362">BMM_MODEL_ELEMENT</text><line style="stroke:#808080;stroke-width:1;stroke-dasharray:1,3;" x1="206.48" x2="406.8233" y1="147" y2="147"/><ellipse cx="216.48" cy="160.9" fill="none" rx="3" ry="3" style="stroke:#038048;stroke-width:1;"/><text fill="#808080" font-family="sans-serif" font-size="14" lengthAdjust="spacing" textLength="176.3433" x="225.48" y="164.7619">documentation : String [0..1]</text><line style="stroke:#808080;stroke-width:1;stroke-dasharray:1,3;" x1="206.48" x2="406.8233" y1="171.7999" y2="171.7999"/></g><!--class BMM_DEFINITIONS--><g class="entity" data-entity="BMM_DEFINITIONS" data-source-line="35" data-uid="ent0005" id="entity_BMM_DEFINITIONS"><rect fill="#F5F5F5" height="48" rx="2.5" ry="2.5" style="stroke:#808080;stroke-width:1;stroke-dasharray:1,3;" width="156.4035" x="228.45" y="7"/><ellipse cx="243.45" cy="23" fill="#ADD1B2" rx="11" ry="11" style="stroke:#181818;stroke-width:1;"/><path d="M243.45,29.4219 C244.6219,29.4219 245.8563,29.1563 247.2313,28.5469 L246.7469,27.0313 C245.6531,27.4531 244.6375,27.6406 243.7781,27.6406 C241.0594,27.6406 239.3406,25.7969 239.3406,22.8906 C239.3406,20.1406 240.9031,18.5469 243.6375,18.5469 C244.5594,18.5469 245.575,18.7344 246.7156,19.1563 L247.2938,17.6406 C246.2,17.0625 244.9031,16.7656 243.7156,16.7656 C239.95,16.7656 237.3719,19.4063 237.3719,23.2188 C237.3719,26.8906 239.8563,29.4219 243.45,29.4219 Z " fill="#000000"/><text fill="#808080" font-family="sans-serif" font-size="14" lengthAdjust="spacing" textLength="124.4035" x="257.45" y="28.362">BMM_DEFINITIONS</text><line style="stroke:#808080;stroke-width:1;stroke-dasharray:1,3;" x1="229.45" x2="383.8535" y1="39" y2="39"/><line style="stroke:#808080;stroke-width:1;stroke-dasharray:1,3;" x1="229.45" x2="383.8535" y1="47" y2="47"/></g><!--class BMM_MODEL_METADATA--><g class="entity" data-entity="BMM_MODEL_METADATA" data-source-line="44" data-uid="ent0009" id="entity_BMM_MODEL_METADATA"><rect fill="#F5F5F5" height="81.5999" rx="2.5" ry="2.5" style="stroke:#808080;stroke-width:1;stroke-dasharray:1,3;" width="199.0473" x="542.12" y="256.6"/><ellipse cx="557.12" cy="272.6" fill="#ADD1B2" rx="11" ry="11" style="stroke:#181818;stroke-width:1;"/><path d="M557.12,279.0219 C558.2919,279.0219 559.5263,278.7563 560.9013,278.1469 L560.4169,276.6313 C559.3231,277.0531 558.3075,277.2406 557.4481,277.2406 C554.7294,277.2406 553.0106,275.3969 553.0106,272.4906 C553.0106,269.7406 554.5731,268.1469 557.3075,268.1469 C558.2294,268.1469 559.245,268.3344 560.3856,268.7563 L560.9638,267.2406 C559.87,266.6625 558.5731,266.3656 557.3856,266.3656 C553.62,266.3656 551.0419,269.0063 551.0419,272.8188 C551.0419,276.4906 553.5263,279.0219 557.12,279.0219 Z " fill="#000000"/><text fill="#808080" font-family="sans-serif" font-size="14" lengthAdjust="spacing" textLength="167.0473" x="571.12" y="277.962">BMM_MODEL_METADATA</text><line style="stroke:#808080;stroke-width:1;stroke-dasharray:1,3;" x1="543.12" x2="740.1673" y1="288.6" y2="288.6"/><ellipse cx="553.12" cy="302.5" fill="none" rx="3" ry="3" style="stroke:#038048;stroke-width:1;"/><text fill="#808080" font-family="sans-serif" font-size="14" lengthAdjust="spacing" textLength="148.8894" x="562.12" y="306.3619">rm_publisher : String [1]</text><ellipse cx="553.12" cy="319.2999" fill="none" rx="3" ry="3" style="stroke:#038048;stroke-width:1;"/><text fill="#808080" font-family="sans-serif" font-size="14" lengthAdjust="spacing" textLength="135.6735" x="562.12" y="323.1619">rm_release : String [1]</text><line style="stroke:#808080;stroke-width:1;stroke-dasharray:1,3;" x1="543.12" x2="740.1673" y1="330.1999" y2="330.1999"/></g><!--reverse link BMM_DEFINITIONS to BMM_MODEL_ELEMENT--><g class="link" data-entity-1="BMM_DEFINITIONS" data-entity-2="BMM_MODEL_ELEMENT" data-source-line="38" data-uid="lnk6" id="link_BMM_DEFINITIONS_BMM_MODEL_ELEMENT"><path codeLine="38" d="M306.65,73.43 C306.65,90.56 306.65,95.98 306.65,114.76" fill="none" id="BMM_DEFINITIONS-backto-BMM_MODEL_ELEMENT" style="stroke:#181818;stroke-width:1;"/><polygon fill="none" points="306.65,55.43,300.65,73.43,312.65,73.43,306.65,55.43" style="stroke:#181818;stroke-width:1;"/></g><!--reverse link BMM_MODEL_ELEMENT to BMM_PACKAGE_CONTAINER--><g class="link" data-entity-1="BMM_MODEL_ELEMENT" data-entity-2="BMM_PACKAGE_CONTAINER" data-source-line="40" data-uid="lnk7" id="link_BMM_MODEL_ELEMENT_BMM_PACKAGE_CONTAINER"><path codeLine="40" d="M306.65,198.15 C306.65,215.39 306.65,219.24 306.65,239.32" fill="none" id="BMM_MODEL_ELEMENT-backto-BMM_PACKAGE_CONTAINER" style="stroke:#181818;stroke-width:1;"/><polygon fill="none" points="306.65,180.15,300.65,198.15,312.65,198.15,306.65,180.15" style="stroke:#181818;stroke-width:1;"/></g><!--reverse link BMM_PACKAGE_CONTAINER to BMM_MODEL--><g class="link" data-entity-1="BMM_PACKAGE_CONTAINER" data-entity-2="BMM_MODEL" data-source-line="42" data-uid="lnk8" id="link_BMM_PACKAGE_CONTAINER_BMM_MODEL"><path codeLine="42" d="M347.2258,371.0958 C357.0258,388.6458 359.61,393.28 371.5,414.59" fill="none" id="BMM_PACKAGE_CONTAINER-backto-BMM_MODEL" style="stroke:#181818;stroke-width:1;"/><polygon fill="none" points="338.45,355.38,341.9872,374.021,352.4644,368.1705,338.45,355.38" style="stroke:#181818;stroke-width:1;"/></g><!--reverse link BMM_MODEL_METADATA to BMM_MODEL--><g class="link" data-entity-1="BMM_MODEL_METADATA" data-entity-2="BMM_MODEL" data-source-line="49" data-uid="lnk10" id="link_BMM_MODEL_METADATA_BMM_MODEL"><path codeLine="49" d="M610.349,354.136 C598.729,374.836 592.44,386.04 576.37,414.65" fill="none" id="BMM_MODEL_METADATA-backto-BMM_MODEL" style="stroke:#181818;stroke-width:1;"/><polygon fill="none" points="619.16,338.44,605.117,351.199,615.581,357.0731,619.16,338.44" style="stroke:#181818;stroke-width:1;"/></g></g></svg>
