<svg xmlns="http://www.w3.org/2000/svg" xmlns:xlink="http://www.w3.org/1999/xlink" contentStyleType="text/css" data-diagram-type="CLASS" height="186px" preserveAspectRatio="none" style="width:395px;height:186px;background:#FFFFFF;" version="1.1" viewBox="0 0 395 186" width="395px" zoomAndPan="magnify"><defs/><g><!--class Boolean--><g class="entity" data-entity="Boolean" data-source-line="2" data-uid="ent0002" id="entity_Boolean"><rect fill="#F1F1F1" height="165.5995" rx="2.5" ry="2.5" style="stroke:#181818;stroke-width:0.5;" width="374.5707" x="7" y="7"/><ellipse cx="164.4925" cy="23" fill="#ADD1B2" rx="11" ry="11" style="stroke:#181818;stroke-width:1;"/><path d="M164.4925,29.4219 C165.6643,29.4219 166.8987,29.1563 168.2737,28.5469 L167.7893,27.0313 C166.6956,27.4531 165.68,27.6406 164.8206,27.6406 C162.1018,27.6406 160.3831,25.7969 160.3831,22.8906 C160.3831,20.1406 161.9456,18.5469 164.68,18.5469 C165.6018,18.5469 166.6175,18.7344 167.7581,19.1563 L168.3362,17.6406 C167.2425,17.0625 165.9456,16.7656 164.7581,16.7656 C160.9925,16.7656 158.4143,19.4063 158.4143,23.2188 C158.4143,26.8906 160.8987,29.4219 164.4925,29.4219 Z " fill="#000000"/><text fill="#000000" font-family="sans-serif" font-size="14" lengthAdjust="spacing" textLength="51.0858" x="184.9925" y="28.362">Boolean</text><line style="stroke:#181818;stroke-width:0.5;" x1="8" x2="380.5707" y1="39" y2="39"/><line style="stroke:#181818;stroke-width:0.5;" x1="8" x2="380.5707" y1="47" y2="47"/><ellipse cx="18" cy="60.9" fill="#84BE84" rx="3" ry="3" style="stroke:#038048;stroke-width:1;"/><text fill="#000000" font-family="sans-serif" font-size="14" lengthAdjust="spacing" textLength="279.9709" x="27" y="64.7619">conjunction( other : Boolean [1] ) : Boolean [1]</text><ellipse cx="18" cy="77.6999" fill="#84BE84" rx="3" ry="3" style="stroke:#038048;stroke-width:1;"/><text fill="#000000" font-family="sans-serif" font-size="14" lengthAdjust="spacing" textLength="348.5707" x="27" y="81.5619">semistrict_conjunction( other : Boolean [1] ) : Boolean [1]</text><ellipse cx="18" cy="94.4998" fill="#84BE84" rx="3" ry="3" style="stroke:#038048;stroke-width:1;"/><text fill="#000000" font-family="sans-serif" font-size="14" lengthAdjust="spacing" textLength="275.4769" x="27" y="98.3618">disjunction( other : Boolean [1] ) : Boolean [1]</text><ellipse cx="18" cy="111.2997" fill="#84BE84" rx="3" ry="3" style="stroke:#038048;stroke-width:1;"/><text fill="#000000" font-family="sans-serif" font-size="14" lengthAdjust="spacing" textLength="344.0767" x="27" y="115.1617">semistrict_disjunction( other : Boolean [1] ) : Boolean [1]</text><ellipse cx="18" cy="128.0997" fill="#84BE84" rx="3" ry="3" style="stroke:#038048;stroke-width:1;"/><text fill="#000000" font-family="sans-serif" font-size="14" lengthAdjust="spacing" textLength="338.7287" x="27" y="131.9616">exclusive_disjunction( other : Boolean [1] ) : Boolean [1]</text><ellipse cx="18" cy="144.8996" fill="#84BE84" rx="3" ry="3" style="stroke:#038048;stroke-width:1;"/><text fill="#000000" font-family="sans-serif" font-size="14" lengthAdjust="spacing" textLength="276.7089" x="27" y="148.7616">implication( other : Boolean [1] ) : Boolean [1]</text><ellipse cx="18" cy="161.6995" fill="#84BE84" rx="3" ry="3" style="stroke:#038048;stroke-width:1;"/><text fill="#000000" font-family="sans-serif" font-size="14" lengthAdjust="spacing" textLength="142.9115" x="27" y="165.5615">negation() : Boolean [1]</text></g></g></svg>
