<svg xmlns="http://www.w3.org/2000/svg" xmlns:xlink="http://www.w3.org/1999/xlink" contentStyleType="text/css" data-diagram-type="CLASS" height="169px" preserveAspectRatio="none" style="width:342px;height:169px;background:#FFFFFF;" version="1.1" viewBox="0 0 342 169" width="342px" zoomAndPan="magnify"><defs/><g><!--class Boolean--><g class="entity" data-entity="Boolean" data-source-line="2" data-uid="ent0002" id="entity_Boolean"><rect fill="#F1F1F1" height="148.7996" rx="2.5" ry="2.5" style="stroke:#181818;stroke-width:0.5;" width="321.0909" x="7" y="7"/><ellipse cx="137.7525" cy="23" fill="#ADD1B2" rx="11" ry="11" style="stroke:#181818;stroke-width:1;"/><path d="M137.7525,29.4219 C138.9244,29.4219 140.1588,29.1563 141.5338,28.5469 L141.0494,27.0313 C139.9557,27.4531 138.94,27.6406 138.0807,27.6406 C135.3619,27.6406 133.6432,25.7969 133.6432,22.8906 C133.6432,20.1406 135.2057,18.5469 137.94,18.5469 C138.8619,18.5469 139.8775,18.7344 141.0182,19.1563 L141.5963,17.6406 C140.5025,17.0625 139.2057,16.7656 138.0182,16.7656 C134.2525,16.7656 131.6744,19.4063 131.6744,23.2188 C131.6744,26.8906 134.1588,29.4219 137.7525,29.4219 Z " fill="#000000"/><text fill="#000000" font-family="sans-serif" font-size="14" lengthAdjust="spacing" textLength="51.0858" x="158.2525" y="28.362">Boolean</text><line style="stroke:#181818;stroke-width:0.5;" x1="8" x2="327.0909" y1="39" y2="39"/><line style="stroke:#181818;stroke-width:0.5;" x1="8" x2="327.0909" y1="47" y2="47"/><ellipse cx="18" cy="60.9" fill="#84BE84" rx="3" ry="3" style="stroke:#038048;stroke-width:1;"/><text fill="#000000" font-family="sans-serif" font-size="14" lengthAdjust="spacing" textLength="259.769" x="27" y="64.7619">infix and( other : Boolean [1] ) : Boolean [1]</text><ellipse cx="18" cy="77.6999" fill="#84BE84" rx="3" ry="3" style="stroke:#038048;stroke-width:1;"/><text fill="#000000" font-family="sans-serif" font-size="14" lengthAdjust="spacing" textLength="295.0909" x="27" y="81.5619">infix and_then( other : Boolean [1] ) : Boolean [1]</text><ellipse cx="18" cy="94.4998" fill="#84BE84" rx="3" ry="3" style="stroke:#038048;stroke-width:1;"/><text fill="#000000" font-family="sans-serif" font-size="14" lengthAdjust="spacing" textLength="249.899" x="27" y="98.3618">infix or( other : Boolean [1] ) : Boolean [1]</text><ellipse cx="18" cy="111.2997" fill="#84BE84" rx="3" ry="3" style="stroke:#038048;stroke-width:1;"/><text fill="#000000" font-family="sans-serif" font-size="14" lengthAdjust="spacing" textLength="282.0709" x="27" y="115.1617">infix or_else( other : Boolean [1] ) : Boolean [1]</text><ellipse cx="18" cy="128.0997" fill="#84BE84" rx="3" ry="3" style="stroke:#038048;stroke-width:1;"/><text fill="#000000" font-family="sans-serif" font-size="14" lengthAdjust="spacing" textLength="256.465" x="27" y="131.9616">infix xor( other : Boolean [1] ) : Boolean [1]</text><ellipse cx="18" cy="144.8996" fill="#84BE84" rx="3" ry="3" style="stroke:#038048;stroke-width:1;"/><text fill="#000000" font-family="sans-serif" font-size="14" lengthAdjust="spacing" textLength="281.7489" x="27" y="148.7616">infix implies( other : Boolean [1] ) : Boolean [1]</text></g></g></svg>
