<svg xmlns="http://www.w3.org/2000/svg" xmlns:xlink="http://www.w3.org/1999/xlink" contentStyleType="text/css" data-diagram-type="CLASS" height="169px" preserveAspectRatio="none" style="width:245px;height:169px;background:#FFFFFF;" version="1.1" viewBox="0 0 245 169" width="245px" zoomAndPan="magnify"><defs/><g><!--class Cardinality--><g class="entity" data-entity="Cardinality" data-source-line="2" data-uid="ent0002" id="entity_Cardinality"><rect fill="#F1F1F1" height="148.7996" rx="2.5" ry="2.5" style="stroke:#181818;stroke-width:0.5;" width="224.6312" x="7" y="7"/><ellipse cx="81.5077" cy="23" fill="#ADD1B2" rx="11" ry="11" style="stroke:#181818;stroke-width:1;"/><path d="M81.5077,29.4219 C82.6796,29.4219 83.914,29.1563 85.289,28.5469 L84.8046,27.0313 C83.7109,27.4531 82.6952,27.6406 81.8359,27.6406 C79.1171,27.6406 77.3984,25.7969 77.3984,22.8906 C77.3984,20.1406 78.9609,18.5469 81.6952,18.5469 C82.6171,18.5469 83.6327,18.7344 84.7734,19.1563 L85.3515,17.6406 C84.2577,17.0625 82.9609,16.7656 81.7734,16.7656 C78.0077,16.7656 75.4296,19.4063 75.4296,23.2188 C75.4296,26.8906 77.914,29.4219 81.5077,29.4219 Z " fill="#000000"/><text fill="#000000" font-family="sans-serif" font-size="14" lengthAdjust="spacing" textLength="67.1157" x="102.0077" y="28.362">Cardinality</text><line style="stroke:#181818;stroke-width:0.5;" x1="8" x2="230.6312" y1="39" y2="39"/><ellipse cx="18" cy="52.9" fill="none" rx="3" ry="3" style="stroke:#038048;stroke-width:1;"/><text fill="#000000" font-family="sans-serif" font-size="14" lengthAdjust="spacing" textLength="198.6312" x="27" y="56.7619">interval : Multiplicity_interval [1]</text><ellipse cx="18" cy="69.6999" fill="none" rx="3" ry="3" style="stroke:#038048;stroke-width:1;"/><text fill="#000000" font-family="sans-serif" font-size="14" lengthAdjust="spacing" textLength="145.8094" x="27" y="73.5619">is_ordered : Boolean [1]</text><ellipse cx="18" cy="86.4998" fill="none" rx="3" ry="3" style="stroke:#038048;stroke-width:1;"/><text fill="#000000" font-family="sans-serif" font-size="14" lengthAdjust="spacing" textLength="138.9494" x="27" y="90.3618">is_unique : Boolean [1]</text><line style="stroke:#181818;stroke-width:0.5;" x1="8" x2="230.6312" y1="97.3998" y2="97.3998"/><ellipse cx="18" cy="111.2997" fill="#84BE84" rx="3" ry="3" style="stroke:#038048;stroke-width:1;"/><text fill="#000000" font-family="sans-serif" font-size="14" lengthAdjust="spacing" textLength="128.1275" x="27" y="115.1617">is_bag() : Boolean [1]</text><ellipse cx="18" cy="128.0997" fill="#84BE84" rx="3" ry="3" style="stroke:#038048;stroke-width:1;"/><text fill="#000000" font-family="sans-serif" font-size="14" lengthAdjust="spacing" textLength="123.8855" x="27" y="131.9616">is_list() : Boolean [1]</text><ellipse cx="18" cy="144.8996" fill="#84BE84" rx="3" ry="3" style="stroke:#038048;stroke-width:1;"/><text fill="#000000" font-family="sans-serif" font-size="14" lengthAdjust="spacing" textLength="123.9415" x="27" y="148.7616">is_set() : Boolean [1]</text></g></g></svg>
