<svg xmlns="http://www.w3.org/2000/svg" xmlns:xlink="http://www.w3.org/1999/xlink" contentStyleType="text/css" data-diagram-type="CLASS" height="237px" preserveAspectRatio="none" style="width:390px;height:237px;background:#FFFFFF;" version="1.1" viewBox="0 0 390 237" width="390px" zoomAndPan="magnify"><defs/><g><!--class Character--><g class="entity" data-entity="Character" data-source-line="2" data-uid="ent0002" id="entity_Character"><rect fill="#F1F1F1" height="48" rx="2.5" ry="2.5" style="stroke:#181818;stroke-width:0.5;" width="92.8438" x="148.78" y="182.2"/><ellipse cx="163.78" cy="198.2" fill="#ADD1B2" rx="11" ry="11" style="stroke:#181818;stroke-width:1;"/><path d="M163.78,204.6219 C164.9519,204.6219 166.1863,204.3563 167.5613,203.7469 L167.0769,202.2313 C165.9831,202.6531 164.9675,202.8406 164.1081,202.8406 C161.3894,202.8406 159.6706,200.9969 159.6706,198.0906 C159.6706,195.3406 161.2331,193.7469 163.9675,193.7469 C164.8894,193.7469 165.905,193.9344 167.0456,194.3563 L167.6238,192.8406 C166.53,192.2625 165.2331,191.9656 164.0456,191.9656 C160.28,191.9656 157.7019,194.6063 157.7019,198.4188 C157.7019,202.0906 160.1863,204.6219 163.78,204.6219 Z " fill="#000000"/><text fill="#000000" font-family="sans-serif" font-size="14" lengthAdjust="spacing" textLength="60.8438" x="177.78" y="203.562">Character</text><line style="stroke:#181818;stroke-width:0.5;" x1="149.78" x2="240.6238" y1="214.2" y2="214.2"/><line style="stroke:#181818;stroke-width:0.5;" x1="149.78" x2="240.6238" y1="222.2" y2="222.2"/></g><!--class Ordered--><g class="entity" data-entity="Ordered" data-source-line="5" data-uid="ent0003" id="entity_Ordered"><rect fill="#F5F5F5" height="115.1997" rx="2.5" ry="2.5" style="stroke:#808080;stroke-width:1;stroke-dasharray:1,3;" width="376.4047" x="7" y="7"/><ellipse cx="164.9824" cy="23" fill="#A9DCDF" rx="11" ry="11" style="stroke:#181818;stroke-width:1;"/><path d="M159.4981,28.5 L161.5293,28.5 L165.5762,17.1563 L164.6699,17.1563 L168.4981,28.5 L170.6387,28.5 L166.3106,16.1719 L164.0918,16.1719 L159.4981,28.5 Z M161.8262,25 L168.2637,25 L168.2637,23.25 L161.8262,23.25 L161.8262,25 Z " fill="#000000"/><text fill="#808080" font-family="sans-serif" font-size="14" font-style="italic" lengthAdjust="spacing" textLength="51.9398" x="185.4824" y="28.362">Ordered</text><line style="stroke:#808080;stroke-width:1;stroke-dasharray:1,3;" x1="8" x2="382.4047" y1="39" y2="39"/><line style="stroke:#808080;stroke-width:1;stroke-dasharray:1,3;" x1="8" x2="382.4047" y1="47" y2="47"/><ellipse cx="18" cy="60.9" fill="#84BE84" rx="3" ry="3" style="stroke:#038048;stroke-width:1;"/><text fill="#808080" font-family="sans-serif" font-size="14" font-style="italic" lengthAdjust="spacing" textLength="267.679" x="27" y="64.7619">less_than( other : Ordered [1] ) : Boolean [1]</text><ellipse cx="18" cy="77.6999" fill="#84BE84" rx="3" ry="3" style="stroke:#038048;stroke-width:1;"/><text fill="#808080" font-family="sans-serif" font-size="14" lengthAdjust="spacing" textLength="329.1387" x="27" y="81.5619">less_than_or_equal( other : Ordered [1] ) : Boolean [1]</text><ellipse cx="18" cy="94.4998" fill="#84BE84" rx="3" ry="3" style="stroke:#038048;stroke-width:1;"/><text fill="#808080" font-family="sans-serif" font-size="14" lengthAdjust="spacing" textLength="288.9449" x="27" y="98.3618">greater_than( other : Ordered [1] ) : Boolean [1]</text><ellipse cx="18" cy="111.2997" fill="#84BE84" rx="3" ry="3" style="stroke:#038048;stroke-width:1;"/><text fill="#808080" font-family="sans-serif" font-size="14" lengthAdjust="spacing" textLength="350.4047" x="27" y="115.1617">greater_than_or_equal( other : Ordered [1] ) : Boolean [1]</text></g><!--reverse link Ordered to Character--><g class="link" data-entity-1="Ordered" data-entity-2="Character" data-source-line="12" data-uid="lnk4" id="link_Ordered_Character"><path codeLine="12" d="M195.2,140.38 C195.2,161.21 195.2,165.65 195.2,181.91" fill="none" id="Ordered-backto-Character" style="stroke:#181818;stroke-width:1;"/><polygon fill="none" points="195.2,122.38,189.2,140.38,201.2,140.38,195.2,122.38" style="stroke:#181818;stroke-width:1;"/></g></g></svg>
