<svg xmlns="http://www.w3.org/2000/svg" xmlns:xlink="http://www.w3.org/1999/xlink" contentStyleType="text/css" data-diagram-type="CLASS" height="186px" preserveAspectRatio="none" style="width:285px;height:186px;background:#FFFFFF;" version="1.1" viewBox="0 0 285 186" width="285px" zoomAndPan="magnify"><defs/><g><!--class Character--><g class="entity" data-entity="Character" data-source-line="2" data-uid="ent0002" id="entity_Character"><rect fill="#F1F1F1" height="48" rx="2.5" ry="2.5" style="stroke:#181818;stroke-width:0.5;" width="92.8438" x="96.41" y="131.8"/><ellipse cx="111.41" cy="147.8" fill="#ADD1B2" rx="11" ry="11" style="stroke:#181818;stroke-width:1;"/><path d="M111.41,154.2219 C112.5819,154.2219 113.8163,153.9563 115.1913,153.3469 L114.7069,151.8313 C113.6131,152.2531 112.5975,152.4406 111.7381,152.4406 C109.0194,152.4406 107.3006,150.5969 107.3006,147.6906 C107.3006,144.9406 108.8631,143.3469 111.5975,143.3469 C112.5194,143.3469 113.535,143.5344 114.6756,143.9563 L115.2538,142.4406 C114.16,141.8625 112.8631,141.5656 111.6756,141.5656 C107.91,141.5656 105.3319,144.2063 105.3319,148.0188 C105.3319,151.6906 107.8163,154.2219 111.41,154.2219 Z " fill="#000000"/><text fill="#000000" font-family="sans-serif" font-size="14" lengthAdjust="spacing" textLength="60.8438" x="125.41" y="153.162">Character</text><line style="stroke:#181818;stroke-width:0.5;" x1="97.41" x2="188.2538" y1="163.8" y2="163.8"/><line style="stroke:#181818;stroke-width:0.5;" x1="97.41" x2="188.2538" y1="171.8" y2="171.8"/></g><!--class Ordered--><g class="entity" data-entity="Ordered" data-source-line="5" data-uid="ent0003" id="entity_Ordered"><rect fill="#F5F5F5" height="64.7999" rx="2.5" ry="2.5" style="stroke:#808080;stroke-width:1;stroke-dasharray:1,3;" width="271.657" x="7" y="7"/><ellipse cx="112.6086" cy="23" fill="#A9DCDF" rx="11" ry="11" style="stroke:#181818;stroke-width:1;"/><path d="M107.1243,28.5 L109.1555,28.5 L113.2024,17.1563 L112.2961,17.1563 L116.1243,28.5 L118.2649,28.5 L113.9368,16.1719 L111.718,16.1719 L107.1243,28.5 Z M109.4524,25 L115.8899,25 L115.8899,23.25 L109.4524,23.25 L109.4524,25 Z " fill="#000000"/><text fill="#808080" font-family="sans-serif" font-size="14" font-style="italic" lengthAdjust="spacing" textLength="51.9398" x="133.1086" y="28.362">Ordered</text><line style="stroke:#808080;stroke-width:1;stroke-dasharray:1,3;" x1="8" x2="277.657" y1="39" y2="39"/><line style="stroke:#808080;stroke-width:1;stroke-dasharray:1,3;" x1="8" x2="277.657" y1="47" y2="47"/><ellipse cx="18" cy="60.9" fill="#84BE84" rx="3" ry="3" style="stroke:#038048;stroke-width:1;"/><text fill="#808080" font-family="sans-serif" font-size="14" font-style="italic" lengthAdjust="spacing" textLength="245.657" x="27" y="64.7619">infix &lt;( other : Ordered [1] ) : Boolean [1]</text></g><!--reverse link Ordered to Character--><g class="link" data-entity-1="Ordered" data-entity-2="Character" data-source-line="9" data-uid="lnk4" id="link_Ordered_Character"><path codeLine="9" d="M142.83,90.27 C142.83,109.04 142.83,114.38 142.83,131.45" fill="none" id="Ordered-backto-Character" style="stroke:#181818;stroke-width:1;"/><polygon fill="none" points="142.83,72.27,136.83,90.27,148.83,90.27,142.83,72.27" style="stroke:#181818;stroke-width:1;"/></g></g></svg>
