<svg xmlns="http://www.w3.org/2000/svg" xmlns:xlink="http://www.w3.org/1999/xlink" contentStyleType="text/css" data-diagram-type="CLASS" height="119px" preserveAspectRatio="none" style="width:288px;height:119px;background:#FFFFFF;" version="1.1" viewBox="0 0 288 119" width="288px" zoomAndPan="magnify"><defs/><g><!--class CODE_PHRASE--><g class="entity" data-entity="CODE_PHRASE" data-source-line="2" data-uid="ent0002" id="entity_CODE_PHRASE"><rect fill="#F1F1F1" height="98.3998" rx="2.5" ry="2.5" style="stroke:#181818;stroke-width:0.5;" width="267.177" x="7" y="7"/><ellipse cx="88.0807" cy="23" fill="#ADD1B2" rx="11" ry="11" style="stroke:#181818;stroke-width:1;"/><path d="M88.0807,29.4219 C89.2526,29.4219 90.487,29.1563 91.862,28.5469 L91.3776,27.0313 C90.2838,27.4531 89.2682,27.6406 88.4088,27.6406 C85.6901,27.6406 83.9713,25.7969 83.9713,22.8906 C83.9713,20.1406 85.5338,18.5469 88.2682,18.5469 C89.1901,18.5469 90.2057,18.7344 91.3463,19.1563 L91.9245,17.6406 C90.8307,17.0625 89.5338,16.7656 88.3463,16.7656 C84.5807,16.7656 82.0026,19.4063 82.0026,23.2188 C82.0026,26.8906 84.487,29.4219 88.0807,29.4219 Z " fill="#000000"/><text fill="#000000" font-family="sans-serif" font-size="14" lengthAdjust="spacing" textLength="96.5156" x="108.5807" y="28.362">CODE_PHRASE</text><line style="stroke:#181818;stroke-width:0.5;" x1="8" x2="273.177" y1="39" y2="39"/><ellipse cx="18" cy="52.9" fill="none" rx="3" ry="3" style="stroke:#038048;stroke-width:1;"/><text fill="#000000" font-family="sans-serif" font-size="14" lengthAdjust="spacing" textLength="241.177" x="27" y="56.7619">terminology_id : TERMINOLOGY_ID [1]</text><ellipse cx="18" cy="69.6999" fill="none" rx="3" ry="3" style="stroke:#038048;stroke-width:1;"/><text fill="#000000" font-family="sans-serif" font-size="14" lengthAdjust="spacing" textLength="139.0195" x="27" y="73.5619">code_string : String [1]</text><ellipse cx="18" cy="86.4998" fill="none" rx="3" ry="3" style="stroke:#038048;stroke-width:1;"/><text fill="#000000" font-family="sans-serif" font-size="14" lengthAdjust="spacing" textLength="177.6173" x="27" y="90.3618">preferred_term : String [0..1]</text><line style="stroke:#181818;stroke-width:0.5;" x1="8" x2="273.177" y1="97.3998" y2="97.3998"/></g></g></svg>
