<svg xmlns="http://www.w3.org/2000/svg" xmlns:xlink="http://www.w3.org/1999/xlink" contentStyleType="text/css" data-diagram-type="CLASS" height="186px" preserveAspectRatio="none" style="width:332px;height:186px;background:#FFFFFF;" version="1.1" viewBox="0 0 332 186" width="332px" zoomAndPan="magnify"><defs/><g><!--class Container--><g class="entity" data-entity="Container" data-source-line="2" data-uid="ent0002" id="entity_Container"><rect fill="#F1F1F1" height="165.5995" rx="2.5" ry="2.5" style="stroke:#181818;stroke-width:0.5;" width="311.1089" x="7" y="7"/><ellipse cx="122.3186" cy="23" fill="#A9DCDF" rx="11" ry="11" style="stroke:#181818;stroke-width:1;"/><path d="M116.8342,28.5 L118.8654,28.5 L122.9123,17.1563 L122.0061,17.1563 L125.8342,28.5 L127.9748,28.5 L123.6467,16.1719 L121.4279,16.1719 L116.8342,28.5 Z M119.1623,25 L125.5998,25 L125.5998,23.25 L119.1623,23.25 L119.1623,25 Z " fill="#000000"/><text fill="#000000" font-family="sans-serif" font-size="14" font-style="italic" lengthAdjust="spacing" textLength="61.1798" x="142.8186" y="28.362">Container</text><rect fill="#FFFFFF" height="16.4001" style="stroke:#181818;stroke-width:1;stroke-dasharray:2,2;" width="8.7921" x="312.3169" y="4"/><text fill="#000000" font-family="sans-serif" font-size="12" font-style="italic" lengthAdjust="spacing" textLength="6.7921" x="313.3169" y="16.7961">T</text><line style="stroke:#181818;stroke-width:0.5;" x1="8" x2="317.1089" y1="39" y2="39"/><line style="stroke:#181818;stroke-width:0.5;" x1="8" x2="317.1089" y1="47" y2="47"/><ellipse cx="18" cy="60.9" fill="#84BE84" rx="3" ry="3" style="stroke:#038048;stroke-width:1;"/><text fill="#000000" font-family="sans-serif" font-size="14" font-style="italic" lengthAdjust="spacing" textLength="159.0114" x="27" y="64.7619">has( v : T [1] ) : Boolean [1]</text><ellipse cx="18" cy="77.6999" fill="#84BE84" rx="3" ry="3" style="stroke:#038048;stroke-width:1;"/><text fill="#000000" font-family="sans-serif" font-size="14" font-style="italic" lengthAdjust="spacing" textLength="117.0256" x="27" y="81.5619">count() : Integer [1]</text><ellipse cx="18" cy="94.4998" fill="#84BE84" rx="3" ry="3" style="stroke:#038048;stroke-width:1;"/><text fill="#000000" font-family="sans-serif" font-size="14" font-style="italic" lengthAdjust="spacing" textLength="144.5634" x="27" y="98.3618">is_empty() : Boolean [1]</text><ellipse cx="18" cy="111.2997" fill="#84BE84" rx="3" ry="3" style="stroke:#038048;stroke-width:1;"/><text fill="#000000" font-family="sans-serif" font-size="14" lengthAdjust="spacing" textLength="285.1089" x="27" y="115.1617">there_exists( test : Operation [1] ) : Boolean [1]</text><ellipse cx="18" cy="128.0997" fill="#84BE84" rx="3" ry="3" style="stroke:#038048;stroke-width:1;"/><text fill="#000000" font-family="sans-serif" font-size="14" lengthAdjust="spacing" textLength="249.535" x="27" y="131.9616">for_all( test : Operation [1] ) : Boolean [1]</text><ellipse cx="18" cy="144.8996" fill="#84BE84" rx="3" ry="3" style="stroke:#038048;stroke-width:1;"/><text fill="#000000" font-family="sans-serif" font-size="14" lengthAdjust="spacing" textLength="263.871" x="27" y="148.7616">matching( test : Operation [1] ) : List&lt;T&gt; [*]</text><ellipse cx="18" cy="161.6995" fill="#84BE84" rx="3" ry="3" style="stroke:#038048;stroke-width:1;"/><text fill="#000000" font-family="sans-serif" font-size="14" lengthAdjust="spacing" textLength="218.9731" x="27" y="165.5615">select( test : Operation [1] ) : T [0..1]</text></g></g></svg>
