<svg xmlns="http://www.w3.org/2000/svg" xmlns:xlink="http://www.w3.org/1999/xlink" contentStyleType="text/css" data-diagram-type="CLASS" height="453px" preserveAspectRatio="none" style="width:259px;height:453px;background:#FFFFFF;" version="1.1" viewBox="0 0 259 453" width="259px" zoomAndPan="magnify"><defs/><g><!--class EXPR_VARIABLE_REF--><g class="entity" data-entity="EXPR_VARIABLE_REF" data-source-line="2" data-uid="ent0002" id="entity_EXPR_VARIABLE_REF"><rect fill="#F1F1F1" height="64.7999" rx="2.5" ry="2.5" style="stroke:#181818;stroke-width:0.5;" width="245.5611" x="7" y="381.4"/><ellipse cx="58.1978" cy="397.4" fill="#ADD1B2" rx="11" ry="11" style="stroke:#181818;stroke-width:1;"/><path d="M58.1978,403.8219 C59.3697,403.8219 60.6041,403.5563 61.9791,402.9469 L61.4947,401.4313 C60.401,401.8531 59.3853,402.0406 58.526,402.0406 C55.8072,402.0406 54.0885,400.1969 54.0885,397.2906 C54.0885,394.5406 55.651,392.9469 58.3853,392.9469 C59.3072,392.9469 60.3228,393.1344 61.4635,393.5563 L62.0416,392.0406 C60.9478,391.4625 59.651,391.1656 58.4635,391.1656 C54.6978,391.1656 52.1197,393.8063 52.1197,397.6188 C52.1197,401.2906 54.6041,403.8219 58.1978,403.8219 Z " fill="#000000"/><text fill="#000000" font-family="sans-serif" font-size="14" lengthAdjust="spacing" textLength="134.6654" x="78.6978" y="402.762">EXPR_VARIABLE_REF</text><line style="stroke:#181818;stroke-width:0.5;" x1="8" x2="251.5611" y1="413.4" y2="413.4"/><ellipse cx="18" cy="427.3" fill="none" rx="3" ry="3" style="stroke:#038048;stroke-width:1;"/><text fill="#000000" font-family="sans-serif" font-size="14" lengthAdjust="spacing" textLength="219.5611" x="27" y="431.1619">item : VARIABLE_DECLARATION [1]</text><line style="stroke:#181818;stroke-width:0.5;" x1="8" x2="251.5611" y1="438.1999" y2="438.1999"/></g><!--class EXPR_LEAF--><g class="entity" data-entity="EXPR_LEAF" data-source-line="6" data-uid="ent0003" id="entity_EXPR_LEAF"><rect fill="#F5F5F5" height="64.7999" rx="2.5" ry="2.5" style="stroke:#808080;stroke-width:1;stroke-dasharray:1,3;" width="122.0256" x="68.77" y="256.6"/><ellipse cx="91.717" cy="272.6" fill="#A9DCDF" rx="11" ry="11" style="stroke:#181818;stroke-width:1;"/><path d="M86.2326,278.1 L88.2638,278.1 L92.3107,266.7562 L91.4045,266.7562 L95.2326,278.1 L97.3732,278.1 L93.0451,265.7719 L90.8263,265.7719 L86.2326,278.1 Z M88.5607,274.6 L94.9982,274.6 L94.9982,272.85 L88.5607,272.85 L88.5607,274.6 Z " fill="#000000"/><text fill="#808080" font-family="sans-serif" font-size="14" font-style="italic" lengthAdjust="spacing" textLength="72.3657" x="107.483" y="277.962">EXPR_LEAF</text><line style="stroke:#808080;stroke-width:1;stroke-dasharray:1,3;" x1="69.77" x2="189.7956" y1="288.6" y2="288.6"/><ellipse cx="79.77" cy="302.5" fill="none" rx="3" ry="3" style="stroke:#038048;stroke-width:1;"/><text fill="#808080" font-family="sans-serif" font-size="14" lengthAdjust="spacing" textLength="96.0256" x="88.77" y="306.3619">item : Any [0..1]</text><line style="stroke:#808080;stroke-width:1;stroke-dasharray:1,3;" x1="69.77" x2="189.7956" y1="313.3999" y2="313.3999"/></g><!--class EXPRESSION--><g class="entity" data-entity="EXPRESSION" data-source-line="10" data-uid="ent0004" id="entity_EXPRESSION"><rect fill="#F5F5F5" height="64.7999" rx="2.5" ry="2.5" style="stroke:#808080;stroke-width:1;stroke-dasharray:1,3;" width="196.0853" x="31.74" y="131.8"/><ellipse cx="84.5338" cy="147.8" fill="#A9DCDF" rx="11" ry="11" style="stroke:#181818;stroke-width:1;"/><path d="M79.0494,153.3 L81.0807,153.3 L85.1276,141.9563 L84.2213,141.9563 L88.0494,153.3 L90.1901,153.3 L85.8619,140.9719 L83.6432,140.9719 L79.0494,153.3 Z M81.3776,149.8 L87.8151,149.8 L87.8151,148.05 L81.3776,148.05 L81.3776,149.8 Z " fill="#000000"/><text fill="#808080" font-family="sans-serif" font-size="14" font-style="italic" lengthAdjust="spacing" textLength="81.9977" x="105.0338" y="153.162">EXPRESSION</text><line style="stroke:#808080;stroke-width:1;stroke-dasharray:1,3;" x1="32.74" x2="226.8253" y1="163.8" y2="163.8"/><line style="stroke:#808080;stroke-width:1;stroke-dasharray:1,3;" x1="32.74" x2="226.8253" y1="171.8" y2="171.8"/><ellipse cx="42.74" cy="185.7" fill="#84BE84" rx="3" ry="3" style="stroke:#038048;stroke-width:1;"/><text fill="#808080" font-family="sans-serif" font-size="14" font-style="italic" lengthAdjust="spacing" textLength="170.0853" x="51.74" y="189.5619">type() : EXPR_TYPE_DEF [1]</text></g><!--class EXPR_VALUE--><g class="entity" data-entity="EXPR_VALUE" data-source-line="14" data-uid="ent0005" id="entity_EXPR_VALUE"><rect fill="#F5F5F5" height="64.7999" rx="2.5" ry="2.5" style="stroke:#808080;stroke-width:1;stroke-dasharray:1,3;" width="119.3796" x="70.09" y="7"/><ellipse cx="87.367" cy="23" fill="#A9DCDF" rx="11" ry="11" style="stroke:#181818;stroke-width:1;"/><path d="M81.8826,28.5 L83.9139,28.5 L87.9607,17.1563 L87.0545,17.1563 L90.8826,28.5 L93.0232,28.5 L88.6951,16.1719 L86.4764,16.1719 L81.8826,28.5 Z M84.2107,25 L90.6482,25 L90.6482,23.25 L84.2107,23.25 L84.2107,25 Z " fill="#000000"/><text fill="#808080" font-family="sans-serif" font-size="14" font-style="italic" lengthAdjust="spacing" textLength="82.3197" x="101.873" y="28.362">EXPR_VALUE</text><line style="stroke:#808080;stroke-width:1;stroke-dasharray:1,3;" x1="71.09" x2="188.4696" y1="39" y2="39"/><line style="stroke:#808080;stroke-width:1;stroke-dasharray:1,3;" x1="71.09" x2="188.4696" y1="47" y2="47"/><ellipse cx="81.09" cy="60.9" fill="#84BE84" rx="3" ry="3" style="stroke:#038048;stroke-width:1;"/><text fill="#808080" font-family="sans-serif" font-size="14" font-style="italic" lengthAdjust="spacing" textLength="93.3796" x="90.09" y="64.7619">value() : Any [1]</text></g><!--reverse link EXPR_VALUE to EXPRESSION--><g class="link" data-entity-1="EXPR_VALUE" data-entity-2="EXPRESSION" data-source-line="18" data-uid="lnk6" id="link_EXPR_VALUE_EXPRESSION"><path codeLine="18" d="M129.78,90.02 C129.78,108.36 129.78,113.37 129.78,131.68" fill="none" id="EXPR_VALUE-backto-EXPRESSION" style="stroke:#181818;stroke-width:1;"/><polygon fill="none" points="129.78,72.02,123.78,90.02,135.78,90.02,129.78,72.02" style="stroke:#181818;stroke-width:1;"/></g><!--reverse link EXPRESSION to EXPR_LEAF--><g class="link" data-entity-1="EXPRESSION" data-entity-2="EXPR_LEAF" data-source-line="20" data-uid="lnk7" id="link_EXPRESSION_EXPR_LEAF"><path codeLine="20" d="M129.78,214.82 C129.78,233.16 129.78,238.17 129.78,256.48" fill="none" id="EXPRESSION-backto-EXPR_LEAF" style="stroke:#181818;stroke-width:1;"/><polygon fill="none" points="129.78,196.82,123.78,214.82,135.78,214.82,129.78,196.82" style="stroke:#181818;stroke-width:1;"/></g><!--reverse link EXPR_LEAF to EXPR_VARIABLE_REF--><g class="link" data-entity-1="EXPR_LEAF" data-entity-2="EXPR_VARIABLE_REF" data-source-line="22" data-uid="lnk8" id="link_EXPR_LEAF_EXPR_VARIABLE_REF"><path codeLine="22" d="M129.78,339.62 C129.78,357.96 129.78,362.97 129.78,381.28" fill="none" id="EXPR_LEAF-backto-EXPR_VARIABLE_REF" style="stroke:#181818;stroke-width:1;"/><polygon fill="none" points="129.78,321.62,123.78,339.62,135.78,339.62,129.78,321.62" style="stroke:#181818;stroke-width:1;"/></g></g></svg>
