<svg xmlns="http://www.w3.org/2000/svg" xmlns:xlink="http://www.w3.org/1999/xlink" contentStyleType="text/css" data-diagram-type="CLASS" height="503px" preserveAspectRatio="none" style="width:281px;height:503px;background:#FFFFFF;" version="1.1" viewBox="0 0 281 503" width="281px" zoomAndPan="magnify"><defs/><g><!--class EXPR_FOR_ALL--><g class="entity" data-entity="EXPR_FOR_ALL" data-source-line="2" data-uid="ent0002" id="entity_EXPR_FOR_ALL"><rect fill="#F1F1F1" height="81.5999" rx="2.5" ry="2.5" style="stroke:#181818;stroke-width:0.5;" width="220.2912" x="30.64" y="415"/><ellipse cx="87.7388" cy="431" fill="#ADD1B2" rx="11" ry="11" style="stroke:#181818;stroke-width:1;"/><path d="M87.7388,437.4219 C88.9107,437.4219 90.1451,437.1563 91.5201,436.5469 L91.0357,435.0313 C89.9419,435.4531 88.9263,435.6406 88.0669,435.6406 C85.3482,435.6406 83.6294,433.7969 83.6294,430.8906 C83.6294,428.1406 85.1919,426.5469 87.9263,426.5469 C88.8482,426.5469 89.8638,426.7344 91.0044,427.1563 L91.5826,425.6406 C90.4888,425.0625 89.1919,424.7656 88.0044,424.7656 C84.2388,424.7656 81.6607,427.4063 81.6607,431.2188 C81.6607,434.8906 84.1451,437.4219 87.7388,437.4219 Z " fill="#000000"/><text fill="#000000" font-family="sans-serif" font-size="14" lengthAdjust="spacing" textLength="97.5936" x="108.2388" y="436.362">EXPR_FOR_ALL</text><line style="stroke:#181818;stroke-width:0.5;" x1="31.64" x2="249.9312" y1="447" y2="447"/><ellipse cx="41.64" cy="460.9" fill="none" rx="3" ry="3" style="stroke:#038048;stroke-width:1;"/><text fill="#000000" font-family="sans-serif" font-size="14" lengthAdjust="spacing" textLength="160.6634" x="50.64" y="464.7619">condition : ASSERTION [1]</text><ellipse cx="41.64" cy="477.6999" fill="none" rx="3" ry="3" style="stroke:#038048;stroke-width:1;"/><text fill="#000000" font-family="sans-serif" font-size="14" lengthAdjust="spacing" textLength="194.2912" x="50.64" y="481.5619">operand : EXPR_VALUE_REF [1]</text><line style="stroke:#181818;stroke-width:0.5;" x1="31.64" x2="249.9312" y1="488.5999" y2="488.5999"/></g><!--class EXPR_OPERATOR--><g class="entity" data-entity="EXPR_OPERATOR" data-source-line="7" data-uid="ent0003" id="entity_EXPR_OPERATOR"><rect fill="#F5F5F5" height="98.3998" rx="2.5" ry="2.5" style="stroke:#808080;stroke-width:1;stroke-dasharray:1,3;" width="267.569" x="7" y="256.6"/><ellipse cx="80.4228" cy="272.6" fill="#A9DCDF" rx="11" ry="11" style="stroke:#181818;stroke-width:1;"/><path d="M74.9384,278.1 L76.9696,278.1 L81.0165,266.7563 L80.1103,266.7563 L83.9384,278.1 L86.079,278.1 L81.7509,265.7719 L79.5321,265.7719 L74.9384,278.1 Z M77.2665,274.6 L83.704,274.6 L83.704,272.85 L77.2665,272.85 L77.2665,274.6 Z " fill="#000000"/><text fill="#808080" font-family="sans-serif" font-size="14" font-style="italic" lengthAdjust="spacing" textLength="112.2235" x="100.9228" y="277.962">EXPR_OPERATOR</text><line style="stroke:#808080;stroke-width:1;stroke-dasharray:1,3;" x1="8" x2="273.569" y1="288.6" y2="288.6"/><ellipse cx="18" cy="302.5" fill="none" rx="3" ry="3" style="stroke:#038048;stroke-width:1;"/><text fill="#808080" font-family="sans-serif" font-size="14" lengthAdjust="spacing" textLength="241.569" x="27" y="306.3619">precedence_overridden : Boolean [0..1]</text><ellipse cx="18" cy="319.2999" fill="none" rx="3" ry="3" style="stroke:#038048;stroke-width:1;"/><text fill="#808080" font-family="sans-serif" font-size="14" lengthAdjust="spacing" textLength="214.4931" x="27" y="323.1619">operator_def : OPERATOR_DEF [1]</text><ellipse cx="18" cy="336.0998" fill="none" rx="3" ry="3" style="stroke:#038048;stroke-width:1;"/><text fill="#808080" font-family="sans-serif" font-size="14" lengthAdjust="spacing" textLength="127.1755" x="27" y="339.9618">symbol : String [0..1]</text><line style="stroke:#808080;stroke-width:1;stroke-dasharray:1,3;" x1="8" x2="273.569" y1="346.9998" y2="346.9998"/></g><!--class EXPRESSION--><g class="entity" data-entity="EXPRESSION" data-source-line="13" data-uid="ent0004" id="entity_EXPRESSION"><rect fill="#F5F5F5" height="64.7999" rx="2.5" ry="2.5" style="stroke:#808080;stroke-width:1;stroke-dasharray:1,3;" width="196.0853" x="42.74" y="131.8"/><ellipse cx="95.5338" cy="147.8" fill="#A9DCDF" rx="11" ry="11" style="stroke:#181818;stroke-width:1;"/><path d="M90.0494,153.3 L92.0807,153.3 L96.1276,141.9563 L95.2213,141.9563 L99.0494,153.3 L101.1901,153.3 L96.8619,140.9719 L94.6432,140.9719 L90.0494,153.3 Z M92.3776,149.8 L98.8151,149.8 L98.8151,148.05 L92.3776,148.05 L92.3776,149.8 Z " fill="#000000"/><text fill="#808080" font-family="sans-serif" font-size="14" font-style="italic" lengthAdjust="spacing" textLength="81.9977" x="116.0338" y="153.162">EXPRESSION</text><line style="stroke:#808080;stroke-width:1;stroke-dasharray:1,3;" x1="43.74" x2="237.8253" y1="163.8" y2="163.8"/><line style="stroke:#808080;stroke-width:1;stroke-dasharray:1,3;" x1="43.74" x2="237.8253" y1="171.8" y2="171.8"/><ellipse cx="53.74" cy="185.7" fill="#84BE84" rx="3" ry="3" style="stroke:#038048;stroke-width:1;"/><text fill="#808080" font-family="sans-serif" font-size="14" font-style="italic" lengthAdjust="spacing" textLength="170.0853" x="62.74" y="189.5619">type() : EXPR_TYPE_DEF [1]</text></g><!--class EXPR_VALUE--><g class="entity" data-entity="EXPR_VALUE" data-source-line="17" data-uid="ent0005" id="entity_EXPR_VALUE"><rect fill="#F5F5F5" height="64.7999" rx="2.5" ry="2.5" style="stroke:#808080;stroke-width:1;stroke-dasharray:1,3;" width="119.3796" x="81.09" y="7"/><ellipse cx="98.367" cy="23" fill="#A9DCDF" rx="11" ry="11" style="stroke:#181818;stroke-width:1;"/><path d="M92.8826,28.5 L94.9139,28.5 L98.9607,17.1563 L98.0545,17.1563 L101.8826,28.5 L104.0232,28.5 L99.6951,16.1719 L97.4764,16.1719 L92.8826,28.5 Z M95.2107,25 L101.6482,25 L101.6482,23.25 L95.2107,23.25 L95.2107,25 Z " fill="#000000"/><text fill="#808080" font-family="sans-serif" font-size="14" font-style="italic" lengthAdjust="spacing" textLength="82.3197" x="112.873" y="28.362">EXPR_VALUE</text><line style="stroke:#808080;stroke-width:1;stroke-dasharray:1,3;" x1="82.09" x2="199.4696" y1="39" y2="39"/><line style="stroke:#808080;stroke-width:1;stroke-dasharray:1,3;" x1="82.09" x2="199.4696" y1="47" y2="47"/><ellipse cx="92.09" cy="60.9" fill="#84BE84" rx="3" ry="3" style="stroke:#038048;stroke-width:1;"/><text fill="#808080" font-family="sans-serif" font-size="14" font-style="italic" lengthAdjust="spacing" textLength="93.3796" x="101.09" y="64.7619">value() : Any [1]</text></g><!--reverse link EXPR_VALUE to EXPRESSION--><g class="link" data-entity-1="EXPR_VALUE" data-entity-2="EXPRESSION" data-source-line="21" data-uid="lnk6" id="link_EXPR_VALUE_EXPRESSION"><path codeLine="21" d="M140.78,90.02 C140.78,108.36 140.78,113.37 140.78,131.68" fill="none" id="EXPR_VALUE-backto-EXPRESSION" style="stroke:#181818;stroke-width:1;"/><polygon fill="none" points="140.78,72.02,134.78,90.02,146.78,90.02,140.78,72.02" style="stroke:#181818;stroke-width:1;"/></g><!--reverse link EXPRESSION to EXPR_OPERATOR--><g class="link" data-entity-1="EXPRESSION" data-entity-2="EXPR_OPERATOR" data-source-line="23" data-uid="lnk7" id="link_EXPRESSION_EXPR_OPERATOR"><path codeLine="23" d="M140.78,214.88 C140.78,232.41 140.78,236.58 140.78,256.26" fill="none" id="EXPRESSION-backto-EXPR_OPERATOR" style="stroke:#181818;stroke-width:1;"/><polygon fill="none" points="140.78,196.88,134.78,214.88,146.78,214.88,140.78,196.88" style="stroke:#181818;stroke-width:1;"/></g><!--reverse link EXPR_OPERATOR to EXPR_FOR_ALL--><g class="link" data-entity-1="EXPR_OPERATOR" data-entity-2="EXPR_FOR_ALL" data-source-line="25" data-uid="lnk8" id="link_EXPR_OPERATOR_EXPR_FOR_ALL"><path codeLine="25" d="M140.78,373.26 C140.78,392.48 140.78,396.32 140.78,414.64" fill="none" id="EXPR_OPERATOR-backto-EXPR_FOR_ALL" style="stroke:#181818;stroke-width:1;"/><polygon fill="none" points="140.78,355.26,134.78,373.26,146.78,373.26,140.78,355.26" style="stroke:#181818;stroke-width:1;"/></g></g></svg>
