<svg xmlns="http://www.w3.org/2000/svg" xmlns:xlink="http://www.w3.org/1999/xlink" contentStyleType="text/css" data-diagram-type="CLASS" height="453px" preserveAspectRatio="none" style="width:257px;height:453px;background:#FFFFFF;" version="1.1" viewBox="0 0 257 453" width="257px" zoomAndPan="magnify"><defs/><g><!--class EXPR_FUNCTION_CALL--><g class="entity" data-entity="EXPR_FUNCTION_CALL" data-source-line="2" data-uid="ent0002" id="entity_EXPR_FUNCTION_CALL"><rect fill="#F1F1F1" height="64.7999" rx="2.5" ry="2.5" style="stroke:#181818;stroke-width:0.5;" width="243.0271" x="7" y="381.4"/><ellipse cx="49.899" cy="397.4" fill="#ADD1B2" rx="11" ry="11" style="stroke:#181818;stroke-width:1;"/><path d="M49.899,403.8219 C51.0709,403.8219 52.3052,403.5563 53.6802,402.9469 L53.1959,401.4313 C52.1021,401.8531 51.0865,402.0406 50.2271,402.0406 C47.5084,402.0406 45.7896,400.1969 45.7896,397.2906 C45.7896,394.5406 47.3521,392.9469 50.0865,392.9469 C51.0084,392.9469 52.024,393.1344 53.1646,393.5563 L53.7427,392.0406 C52.649,391.4625 51.3521,391.1656 50.1646,391.1656 C46.399,391.1656 43.8209,393.8063 43.8209,397.6188 C43.8209,401.2906 46.3052,403.8219 49.899,403.8219 Z " fill="#000000"/><text fill="#000000" font-family="sans-serif" font-size="14" lengthAdjust="spacing" textLength="149.0294" x="70.0987" y="402.762">EXPR_FUNCTION_CALL</text><line style="stroke:#181818;stroke-width:0.5;" x1="8" x2="249.0271" y1="413.4" y2="413.4"/><ellipse cx="18" cy="427.3" fill="none" rx="3" ry="3" style="stroke:#038048;stroke-width:1;"/><text fill="#000000" font-family="sans-serif" font-size="14" lengthAdjust="spacing" textLength="217.0271" x="27" y="431.1619">arguments : List&lt;EXPRESSION&gt; [*]</text><line style="stroke:#181818;stroke-width:0.5;" x1="8" x2="249.0271" y1="438.1999" y2="438.1999"/></g><!--class EXPR_LEAF--><g class="entity" data-entity="EXPR_LEAF" data-source-line="6" data-uid="ent0003" id="entity_EXPR_LEAF"><rect fill="#F5F5F5" height="64.7999" rx="2.5" ry="2.5" style="stroke:#808080;stroke-width:1;stroke-dasharray:1,3;" width="122.0256" x="67.5" y="256.6"/><ellipse cx="90.447" cy="272.6" fill="#A9DCDF" rx="11" ry="11" style="stroke:#181818;stroke-width:1;"/><path d="M84.9626,278.1 L86.9938,278.1 L91.0407,266.7562 L90.1345,266.7562 L93.9626,278.1 L96.1032,278.1 L91.7751,265.7719 L89.5563,265.7719 L84.9626,278.1 Z M87.2907,274.6 L93.7282,274.6 L93.7282,272.85 L87.2907,272.85 L87.2907,274.6 Z " fill="#000000"/><text fill="#808080" font-family="sans-serif" font-size="14" font-style="italic" lengthAdjust="spacing" textLength="72.3657" x="106.213" y="277.962">EXPR_LEAF</text><line style="stroke:#808080;stroke-width:1;stroke-dasharray:1,3;" x1="68.5" x2="188.5256" y1="288.6" y2="288.6"/><ellipse cx="78.5" cy="302.5" fill="none" rx="3" ry="3" style="stroke:#038048;stroke-width:1;"/><text fill="#808080" font-family="sans-serif" font-size="14" lengthAdjust="spacing" textLength="96.0256" x="87.5" y="306.3619">item : Any [0..1]</text><line style="stroke:#808080;stroke-width:1;stroke-dasharray:1,3;" x1="68.5" x2="188.5256" y1="313.3999" y2="313.3999"/></g><!--class EXPRESSION--><g class="entity" data-entity="EXPRESSION" data-source-line="10" data-uid="ent0004" id="entity_EXPRESSION"><rect fill="#F5F5F5" height="64.7999" rx="2.5" ry="2.5" style="stroke:#808080;stroke-width:1;stroke-dasharray:1,3;" width="196.0853" x="30.47" y="131.8"/><ellipse cx="83.2638" cy="147.8" fill="#A9DCDF" rx="11" ry="11" style="stroke:#181818;stroke-width:1;"/><path d="M77.7794,153.3 L79.8107,153.3 L83.8576,141.9563 L82.9513,141.9563 L86.7794,153.3 L88.9201,153.3 L84.5919,140.9719 L82.3732,140.9719 L77.7794,153.3 Z M80.1076,149.8 L86.5451,149.8 L86.5451,148.05 L80.1076,148.05 L80.1076,149.8 Z " fill="#000000"/><text fill="#808080" font-family="sans-serif" font-size="14" font-style="italic" lengthAdjust="spacing" textLength="81.9977" x="103.7638" y="153.162">EXPRESSION</text><line style="stroke:#808080;stroke-width:1;stroke-dasharray:1,3;" x1="31.47" x2="225.5553" y1="163.8" y2="163.8"/><line style="stroke:#808080;stroke-width:1;stroke-dasharray:1,3;" x1="31.47" x2="225.5553" y1="171.8" y2="171.8"/><ellipse cx="41.47" cy="185.7" fill="#84BE84" rx="3" ry="3" style="stroke:#038048;stroke-width:1;"/><text fill="#808080" font-family="sans-serif" font-size="14" font-style="italic" lengthAdjust="spacing" textLength="170.0853" x="50.47" y="189.5619">type() : EXPR_TYPE_DEF [1]</text></g><!--class EXPR_VALUE--><g class="entity" data-entity="EXPR_VALUE" data-source-line="14" data-uid="ent0005" id="entity_EXPR_VALUE"><rect fill="#F5F5F5" height="64.7999" rx="2.5" ry="2.5" style="stroke:#808080;stroke-width:1;stroke-dasharray:1,3;" width="119.3796" x="68.82" y="7"/><ellipse cx="86.097" cy="23" fill="#A9DCDF" rx="11" ry="11" style="stroke:#181818;stroke-width:1;"/><path d="M80.6126,28.5 L82.6439,28.5 L86.6907,17.1563 L85.7845,17.1563 L89.6126,28.5 L91.7532,28.5 L87.4251,16.1719 L85.2064,16.1719 L80.6126,28.5 Z M82.9407,25 L89.3782,25 L89.3782,23.25 L82.9407,23.25 L82.9407,25 Z " fill="#000000"/><text fill="#808080" font-family="sans-serif" font-size="14" font-style="italic" lengthAdjust="spacing" textLength="82.3197" x="100.603" y="28.362">EXPR_VALUE</text><line style="stroke:#808080;stroke-width:1;stroke-dasharray:1,3;" x1="69.82" x2="187.1996" y1="39" y2="39"/><line style="stroke:#808080;stroke-width:1;stroke-dasharray:1,3;" x1="69.82" x2="187.1996" y1="47" y2="47"/><ellipse cx="79.82" cy="60.9" fill="#84BE84" rx="3" ry="3" style="stroke:#038048;stroke-width:1;"/><text fill="#808080" font-family="sans-serif" font-size="14" font-style="italic" lengthAdjust="spacing" textLength="93.3796" x="88.82" y="64.7619">value() : Any [1]</text></g><!--reverse link EXPR_VALUE to EXPRESSION--><g class="link" data-entity-1="EXPR_VALUE" data-entity-2="EXPRESSION" data-source-line="18" data-uid="lnk6" id="link_EXPR_VALUE_EXPRESSION"><path codeLine="18" d="M128.51,90.02 C128.51,108.36 128.51,113.37 128.51,131.68" fill="none" id="EXPR_VALUE-backto-EXPRESSION" style="stroke:#181818;stroke-width:1;"/><polygon fill="none" points="128.51,72.02,122.51,90.02,134.51,90.02,128.51,72.02" style="stroke:#181818;stroke-width:1;"/></g><!--reverse link EXPRESSION to EXPR_LEAF--><g class="link" data-entity-1="EXPRESSION" data-entity-2="EXPR_LEAF" data-source-line="20" data-uid="lnk7" id="link_EXPRESSION_EXPR_LEAF"><path codeLine="20" d="M128.51,214.82 C128.51,233.16 128.51,238.17 128.51,256.48" fill="none" id="EXPRESSION-backto-EXPR_LEAF" style="stroke:#181818;stroke-width:1;"/><polygon fill="none" points="128.51,196.82,122.51,214.82,134.51,214.82,128.51,196.82" style="stroke:#181818;stroke-width:1;"/></g><!--reverse link EXPR_LEAF to EXPR_FUNCTION_CALL--><g class="link" data-entity-1="EXPR_LEAF" data-entity-2="EXPR_FUNCTION_CALL" data-source-line="22" data-uid="lnk8" id="link_EXPR_LEAF_EXPR_FUNCTION_CALL"><path codeLine="22" d="M128.51,339.62 C128.51,357.96 128.51,362.97 128.51,381.28" fill="none" id="EXPR_LEAF-backto-EXPR_FUNCTION_CALL" style="stroke:#181818;stroke-width:1;"/><polygon fill="none" points="128.51,321.62,122.51,339.62,134.51,339.62,128.51,321.62" style="stroke:#181818;stroke-width:1;"/></g></g></svg>
