<svg xmlns="http://www.w3.org/2000/svg" xmlns:xlink="http://www.w3.org/1999/xlink" contentStyleType="text/css" data-diagram-type="CLASS" height="328px" preserveAspectRatio="none" style="width:210px;height:328px;background:#FFFFFF;" version="1.1" viewBox="0 0 210 328" width="210px" zoomAndPan="magnify"><defs/><g><!--class EXPR_LEAF--><g class="entity" data-entity="EXPR_LEAF" data-source-line="2" data-uid="ent0002" id="entity_EXPR_LEAF"><rect fill="#F1F1F1" height="64.7999" rx="2.5" ry="2.5" style="stroke:#181818;stroke-width:0.5;" width="122.0256" x="44.03" y="256.6"/><ellipse cx="66.977" cy="272.6" fill="#A9DCDF" rx="11" ry="11" style="stroke:#181818;stroke-width:1;"/><path d="M61.4926,278.1 L63.5238,278.1 L67.5707,266.7562 L66.6645,266.7562 L70.4926,278.1 L72.6332,278.1 L68.3051,265.7719 L66.0863,265.7719 L61.4926,278.1 Z M63.8207,274.6 L70.2582,274.6 L70.2582,272.85 L63.8207,272.85 L63.8207,274.6 Z " fill="#000000"/><text fill="#000000" font-family="sans-serif" font-size="14" font-style="italic" lengthAdjust="spacing" textLength="72.3657" x="82.743" y="277.962">EXPR_LEAF</text><line style="stroke:#181818;stroke-width:0.5;" x1="45.03" x2="165.0556" y1="288.6" y2="288.6"/><ellipse cx="55.03" cy="302.5" fill="none" rx="3" ry="3" style="stroke:#038048;stroke-width:1;"/><text fill="#000000" font-family="sans-serif" font-size="14" lengthAdjust="spacing" textLength="96.0256" x="64.03" y="306.3619">item : Any [0..1]</text><line style="stroke:#181818;stroke-width:0.5;" x1="45.03" x2="165.0556" y1="313.3999" y2="313.3999"/></g><!--class EXPRESSION--><g class="entity" data-entity="EXPRESSION" data-source-line="6" data-uid="ent0003" id="entity_EXPRESSION"><rect fill="#F5F5F5" height="64.7999" rx="2.5" ry="2.5" style="stroke:#808080;stroke-width:1;stroke-dasharray:1,3;" width="196.0853" x="7" y="131.8"/><ellipse cx="59.7938" cy="147.8" fill="#A9DCDF" rx="11" ry="11" style="stroke:#181818;stroke-width:1;"/><path d="M54.3094,153.3 L56.3407,153.3 L60.3876,141.9562 L59.4813,141.9562 L63.3094,153.3 L65.4501,153.3 L61.1219,140.9719 L58.9032,140.9719 L54.3094,153.3 Z M56.6376,149.8 L63.0751,149.8 L63.0751,148.05 L56.6376,148.05 L56.6376,149.8 Z " fill="#000000"/><text fill="#808080" font-family="sans-serif" font-size="14" font-style="italic" lengthAdjust="spacing" textLength="81.9977" x="80.2938" y="153.162">EXPRESSION</text><line style="stroke:#808080;stroke-width:1;stroke-dasharray:1,3;" x1="8" x2="202.0853" y1="163.8" y2="163.8"/><line style="stroke:#808080;stroke-width:1;stroke-dasharray:1,3;" x1="8" x2="202.0853" y1="171.8" y2="171.8"/><ellipse cx="18" cy="185.7" fill="#84BE84" rx="3" ry="3" style="stroke:#038048;stroke-width:1;"/><text fill="#808080" font-family="sans-serif" font-size="14" font-style="italic" lengthAdjust="spacing" textLength="170.0853" x="27" y="189.5619">type() : EXPR_TYPE_DEF [1]</text></g><!--class EXPR_VALUE--><g class="entity" data-entity="EXPR_VALUE" data-source-line="10" data-uid="ent0004" id="entity_EXPR_VALUE"><rect fill="#F5F5F5" height="64.7999" rx="2.5" ry="2.5" style="stroke:#808080;stroke-width:1;stroke-dasharray:1,3;" width="119.3796" x="45.35" y="7"/><ellipse cx="62.627" cy="23" fill="#A9DCDF" rx="11" ry="11" style="stroke:#181818;stroke-width:1;"/><path d="M57.1426,28.5 L59.1739,28.5 L63.2207,17.1563 L62.3145,17.1563 L66.1426,28.5 L68.2832,28.5 L63.9551,16.1719 L61.7364,16.1719 L57.1426,28.5 Z M59.4707,25 L65.9082,25 L65.9082,23.25 L59.4707,23.25 L59.4707,25 Z " fill="#000000"/><text fill="#808080" font-family="sans-serif" font-size="14" font-style="italic" lengthAdjust="spacing" textLength="82.3197" x="77.133" y="28.362">EXPR_VALUE</text><line style="stroke:#808080;stroke-width:1;stroke-dasharray:1,3;" x1="46.35" x2="163.7296" y1="39" y2="39"/><line style="stroke:#808080;stroke-width:1;stroke-dasharray:1,3;" x1="46.35" x2="163.7296" y1="47" y2="47"/><ellipse cx="56.35" cy="60.9" fill="#84BE84" rx="3" ry="3" style="stroke:#038048;stroke-width:1;"/><text fill="#808080" font-family="sans-serif" font-size="14" font-style="italic" lengthAdjust="spacing" textLength="93.3796" x="65.35" y="64.7619">value() : Any [1]</text></g><!--reverse link EXPR_VALUE to EXPRESSION--><g class="link" data-entity-1="EXPR_VALUE" data-entity-2="EXPRESSION" data-source-line="14" data-uid="lnk5" id="link_EXPR_VALUE_EXPRESSION"><path codeLine="14" d="M105.04,90.02 C105.04,108.36 105.04,113.37 105.04,131.68" fill="none" id="EXPR_VALUE-backto-EXPRESSION" style="stroke:#181818;stroke-width:1;"/><polygon fill="none" points="105.04,72.02,99.04,90.02,111.04,90.02,105.04,72.02" style="stroke:#181818;stroke-width:1;"/></g><!--reverse link EXPRESSION to EXPR_LEAF--><g class="link" data-entity-1="EXPRESSION" data-entity-2="EXPR_LEAF" data-source-line="16" data-uid="lnk6" id="link_EXPRESSION_EXPR_LEAF"><path codeLine="16" d="M105.04,214.82 C105.04,233.16 105.04,238.17 105.04,256.48" fill="none" id="EXPRESSION-backto-EXPR_LEAF" style="stroke:#181818;stroke-width:1;"/><polygon fill="none" points="105.04,196.82,99.04,214.82,111.04,214.82,105.04,196.82" style="stroke:#181818;stroke-width:1;"/></g></g></svg>
