<svg xmlns="http://www.w3.org/2000/svg" xmlns:xlink="http://www.w3.org/1999/xlink" contentStyleType="text/css" data-diagram-type="CLASS" height="203px" preserveAspectRatio="none" style="width:210px;height:203px;background:#FFFFFF;" version="1.1" viewBox="0 0 210 203" width="210px" zoomAndPan="magnify"><defs/><g><!--class EXPRESSION--><g class="entity" data-entity="EXPRESSION" data-source-line="2" data-uid="ent0002" id="entity_EXPRESSION"><rect fill="#F1F1F1" height="64.7999" rx="2.5" ry="2.5" style="stroke:#181818;stroke-width:0.5;" width="196.0853" x="7" y="131.8"/><ellipse cx="59.7938" cy="147.8" fill="#A9DCDF" rx="11" ry="11" style="stroke:#181818;stroke-width:1;"/><path d="M54.3094,153.3 L56.3407,153.3 L60.3876,141.9562 L59.4813,141.9562 L63.3094,153.3 L65.4501,153.3 L61.1219,140.9719 L58.9032,140.9719 L54.3094,153.3 Z M56.6376,149.8 L63.0751,149.8 L63.0751,148.05 L56.6376,148.05 L56.6376,149.8 Z " fill="#000000"/><text fill="#000000" font-family="sans-serif" font-size="14" font-style="italic" lengthAdjust="spacing" textLength="81.9977" x="80.2938" y="153.162">EXPRESSION</text><line style="stroke:#181818;stroke-width:0.5;" x1="8" x2="202.0853" y1="163.8" y2="163.8"/><line style="stroke:#181818;stroke-width:0.5;" x1="8" x2="202.0853" y1="171.8" y2="171.8"/><ellipse cx="18" cy="185.7" fill="#84BE84" rx="3" ry="3" style="stroke:#038048;stroke-width:1;"/><text fill="#000000" font-family="sans-serif" font-size="14" font-style="italic" lengthAdjust="spacing" textLength="170.0853" x="27" y="189.5619">type() : EXPR_TYPE_DEF [1]</text></g><!--class EXPR_VALUE--><g class="entity" data-entity="EXPR_VALUE" data-source-line="6" data-uid="ent0003" id="entity_EXPR_VALUE"><rect fill="#F5F5F5" height="64.7999" rx="2.5" ry="2.5" style="stroke:#808080;stroke-width:1;stroke-dasharray:1,3;" width="119.3796" x="45.35" y="7"/><ellipse cx="62.627" cy="23" fill="#A9DCDF" rx="11" ry="11" style="stroke:#181818;stroke-width:1;"/><path d="M57.1426,28.5 L59.1739,28.5 L63.2207,17.1563 L62.3145,17.1563 L66.1426,28.5 L68.2832,28.5 L63.9551,16.1719 L61.7364,16.1719 L57.1426,28.5 Z M59.4707,25 L65.9082,25 L65.9082,23.25 L59.4707,23.25 L59.4707,25 Z " fill="#000000"/><text fill="#808080" font-family="sans-serif" font-size="14" font-style="italic" lengthAdjust="spacing" textLength="82.3197" x="77.133" y="28.362">EXPR_VALUE</text><line style="stroke:#808080;stroke-width:1;stroke-dasharray:1,3;" x1="46.35" x2="163.7296" y1="39" y2="39"/><line style="stroke:#808080;stroke-width:1;stroke-dasharray:1,3;" x1="46.35" x2="163.7296" y1="47" y2="47"/><ellipse cx="56.35" cy="60.9" fill="#84BE84" rx="3" ry="3" style="stroke:#038048;stroke-width:1;"/><text fill="#808080" font-family="sans-serif" font-size="14" font-style="italic" lengthAdjust="spacing" textLength="93.3796" x="65.35" y="64.7619">value() : Any [1]</text></g><!--reverse link EXPR_VALUE to EXPRESSION--><g class="link" data-entity-1="EXPR_VALUE" data-entity-2="EXPRESSION" data-source-line="10" data-uid="lnk4" id="link_EXPR_VALUE_EXPRESSION"><path codeLine="10" d="M105.04,90.02 C105.04,108.36 105.04,113.37 105.04,131.68" fill="none" id="EXPR_VALUE-backto-EXPRESSION" style="stroke:#181818;stroke-width:1;"/><polygon fill="none" points="105.04,72.02,99.04,90.02,111.04,90.02,105.04,72.02" style="stroke:#181818;stroke-width:1;"/></g></g></svg>
