<svg xmlns="http://www.w3.org/2000/svg" xmlns:xlink="http://www.w3.org/1999/xlink" contentStyleType="text/css" data-diagram-type="CLASS" height="486px" preserveAspectRatio="none" style="width:281px;height:486px;background:#FFFFFF;" version="1.1" viewBox="0 0 281 486" width="281px" zoomAndPan="magnify"><defs/><g><!--class EXPR_UNARY_OPERATOR--><g class="entity" data-entity="EXPR_UNARY_OPERATOR" data-source-line="2" data-uid="ent0002" id="entity_EXPR_UNARY_OPERATOR"><rect fill="#F1F1F1" height="64.7999" rx="2.5" ry="2.5" style="stroke:#181818;stroke-width:0.5;" width="196.6813" x="42.44" y="415"/><ellipse cx="57.44" cy="431" fill="#ADD1B2" rx="11" ry="11" style="stroke:#181818;stroke-width:1;"/><path d="M57.44,437.4219 C58.6119,437.4219 59.8463,437.1563 61.2213,436.5469 L60.7369,435.0313 C59.6431,435.4531 58.6275,435.6406 57.7681,435.6406 C55.0494,435.6406 53.3306,433.7969 53.3306,430.8906 C53.3306,428.1406 54.8931,426.5469 57.6275,426.5469 C58.5494,426.5469 59.565,426.7344 60.7056,427.1563 L61.2838,425.6406 C60.19,425.0625 58.8931,424.7656 57.7056,424.7656 C53.94,424.7656 51.3619,427.4063 51.3619,431.2188 C51.3619,434.8906 53.8463,437.4219 57.44,437.4219 Z " fill="#000000"/><text fill="#000000" font-family="sans-serif" font-size="14" lengthAdjust="spacing" textLength="164.6813" x="71.44" y="436.362">EXPR_UNARY_OPERATOR</text><line style="stroke:#181818;stroke-width:0.5;" x1="43.44" x2="238.1213" y1="447" y2="447"/><ellipse cx="53.44" cy="460.9" fill="none" rx="3" ry="3" style="stroke:#038048;stroke-width:1;"/><text fill="#000000" font-family="sans-serif" font-size="14" lengthAdjust="spacing" textLength="162.2314" x="62.44" y="464.7619">operand : EXPRESSION [1]</text><line style="stroke:#181818;stroke-width:0.5;" x1="43.44" x2="238.1213" y1="471.7999" y2="471.7999"/></g><!--class EXPR_OPERATOR--><g class="entity" data-entity="EXPR_OPERATOR" data-source-line="6" data-uid="ent0003" id="entity_EXPR_OPERATOR"><rect fill="#F5F5F5" height="98.3998" rx="2.5" ry="2.5" style="stroke:#808080;stroke-width:1;stroke-dasharray:1,3;" width="267.569" x="7" y="256.6"/><ellipse cx="80.4228" cy="272.6" fill="#A9DCDF" rx="11" ry="11" style="stroke:#181818;stroke-width:1;"/><path d="M74.9384,278.1 L76.9696,278.1 L81.0165,266.7563 L80.1103,266.7563 L83.9384,278.1 L86.079,278.1 L81.7509,265.7719 L79.5321,265.7719 L74.9384,278.1 Z M77.2665,274.6 L83.704,274.6 L83.704,272.85 L77.2665,272.85 L77.2665,274.6 Z " fill="#000000"/><text fill="#808080" font-family="sans-serif" font-size="14" font-style="italic" lengthAdjust="spacing" textLength="112.2235" x="100.9228" y="277.962">EXPR_OPERATOR</text><line style="stroke:#808080;stroke-width:1;stroke-dasharray:1,3;" x1="8" x2="273.569" y1="288.6" y2="288.6"/><ellipse cx="18" cy="302.5" fill="none" rx="3" ry="3" style="stroke:#038048;stroke-width:1;"/><text fill="#808080" font-family="sans-serif" font-size="14" lengthAdjust="spacing" textLength="241.569" x="27" y="306.3619">precedence_overridden : Boolean [0..1]</text><ellipse cx="18" cy="319.2999" fill="none" rx="3" ry="3" style="stroke:#038048;stroke-width:1;"/><text fill="#808080" font-family="sans-serif" font-size="14" lengthAdjust="spacing" textLength="214.4931" x="27" y="323.1619">operator_def : OPERATOR_DEF [1]</text><ellipse cx="18" cy="336.0998" fill="none" rx="3" ry="3" style="stroke:#038048;stroke-width:1;"/><text fill="#808080" font-family="sans-serif" font-size="14" lengthAdjust="spacing" textLength="127.1755" x="27" y="339.9618">symbol : String [0..1]</text><line style="stroke:#808080;stroke-width:1;stroke-dasharray:1,3;" x1="8" x2="273.569" y1="346.9998" y2="346.9998"/></g><!--class EXPRESSION--><g class="entity" data-entity="EXPRESSION" data-source-line="12" data-uid="ent0004" id="entity_EXPRESSION"><rect fill="#F5F5F5" height="64.7999" rx="2.5" ry="2.5" style="stroke:#808080;stroke-width:1;stroke-dasharray:1,3;" width="196.0853" x="42.74" y="131.8"/><ellipse cx="95.5338" cy="147.8" fill="#A9DCDF" rx="11" ry="11" style="stroke:#181818;stroke-width:1;"/><path d="M90.0494,153.3 L92.0807,153.3 L96.1276,141.9563 L95.2213,141.9563 L99.0494,153.3 L101.1901,153.3 L96.8619,140.9719 L94.6432,140.9719 L90.0494,153.3 Z M92.3776,149.8 L98.8151,149.8 L98.8151,148.05 L92.3776,148.05 L92.3776,149.8 Z " fill="#000000"/><text fill="#808080" font-family="sans-serif" font-size="14" font-style="italic" lengthAdjust="spacing" textLength="81.9977" x="116.0338" y="153.162">EXPRESSION</text><line style="stroke:#808080;stroke-width:1;stroke-dasharray:1,3;" x1="43.74" x2="237.8253" y1="163.8" y2="163.8"/><line style="stroke:#808080;stroke-width:1;stroke-dasharray:1,3;" x1="43.74" x2="237.8253" y1="171.8" y2="171.8"/><ellipse cx="53.74" cy="185.7" fill="#84BE84" rx="3" ry="3" style="stroke:#038048;stroke-width:1;"/><text fill="#808080" font-family="sans-serif" font-size="14" font-style="italic" lengthAdjust="spacing" textLength="170.0853" x="62.74" y="189.5619">type() : EXPR_TYPE_DEF [1]</text></g><!--class EXPR_VALUE--><g class="entity" data-entity="EXPR_VALUE" data-source-line="16" data-uid="ent0005" id="entity_EXPR_VALUE"><rect fill="#F5F5F5" height="64.7999" rx="2.5" ry="2.5" style="stroke:#808080;stroke-width:1;stroke-dasharray:1,3;" width="119.3796" x="81.09" y="7"/><ellipse cx="98.367" cy="23" fill="#A9DCDF" rx="11" ry="11" style="stroke:#181818;stroke-width:1;"/><path d="M92.8826,28.5 L94.9139,28.5 L98.9607,17.1563 L98.0545,17.1563 L101.8826,28.5 L104.0232,28.5 L99.6951,16.1719 L97.4764,16.1719 L92.8826,28.5 Z M95.2107,25 L101.6482,25 L101.6482,23.25 L95.2107,23.25 L95.2107,25 Z " fill="#000000"/><text fill="#808080" font-family="sans-serif" font-size="14" font-style="italic" lengthAdjust="spacing" textLength="82.3197" x="112.873" y="28.362">EXPR_VALUE</text><line style="stroke:#808080;stroke-width:1;stroke-dasharray:1,3;" x1="82.09" x2="199.4696" y1="39" y2="39"/><line style="stroke:#808080;stroke-width:1;stroke-dasharray:1,3;" x1="82.09" x2="199.4696" y1="47" y2="47"/><ellipse cx="92.09" cy="60.9" fill="#84BE84" rx="3" ry="3" style="stroke:#038048;stroke-width:1;"/><text fill="#808080" font-family="sans-serif" font-size="14" font-style="italic" lengthAdjust="spacing" textLength="93.3796" x="101.09" y="64.7619">value() : Any [1]</text></g><!--reverse link EXPR_VALUE to EXPRESSION--><g class="link" data-entity-1="EXPR_VALUE" data-entity-2="EXPRESSION" data-source-line="20" data-uid="lnk6" id="link_EXPR_VALUE_EXPRESSION"><path codeLine="20" d="M140.78,90.02 C140.78,108.36 140.78,113.37 140.78,131.68" fill="none" id="EXPR_VALUE-backto-EXPRESSION" style="stroke:#181818;stroke-width:1;"/><polygon fill="none" points="140.78,72.02,134.78,90.02,146.78,90.02,140.78,72.02" style="stroke:#181818;stroke-width:1;"/></g><!--reverse link EXPRESSION to EXPR_OPERATOR--><g class="link" data-entity-1="EXPRESSION" data-entity-2="EXPR_OPERATOR" data-source-line="22" data-uid="lnk7" id="link_EXPRESSION_EXPR_OPERATOR"><path codeLine="22" d="M140.78,214.88 C140.78,232.41 140.78,236.58 140.78,256.26" fill="none" id="EXPRESSION-backto-EXPR_OPERATOR" style="stroke:#181818;stroke-width:1;"/><polygon fill="none" points="140.78,196.88,134.78,214.88,146.78,214.88,140.78,196.88" style="stroke:#181818;stroke-width:1;"/></g><!--reverse link EXPR_OPERATOR to EXPR_UNARY_OPERATOR--><g class="link" data-entity-1="EXPR_OPERATOR" data-entity-2="EXPR_UNARY_OPERATOR" data-source-line="24" data-uid="lnk8" id="link_EXPR_OPERATOR_EXPR_UNARY_OPERATOR"><path codeLine="24" d="M140.78,373.23 C140.78,392.92 140.78,397.12 140.78,414.68" fill="none" id="EXPR_OPERATOR-backto-EXPR_UNARY_OPERATOR" style="stroke:#181818;stroke-width:1;"/><polygon fill="none" points="140.78,355.23,134.78,373.23,146.78,373.23,140.78,355.23" style="stroke:#181818;stroke-width:1;"/></g></g></svg>
