<svg xmlns="http://www.w3.org/2000/svg" xmlns:xlink="http://www.w3.org/1999/xlink" contentStyleType="text/css" data-diagram-type="CLASS" height="237px" preserveAspectRatio="none" style="width:214px;height:237px;background:#FFFFFF;" version="1.1" viewBox="0 0 214 237" width="214px" zoomAndPan="magnify"><defs/><g><!--class EXTERNAL_QUERY--><g class="entity" data-entity="EXTERNAL_QUERY" data-source-line="2" data-uid="ent0002" id="entity_EXTERNAL_QUERY"><rect fill="#F1F1F1" height="98.3998" rx="2.5" ry="2.5" style="stroke:#181818;stroke-width:0.5;" width="200.0473" x="7" y="131.8"/><ellipse cx="43.7439" cy="147.8" fill="#ADD1B2" rx="11" ry="11" style="stroke:#181818;stroke-width:1;"/><path d="M43.7439,154.2219 C44.9158,154.2219 46.1502,153.9562 47.5252,153.3469 L47.0408,151.8312 C45.947,152.2531 44.9314,152.4406 44.072,152.4406 C41.3533,152.4406 39.6345,150.5969 39.6345,147.6906 C39.6345,144.9406 41.197,143.3469 43.9314,143.3469 C44.8533,143.3469 45.8689,143.5344 47.0095,143.9562 L47.5877,142.4406 C46.4939,141.8625 45.197,141.5656 44.0095,141.5656 C40.2439,141.5656 37.6658,144.2062 37.6658,148.0187 C37.6658,151.6906 40.1502,154.2219 43.7439,154.2219 Z " fill="#000000"/><text fill="#000000" font-family="sans-serif" font-size="14" lengthAdjust="spacing" textLength="119.7275" x="62.5759" y="153.162">EXTERNAL_QUERY</text><line style="stroke:#181818;stroke-width:0.5;" x1="8" x2="206.0473" y1="163.8" y2="163.8"/><ellipse cx="18" cy="177.7" fill="none" rx="3" ry="3" style="stroke:#038048;stroke-width:1;"/><text fill="#000000" font-family="sans-serif" font-size="14" lengthAdjust="spacing" textLength="112.4616" x="27" y="181.5619">context : String [1]</text><ellipse cx="18" cy="194.4999" fill="none" rx="3" ry="3" style="stroke:#038048;stroke-width:1;"/><text fill="#000000" font-family="sans-serif" font-size="14" lengthAdjust="spacing" textLength="119.5875" x="27" y="198.3619">query_id : String [1]</text><ellipse cx="18" cy="211.2998" fill="none" rx="3" ry="3" style="stroke:#038048;stroke-width:1;"/><text fill="#000000" font-family="sans-serif" font-size="14" lengthAdjust="spacing" textLength="174.0473" x="27" y="215.1618">query_args : List&lt;String&gt; [*]</text><line style="stroke:#181818;stroke-width:0.5;" x1="8" x2="206.0473" y1="222.1998" y2="222.1998"/></g><!--class EXPR_VALUE--><g class="entity" data-entity="EXPR_VALUE" data-source-line="8" data-uid="ent0003" id="entity_EXPR_VALUE"><rect fill="#F5F5F5" height="64.7999" rx="2.5" ry="2.5" style="stroke:#808080;stroke-width:1;stroke-dasharray:1,3;" width="119.3796" x="47.33" y="7"/><ellipse cx="64.607" cy="23" fill="#A9DCDF" rx="11" ry="11" style="stroke:#181818;stroke-width:1;"/><path d="M59.1226,28.5 L61.1539,28.5 L65.2007,17.1563 L64.2945,17.1563 L68.1226,28.5 L70.2632,28.5 L65.9351,16.1719 L63.7164,16.1719 L59.1226,28.5 Z M61.4507,25 L67.8882,25 L67.8882,23.25 L61.4507,23.25 L61.4507,25 Z " fill="#000000"/><text fill="#808080" font-family="sans-serif" font-size="14" font-style="italic" lengthAdjust="spacing" textLength="82.3197" x="79.113" y="28.362">EXPR_VALUE</text><line style="stroke:#808080;stroke-width:1;stroke-dasharray:1,3;" x1="48.33" x2="165.7096" y1="39" y2="39"/><line style="stroke:#808080;stroke-width:1;stroke-dasharray:1,3;" x1="48.33" x2="165.7096" y1="47" y2="47"/><ellipse cx="58.33" cy="60.9" fill="#84BE84" rx="3" ry="3" style="stroke:#038048;stroke-width:1;"/><text fill="#808080" font-family="sans-serif" font-size="14" font-style="italic" lengthAdjust="spacing" textLength="93.3796" x="67.33" y="64.7619">value() : Any [1]</text></g><!--reverse link EXPR_VALUE to EXTERNAL_QUERY--><g class="link" data-entity-1="EXPR_VALUE" data-entity-2="EXTERNAL_QUERY" data-source-line="12" data-uid="lnk4" id="link_EXPR_VALUE_EXTERNAL_QUERY"><path codeLine="12" d="M107.02,90.08 C107.02,107.61 107.02,111.78 107.02,131.46" fill="none" id="EXPR_VALUE-backto-EXTERNAL_QUERY" style="stroke:#181818;stroke-width:1;"/><polygon fill="none" points="107.02,72.08,101.02,90.08,113.02,90.08,107.02,72.08" style="stroke:#181818;stroke-width:1;"/></g></g></svg>
