<svg xmlns="http://www.w3.org/2000/svg" xmlns:xlink="http://www.w3.org/1999/xlink" contentStyleType="text/css" data-diagram-type="CLASS" height="203px" preserveAspectRatio="none" style="width:154px;height:203px;background:#FFFFFF;" version="1.1" viewBox="0 0 154 203" width="154px" zoomAndPan="magnify"><defs/><g><!--class GENERIC_ID--><g class="entity" data-entity="GENERIC_ID" data-source-line="2" data-uid="ent0002" id="entity_GENERIC_ID"><rect fill="#F1F1F1" height="64.7999" rx="2.5" ry="2.5" style="stroke:#181818;stroke-width:0.5;" width="140.1416" x="7" y="131.8"/><ellipse cx="35.1129" cy="147.8" fill="#ADD1B2" rx="11" ry="11" style="stroke:#181818;stroke-width:1;"/><path d="M35.1129,154.2219 C36.2848,154.2219 37.5192,153.9562 38.8942,153.3469 L38.4098,151.8312 C37.3161,152.2531 36.3004,152.4406 35.4411,152.4406 C32.7223,152.4406 31.0036,150.5969 31.0036,147.6906 C31.0036,144.9406 32.5661,143.3469 35.3004,143.3469 C36.2223,143.3469 37.2379,143.5344 38.3786,143.9562 L38.9567,142.4406 C37.8629,141.8625 36.5661,141.5656 35.3786,141.5656 C31.6129,141.5656 29.0348,144.2062 29.0348,148.0187 C29.0348,151.6906 31.5192,154.2219 35.1129,154.2219 Z " fill="#000000"/><text fill="#000000" font-family="sans-serif" font-size="14" lengthAdjust="spacing" textLength="79.0017" x="52.0269" y="153.162">GENERIC_ID</text><line style="stroke:#181818;stroke-width:0.5;" x1="8" x2="146.1416" y1="163.8" y2="163.8"/><ellipse cx="18" cy="177.7" fill="none" rx="3" ry="3" style="stroke:#038048;stroke-width:1;"/><text fill="#000000" font-family="sans-serif" font-size="14" lengthAdjust="spacing" textLength="114.1416" x="27" y="181.5619">scheme : String [1]</text><line style="stroke:#181818;stroke-width:0.5;" x1="8" x2="146.1416" y1="188.5999" y2="188.5999"/></g><!--class OBJECT_ID--><g class="entity" data-entity="OBJECT_ID" data-source-line="6" data-uid="ent0003" id="entity_OBJECT_ID"><rect fill="#F5F5F5" height="64.7999" rx="2.5" ry="2.5" style="stroke:#808080;stroke-width:1;stroke-dasharray:1,3;" width="124.9656" x="14.59" y="7"/><ellipse cx="39.5404" cy="23" fill="#A9DCDF" rx="11" ry="11" style="stroke:#181818;stroke-width:1;"/><path d="M34.056,28.5 L36.0872,28.5 L40.1341,17.1563 L39.2279,17.1563 L43.056,28.5 L45.1966,28.5 L40.8685,16.1719 L38.6497,16.1719 L34.056,28.5 Z M36.3841,25 L42.8216,25 L42.8216,23.25 L36.3841,23.25 L36.3841,25 Z " fill="#000000"/><text fill="#808080" font-family="sans-serif" font-size="14" font-style="italic" lengthAdjust="spacing" textLength="70.8537" x="55.7515" y="28.362">OBJECT_ID</text><line style="stroke:#808080;stroke-width:1;stroke-dasharray:1,3;" x1="15.59" x2="138.5556" y1="39" y2="39"/><ellipse cx="25.59" cy="52.9" fill="none" rx="3" ry="3" style="stroke:#038048;stroke-width:1;"/><text fill="#808080" font-family="sans-serif" font-size="14" lengthAdjust="spacing" textLength="98.9656" x="34.59" y="56.7619">value : String [1]</text><line style="stroke:#808080;stroke-width:1;stroke-dasharray:1,3;" x1="15.59" x2="138.5556" y1="63.7999" y2="63.7999"/></g><!--reverse link OBJECT_ID to GENERIC_ID--><g class="link" data-entity-1="OBJECT_ID" data-entity-2="GENERIC_ID" data-source-line="10" data-uid="lnk4" id="link_OBJECT_ID_GENERIC_ID"><path codeLine="10" d="M77.07,90.02 C77.07,108.36 77.07,113.37 77.07,131.68" fill="none" id="OBJECT_ID-backto-GENERIC_ID" style="stroke:#181818;stroke-width:1;"/><polygon fill="none" points="77.07,72.02,71.07,90.02,83.07,90.02,77.07,72.02" style="stroke:#181818;stroke-width:1;"/></g></g></svg>
