<svg xmlns="http://www.w3.org/2000/svg" xmlns:xlink="http://www.w3.org/1999/xlink" contentStyleType="text/css" data-diagram-type="CLASS" height="256px" preserveAspectRatio="none" style="width:260px;height:256px;background:#FFFFFF;" version="1.1" viewBox="0 0 260 256" width="260px" zoomAndPan="magnify"><defs/><g><!--class Hash--><g class="entity" data-entity="Hash" data-source-line="2" data-uid="ent0002" id="entity_Hash"><rect fill="#F1F1F1" height="81.5999" rx="2.5" ry="2.5" style="stroke:#181818;stroke-width:0.5;" width="242.2151" x="7" y="168.4"/><ellipse cx="95.8876" cy="184.4" fill="#ADD1B2" rx="11" ry="11" style="stroke:#181818;stroke-width:1;"/><path d="M95.8876,190.8219 C97.0594,190.8219 98.2938,190.5563 99.6688,189.9469 L99.1844,188.4313 C98.0907,188.8531 97.0751,189.0406 96.2157,189.0406 C93.4969,189.0406 91.7782,187.1969 91.7782,184.2906 C91.7782,181.5406 93.3407,179.9469 96.0751,179.9469 C96.9969,179.9469 98.0126,180.1344 99.1532,180.5563 L99.7313,179.0406 C98.6376,178.4625 97.3407,178.1656 96.1532,178.1656 C92.3876,178.1656 89.8094,180.8063 89.8094,184.6188 C89.8094,188.2906 92.2938,190.8219 95.8876,190.8219 Z " fill="#000000"/><text fill="#000000" font-family="sans-serif" font-size="14" lengthAdjust="spacing" textLength="31.6959" x="116.3876" y="189.762">Hash</text><rect fill="#FFFFFF" height="16.4001" style="stroke:#181818;stroke-width:1;stroke-dasharray:2,2;" width="22.2441" x="229.971" y="165.4"/><text fill="#000000" font-family="sans-serif" font-size="12" font-style="italic" lengthAdjust="spacing" textLength="20.2441" x="230.971" y="178.1961">K, V</text><line style="stroke:#181818;stroke-width:0.5;" x1="8" x2="248.2151" y1="200.4" y2="200.4"/><line style="stroke:#181818;stroke-width:0.5;" x1="8" x2="248.2151" y1="208.4" y2="208.4"/><ellipse cx="18" cy="222.3" fill="#84BE84" rx="3" ry="3" style="stroke:#038048;stroke-width:1;"/><text fill="#000000" font-family="sans-serif" font-size="14" lengthAdjust="spacing" textLength="216.2151" x="27" y="226.1619">has_key( a_key : K [1] ) : Boolean [1]</text><ellipse cx="18" cy="239.0999" fill="#84BE84" rx="3" ry="3" style="stroke:#038048;stroke-width:1;"/><text fill="#000000" font-family="sans-serif" font-size="14" lengthAdjust="spacing" textLength="152.1794" x="27" y="242.9619">item( a_key : K [1] ) : V [1]</text></g><!--class Container--><g class="entity" data-entity="Container" data-source-line="7" data-uid="ent0003" id="entity_Container"><rect fill="#F5F5F5" height="98.3998" rx="2.5" ry="2.5" style="stroke:#808080;stroke-width:1;stroke-dasharray:1,3;" width="185.0114" x="35.6" y="10"/><ellipse cx="87.8698" cy="26" fill="#A9DCDF" rx="11" ry="11" style="stroke:#181818;stroke-width:1;"/><path d="M82.3854,31.5 L84.4166,31.5 L88.4635,20.1563 L87.5573,20.1563 L91.3854,31.5 L93.526,31.5 L89.1979,19.1719 L86.9791,19.1719 L82.3854,31.5 Z M84.7135,28 L91.151,28 L91.151,26.25 L84.7135,26.25 L84.7135,28 Z " fill="#000000"/><text fill="#808080" font-family="sans-serif" font-size="14" font-style="italic" lengthAdjust="spacing" textLength="61.1798" x="108.3698" y="31.362">Container</text><rect fill="#FFFFFF" height="16.4001" style="stroke:#181818;stroke-width:1;stroke-dasharray:2,2;" width="8.7921" x="214.8193" y="7"/><text fill="#000000" font-family="sans-serif" font-size="12" font-style="italic" lengthAdjust="spacing" textLength="6.7921" x="215.8193" y="19.7961">T</text><line style="stroke:#808080;stroke-width:1;stroke-dasharray:1,3;" x1="36.6" x2="219.6114" y1="42" y2="42"/><line style="stroke:#808080;stroke-width:1;stroke-dasharray:1,3;" x1="36.6" x2="219.6114" y1="50" y2="50"/><ellipse cx="46.6" cy="63.9" fill="#84BE84" rx="3" ry="3" style="stroke:#038048;stroke-width:1;"/><text fill="#808080" font-family="sans-serif" font-size="14" font-style="italic" lengthAdjust="spacing" textLength="159.0114" x="55.6" y="67.7619">has( v : T [1] ) : Boolean [1]</text><ellipse cx="46.6" cy="80.6999" fill="#84BE84" rx="3" ry="3" style="stroke:#038048;stroke-width:1;"/><text fill="#808080" font-family="sans-serif" font-size="14" font-style="italic" lengthAdjust="spacing" textLength="117.0256" x="55.6" y="84.5619">count() : Integer [1]</text><ellipse cx="46.6" cy="97.4998" fill="#84BE84" rx="3" ry="3" style="stroke:#038048;stroke-width:1;"/><text fill="#808080" font-family="sans-serif" font-size="14" font-style="italic" lengthAdjust="spacing" textLength="144.5634" x="55.6" y="101.3618">is_empty() : Boolean [1]</text></g><!--reverse link Container to Hash--><g class="link" data-entity-1="Container" data-entity-2="Hash" data-source-line="13" data-uid="lnk4" id="link_Container_Hash"><path codeLine="13" d="M128.11,126.66 C128.11,145.88 128.11,149.72 128.11,168.04" fill="none" id="Container-backto-Hash" style="stroke:#181818;stroke-width:1;"/><polygon fill="none" points="128.11,108.66,122.11,126.66,134.11,126.66,128.11,108.66" style="stroke:#181818;stroke-width:1;"/></g></g></svg>
