<svg xmlns="http://www.w3.org/2000/svg" xmlns:xlink="http://www.w3.org/1999/xlink" contentStyleType="text/css" data-diagram-type="CLASS" height="324px" preserveAspectRatio="none" style="width:329px;height:324px;background:#FFFFFF;" version="1.1" viewBox="0 0 329 324" width="329px" zoomAndPan="magnify"><defs/><g><!--class Hash--><g class="entity" data-entity="Hash" data-source-line="2" data-uid="ent0002" id="entity_Hash"><rect fill="#F1F1F1" height="81.5999" rx="2.5" ry="2.5" style="stroke:#181818;stroke-width:0.5;" width="242.2151" x="41.45" y="235.6"/><ellipse cx="130.3376" cy="251.6" fill="#ADD1B2" rx="11" ry="11" style="stroke:#181818;stroke-width:1;"/><path d="M130.3376,258.0219 C131.5094,258.0219 132.7438,257.7563 134.1188,257.1469 L133.6344,255.6313 C132.5407,256.0531 131.5251,256.2406 130.6657,256.2406 C127.9469,256.2406 126.2282,254.3969 126.2282,251.4906 C126.2282,248.7406 127.7907,247.1469 130.5251,247.1469 C131.4469,247.1469 132.4626,247.3344 133.6032,247.7563 L134.1813,246.2406 C133.0876,245.6625 131.7907,245.3656 130.6032,245.3656 C126.8376,245.3656 124.2594,248.0063 124.2594,251.8188 C124.2594,255.4906 126.7438,258.0219 130.3376,258.0219 Z " fill="#000000"/><text fill="#000000" font-family="sans-serif" font-size="14" lengthAdjust="spacing" textLength="31.6959" x="150.8376" y="256.962">Hash</text><rect fill="#FFFFFF" height="16.4001" style="stroke:#181818;stroke-width:1;stroke-dasharray:2,2;" width="22.2441" x="264.421" y="232.6"/><text fill="#000000" font-family="sans-serif" font-size="12" font-style="italic" lengthAdjust="spacing" textLength="20.2441" x="265.421" y="245.3961">K, V</text><line style="stroke:#181818;stroke-width:0.5;" x1="42.45" x2="282.6651" y1="267.6" y2="267.6"/><line style="stroke:#181818;stroke-width:0.5;" x1="42.45" x2="282.6651" y1="275.6" y2="275.6"/><ellipse cx="52.45" cy="289.5" fill="#84BE84" rx="3" ry="3" style="stroke:#038048;stroke-width:1;"/><text fill="#000000" font-family="sans-serif" font-size="14" lengthAdjust="spacing" textLength="216.2151" x="61.45" y="293.3619">has_key( a_key : K [1] ) : Boolean [1]</text><ellipse cx="52.45" cy="306.2999" fill="#84BE84" rx="3" ry="3" style="stroke:#038048;stroke-width:1;"/><text fill="#000000" font-family="sans-serif" font-size="14" lengthAdjust="spacing" textLength="152.1794" x="61.45" y="310.1619">item( a_key : K [1] ) : V [1]</text></g><!--class Container--><g class="entity" data-entity="Container" data-source-line="7" data-uid="ent0003" id="entity_Container"><rect fill="#F5F5F5" height="165.5995" rx="2.5" ry="2.5" style="stroke:#808080;stroke-width:1;stroke-dasharray:1,3;" width="311.1089" x="7" y="10"/><ellipse cx="122.3186" cy="26" fill="#A9DCDF" rx="11" ry="11" style="stroke:#181818;stroke-width:1;"/><path d="M116.8342,31.5 L118.8654,31.5 L122.9123,20.1563 L122.0061,20.1563 L125.8342,31.5 L127.9748,31.5 L123.6467,19.1719 L121.4279,19.1719 L116.8342,31.5 Z M119.1623,28 L125.5998,28 L125.5998,26.25 L119.1623,26.25 L119.1623,28 Z " fill="#000000"/><text fill="#808080" font-family="sans-serif" font-size="14" font-style="italic" lengthAdjust="spacing" textLength="61.1798" x="142.8186" y="31.362">Container</text><rect fill="#FFFFFF" height="16.4001" style="stroke:#181818;stroke-width:1;stroke-dasharray:2,2;" width="8.7921" x="312.3169" y="7"/><text fill="#000000" font-family="sans-serif" font-size="12" font-style="italic" lengthAdjust="spacing" textLength="6.7921" x="313.3169" y="19.7961">T</text><line style="stroke:#808080;stroke-width:1;stroke-dasharray:1,3;" x1="8" x2="317.1089" y1="42" y2="42"/><line style="stroke:#808080;stroke-width:1;stroke-dasharray:1,3;" x1="8" x2="317.1089" y1="50" y2="50"/><ellipse cx="18" cy="63.9" fill="#84BE84" rx="3" ry="3" style="stroke:#038048;stroke-width:1;"/><text fill="#808080" font-family="sans-serif" font-size="14" font-style="italic" lengthAdjust="spacing" textLength="159.0114" x="27" y="67.7619">has( v : T [1] ) : Boolean [1]</text><ellipse cx="18" cy="80.6999" fill="#84BE84" rx="3" ry="3" style="stroke:#038048;stroke-width:1;"/><text fill="#808080" font-family="sans-serif" font-size="14" font-style="italic" lengthAdjust="spacing" textLength="117.0256" x="27" y="84.5619">count() : Integer [1]</text><ellipse cx="18" cy="97.4998" fill="#84BE84" rx="3" ry="3" style="stroke:#038048;stroke-width:1;"/><text fill="#808080" font-family="sans-serif" font-size="14" font-style="italic" lengthAdjust="spacing" textLength="144.5634" x="27" y="101.3618">is_empty() : Boolean [1]</text><ellipse cx="18" cy="114.2997" fill="#84BE84" rx="3" ry="3" style="stroke:#038048;stroke-width:1;"/><text fill="#808080" font-family="sans-serif" font-size="14" lengthAdjust="spacing" textLength="285.1089" x="27" y="118.1617">there_exists( test : Operation [1] ) : Boolean [1]</text><ellipse cx="18" cy="131.0997" fill="#84BE84" rx="3" ry="3" style="stroke:#038048;stroke-width:1;"/><text fill="#808080" font-family="sans-serif" font-size="14" lengthAdjust="spacing" textLength="249.535" x="27" y="134.9616">for_all( test : Operation [1] ) : Boolean [1]</text><ellipse cx="18" cy="147.8996" fill="#84BE84" rx="3" ry="3" style="stroke:#038048;stroke-width:1;"/><text fill="#808080" font-family="sans-serif" font-size="14" lengthAdjust="spacing" textLength="263.871" x="27" y="151.7616">matching( test : Operation [1] ) : List&lt;T&gt; [*]</text><ellipse cx="18" cy="164.6995" fill="#84BE84" rx="3" ry="3" style="stroke:#038048;stroke-width:1;"/><text fill="#808080" font-family="sans-serif" font-size="14" lengthAdjust="spacing" textLength="218.9731" x="27" y="168.5615">select( test : Operation [1] ) : T [0..1]</text></g><!--reverse link Container to Hash--><g class="link" data-entity-1="Container" data-entity-2="Hash" data-source-line="17" data-uid="lnk4" id="link_Container_Hash"><path codeLine="17" d="M162.55,194.1 C162.55,214.74 162.55,217.98 162.55,235.49" fill="none" id="Container-backto-Hash" style="stroke:#181818;stroke-width:1;"/><polygon fill="none" points="162.55,176.1,156.55,194.1,168.55,194.1,162.55,176.1" style="stroke:#181818;stroke-width:1;"/></g></g></svg>
