<svg xmlns="http://www.w3.org/2000/svg" xmlns:xlink="http://www.w3.org/1999/xlink" contentStyleType="text/css" data-diagram-type="CLASS" height="529px" preserveAspectRatio="none" style="width:766px;height:529px;background:#FFFFFF;" version="1.1" viewBox="0 0 766 529" width="766px" zoomAndPan="magnify"><defs/><g><!--class IDate_time--><g class="entity" data-entity="IDate_time" data-source-line="2" data-uid="ent0002" id="entity_IDate_time"><rect fill="#F1F1F1" height="182.3994" rx="2.5" ry="2.5" style="stroke:#181818;stroke-width:0.5;" width="200.5653" x="239.55" y="340.6"/><ellipse cx="301.2828" cy="356.6" fill="#A9DCDF" rx="11" ry="11" style="stroke:#181818;stroke-width:1;"/><path d="M295.7984,362.1 L297.8297,362.1 L301.8765,350.7563 L300.9703,350.7563 L304.7984,362.1 L306.939,362.1 L302.6109,349.7719 L300.3922,349.7719 L295.7984,362.1 Z M298.1265,358.6 L304.564,358.6 L304.564,356.85 L298.1265,356.85 L298.1265,358.6 Z " fill="#000000"/><text fill="#000000" font-family="sans-serif" font-size="14" font-style="italic" lengthAdjust="spacing" textLength="68.5997" x="321.7828" y="361.962">IDate_time</text><line style="stroke:#181818;stroke-width:0.5;" x1="240.55" x2="439.1153" y1="372.6" y2="372.6"/><line style="stroke:#181818;stroke-width:0.5;" x1="240.55" x2="439.1153" y1="380.6" y2="380.6"/><ellipse cx="250.55" cy="394.5" fill="#84BE84" rx="3" ry="3" style="stroke:#038048;stroke-width:1;"/><text fill="#000000" font-family="sans-serif" font-size="14" lengthAdjust="spacing" textLength="108.3036" x="259.55" y="398.3619">year() : Integer [1]</text><ellipse cx="250.55" cy="411.2999" fill="#84BE84" rx="3" ry="3" style="stroke:#038048;stroke-width:1;"/><text fill="#000000" font-family="sans-serif" font-size="14" lengthAdjust="spacing" textLength="123.0175" x="259.55" y="415.1619">month() : Integer [1]</text><ellipse cx="250.55" cy="428.0998" fill="#84BE84" rx="3" ry="3" style="stroke:#038048;stroke-width:1;"/><text fill="#000000" font-family="sans-serif" font-size="14" lengthAdjust="spacing" textLength="103.6136" x="259.55" y="431.9618">day() : Integer [1]</text><ellipse cx="250.55" cy="444.8997" fill="#84BE84" rx="3" ry="3" style="stroke:#038048;stroke-width:1;"/><text fill="#000000" font-family="sans-serif" font-size="14" lengthAdjust="spacing" textLength="110.7116" x="259.55" y="448.7617">hour() : Integer [1]</text><ellipse cx="250.55" cy="461.6997" fill="#84BE84" rx="3" ry="3" style="stroke:#038048;stroke-width:1;"/><text fill="#000000" font-family="sans-serif" font-size="14" lengthAdjust="spacing" textLength="125.7895" x="259.55" y="465.5616">minute() : Integer [1]</text><ellipse cx="250.55" cy="478.4996" fill="#84BE84" rx="3" ry="3" style="stroke:#038048;stroke-width:1;"/><text fill="#000000" font-family="sans-serif" font-size="14" lengthAdjust="spacing" textLength="126.0275" x="259.55" y="482.3616">second() : Integer [1]</text><ellipse cx="250.55" cy="495.2995" fill="#84BE84" rx="3" ry="3" style="stroke:#038048;stroke-width:1;"/><text fill="#000000" font-family="sans-serif" font-size="14" lengthAdjust="spacing" textLength="174.5653" x="259.55" y="499.1615">fractional_second() : Real [1]</text><ellipse cx="250.55" cy="512.0995" fill="#84BE84" rx="3" ry="3" style="stroke:#038048;stroke-width:1;"/><text fill="#000000" font-family="sans-serif" font-size="14" lengthAdjust="spacing" textLength="159.6974" x="259.55" y="515.9614">timezone() : ITimezone [1]</text></g><!--class Temporal--><g class="entity" data-entity="Temporal" data-source-line="13" data-uid="ent0003" id="entity_Temporal"><rect fill="#F5F5F5" height="48" rx="2.5" ry="2.5" style="stroke:#808080;stroke-width:1;stroke-dasharray:1,3;" width="91.9898" x="293.83" y="232.6"/><ellipse cx="308.83" cy="248.6" fill="#A9DCDF" rx="11" ry="11" style="stroke:#181818;stroke-width:1;"/><path d="M303.3456,254.1 L305.3769,254.1 L309.4238,242.7563 L308.5175,242.7563 L312.3456,254.1 L314.4863,254.1 L310.1581,241.7719 L307.9394,241.7719 L303.3456,254.1 Z M305.6738,250.6 L312.1113,250.6 L312.1113,248.85 L305.6738,248.85 L305.6738,250.6 Z " fill="#000000"/><text fill="#808080" font-family="sans-serif" font-size="14" font-style="italic" lengthAdjust="spacing" textLength="59.9898" x="322.83" y="253.962">Temporal</text><line style="stroke:#808080;stroke-width:1;stroke-dasharray:1,3;" x1="294.83" x2="384.8198" y1="264.6" y2="264.6"/><line style="stroke:#808080;stroke-width:1;stroke-dasharray:1,3;" x1="294.83" x2="384.8198" y1="272.6" y2="272.6"/></g><!--class Ordered--><g class="entity" data-entity="Ordered" data-source-line="16" data-uid="ent0004" id="entity_Ordered"><rect fill="#F5F5F5" height="64.7999" rx="2.5" ry="2.5" style="stroke:#808080;stroke-width:1;stroke-dasharray:1,3;" width="271.657" x="7" y="57.4"/><ellipse cx="112.6086" cy="73.4" fill="#A9DCDF" rx="11" ry="11" style="stroke:#181818;stroke-width:1;"/><path d="M107.1243,78.9 L109.1555,78.9 L113.2024,67.5562 L112.2961,67.5562 L116.1243,78.9 L118.2649,78.9 L113.9368,66.5719 L111.718,66.5719 L107.1243,78.9 Z M109.4524,75.4 L115.8899,75.4 L115.8899,73.65 L109.4524,73.65 L109.4524,75.4 Z " fill="#000000"/><text fill="#808080" font-family="sans-serif" font-size="14" font-style="italic" lengthAdjust="spacing" textLength="51.9398" x="133.1086" y="78.762">Ordered</text><line style="stroke:#808080;stroke-width:1;stroke-dasharray:1,3;" x1="8" x2="277.657" y1="89.4" y2="89.4"/><line style="stroke:#808080;stroke-width:1;stroke-dasharray:1,3;" x1="8" x2="277.657" y1="97.4" y2="97.4"/><ellipse cx="18" cy="111.3" fill="#84BE84" rx="3" ry="3" style="stroke:#038048;stroke-width:1;"/><text fill="#808080" font-family="sans-serif" font-size="14" font-style="italic" lengthAdjust="spacing" textLength="245.657" x="27" y="115.1619">infix &lt;( other : Ordered [1] ) : Boolean [1]</text></g><!--class Time_Definitions--><g class="entity" data-entity="Time_Definitions" data-source-line="22" data-uid="ent0006" id="entity_Time_Definitions"><rect fill="#F5F5F5" height="165.5995" rx="2.5" ry="2.5" style="stroke:#808080;stroke-width:1;stroke-dasharray:1,3;" width="445.5084" x="314.07" y="7"/><ellipse cx="479.5914" cy="23" fill="#ADD1B2" rx="11" ry="11" style="stroke:#181818;stroke-width:1;"/><path d="M479.5914,29.4219 C480.7633,29.4219 481.9977,29.1563 483.3727,28.5469 L482.8883,27.0313 C481.7945,27.4531 480.7789,27.6406 479.9195,27.6406 C477.2008,27.6406 475.482,25.7969 475.482,22.8906 C475.482,20.1406 477.0445,18.5469 479.7789,18.5469 C480.7008,18.5469 481.7164,18.7344 482.857,19.1563 L483.4352,17.6406 C482.3414,17.0625 481.0445,16.7656 479.857,16.7656 C476.0914,16.7656 473.5133,19.4063 473.5133,23.2188 C473.5133,26.8906 475.9977,29.4219 479.5914,29.4219 Z " fill="#000000"/><text fill="#808080" font-family="sans-serif" font-size="14" lengthAdjust="spacing" textLength="105.9656" x="500.0914" y="28.362">Time_Definitions</text><line style="stroke:#808080;stroke-width:1;stroke-dasharray:1,3;" x1="315.07" x2="758.5784" y1="39" y2="39"/><line style="stroke:#808080;stroke-width:1;stroke-dasharray:1,3;" x1="315.07" x2="758.5784" y1="47" y2="47"/><ellipse cx="325.07" cy="60.9" fill="#84BE84" rx="3" ry="3" style="stroke:#038048;stroke-width:1;"/><text fill="#808080" font-family="sans-serif" font-size="14" lengthAdjust="spacing" textLength="237.0191" x="334.07" y="64.7619">valid_year( y : Integer [1] ) : Boolean [1]</text><ellipse cx="325.07" cy="77.6999" fill="#84BE84" rx="3" ry="3" style="stroke:#038048;stroke-width:1;"/><text fill="#808080" font-family="sans-serif" font-size="14" lengthAdjust="spacing" textLength="257.417" x="334.07" y="81.5619">valid_month( m : Integer [1] ) : Boolean [1]</text><ellipse cx="325.07" cy="94.4998" fill="#84BE84" rx="3" ry="3" style="stroke:#038048;stroke-width:1;"/><text fill="#808080" font-family="sans-serif" font-size="14" lengthAdjust="spacing" textLength="412.6764" x="334.07" y="98.3618">valid_day( y : Integer [1], m : Integer [1], d : Integer [1] ) : Boolean [1]</text><ellipse cx="325.07" cy="111.2997" fill="#84BE84" rx="3" ry="3" style="stroke:#038048;stroke-width:1;"/><text fill="#808080" font-family="sans-serif" font-size="14" lengthAdjust="spacing" textLength="419.5084" x="334.07" y="115.1617">valid_hour( h : Integer [1], m : Integer [1], s : Integer [1] ) : Boolean [1]</text><ellipse cx="325.07" cy="128.0997" fill="#84BE84" rx="3" ry="3" style="stroke:#038048;stroke-width:1;"/><text fill="#808080" font-family="sans-serif" font-size="14" lengthAdjust="spacing" textLength="260.189" x="334.07" y="131.9616">valid_minute( m : Integer [1] ) : Boolean [1]</text><ellipse cx="325.07" cy="144.8996" fill="#84BE84" rx="3" ry="3" style="stroke:#038048;stroke-width:1;"/><text fill="#808080" font-family="sans-serif" font-size="14" lengthAdjust="spacing" textLength="254.519" x="334.07" y="148.7616">valid_second( s : Integer [1] ) : Boolean [1]</text><ellipse cx="325.07" cy="161.6995" fill="#84BE84" rx="3" ry="3" style="stroke:#038048;stroke-width:1;"/><text fill="#808080" font-family="sans-serif" font-size="14" lengthAdjust="spacing" textLength="325.6528" x="334.07" y="165.5615">valid_fractional_second( fs : Double [1] ) : Boolean [1]</text></g><!--reverse link Ordered to Temporal--><g class="link" data-entity-1="Ordered" data-entity-2="Temporal" data-source-line="20" data-uid="lnk5" id="link_Ordered_Temporal"><path codeLine="20" d="M194.6164,134.1291 C232.9664,166.2091 277.5,203.46 311.83,232.17" fill="none" id="Ordered-backto-Temporal" style="stroke:#181818;stroke-width:1;"/><polygon fill="none" points="180.81,122.58,190.7667,138.7313,198.4661,129.527,180.81,122.58" style="stroke:#181818;stroke-width:1;"/></g><!--reverse link Time_Definitions to Temporal--><g class="link" data-entity-1="Time_Definitions" data-entity-2="Temporal" data-source-line="32" data-uid="lnk7" id="link_Time_Definitions_Temporal"><path codeLine="32" d="M424.8125,184.5078 C398.7825,206.2778 386.55,216.52 367.73,232.26" fill="none" id="Time_Definitions-backto-Temporal" style="stroke:#181818;stroke-width:1;"/><polygon fill="none" points="438.62,172.96,420.9632,179.9053,428.6617,189.1103,438.62,172.96" style="stroke:#181818;stroke-width:1;"/></g><!--reverse link Temporal to IDate_time--><g class="link" data-entity-1="Temporal" data-entity-2="IDate_time" data-source-line="34" data-uid="lnk8" id="link_Temporal_IDate_time"><path codeLine="34" d="M339.83,298.96 C339.83,314.56 339.83,318.19 339.83,340.17" fill="none" id="Temporal-backto-IDate_time" style="stroke:#181818;stroke-width:1;"/><polygon fill="none" points="339.83,280.96,333.83,298.96,345.83,298.96,339.83,280.96" style="stroke:#181818;stroke-width:1;"/></g></g></svg>
