<svg xmlns="http://www.w3.org/2000/svg" xmlns:xlink="http://www.w3.org/1999/xlink" contentStyleType="text/css" data-diagram-type="CLASS" height="546px" preserveAspectRatio="none" style="width:721px;height:546px;background:#FFFFFF;" version="1.1" viewBox="0 0 721 546" width="721px" zoomAndPan="magnify"><defs/><g><!--class Integer64--><g class="entity" data-entity="Integer64" data-source-line="2" data-uid="ent0002" id="entity_Integer64"><rect fill="#F1F1F1" height="215.9993" rx="2.5" ry="2.5" style="stroke:#181818;stroke-width:0.5;" width="303.0309" x="228.69" y="323.8"/><ellipse cx="345.3096" cy="339.8" fill="#ADD1B2" rx="11" ry="11" style="stroke:#181818;stroke-width:1;"/><path d="M345.3096,346.2219 C346.4815,346.2219 347.7158,345.9562 349.0908,345.3469 L348.6065,343.8312 C347.5127,344.2531 346.4971,344.4406 345.6377,344.4406 C342.919,344.4406 341.2002,342.5969 341.2002,339.6906 C341.2002,336.9406 342.7627,335.3469 345.4971,335.3469 C346.419,335.3469 347.4346,335.5344 348.5752,335.9562 L349.1533,334.4406 C348.0596,333.8625 346.7627,333.5656 345.5752,333.5656 C341.8096,333.5656 339.2315,336.2062 339.2315,340.0187 C339.2315,343.6906 341.7158,346.2219 345.3096,346.2219 Z " fill="#000000"/><text fill="#000000" font-family="sans-serif" font-size="14" lengthAdjust="spacing" textLength="61.2918" x="365.8096" y="345.162">Integer64</text><line style="stroke:#181818;stroke-width:0.5;" x1="229.69" x2="530.7209" y1="355.8" y2="355.8"/><line style="stroke:#181818;stroke-width:0.5;" x1="229.69" x2="530.7209" y1="363.8" y2="363.8"/><ellipse cx="239.69" cy="377.7" fill="#84BE84" rx="3" ry="3" style="stroke:#038048;stroke-width:1;"/><text fill="#000000" font-family="sans-serif" font-size="14" lengthAdjust="spacing" textLength="234.4711" x="248.69" y="381.5619">add( other : Integer [1] ) : Integer64 [1]</text><ellipse cx="239.69" cy="394.4999" fill="#84BE84" rx="3" ry="3" style="stroke:#038048;stroke-width:1;"/><text fill="#000000" font-family="sans-serif" font-size="14" lengthAdjust="spacing" textLength="262.723" x="248.69" y="398.3619">subtract( other : Integer [1] ) : Integer64 [1]</text><ellipse cx="239.69" cy="411.2998" fill="#84BE84" rx="3" ry="3" style="stroke:#038048;stroke-width:1;"/><text fill="#000000" font-family="sans-serif" font-size="14" lengthAdjust="spacing" textLength="262.555" x="248.69" y="415.1618">multiply( other : Integer [1] ) : Integer64 [1]</text><ellipse cx="239.69" cy="428.0997" fill="#84BE84" rx="3" ry="3" style="stroke:#038048;stroke-width:1;"/><text fill="#000000" font-family="sans-serif" font-size="14" lengthAdjust="spacing" textLength="231.9791" x="248.69" y="431.9617">divide( other : Integer [1] ) : Double [1]</text><ellipse cx="239.69" cy="444.8997" fill="#84BE84" rx="3" ry="3" style="stroke:#038048;stroke-width:1;"/><text fill="#000000" font-family="sans-serif" font-size="14" lengthAdjust="spacing" textLength="253.427" x="248.69" y="448.7616">exponent( other : Double [1] ) : Double [1]</text><ellipse cx="239.69" cy="461.6996" fill="#84BE84" rx="3" ry="3" style="stroke:#038048;stroke-width:1;"/><text fill="#000000" font-family="sans-serif" font-size="14" lengthAdjust="spacing" textLength="254.029" x="248.69" y="465.5616">modulo( mod : Integer [1] ) : Integer64 [1]</text><ellipse cx="239.69" cy="478.4995" fill="#84BE84" rx="3" ry="3" style="stroke:#038048;stroke-width:1;"/><text fill="#000000" font-family="sans-serif" font-size="14" lengthAdjust="spacing" textLength="277.0309" x="248.69" y="482.3615">less_than( other : Integer64 [1] ) : Boolean [1]</text><ellipse cx="239.69" cy="495.2995" fill="#84BE84" rx="3" ry="3" style="stroke:#038048;stroke-width:1;"/><text fill="#000000" font-family="sans-serif" font-size="14" lengthAdjust="spacing" textLength="151.3534" x="248.69" y="499.1614">negative() : Integer64 [1]</text><ellipse cx="239.69" cy="512.0994" fill="#84BE84" rx="3" ry="3" style="stroke:#038048;stroke-width:1;"/><text fill="#000000" font-family="sans-serif" font-size="14" lengthAdjust="spacing" textLength="268.8409" x="248.69" y="515.9614">is_equal( other : Integer64 [1] ) : Boolean [1]</text><ellipse cx="239.69" cy="528.8993" fill="#84BE84" rx="3" ry="3" style="stroke:#038048;stroke-width:1;"/><text fill="#000000" font-family="sans-serif" font-size="14" lengthAdjust="spacing" textLength="251.901" x="248.69" y="532.7613">equal( other : Integer64 [1] ) : Boolean [1]</text></g><!--class Ordered_Numeric--><g class="entity" data-entity="Ordered_Numeric" data-source-line="15" data-uid="ent0003" id="entity_Ordered_Numeric"><rect fill="#F5F5F5" height="48" rx="2.5" ry="2.5" style="stroke:#808080;stroke-width:1;stroke-dasharray:1,3;" width="144.3075" x="308.05" y="215.8"/><ellipse cx="323.05" cy="231.8" fill="#A9DCDF" rx="11" ry="11" style="stroke:#181818;stroke-width:1;"/><path d="M317.5656,237.3 L319.5969,237.3 L323.6438,225.9562 L322.7375,225.9562 L326.5656,237.3 L328.7063,237.3 L324.3781,224.9719 L322.1594,224.9719 L317.5656,237.3 Z M319.8938,233.8 L326.3313,233.8 L326.3313,232.05 L319.8938,232.05 L319.8938,233.8 Z " fill="#000000"/><text fill="#808080" font-family="sans-serif" font-size="14" font-style="italic" lengthAdjust="spacing" textLength="112.3075" x="337.05" y="237.162">Ordered_Numeric</text><line style="stroke:#808080;stroke-width:1;stroke-dasharray:1,3;" x1="309.05" x2="451.3575" y1="247.8" y2="247.8"/><line style="stroke:#808080;stroke-width:1;stroke-dasharray:1,3;" x1="309.05" x2="451.3575" y1="255.8" y2="255.8"/></g><!--class Ordered--><g class="entity" data-entity="Ordered" data-source-line="18" data-uid="ent0004" id="entity_Ordered"><rect fill="#F5F5F5" height="115.1997" rx="2.5" ry="2.5" style="stroke:#808080;stroke-width:1;stroke-dasharray:1,3;" width="376.4047" x="7" y="23.8"/><ellipse cx="164.9824" cy="39.8" fill="#A9DCDF" rx="11" ry="11" style="stroke:#181818;stroke-width:1;"/><path d="M159.4981,45.3 L161.5293,45.3 L165.5762,33.9562 L164.6699,33.9562 L168.4981,45.3 L170.6387,45.3 L166.3106,32.9719 L164.0918,32.9719 L159.4981,45.3 Z M161.8262,41.8 L168.2637,41.8 L168.2637,40.05 L161.8262,40.05 L161.8262,41.8 Z " fill="#000000"/><text fill="#808080" font-family="sans-serif" font-size="14" font-style="italic" lengthAdjust="spacing" textLength="51.9398" x="185.4824" y="45.162">Ordered</text><line style="stroke:#808080;stroke-width:1;stroke-dasharray:1,3;" x1="8" x2="382.4047" y1="55.8" y2="55.8"/><line style="stroke:#808080;stroke-width:1;stroke-dasharray:1,3;" x1="8" x2="382.4047" y1="63.8" y2="63.8"/><ellipse cx="18" cy="77.7" fill="#84BE84" rx="3" ry="3" style="stroke:#038048;stroke-width:1;"/><text fill="#808080" font-family="sans-serif" font-size="14" font-style="italic" lengthAdjust="spacing" textLength="267.679" x="27" y="81.5619">less_than( other : Ordered [1] ) : Boolean [1]</text><ellipse cx="18" cy="94.4999" fill="#84BE84" rx="3" ry="3" style="stroke:#038048;stroke-width:1;"/><text fill="#808080" font-family="sans-serif" font-size="14" lengthAdjust="spacing" textLength="329.1387" x="27" y="98.3619">less_than_or_equal( other : Ordered [1] ) : Boolean [1]</text><ellipse cx="18" cy="111.2998" fill="#84BE84" rx="3" ry="3" style="stroke:#038048;stroke-width:1;"/><text fill="#808080" font-family="sans-serif" font-size="14" lengthAdjust="spacing" textLength="288.9449" x="27" y="115.1618">greater_than( other : Ordered [1] ) : Boolean [1]</text><ellipse cx="18" cy="128.0997" fill="#84BE84" rx="3" ry="3" style="stroke:#038048;stroke-width:1;"/><text fill="#808080" font-family="sans-serif" font-size="14" lengthAdjust="spacing" textLength="350.4047" x="27" y="131.9617">greater_than_or_equal( other : Ordered [1] ) : Boolean [1]</text></g><!--class Numeric--><g class="entity" data-entity="Numeric" data-source-line="27" data-uid="ent0006" id="entity_Numeric"><rect fill="#F5F5F5" height="148.7996" rx="2.5" ry="2.5" style="stroke:#808080;stroke-width:1;stroke-dasharray:1,3;" width="296.2269" x="418.09" y="7"/><ellipse cx="535.2696" cy="23" fill="#A9DCDF" rx="11" ry="11" style="stroke:#181818;stroke-width:1;"/><path d="M529.7852,28.5 L531.8164,28.5 L535.8633,17.1563 L534.9571,17.1563 L538.7852,28.5 L540.9258,28.5 L536.5977,16.1719 L534.3789,16.1719 L529.7852,28.5 Z M532.1133,25 L538.5508,25 L538.5508,23.25 L532.1133,23.25 L532.1133,25 Z " fill="#000000"/><text fill="#808080" font-family="sans-serif" font-size="14" font-style="italic" lengthAdjust="spacing" textLength="53.3678" x="555.7696" y="28.362">Numeric</text><line style="stroke:#808080;stroke-width:1;stroke-dasharray:1,3;" x1="419.09" x2="713.3169" y1="39" y2="39"/><line style="stroke:#808080;stroke-width:1;stroke-dasharray:1,3;" x1="419.09" x2="713.3169" y1="47" y2="47"/><ellipse cx="429.09" cy="60.9" fill="#84BE84" rx="3" ry="3" style="stroke:#038048;stroke-width:1;"/><text fill="#808080" font-family="sans-serif" font-size="14" font-style="italic" lengthAdjust="spacing" textLength="235.1431" x="438.09" y="64.7619">add( other : Numeric [1] ) : Numeric [1]</text><ellipse cx="429.09" cy="77.6999" fill="#84BE84" rx="3" ry="3" style="stroke:#038048;stroke-width:1;"/><text fill="#808080" font-family="sans-serif" font-size="14" font-style="italic" lengthAdjust="spacing" textLength="263.395" x="438.09" y="81.5619">subtract( other : Numeric [1] ) : Numeric [1]</text><ellipse cx="429.09" cy="94.4998" fill="#84BE84" rx="3" ry="3" style="stroke:#038048;stroke-width:1;"/><text fill="#808080" font-family="sans-serif" font-size="14" font-style="italic" lengthAdjust="spacing" textLength="263.2269" x="438.09" y="98.3618">multiply( other : Numeric [1] ) : Numeric [1]</text><ellipse cx="429.09" cy="111.2997" fill="#84BE84" rx="3" ry="3" style="stroke:#038048;stroke-width:1;"/><text fill="#808080" font-family="sans-serif" font-size="14" font-style="italic" lengthAdjust="spacing" textLength="248.975" x="438.09" y="115.1617">divide( other : Numeric [1] ) : Numeric [1]</text><ellipse cx="429.09" cy="128.0997" fill="#84BE84" rx="3" ry="3" style="stroke:#038048;stroke-width:1;"/><text fill="#808080" font-family="sans-serif" font-size="14" font-style="italic" lengthAdjust="spacing" textLength="270.2269" x="438.09" y="131.9616">exponent( other : Numeric [1] ) : Numeric [1]</text><ellipse cx="429.09" cy="144.8996" fill="#84BE84" rx="3" ry="3" style="stroke:#038048;stroke-width:1;"/><text fill="#808080" font-family="sans-serif" font-size="14" font-style="italic" lengthAdjust="spacing" textLength="143.4294" x="438.09" y="148.7616">negative() : Numeric [1]</text></g><!--reverse link Ordered to Ordered_Numeric--><g class="link" data-entity-1="Ordered" data-entity-2="Ordered_Numeric" data-source-line="25" data-uid="lnk5" id="link_Ordered_Ordered_Numeric"><path codeLine="25" d="M276.2593,150.9271 C307.4693,177.2971 329.05,195.56 352.79,215.63" fill="none" id="Ordered-backto-Ordered_Numeric" style="stroke:#181818;stroke-width:1;"/><polygon fill="none" points="262.51,139.31,272.3869,155.5102,280.1317,146.344,262.51,139.31" style="stroke:#181818;stroke-width:1;"/></g><!--reverse link Numeric to Ordered_Numeric--><g class="link" data-entity-1="Numeric" data-entity-2="Ordered_Numeric" data-source-line="36" data-uid="lnk7" id="link_Numeric_Ordered_Numeric"><path codeLine="36" d="M464.6011,167.832 C439.0111,189.342 426.68,199.72 407.83,215.57" fill="none" id="Numeric-backto-Ordered_Numeric" style="stroke:#181818;stroke-width:1;"/><polygon fill="none" points="478.38,156.25,460.7405,163.239,468.4618,172.425,478.38,156.25" style="stroke:#181818;stroke-width:1;"/></g><!--reverse link Ordered_Numeric to Integer64--><g class="link" data-entity-1="Ordered_Numeric" data-entity-2="Integer64" data-source-line="38" data-uid="lnk8" id="link_Ordered_Numeric_Integer64"><path codeLine="38" d="M380.2,282.1 C380.2,297.56 380.2,301.07 380.2,323.52" fill="none" id="Ordered_Numeric-backto-Integer64" style="stroke:#181818;stroke-width:1;"/><polygon fill="none" points="380.2,264.1,374.2,282.1,386.2,282.1,380.2,264.1" style="stroke:#181818;stroke-width:1;"/></g></g></svg>
