<svg xmlns="http://www.w3.org/2000/svg" xmlns:xlink="http://www.w3.org/1999/xlink" contentStyleType="text/css" data-diagram-type="CLASS" height="236px" preserveAspectRatio="none" style="width:311px;height:236px;background:#FFFFFF;" version="1.1" viewBox="0 0 311 236" width="311px" zoomAndPan="magnify"><defs/><g><!--class Interval--><g class="entity" data-entity="Interval" data-source-line="2" data-uid="ent0002" id="entity_Interval"><rect fill="#F1F1F1" height="215.9993" rx="2.5" ry="2.5" style="stroke:#181818;stroke-width:0.5;" width="290.627" x="7" y="7"/><ellipse cx="119.0776" cy="23" fill="#ADD1B2" rx="11" ry="11" style="stroke:#181818;stroke-width:1;"/><path d="M119.0776,29.4219 C120.2494,29.4219 121.4838,29.1563 122.8588,28.5469 L122.3744,27.0313 C121.2807,27.4531 120.2651,27.6406 119.4057,27.6406 C116.6869,27.6406 114.9682,25.7969 114.9682,22.8906 C114.9682,20.1406 116.5307,18.5469 119.2651,18.5469 C120.1869,18.5469 121.2026,18.7344 122.3432,19.1563 L122.9213,17.6406 C121.8276,17.0625 120.5307,16.7656 119.3432,16.7656 C115.5776,16.7656 112.9994,19.4063 112.9994,23.2188 C112.9994,26.8906 115.4838,29.4219 119.0776,29.4219 Z " fill="#000000"/><text fill="#000000" font-family="sans-serif" font-size="14" lengthAdjust="spacing" textLength="47.1798" x="139.5776" y="28.362">Interval</text><rect fill="#FFFFFF" height="16.4001" style="stroke:#181818;stroke-width:1;stroke-dasharray:2,2;" width="8.7921" x="291.835" y="4"/><text fill="#000000" font-family="sans-serif" font-size="12" font-style="italic" lengthAdjust="spacing" textLength="6.7921" x="292.835" y="16.7961">T</text><line style="stroke:#181818;stroke-width:0.5;" x1="8" x2="296.627" y1="39" y2="39"/><ellipse cx="18" cy="52.9" fill="none" rx="3" ry="3" style="stroke:#038048;stroke-width:1;"/><text fill="#000000" font-family="sans-serif" font-size="14" lengthAdjust="spacing" textLength="87.6956" x="27" y="56.7619">lower : T [0..1]</text><ellipse cx="18" cy="69.6999" fill="none" rx="3" ry="3" style="stroke:#038048;stroke-width:1;"/><text fill="#000000" font-family="sans-serif" font-size="14" lengthAdjust="spacing" textLength="88.7036" x="27" y="73.5619">upper : T [0..1]</text><ellipse cx="18" cy="86.4998" fill="none" rx="3" ry="3" style="stroke:#038048;stroke-width:1;"/><text fill="#000000" font-family="sans-serif" font-size="14" lengthAdjust="spacing" textLength="192.8632" x="27" y="90.3618">lower_unbounded : Boolean [1]</text><ellipse cx="18" cy="103.2997" fill="none" rx="3" ry="3" style="stroke:#038048;stroke-width:1;"/><text fill="#000000" font-family="sans-serif" font-size="14" lengthAdjust="spacing" textLength="193.8712" x="27" y="107.1617">upper_unbounded : Boolean [1]</text><ellipse cx="18" cy="120.0997" fill="none" rx="3" ry="3" style="stroke:#038048;stroke-width:1;"/><text fill="#000000" font-family="sans-serif" font-size="14" lengthAdjust="spacing" textLength="175.0693" x="27" y="123.9616">lower_included : Boolean [1]</text><ellipse cx="18" cy="136.8996" fill="none" rx="3" ry="3" style="stroke:#038048;stroke-width:1;"/><text fill="#000000" font-family="sans-serif" font-size="14" lengthAdjust="spacing" textLength="176.0773" x="27" y="140.7616">upper_included : Boolean [1]</text><line style="stroke:#181818;stroke-width:0.5;" x1="8" x2="296.627" y1="147.7996" y2="147.7996"/><ellipse cx="18" cy="161.6995" fill="#84BE84" rx="3" ry="3" style="stroke:#038048;stroke-width:1;"/><text fill="#000000" font-family="sans-serif" font-size="14" lengthAdjust="spacing" textLength="159.6834" x="27" y="165.5615">has( e : T [1] ) : Boolean [1]</text><ellipse cx="18" cy="178.4995" fill="#84BE84" rx="3" ry="3" style="stroke:#038048;stroke-width:1;"/><text fill="#000000" font-family="sans-serif" font-size="14" lengthAdjust="spacing" textLength="264.627" x="27" y="182.3614">intersects( other : Interval [1] ) : Boolean [1]</text><ellipse cx="18" cy="195.2994" fill="#84BE84" rx="3" ry="3" style="stroke:#038048;stroke-width:1;"/><text fill="#000000" font-family="sans-serif" font-size="14" lengthAdjust="spacing" textLength="256.059" x="27" y="199.1614">contains( other : Interval [1] ) : Boolean [1]</text><ellipse cx="18" cy="212.0993" fill="#84BE84" rx="3" ry="3" style="stroke:#038048;stroke-width:1;"/><text fill="#000000" font-family="sans-serif" font-size="14" lengthAdjust="spacing" textLength="230.9711" x="27" y="215.9613">is_equal( other : Any [1] ) : Boolean [1]</text></g></g></svg>
