<svg xmlns="http://www.w3.org/2000/svg" xmlns:xlink="http://www.w3.org/1999/xlink" contentStyleType="text/css" data-diagram-type="CLASS" height="186px" preserveAspectRatio="none" style="width:138px;height:186px;background:#FFFFFF;" version="1.1" viewBox="0 0 138 186" width="138px" zoomAndPan="magnify"><defs/><g><!--class INTERNET_ID--><g class="entity" data-entity="INTERNET_ID" data-source-line="2" data-uid="ent0002" id="entity_INTERNET_ID"><rect fill="#F1F1F1" height="48" rx="2.5" ry="2.5" style="stroke:#181818;stroke-width:0.5;" width="118.3096" x="10.33" y="131.8"/><ellipse cx="25.33" cy="147.8" fill="#ADD1B2" rx="11" ry="11" style="stroke:#181818;stroke-width:1;"/><path d="M25.33,154.2219 C26.5019,154.2219 27.7363,153.9563 29.1113,153.3469 L28.6269,151.8313 C27.5331,152.2531 26.5175,152.4406 25.6581,152.4406 C22.9394,152.4406 21.2206,150.5969 21.2206,147.6906 C21.2206,144.9406 22.7831,143.3469 25.5175,143.3469 C26.4394,143.3469 27.455,143.5344 28.5956,143.9563 L29.1738,142.4406 C28.08,141.8625 26.7831,141.5656 25.5956,141.5656 C21.83,141.5656 19.2519,144.2063 19.2519,148.0188 C19.2519,151.6906 21.7363,154.2219 25.33,154.2219 Z " fill="#000000"/><text fill="#000000" font-family="sans-serif" font-size="14" lengthAdjust="spacing" textLength="86.3096" x="39.33" y="153.162">INTERNET_ID</text><line style="stroke:#181818;stroke-width:0.5;" x1="11.33" x2="127.6396" y1="163.8" y2="163.8"/><line style="stroke:#181818;stroke-width:0.5;" x1="11.33" x2="127.6396" y1="171.8" y2="171.8"/></g><!--class UID--><g class="entity" data-entity="UID" data-source-line="5" data-uid="ent0003" id="entity_UID"><rect fill="#F5F5F5" height="64.7999" rx="2.5" ry="2.5" style="stroke:#808080;stroke-width:1;stroke-dasharray:1,3;" width="124.9656" x="7" y="7"/><ellipse cx="53.6898" cy="23" fill="#A9DCDF" rx="11" ry="11" style="stroke:#181818;stroke-width:1;"/><path d="M48.2055,28.5 L50.2367,28.5 L54.2836,17.1563 L53.3773,17.1563 L57.2055,28.5 L59.3461,28.5 L55.018,16.1719 L52.7992,16.1719 L48.2055,28.5 Z M50.5336,25 L56.9711,25 L56.9711,23.25 L50.5336,23.25 L50.5336,25 Z " fill="#000000"/><text fill="#808080" font-family="sans-serif" font-size="14" font-style="italic" lengthAdjust="spacing" textLength="23.0859" x="74.1898" y="28.362">UID</text><line style="stroke:#808080;stroke-width:1;stroke-dasharray:1,3;" x1="8" x2="130.9656" y1="39" y2="39"/><ellipse cx="18" cy="52.9" fill="none" rx="3" ry="3" style="stroke:#038048;stroke-width:1;"/><text fill="#808080" font-family="sans-serif" font-size="14" lengthAdjust="spacing" textLength="98.9656" x="27" y="56.7619">value : String [1]</text><line style="stroke:#808080;stroke-width:1;stroke-dasharray:1,3;" x1="8" x2="130.9656" y1="63.7999" y2="63.7999"/></g><!--reverse link UID to INTERNET_ID--><g class="link" data-entity-1="UID" data-entity-2="INTERNET_ID" data-source-line="9" data-uid="lnk4" id="link_UID_INTERNET_ID"><path codeLine="9" d="M69.48,90.27 C69.48,109.04 69.48,114.38 69.48,131.45" fill="none" id="UID-backto-INTERNET_ID" style="stroke:#181818;stroke-width:1;"/><polygon fill="none" points="69.48,72.27,63.48,90.27,75.48,90.27,69.48,72.27" style="stroke:#181818;stroke-width:1;"/></g></g></svg>
