<svg xmlns="http://www.w3.org/2000/svg" xmlns:xlink="http://www.w3.org/1999/xlink" contentStyleType="text/css" data-diagram-type="CLASS" height="990px" preserveAspectRatio="none" style="width:728px;height:990px;background:#FFFFFF;" version="1.1" viewBox="0 0 728 990" width="728px" zoomAndPan="magnify"><defs/><g><!--class Iso8601_duration--><g class="entity" data-entity="Iso8601_duration" data-source-line="2" data-uid="ent0002" id="entity_Iso8601_duration"><rect fill="#F1F1F1" height="350.3987" rx="2.5" ry="2.5" style="stroke:#181818;stroke-width:0.5;" width="398.1746" x="148.12" y="633.4"/><ellipse cx="288.6655" cy="649.4" fill="#ADD1B2" rx="11" ry="11" style="stroke:#181818;stroke-width:1;"/><path d="M288.6655,655.8219 C289.8374,655.8219 291.0717,655.5563 292.4467,654.9469 L291.9624,653.4313 C290.8686,653.8531 289.853,654.0406 288.9936,654.0406 C286.2749,654.0406 284.5561,652.1969 284.5561,649.2906 C284.5561,646.5406 286.1186,644.9469 288.853,644.9469 C289.7749,644.9469 290.7905,645.1344 291.9311,645.5563 L292.5092,644.0406 C291.4155,643.4625 290.1186,643.1656 288.9311,643.1656 C285.1655,643.1656 282.5874,645.8063 282.5874,649.6188 C282.5874,653.2906 285.0717,655.8219 288.6655,655.8219 Z " fill="#000000"/><text fill="#000000" font-family="sans-serif" font-size="14" lengthAdjust="spacing" textLength="108.5836" x="309.1655" y="654.762">Iso8601_duration</text><line style="stroke:#181818;stroke-width:0.5;" x1="149.12" x2="545.2946" y1="665.4" y2="665.4"/><line style="stroke:#181818;stroke-width:0.5;" x1="149.12" x2="545.2946" y1="673.4" y2="673.4"/><ellipse cx="159.12" cy="687.3" fill="#84BE84" rx="3" ry="3" style="stroke:#038048;stroke-width:1;"/><text fill="#000000" font-family="sans-serif" font-size="14" lengthAdjust="spacing" textLength="162.6934" x="168.12" y="691.1619">is_extended() : Boolean [1]</text><ellipse cx="159.12" cy="704.0999" fill="#84BE84" rx="3" ry="3" style="stroke:#038048;stroke-width:1;"/><text fill="#000000" font-family="sans-serif" font-size="14" lengthAdjust="spacing" textLength="144.9974" x="168.12" y="707.9619">is_partial() : Boolean [1]</text><ellipse cx="159.12" cy="720.8998" fill="#84BE84" rx="3" ry="3" style="stroke:#038048;stroke-width:1;"/><text fill="#000000" font-family="sans-serif" font-size="14" lengthAdjust="spacing" textLength="114.7996" x="168.12" y="724.7618">years() : Integer [1]</text><ellipse cx="159.12" cy="737.6997" fill="#84BE84" rx="3" ry="3" style="stroke:#038048;stroke-width:1;"/><text fill="#000000" font-family="sans-serif" font-size="14" lengthAdjust="spacing" textLength="129.5135" x="168.12" y="741.5617">months() : Integer [1]</text><ellipse cx="159.12" cy="754.4997" fill="#84BE84" rx="3" ry="3" style="stroke:#038048;stroke-width:1;"/><text fill="#000000" font-family="sans-serif" font-size="14" lengthAdjust="spacing" textLength="110.1096" x="168.12" y="758.3616">days() : Integer [1]</text><ellipse cx="159.12" cy="771.2996" fill="#84BE84" rx="3" ry="3" style="stroke:#038048;stroke-width:1;"/><text fill="#000000" font-family="sans-serif" font-size="14" lengthAdjust="spacing" textLength="117.2076" x="168.12" y="775.1616">hours() : Integer [1]</text><ellipse cx="159.12" cy="788.0995" fill="#84BE84" rx="3" ry="3" style="stroke:#038048;stroke-width:1;"/><text fill="#000000" font-family="sans-serif" font-size="14" lengthAdjust="spacing" textLength="132.2855" x="168.12" y="791.9615">minutes() : Integer [1]</text><ellipse cx="159.12" cy="804.8995" fill="#84BE84" rx="3" ry="3" style="stroke:#038048;stroke-width:1;"/><text fill="#000000" font-family="sans-serif" font-size="14" lengthAdjust="spacing" textLength="132.5235" x="168.12" y="808.7614">seconds() : Integer [1]</text><ellipse cx="159.12" cy="821.6994" fill="#84BE84" rx="3" ry="3" style="stroke:#038048;stroke-width:1;"/><text fill="#000000" font-family="sans-serif" font-size="14" lengthAdjust="spacing" textLength="181.0613" x="168.12" y="825.5614">fractional_seconds() : Real [1]</text><ellipse cx="159.12" cy="838.4993" fill="#84BE84" rx="3" ry="3" style="stroke:#038048;stroke-width:1;"/><text fill="#000000" font-family="sans-serif" font-size="14" lengthAdjust="spacing" textLength="120.9595" x="168.12" y="842.3613">weeks() : Integer [1]</text><ellipse cx="159.12" cy="855.2992" fill="#84BE84" rx="3" ry="3" style="stroke:#038048;stroke-width:1;"/><text fill="#000000" font-family="sans-serif" font-size="14" lengthAdjust="spacing" textLength="240.127" x="168.12" y="859.1612">is_decimal_sign_comma() : Boolean [1]</text><ellipse cx="159.12" cy="872.0992" fill="#84BE84" rx="3" ry="3" style="stroke:#038048;stroke-width:1;"/><text fill="#000000" font-family="sans-serif" font-size="14" lengthAdjust="spacing" textLength="134.8755" x="168.12" y="875.9611">to_seconds() : Real [1]</text><ellipse cx="159.12" cy="888.8991" fill="#84BE84" rx="3" ry="3" style="stroke:#038048;stroke-width:1;"/><text fill="#000000" font-family="sans-serif" font-size="14" lengthAdjust="spacing" textLength="131.2635" x="168.12" y="892.7611">as_string() : String [1]</text><ellipse cx="159.12" cy="905.699" fill="#84BE84" rx="3" ry="3" style="stroke:#038048;stroke-width:1;"/><text fill="#000000" font-family="sans-serif" font-size="14" lengthAdjust="spacing" textLength="343.9227" x="168.12" y="909.561">add( a_val : Iso8601_duration [1] ) : Iso8601_duration [1]</text><ellipse cx="159.12" cy="922.4989" fill="#84BE84" rx="3" ry="3" style="stroke:#038048;stroke-width:1;"/><text fill="#000000" font-family="sans-serif" font-size="14" lengthAdjust="spacing" textLength="372.1746" x="168.12" y="926.3609">subtract( a_val : Iso8601_duration [1] ) : Iso8601_duration [1]</text><ellipse cx="159.12" cy="939.2989" fill="#84BE84" rx="3" ry="3" style="stroke:#038048;stroke-width:1;"/><text fill="#000000" font-family="sans-serif" font-size="14" lengthAdjust="spacing" textLength="290.5549" x="168.12" y="943.1608">multiply( a_val : Real [1] ) : Iso8601_duration [1]</text><ellipse cx="159.12" cy="956.0988" fill="#84BE84" rx="3" ry="3" style="stroke:#038048;stroke-width:1;"/><text fill="#000000" font-family="sans-serif" font-size="14" lengthAdjust="spacing" textLength="276.3029" x="168.12" y="959.9608">divide( a_val : Real [1] ) : Iso8601_duration [1]</text><ellipse cx="159.12" cy="972.8987" fill="#84BE84" rx="3" ry="3" style="stroke:#038048;stroke-width:1;"/><text fill="#000000" font-family="sans-serif" font-size="14" lengthAdjust="spacing" textLength="198.6452" x="168.12" y="976.7607">negative() : Iso8601_duration [1]</text></g><!--class Iso8601_type--><g class="entity" data-entity="Iso8601_type" data-source-line="23" data-uid="ent0003" id="entity_Iso8601_type"><rect fill="#F5F5F5" height="98.3998" rx="2.5" ry="2.5" style="stroke:#808080;stroke-width:1;stroke-dasharray:1,3;" width="188.6934" x="252.86" y="475"/><ellipse cx="301.3908" cy="491" fill="#A9DCDF" rx="11" ry="11" style="stroke:#181818;stroke-width:1;"/><path d="M295.9065,496.5 L297.9377,496.5 L301.9846,485.1562 L301.0783,485.1562 L304.9065,496.5 L307.0471,496.5 L302.719,484.1719 L300.5002,484.1719 L295.9065,496.5 Z M298.2346,493 L304.6721,493 L304.6721,491.25 L298.2346,491.25 L298.2346,493 Z " fill="#000000"/><text fill="#808080" font-family="sans-serif" font-size="14" font-style="italic" lengthAdjust="spacing" textLength="83.1317" x="321.8908" y="496.362">Iso8601_type</text><line style="stroke:#808080;stroke-width:1;stroke-dasharray:1,3;" x1="253.86" x2="440.5534" y1="507" y2="507"/><ellipse cx="263.86" cy="520.9" fill="none" rx="3" ry="3" style="stroke:#038048;stroke-width:1;"/><text fill="#808080" font-family="sans-serif" font-size="14" lengthAdjust="spacing" textLength="98.9656" x="272.86" y="524.7619">value : String [1]</text><line style="stroke:#808080;stroke-width:1;stroke-dasharray:1,3;" x1="253.86" x2="440.5534" y1="531.7999" y2="531.7999"/><ellipse cx="263.86" cy="545.6999" fill="#84BE84" rx="3" ry="3" style="stroke:#038048;stroke-width:1;"/><text fill="#808080" font-family="sans-serif" font-size="14" font-style="italic" lengthAdjust="spacing" textLength="144.9974" x="272.86" y="549.5619">is_partial() : Boolean [1]</text><ellipse cx="263.86" cy="562.4998" fill="#84BE84" rx="3" ry="3" style="stroke:#038048;stroke-width:1;"/><text fill="#808080" font-family="sans-serif" font-size="14" font-style="italic" lengthAdjust="spacing" textLength="162.6934" x="272.86" y="566.3618">is_extended() : Boolean [1]</text></g><!--class Temporal--><g class="entity" data-entity="Temporal" data-source-line="29" data-uid="ent0004" id="entity_Temporal"><rect fill="#F5F5F5" height="48" rx="2.5" ry="2.5" style="stroke:#808080;stroke-width:1;stroke-dasharray:1,3;" width="91.9898" x="149.21" y="274.6"/><ellipse cx="164.21" cy="290.6" fill="#A9DCDF" rx="11" ry="11" style="stroke:#181818;stroke-width:1;"/><path d="M158.7256,296.1 L160.7569,296.1 L164.8038,284.7562 L163.8975,284.7562 L167.7256,296.1 L169.8663,296.1 L165.5381,283.7719 L163.3194,283.7719 L158.7256,296.1 Z M161.0538,292.6 L167.4913,292.6 L167.4913,290.85 L161.0538,290.85 L161.0538,292.6 Z " fill="#000000"/><text fill="#808080" font-family="sans-serif" font-size="14" font-style="italic" lengthAdjust="spacing" textLength="59.9898" x="178.21" y="295.962">Temporal</text><line style="stroke:#808080;stroke-width:1;stroke-dasharray:1,3;" x1="150.21" x2="240.1998" y1="306.6" y2="306.6"/><line style="stroke:#808080;stroke-width:1;stroke-dasharray:1,3;" x1="150.21" x2="240.1998" y1="314.6" y2="314.6"/></g><!--class Ordered--><g class="entity" data-entity="Ordered" data-source-line="32" data-uid="ent0005" id="entity_Ordered"><rect fill="#F5F5F5" height="115.1997" rx="2.5" ry="2.5" style="stroke:#808080;stroke-width:1;stroke-dasharray:1,3;" width="376.4047" x="7" y="7"/><ellipse cx="164.9824" cy="23" fill="#A9DCDF" rx="11" ry="11" style="stroke:#181818;stroke-width:1;"/><path d="M159.4981,28.5 L161.5293,28.5 L165.5762,17.1563 L164.6699,17.1563 L168.4981,28.5 L170.6387,28.5 L166.3106,16.1719 L164.0918,16.1719 L159.4981,28.5 Z M161.8262,25 L168.2637,25 L168.2637,23.25 L161.8262,23.25 L161.8262,25 Z " fill="#000000"/><text fill="#808080" font-family="sans-serif" font-size="14" font-style="italic" lengthAdjust="spacing" textLength="51.9398" x="185.4824" y="28.362">Ordered</text><line style="stroke:#808080;stroke-width:1;stroke-dasharray:1,3;" x1="8" x2="382.4047" y1="39" y2="39"/><line style="stroke:#808080;stroke-width:1;stroke-dasharray:1,3;" x1="8" x2="382.4047" y1="47" y2="47"/><ellipse cx="18" cy="60.9" fill="#84BE84" rx="3" ry="3" style="stroke:#038048;stroke-width:1;"/><text fill="#808080" font-family="sans-serif" font-size="14" font-style="italic" lengthAdjust="spacing" textLength="267.679" x="27" y="64.7619">less_than( other : Ordered [1] ) : Boolean [1]</text><ellipse cx="18" cy="77.6999" fill="#84BE84" rx="3" ry="3" style="stroke:#038048;stroke-width:1;"/><text fill="#808080" font-family="sans-serif" font-size="14" lengthAdjust="spacing" textLength="329.1387" x="27" y="81.5619">less_than_or_equal( other : Ordered [1] ) : Boolean [1]</text><ellipse cx="18" cy="94.4998" fill="#84BE84" rx="3" ry="3" style="stroke:#038048;stroke-width:1;"/><text fill="#808080" font-family="sans-serif" font-size="14" lengthAdjust="spacing" textLength="288.9449" x="27" y="98.3618">greater_than( other : Ordered [1] ) : Boolean [1]</text><ellipse cx="18" cy="111.2997" fill="#84BE84" rx="3" ry="3" style="stroke:#038048;stroke-width:1;"/><text fill="#808080" font-family="sans-serif" font-size="14" lengthAdjust="spacing" textLength="350.4047" x="27" y="115.1617">greater_than_or_equal( other : Ordered [1] ) : Boolean [1]</text></g><!--class Time_Definitions--><g class="entity" data-entity="Time_Definitions" data-source-line="43" data-uid="ent0008" id="entity_Time_Definitions"><rect fill="#F5F5F5" height="232.7992" rx="2.5" ry="2.5" style="stroke:#808080;stroke-width:1;stroke-dasharray:1,3;" width="445.5084" x="276.45" y="182.2"/><ellipse cx="441.9714" cy="198.2" fill="#ADD1B2" rx="11" ry="11" style="stroke:#181818;stroke-width:1;"/><path d="M441.9714,204.6219 C443.1433,204.6219 444.3777,204.3562 445.7527,203.7469 L445.2683,202.2312 C444.1745,202.6531 443.1589,202.8406 442.2995,202.8406 C439.5808,202.8406 437.862,200.9969 437.862,198.0906 C437.862,195.3406 439.4245,193.7469 442.1589,193.7469 C443.0808,193.7469 444.0964,193.9344 445.237,194.3562 L445.8152,192.8406 C444.7214,192.2625 443.4245,191.9656 442.237,191.9656 C438.4714,191.9656 435.8933,194.6062 435.8933,198.4187 C435.8933,202.0906 438.3777,204.6219 441.9714,204.6219 Z " fill="#000000"/><text fill="#808080" font-family="sans-serif" font-size="14" lengthAdjust="spacing" textLength="105.9656" x="462.4714" y="203.562">Time_Definitions</text><line style="stroke:#808080;stroke-width:1;stroke-dasharray:1,3;" x1="277.45" x2="720.9584" y1="214.2" y2="214.2"/><line style="stroke:#808080;stroke-width:1;stroke-dasharray:1,3;" x1="277.45" x2="720.9584" y1="222.2" y2="222.2"/><ellipse cx="287.45" cy="236.1" fill="#84BE84" rx="3" ry="3" style="stroke:#038048;stroke-width:1;"/><text fill="#808080" font-family="sans-serif" font-size="14" lengthAdjust="spacing" textLength="237.0191" x="296.45" y="239.9619">valid_year( y : Integer [1] ) : Boolean [1]</text><ellipse cx="287.45" cy="252.8999" fill="#84BE84" rx="3" ry="3" style="stroke:#038048;stroke-width:1;"/><text fill="#808080" font-family="sans-serif" font-size="14" lengthAdjust="spacing" textLength="257.417" x="296.45" y="256.7619">valid_month( m : Integer [1] ) : Boolean [1]</text><ellipse cx="287.45" cy="269.6998" fill="#84BE84" rx="3" ry="3" style="stroke:#038048;stroke-width:1;"/><text fill="#808080" font-family="sans-serif" font-size="14" lengthAdjust="spacing" textLength="412.6764" x="296.45" y="273.5618">valid_day( y : Integer [1], m : Integer [1], d : Integer [1] ) : Boolean [1]</text><ellipse cx="287.45" cy="286.4997" fill="#84BE84" rx="3" ry="3" style="stroke:#038048;stroke-width:1;"/><text fill="#808080" font-family="sans-serif" font-size="14" lengthAdjust="spacing" textLength="419.5084" x="296.45" y="290.3617">valid_hour( h : Integer [1], m : Integer [1], s : Integer [1] ) : Boolean [1]</text><ellipse cx="287.45" cy="303.2997" fill="#84BE84" rx="3" ry="3" style="stroke:#038048;stroke-width:1;"/><text fill="#808080" font-family="sans-serif" font-size="14" lengthAdjust="spacing" textLength="260.189" x="296.45" y="307.1616">valid_minute( m : Integer [1] ) : Boolean [1]</text><ellipse cx="287.45" cy="320.0996" fill="#84BE84" rx="3" ry="3" style="stroke:#038048;stroke-width:1;"/><text fill="#808080" font-family="sans-serif" font-size="14" lengthAdjust="spacing" textLength="254.519" x="296.45" y="323.9616">valid_second( s : Integer [1] ) : Boolean [1]</text><ellipse cx="287.45" cy="336.8995" fill="#84BE84" rx="3" ry="3" style="stroke:#038048;stroke-width:1;"/><text fill="#808080" font-family="sans-serif" font-size="14" lengthAdjust="spacing" textLength="325.6528" x="296.45" y="340.7615">valid_fractional_second( fs : Double [1] ) : Boolean [1]</text><ellipse cx="287.45" cy="353.6995" fill="#84BE84" rx="3" ry="3" style="stroke:#038048;stroke-width:1;"/><text fill="#808080" font-family="sans-serif" font-size="14" lengthAdjust="spacing" textLength="286.1729" x="296.45" y="357.5614">valid_iso8601_date( s : String [1] ) : Boolean [1]</text><ellipse cx="287.45" cy="370.4994" fill="#84BE84" rx="3" ry="3" style="stroke:#038048;stroke-width:1;"/><text fill="#808080" font-family="sans-serif" font-size="14" lengthAdjust="spacing" textLength="286.8729" x="296.45" y="374.3614">valid_iso8601_time( s : String [1] ) : Boolean [1]</text><ellipse cx="287.45" cy="387.2993" fill="#84BE84" rx="3" ry="3" style="stroke:#038048;stroke-width:1;"/><text fill="#808080" font-family="sans-serif" font-size="14" lengthAdjust="spacing" textLength="321.4667" x="296.45" y="391.1613">valid_iso8601_date_time( s : String [1] ) : Boolean [1]</text><ellipse cx="287.45" cy="404.0992" fill="#84BE84" rx="3" ry="3" style="stroke:#038048;stroke-width:1;"/><text fill="#808080" font-family="sans-serif" font-size="14" lengthAdjust="spacing" textLength="311.1908" x="296.45" y="407.9612">valid_iso8601_duration( s : String [1] ) : Boolean [1]</text></g><!--reverse link Ordered to Temporal--><g class="link" data-entity-1="Ordered" data-entity-2="Temporal" data-source-line="39" data-uid="lnk6" id="link_Ordered_Temporal"><path codeLine="39" d="M195.2,140.65 C195.2,189.36 195.2,238.94 195.2,274.15" fill="none" id="Ordered-backto-Temporal" style="stroke:#181818;stroke-width:1;"/><polygon fill="none" points="195.2,122.65,189.2,140.65,201.2,140.65,195.2,122.65" style="stroke:#181818;stroke-width:1;"/></g><!--reverse link Temporal to Iso8601_type--><g class="link" data-entity-1="Temporal" data-entity-2="Iso8601_type" data-source-line="41" data-uid="lnk7" id="link_Temporal_Iso8601_type"><path codeLine="41" d="M214.6576,338.9407 C226.6376,362.7607 238.54,384.45 259.2,415 C272.9,435.26 289.49,456.37 304.55,474.52" fill="none" id="Temporal-backto-Iso8601_type" style="stroke:#181818;stroke-width:1;"/><polygon fill="none" points="206.57,322.86,209.2974,341.6366,220.0179,336.2449,206.57,322.86" style="stroke:#181818;stroke-width:1;"/></g><!--reverse link Time_Definitions to Iso8601_type--><g class="link" data-entity-1="Time_Definitions" data-entity-2="Iso8601_type" data-source-line="57" data-uid="lnk9" id="link_Time_Definitions_Iso8601_type"><path codeLine="57" d="M410.411,430.2164 C396.211,451.1064 392.26,456.92 380.3,474.52" fill="none" id="Time_Definitions-backto-Iso8601_type" style="stroke:#181818;stroke-width:1;"/><polygon fill="none" points="420.53,415.33,405.4488,426.8434,415.3731,433.5894,420.53,415.33" style="stroke:#181818;stroke-width:1;"/></g><!--reverse link Iso8601_type to Iso8601_duration--><g class="link" data-entity-1="Iso8601_type" data-entity-2="Iso8601_duration" data-source-line="59" data-uid="lnk10" id="link_Iso8601_type_Iso8601_duration"><path codeLine="59" d="M347.2,591.75 C347.2,608.94 347.2,611.41 347.2,632.98" fill="none" id="Iso8601_type-backto-Iso8601_duration" style="stroke:#181818;stroke-width:1;"/><polygon fill="none" points="347.2,573.75,341.2,591.75,353.2,591.75,347.2,573.75" style="stroke:#181818;stroke-width:1;"/></g></g></svg>
