<svg xmlns="http://www.w3.org/2000/svg" xmlns:xlink="http://www.w3.org/1999/xlink" contentStyleType="text/css" data-diagram-type="CLASS" height="529px" preserveAspectRatio="none" style="width:676px;height:529px;background:#FFFFFF;" version="1.1" viewBox="0 0 676 529" width="676px" zoomAndPan="magnify"><defs/><g><!--class Iso8601_type--><g class="entity" data-entity="Iso8601_type" data-source-line="2" data-uid="ent0002" id="entity_Iso8601_type"><rect fill="#F1F1F1" height="98.3998" rx="2.5" ry="2.5" style="stroke:#181818;stroke-width:0.5;" width="188.6934" x="200.48" y="424.6"/><ellipse cx="249.0108" cy="440.6" fill="#A9DCDF" rx="11" ry="11" style="stroke:#181818;stroke-width:1;"/><path d="M243.5265,446.1 L245.5577,446.1 L249.6046,434.7563 L248.6983,434.7563 L252.5265,446.1 L254.6671,446.1 L250.339,433.7719 L248.1202,433.7719 L243.5265,446.1 Z M245.8546,442.6 L252.2921,442.6 L252.2921,440.85 L245.8546,440.85 L245.8546,442.6 Z " fill="#000000"/><text fill="#000000" font-family="sans-serif" font-size="14" font-style="italic" lengthAdjust="spacing" textLength="83.1317" x="269.5108" y="445.962">Iso8601_type</text><line style="stroke:#181818;stroke-width:0.5;" x1="201.48" x2="388.1734" y1="456.6" y2="456.6"/><ellipse cx="211.48" cy="470.5" fill="none" rx="3" ry="3" style="stroke:#038048;stroke-width:1;"/><text fill="#000000" font-family="sans-serif" font-size="14" lengthAdjust="spacing" textLength="98.9656" x="220.48" y="474.3619">value : String [1]</text><line style="stroke:#181818;stroke-width:0.5;" x1="201.48" x2="388.1734" y1="481.3999" y2="481.3999"/><ellipse cx="211.48" cy="495.2999" fill="#84BE84" rx="3" ry="3" style="stroke:#038048;stroke-width:1;"/><text fill="#000000" font-family="sans-serif" font-size="14" font-style="italic" lengthAdjust="spacing" textLength="144.9974" x="220.48" y="499.1619">is_partial() : Boolean [1]</text><ellipse cx="211.48" cy="512.0998" fill="#84BE84" rx="3" ry="3" style="stroke:#038048;stroke-width:1;"/><text fill="#000000" font-family="sans-serif" font-size="14" font-style="italic" lengthAdjust="spacing" textLength="162.6934" x="220.48" y="515.9618">is_extended() : Boolean [1]</text></g><!--class Temporal--><g class="entity" data-entity="Temporal" data-source-line="8" data-uid="ent0003" id="entity_Temporal"><rect fill="#F5F5F5" height="48" rx="2.5" ry="2.5" style="stroke:#808080;stroke-width:1;stroke-dasharray:1,3;" width="91.9898" x="96.83" y="224.2"/><ellipse cx="111.83" cy="240.2" fill="#A9DCDF" rx="11" ry="11" style="stroke:#181818;stroke-width:1;"/><path d="M106.3456,245.7 L108.3769,245.7 L112.4238,234.3563 L111.5175,234.3563 L115.3456,245.7 L117.4863,245.7 L113.1581,233.3719 L110.9394,233.3719 L106.3456,245.7 Z M108.6738,242.2 L115.1113,242.2 L115.1113,240.45 L108.6738,240.45 L108.6738,242.2 Z " fill="#000000"/><text fill="#808080" font-family="sans-serif" font-size="14" font-style="italic" lengthAdjust="spacing" textLength="59.9898" x="125.83" y="245.562">Temporal</text><line style="stroke:#808080;stroke-width:1;stroke-dasharray:1,3;" x1="97.83" x2="187.8198" y1="256.2" y2="256.2"/><line style="stroke:#808080;stroke-width:1;stroke-dasharray:1,3;" x1="97.83" x2="187.8198" y1="264.2" y2="264.2"/></g><!--class Ordered--><g class="entity" data-entity="Ordered" data-source-line="11" data-uid="ent0004" id="entity_Ordered"><rect fill="#F5F5F5" height="64.7999" rx="2.5" ry="2.5" style="stroke:#808080;stroke-width:1;stroke-dasharray:1,3;" width="271.657" x="7" y="7"/><ellipse cx="112.6086" cy="23" fill="#A9DCDF" rx="11" ry="11" style="stroke:#181818;stroke-width:1;"/><path d="M107.1243,28.5 L109.1555,28.5 L113.2024,17.1563 L112.2961,17.1563 L116.1243,28.5 L118.2649,28.5 L113.9368,16.1719 L111.718,16.1719 L107.1243,28.5 Z M109.4524,25 L115.8899,25 L115.8899,23.25 L109.4524,23.25 L109.4524,25 Z " fill="#000000"/><text fill="#808080" font-family="sans-serif" font-size="14" font-style="italic" lengthAdjust="spacing" textLength="51.9398" x="133.1086" y="28.362">Ordered</text><line style="stroke:#808080;stroke-width:1;stroke-dasharray:1,3;" x1="8" x2="277.657" y1="39" y2="39"/><line style="stroke:#808080;stroke-width:1;stroke-dasharray:1,3;" x1="8" x2="277.657" y1="47" y2="47"/><ellipse cx="18" cy="60.9" fill="#84BE84" rx="3" ry="3" style="stroke:#038048;stroke-width:1;"/><text fill="#808080" font-family="sans-serif" font-size="14" font-style="italic" lengthAdjust="spacing" textLength="245.657" x="27" y="64.7619">infix &lt;( other : Ordered [1] ) : Boolean [1]</text></g><!--class Time_Definitions--><g class="entity" data-entity="Time_Definitions" data-source-line="19" data-uid="ent0007" id="entity_Time_Definitions"><rect fill="#F5F5F5" height="232.7992" rx="2.5" ry="2.5" style="stroke:#808080;stroke-width:1;stroke-dasharray:1,3;" width="445.5084" x="224.07" y="131.8"/><ellipse cx="389.5914" cy="147.8" fill="#ADD1B2" rx="11" ry="11" style="stroke:#181818;stroke-width:1;"/><path d="M389.5914,154.2219 C390.7633,154.2219 391.9977,153.9563 393.3727,153.3469 L392.8883,151.8313 C391.7945,152.2531 390.7789,152.4406 389.9195,152.4406 C387.2008,152.4406 385.482,150.5969 385.482,147.6906 C385.482,144.9406 387.0445,143.3469 389.7789,143.3469 C390.7008,143.3469 391.7164,143.5344 392.857,143.9563 L393.4352,142.4406 C392.3414,141.8625 391.0445,141.5656 389.857,141.5656 C386.0914,141.5656 383.5133,144.2063 383.5133,148.0188 C383.5133,151.6906 385.9977,154.2219 389.5914,154.2219 Z " fill="#000000"/><text fill="#808080" font-family="sans-serif" font-size="14" lengthAdjust="spacing" textLength="105.9656" x="410.0914" y="153.162">Time_Definitions</text><line style="stroke:#808080;stroke-width:1;stroke-dasharray:1,3;" x1="225.07" x2="668.5784" y1="163.8" y2="163.8"/><line style="stroke:#808080;stroke-width:1;stroke-dasharray:1,3;" x1="225.07" x2="668.5784" y1="171.8" y2="171.8"/><ellipse cx="235.07" cy="185.7" fill="#84BE84" rx="3" ry="3" style="stroke:#038048;stroke-width:1;"/><text fill="#808080" font-family="sans-serif" font-size="14" lengthAdjust="spacing" textLength="237.0191" x="244.07" y="189.5619">valid_year( y : Integer [1] ) : Boolean [1]</text><ellipse cx="235.07" cy="202.4999" fill="#84BE84" rx="3" ry="3" style="stroke:#038048;stroke-width:1;"/><text fill="#808080" font-family="sans-serif" font-size="14" lengthAdjust="spacing" textLength="257.417" x="244.07" y="206.3619">valid_month( m : Integer [1] ) : Boolean [1]</text><ellipse cx="235.07" cy="219.2998" fill="#84BE84" rx="3" ry="3" style="stroke:#038048;stroke-width:1;"/><text fill="#808080" font-family="sans-serif" font-size="14" lengthAdjust="spacing" textLength="412.6764" x="244.07" y="223.1618">valid_day( y : Integer [1], m : Integer [1], d : Integer [1] ) : Boolean [1]</text><ellipse cx="235.07" cy="236.0997" fill="#84BE84" rx="3" ry="3" style="stroke:#038048;stroke-width:1;"/><text fill="#808080" font-family="sans-serif" font-size="14" lengthAdjust="spacing" textLength="419.5084" x="244.07" y="239.9617">valid_hour( h : Integer [1], m : Integer [1], s : Integer [1] ) : Boolean [1]</text><ellipse cx="235.07" cy="252.8997" fill="#84BE84" rx="3" ry="3" style="stroke:#038048;stroke-width:1;"/><text fill="#808080" font-family="sans-serif" font-size="14" lengthAdjust="spacing" textLength="260.189" x="244.07" y="256.7616">valid_minute( m : Integer [1] ) : Boolean [1]</text><ellipse cx="235.07" cy="269.6996" fill="#84BE84" rx="3" ry="3" style="stroke:#038048;stroke-width:1;"/><text fill="#808080" font-family="sans-serif" font-size="14" lengthAdjust="spacing" textLength="254.519" x="244.07" y="273.5616">valid_second( s : Integer [1] ) : Boolean [1]</text><ellipse cx="235.07" cy="286.4995" fill="#84BE84" rx="3" ry="3" style="stroke:#038048;stroke-width:1;"/><text fill="#808080" font-family="sans-serif" font-size="14" lengthAdjust="spacing" textLength="325.6528" x="244.07" y="290.3615">valid_fractional_second( fs : Double [1] ) : Boolean [1]</text><ellipse cx="235.07" cy="303.2995" fill="#84BE84" rx="3" ry="3" style="stroke:#038048;stroke-width:1;"/><text fill="#808080" font-family="sans-serif" font-size="14" lengthAdjust="spacing" textLength="286.1729" x="244.07" y="307.1614">valid_iso8601_date( s : String [1] ) : Boolean [1]</text><ellipse cx="235.07" cy="320.0994" fill="#84BE84" rx="3" ry="3" style="stroke:#038048;stroke-width:1;"/><text fill="#808080" font-family="sans-serif" font-size="14" lengthAdjust="spacing" textLength="286.8729" x="244.07" y="323.9614">valid_iso8601_time( s : String [1] ) : Boolean [1]</text><ellipse cx="235.07" cy="336.8993" fill="#84BE84" rx="3" ry="3" style="stroke:#038048;stroke-width:1;"/><text fill="#808080" font-family="sans-serif" font-size="14" lengthAdjust="spacing" textLength="321.4667" x="244.07" y="340.7613">valid_iso8601_date_time( s : String [1] ) : Boolean [1]</text><ellipse cx="235.07" cy="353.6992" fill="#84BE84" rx="3" ry="3" style="stroke:#038048;stroke-width:1;"/><text fill="#808080" font-family="sans-serif" font-size="14" lengthAdjust="spacing" textLength="311.1908" x="244.07" y="357.5612">valid_iso8601_duration( s : String [1] ) : Boolean [1]</text></g><!--reverse link Ordered to Temporal--><g class="link" data-entity-1="Ordered" data-entity-2="Temporal" data-source-line="15" data-uid="lnk5" id="link_Ordered_Temporal"><path codeLine="15" d="M142.83,90.26 C142.83,132.18 142.83,186.87 142.83,223.97" fill="none" id="Ordered-backto-Temporal" style="stroke:#181818;stroke-width:1;"/><polygon fill="none" points="142.83,72.26,136.83,90.26,148.83,90.26,142.83,72.26" style="stroke:#181818;stroke-width:1;"/></g><!--reverse link Temporal to Iso8601_type--><g class="link" data-entity-1="Temporal" data-entity-2="Iso8601_type" data-source-line="17" data-uid="lnk6" id="link_Temporal_Iso8601_type"><path codeLine="17" d="M162.283,288.538 C174.273,312.358 186.17,334.05 206.83,364.6 C220.53,384.86 237.11,405.97 252.18,424.12" fill="none" id="Temporal-backto-Iso8601_type" style="stroke:#181818;stroke-width:1;"/><polygon fill="none" points="154.19,272.46,156.9237,291.2357,167.6424,285.8404,154.19,272.46" style="stroke:#181818;stroke-width:1;"/></g><!--reverse link Time_Definitions to Iso8601_type--><g class="link" data-entity-1="Time_Definitions" data-entity-2="Iso8601_type" data-source-line="33" data-uid="lnk8" id="link_Time_Definitions_Iso8601_type"><path codeLine="33" d="M358.041,379.8164 C343.841,400.7064 339.89,406.52 327.92,424.12" fill="none" id="Time_Definitions-backto-Iso8601_type" style="stroke:#181818;stroke-width:1;"/><polygon fill="none" points="368.16,364.93,353.0788,376.4434,363.0031,383.1894,368.16,364.93" style="stroke:#181818;stroke-width:1;"/></g></g></svg>
