<svg xmlns="http://www.w3.org/2000/svg" xmlns:xlink="http://www.w3.org/1999/xlink" contentStyleType="text/css" data-diagram-type="CLASS" height="772px" preserveAspectRatio="none" style="width:766px;height:772px;background:#FFFFFF;" version="1.1" viewBox="0 0 766 772" width="766px" zoomAndPan="magnify"><defs/><g><!--class Iso8601_duration--><g class="entity" data-entity="Iso8601_duration" data-source-line="2" data-uid="ent0002" id="entity_Iso8601_duration"><rect fill="#F1F1F1" height="266.399" rx="2.5" ry="2.5" style="stroke:#181818;stroke-width:0.5;" width="337.1908" x="90.23" y="499"/><ellipse cx="200.2836" cy="515" fill="#ADD1B2" rx="11" ry="11" style="stroke:#181818;stroke-width:1;"/><path d="M200.2836,521.4219 C201.4555,521.4219 202.6899,521.1563 204.0649,520.5469 L203.5805,519.0313 C202.4867,519.4531 201.4711,519.6406 200.6117,519.6406 C197.893,519.6406 196.1742,517.7969 196.1742,514.8906 C196.1742,512.1406 197.7367,510.5469 200.4711,510.5469 C201.393,510.5469 202.4086,510.7344 203.5492,511.1563 L204.1274,509.6406 C203.0336,509.0625 201.7367,508.7656 200.5492,508.7656 C196.7836,508.7656 194.2055,511.4063 194.2055,515.2188 C194.2055,518.8906 196.6899,521.4219 200.2836,521.4219 Z " fill="#000000"/><text fill="#000000" font-family="sans-serif" font-size="14" lengthAdjust="spacing" textLength="108.5836" x="220.7836" y="520.362">Iso8601_duration</text><line style="stroke:#181818;stroke-width:0.5;" x1="91.23" x2="426.4208" y1="531" y2="531"/><line style="stroke:#181818;stroke-width:0.5;" x1="91.23" x2="426.4208" y1="539" y2="539"/><ellipse cx="101.23" cy="552.9" fill="#84BE84" rx="3" ry="3" style="stroke:#038048;stroke-width:1;"/><text fill="#000000" font-family="sans-serif" font-size="14" lengthAdjust="spacing" textLength="240.127" x="110.23" y="556.7619">is_decimal_sign_comma() : Boolean [1]</text><ellipse cx="101.23" cy="569.6999" fill="#84BE84" rx="3" ry="3" style="stroke:#038048;stroke-width:1;"/><text fill="#000000" font-family="sans-serif" font-size="14" lengthAdjust="spacing" textLength="311.1908" x="110.23" y="573.5619">valid_iso8601_duration( s : String [1] ) : Boolean [1]</text><ellipse cx="101.23" cy="586.4998" fill="#84BE84" rx="3" ry="3" style="stroke:#038048;stroke-width:1;"/><text fill="#000000" font-family="sans-serif" font-size="14" lengthAdjust="spacing" textLength="144.9974" x="110.23" y="590.3618">is_partial() : Boolean [1]</text><ellipse cx="101.23" cy="603.2997" fill="#84BE84" rx="3" ry="3" style="stroke:#038048;stroke-width:1;"/><text fill="#000000" font-family="sans-serif" font-size="14" lengthAdjust="spacing" textLength="162.6934" x="110.23" y="607.1617">is_extended() : Boolean [1]</text><ellipse cx="101.23" cy="620.0997" fill="#84BE84" rx="3" ry="3" style="stroke:#038048;stroke-width:1;"/><text fill="#000000" font-family="sans-serif" font-size="14" lengthAdjust="spacing" textLength="131.2635" x="110.23" y="623.9616">as_string() : String [1]</text><ellipse cx="101.23" cy="636.8996" fill="#84BE84" rx="3" ry="3" style="stroke:#038048;stroke-width:1;"/><text fill="#000000" font-family="sans-serif" font-size="14" lengthAdjust="spacing" textLength="129.5135" x="110.23" y="640.7616">months() : Integer [1]</text><ellipse cx="101.23" cy="653.6995" fill="#84BE84" rx="3" ry="3" style="stroke:#038048;stroke-width:1;"/><text fill="#000000" font-family="sans-serif" font-size="14" lengthAdjust="spacing" textLength="114.7996" x="110.23" y="657.5615">years() : Integer [1]</text><ellipse cx="101.23" cy="670.4995" fill="#84BE84" rx="3" ry="3" style="stroke:#038048;stroke-width:1;"/><text fill="#000000" font-family="sans-serif" font-size="14" lengthAdjust="spacing" textLength="120.9595" x="110.23" y="674.3614">weeks() : Integer [1]</text><ellipse cx="101.23" cy="687.2994" fill="#84BE84" rx="3" ry="3" style="stroke:#038048;stroke-width:1;"/><text fill="#000000" font-family="sans-serif" font-size="14" lengthAdjust="spacing" textLength="152.5154" x="110.23" y="691.1614">to_seconds() : Integer [1]</text><ellipse cx="101.23" cy="704.0993" fill="#84BE84" rx="3" ry="3" style="stroke:#038048;stroke-width:1;"/><text fill="#000000" font-family="sans-serif" font-size="14" lengthAdjust="spacing" textLength="132.2855" x="110.23" y="707.9613">minutes() : Integer [1]</text><ellipse cx="101.23" cy="720.8992" fill="#84BE84" rx="3" ry="3" style="stroke:#038048;stroke-width:1;"/><text fill="#000000" font-family="sans-serif" font-size="14" lengthAdjust="spacing" textLength="117.2076" x="110.23" y="724.7612">hours() : Integer [1]</text><ellipse cx="101.23" cy="737.6992" fill="#84BE84" rx="3" ry="3" style="stroke:#038048;stroke-width:1;"/><text fill="#000000" font-family="sans-serif" font-size="14" lengthAdjust="spacing" textLength="110.1096" x="110.23" y="741.5611">days() : Integer [1]</text><ellipse cx="101.23" cy="754.4991" fill="#84BE84" rx="3" ry="3" style="stroke:#038048;stroke-width:1;"/><text fill="#000000" font-family="sans-serif" font-size="14" lengthAdjust="spacing" textLength="164.8354" x="110.23" y="758.3611">as_duration() : Duration [1]</text></g><!--class Iso8601_type--><g class="entity" data-entity="Iso8601_type" data-source-line="18" data-uid="ent0003" id="entity_Iso8601_type"><rect fill="#F5F5F5" height="98.3998" rx="2.5" ry="2.5" style="stroke:#808080;stroke-width:1;stroke-dasharray:1,3;" width="188.6934" x="48.48" y="340.6"/><ellipse cx="97.0108" cy="356.6" fill="#A9DCDF" rx="11" ry="11" style="stroke:#181818;stroke-width:1;"/><path d="M91.5265,362.1 L93.5577,362.1 L97.6046,350.7562 L96.6983,350.7562 L100.5265,362.1 L102.6671,362.1 L98.339,349.7719 L96.1202,349.7719 L91.5265,362.1 Z M93.8546,358.6 L100.2921,358.6 L100.2921,356.85 L93.8546,356.85 L93.8546,358.6 Z " fill="#000000"/><text fill="#808080" font-family="sans-serif" font-size="14" font-style="italic" lengthAdjust="spacing" textLength="83.1317" x="117.5108" y="361.962">Iso8601_type</text><line style="stroke:#808080;stroke-width:1;stroke-dasharray:1,3;" x1="49.48" x2="236.1734" y1="372.6" y2="372.6"/><ellipse cx="59.48" cy="386.5" fill="none" rx="3" ry="3" style="stroke:#038048;stroke-width:1;"/><text fill="#808080" font-family="sans-serif" font-size="14" lengthAdjust="spacing" textLength="98.9656" x="68.48" y="390.3619">value : String [1]</text><line style="stroke:#808080;stroke-width:1;stroke-dasharray:1,3;" x1="49.48" x2="236.1734" y1="397.3999" y2="397.3999"/><ellipse cx="59.48" cy="411.2999" fill="#84BE84" rx="3" ry="3" style="stroke:#038048;stroke-width:1;"/><text fill="#808080" font-family="sans-serif" font-size="14" font-style="italic" lengthAdjust="spacing" textLength="144.9974" x="68.48" y="415.1619">is_partial() : Boolean [1]</text><ellipse cx="59.48" cy="428.0998" fill="#84BE84" rx="3" ry="3" style="stroke:#038048;stroke-width:1;"/><text fill="#808080" font-family="sans-serif" font-size="14" font-style="italic" lengthAdjust="spacing" textLength="162.6934" x="68.48" y="431.9618">is_extended() : Boolean [1]</text></g><!--class Ordered--><g class="entity" data-entity="Ordered" data-source-line="24" data-uid="ent0004" id="entity_Ordered"><rect fill="#F5F5F5" height="81.5999" rx="2.5" ry="2.5" style="stroke:#808080;stroke-width:1;stroke-dasharray:1,3;" width="271.657" x="7" y="49"/><ellipse cx="112.6086" cy="65" fill="#A9DCDF" rx="11" ry="11" style="stroke:#181818;stroke-width:1;"/><path d="M107.1243,70.5 L109.1555,70.5 L113.2024,59.1563 L112.2961,59.1563 L116.1243,70.5 L118.2649,70.5 L113.9368,58.1719 L111.718,58.1719 L107.1243,70.5 Z M109.4524,67 L115.8899,67 L115.8899,65.25 L109.4524,65.25 L109.4524,67 Z " fill="#000000"/><text fill="#808080" font-family="sans-serif" font-size="14" font-style="italic" lengthAdjust="spacing" textLength="51.9398" x="133.1086" y="70.362">Ordered</text><line style="stroke:#808080;stroke-width:1;stroke-dasharray:1,3;" x1="8" x2="277.657" y1="81" y2="81"/><line style="stroke:#808080;stroke-width:1;stroke-dasharray:1,3;" x1="8" x2="277.657" y1="89" y2="89"/><ellipse cx="18" cy="102.9" fill="#84BE84" rx="3" ry="3" style="stroke:#038048;stroke-width:1;"/><text fill="#808080" font-family="sans-serif" font-size="14" font-style="italic" lengthAdjust="spacing" textLength="245.657" x="27" y="106.7619">infix &lt;( other : Ordered [1] ) : Boolean [1]</text><ellipse cx="18" cy="119.6999" fill="#84BE84" rx="3" ry="3" style="stroke:#038048;stroke-width:1;"/><text fill="#808080" font-family="sans-serif" font-size="14" font-style="italic" lengthAdjust="spacing" textLength="245.657" x="27" y="123.5619">infix &lt;( other : Ordered [1] ) : Boolean [1]</text></g><!--class IDuration--><g class="entity" data-entity="IDuration" data-source-line="32" data-uid="ent0007" id="entity_IDuration"><rect fill="#F5F5F5" height="81.5999" rx="2.5" ry="2.5" style="stroke:#808080;stroke-width:1;stroke-dasharray:1,3;" width="207.0613" x="272.3" y="349"/><ellipse cx="342.4188" cy="365" fill="#A9DCDF" rx="11" ry="11" style="stroke:#181818;stroke-width:1;"/><path d="M336.9344,370.5 L338.9656,370.5 L343.0125,359.1563 L342.1063,359.1563 L345.9344,370.5 L348.075,370.5 L343.7469,358.1719 L341.5281,358.1719 L336.9344,370.5 Z M339.2625,367 L345.7,367 L345.7,365.25 L339.2625,365.25 L339.2625,367 Z " fill="#000000"/><text fill="#808080" font-family="sans-serif" font-size="14" font-style="italic" lengthAdjust="spacing" textLength="58.3238" x="362.9188" y="370.362">IDuration</text><line style="stroke:#808080;stroke-width:1;stroke-dasharray:1,3;" x1="273.3" x2="478.3613" y1="381" y2="381"/><line style="stroke:#808080;stroke-width:1;stroke-dasharray:1,3;" x1="273.3" x2="478.3613" y1="389" y2="389"/><ellipse cx="283.3" cy="402.9" fill="#84BE84" rx="3" ry="3" style="stroke:#038048;stroke-width:1;"/><text fill="#808080" font-family="sans-serif" font-size="14" lengthAdjust="spacing" textLength="132.5235" x="292.3" y="406.7619">seconds() : Integer [1]</text><ellipse cx="283.3" cy="419.6999" fill="#84BE84" rx="3" ry="3" style="stroke:#038048;stroke-width:1;"/><text fill="#808080" font-family="sans-serif" font-size="14" lengthAdjust="spacing" textLength="181.0613" x="292.3" y="423.5619">fractional_seconds() : Real [1]</text></g><!--class Temporal--><g class="entity" data-entity="Temporal" data-source-line="37" data-uid="ent0008" id="entity_Temporal"><rect fill="#F5F5F5" height="48" rx="2.5" ry="2.5" style="stroke:#808080;stroke-width:1;stroke-dasharray:1,3;" width="91.9898" x="329.83" y="232.6"/><ellipse cx="344.83" cy="248.6" fill="#A9DCDF" rx="11" ry="11" style="stroke:#181818;stroke-width:1;"/><path d="M339.3456,254.1 L341.3769,254.1 L345.4238,242.7563 L344.5175,242.7563 L348.3456,254.1 L350.4863,254.1 L346.1581,241.7719 L343.9394,241.7719 L339.3456,254.1 Z M341.6738,250.6 L348.1113,250.6 L348.1113,248.85 L341.6738,248.85 L341.6738,250.6 Z " fill="#000000"/><text fill="#808080" font-family="sans-serif" font-size="14" font-style="italic" lengthAdjust="spacing" textLength="59.9898" x="358.83" y="253.962">Temporal</text><line style="stroke:#808080;stroke-width:1;stroke-dasharray:1,3;" x1="330.83" x2="420.8198" y1="264.6" y2="264.6"/><line style="stroke:#808080;stroke-width:1;stroke-dasharray:1,3;" x1="330.83" x2="420.8198" y1="272.6" y2="272.6"/></g><!--class Time_Definitions--><g class="entity" data-entity="Time_Definitions" data-source-line="46" data-uid="ent0010" id="entity_Time_Definitions"><rect fill="#F5F5F5" height="165.5995" rx="2.5" ry="2.5" style="stroke:#808080;stroke-width:1;stroke-dasharray:1,3;" width="445.5084" x="314.07" y="7"/><ellipse cx="479.5914" cy="23" fill="#ADD1B2" rx="11" ry="11" style="stroke:#181818;stroke-width:1;"/><path d="M479.5914,29.4219 C480.7633,29.4219 481.9977,29.1563 483.3727,28.5469 L482.8883,27.0313 C481.7945,27.4531 480.7789,27.6406 479.9195,27.6406 C477.2008,27.6406 475.482,25.7969 475.482,22.8906 C475.482,20.1406 477.0445,18.5469 479.7789,18.5469 C480.7008,18.5469 481.7164,18.7344 482.857,19.1563 L483.4352,17.6406 C482.3414,17.0625 481.0445,16.7656 479.857,16.7656 C476.0914,16.7656 473.5133,19.4063 473.5133,23.2188 C473.5133,26.8906 475.9977,29.4219 479.5914,29.4219 Z " fill="#000000"/><text fill="#808080" font-family="sans-serif" font-size="14" lengthAdjust="spacing" textLength="105.9656" x="500.0914" y="28.362">Time_Definitions</text><line style="stroke:#808080;stroke-width:1;stroke-dasharray:1,3;" x1="315.07" x2="758.5784" y1="39" y2="39"/><line style="stroke:#808080;stroke-width:1;stroke-dasharray:1,3;" x1="315.07" x2="758.5784" y1="47" y2="47"/><ellipse cx="325.07" cy="60.9" fill="#84BE84" rx="3" ry="3" style="stroke:#038048;stroke-width:1;"/><text fill="#808080" font-family="sans-serif" font-size="14" lengthAdjust="spacing" textLength="237.0191" x="334.07" y="64.7619">valid_year( y : Integer [1] ) : Boolean [1]</text><ellipse cx="325.07" cy="77.6999" fill="#84BE84" rx="3" ry="3" style="stroke:#038048;stroke-width:1;"/><text fill="#808080" font-family="sans-serif" font-size="14" lengthAdjust="spacing" textLength="257.417" x="334.07" y="81.5619">valid_month( m : Integer [1] ) : Boolean [1]</text><ellipse cx="325.07" cy="94.4998" fill="#84BE84" rx="3" ry="3" style="stroke:#038048;stroke-width:1;"/><text fill="#808080" font-family="sans-serif" font-size="14" lengthAdjust="spacing" textLength="412.6764" x="334.07" y="98.3618">valid_day( y : Integer [1], m : Integer [1], d : Integer [1] ) : Boolean [1]</text><ellipse cx="325.07" cy="111.2997" fill="#84BE84" rx="3" ry="3" style="stroke:#038048;stroke-width:1;"/><text fill="#808080" font-family="sans-serif" font-size="14" lengthAdjust="spacing" textLength="419.5084" x="334.07" y="115.1617">valid_hour( h : Integer [1], m : Integer [1], s : Integer [1] ) : Boolean [1]</text><ellipse cx="325.07" cy="128.0997" fill="#84BE84" rx="3" ry="3" style="stroke:#038048;stroke-width:1;"/><text fill="#808080" font-family="sans-serif" font-size="14" lengthAdjust="spacing" textLength="260.189" x="334.07" y="131.9616">valid_minute( m : Integer [1] ) : Boolean [1]</text><ellipse cx="325.07" cy="144.8996" fill="#84BE84" rx="3" ry="3" style="stroke:#038048;stroke-width:1;"/><text fill="#808080" font-family="sans-serif" font-size="14" lengthAdjust="spacing" textLength="254.519" x="334.07" y="148.7616">valid_second( s : Integer [1] ) : Boolean [1]</text><ellipse cx="325.07" cy="161.6995" fill="#84BE84" rx="3" ry="3" style="stroke:#038048;stroke-width:1;"/><text fill="#808080" font-family="sans-serif" font-size="14" lengthAdjust="spacing" textLength="325.6528" x="334.07" y="165.5615">valid_fractional_second( fs : Double [1] ) : Boolean [1]</text></g><!--reverse link Ordered to Iso8601_type--><g class="link" data-entity-1="Ordered" data-entity-2="Iso8601_type" data-source-line="28" data-uid="lnk5" id="link_Ordered_Iso8601_type"><path codeLine="28" d="M142.83,148.99 C142.83,203.24 142.83,281.82 142.83,340.12" fill="none" id="Ordered-backto-Iso8601_type" style="stroke:#181818;stroke-width:1;"/><polygon fill="none" points="142.83,130.99,136.83,148.99,148.83,148.99,142.83,130.99" style="stroke:#181818;stroke-width:1;"/></g><!--reverse link Iso8601_type to Iso8601_duration--><g class="link" data-entity-1="Iso8601_type" data-entity-2="Iso8601_duration" data-source-line="30" data-uid="lnk6" id="link_Iso8601_type_Iso8601_duration"><path codeLine="30" d="M174.1257,455.6598 C182.5357,473.0798 184.64,477.45 194.82,498.55" fill="none" id="Iso8601_type-backto-Iso8601_duration" style="stroke:#181818;stroke-width:1;"/><polygon fill="none" points="166.3,439.45,168.7225,458.2684,179.529,453.0512,166.3,439.45" style="stroke:#181818;stroke-width:1;"/></g><!--reverse link Ordered to Temporal--><g class="link" data-entity-1="Ordered" data-entity-2="Temporal" data-source-line="44" data-uid="lnk9" id="link_Ordered_Temporal"><path codeLine="44" d="M214.2271,141.3021 C259.0871,173.0221 305.47,205.84 342.7,232.17" fill="none" id="Ordered-backto-Temporal" style="stroke:#181818;stroke-width:1;"/><polygon fill="none" points="199.53,130.91,210.763,146.2011,217.6911,136.4031,199.53,130.91" style="stroke:#181818;stroke-width:1;"/></g><!--reverse link Time_Definitions to Temporal--><g class="link" data-entity-1="Time_Definitions" data-entity-2="Temporal" data-source-line="56" data-uid="lnk11" id="link_Time_Definitions_Temporal"><path codeLine="56" d="M444.2205,185.5946 C422.9105,207.4046 414.14,216.39 398.72,232.17" fill="none" id="Time_Definitions-backto-Temporal" style="stroke:#181818;stroke-width:1;"/><polygon fill="none" points="456.8,172.72,439.929,181.4015,448.5121,189.7878,456.8,172.72" style="stroke:#181818;stroke-width:1;"/></g><!--reverse link Temporal to IDuration--><g class="link" data-entity-1="Temporal" data-entity-2="IDuration" data-source-line="58" data-uid="lnk12" id="link_Temporal_IDuration"><path codeLine="58" d="M375.83,299.06 C375.83,317.78 375.83,326.44 375.83,348.56" fill="none" id="Temporal-backto-IDuration" style="stroke:#181818;stroke-width:1;"/><polygon fill="none" points="375.83,281.06,369.83,299.06,381.83,299.06,375.83,281.06" style="stroke:#181818;stroke-width:1;"/></g><!--reverse link IDuration to Iso8601_duration--><g class="link" data-entity-1="IDuration" data-entity-2="Iso8601_duration" data-source-line="60" data-uid="lnk13" id="link_IDuration_Iso8601_duration"><path codeLine="60" d="M348.3739,447.2254 C339.1039,466.2754 335.32,474.04 323.32,498.68" fill="none" id="IDuration-backto-Iso8601_duration" style="stroke:#181818;stroke-width:1;"/><polygon fill="none" points="356.25,431.04,342.9788,444.6001,353.7691,449.8508,356.25,431.04" style="stroke:#181818;stroke-width:1;"/></g></g></svg>
