<svg xmlns="http://www.w3.org/2000/svg" xmlns:xlink="http://www.w3.org/1999/xlink" contentStyleType="text/css" data-diagram-type="CLASS" height="822px" preserveAspectRatio="none" style="width:766px;height:822px;background:#FFFFFF;" version="1.1" viewBox="0 0 766 822" width="766px" zoomAndPan="magnify"><defs/><g><!--class Iso8601_date_time--><g class="entity" data-entity="Iso8601_date_time" data-source-line="2" data-uid="ent0002" id="entity_Iso8601_date_time"><rect fill="#F1F1F1" height="232.7992" rx="2.5" ry="2.5" style="stroke:#181818;stroke-width:0.5;" width="347.4667" x="84.1" y="583"/><ellipse cx="194.1536" cy="599" fill="#ADD1B2" rx="11" ry="11" style="stroke:#181818;stroke-width:1;"/><path d="M194.1536,605.4219 C195.3255,605.4219 196.5599,605.1563 197.9349,604.5469 L197.4505,603.0313 C196.3567,603.4531 195.3411,603.6406 194.4817,603.6406 C191.763,603.6406 190.0442,601.7969 190.0442,598.8906 C190.0442,596.1406 191.6067,594.5469 194.3411,594.5469 C195.263,594.5469 196.2786,594.7344 197.4192,595.1563 L197.9974,593.6406 C196.9036,593.0625 195.6067,592.7656 194.4192,592.7656 C190.6536,592.7656 188.0755,595.4063 188.0755,599.2188 C188.0755,602.8906 190.5599,605.4219 194.1536,605.4219 Z " fill="#000000"/><text fill="#000000" font-family="sans-serif" font-size="14" lengthAdjust="spacing" textLength="118.8595" x="214.6536" y="604.362">Iso8601_date_time</text><line style="stroke:#181818;stroke-width:0.5;" x1="85.1" x2="430.5667" y1="615" y2="615"/><line style="stroke:#181818;stroke-width:0.5;" x1="85.1" x2="430.5667" y1="623" y2="623"/><ellipse cx="95.1" cy="636.9" fill="#84BE84" rx="3" ry="3" style="stroke:#038048;stroke-width:1;"/><text fill="#000000" font-family="sans-serif" font-size="14" lengthAdjust="spacing" textLength="193.8293" x="104.1" y="640.7619">month_unknown() : Boolean [1]</text><ellipse cx="95.1" cy="653.6999" fill="#84BE84" rx="3" ry="3" style="stroke:#038048;stroke-width:1;"/><text fill="#000000" font-family="sans-serif" font-size="14" lengthAdjust="spacing" textLength="174.4253" x="104.1" y="657.5619">day_unknown() : Boolean [1]</text><ellipse cx="95.1" cy="670.4998" fill="#84BE84" rx="3" ry="3" style="stroke:#038048;stroke-width:1;"/><text fill="#000000" font-family="sans-serif" font-size="14" lengthAdjust="spacing" textLength="196.6012" x="104.1" y="674.3618">minute_unknown() : Boolean [1]</text><ellipse cx="95.1" cy="687.2997" fill="#84BE84" rx="3" ry="3" style="stroke:#038048;stroke-width:1;"/><text fill="#000000" font-family="sans-serif" font-size="14" lengthAdjust="spacing" textLength="196.8392" x="104.1" y="691.1617">second_unknown() : Boolean [1]</text><ellipse cx="95.1" cy="704.0997" fill="#84BE84" rx="3" ry="3" style="stroke:#038048;stroke-width:1;"/><text fill="#000000" font-family="sans-serif" font-size="14" lengthAdjust="spacing" textLength="240.127" x="104.1" y="707.9616">is_decimal_sign_comma() : Boolean [1]</text><ellipse cx="95.1" cy="720.8996" fill="#84BE84" rx="3" ry="3" style="stroke:#038048;stroke-width:1;"/><text fill="#000000" font-family="sans-serif" font-size="14" lengthAdjust="spacing" textLength="321.4667" x="104.1" y="724.7616">valid_iso8601_date_time( s : String [1] ) : Boolean [1]</text><ellipse cx="95.1" cy="737.6995" fill="#84BE84" rx="3" ry="3" style="stroke:#038048;stroke-width:1;"/><text fill="#000000" font-family="sans-serif" font-size="14" lengthAdjust="spacing" textLength="144.9974" x="104.1" y="741.5615">is_partial() : Boolean [1]</text><ellipse cx="95.1" cy="754.4995" fill="#84BE84" rx="3" ry="3" style="stroke:#038048;stroke-width:1;"/><text fill="#000000" font-family="sans-serif" font-size="14" lengthAdjust="spacing" textLength="162.6934" x="104.1" y="758.3614">is_extended() : Boolean [1]</text><ellipse cx="95.1" cy="771.2994" fill="#84BE84" rx="3" ry="3" style="stroke:#038048;stroke-width:1;"/><text fill="#000000" font-family="sans-serif" font-size="14" lengthAdjust="spacing" textLength="131.2635" x="104.1" y="775.1614">as_string() : String [1]</text><ellipse cx="95.1" cy="788.0993" fill="#84BE84" rx="3" ry="3" style="stroke:#038048;stroke-width:1;"/><text fill="#000000" font-family="sans-serif" font-size="14" lengthAdjust="spacing" textLength="227.1211" x="104.1" y="791.9613">has_fractional_second() : Boolean [1]</text><ellipse cx="95.1" cy="804.8992" fill="#84BE84" rx="3" ry="3" style="stroke:#038048;stroke-width:1;"/><text fill="#000000" font-family="sans-serif" font-size="14" lengthAdjust="spacing" textLength="185.3873" x="104.1" y="808.7612">as_date_time() : Date_time [1]</text></g><!--class Iso8601_type--><g class="entity" data-entity="Iso8601_type" data-source-line="16" data-uid="ent0003" id="entity_Iso8601_type"><rect fill="#F5F5F5" height="98.3998" rx="2.5" ry="2.5" style="stroke:#808080;stroke-width:1;stroke-dasharray:1,3;" width="188.6934" x="48.48" y="382.6"/><ellipse cx="97.0108" cy="398.6" fill="#A9DCDF" rx="11" ry="11" style="stroke:#181818;stroke-width:1;"/><path d="M91.5265,404.1 L93.5577,404.1 L97.6046,392.7562 L96.6983,392.7562 L100.5265,404.1 L102.6671,404.1 L98.339,391.7719 L96.1202,391.7719 L91.5265,404.1 Z M93.8546,400.6 L100.2921,400.6 L100.2921,398.85 L93.8546,398.85 L93.8546,400.6 Z " fill="#000000"/><text fill="#808080" font-family="sans-serif" font-size="14" font-style="italic" lengthAdjust="spacing" textLength="83.1317" x="117.5108" y="403.962">Iso8601_type</text><line style="stroke:#808080;stroke-width:1;stroke-dasharray:1,3;" x1="49.48" x2="236.1734" y1="414.6" y2="414.6"/><ellipse cx="59.48" cy="428.5" fill="none" rx="3" ry="3" style="stroke:#038048;stroke-width:1;"/><text fill="#808080" font-family="sans-serif" font-size="14" lengthAdjust="spacing" textLength="98.9656" x="68.48" y="432.3619">value : String [1]</text><line style="stroke:#808080;stroke-width:1;stroke-dasharray:1,3;" x1="49.48" x2="236.1734" y1="439.3999" y2="439.3999"/><ellipse cx="59.48" cy="453.2999" fill="#84BE84" rx="3" ry="3" style="stroke:#038048;stroke-width:1;"/><text fill="#808080" font-family="sans-serif" font-size="14" font-style="italic" lengthAdjust="spacing" textLength="144.9974" x="68.48" y="457.1619">is_partial() : Boolean [1]</text><ellipse cx="59.48" cy="470.0998" fill="#84BE84" rx="3" ry="3" style="stroke:#038048;stroke-width:1;"/><text fill="#808080" font-family="sans-serif" font-size="14" font-style="italic" lengthAdjust="spacing" textLength="162.6934" x="68.48" y="473.9618">is_extended() : Boolean [1]</text></g><!--class Ordered--><g class="entity" data-entity="Ordered" data-source-line="22" data-uid="ent0004" id="entity_Ordered"><rect fill="#F5F5F5" height="81.5999" rx="2.5" ry="2.5" style="stroke:#808080;stroke-width:1;stroke-dasharray:1,3;" width="271.657" x="7" y="49"/><ellipse cx="112.6086" cy="65" fill="#A9DCDF" rx="11" ry="11" style="stroke:#181818;stroke-width:1;"/><path d="M107.1243,70.5 L109.1555,70.5 L113.2024,59.1563 L112.2961,59.1563 L116.1243,70.5 L118.2649,70.5 L113.9368,58.1719 L111.718,58.1719 L107.1243,70.5 Z M109.4524,67 L115.8899,67 L115.8899,65.25 L109.4524,65.25 L109.4524,67 Z " fill="#000000"/><text fill="#808080" font-family="sans-serif" font-size="14" font-style="italic" lengthAdjust="spacing" textLength="51.9398" x="133.1086" y="70.362">Ordered</text><line style="stroke:#808080;stroke-width:1;stroke-dasharray:1,3;" x1="8" x2="277.657" y1="81" y2="81"/><line style="stroke:#808080;stroke-width:1;stroke-dasharray:1,3;" x1="8" x2="277.657" y1="89" y2="89"/><ellipse cx="18" cy="102.9" fill="#84BE84" rx="3" ry="3" style="stroke:#038048;stroke-width:1;"/><text fill="#808080" font-family="sans-serif" font-size="14" font-style="italic" lengthAdjust="spacing" textLength="245.657" x="27" y="106.7619">infix &lt;( other : Ordered [1] ) : Boolean [1]</text><ellipse cx="18" cy="119.6999" fill="#84BE84" rx="3" ry="3" style="stroke:#038048;stroke-width:1;"/><text fill="#808080" font-family="sans-serif" font-size="14" font-style="italic" lengthAdjust="spacing" textLength="245.657" x="27" y="123.5619">infix &lt;( other : Ordered [1] ) : Boolean [1]</text></g><!--class IDate_time--><g class="entity" data-entity="IDate_time" data-source-line="30" data-uid="ent0007" id="entity_IDate_time"><rect fill="#F5F5F5" height="182.3994" rx="2.5" ry="2.5" style="stroke:#808080;stroke-width:1;stroke-dasharray:1,3;" width="200.5653" x="272.55" y="340.6"/><ellipse cx="334.2828" cy="356.6" fill="#A9DCDF" rx="11" ry="11" style="stroke:#181818;stroke-width:1;"/><path d="M328.7984,362.1 L330.8297,362.1 L334.8765,350.7562 L333.9703,350.7562 L337.7984,362.1 L339.939,362.1 L335.6109,349.7719 L333.3922,349.7719 L328.7984,362.1 Z M331.1265,358.6 L337.564,358.6 L337.564,356.85 L331.1265,356.85 L331.1265,358.6 Z " fill="#000000"/><text fill="#808080" font-family="sans-serif" font-size="14" font-style="italic" lengthAdjust="spacing" textLength="68.5997" x="354.7828" y="361.962">IDate_time</text><line style="stroke:#808080;stroke-width:1;stroke-dasharray:1,3;" x1="273.55" x2="472.1153" y1="372.6" y2="372.6"/><line style="stroke:#808080;stroke-width:1;stroke-dasharray:1,3;" x1="273.55" x2="472.1153" y1="380.6" y2="380.6"/><ellipse cx="283.55" cy="394.5" fill="#84BE84" rx="3" ry="3" style="stroke:#038048;stroke-width:1;"/><text fill="#808080" font-family="sans-serif" font-size="14" lengthAdjust="spacing" textLength="108.3036" x="292.55" y="398.3619">year() : Integer [1]</text><ellipse cx="283.55" cy="411.2999" fill="#84BE84" rx="3" ry="3" style="stroke:#038048;stroke-width:1;"/><text fill="#808080" font-family="sans-serif" font-size="14" lengthAdjust="spacing" textLength="123.0175" x="292.55" y="415.1619">month() : Integer [1]</text><ellipse cx="283.55" cy="428.0998" fill="#84BE84" rx="3" ry="3" style="stroke:#038048;stroke-width:1;"/><text fill="#808080" font-family="sans-serif" font-size="14" lengthAdjust="spacing" textLength="103.6136" x="292.55" y="431.9618">day() : Integer [1]</text><ellipse cx="283.55" cy="444.8997" fill="#84BE84" rx="3" ry="3" style="stroke:#038048;stroke-width:1;"/><text fill="#808080" font-family="sans-serif" font-size="14" lengthAdjust="spacing" textLength="110.7116" x="292.55" y="448.7617">hour() : Integer [1]</text><ellipse cx="283.55" cy="461.6997" fill="#84BE84" rx="3" ry="3" style="stroke:#038048;stroke-width:1;"/><text fill="#808080" font-family="sans-serif" font-size="14" lengthAdjust="spacing" textLength="125.7895" x="292.55" y="465.5616">minute() : Integer [1]</text><ellipse cx="283.55" cy="478.4996" fill="#84BE84" rx="3" ry="3" style="stroke:#038048;stroke-width:1;"/><text fill="#808080" font-family="sans-serif" font-size="14" lengthAdjust="spacing" textLength="126.0275" x="292.55" y="482.3616">second() : Integer [1]</text><ellipse cx="283.55" cy="495.2995" fill="#84BE84" rx="3" ry="3" style="stroke:#038048;stroke-width:1;"/><text fill="#808080" font-family="sans-serif" font-size="14" lengthAdjust="spacing" textLength="174.5653" x="292.55" y="499.1615">fractional_second() : Real [1]</text><ellipse cx="283.55" cy="512.0995" fill="#84BE84" rx="3" ry="3" style="stroke:#038048;stroke-width:1;"/><text fill="#808080" font-family="sans-serif" font-size="14" lengthAdjust="spacing" textLength="159.6974" x="292.55" y="515.9614">timezone() : ITimezone [1]</text></g><!--class Temporal--><g class="entity" data-entity="Temporal" data-source-line="41" data-uid="ent0008" id="entity_Temporal"><rect fill="#F5F5F5" height="48" rx="2.5" ry="2.5" style="stroke:#808080;stroke-width:1;stroke-dasharray:1,3;" width="91.9898" x="326.83" y="232.6"/><ellipse cx="341.83" cy="248.6" fill="#A9DCDF" rx="11" ry="11" style="stroke:#181818;stroke-width:1;"/><path d="M336.3456,254.1 L338.3769,254.1 L342.4238,242.7562 L341.5175,242.7562 L345.3456,254.1 L347.4863,254.1 L343.1581,241.7719 L340.9394,241.7719 L336.3456,254.1 Z M338.6738,250.6 L345.1113,250.6 L345.1113,248.85 L338.6738,248.85 L338.6738,250.6 Z " fill="#000000"/><text fill="#808080" font-family="sans-serif" font-size="14" font-style="italic" lengthAdjust="spacing" textLength="59.9898" x="355.83" y="253.962">Temporal</text><line style="stroke:#808080;stroke-width:1;stroke-dasharray:1,3;" x1="327.83" x2="417.8198" y1="264.6" y2="264.6"/><line style="stroke:#808080;stroke-width:1;stroke-dasharray:1,3;" x1="327.83" x2="417.8198" y1="272.6" y2="272.6"/></g><!--class Time_Definitions--><g class="entity" data-entity="Time_Definitions" data-source-line="50" data-uid="ent0010" id="entity_Time_Definitions"><rect fill="#F5F5F5" height="165.5995" rx="2.5" ry="2.5" style="stroke:#808080;stroke-width:1;stroke-dasharray:1,3;" width="445.5084" x="314.07" y="7"/><ellipse cx="479.5914" cy="23" fill="#ADD1B2" rx="11" ry="11" style="stroke:#181818;stroke-width:1;"/><path d="M479.5914,29.4219 C480.7633,29.4219 481.9977,29.1563 483.3727,28.5469 L482.8883,27.0313 C481.7945,27.4531 480.7789,27.6406 479.9195,27.6406 C477.2008,27.6406 475.482,25.7969 475.482,22.8906 C475.482,20.1406 477.0445,18.5469 479.7789,18.5469 C480.7008,18.5469 481.7164,18.7344 482.857,19.1563 L483.4352,17.6406 C482.3414,17.0625 481.0445,16.7656 479.857,16.7656 C476.0914,16.7656 473.5133,19.4063 473.5133,23.2188 C473.5133,26.8906 475.9977,29.4219 479.5914,29.4219 Z " fill="#000000"/><text fill="#808080" font-family="sans-serif" font-size="14" lengthAdjust="spacing" textLength="105.9656" x="500.0914" y="28.362">Time_Definitions</text><line style="stroke:#808080;stroke-width:1;stroke-dasharray:1,3;" x1="315.07" x2="758.5784" y1="39" y2="39"/><line style="stroke:#808080;stroke-width:1;stroke-dasharray:1,3;" x1="315.07" x2="758.5784" y1="47" y2="47"/><ellipse cx="325.07" cy="60.9" fill="#84BE84" rx="3" ry="3" style="stroke:#038048;stroke-width:1;"/><text fill="#808080" font-family="sans-serif" font-size="14" lengthAdjust="spacing" textLength="237.0191" x="334.07" y="64.7619">valid_year( y : Integer [1] ) : Boolean [1]</text><ellipse cx="325.07" cy="77.6999" fill="#84BE84" rx="3" ry="3" style="stroke:#038048;stroke-width:1;"/><text fill="#808080" font-family="sans-serif" font-size="14" lengthAdjust="spacing" textLength="257.417" x="334.07" y="81.5619">valid_month( m : Integer [1] ) : Boolean [1]</text><ellipse cx="325.07" cy="94.4998" fill="#84BE84" rx="3" ry="3" style="stroke:#038048;stroke-width:1;"/><text fill="#808080" font-family="sans-serif" font-size="14" lengthAdjust="spacing" textLength="412.6764" x="334.07" y="98.3618">valid_day( y : Integer [1], m : Integer [1], d : Integer [1] ) : Boolean [1]</text><ellipse cx="325.07" cy="111.2997" fill="#84BE84" rx="3" ry="3" style="stroke:#038048;stroke-width:1;"/><text fill="#808080" font-family="sans-serif" font-size="14" lengthAdjust="spacing" textLength="419.5084" x="334.07" y="115.1617">valid_hour( h : Integer [1], m : Integer [1], s : Integer [1] ) : Boolean [1]</text><ellipse cx="325.07" cy="128.0997" fill="#84BE84" rx="3" ry="3" style="stroke:#038048;stroke-width:1;"/><text fill="#808080" font-family="sans-serif" font-size="14" lengthAdjust="spacing" textLength="260.189" x="334.07" y="131.9616">valid_minute( m : Integer [1] ) : Boolean [1]</text><ellipse cx="325.07" cy="144.8996" fill="#84BE84" rx="3" ry="3" style="stroke:#038048;stroke-width:1;"/><text fill="#808080" font-family="sans-serif" font-size="14" lengthAdjust="spacing" textLength="254.519" x="334.07" y="148.7616">valid_second( s : Integer [1] ) : Boolean [1]</text><ellipse cx="325.07" cy="161.6995" fill="#84BE84" rx="3" ry="3" style="stroke:#038048;stroke-width:1;"/><text fill="#808080" font-family="sans-serif" font-size="14" lengthAdjust="spacing" textLength="325.6528" x="334.07" y="165.5615">valid_fractional_second( fs : Double [1] ) : Boolean [1]</text></g><!--reverse link Ordered to Iso8601_type--><g class="link" data-entity-1="Ordered" data-entity-2="Iso8601_type" data-source-line="26" data-uid="lnk5" id="link_Ordered_Iso8601_type"><path codeLine="26" d="M142.83,148.8 C142.83,211.47 142.83,314.6 142.83,382.2" fill="none" id="Ordered-backto-Iso8601_type" style="stroke:#181818;stroke-width:1;"/><polygon fill="none" points="142.83,130.8,136.83,148.8,148.83,148.8,142.83,130.8" style="stroke:#181818;stroke-width:1;"/></g><!--reverse link Iso8601_type to Iso8601_date_time--><g class="link" data-entity-1="Iso8601_type" data-entity-2="Iso8601_date_time" data-source-line="28" data-uid="lnk6" id="link_Iso8601_type_Iso8601_date_time"><path codeLine="28" d="M170.9421,497.7281 C183.2821,526.2281 192.31,547.07 207.75,582.75" fill="none" id="Iso8601_type-backto-Iso8601_date_time" style="stroke:#181818;stroke-width:1;"/><polygon fill="none" points="163.79,481.21,165.436,500.1121,176.4481,495.3441,163.79,481.21" style="stroke:#181818;stroke-width:1;"/></g><!--reverse link Ordered to Temporal--><g class="link" data-entity-1="Ordered" data-entity-2="Temporal" data-source-line="48" data-uid="lnk9" id="link_Ordered_Temporal"><path codeLine="48" d="M213.4329,141.3923 C257.7129,173.1123 303.38,205.84 340.12,232.17" fill="none" id="Ordered-backto-Temporal" style="stroke:#181818;stroke-width:1;"/><polygon fill="none" points="198.8,130.91,209.9388,146.2699,216.927,136.5147,198.8,130.91" style="stroke:#181818;stroke-width:1;"/></g><!--reverse link Time_Definitions to Temporal--><g class="link" data-entity-1="Time_Definitions" data-entity-2="Temporal" data-source-line="60" data-uid="lnk11" id="link_Time_Definitions_Temporal"><path codeLine="60" d="M442.6114,185.4771 C420.9014,207.2871 411.85,216.39 396.14,232.17" fill="none" id="Time_Definitions-backto-Temporal" style="stroke:#181818;stroke-width:1;"/><polygon fill="none" points="455.31,172.72,438.359,181.2443,446.8637,189.71,455.31,172.72" style="stroke:#181818;stroke-width:1;"/></g><!--reverse link Temporal to IDate_time--><g class="link" data-entity-1="Temporal" data-entity-2="IDate_time" data-source-line="62" data-uid="lnk12" id="link_Temporal_IDate_time"><path codeLine="62" d="M372.83,298.96 C372.83,314.56 372.83,318.19 372.83,340.17" fill="none" id="Temporal-backto-IDate_time" style="stroke:#181818;stroke-width:1;"/><polygon fill="none" points="372.83,280.96,366.83,298.96,378.83,298.96,372.83,280.96" style="stroke:#181818;stroke-width:1;"/></g><!--reverse link IDate_time to Iso8601_date_time--><g class="link" data-entity-1="IDate_time" data-entity-2="Iso8601_date_time" data-source-line="64" data-uid="lnk13" id="link_IDate_time_Iso8601_date_time"><path codeLine="64" d="M326.4221,539.9799 C318.1621,559.0699 316.49,562.93 307.89,582.79" fill="none" id="IDate_time-backto-Iso8601_date_time" style="stroke:#181818;stroke-width:1;"/><polygon fill="none" points="333.57,523.46,320.9154,537.5972,331.9287,542.3625,333.57,523.46" style="stroke:#181818;stroke-width:1;"/></g></g></svg>
