<svg xmlns="http://www.w3.org/2000/svg" xmlns:xlink="http://www.w3.org/1999/xlink" contentStyleType="text/css" data-diagram-type="CLASS" height="237px" preserveAspectRatio="none" style="width:285px;height:237px;background:#FFFFFF;" version="1.1" viewBox="0 0 285 237" width="285px" zoomAndPan="magnify"><defs/><g><!--class Iso8601_type--><g class="entity" data-entity="Iso8601_type" data-source-line="2" data-uid="ent0002" id="entity_Iso8601_type"><rect fill="#F1F1F1" height="98.3998" rx="2.5" ry="2.5" style="stroke:#181818;stroke-width:0.5;" width="188.6934" x="48.48" y="131.8"/><ellipse cx="97.0108" cy="147.8" fill="#A9DCDF" rx="11" ry="11" style="stroke:#181818;stroke-width:1;"/><path d="M91.5265,153.3 L93.5577,153.3 L97.6046,141.9562 L96.6983,141.9562 L100.5265,153.3 L102.6671,153.3 L98.339,140.9719 L96.1202,140.9719 L91.5265,153.3 Z M93.8546,149.8 L100.2921,149.8 L100.2921,148.05 L93.8546,148.05 L93.8546,149.8 Z " fill="#000000"/><text fill="#000000" font-family="sans-serif" font-size="14" font-style="italic" lengthAdjust="spacing" textLength="83.1317" x="117.5108" y="153.162">Iso8601_type</text><line style="stroke:#181818;stroke-width:0.5;" x1="49.48" x2="236.1734" y1="163.8" y2="163.8"/><ellipse cx="59.48" cy="177.7" fill="none" rx="3" ry="3" style="stroke:#038048;stroke-width:1;"/><text fill="#000000" font-family="sans-serif" font-size="14" lengthAdjust="spacing" textLength="98.9656" x="68.48" y="181.5619">value : String [1]</text><line style="stroke:#181818;stroke-width:0.5;" x1="49.48" x2="236.1734" y1="188.5999" y2="188.5999"/><ellipse cx="59.48" cy="202.4999" fill="#84BE84" rx="3" ry="3" style="stroke:#038048;stroke-width:1;"/><text fill="#000000" font-family="sans-serif" font-size="14" font-style="italic" lengthAdjust="spacing" textLength="144.9974" x="68.48" y="206.3619">is_partial() : Boolean [1]</text><ellipse cx="59.48" cy="219.2998" fill="#84BE84" rx="3" ry="3" style="stroke:#038048;stroke-width:1;"/><text fill="#000000" font-family="sans-serif" font-size="14" font-style="italic" lengthAdjust="spacing" textLength="162.6934" x="68.48" y="223.1618">is_extended() : Boolean [1]</text></g><!--class Ordered--><g class="entity" data-entity="Ordered" data-source-line="8" data-uid="ent0003" id="entity_Ordered"><rect fill="#F5F5F5" height="64.7999" rx="2.5" ry="2.5" style="stroke:#808080;stroke-width:1;stroke-dasharray:1,3;" width="271.657" x="7" y="7"/><ellipse cx="112.6086" cy="23" fill="#A9DCDF" rx="11" ry="11" style="stroke:#181818;stroke-width:1;"/><path d="M107.1243,28.5 L109.1555,28.5 L113.2024,17.1563 L112.2961,17.1563 L116.1243,28.5 L118.2649,28.5 L113.9368,16.1719 L111.718,16.1719 L107.1243,28.5 Z M109.4524,25 L115.8899,25 L115.8899,23.25 L109.4524,23.25 L109.4524,25 Z " fill="#000000"/><text fill="#808080" font-family="sans-serif" font-size="14" font-style="italic" lengthAdjust="spacing" textLength="51.9398" x="133.1086" y="28.362">Ordered</text><line style="stroke:#808080;stroke-width:1;stroke-dasharray:1,3;" x1="8" x2="277.657" y1="39" y2="39"/><line style="stroke:#808080;stroke-width:1;stroke-dasharray:1,3;" x1="8" x2="277.657" y1="47" y2="47"/><ellipse cx="18" cy="60.9" fill="#84BE84" rx="3" ry="3" style="stroke:#038048;stroke-width:1;"/><text fill="#808080" font-family="sans-serif" font-size="14" font-style="italic" lengthAdjust="spacing" textLength="245.657" x="27" y="64.7619">infix &lt;( other : Ordered [1] ) : Boolean [1]</text></g><!--reverse link Ordered to Iso8601_type--><g class="link" data-entity-1="Ordered" data-entity-2="Iso8601_type" data-source-line="12" data-uid="lnk4" id="link_Ordered_Iso8601_type"><path codeLine="12" d="M142.83,90.08 C142.83,107.61 142.83,111.78 142.83,131.46" fill="none" id="Ordered-backto-Iso8601_type" style="stroke:#181818;stroke-width:1;"/><polygon fill="none" points="142.83,72.08,136.83,90.08,148.83,90.08,142.83,72.08" style="stroke:#181818;stroke-width:1;"/></g></g></svg>
