<svg xmlns="http://www.w3.org/2000/svg" xmlns:xlink="http://www.w3.org/1999/xlink" contentStyleType="text/css" data-diagram-type="CLASS" height="738px" preserveAspectRatio="none" style="width:766px;height:738px;background:#FFFFFF;" version="1.1" viewBox="0 0 766 738" width="766px" zoomAndPan="magnify"><defs/><g><!--class Iso8601_time--><g class="entity" data-entity="Iso8601_time" data-source-line="2" data-uid="ent0002" id="entity_Iso8601_time"><rect fill="#F1F1F1" height="199.1993" rx="2.5" ry="2.5" style="stroke:#181818;stroke-width:0.5;" width="266.127" x="124.76" y="532.6"/><ellipse cx="211.4407" cy="548.6" fill="#ADD1B2" rx="11" ry="11" style="stroke:#181818;stroke-width:1;"/><path d="M211.4407,555.0219 C212.6126,555.0219 213.8469,554.7562 215.2219,554.1469 L214.7376,552.6312 C213.6438,553.0531 212.6282,553.2406 211.7688,553.2406 C209.0501,553.2406 207.3313,551.3969 207.3313,548.4906 C207.3313,545.7406 208.8938,544.1469 211.6282,544.1469 C212.5501,544.1469 213.5657,544.3344 214.7063,544.7562 L215.2844,543.2406 C214.1907,542.6625 212.8938,542.3656 211.7063,542.3656 C207.9407,542.3656 205.3626,545.0062 205.3626,548.8187 C205.3626,552.4906 207.8469,555.0219 211.4407,555.0219 Z " fill="#000000"/><text fill="#000000" font-family="sans-serif" font-size="14" lengthAdjust="spacing" textLength="84.2657" x="231.9407" y="553.962">Iso8601_time</text><line style="stroke:#181818;stroke-width:0.5;" x1="125.76" x2="389.887" y1="564.6" y2="564.6"/><line style="stroke:#181818;stroke-width:0.5;" x1="125.76" x2="389.887" y1="572.6" y2="572.6"/><ellipse cx="135.76" cy="586.5" fill="#84BE84" rx="3" ry="3" style="stroke:#038048;stroke-width:1;"/><text fill="#000000" font-family="sans-serif" font-size="14" lengthAdjust="spacing" textLength="196.6012" x="144.76" y="590.3619">minute_unknown() : Boolean [1]</text><ellipse cx="135.76" cy="603.2999" fill="#84BE84" rx="3" ry="3" style="stroke:#038048;stroke-width:1;"/><text fill="#000000" font-family="sans-serif" font-size="14" lengthAdjust="spacing" textLength="196.8392" x="144.76" y="607.1619">second_unknown() : Boolean [1]</text><ellipse cx="135.76" cy="620.0998" fill="#84BE84" rx="3" ry="3" style="stroke:#038048;stroke-width:1;"/><text fill="#000000" font-family="sans-serif" font-size="14" lengthAdjust="spacing" textLength="240.127" x="144.76" y="623.9618">is_decimal_sign_comma() : Boolean [1]</text><ellipse cx="135.76" cy="636.8997" fill="#84BE84" rx="3" ry="3" style="stroke:#038048;stroke-width:1;"/><text fill="#000000" font-family="sans-serif" font-size="14" lengthAdjust="spacing" textLength="208.2352" x="144.76" y="640.7617">valid_iso8601_time() : Boolean [1]</text><ellipse cx="135.76" cy="653.6997" fill="#84BE84" rx="3" ry="3" style="stroke:#038048;stroke-width:1;"/><text fill="#000000" font-family="sans-serif" font-size="14" lengthAdjust="spacing" textLength="144.9974" x="144.76" y="657.5616">is_partial() : Boolean [1]</text><ellipse cx="135.76" cy="670.4996" fill="#84BE84" rx="3" ry="3" style="stroke:#038048;stroke-width:1;"/><text fill="#000000" font-family="sans-serif" font-size="14" lengthAdjust="spacing" textLength="162.6934" x="144.76" y="674.3616">is_extended() : Boolean [1]</text><ellipse cx="135.76" cy="687.2995" fill="#84BE84" rx="3" ry="3" style="stroke:#038048;stroke-width:1;"/><text fill="#000000" font-family="sans-serif" font-size="14" lengthAdjust="spacing" textLength="131.2635" x="144.76" y="691.1615">as_string() : String [1]</text><ellipse cx="135.76" cy="704.0995" fill="#84BE84" rx="3" ry="3" style="stroke:#038048;stroke-width:1;"/><text fill="#000000" font-family="sans-serif" font-size="14" lengthAdjust="spacing" textLength="227.1211" x="144.76" y="707.9614">has_fractional_second() : Boolean [1]</text><ellipse cx="135.76" cy="720.8994" fill="#84BE84" rx="3" ry="3" style="stroke:#038048;stroke-width:1;"/><text fill="#000000" font-family="sans-serif" font-size="14" lengthAdjust="spacing" textLength="117.0955" x="144.76" y="724.7614">as_time() : Time [1]</text></g><!--class Iso8601_type--><g class="entity" data-entity="Iso8601_type" data-source-line="14" data-uid="ent0003" id="entity_Iso8601_type"><rect fill="#F5F5F5" height="98.3998" rx="2.5" ry="2.5" style="stroke:#808080;stroke-width:1;stroke-dasharray:1,3;" width="188.6934" x="48.48" y="357.4"/><ellipse cx="97.0108" cy="373.4" fill="#A9DCDF" rx="11" ry="11" style="stroke:#181818;stroke-width:1;"/><path d="M91.5265,378.9 L93.5577,378.9 L97.6046,367.5563 L96.6983,367.5563 L100.5265,378.9 L102.6671,378.9 L98.339,366.5719 L96.1202,366.5719 L91.5265,378.9 Z M93.8546,375.4 L100.2921,375.4 L100.2921,373.65 L93.8546,373.65 L93.8546,375.4 Z " fill="#000000"/><text fill="#808080" font-family="sans-serif" font-size="14" font-style="italic" lengthAdjust="spacing" textLength="83.1317" x="117.5108" y="378.762">Iso8601_type</text><line style="stroke:#808080;stroke-width:1;stroke-dasharray:1,3;" x1="49.48" x2="236.1734" y1="389.4" y2="389.4"/><ellipse cx="59.48" cy="403.3" fill="none" rx="3" ry="3" style="stroke:#038048;stroke-width:1;"/><text fill="#808080" font-family="sans-serif" font-size="14" lengthAdjust="spacing" textLength="98.9656" x="68.48" y="407.1619">value : String [1]</text><line style="stroke:#808080;stroke-width:1;stroke-dasharray:1,3;" x1="49.48" x2="236.1734" y1="414.1999" y2="414.1999"/><ellipse cx="59.48" cy="428.0999" fill="#84BE84" rx="3" ry="3" style="stroke:#038048;stroke-width:1;"/><text fill="#808080" font-family="sans-serif" font-size="14" font-style="italic" lengthAdjust="spacing" textLength="144.9974" x="68.48" y="431.9619">is_partial() : Boolean [1]</text><ellipse cx="59.48" cy="444.8998" fill="#84BE84" rx="3" ry="3" style="stroke:#038048;stroke-width:1;"/><text fill="#808080" font-family="sans-serif" font-size="14" font-style="italic" lengthAdjust="spacing" textLength="162.6934" x="68.48" y="448.7618">is_extended() : Boolean [1]</text></g><!--class Ordered--><g class="entity" data-entity="Ordered" data-source-line="20" data-uid="ent0004" id="entity_Ordered"><rect fill="#F5F5F5" height="81.5999" rx="2.5" ry="2.5" style="stroke:#808080;stroke-width:1;stroke-dasharray:1,3;" width="271.657" x="7" y="49"/><ellipse cx="112.6086" cy="65" fill="#A9DCDF" rx="11" ry="11" style="stroke:#181818;stroke-width:1;"/><path d="M107.1243,70.5 L109.1555,70.5 L113.2024,59.1563 L112.2961,59.1563 L116.1243,70.5 L118.2649,70.5 L113.9368,58.1719 L111.718,58.1719 L107.1243,70.5 Z M109.4524,67 L115.8899,67 L115.8899,65.25 L109.4524,65.25 L109.4524,67 Z " fill="#000000"/><text fill="#808080" font-family="sans-serif" font-size="14" font-style="italic" lengthAdjust="spacing" textLength="51.9398" x="133.1086" y="70.362">Ordered</text><line style="stroke:#808080;stroke-width:1;stroke-dasharray:1,3;" x1="8" x2="277.657" y1="81" y2="81"/><line style="stroke:#808080;stroke-width:1;stroke-dasharray:1,3;" x1="8" x2="277.657" y1="89" y2="89"/><ellipse cx="18" cy="102.9" fill="#84BE84" rx="3" ry="3" style="stroke:#038048;stroke-width:1;"/><text fill="#808080" font-family="sans-serif" font-size="14" font-style="italic" lengthAdjust="spacing" textLength="245.657" x="27" y="106.7619">infix &lt;( other : Ordered [1] ) : Boolean [1]</text><ellipse cx="18" cy="119.6999" fill="#84BE84" rx="3" ry="3" style="stroke:#038048;stroke-width:1;"/><text fill="#808080" font-family="sans-serif" font-size="14" font-style="italic" lengthAdjust="spacing" textLength="245.657" x="27" y="123.5619">infix &lt;( other : Ordered [1] ) : Boolean [1]</text></g><!--class ITime--><g class="entity" data-entity="ITime" data-source-line="28" data-uid="ent0007" id="entity_ITime"><rect fill="#F5F5F5" height="131.9996" rx="2.5" ry="2.5" style="stroke:#808080;stroke-width:1;stroke-dasharray:1,3;" width="201.4613" x="272.1" y="340.6"/><ellipse cx="351.1297" cy="356.6" fill="#A9DCDF" rx="11" ry="11" style="stroke:#181818;stroke-width:1;"/><path d="M345.6453,362.1 L347.6766,362.1 L351.7235,350.7562 L350.8172,350.7562 L354.6453,362.1 L356.786,362.1 L352.4578,349.7719 L350.2391,349.7719 L345.6453,362.1 Z M347.9735,358.6 L354.411,358.6 L354.411,356.85 L347.9735,356.85 L347.9735,358.6 Z " fill="#000000"/><text fill="#808080" font-family="sans-serif" font-size="14" font-style="italic" lengthAdjust="spacing" textLength="34.9019" x="371.6297" y="361.962">ITime</text><line style="stroke:#808080;stroke-width:1;stroke-dasharray:1,3;" x1="273.1" x2="472.5613" y1="372.6" y2="372.6"/><line style="stroke:#808080;stroke-width:1;stroke-dasharray:1,3;" x1="273.1" x2="472.5613" y1="380.6" y2="380.6"/><ellipse cx="283.1" cy="394.5" fill="#84BE84" rx="3" ry="3" style="stroke:#038048;stroke-width:1;"/><text fill="#808080" font-family="sans-serif" font-size="14" lengthAdjust="spacing" textLength="110.7116" x="292.1" y="398.3619">hour() : Integer [1]</text><ellipse cx="283.1" cy="411.2999" fill="#84BE84" rx="3" ry="3" style="stroke:#038048;stroke-width:1;"/><text fill="#808080" font-family="sans-serif" font-size="14" lengthAdjust="spacing" textLength="125.7895" x="292.1" y="415.1619">minute() : Integer [1]</text><ellipse cx="283.1" cy="428.0998" fill="#84BE84" rx="3" ry="3" style="stroke:#038048;stroke-width:1;"/><text fill="#808080" font-family="sans-serif" font-size="14" lengthAdjust="spacing" textLength="126.0275" x="292.1" y="431.9618">second() : Integer [1]</text><ellipse cx="283.1" cy="444.8997" fill="#84BE84" rx="3" ry="3" style="stroke:#038048;stroke-width:1;"/><text fill="#808080" font-family="sans-serif" font-size="14" lengthAdjust="spacing" textLength="174.5653" x="292.1" y="448.7617">fractional_second() : Real [1]</text><ellipse cx="283.1" cy="461.6997" fill="#84BE84" rx="3" ry="3" style="stroke:#038048;stroke-width:1;"/><text fill="#808080" font-family="sans-serif" font-size="14" lengthAdjust="spacing" textLength="175.4613" x="292.1" y="465.5616">timezone() : ITimezone [0..1]</text></g><!--class Temporal--><g class="entity" data-entity="Temporal" data-source-line="36" data-uid="ent0008" id="entity_Temporal"><rect fill="#F5F5F5" height="48" rx="2.5" ry="2.5" style="stroke:#808080;stroke-width:1;stroke-dasharray:1,3;" width="91.9898" x="326.83" y="232.6"/><ellipse cx="341.83" cy="248.6" fill="#A9DCDF" rx="11" ry="11" style="stroke:#181818;stroke-width:1;"/><path d="M336.3456,254.1 L338.3769,254.1 L342.4238,242.7562 L341.5175,242.7562 L345.3456,254.1 L347.4863,254.1 L343.1581,241.7719 L340.9394,241.7719 L336.3456,254.1 Z M338.6738,250.6 L345.1113,250.6 L345.1113,248.85 L338.6738,248.85 L338.6738,250.6 Z " fill="#000000"/><text fill="#808080" font-family="sans-serif" font-size="14" font-style="italic" lengthAdjust="spacing" textLength="59.9898" x="355.83" y="253.962">Temporal</text><line style="stroke:#808080;stroke-width:1;stroke-dasharray:1,3;" x1="327.83" x2="417.8198" y1="264.6" y2="264.6"/><line style="stroke:#808080;stroke-width:1;stroke-dasharray:1,3;" x1="327.83" x2="417.8198" y1="272.6" y2="272.6"/></g><!--class Time_Definitions--><g class="entity" data-entity="Time_Definitions" data-source-line="45" data-uid="ent0010" id="entity_Time_Definitions"><rect fill="#F5F5F5" height="165.5995" rx="2.5" ry="2.5" style="stroke:#808080;stroke-width:1;stroke-dasharray:1,3;" width="445.5084" x="314.07" y="7"/><ellipse cx="479.5914" cy="23" fill="#ADD1B2" rx="11" ry="11" style="stroke:#181818;stroke-width:1;"/><path d="M479.5914,29.4219 C480.7633,29.4219 481.9977,29.1563 483.3727,28.5469 L482.8883,27.0313 C481.7945,27.4531 480.7789,27.6406 479.9195,27.6406 C477.2008,27.6406 475.482,25.7969 475.482,22.8906 C475.482,20.1406 477.0445,18.5469 479.7789,18.5469 C480.7008,18.5469 481.7164,18.7344 482.857,19.1563 L483.4352,17.6406 C482.3414,17.0625 481.0445,16.7656 479.857,16.7656 C476.0914,16.7656 473.5133,19.4063 473.5133,23.2188 C473.5133,26.8906 475.9977,29.4219 479.5914,29.4219 Z " fill="#000000"/><text fill="#808080" font-family="sans-serif" font-size="14" lengthAdjust="spacing" textLength="105.9656" x="500.0914" y="28.362">Time_Definitions</text><line style="stroke:#808080;stroke-width:1;stroke-dasharray:1,3;" x1="315.07" x2="758.5784" y1="39" y2="39"/><line style="stroke:#808080;stroke-width:1;stroke-dasharray:1,3;" x1="315.07" x2="758.5784" y1="47" y2="47"/><ellipse cx="325.07" cy="60.9" fill="#84BE84" rx="3" ry="3" style="stroke:#038048;stroke-width:1;"/><text fill="#808080" font-family="sans-serif" font-size="14" lengthAdjust="spacing" textLength="237.0191" x="334.07" y="64.7619">valid_year( y : Integer [1] ) : Boolean [1]</text><ellipse cx="325.07" cy="77.6999" fill="#84BE84" rx="3" ry="3" style="stroke:#038048;stroke-width:1;"/><text fill="#808080" font-family="sans-serif" font-size="14" lengthAdjust="spacing" textLength="257.417" x="334.07" y="81.5619">valid_month( m : Integer [1] ) : Boolean [1]</text><ellipse cx="325.07" cy="94.4998" fill="#84BE84" rx="3" ry="3" style="stroke:#038048;stroke-width:1;"/><text fill="#808080" font-family="sans-serif" font-size="14" lengthAdjust="spacing" textLength="412.6764" x="334.07" y="98.3618">valid_day( y : Integer [1], m : Integer [1], d : Integer [1] ) : Boolean [1]</text><ellipse cx="325.07" cy="111.2997" fill="#84BE84" rx="3" ry="3" style="stroke:#038048;stroke-width:1;"/><text fill="#808080" font-family="sans-serif" font-size="14" lengthAdjust="spacing" textLength="419.5084" x="334.07" y="115.1617">valid_hour( h : Integer [1], m : Integer [1], s : Integer [1] ) : Boolean [1]</text><ellipse cx="325.07" cy="128.0997" fill="#84BE84" rx="3" ry="3" style="stroke:#038048;stroke-width:1;"/><text fill="#808080" font-family="sans-serif" font-size="14" lengthAdjust="spacing" textLength="260.189" x="334.07" y="131.9616">valid_minute( m : Integer [1] ) : Boolean [1]</text><ellipse cx="325.07" cy="144.8996" fill="#84BE84" rx="3" ry="3" style="stroke:#038048;stroke-width:1;"/><text fill="#808080" font-family="sans-serif" font-size="14" lengthAdjust="spacing" textLength="254.519" x="334.07" y="148.7616">valid_second( s : Integer [1] ) : Boolean [1]</text><ellipse cx="325.07" cy="161.6995" fill="#84BE84" rx="3" ry="3" style="stroke:#038048;stroke-width:1;"/><text fill="#808080" font-family="sans-serif" font-size="14" lengthAdjust="spacing" textLength="325.6528" x="334.07" y="165.5615">valid_fractional_second( fs : Double [1] ) : Boolean [1]</text></g><!--reverse link Ordered to Iso8601_type--><g class="link" data-entity-1="Ordered" data-entity-2="Iso8601_type" data-source-line="24" data-uid="lnk5" id="link_Ordered_Iso8601_type"><path codeLine="24" d="M142.83,148.99 C142.83,206.76 142.83,295.11 142.83,357.15" fill="none" id="Ordered-backto-Iso8601_type" style="stroke:#181818;stroke-width:1;"/><polygon fill="none" points="142.83,130.99,136.83,148.99,148.83,148.99,142.83,130.99" style="stroke:#181818;stroke-width:1;"/></g><!--reverse link Iso8601_type to Iso8601_time--><g class="link" data-entity-1="Iso8601_type" data-entity-2="Iso8601_time" data-source-line="26" data-uid="lnk6" id="link_Iso8601_type_Iso8601_time"><path codeLine="26" d="M176.0155,472.1255 C187.5155,494.4755 193.36,505.85 206.94,532.26" fill="none" id="Iso8601_type-backto-Iso8601_time" style="stroke:#181818;stroke-width:1;"/><polygon fill="none" points="167.78,456.12,170.6803,474.8707,181.3507,469.3803,167.78,456.12" style="stroke:#181818;stroke-width:1;"/></g><!--reverse link Ordered to Temporal--><g class="link" data-entity-1="Ordered" data-entity-2="Temporal" data-source-line="43" data-uid="lnk9" id="link_Ordered_Temporal"><path codeLine="43" d="M213.4329,141.3923 C257.7129,173.1123 303.38,205.84 340.12,232.17" fill="none" id="Ordered-backto-Temporal" style="stroke:#181818;stroke-width:1;"/><polygon fill="none" points="198.8,130.91,209.9388,146.2699,216.927,136.5147,198.8,130.91" style="stroke:#181818;stroke-width:1;"/></g><!--reverse link Time_Definitions to Temporal--><g class="link" data-entity-1="Time_Definitions" data-entity-2="Temporal" data-source-line="55" data-uid="lnk11" id="link_Time_Definitions_Temporal"><path codeLine="55" d="M442.6114,185.4771 C420.9014,207.2871 411.85,216.39 396.14,232.17" fill="none" id="Time_Definitions-backto-Temporal" style="stroke:#181818;stroke-width:1;"/><polygon fill="none" points="455.31,172.72,438.359,181.2443,446.8637,189.71,455.31,172.72" style="stroke:#181818;stroke-width:1;"/></g><!--reverse link Temporal to ITime--><g class="link" data-entity-1="Temporal" data-entity-2="ITime" data-source-line="57" data-uid="lnk12" id="link_Temporal_ITime"><path codeLine="57" d="M372.83,299.05 C372.83,315.11 372.83,319.25 372.83,340.41" fill="none" id="Temporal-backto-ITime" style="stroke:#181818;stroke-width:1;"/><polygon fill="none" points="372.83,281.05,366.83,299.05,378.83,299.05,372.83,281.05" style="stroke:#181818;stroke-width:1;"/></g><!--reverse link ITime to Iso8601_time--><g class="link" data-entity-1="ITime" data-entity-2="Iso8601_time" data-source-line="59" data-uid="lnk13" id="link_ITime_Iso8601_time"><path codeLine="59" d="M331.0244,488.8855 C321.4744,507.4455 319.09,512.08 308.76,532.17" fill="none" id="ITime-backto-Iso8601_time" style="stroke:#181818;stroke-width:1;"/><polygon fill="none" points="339.26,472.88,325.6893,486.1403,336.3596,491.6307,339.26,472.88" style="stroke:#181818;stroke-width:1;"/></g></g></svg>
