<svg xmlns="http://www.w3.org/2000/svg" xmlns:xlink="http://www.w3.org/1999/xlink" contentStyleType="text/css" data-diagram-type="CLASS" height="654px" preserveAspectRatio="none" style="width:766px;height:654px;background:#FFFFFF;" version="1.1" viewBox="0 0 766 654" width="766px" zoomAndPan="magnify"><defs/><g><!--class Iso8601_timezone--><g class="entity" data-entity="Iso8601_timezone" data-source-line="2" data-uid="ent0002" id="entity_Iso8601_timezone"><rect fill="#F1F1F1" height="148.7996" rx="2.5" ry="2.5" style="stroke:#181818;stroke-width:0.5;" width="222.6012" x="133.53" y="499"/><ellipse cx="183.5658" cy="515" fill="#ADD1B2" rx="11" ry="11" style="stroke:#181818;stroke-width:1;"/><path d="M183.5658,521.4219 C184.7377,521.4219 185.9721,521.1563 187.3471,520.5469 L186.8627,519.0313 C185.769,519.4531 184.7533,519.6406 183.894,519.6406 C181.1752,519.6406 179.4565,517.7969 179.4565,514.8906 C179.4565,512.1406 181.019,510.5469 183.7533,510.5469 C184.6752,510.5469 185.6908,510.7344 186.8315,511.1563 L187.4096,509.6406 C186.3158,509.0625 185.019,508.7656 183.8315,508.7656 C180.0658,508.7656 177.4877,511.4063 177.4877,515.2188 C177.4877,518.8906 179.9721,521.4219 183.5658,521.4219 Z " fill="#000000"/><text fill="#000000" font-family="sans-serif" font-size="14" lengthAdjust="spacing" textLength="114.0296" x="204.0658" y="520.362">Iso8601_timezone</text><line style="stroke:#181818;stroke-width:0.5;" x1="134.53" x2="355.1312" y1="531" y2="531"/><line style="stroke:#181818;stroke-width:0.5;" x1="134.53" x2="355.1312" y1="539" y2="539"/><ellipse cx="144.53" cy="552.9" fill="#84BE84" rx="3" ry="3" style="stroke:#038048;stroke-width:1;"/><text fill="#000000" font-family="sans-serif" font-size="14" lengthAdjust="spacing" textLength="196.6012" x="153.53" y="556.7619">minute_unknown() : Boolean [1]</text><ellipse cx="144.53" cy="569.6999" fill="#84BE84" rx="3" ry="3" style="stroke:#038048;stroke-width:1;"/><text fill="#000000" font-family="sans-serif" font-size="14" lengthAdjust="spacing" textLength="144.9974" x="153.53" y="573.5619">is_partial() : Boolean [1]</text><ellipse cx="144.53" cy="586.4998" fill="#84BE84" rx="3" ry="3" style="stroke:#038048;stroke-width:1;"/><text fill="#000000" font-family="sans-serif" font-size="14" lengthAdjust="spacing" textLength="162.6934" x="153.53" y="590.3618">is_extended() : Boolean [1]</text><ellipse cx="144.53" cy="603.2997" fill="#84BE84" rx="3" ry="3" style="stroke:#038048;stroke-width:1;"/><text fill="#000000" font-family="sans-serif" font-size="14" lengthAdjust="spacing" textLength="131.2635" x="153.53" y="607.1617">as_string() : String [1]</text><ellipse cx="144.53" cy="620.0997" fill="#84BE84" rx="3" ry="3" style="stroke:#038048;stroke-width:1;"/><text fill="#000000" font-family="sans-serif" font-size="14" lengthAdjust="spacing" textLength="130.4375" x="153.53" y="623.9616">is_gmt() : Boolean [1]</text><ellipse cx="144.53" cy="636.8996" fill="#84BE84" rx="3" ry="3" style="stroke:#038048;stroke-width:1;"/><text fill="#000000" font-family="sans-serif" font-size="14" lengthAdjust="spacing" textLength="176.6233" x="153.53" y="640.7616">as_timezone() : Timezone [1]</text></g><!--class Iso8601_type--><g class="entity" data-entity="Iso8601_type" data-source-line="11" data-uid="ent0003" id="entity_Iso8601_type"><rect fill="#F5F5F5" height="98.3998" rx="2.5" ry="2.5" style="stroke:#808080;stroke-width:1;stroke-dasharray:1,3;" width="188.6934" x="48.48" y="340.6"/><ellipse cx="97.0108" cy="356.6" fill="#A9DCDF" rx="11" ry="11" style="stroke:#181818;stroke-width:1;"/><path d="M91.5265,362.1 L93.5577,362.1 L97.6046,350.7562 L96.6983,350.7562 L100.5265,362.1 L102.6671,362.1 L98.339,349.7719 L96.1202,349.7719 L91.5265,362.1 Z M93.8546,358.6 L100.2921,358.6 L100.2921,356.85 L93.8546,356.85 L93.8546,358.6 Z " fill="#000000"/><text fill="#808080" font-family="sans-serif" font-size="14" font-style="italic" lengthAdjust="spacing" textLength="83.1317" x="117.5108" y="361.962">Iso8601_type</text><line style="stroke:#808080;stroke-width:1;stroke-dasharray:1,3;" x1="49.48" x2="236.1734" y1="372.6" y2="372.6"/><ellipse cx="59.48" cy="386.5" fill="none" rx="3" ry="3" style="stroke:#038048;stroke-width:1;"/><text fill="#808080" font-family="sans-serif" font-size="14" lengthAdjust="spacing" textLength="98.9656" x="68.48" y="390.3619">value : String [1]</text><line style="stroke:#808080;stroke-width:1;stroke-dasharray:1,3;" x1="49.48" x2="236.1734" y1="397.3999" y2="397.3999"/><ellipse cx="59.48" cy="411.2999" fill="#84BE84" rx="3" ry="3" style="stroke:#038048;stroke-width:1;"/><text fill="#808080" font-family="sans-serif" font-size="14" font-style="italic" lengthAdjust="spacing" textLength="144.9974" x="68.48" y="415.1619">is_partial() : Boolean [1]</text><ellipse cx="59.48" cy="428.0998" fill="#84BE84" rx="3" ry="3" style="stroke:#038048;stroke-width:1;"/><text fill="#808080" font-family="sans-serif" font-size="14" font-style="italic" lengthAdjust="spacing" textLength="162.6934" x="68.48" y="431.9618">is_extended() : Boolean [1]</text></g><!--class Ordered--><g class="entity" data-entity="Ordered" data-source-line="17" data-uid="ent0004" id="entity_Ordered"><rect fill="#F5F5F5" height="81.5999" rx="2.5" ry="2.5" style="stroke:#808080;stroke-width:1;stroke-dasharray:1,3;" width="271.657" x="7" y="49"/><ellipse cx="112.6086" cy="65" fill="#A9DCDF" rx="11" ry="11" style="stroke:#181818;stroke-width:1;"/><path d="M107.1243,70.5 L109.1555,70.5 L113.2024,59.1563 L112.2961,59.1563 L116.1243,70.5 L118.2649,70.5 L113.9368,58.1719 L111.718,58.1719 L107.1243,70.5 Z M109.4524,67 L115.8899,67 L115.8899,65.25 L109.4524,65.25 L109.4524,67 Z " fill="#000000"/><text fill="#808080" font-family="sans-serif" font-size="14" font-style="italic" lengthAdjust="spacing" textLength="51.9398" x="133.1086" y="70.362">Ordered</text><line style="stroke:#808080;stroke-width:1;stroke-dasharray:1,3;" x1="8" x2="277.657" y1="81" y2="81"/><line style="stroke:#808080;stroke-width:1;stroke-dasharray:1,3;" x1="8" x2="277.657" y1="89" y2="89"/><ellipse cx="18" cy="102.9" fill="#84BE84" rx="3" ry="3" style="stroke:#038048;stroke-width:1;"/><text fill="#808080" font-family="sans-serif" font-size="14" font-style="italic" lengthAdjust="spacing" textLength="245.657" x="27" y="106.7619">infix &lt;( other : Ordered [1] ) : Boolean [1]</text><ellipse cx="18" cy="119.6999" fill="#84BE84" rx="3" ry="3" style="stroke:#038048;stroke-width:1;"/><text fill="#808080" font-family="sans-serif" font-size="14" font-style="italic" lengthAdjust="spacing" textLength="245.657" x="27" y="123.5619">infix &lt;( other : Ordered [1] ) : Boolean [1]</text></g><!--class ITimezone--><g class="entity" data-entity="ITimezone" data-source-line="25" data-uid="ent0007" id="entity_ITimezone"><rect fill="#F5F5F5" height="98.3998" rx="2.5" ry="2.5" style="stroke:#808080;stroke-width:1;stroke-dasharray:1,3;" width="151.7895" x="271.93" y="340.6"/><ellipse cx="311.7357" cy="356.6" fill="#A9DCDF" rx="11" ry="11" style="stroke:#181818;stroke-width:1;"/><path d="M306.2513,362.1 L308.2826,362.1 L312.3295,350.7562 L311.4232,350.7562 L315.2513,362.1 L317.392,362.1 L313.0638,349.7719 L310.8451,349.7719 L306.2513,362.1 Z M308.5795,358.6 L315.017,358.6 L315.017,356.85 L308.5795,356.85 L308.5795,358.6 Z " fill="#000000"/><text fill="#808080" font-family="sans-serif" font-size="14" font-style="italic" lengthAdjust="spacing" textLength="64.6657" x="331.2481" y="361.962">ITimezone</text><line style="stroke:#808080;stroke-width:1;stroke-dasharray:1,3;" x1="272.93" x2="422.7195" y1="372.6" y2="372.6"/><line style="stroke:#808080;stroke-width:1;stroke-dasharray:1,3;" x1="272.93" x2="422.7195" y1="380.6" y2="380.6"/><ellipse cx="282.93" cy="394.5" fill="#84BE84" rx="3" ry="3" style="stroke:#038048;stroke-width:1;"/><text fill="#808080" font-family="sans-serif" font-size="14" lengthAdjust="spacing" textLength="110.7116" x="291.93" y="398.3619">hour() : Integer [1]</text><ellipse cx="282.93" cy="411.2999" fill="#84BE84" rx="3" ry="3" style="stroke:#038048;stroke-width:1;"/><text fill="#808080" font-family="sans-serif" font-size="14" lengthAdjust="spacing" textLength="125.7895" x="291.93" y="415.1619">minute() : Integer [1]</text><ellipse cx="282.93" cy="428.0998" fill="#84BE84" rx="3" ry="3" style="stroke:#038048;stroke-width:1;"/><text fill="#808080" font-family="sans-serif" font-size="14" lengthAdjust="spacing" textLength="107.6036" x="291.93" y="431.9618">sign() : Integer [1]</text></g><!--class Temporal--><g class="entity" data-entity="Temporal" data-source-line="31" data-uid="ent0008" id="entity_Temporal"><rect fill="#F5F5F5" height="48" rx="2.5" ry="2.5" style="stroke:#808080;stroke-width:1;stroke-dasharray:1,3;" width="91.9898" x="301.83" y="232.6"/><ellipse cx="316.83" cy="248.6" fill="#A9DCDF" rx="11" ry="11" style="stroke:#181818;stroke-width:1;"/><path d="M311.3456,254.1 L313.3769,254.1 L317.4238,242.7562 L316.5175,242.7562 L320.3456,254.1 L322.4863,254.1 L318.1581,241.7719 L315.9394,241.7719 L311.3456,254.1 Z M313.6738,250.6 L320.1113,250.6 L320.1113,248.85 L313.6738,248.85 L313.6738,250.6 Z " fill="#000000"/><text fill="#808080" font-family="sans-serif" font-size="14" font-style="italic" lengthAdjust="spacing" textLength="59.9898" x="330.83" y="253.962">Temporal</text><line style="stroke:#808080;stroke-width:1;stroke-dasharray:1,3;" x1="302.83" x2="392.8198" y1="264.6" y2="264.6"/><line style="stroke:#808080;stroke-width:1;stroke-dasharray:1,3;" x1="302.83" x2="392.8198" y1="272.6" y2="272.6"/></g><!--class Time_Definitions--><g class="entity" data-entity="Time_Definitions" data-source-line="40" data-uid="ent0010" id="entity_Time_Definitions"><rect fill="#F5F5F5" height="165.5995" rx="2.5" ry="2.5" style="stroke:#808080;stroke-width:1;stroke-dasharray:1,3;" width="445.5084" x="314.07" y="7"/><ellipse cx="479.5914" cy="23" fill="#ADD1B2" rx="11" ry="11" style="stroke:#181818;stroke-width:1;"/><path d="M479.5914,29.4219 C480.7633,29.4219 481.9977,29.1563 483.3727,28.5469 L482.8883,27.0313 C481.7945,27.4531 480.7789,27.6406 479.9195,27.6406 C477.2008,27.6406 475.482,25.7969 475.482,22.8906 C475.482,20.1406 477.0445,18.5469 479.7789,18.5469 C480.7008,18.5469 481.7164,18.7344 482.857,19.1563 L483.4352,17.6406 C482.3414,17.0625 481.0445,16.7656 479.857,16.7656 C476.0914,16.7656 473.5133,19.4063 473.5133,23.2188 C473.5133,26.8906 475.9977,29.4219 479.5914,29.4219 Z " fill="#000000"/><text fill="#808080" font-family="sans-serif" font-size="14" lengthAdjust="spacing" textLength="105.9656" x="500.0914" y="28.362">Time_Definitions</text><line style="stroke:#808080;stroke-width:1;stroke-dasharray:1,3;" x1="315.07" x2="758.5784" y1="39" y2="39"/><line style="stroke:#808080;stroke-width:1;stroke-dasharray:1,3;" x1="315.07" x2="758.5784" y1="47" y2="47"/><ellipse cx="325.07" cy="60.9" fill="#84BE84" rx="3" ry="3" style="stroke:#038048;stroke-width:1;"/><text fill="#808080" font-family="sans-serif" font-size="14" lengthAdjust="spacing" textLength="237.0191" x="334.07" y="64.7619">valid_year( y : Integer [1] ) : Boolean [1]</text><ellipse cx="325.07" cy="77.6999" fill="#84BE84" rx="3" ry="3" style="stroke:#038048;stroke-width:1;"/><text fill="#808080" font-family="sans-serif" font-size="14" lengthAdjust="spacing" textLength="257.417" x="334.07" y="81.5619">valid_month( m : Integer [1] ) : Boolean [1]</text><ellipse cx="325.07" cy="94.4998" fill="#84BE84" rx="3" ry="3" style="stroke:#038048;stroke-width:1;"/><text fill="#808080" font-family="sans-serif" font-size="14" lengthAdjust="spacing" textLength="412.6764" x="334.07" y="98.3618">valid_day( y : Integer [1], m : Integer [1], d : Integer [1] ) : Boolean [1]</text><ellipse cx="325.07" cy="111.2997" fill="#84BE84" rx="3" ry="3" style="stroke:#038048;stroke-width:1;"/><text fill="#808080" font-family="sans-serif" font-size="14" lengthAdjust="spacing" textLength="419.5084" x="334.07" y="115.1617">valid_hour( h : Integer [1], m : Integer [1], s : Integer [1] ) : Boolean [1]</text><ellipse cx="325.07" cy="128.0997" fill="#84BE84" rx="3" ry="3" style="stroke:#038048;stroke-width:1;"/><text fill="#808080" font-family="sans-serif" font-size="14" lengthAdjust="spacing" textLength="260.189" x="334.07" y="131.9616">valid_minute( m : Integer [1] ) : Boolean [1]</text><ellipse cx="325.07" cy="144.8996" fill="#84BE84" rx="3" ry="3" style="stroke:#038048;stroke-width:1;"/><text fill="#808080" font-family="sans-serif" font-size="14" lengthAdjust="spacing" textLength="254.519" x="334.07" y="148.7616">valid_second( s : Integer [1] ) : Boolean [1]</text><ellipse cx="325.07" cy="161.6995" fill="#84BE84" rx="3" ry="3" style="stroke:#038048;stroke-width:1;"/><text fill="#808080" font-family="sans-serif" font-size="14" lengthAdjust="spacing" textLength="325.6528" x="334.07" y="165.5615">valid_fractional_second( fs : Double [1] ) : Boolean [1]</text></g><!--reverse link Ordered to Iso8601_type--><g class="link" data-entity-1="Ordered" data-entity-2="Iso8601_type" data-source-line="21" data-uid="lnk5" id="link_Ordered_Iso8601_type"><path codeLine="21" d="M142.83,148.99 C142.83,203.24 142.83,281.82 142.83,340.12" fill="none" id="Ordered-backto-Iso8601_type" style="stroke:#181818;stroke-width:1;"/><polygon fill="none" points="142.83,130.99,136.83,148.99,148.83,148.99,142.83,130.99" style="stroke:#181818;stroke-width:1;"/></g><!--reverse link Iso8601_type to Iso8601_timezone--><g class="link" data-entity-1="Iso8601_type" data-entity-2="Iso8601_timezone" data-source-line="23" data-uid="lnk6" id="link_Iso8601_type_Iso8601_timezone"><path codeLine="23" d="M178.9777,455.1623 C189.1877,473.3323 192.21,478.71 203.4,498.65" fill="none" id="Iso8601_type-backto-Iso8601_timezone" style="stroke:#181818;stroke-width:1;"/><polygon fill="none" points="170.16,439.47,173.747,458.1015,184.2085,452.223,170.16,439.47" style="stroke:#181818;stroke-width:1;"/></g><!--reverse link Ordered to Temporal--><g class="link" data-entity-1="Ordered" data-entity-2="Temporal" data-source-line="38" data-uid="lnk9" id="link_Ordered_Temporal"><path codeLine="38" d="M206.7475,142.1796 C246.2075,173.9096 285.92,205.84 318.68,232.17" fill="none" id="Ordered-backto-Temporal" style="stroke:#181818;stroke-width:1;"/><polygon fill="none" points="192.72,130.9,202.9876,146.8554,210.5074,137.5038,192.72,130.9" style="stroke:#181818;stroke-width:1;"/></g><!--reverse link Time_Definitions to Temporal--><g class="link" data-entity-1="Time_Definitions" data-entity-2="Temporal" data-source-line="50" data-uid="lnk11" id="link_Time_Definitions_Temporal"><path codeLine="50" d="M429.0424,184.7888 C404.0724,206.5588 392.65,216.52 374.6,232.26" fill="none" id="Time_Definitions-backto-Temporal" style="stroke:#181818;stroke-width:1;"/><polygon fill="none" points="442.61,172.96,425.0995,180.2663,432.9854,189.3114,442.61,172.96" style="stroke:#181818;stroke-width:1;"/></g><!--reverse link Temporal to ITimezone--><g class="link" data-entity-1="Temporal" data-entity-2="ITimezone" data-source-line="52" data-uid="lnk12" id="link_Temporal_ITimezone"><path codeLine="52" d="M347.83,299.06 C347.83,315.49 347.83,320.05 347.83,340.28" fill="none" id="Temporal-backto-ITimezone" style="stroke:#181818;stroke-width:1;"/><polygon fill="none" points="347.83,281.06,341.83,299.06,353.83,299.06,347.83,281.06" style="stroke:#181818;stroke-width:1;"/></g><!--reverse link ITimezone to Iso8601_timezone--><g class="link" data-entity-1="ITimezone" data-entity-2="Iso8601_timezone" data-source-line="54" data-uid="lnk13" id="link_ITimezone_Iso8601_timezone"><path codeLine="54" d="M311.3469,455.1253 C301.0369,473.2953 297.97,478.71 286.66,498.65" fill="none" id="ITimezone-backto-Iso8601_timezone" style="stroke:#181818;stroke-width:1;"/><polygon fill="none" points="320.23,439.47,306.1284,452.1643,316.5653,458.0864,320.23,439.47" style="stroke:#181818;stroke-width:1;"/></g></g></svg>
