<svg xmlns="http://www.w3.org/2000/svg" xmlns:xlink="http://www.w3.org/1999/xlink" contentStyleType="text/css" data-diagram-type="CLASS" height="705px" preserveAspectRatio="none" style="width:766px;height:705px;background:#FFFFFF;" version="1.1" viewBox="0 0 766 705" width="766px" zoomAndPan="magnify"><defs/><g><!--class Iso8601_date--><g class="entity" data-entity="Iso8601_date" data-source-line="2" data-uid="ent0002" id="entity_Iso8601_date"><rect fill="#F1F1F1" height="165.5995" rx="2.5" ry="2.5" style="stroke:#181818;stroke-width:0.5;" width="233.5352" x="137.06" y="532.6"/><ellipse cx="207.7947" cy="548.6" fill="#ADD1B2" rx="11" ry="11" style="stroke:#181818;stroke-width:1;"/><path d="M207.7947,555.0219 C208.9666,555.0219 210.201,554.7563 211.576,554.1469 L211.0916,552.6313 C209.9979,553.0531 208.9822,553.2406 208.1229,553.2406 C205.4041,553.2406 203.6854,551.3969 203.6854,548.4906 C203.6854,545.7406 205.2479,544.1469 207.9822,544.1469 C208.9041,544.1469 209.9197,544.3344 211.0604,544.7563 L211.6385,543.2406 C210.5447,542.6625 209.2479,542.3656 208.0604,542.3656 C204.2947,542.3656 201.7166,545.0063 201.7166,548.8188 C201.7166,552.4906 204.201,555.0219 207.7947,555.0219 Z " fill="#000000"/><text fill="#000000" font-family="sans-serif" font-size="14" lengthAdjust="spacing" textLength="83.5657" x="228.2947" y="553.962">Iso8601_date</text><line style="stroke:#181818;stroke-width:0.5;" x1="138.06" x2="369.5952" y1="564.6" y2="564.6"/><line style="stroke:#181818;stroke-width:0.5;" x1="138.06" x2="369.5952" y1="572.6" y2="572.6"/><ellipse cx="148.06" cy="586.5" fill="#84BE84" rx="3" ry="3" style="stroke:#038048;stroke-width:1;"/><text fill="#000000" font-family="sans-serif" font-size="14" lengthAdjust="spacing" textLength="193.8293" x="157.06" y="590.3619">month_unknown() : Boolean [1]</text><ellipse cx="148.06" cy="603.2999" fill="#84BE84" rx="3" ry="3" style="stroke:#038048;stroke-width:1;"/><text fill="#000000" font-family="sans-serif" font-size="14" lengthAdjust="spacing" textLength="174.4253" x="157.06" y="607.1619">day_unknown() : Boolean [1]</text><ellipse cx="148.06" cy="620.0998" fill="#84BE84" rx="3" ry="3" style="stroke:#038048;stroke-width:1;"/><text fill="#000000" font-family="sans-serif" font-size="14" lengthAdjust="spacing" textLength="207.5352" x="157.06" y="623.9618">valid_iso8601_date() : Boolean [1]</text><ellipse cx="148.06" cy="636.8997" fill="#84BE84" rx="3" ry="3" style="stroke:#038048;stroke-width:1;"/><text fill="#000000" font-family="sans-serif" font-size="14" lengthAdjust="spacing" textLength="144.9974" x="157.06" y="640.7617">is_partial() : Boolean [1]</text><ellipse cx="148.06" cy="653.6997" fill="#84BE84" rx="3" ry="3" style="stroke:#038048;stroke-width:1;"/><text fill="#000000" font-family="sans-serif" font-size="14" lengthAdjust="spacing" textLength="162.6934" x="157.06" y="657.5616">is_extended() : Boolean [1]</text><ellipse cx="148.06" cy="670.4996" fill="#84BE84" rx="3" ry="3" style="stroke:#038048;stroke-width:1;"/><text fill="#000000" font-family="sans-serif" font-size="14" lengthAdjust="spacing" textLength="131.2635" x="157.06" y="674.3616">as_string() : String [1]</text><ellipse cx="148.06" cy="687.2995" fill="#84BE84" rx="3" ry="3" style="stroke:#038048;stroke-width:1;"/><text fill="#000000" font-family="sans-serif" font-size="14" lengthAdjust="spacing" textLength="114.7995" x="157.06" y="691.1615">as_date() : Date [1]</text></g><!--class Iso8601_type--><g class="entity" data-entity="Iso8601_type" data-source-line="12" data-uid="ent0003" id="entity_Iso8601_type"><rect fill="#F5F5F5" height="98.3998" rx="2.5" ry="2.5" style="stroke:#808080;stroke-width:1;stroke-dasharray:1,3;" width="188.6934" x="48.48" y="357.4"/><ellipse cx="97.0108" cy="373.4" fill="#A9DCDF" rx="11" ry="11" style="stroke:#181818;stroke-width:1;"/><path d="M91.5265,378.9 L93.5577,378.9 L97.6046,367.5563 L96.6983,367.5563 L100.5265,378.9 L102.6671,378.9 L98.339,366.5719 L96.1202,366.5719 L91.5265,378.9 Z M93.8546,375.4 L100.2921,375.4 L100.2921,373.65 L93.8546,373.65 L93.8546,375.4 Z " fill="#000000"/><text fill="#808080" font-family="sans-serif" font-size="14" font-style="italic" lengthAdjust="spacing" textLength="83.1317" x="117.5108" y="378.762">Iso8601_type</text><line style="stroke:#808080;stroke-width:1;stroke-dasharray:1,3;" x1="49.48" x2="236.1734" y1="389.4" y2="389.4"/><ellipse cx="59.48" cy="403.3" fill="none" rx="3" ry="3" style="stroke:#038048;stroke-width:1;"/><text fill="#808080" font-family="sans-serif" font-size="14" lengthAdjust="spacing" textLength="98.9656" x="68.48" y="407.1619">value : String [1]</text><line style="stroke:#808080;stroke-width:1;stroke-dasharray:1,3;" x1="49.48" x2="236.1734" y1="414.1999" y2="414.1999"/><ellipse cx="59.48" cy="428.0999" fill="#84BE84" rx="3" ry="3" style="stroke:#038048;stroke-width:1;"/><text fill="#808080" font-family="sans-serif" font-size="14" font-style="italic" lengthAdjust="spacing" textLength="144.9974" x="68.48" y="431.9619">is_partial() : Boolean [1]</text><ellipse cx="59.48" cy="444.8998" fill="#84BE84" rx="3" ry="3" style="stroke:#038048;stroke-width:1;"/><text fill="#808080" font-family="sans-serif" font-size="14" font-style="italic" lengthAdjust="spacing" textLength="162.6934" x="68.48" y="448.7618">is_extended() : Boolean [1]</text></g><!--class Ordered--><g class="entity" data-entity="Ordered" data-source-line="18" data-uid="ent0004" id="entity_Ordered"><rect fill="#F5F5F5" height="81.5999" rx="2.5" ry="2.5" style="stroke:#808080;stroke-width:1;stroke-dasharray:1,3;" width="271.657" x="7" y="49"/><ellipse cx="112.6086" cy="65" fill="#A9DCDF" rx="11" ry="11" style="stroke:#181818;stroke-width:1;"/><path d="M107.1243,70.5 L109.1555,70.5 L113.2024,59.1563 L112.2961,59.1563 L116.1243,70.5 L118.2649,70.5 L113.9368,58.1719 L111.718,58.1719 L107.1243,70.5 Z M109.4524,67 L115.8899,67 L115.8899,65.25 L109.4524,65.25 L109.4524,67 Z " fill="#000000"/><text fill="#808080" font-family="sans-serif" font-size="14" font-style="italic" lengthAdjust="spacing" textLength="51.9398" x="133.1086" y="70.362">Ordered</text><line style="stroke:#808080;stroke-width:1;stroke-dasharray:1,3;" x1="8" x2="277.657" y1="81" y2="81"/><line style="stroke:#808080;stroke-width:1;stroke-dasharray:1,3;" x1="8" x2="277.657" y1="89" y2="89"/><ellipse cx="18" cy="102.9" fill="#84BE84" rx="3" ry="3" style="stroke:#038048;stroke-width:1;"/><text fill="#808080" font-family="sans-serif" font-size="14" font-style="italic" lengthAdjust="spacing" textLength="245.657" x="27" y="106.7619">infix &lt;( other : Ordered [1] ) : Boolean [1]</text><ellipse cx="18" cy="119.6999" fill="#84BE84" rx="3" ry="3" style="stroke:#038048;stroke-width:1;"/><text fill="#808080" font-family="sans-serif" font-size="14" font-style="italic" lengthAdjust="spacing" textLength="245.657" x="27" y="123.5619">infix &lt;( other : Ordered [1] ) : Boolean [1]</text></g><!--class IDate--><g class="entity" data-entity="IDate" data-source-line="26" data-uid="ent0007" id="entity_IDate"><rect fill="#F5F5F5" height="131.9996" rx="2.5" ry="2.5" style="stroke:#808080;stroke-width:1;stroke-dasharray:1,3;" width="185.6974" x="271.98" y="340.6"/><ellipse cx="343.9257" cy="356.6" fill="#A9DCDF" rx="11" ry="11" style="stroke:#181818;stroke-width:1;"/><path d="M338.4414,362.1 L340.4726,362.1 L344.5195,350.7563 L343.6132,350.7563 L347.4414,362.1 L349.582,362.1 L345.2539,349.7719 L343.0351,349.7719 L338.4414,362.1 Z M340.7695,358.6 L347.207,358.6 L347.207,356.85 L340.7695,356.85 L340.7695,358.6 Z " fill="#000000"/><text fill="#808080" font-family="sans-serif" font-size="14" font-style="italic" lengthAdjust="spacing" textLength="33.3059" x="364.4257" y="361.962">IDate</text><line style="stroke:#808080;stroke-width:1;stroke-dasharray:1,3;" x1="272.98" x2="456.6774" y1="372.6" y2="372.6"/><line style="stroke:#808080;stroke-width:1;stroke-dasharray:1,3;" x1="272.98" x2="456.6774" y1="380.6" y2="380.6"/><ellipse cx="282.98" cy="394.5" fill="#84BE84" rx="3" ry="3" style="stroke:#038048;stroke-width:1;"/><text fill="#808080" font-family="sans-serif" font-size="14" lengthAdjust="spacing" textLength="108.3036" x="291.98" y="398.3619">year() : Integer [1]</text><ellipse cx="282.98" cy="411.2999" fill="#84BE84" rx="3" ry="3" style="stroke:#038048;stroke-width:1;"/><text fill="#808080" font-family="sans-serif" font-size="14" lengthAdjust="spacing" textLength="123.0175" x="291.98" y="415.1619">month() : Integer [1]</text><ellipse cx="282.98" cy="428.0998" fill="#84BE84" rx="3" ry="3" style="stroke:#038048;stroke-width:1;"/><text fill="#808080" font-family="sans-serif" font-size="14" lengthAdjust="spacing" textLength="103.6136" x="291.98" y="431.9618">day() : Integer [1]</text><ellipse cx="282.98" cy="444.8997" fill="#84BE84" rx="3" ry="3" style="stroke:#038048;stroke-width:1;"/><text fill="#808080" font-family="sans-serif" font-size="14" lengthAdjust="spacing" textLength="159.6974" x="291.98" y="448.7617">timezone() : ITimezone [1]</text><ellipse cx="282.98" cy="461.6997" fill="#84BE84" rx="3" ry="3" style="stroke:#038048;stroke-width:1;"/><text fill="#808080" font-family="sans-serif" font-size="14" lengthAdjust="spacing" textLength="131.2635" x="291.98" y="465.5616">as_string() : String [1]</text></g><!--class Temporal--><g class="entity" data-entity="Temporal" data-source-line="34" data-uid="ent0008" id="entity_Temporal"><rect fill="#F5F5F5" height="48" rx="2.5" ry="2.5" style="stroke:#808080;stroke-width:1;stroke-dasharray:1,3;" width="91.9898" x="318.83" y="232.6"/><ellipse cx="333.83" cy="248.6" fill="#A9DCDF" rx="11" ry="11" style="stroke:#181818;stroke-width:1;"/><path d="M328.3456,254.1 L330.3769,254.1 L334.4238,242.7563 L333.5175,242.7563 L337.3456,254.1 L339.4863,254.1 L335.1581,241.7719 L332.9394,241.7719 L328.3456,254.1 Z M330.6738,250.6 L337.1113,250.6 L337.1113,248.85 L330.6738,248.85 L330.6738,250.6 Z " fill="#000000"/><text fill="#808080" font-family="sans-serif" font-size="14" font-style="italic" lengthAdjust="spacing" textLength="59.9898" x="347.83" y="253.962">Temporal</text><line style="stroke:#808080;stroke-width:1;stroke-dasharray:1,3;" x1="319.83" x2="409.8198" y1="264.6" y2="264.6"/><line style="stroke:#808080;stroke-width:1;stroke-dasharray:1,3;" x1="319.83" x2="409.8198" y1="272.6" y2="272.6"/></g><!--class Time_Definitions--><g class="entity" data-entity="Time_Definitions" data-source-line="43" data-uid="ent0010" id="entity_Time_Definitions"><rect fill="#F5F5F5" height="165.5995" rx="2.5" ry="2.5" style="stroke:#808080;stroke-width:1;stroke-dasharray:1,3;" width="445.5084" x="314.07" y="7"/><ellipse cx="479.5914" cy="23" fill="#ADD1B2" rx="11" ry="11" style="stroke:#181818;stroke-width:1;"/><path d="M479.5914,29.4219 C480.7633,29.4219 481.9977,29.1563 483.3727,28.5469 L482.8883,27.0313 C481.7945,27.4531 480.7789,27.6406 479.9195,27.6406 C477.2008,27.6406 475.482,25.7969 475.482,22.8906 C475.482,20.1406 477.0445,18.5469 479.7789,18.5469 C480.7008,18.5469 481.7164,18.7344 482.857,19.1563 L483.4352,17.6406 C482.3414,17.0625 481.0445,16.7656 479.857,16.7656 C476.0914,16.7656 473.5133,19.4063 473.5133,23.2188 C473.5133,26.8906 475.9977,29.4219 479.5914,29.4219 Z " fill="#000000"/><text fill="#808080" font-family="sans-serif" font-size="14" lengthAdjust="spacing" textLength="105.9656" x="500.0914" y="28.362">Time_Definitions</text><line style="stroke:#808080;stroke-width:1;stroke-dasharray:1,3;" x1="315.07" x2="758.5784" y1="39" y2="39"/><line style="stroke:#808080;stroke-width:1;stroke-dasharray:1,3;" x1="315.07" x2="758.5784" y1="47" y2="47"/><ellipse cx="325.07" cy="60.9" fill="#84BE84" rx="3" ry="3" style="stroke:#038048;stroke-width:1;"/><text fill="#808080" font-family="sans-serif" font-size="14" lengthAdjust="spacing" textLength="237.0191" x="334.07" y="64.7619">valid_year( y : Integer [1] ) : Boolean [1]</text><ellipse cx="325.07" cy="77.6999" fill="#84BE84" rx="3" ry="3" style="stroke:#038048;stroke-width:1;"/><text fill="#808080" font-family="sans-serif" font-size="14" lengthAdjust="spacing" textLength="257.417" x="334.07" y="81.5619">valid_month( m : Integer [1] ) : Boolean [1]</text><ellipse cx="325.07" cy="94.4998" fill="#84BE84" rx="3" ry="3" style="stroke:#038048;stroke-width:1;"/><text fill="#808080" font-family="sans-serif" font-size="14" lengthAdjust="spacing" textLength="412.6764" x="334.07" y="98.3618">valid_day( y : Integer [1], m : Integer [1], d : Integer [1] ) : Boolean [1]</text><ellipse cx="325.07" cy="111.2997" fill="#84BE84" rx="3" ry="3" style="stroke:#038048;stroke-width:1;"/><text fill="#808080" font-family="sans-serif" font-size="14" lengthAdjust="spacing" textLength="419.5084" x="334.07" y="115.1617">valid_hour( h : Integer [1], m : Integer [1], s : Integer [1] ) : Boolean [1]</text><ellipse cx="325.07" cy="128.0997" fill="#84BE84" rx="3" ry="3" style="stroke:#038048;stroke-width:1;"/><text fill="#808080" font-family="sans-serif" font-size="14" lengthAdjust="spacing" textLength="260.189" x="334.07" y="131.9616">valid_minute( m : Integer [1] ) : Boolean [1]</text><ellipse cx="325.07" cy="144.8996" fill="#84BE84" rx="3" ry="3" style="stroke:#038048;stroke-width:1;"/><text fill="#808080" font-family="sans-serif" font-size="14" lengthAdjust="spacing" textLength="254.519" x="334.07" y="148.7616">valid_second( s : Integer [1] ) : Boolean [1]</text><ellipse cx="325.07" cy="161.6995" fill="#84BE84" rx="3" ry="3" style="stroke:#038048;stroke-width:1;"/><text fill="#808080" font-family="sans-serif" font-size="14" lengthAdjust="spacing" textLength="325.6528" x="334.07" y="165.5615">valid_fractional_second( fs : Double [1] ) : Boolean [1]</text></g><!--reverse link Ordered to Iso8601_type--><g class="link" data-entity-1="Ordered" data-entity-2="Iso8601_type" data-source-line="22" data-uid="lnk5" id="link_Ordered_Iso8601_type"><path codeLine="22" d="M142.83,148.99 C142.83,206.76 142.83,295.11 142.83,357.15" fill="none" id="Ordered-backto-Iso8601_type" style="stroke:#181818;stroke-width:1;"/><polygon fill="none" points="142.83,130.99,136.83,148.99,148.83,148.99,142.83,130.99" style="stroke:#181818;stroke-width:1;"/></g><!--reverse link Iso8601_type to Iso8601_date--><g class="link" data-entity-1="Iso8601_type" data-entity-2="Iso8601_date" data-source-line="24" data-uid="lnk6" id="link_Iso8601_type_Iso8601_date"><path codeLine="24" d="M177.3663,471.9479 C189.5463,494.6279 195.87,506.42 209.72,532.22" fill="none" id="Iso8601_type-backto-Iso8601_date" style="stroke:#181818;stroke-width:1;"/><polygon fill="none" points="168.85,456.09,172.0803,474.7867,182.6522,469.1091,168.85,456.09" style="stroke:#181818;stroke-width:1;"/></g><!--reverse link Ordered to Temporal--><g class="link" data-entity-1="Ordered" data-entity-2="Temporal" data-source-line="41" data-uid="lnk9" id="link_Ordered_Temporal"><path codeLine="41" d="M211.3026,141.6295 C254.0426,173.3595 297.79,205.84 333.26,232.17" fill="none" id="Ordered-backto-Temporal" style="stroke:#181818;stroke-width:1;"/><polygon fill="none" points="196.85,130.9,207.7261,146.4471,214.8791,136.812,196.85,130.9" style="stroke:#181818;stroke-width:1;"/></g><!--reverse link Time_Definitions to Temporal--><g class="link" data-entity-1="Time_Definitions" data-entity-2="Temporal" data-source-line="53" data-uid="lnk11" id="link_Time_Definitions_Temporal"><path codeLine="53" d="M438.0833,185.4133 C415.3633,207.1833 405.62,216.52 389.19,232.26" fill="none" id="Time_Definitions-backto-Temporal" style="stroke:#181818;stroke-width:1;"/><polygon fill="none" points="451.08,172.96,433.9322,181.0811,442.2344,189.7455,451.08,172.96" style="stroke:#181818;stroke-width:1;"/></g><!--reverse link Temporal to IDate--><g class="link" data-entity-1="Temporal" data-entity-2="IDate" data-source-line="55" data-uid="lnk12" id="link_Temporal_IDate"><path codeLine="55" d="M364.83,299.05 C364.83,315.11 364.83,319.25 364.83,340.41" fill="none" id="Temporal-backto-IDate" style="stroke:#181818;stroke-width:1;"/><polygon fill="none" points="364.83,281.05,358.83,299.05,370.83,299.05,364.83,281.05" style="stroke:#181818;stroke-width:1;"/></g><!--reverse link IDate to Iso8601_date--><g class="link" data-entity-1="IDate" data-entity-2="Iso8601_date" data-source-line="57" data-uid="lnk13" id="link_IDate_Iso8601_date"><path codeLine="57" d="M321.1983,488.8904 C311.0983,507.7104 308.46,512.61 297.9,532.3" fill="none" id="IDate-backto-Iso8601_date" style="stroke:#181818;stroke-width:1;"/><polygon fill="none" points="329.71,473.03,315.9115,486.0531,326.4851,491.7276,329.71,473.03" style="stroke:#181818;stroke-width:1;"/></g></g></svg>
