<svg xmlns="http://www.w3.org/2000/svg" xmlns:xlink="http://www.w3.org/1999/xlink" contentStyleType="text/css" data-diagram-type="CLASS" height="186px" preserveAspectRatio="none" style="width:138px;height:186px;background:#FFFFFF;" version="1.1" viewBox="0 0 138 186" width="138px" zoomAndPan="magnify"><defs/><g><!--class ISO_OID--><g class="entity" data-entity="ISO_OID" data-source-line="2" data-uid="ent0002" id="entity_ISO_OID"><rect fill="#F1F1F1" height="48" rx="2.5" ry="2.5" style="stroke:#181818;stroke-width:0.5;" width="85.4518" x="26.76" y="131.8"/><ellipse cx="41.76" cy="147.8" fill="#ADD1B2" rx="11" ry="11" style="stroke:#181818;stroke-width:1;"/><path d="M41.76,154.2219 C42.9319,154.2219 44.1663,153.9563 45.5413,153.3469 L45.0569,151.8313 C43.9631,152.2531 42.9475,152.4406 42.0881,152.4406 C39.3694,152.4406 37.6506,150.5969 37.6506,147.6906 C37.6506,144.9406 39.2131,143.3469 41.9475,143.3469 C42.8694,143.3469 43.885,143.5344 45.0256,143.9563 L45.6038,142.4406 C44.51,141.8625 43.2131,141.5656 42.0256,141.5656 C38.26,141.5656 35.6819,144.2063 35.6819,148.0188 C35.6819,151.6906 38.1663,154.2219 41.76,154.2219 Z " fill="#000000"/><text fill="#000000" font-family="sans-serif" font-size="14" lengthAdjust="spacing" textLength="53.4518" x="55.76" y="153.162">ISO_OID</text><line style="stroke:#181818;stroke-width:0.5;" x1="27.76" x2="111.2118" y1="163.8" y2="163.8"/><line style="stroke:#181818;stroke-width:0.5;" x1="27.76" x2="111.2118" y1="171.8" y2="171.8"/></g><!--class UID--><g class="entity" data-entity="UID" data-source-line="5" data-uid="ent0003" id="entity_UID"><rect fill="#F5F5F5" height="64.7999" rx="2.5" ry="2.5" style="stroke:#808080;stroke-width:1;stroke-dasharray:1,3;" width="124.9656" x="7" y="7"/><ellipse cx="53.6898" cy="23" fill="#A9DCDF" rx="11" ry="11" style="stroke:#181818;stroke-width:1;"/><path d="M48.2055,28.5 L50.2367,28.5 L54.2836,17.1563 L53.3773,17.1563 L57.2055,28.5 L59.3461,28.5 L55.018,16.1719 L52.7992,16.1719 L48.2055,28.5 Z M50.5336,25 L56.9711,25 L56.9711,23.25 L50.5336,23.25 L50.5336,25 Z " fill="#000000"/><text fill="#808080" font-family="sans-serif" font-size="14" font-style="italic" lengthAdjust="spacing" textLength="23.0859" x="74.1898" y="28.362">UID</text><line style="stroke:#808080;stroke-width:1;stroke-dasharray:1,3;" x1="8" x2="130.9656" y1="39" y2="39"/><ellipse cx="18" cy="52.9" fill="none" rx="3" ry="3" style="stroke:#038048;stroke-width:1;"/><text fill="#808080" font-family="sans-serif" font-size="14" lengthAdjust="spacing" textLength="98.9656" x="27" y="56.7619">value : String [1]</text><line style="stroke:#808080;stroke-width:1;stroke-dasharray:1,3;" x1="8" x2="130.9656" y1="63.7999" y2="63.7999"/></g><!--reverse link UID to ISO_OID--><g class="link" data-entity-1="UID" data-entity-2="ISO_OID" data-source-line="9" data-uid="lnk4" id="link_UID_ISO_OID"><path codeLine="9" d="M69.48,90.27 C69.48,109.04 69.48,114.38 69.48,131.45" fill="none" id="UID-backto-ISO_OID" style="stroke:#181818;stroke-width:1;"/><polygon fill="none" points="69.48,72.27,63.48,90.27,75.48,90.27,69.48,72.27" style="stroke:#181818;stroke-width:1;"/></g></g></svg>
