<svg xmlns="http://www.w3.org/2000/svg" xmlns:xlink="http://www.w3.org/1999/xlink" contentStyleType="text/css" data-diagram-type="CLASS" height="256px" preserveAspectRatio="none" style="width:203px;height:256px;background:#FFFFFF;" version="1.1" viewBox="0 0 203 256" width="203px" zoomAndPan="magnify"><defs/><g><!--class List--><g class="entity" data-entity="List" data-source-line="2" data-uid="ent0002" id="entity_List"><rect fill="#F1F1F1" height="81.5999" rx="2.5" ry="2.5" style="stroke:#181818;stroke-width:0.5;" width="95.9297" x="51.54" y="168.4"/><ellipse cx="80.5169" cy="184.4" fill="#ADD1B2" rx="11" ry="11" style="stroke:#181818;stroke-width:1;"/><path d="M80.5169,190.8219 C81.6888,190.8219 82.9231,190.5563 84.2981,189.9469 L83.8138,188.4313 C82.72,188.8531 81.7044,189.0406 80.845,189.0406 C78.1263,189.0406 76.4075,187.1969 76.4075,184.2906 C76.4075,181.5406 77.97,179.9469 80.7044,179.9469 C81.6263,179.9469 82.6419,180.1344 83.7825,180.5563 L84.3606,179.0406 C83.2669,178.4625 81.97,178.1656 80.7825,178.1656 C77.0169,178.1656 74.4388,180.8063 74.4388,184.6188 C74.4388,188.2906 76.9231,190.8219 80.5169,190.8219 Z " fill="#000000"/><text fill="#000000" font-family="sans-serif" font-size="14" lengthAdjust="spacing" textLength="22.0779" x="97.6229" y="189.762">List</text><rect fill="#FFFFFF" height="16.4001" style="stroke:#181818;stroke-width:1;stroke-dasharray:2,2;" width="8.7921" x="141.6777" y="165.4"/><text fill="#000000" font-family="sans-serif" font-size="12" font-style="italic" lengthAdjust="spacing" textLength="6.7921" x="142.6777" y="178.1961">T</text><line style="stroke:#181818;stroke-width:0.5;" x1="52.54" x2="146.4697" y1="200.4" y2="200.4"/><line style="stroke:#181818;stroke-width:0.5;" x1="52.54" x2="146.4697" y1="208.4" y2="208.4"/><ellipse cx="62.54" cy="222.3" fill="#84BE84" rx="3" ry="3" style="stroke:#038048;stroke-width:1;"/><text fill="#000000" font-family="sans-serif" font-size="14" lengthAdjust="spacing" textLength="69.9297" x="71.54" y="226.1619">first() : T [1]</text><ellipse cx="62.54" cy="239.0999" fill="#84BE84" rx="3" ry="3" style="stroke:#038048;stroke-width:1;"/><text fill="#000000" font-family="sans-serif" font-size="14" lengthAdjust="spacing" textLength="67.5077" x="71.54" y="242.9619">last() : T [1]</text></g><!--class Container--><g class="entity" data-entity="Container" data-source-line="7" data-uid="ent0003" id="entity_Container"><rect fill="#F5F5F5" height="98.3998" rx="2.5" ry="2.5" style="stroke:#808080;stroke-width:1;stroke-dasharray:1,3;" width="185.0114" x="7" y="10"/><ellipse cx="59.2698" cy="26" fill="#A9DCDF" rx="11" ry="11" style="stroke:#181818;stroke-width:1;"/><path d="M53.7854,31.5 L55.8166,31.5 L59.8635,20.1563 L58.9573,20.1563 L62.7854,31.5 L64.926,31.5 L60.5979,19.1719 L58.3791,19.1719 L53.7854,31.5 Z M56.1135,28 L62.551,28 L62.551,26.25 L56.1135,26.25 L56.1135,28 Z " fill="#000000"/><text fill="#808080" font-family="sans-serif" font-size="14" font-style="italic" lengthAdjust="spacing" textLength="61.1798" x="79.7698" y="31.362">Container</text><rect fill="#FFFFFF" height="16.4001" style="stroke:#181818;stroke-width:1;stroke-dasharray:2,2;" width="8.7921" x="186.2193" y="7"/><text fill="#000000" font-family="sans-serif" font-size="12" font-style="italic" lengthAdjust="spacing" textLength="6.7921" x="187.2193" y="19.7961">T</text><line style="stroke:#808080;stroke-width:1;stroke-dasharray:1,3;" x1="8" x2="191.0114" y1="42" y2="42"/><line style="stroke:#808080;stroke-width:1;stroke-dasharray:1,3;" x1="8" x2="191.0114" y1="50" y2="50"/><ellipse cx="18" cy="63.9" fill="#84BE84" rx="3" ry="3" style="stroke:#038048;stroke-width:1;"/><text fill="#808080" font-family="sans-serif" font-size="14" font-style="italic" lengthAdjust="spacing" textLength="159.0114" x="27" y="67.7619">has( v : T [1] ) : Boolean [1]</text><ellipse cx="18" cy="80.6999" fill="#84BE84" rx="3" ry="3" style="stroke:#038048;stroke-width:1;"/><text fill="#808080" font-family="sans-serif" font-size="14" font-style="italic" lengthAdjust="spacing" textLength="117.0256" x="27" y="84.5619">count() : Integer [1]</text><ellipse cx="18" cy="97.4998" fill="#84BE84" rx="3" ry="3" style="stroke:#038048;stroke-width:1;"/><text fill="#808080" font-family="sans-serif" font-size="14" font-style="italic" lengthAdjust="spacing" textLength="144.5634" x="27" y="101.3618">is_empty() : Boolean [1]</text></g><!--reverse link Container to List--><g class="link" data-entity-1="Container" data-entity-2="List" data-source-line="13" data-uid="lnk4" id="link_Container_List"><path codeLine="13" d="M99.51,126.66 C99.51,145.88 99.51,149.72 99.51,168.04" fill="none" id="Container-backto-List" style="stroke:#181818;stroke-width:1;"/><polygon fill="none" points="99.51,108.66,93.51,126.66,105.51,126.66,99.51,108.66" style="stroke:#181818;stroke-width:1;"/></g></g></svg>
