<svg xmlns="http://www.w3.org/2000/svg" xmlns:xlink="http://www.w3.org/1999/xlink" contentStyleType="text/css" data-diagram-type="CLASS" height="270px" preserveAspectRatio="none" style="width:176px;height:270px;background:#FFFFFF;" version="1.1" viewBox="0 0 176 270" width="176px" zoomAndPan="magnify"><defs/><g><!--class LOCATABLE_REF--><g class="entity" data-entity="LOCATABLE_REF" data-source-line="2" data-uid="ent0002" id="entity_LOCATABLE_REF"><rect fill="#F1F1F1" height="98.3998" rx="2.5" ry="2.5" style="stroke:#181818;stroke-width:0.5;" width="160.2035" x="8.13" y="165.4"/><ellipse cx="32.211" cy="181.4" fill="#ADD1B2" rx="11" ry="11" style="stroke:#181818;stroke-width:1;"/><path d="M32.211,187.8219 C33.3828,187.8219 34.6172,187.5563 35.9922,186.9469 L35.5078,185.4313 C34.4141,185.8531 33.3985,186.0406 32.5391,186.0406 C29.8203,186.0406 28.1016,184.1969 28.1016,181.2906 C28.1016,178.5406 29.6641,176.9469 32.3985,176.9469 C33.3203,176.9469 34.336,177.1344 35.4766,177.5563 L36.0547,176.0406 C34.961,175.4625 33.6641,175.1656 32.4766,175.1656 C28.711,175.1656 26.1328,177.8063 26.1328,181.6188 C26.1328,185.2906 28.6172,187.8219 32.211,187.8219 Z " fill="#000000"/><text fill="#000000" font-family="sans-serif" font-size="14" lengthAdjust="spacing" textLength="108.0235" x="48.229" y="186.762">LOCATABLE_REF</text><line style="stroke:#181818;stroke-width:0.5;" x1="9.13" x2="167.3335" y1="197.4" y2="197.4"/><ellipse cx="19.13" cy="211.3" fill="none" rx="3" ry="3" style="stroke:#038048;stroke-width:1;"/><text fill="#000000" font-family="sans-serif" font-size="14" lengthAdjust="spacing" textLength="109.8996" x="28.13" y="215.1619">path : String [0..1]</text><ellipse cx="19.13" cy="228.0999" fill="none" rx="3" ry="3" style="stroke:#038048;stroke-width:1;"/><text fill="#000000" font-family="sans-serif" font-size="14" lengthAdjust="spacing" textLength="134.2035" x="28.13" y="231.9619">id : UID_BASED_ID [1]</text><line style="stroke:#181818;stroke-width:0.5;" x1="9.13" x2="167.3335" y1="238.9999" y2="238.9999"/><ellipse cx="19.13" cy="252.8998" fill="#84BE84" rx="3" ry="3" style="stroke:#038048;stroke-width:1;"/><text fill="#000000" font-family="sans-serif" font-size="14" lengthAdjust="spacing" textLength="111.6076" x="28.13" y="256.7618">as_uri() : String [1]</text></g><!--class OBJECT_REF--><g class="entity" data-entity="OBJECT_REF" data-source-line="8" data-uid="ent0003" id="entity_OBJECT_REF"><rect fill="#F5F5F5" height="98.3998" rx="2.5" ry="2.5" style="stroke:#808080;stroke-width:1;stroke-dasharray:1,3;" width="162.4715" x="7" y="7"/><ellipse cx="43.8573" cy="23" fill="#ADD1B2" rx="11" ry="11" style="stroke:#181818;stroke-width:1;"/><path d="M43.8573,29.4219 C45.0292,29.4219 46.2636,29.1563 47.6386,28.5469 L47.1542,27.0313 C46.0604,27.4531 45.0448,27.6406 44.1854,27.6406 C41.4667,27.6406 39.7479,25.7969 39.7479,22.8906 C39.7479,20.1406 41.3104,18.5469 44.0448,18.5469 C44.9667,18.5469 45.9823,18.7344 47.1229,19.1563 L47.7011,17.6406 C46.6073,17.0625 45.3104,16.7656 44.1229,16.7656 C40.3573,16.7656 37.7792,19.4063 37.7792,23.2188 C37.7792,26.8906 40.2636,29.4219 43.8573,29.4219 Z " fill="#000000"/><text fill="#808080" font-family="sans-serif" font-size="14" lengthAdjust="spacing" textLength="81.8997" x="62.7145" y="28.362">OBJECT_REF</text><line style="stroke:#808080;stroke-width:1;stroke-dasharray:1,3;" x1="8" x2="168.4715" y1="39" y2="39"/><ellipse cx="18" cy="52.9" fill="none" rx="3" ry="3" style="stroke:#038048;stroke-width:1;"/><text fill="#808080" font-family="sans-serif" font-size="14" lengthAdjust="spacing" textLength="136.4715" x="27" y="56.7619">namespace : String [1]</text><ellipse cx="18" cy="69.6999" fill="none" rx="3" ry="3" style="stroke:#038048;stroke-width:1;"/><text fill="#808080" font-family="sans-serif" font-size="14" lengthAdjust="spacing" textLength="93.1416" x="27" y="73.5619">type : String [1]</text><ellipse cx="18" cy="86.4998" fill="none" rx="3" ry="3" style="stroke:#038048;stroke-width:1;"/><text fill="#808080" font-family="sans-serif" font-size="14" lengthAdjust="spacing" textLength="110.8235" x="27" y="90.3618">id : OBJECT_ID [1]</text><line style="stroke:#808080;stroke-width:1;stroke-dasharray:1,3;" x1="8" x2="168.4715" y1="97.3998" y2="97.3998"/></g><!--reverse link OBJECT_REF to LOCATABLE_REF--><g class="link" data-entity-1="OBJECT_REF" data-entity-2="LOCATABLE_REF" data-source-line="14" data-uid="lnk4" id="link_OBJECT_REF_LOCATABLE_REF"><path codeLine="14" d="M88.24,123.83 C88.24,142.66 88.24,146.17 88.24,165" fill="none" id="OBJECT_REF-backto-LOCATABLE_REF" style="stroke:#181818;stroke-width:1;"/><polygon fill="none" points="88.24,105.83,82.24,123.83,94.24,123.83,88.24,105.83" style="stroke:#181818;stroke-width:1;"/></g></g></svg>
