<svg xmlns="http://www.w3.org/2000/svg" xmlns:xlink="http://www.w3.org/1999/xlink" contentStyleType="text/css" data-diagram-type="CLASS" height="516px" preserveAspectRatio="none" style="width:308px;height:516px;background:#FFFFFF;" version="1.1" viewBox="0 0 308 516" width="308px" zoomAndPan="magnify"><defs/><g><!--class Multiplicity_interval--><g class="entity" data-entity="Multiplicity_interval" data-source-line="2" data-uid="ent0002" id="entity_Multiplicity_interval"><rect fill="#F1F1F1" height="115.1997" rx="2.5" ry="2.5" style="stroke:#181818;stroke-width:0.5;" width="198.6473" x="52.99" y="394"/><ellipse cx="87.5415" cy="410" fill="#ADD1B2" rx="11" ry="11" style="stroke:#181818;stroke-width:1;"/><path d="M87.5415,416.4219 C88.7134,416.4219 89.9478,416.1563 91.3228,415.5469 L90.8384,414.0313 C89.7446,414.4531 88.729,414.6406 87.8696,414.6406 C85.1509,414.6406 83.4321,412.7969 83.4321,409.8906 C83.4321,407.1406 84.9946,405.5469 87.729,405.5469 C88.6509,405.5469 89.6665,405.7344 90.8071,406.1563 L91.3853,404.6406 C90.2915,404.0625 88.9946,403.7656 87.8071,403.7656 C84.0415,403.7656 81.4634,406.4063 81.4634,410.2188 C81.4634,413.8906 83.9478,416.4219 87.5415,416.4219 Z " fill="#000000"/><text fill="#000000" font-family="sans-serif" font-size="14" lengthAdjust="spacing" textLength="123.1995" x="105.8863" y="415.362">Multiplicity_interval</text><line style="stroke:#181818;stroke-width:0.5;" x1="53.99" x2="250.6373" y1="426" y2="426"/><line style="stroke:#181818;stroke-width:0.5;" x1="53.99" x2="250.6373" y1="434" y2="434"/><ellipse cx="63.99" cy="447.9" fill="#84BE84" rx="3" ry="3" style="stroke:#038048;stroke-width:1;"/><text fill="#000000" font-family="sans-serif" font-size="14" lengthAdjust="spacing" textLength="136.2615" x="72.99" y="451.7619">is_open() : Boolean [1]</text><ellipse cx="63.99" cy="464.6999" fill="#84BE84" rx="3" ry="3" style="stroke:#038048;stroke-width:1;"/><text fill="#000000" font-family="sans-serif" font-size="14" lengthAdjust="spacing" textLength="156.3654" x="72.99" y="468.5619">is_optional() : Boolean [1]</text><ellipse cx="63.99" cy="481.4998" fill="#84BE84" rx="3" ry="3" style="stroke:#038048;stroke-width:1;"/><text fill="#000000" font-family="sans-serif" font-size="14" lengthAdjust="spacing" textLength="172.6473" x="72.99" y="485.3618">is_mandatory() : Boolean [1]</text><ellipse cx="63.99" cy="498.2997" fill="#84BE84" rx="3" ry="3" style="stroke:#038048;stroke-width:1;"/><text fill="#000000" font-family="sans-serif" font-size="14" lengthAdjust="spacing" textLength="169.4413" x="72.99" y="502.1617">is_prohibited() : Boolean [1]</text></g><!--class Proper_interval--><g class="entity" data-entity="Proper_interval" data-source-line="9" data-uid="ent0003" id="entity_Proper_interval"><rect fill="#F5F5F5" height="48" rx="2.5" ry="2.5" style="stroke:#808080;stroke-width:1;stroke-dasharray:1,3;" width="138.8177" x="82.9" y="286"/><ellipse cx="97.9" cy="302" fill="#ADD1B2" rx="11" ry="11" style="stroke:#181818;stroke-width:1;"/><path d="M97.9,308.4219 C99.0719,308.4219 100.3063,308.1563 101.6813,307.5469 L101.1969,306.0313 C100.1031,306.4531 99.0875,306.6406 98.2281,306.6406 C95.5094,306.6406 93.7906,304.7969 93.7906,301.8906 C93.7906,299.1406 95.3531,297.5469 98.0875,297.5469 C99.0094,297.5469 100.025,297.7344 101.1656,298.1563 L101.7438,296.6406 C100.65,296.0625 99.3531,295.7656 98.1656,295.7656 C94.4,295.7656 91.8219,298.4063 91.8219,302.2188 C91.8219,305.8906 94.3063,308.4219 97.9,308.4219 Z " fill="#000000"/><text fill="#808080" font-family="sans-serif" font-size="14" lengthAdjust="spacing" textLength="96.0256" x="111.9" y="307.362">Proper_interval</text><rect fill="#FFFFFF" height="16.4001" style="stroke:#181818;stroke-width:1;stroke-dasharray:2,2;" width="8.7921" x="215.9256" y="283"/><text fill="#000000" font-family="sans-serif" font-size="12" font-style="italic" lengthAdjust="spacing" textLength="6.7921" x="216.9256" y="295.7961">T</text><line style="stroke:#808080;stroke-width:1;stroke-dasharray:1,3;" x1="83.9" x2="220.7177" y1="318" y2="318"/><line style="stroke:#808080;stroke-width:1;stroke-dasharray:1,3;" x1="83.9" x2="220.7177" y1="326" y2="326"/></g><!--class Interval--><g class="entity" data-entity="Interval" data-source-line="12" data-uid="ent0004" id="entity_Interval"><rect fill="#F5F5F5" height="215.9993" rx="2.5" ry="2.5" style="stroke:#808080;stroke-width:1;stroke-dasharray:1,3;" width="290.627" x="7" y="10"/><ellipse cx="119.0776" cy="26" fill="#A9DCDF" rx="11" ry="11" style="stroke:#181818;stroke-width:1;"/><path d="M113.5932,31.5 L115.6244,31.5 L119.6713,20.1563 L118.7651,20.1563 L122.5932,31.5 L124.7338,31.5 L120.4057,19.1719 L118.1869,19.1719 L113.5932,31.5 Z M115.9213,28 L122.3588,28 L122.3588,26.25 L115.9213,26.25 L115.9213,28 Z " fill="#000000"/><text fill="#808080" font-family="sans-serif" font-size="14" font-style="italic" lengthAdjust="spacing" textLength="47.1798" x="139.5776" y="31.362">Interval</text><rect fill="#FFFFFF" height="16.4001" style="stroke:#181818;stroke-width:1;stroke-dasharray:2,2;" width="8.7921" x="291.835" y="7"/><text fill="#000000" font-family="sans-serif" font-size="12" font-style="italic" lengthAdjust="spacing" textLength="6.7921" x="292.835" y="19.7961">T</text><line style="stroke:#808080;stroke-width:1;stroke-dasharray:1,3;" x1="8" x2="296.627" y1="42" y2="42"/><ellipse cx="18" cy="55.9" fill="none" rx="3" ry="3" style="stroke:#038048;stroke-width:1;"/><text fill="#808080" font-family="sans-serif" font-size="14" lengthAdjust="spacing" textLength="87.6956" x="27" y="59.7619">lower : T [0..1]</text><ellipse cx="18" cy="72.6999" fill="none" rx="3" ry="3" style="stroke:#038048;stroke-width:1;"/><text fill="#808080" font-family="sans-serif" font-size="14" lengthAdjust="spacing" textLength="88.7036" x="27" y="76.5619">upper : T [0..1]</text><ellipse cx="18" cy="89.4998" fill="none" rx="3" ry="3" style="stroke:#038048;stroke-width:1;"/><text fill="#808080" font-family="sans-serif" font-size="14" lengthAdjust="spacing" textLength="192.8632" x="27" y="93.3618">lower_unbounded : Boolean [1]</text><ellipse cx="18" cy="106.2997" fill="none" rx="3" ry="3" style="stroke:#038048;stroke-width:1;"/><text fill="#808080" font-family="sans-serif" font-size="14" lengthAdjust="spacing" textLength="193.8712" x="27" y="110.1617">upper_unbounded : Boolean [1]</text><ellipse cx="18" cy="123.0997" fill="none" rx="3" ry="3" style="stroke:#038048;stroke-width:1;"/><text fill="#808080" font-family="sans-serif" font-size="14" lengthAdjust="spacing" textLength="175.0693" x="27" y="126.9616">lower_included : Boolean [1]</text><ellipse cx="18" cy="139.8996" fill="none" rx="3" ry="3" style="stroke:#038048;stroke-width:1;"/><text fill="#808080" font-family="sans-serif" font-size="14" lengthAdjust="spacing" textLength="176.0773" x="27" y="143.7616">upper_included : Boolean [1]</text><line style="stroke:#808080;stroke-width:1;stroke-dasharray:1,3;" x1="8" x2="296.627" y1="150.7996" y2="150.7996"/><ellipse cx="18" cy="164.6995" fill="#84BE84" rx="3" ry="3" style="stroke:#038048;stroke-width:1;"/><text fill="#808080" font-family="sans-serif" font-size="14" font-style="italic" lengthAdjust="spacing" textLength="159.6834" x="27" y="168.5615">has( e : T [1] ) : Boolean [1]</text><ellipse cx="18" cy="181.4995" fill="#84BE84" rx="3" ry="3" style="stroke:#038048;stroke-width:1;"/><text fill="#808080" font-family="sans-serif" font-size="14" font-style="italic" lengthAdjust="spacing" textLength="264.627" x="27" y="185.3614">intersects( other : Interval [1] ) : Boolean [1]</text><ellipse cx="18" cy="198.2994" fill="#84BE84" rx="3" ry="3" style="stroke:#038048;stroke-width:1;"/><text fill="#808080" font-family="sans-serif" font-size="14" font-style="italic" lengthAdjust="spacing" textLength="256.059" x="27" y="202.1614">contains( other : Interval [1] ) : Boolean [1]</text><ellipse cx="18" cy="215.0993" fill="#84BE84" rx="3" ry="3" style="stroke:#038048;stroke-width:1;"/><text fill="#808080" font-family="sans-serif" font-size="14" font-style="italic" lengthAdjust="spacing" textLength="230.9711" x="27" y="218.9613">is_equal( other : Any [1] ) : Boolean [1]</text></g><!--reverse link Interval to Proper_interval--><g class="link" data-entity-1="Interval" data-entity-2="Proper_interval" data-source-line="25" data-uid="lnk5" id="link_Interval_Proper_interval"><path codeLine="25" d="M152.31,244.49 C152.31,266.83 152.31,270.22 152.31,285.63" fill="none" id="Interval-backto-Proper_interval" style="stroke:#181818;stroke-width:1;"/><polygon fill="none" points="152.31,226.49,146.31,244.49,158.31,244.49,152.31,226.49" style="stroke:#181818;stroke-width:1;"/></g><!--reverse link Proper_interval to Multiplicity_interval--><g class="link" data-entity-1="Proper_interval" data-entity-2="Multiplicity_interval" data-source-line="27" data-uid="lnk6" id="link_Proper_interval_Multiplicity_interval"><path codeLine="27" d="M152.31,352.37 C152.31,368.59 152.31,372.93 152.31,393.7" fill="none" id="Proper_interval-backto-Multiplicity_interval" style="stroke:#181818;stroke-width:1;"/><polygon fill="none" points="152.31,334.37,146.31,352.37,158.31,352.37,152.31,334.37" style="stroke:#181818;stroke-width:1;"/></g></g></svg>
