<svg xmlns="http://www.w3.org/2000/svg" xmlns:xlink="http://www.w3.org/1999/xlink" contentStyleType="text/css" data-diagram-type="CLASS" height="532px" preserveAspectRatio="none" style="width:308px;height:532px;background:#FFFFFF;" version="1.1" viewBox="0 0 308 532" width="308px" zoomAndPan="magnify"><defs/><g><!--class Multiplicity_interval--><g class="entity" data-entity="Multiplicity_interval" data-source-line="2" data-uid="ent0002" id="entity_Multiplicity_interval"><rect fill="#F1F1F1" height="115.1997" rx="2.5" ry="2.5" style="stroke:#181818;stroke-width:0.5;" width="198.6473" x="52.99" y="410.8"/><ellipse cx="87.5415" cy="426.8" fill="#ADD1B2" rx="11" ry="11" style="stroke:#181818;stroke-width:1;"/><path d="M87.5415,433.2219 C88.7134,433.2219 89.9478,432.9563 91.3228,432.3469 L90.8384,430.8313 C89.7446,431.2531 88.729,431.4406 87.8696,431.4406 C85.1509,431.4406 83.4321,429.5969 83.4321,426.6906 C83.4321,423.9406 84.9946,422.3469 87.729,422.3469 C88.6509,422.3469 89.6665,422.5344 90.8071,422.9563 L91.3853,421.4406 C90.2915,420.8625 88.9946,420.5656 87.8071,420.5656 C84.0415,420.5656 81.4634,423.2063 81.4634,427.0188 C81.4634,430.6906 83.9478,433.2219 87.5415,433.2219 Z " fill="#000000"/><text fill="#000000" font-family="sans-serif" font-size="14" lengthAdjust="spacing" textLength="123.1995" x="105.8863" y="432.162">Multiplicity_interval</text><line style="stroke:#181818;stroke-width:0.5;" x1="53.99" x2="250.6373" y1="442.8" y2="442.8"/><line style="stroke:#181818;stroke-width:0.5;" x1="53.99" x2="250.6373" y1="450.8" y2="450.8"/><ellipse cx="63.99" cy="464.7" fill="#84BE84" rx="3" ry="3" style="stroke:#038048;stroke-width:1;"/><text fill="#000000" font-family="sans-serif" font-size="14" lengthAdjust="spacing" textLength="136.2615" x="72.99" y="468.5619">is_open() : Boolean [1]</text><ellipse cx="63.99" cy="481.4999" fill="#84BE84" rx="3" ry="3" style="stroke:#038048;stroke-width:1;"/><text fill="#000000" font-family="sans-serif" font-size="14" lengthAdjust="spacing" textLength="156.3654" x="72.99" y="485.3619">is_optional() : Boolean [1]</text><ellipse cx="63.99" cy="498.2998" fill="#84BE84" rx="3" ry="3" style="stroke:#038048;stroke-width:1;"/><text fill="#000000" font-family="sans-serif" font-size="14" lengthAdjust="spacing" textLength="172.6473" x="72.99" y="502.1618">is_mandatory() : Boolean [1]</text><ellipse cx="63.99" cy="515.0997" fill="#84BE84" rx="3" ry="3" style="stroke:#038048;stroke-width:1;"/><text fill="#000000" font-family="sans-serif" font-size="14" lengthAdjust="spacing" textLength="169.4413" x="72.99" y="518.9617">is_prohibited() : Boolean [1]</text></g><!--class Proper_interval--><g class="entity" data-entity="Proper_interval" data-source-line="9" data-uid="ent0003" id="entity_Proper_interval"><rect fill="#F5F5F5" height="64.7999" rx="2.5" ry="2.5" style="stroke:#808080;stroke-width:1;stroke-dasharray:1,3;" width="138.8177" x="82.9" y="286"/><ellipse cx="97.9" cy="302" fill="#ADD1B2" rx="11" ry="11" style="stroke:#181818;stroke-width:1;"/><path d="M97.9,308.4219 C99.0719,308.4219 100.3063,308.1563 101.6813,307.5469 L101.1969,306.0313 C100.1031,306.4531 99.0875,306.6406 98.2281,306.6406 C95.5094,306.6406 93.7906,304.7969 93.7906,301.8906 C93.7906,299.1406 95.3531,297.5469 98.0875,297.5469 C99.0094,297.5469 100.025,297.7344 101.1656,298.1563 L101.7438,296.6406 C100.65,296.0625 99.3531,295.7656 98.1656,295.7656 C94.4,295.7656 91.8219,298.4063 91.8219,302.2188 C91.8219,305.8906 94.3063,308.4219 97.9,308.4219 Z " fill="#000000"/><text fill="#808080" font-family="sans-serif" font-size="14" lengthAdjust="spacing" textLength="96.0256" x="111.9" y="307.362">Proper_interval</text><rect fill="#FFFFFF" height="16.4001" style="stroke:#181818;stroke-width:1;stroke-dasharray:2,2;" width="8.7921" x="215.9256" y="283"/><text fill="#000000" font-family="sans-serif" font-size="12" font-style="italic" lengthAdjust="spacing" textLength="6.7921" x="216.9256" y="295.7961">T</text><line style="stroke:#808080;stroke-width:1;stroke-dasharray:1,3;" x1="83.9" x2="220.7177" y1="318" y2="318"/><ellipse cx="93.9" cy="331.9" fill="none" rx="3" ry="3" style="stroke:#038048;stroke-width:1;"/><text fill="#808080" font-family="sans-serif" font-size="14" lengthAdjust="spacing" textLength="88.7036" x="102.9" y="335.7619">upper : T [0..1]</text><line style="stroke:#808080;stroke-width:1;stroke-dasharray:1,3;" x1="83.9" x2="220.7177" y1="342.7999" y2="342.7999"/></g><!--class Interval--><g class="entity" data-entity="Interval" data-source-line="13" data-uid="ent0004" id="entity_Interval"><rect fill="#F5F5F5" height="215.9993" rx="2.5" ry="2.5" style="stroke:#808080;stroke-width:1;stroke-dasharray:1,3;" width="290.627" x="7" y="10"/><ellipse cx="119.0776" cy="26" fill="#A9DCDF" rx="11" ry="11" style="stroke:#181818;stroke-width:1;"/><path d="M113.5932,31.5 L115.6244,31.5 L119.6713,20.1563 L118.7651,20.1563 L122.5932,31.5 L124.7338,31.5 L120.4057,19.1719 L118.1869,19.1719 L113.5932,31.5 Z M115.9213,28 L122.3588,28 L122.3588,26.25 L115.9213,26.25 L115.9213,28 Z " fill="#000000"/><text fill="#808080" font-family="sans-serif" font-size="14" font-style="italic" lengthAdjust="spacing" textLength="47.1798" x="139.5776" y="31.362">Interval</text><rect fill="#FFFFFF" height="16.4001" style="stroke:#181818;stroke-width:1;stroke-dasharray:2,2;" width="8.7921" x="291.835" y="7"/><text fill="#000000" font-family="sans-serif" font-size="12" font-style="italic" lengthAdjust="spacing" textLength="6.7921" x="292.835" y="19.7961">T</text><line style="stroke:#808080;stroke-width:1;stroke-dasharray:1,3;" x1="8" x2="296.627" y1="42" y2="42"/><ellipse cx="18" cy="55.9" fill="none" rx="3" ry="3" style="stroke:#038048;stroke-width:1;"/><text fill="#808080" font-family="sans-serif" font-size="14" lengthAdjust="spacing" textLength="87.6956" x="27" y="59.7619">lower : T [0..1]</text><ellipse cx="18" cy="72.6999" fill="none" rx="3" ry="3" style="stroke:#038048;stroke-width:1;"/><text fill="#808080" font-family="sans-serif" font-size="14" lengthAdjust="spacing" textLength="192.8632" x="27" y="76.5619">lower_unbounded : Boolean [1]</text><ellipse cx="18" cy="89.4998" fill="none" rx="3" ry="3" style="stroke:#038048;stroke-width:1;"/><text fill="#808080" font-family="sans-serif" font-size="14" lengthAdjust="spacing" textLength="193.8712" x="27" y="93.3618">upper_unbounded : Boolean [1]</text><ellipse cx="18" cy="106.2997" fill="none" rx="3" ry="3" style="stroke:#038048;stroke-width:1;"/><text fill="#808080" font-family="sans-serif" font-size="14" lengthAdjust="spacing" textLength="175.0693" x="27" y="110.1617">lower_included : Boolean [1]</text><ellipse cx="18" cy="123.0997" fill="none" rx="3" ry="3" style="stroke:#038048;stroke-width:1;"/><text fill="#808080" font-family="sans-serif" font-size="14" lengthAdjust="spacing" textLength="176.0773" x="27" y="126.9616">upper_included : Boolean [1]</text><line style="stroke:#808080;stroke-width:1;stroke-dasharray:1,3;" x1="8" x2="296.627" y1="133.9996" y2="133.9996"/><ellipse cx="18" cy="147.8996" fill="#84BE84" rx="3" ry="3" style="stroke:#038048;stroke-width:1;"/><text fill="#808080" font-family="sans-serif" font-size="14" lengthAdjust="spacing" textLength="159.6834" x="27" y="151.7616">has( e : T [1] ) : Boolean [1]</text><ellipse cx="18" cy="164.6995" fill="#84BE84" rx="3" ry="3" style="stroke:#038048;stroke-width:1;"/><text fill="#808080" font-family="sans-serif" font-size="14" lengthAdjust="spacing" textLength="264.627" x="27" y="168.5615">intersects( other : Interval [1] ) : Boolean [1]</text><ellipse cx="18" cy="181.4995" fill="#84BE84" rx="3" ry="3" style="stroke:#038048;stroke-width:1;"/><text fill="#808080" font-family="sans-serif" font-size="14" lengthAdjust="spacing" textLength="256.059" x="27" y="185.3614">contains( other : Interval [1] ) : Boolean [1]</text><ellipse cx="18" cy="198.2994" fill="#84BE84" rx="3" ry="3" style="stroke:#038048;stroke-width:1;"/><text fill="#808080" font-family="sans-serif" font-size="14" lengthAdjust="spacing" textLength="230.9711" x="27" y="202.1614">is_equal( other : Any [1] ) : Boolean [1]</text><ellipse cx="18" cy="215.0993" fill="#84BE84" rx="3" ry="3" style="stroke:#038048;stroke-width:1;"/><text fill="#808080" font-family="sans-serif" font-size="14" font-style="italic" lengthAdjust="spacing" textLength="97.1316" x="27" y="218.9613">upper() : T [0..1]</text></g><!--reverse link Interval to Proper_interval--><g class="link" data-entity-1="Interval" data-entity-2="Proper_interval" data-source-line="26" data-uid="lnk5" id="link_Interval_Proper_interval"><path codeLine="26" d="M152.31,244.33 C152.31,266.06 152.31,269.27 152.31,285.74" fill="none" id="Interval-backto-Proper_interval" style="stroke:#181818;stroke-width:1;"/><polygon fill="none" points="152.31,226.33,146.31,244.33,158.31,244.33,152.31,226.33" style="stroke:#181818;stroke-width:1;"/></g><!--reverse link Proper_interval to Multiplicity_interval--><g class="link" data-entity-1="Proper_interval" data-entity-2="Multiplicity_interval" data-source-line="28" data-uid="lnk6" id="link_Proper_interval_Multiplicity_interval"><path codeLine="28" d="M152.31,369.15 C152.31,386.39 152.31,390.24 152.31,410.32" fill="none" id="Proper_interval-backto-Multiplicity_interval" style="stroke:#181818;stroke-width:1;"/><polygon fill="none" points="152.31,351.15,146.31,369.15,158.31,369.15,152.31,351.15" style="stroke:#181818;stroke-width:1;"/></g></g></svg>
