<svg xmlns="http://www.w3.org/2000/svg" xmlns:xlink="http://www.w3.org/1999/xlink" contentStyleType="text/css" data-diagram-type="CLASS" height="119px" preserveAspectRatio="none" style="width:296px;height:119px;background:#FFFFFF;" version="1.1" viewBox="0 0 296 119" width="296px" zoomAndPan="magnify"><defs/><g><!--class Numeric--><g class="entity" data-entity="Numeric" data-source-line="2" data-uid="ent0002" id="entity_Numeric"><rect fill="#F1F1F1" height="98.3998" rx="2.5" ry="2.5" style="stroke:#181818;stroke-width:0.5;" width="275.367" x="7" y="7"/><ellipse cx="113.7496" cy="23" fill="#A9DCDF" rx="11" ry="11" style="stroke:#181818;stroke-width:1;"/><path d="M108.2652,28.5 L110.2965,28.5 L114.3434,17.1563 L113.4371,17.1563 L117.2652,28.5 L119.4059,28.5 L115.0777,16.1719 L112.859,16.1719 L108.2652,28.5 Z M110.5934,25 L117.0309,25 L117.0309,23.25 L110.5934,23.25 L110.5934,25 Z " fill="#000000"/><text fill="#000000" font-family="sans-serif" font-size="14" font-style="italic" lengthAdjust="spacing" textLength="53.3678" x="134.2496" y="28.362">Numeric</text><line style="stroke:#181818;stroke-width:0.5;" x1="8" x2="281.367" y1="39" y2="39"/><line style="stroke:#181818;stroke-width:0.5;" x1="8" x2="281.367" y1="47" y2="47"/><ellipse cx="18" cy="60.9" fill="#84BE84" rx="3" ry="3" style="stroke:#038048;stroke-width:1;"/><text fill="#000000" font-family="sans-serif" font-size="14" font-style="italic" lengthAdjust="spacing" textLength="247.813" x="27" y="64.7619">infix *( other : Numeric [1] ) : Numeric [1]</text><ellipse cx="18" cy="77.6999" fill="#84BE84" rx="3" ry="3" style="stroke:#038048;stroke-width:1;"/><text fill="#000000" font-family="sans-serif" font-size="14" font-style="italic" lengthAdjust="spacing" textLength="249.367" x="27" y="81.5619">infix +( other : Numeric [1] ) : Numeric [1]</text><ellipse cx="18" cy="94.4998" fill="#84BE84" rx="3" ry="3" style="stroke:#038048;stroke-width:1;"/><text fill="#000000" font-family="sans-serif" font-size="14" font-style="italic" lengthAdjust="spacing" textLength="247.183" x="27" y="98.3618">infix -( other : Numeric [1] ) : Numeric [1]</text></g></g></svg>
