<svg xmlns="http://www.w3.org/2000/svg" xmlns:xlink="http://www.w3.org/1999/xlink" contentStyleType="text/css" data-diagram-type="CLASS" height="169px" preserveAspectRatio="none" style="width:317px;height:169px;background:#FFFFFF;" version="1.1" viewBox="0 0 317 169" width="317px" zoomAndPan="magnify"><defs/><g><!--class Numeric--><g class="entity" data-entity="Numeric" data-source-line="2" data-uid="ent0002" id="entity_Numeric"><rect fill="#F1F1F1" height="148.7996" rx="2.5" ry="2.5" style="stroke:#181818;stroke-width:0.5;" width="296.2269" x="7" y="7"/><ellipse cx="124.1796" cy="23" fill="#A9DCDF" rx="11" ry="11" style="stroke:#181818;stroke-width:1;"/><path d="M118.6952,28.5 L120.7264,28.5 L124.7733,17.1563 L123.8671,17.1563 L127.6952,28.5 L129.8358,28.5 L125.5077,16.1719 L123.2889,16.1719 L118.6952,28.5 Z M121.0233,25 L127.4608,25 L127.4608,23.25 L121.0233,23.25 L121.0233,25 Z " fill="#000000"/><text fill="#000000" font-family="sans-serif" font-size="14" font-style="italic" lengthAdjust="spacing" textLength="53.3678" x="144.6796" y="28.362">Numeric</text><line style="stroke:#181818;stroke-width:0.5;" x1="8" x2="302.2269" y1="39" y2="39"/><line style="stroke:#181818;stroke-width:0.5;" x1="8" x2="302.2269" y1="47" y2="47"/><ellipse cx="18" cy="60.9" fill="#84BE84" rx="3" ry="3" style="stroke:#038048;stroke-width:1;"/><text fill="#000000" font-family="sans-serif" font-size="14" font-style="italic" lengthAdjust="spacing" textLength="235.1431" x="27" y="64.7619">add( other : Numeric [1] ) : Numeric [1]</text><ellipse cx="18" cy="77.6999" fill="#84BE84" rx="3" ry="3" style="stroke:#038048;stroke-width:1;"/><text fill="#000000" font-family="sans-serif" font-size="14" font-style="italic" lengthAdjust="spacing" textLength="263.395" x="27" y="81.5619">subtract( other : Numeric [1] ) : Numeric [1]</text><ellipse cx="18" cy="94.4998" fill="#84BE84" rx="3" ry="3" style="stroke:#038048;stroke-width:1;"/><text fill="#000000" font-family="sans-serif" font-size="14" font-style="italic" lengthAdjust="spacing" textLength="263.2269" x="27" y="98.3618">multiply( other : Numeric [1] ) : Numeric [1]</text><ellipse cx="18" cy="111.2997" fill="#84BE84" rx="3" ry="3" style="stroke:#038048;stroke-width:1;"/><text fill="#000000" font-family="sans-serif" font-size="14" font-style="italic" lengthAdjust="spacing" textLength="248.975" x="27" y="115.1617">divide( other : Numeric [1] ) : Numeric [1]</text><ellipse cx="18" cy="128.0997" fill="#84BE84" rx="3" ry="3" style="stroke:#038048;stroke-width:1;"/><text fill="#000000" font-family="sans-serif" font-size="14" font-style="italic" lengthAdjust="spacing" textLength="270.2269" x="27" y="131.9616">exponent( other : Numeric [1] ) : Numeric [1]</text><ellipse cx="18" cy="144.8996" fill="#84BE84" rx="3" ry="3" style="stroke:#038048;stroke-width:1;"/><text fill="#000000" font-family="sans-serif" font-size="14" font-style="italic" lengthAdjust="spacing" textLength="143.4294" x="27" y="148.7616">negative() : Numeric [1]</text></g></g></svg>
