<svg xmlns="http://www.w3.org/2000/svg" xmlns:xlink="http://www.w3.org/1999/xlink" contentStyleType="text/css" data-diagram-type="CLASS" height="412px" preserveAspectRatio="none" style="width:291px;height:412px;background:#FFFFFF;" version="1.1" viewBox="0 0 291 412" width="291px" zoomAndPan="magnify"><defs/><g><!--class OBJECT_VERSION_ID--><g class="entity" data-entity="OBJECT_VERSION_ID" data-source-line="2" data-uid="ent0002" id="entity_OBJECT_VERSION_ID"><rect fill="#F1F1F1" height="115.1997" rx="2.5" ry="2.5" style="stroke:#181818;stroke-width:0.5;" width="277.285" x="7" y="290.2"/><ellipse cx="73.5068" cy="306.2" fill="#ADD1B2" rx="11" ry="11" style="stroke:#181818;stroke-width:1;"/><path d="M73.5068,312.6219 C74.6786,312.6219 75.913,312.3563 77.288,311.7469 L76.8036,310.2313 C75.7099,310.6531 74.6943,310.8406 73.8349,310.8406 C71.1161,310.8406 69.3974,308.9969 69.3974,306.0906 C69.3974,303.3406 70.9599,301.7469 73.6943,301.7469 C74.6161,301.7469 75.6318,301.9344 76.7724,302.3563 L77.3505,300.8406 C76.2568,300.2625 74.9599,299.9656 73.7724,299.9656 C70.0068,299.9656 67.4286,302.6063 67.4286,306.4188 C67.4286,310.0906 69.913,312.6219 73.5068,312.6219 Z " fill="#000000"/><text fill="#000000" font-family="sans-serif" font-size="14" lengthAdjust="spacing" textLength="135.7715" x="94.0068" y="311.562">OBJECT_VERSION_ID</text><line style="stroke:#181818;stroke-width:0.5;" x1="8" x2="283.285" y1="322.2" y2="322.2"/><line style="stroke:#181818;stroke-width:0.5;" x1="8" x2="283.285" y1="330.2" y2="330.2"/><ellipse cx="18" cy="344.1" fill="#84BE84" rx="3" ry="3" style="stroke:#038048;stroke-width:1;"/><text fill="#000000" font-family="sans-serif" font-size="14" lengthAdjust="spacing" textLength="116.8296" x="27" y="347.9619">object_id() : UID [1]</text><ellipse cx="18" cy="360.8999" fill="#84BE84" rx="3" ry="3" style="stroke:#038048;stroke-width:1;"/><text fill="#000000" font-family="sans-serif" font-size="14" lengthAdjust="spacing" textLength="180.8373" x="27" y="364.7619">creating_system_id() : UID [1]</text><ellipse cx="18" cy="377.6998" fill="#84BE84" rx="3" ry="3" style="stroke:#038048;stroke-width:1;"/><text fill="#000000" font-family="sans-serif" font-size="14" lengthAdjust="spacing" textLength="251.285" x="27" y="381.5618">version_tree_id() : VERSION_TREE_ID [1]</text><ellipse cx="18" cy="394.4997" fill="#84BE84" rx="3" ry="3" style="stroke:#038048;stroke-width:1;"/><text fill="#000000" font-family="sans-serif" font-size="14" lengthAdjust="spacing" textLength="147.8394" x="27" y="398.3617">is_branch() : Boolean [1]</text></g><!--class UID_BASED_ID--><g class="entity" data-entity="UID_BASED_ID" data-source-line="9" data-uid="ent0003" id="entity_UID_BASED_ID"><rect fill="#F5F5F5" height="98.3998" rx="2.5" ry="2.5" style="stroke:#808080;stroke-width:1;stroke-dasharray:1,3;" width="202.8193" x="44.23" y="131.8"/><ellipse cx="94.2728" cy="147.8" fill="#A9DCDF" rx="11" ry="11" style="stroke:#181818;stroke-width:1;"/><path d="M88.7885,153.3 L90.8197,153.3 L94.8666,141.9562 L93.9603,141.9562 L97.7885,153.3 L99.9291,153.3 L95.601,140.9719 L93.3822,140.9719 L88.7885,153.3 Z M91.1166,149.8 L97.5541,149.8 L97.5541,148.05 L91.1166,148.05 L91.1166,149.8 Z " fill="#000000"/><text fill="#808080" font-family="sans-serif" font-size="14" font-style="italic" lengthAdjust="spacing" textLength="94.2336" x="114.7728" y="153.162">UID_BASED_ID</text><line style="stroke:#808080;stroke-width:1;stroke-dasharray:1,3;" x1="45.23" x2="246.0493" y1="163.8" y2="163.8"/><line style="stroke:#808080;stroke-width:1;stroke-dasharray:1,3;" x1="45.23" x2="246.0493" y1="171.8" y2="171.8"/><ellipse cx="55.23" cy="185.7" fill="#84BE84" rx="3" ry="3" style="stroke:#038048;stroke-width:1;"/><text fill="#808080" font-family="sans-serif" font-size="14" lengthAdjust="spacing" textLength="86.2677" x="64.23" y="189.5619">root() : UID [1]</text><ellipse cx="55.23" cy="202.4999" fill="#84BE84" rx="3" ry="3" style="stroke:#038048;stroke-width:1;"/><text fill="#808080" font-family="sans-serif" font-size="14" lengthAdjust="spacing" textLength="134.5675" x="64.23" y="206.3619">extension() : String [1]</text><ellipse cx="55.23" cy="219.2998" fill="#84BE84" rx="3" ry="3" style="stroke:#038048;stroke-width:1;"/><text fill="#808080" font-family="sans-serif" font-size="14" lengthAdjust="spacing" textLength="176.8193" x="64.23" y="223.1618">has_extension() : Boolean [1]</text></g><!--class OBJECT_ID--><g class="entity" data-entity="OBJECT_ID" data-source-line="15" data-uid="ent0004" id="entity_OBJECT_ID"><rect fill="#F5F5F5" height="64.7999" rx="2.5" ry="2.5" style="stroke:#808080;stroke-width:1;stroke-dasharray:1,3;" width="124.9656" x="83.16" y="7"/><ellipse cx="108.1104" cy="23" fill="#A9DCDF" rx="11" ry="11" style="stroke:#181818;stroke-width:1;"/><path d="M102.626,28.5 L104.6572,28.5 L108.7041,17.1563 L107.7979,17.1563 L111.626,28.5 L113.7666,28.5 L109.4385,16.1719 L107.2197,16.1719 L102.626,28.5 Z M104.9541,25 L111.3916,25 L111.3916,23.25 L104.9541,23.25 L104.9541,25 Z " fill="#000000"/><text fill="#808080" font-family="sans-serif" font-size="14" font-style="italic" lengthAdjust="spacing" textLength="70.8537" x="124.3215" y="28.362">OBJECT_ID</text><line style="stroke:#808080;stroke-width:1;stroke-dasharray:1,3;" x1="84.16" x2="207.1256" y1="39" y2="39"/><ellipse cx="94.16" cy="52.9" fill="none" rx="3" ry="3" style="stroke:#038048;stroke-width:1;"/><text fill="#808080" font-family="sans-serif" font-size="14" lengthAdjust="spacing" textLength="98.9656" x="103.16" y="56.7619">value : String [1]</text><line style="stroke:#808080;stroke-width:1;stroke-dasharray:1,3;" x1="84.16" x2="207.1256" y1="63.7999" y2="63.7999"/></g><!--reverse link OBJECT_ID to UID_BASED_ID--><g class="link" data-entity-1="OBJECT_ID" data-entity-2="UID_BASED_ID" data-source-line="19" data-uid="lnk5" id="link_OBJECT_ID_UID_BASED_ID"><path codeLine="19" d="M145.64,90.08 C145.64,107.61 145.64,111.78 145.64,131.46" fill="none" id="OBJECT_ID-backto-UID_BASED_ID" style="stroke:#181818;stroke-width:1;"/><polygon fill="none" points="145.64,72.08,139.64,90.08,151.64,90.08,145.64,72.08" style="stroke:#181818;stroke-width:1;"/></g><!--reverse link UID_BASED_ID to OBJECT_VERSION_ID--><g class="link" data-entity-1="UID_BASED_ID" data-entity-2="OBJECT_VERSION_ID" data-source-line="21" data-uid="lnk6" id="link_UID_BASED_ID_OBJECT_VERSION_ID"><path codeLine="21" d="M145.64,248.55 C145.64,267.16 145.64,270.56 145.64,289.88" fill="none" id="UID_BASED_ID-backto-OBJECT_VERSION_ID" style="stroke:#181818;stroke-width:1;"/><polygon fill="none" points="145.64,230.55,139.64,248.55,151.64,248.55,145.64,230.55" style="stroke:#181818;stroke-width:1;"/></g></g></svg>
