<svg xmlns="http://www.w3.org/2000/svg" xmlns:xlink="http://www.w3.org/1999/xlink" contentStyleType="text/css" data-diagram-type="CLASS" height="186px" preserveAspectRatio="none" style="width:285px;height:186px;background:#FFFFFF;" version="1.1" viewBox="0 0 285 186" width="285px" zoomAndPan="magnify"><defs/><g><!--class Octet--><g class="entity" data-entity="Octet" data-source-line="2" data-uid="ent0002" id="entity_Octet"><rect fill="#F1F1F1" height="48" rx="2.5" ry="2.5" style="stroke:#181818;stroke-width:0.5;" width="66.6779" x="109.49" y="131.8"/><ellipse cx="124.49" cy="147.8" fill="#ADD1B2" rx="11" ry="11" style="stroke:#181818;stroke-width:1;"/><path d="M124.49,154.2219 C125.6619,154.2219 126.8963,153.9563 128.2713,153.3469 L127.7869,151.8313 C126.6931,152.2531 125.6775,152.4406 124.8181,152.4406 C122.0994,152.4406 120.3806,150.5969 120.3806,147.6906 C120.3806,144.9406 121.9431,143.3469 124.6775,143.3469 C125.5994,143.3469 126.615,143.5344 127.7556,143.9563 L128.3338,142.4406 C127.24,141.8625 125.9431,141.5656 124.7556,141.5656 C120.99,141.5656 118.4119,144.2063 118.4119,148.0188 C118.4119,151.6906 120.8963,154.2219 124.49,154.2219 Z " fill="#000000"/><text fill="#000000" font-family="sans-serif" font-size="14" lengthAdjust="spacing" textLength="34.6779" x="138.49" y="153.162">Octet</text><line style="stroke:#181818;stroke-width:0.5;" x1="110.49" x2="175.1679" y1="163.8" y2="163.8"/><line style="stroke:#181818;stroke-width:0.5;" x1="110.49" x2="175.1679" y1="171.8" y2="171.8"/></g><!--class Ordered--><g class="entity" data-entity="Ordered" data-source-line="5" data-uid="ent0003" id="entity_Ordered"><rect fill="#F5F5F5" height="64.7999" rx="2.5" ry="2.5" style="stroke:#808080;stroke-width:1;stroke-dasharray:1,3;" width="271.657" x="7" y="7"/><ellipse cx="112.6086" cy="23" fill="#A9DCDF" rx="11" ry="11" style="stroke:#181818;stroke-width:1;"/><path d="M107.1243,28.5 L109.1555,28.5 L113.2024,17.1563 L112.2961,17.1563 L116.1243,28.5 L118.2649,28.5 L113.9368,16.1719 L111.718,16.1719 L107.1243,28.5 Z M109.4524,25 L115.8899,25 L115.8899,23.25 L109.4524,23.25 L109.4524,25 Z " fill="#000000"/><text fill="#808080" font-family="sans-serif" font-size="14" font-style="italic" lengthAdjust="spacing" textLength="51.9398" x="133.1086" y="28.362">Ordered</text><line style="stroke:#808080;stroke-width:1;stroke-dasharray:1,3;" x1="8" x2="277.657" y1="39" y2="39"/><line style="stroke:#808080;stroke-width:1;stroke-dasharray:1,3;" x1="8" x2="277.657" y1="47" y2="47"/><ellipse cx="18" cy="60.9" fill="#84BE84" rx="3" ry="3" style="stroke:#038048;stroke-width:1;"/><text fill="#808080" font-family="sans-serif" font-size="14" font-style="italic" lengthAdjust="spacing" textLength="245.657" x="27" y="64.7619">infix &lt;( other : Ordered [1] ) : Boolean [1]</text></g><!--reverse link Ordered to Octet--><g class="link" data-entity-1="Ordered" data-entity-2="Octet" data-source-line="9" data-uid="lnk4" id="link_Ordered_Octet"><path codeLine="9" d="M142.83,90.27 C142.83,109.04 142.83,114.38 142.83,131.45" fill="none" id="Ordered-backto-Octet" style="stroke:#181818;stroke-width:1;"/><polygon fill="none" points="142.83,72.27,136.83,90.27,148.83,90.27,142.83,72.27" style="stroke:#181818;stroke-width:1;"/></g></g></svg>
