<svg xmlns="http://www.w3.org/2000/svg" xmlns:xlink="http://www.w3.org/1999/xlink" contentStyleType="text/css" data-diagram-type="CLASS" height="170px" preserveAspectRatio="none" style="width:202px;height:170px;background:#FFFFFF;" version="1.1" viewBox="0 0 202 170" width="202px" zoomAndPan="magnify"><defs/><g><!--class OPENEHR_DEFINITIONS--><g class="entity" data-entity="OPENEHR_DEFINITIONS" data-source-line="2" data-uid="ent0002" id="entity_OPENEHR_DEFINITIONS"><rect fill="#F1F1F1" height="48" rx="2.5" ry="2.5" style="stroke:#181818;stroke-width:0.5;" width="188.0574" x="7" y="115"/><ellipse cx="22" cy="131" fill="#ADD1B2" rx="11" ry="11" style="stroke:#181818;stroke-width:1;"/><path d="M22,137.4219 C23.1719,137.4219 24.4063,137.1563 25.7813,136.5469 L25.2969,135.0313 C24.2031,135.4531 23.1875,135.6406 22.3281,135.6406 C19.6094,135.6406 17.8906,133.7969 17.8906,130.8906 C17.8906,128.1406 19.4531,126.5469 22.1875,126.5469 C23.1094,126.5469 24.125,126.7344 25.2656,127.1563 L25.8438,125.6406 C24.75,125.0625 23.4531,124.7656 22.2656,124.7656 C18.5,124.7656 15.9219,127.4063 15.9219,131.2188 C15.9219,134.8906 18.4063,137.4219 22,137.4219 Z " fill="#000000"/><text fill="#000000" font-family="sans-serif" font-size="14" lengthAdjust="spacing" textLength="156.0574" x="36" y="136.362">OPENEHR_DEFINITIONS</text><line style="stroke:#181818;stroke-width:0.5;" x1="8" x2="194.0574" y1="147" y2="147"/><line style="stroke:#181818;stroke-width:0.5;" x1="8" x2="194.0574" y1="155" y2="155"/></g><!--class BASIC_DEFINITIONS--><g class="entity" data-entity="BASIC_DEFINITIONS" data-source-line="5" data-uid="ent0003" id="entity_BASIC_DEFINITIONS"><rect fill="#F5F5F5" height="48" rx="2.5" ry="2.5" style="stroke:#808080;stroke-width:1;stroke-dasharray:1,3;" width="161.6255" x="20.22" y="7"/><ellipse cx="35.22" cy="23" fill="#ADD1B2" rx="11" ry="11" style="stroke:#181818;stroke-width:1;"/><path d="M35.22,29.4219 C36.3919,29.4219 37.6263,29.1563 39.0013,28.5469 L38.5169,27.0313 C37.4231,27.4531 36.4075,27.6406 35.5481,27.6406 C32.8294,27.6406 31.1106,25.7969 31.1106,22.8906 C31.1106,20.1406 32.6731,18.5469 35.4075,18.5469 C36.3294,18.5469 37.345,18.7344 38.4856,19.1563 L39.0638,17.6406 C37.97,17.0625 36.6731,16.7656 35.4856,16.7656 C31.72,16.7656 29.1419,19.4063 29.1419,23.2188 C29.1419,26.8906 31.6263,29.4219 35.22,29.4219 Z " fill="#000000"/><text fill="#808080" font-family="sans-serif" font-size="14" lengthAdjust="spacing" textLength="129.6255" x="49.22" y="28.362">BASIC_DEFINITIONS</text><line style="stroke:#808080;stroke-width:1;stroke-dasharray:1,3;" x1="21.22" x2="180.8455" y1="39" y2="39"/><line style="stroke:#808080;stroke-width:1;stroke-dasharray:1,3;" x1="21.22" x2="180.8455" y1="47" y2="47"/></g><!--reverse link BASIC_DEFINITIONS to OPENEHR_DEFINITIONS--><g class="link" data-entity-1="BASIC_DEFINITIONS" data-entity-2="OPENEHR_DEFINITIONS" data-source-line="8" data-uid="lnk4" id="link_BASIC_DEFINITIONS_OPENEHR_DEFINITIONS"><path codeLine="8" d="M101.03,73.26 C101.03,90.94 101.03,97.13 101.03,114.79" fill="none" id="BASIC_DEFINITIONS-backto-OPENEHR_DEFINITIONS" style="stroke:#181818;stroke-width:1;"/><polygon fill="none" points="101.03,55.26,95.03,73.26,107.03,73.26,101.03,55.26" style="stroke:#181818;stroke-width:1;"/></g></g></svg>
