<svg xmlns="http://www.w3.org/2000/svg" xmlns:xlink="http://www.w3.org/1999/xlink" contentStyleType="text/css" data-diagram-type="CLASS" height="102px" preserveAspectRatio="none" style="width:203px;height:102px;background:#FFFFFF;" version="1.1" viewBox="0 0 203 102" width="203px" zoomAndPan="magnify"><defs/><g><!--class OPERATOR_DEF--><g class="entity" data-entity="OPERATOR_DEF" data-source-line="2" data-uid="ent0002" id="entity_OPERATOR_DEF"><rect fill="#F1F1F1" height="81.5999" rx="2.5" ry="2.5" style="stroke:#181818;stroke-width:0.5;" width="182.8694" x="7" y="7"/><ellipse cx="42.7422" cy="23" fill="#ADD1B2" rx="11" ry="11" style="stroke:#181818;stroke-width:1;"/><path d="M42.7422,29.4219 C43.9141,29.4219 45.1485,29.1563 46.5235,28.5469 L46.0391,27.0313 C44.9453,27.4531 43.9297,27.6406 43.0703,27.6406 C40.3516,27.6406 38.6328,25.7969 38.6328,22.8906 C38.6328,20.1406 40.1953,18.5469 42.9297,18.5469 C43.8516,18.5469 44.8672,18.7344 46.0078,19.1563 L46.586,17.6406 C45.4922,17.0625 44.1953,16.7656 43.0078,16.7656 C39.2422,16.7656 36.6641,19.4063 36.6641,23.2188 C36.6641,26.8906 39.1485,29.4219 42.7422,29.4219 Z " fill="#000000"/><text fill="#000000" font-family="sans-serif" font-size="14" lengthAdjust="spacing" textLength="104.7756" x="61.3516" y="28.362">OPERATOR_DEF</text><line style="stroke:#181818;stroke-width:0.5;" x1="8" x2="188.8694" y1="39" y2="39"/><ellipse cx="18" cy="52.9" fill="none" rx="3" ry="3" style="stroke:#038048;stroke-width:1;"/><text fill="#000000" font-family="sans-serif" font-size="14" lengthAdjust="spacing" textLength="122.1075" x="27" y="56.7619">identifier : String [1]</text><ellipse cx="18" cy="69.6999" fill="none" rx="3" ry="3" style="stroke:#038048;stroke-width:1;"/><text fill="#000000" font-family="sans-serif" font-size="14" lengthAdjust="spacing" textLength="156.8694" x="27" y="73.5619">symbols : List&lt;String&gt; [*]</text><line style="stroke:#181818;stroke-width:0.5;" x1="8" x2="188.8694" y1="80.5999" y2="80.5999"/></g></g></svg>
