<svg xmlns="http://www.w3.org/2000/svg" xmlns:xlink="http://www.w3.org/1999/xlink" contentStyleType="text/css" data-diagram-type="CLASS" height="270px" preserveAspectRatio="none" style="width:721px;height:270px;background:#FFFFFF;" version="1.1" viewBox="0 0 721 270" width="721px" zoomAndPan="magnify"><defs/><g><!--class Ordered_Numeric--><g class="entity" data-entity="Ordered_Numeric" data-source-line="2" data-uid="ent0002" id="entity_Ordered_Numeric"><rect fill="#F1F1F1" height="48" rx="2.5" ry="2.5" style="stroke:#181818;stroke-width:0.5;" width="144.3075" x="308.05" y="215.8"/><ellipse cx="323.05" cy="231.8" fill="#A9DCDF" rx="11" ry="11" style="stroke:#181818;stroke-width:1;"/><path d="M317.5656,237.3 L319.5969,237.3 L323.6438,225.9563 L322.7375,225.9563 L326.5656,237.3 L328.7063,237.3 L324.3781,224.9719 L322.1594,224.9719 L317.5656,237.3 Z M319.8938,233.8 L326.3313,233.8 L326.3313,232.05 L319.8938,232.05 L319.8938,233.8 Z " fill="#000000"/><text fill="#000000" font-family="sans-serif" font-size="14" font-style="italic" lengthAdjust="spacing" textLength="112.3075" x="337.05" y="237.162">Ordered_Numeric</text><line style="stroke:#181818;stroke-width:0.5;" x1="309.05" x2="451.3575" y1="247.8" y2="247.8"/><line style="stroke:#181818;stroke-width:0.5;" x1="309.05" x2="451.3575" y1="255.8" y2="255.8"/></g><!--class Ordered--><g class="entity" data-entity="Ordered" data-source-line="5" data-uid="ent0003" id="entity_Ordered"><rect fill="#F5F5F5" height="115.1997" rx="2.5" ry="2.5" style="stroke:#808080;stroke-width:1;stroke-dasharray:1,3;" width="376.4047" x="7" y="23.8"/><ellipse cx="164.9824" cy="39.8" fill="#A9DCDF" rx="11" ry="11" style="stroke:#181818;stroke-width:1;"/><path d="M159.4981,45.3 L161.5293,45.3 L165.5762,33.9563 L164.6699,33.9563 L168.4981,45.3 L170.6387,45.3 L166.3106,32.9719 L164.0918,32.9719 L159.4981,45.3 Z M161.8262,41.8 L168.2637,41.8 L168.2637,40.05 L161.8262,40.05 L161.8262,41.8 Z " fill="#000000"/><text fill="#808080" font-family="sans-serif" font-size="14" font-style="italic" lengthAdjust="spacing" textLength="51.9398" x="185.4824" y="45.162">Ordered</text><line style="stroke:#808080;stroke-width:1;stroke-dasharray:1,3;" x1="8" x2="382.4047" y1="55.8" y2="55.8"/><line style="stroke:#808080;stroke-width:1;stroke-dasharray:1,3;" x1="8" x2="382.4047" y1="63.8" y2="63.8"/><ellipse cx="18" cy="77.7" fill="#84BE84" rx="3" ry="3" style="stroke:#038048;stroke-width:1;"/><text fill="#808080" font-family="sans-serif" font-size="14" font-style="italic" lengthAdjust="spacing" textLength="267.679" x="27" y="81.5619">less_than( other : Ordered [1] ) : Boolean [1]</text><ellipse cx="18" cy="94.4999" fill="#84BE84" rx="3" ry="3" style="stroke:#038048;stroke-width:1;"/><text fill="#808080" font-family="sans-serif" font-size="14" lengthAdjust="spacing" textLength="329.1387" x="27" y="98.3619">less_than_or_equal( other : Ordered [1] ) : Boolean [1]</text><ellipse cx="18" cy="111.2998" fill="#84BE84" rx="3" ry="3" style="stroke:#038048;stroke-width:1;"/><text fill="#808080" font-family="sans-serif" font-size="14" lengthAdjust="spacing" textLength="288.9449" x="27" y="115.1618">greater_than( other : Ordered [1] ) : Boolean [1]</text><ellipse cx="18" cy="128.0997" fill="#84BE84" rx="3" ry="3" style="stroke:#038048;stroke-width:1;"/><text fill="#808080" font-family="sans-serif" font-size="14" lengthAdjust="spacing" textLength="350.4047" x="27" y="131.9617">greater_than_or_equal( other : Ordered [1] ) : Boolean [1]</text></g><!--class Numeric--><g class="entity" data-entity="Numeric" data-source-line="14" data-uid="ent0005" id="entity_Numeric"><rect fill="#F5F5F5" height="148.7996" rx="2.5" ry="2.5" style="stroke:#808080;stroke-width:1;stroke-dasharray:1,3;" width="296.2269" x="418.09" y="7"/><ellipse cx="535.2696" cy="23" fill="#A9DCDF" rx="11" ry="11" style="stroke:#181818;stroke-width:1;"/><path d="M529.7852,28.5 L531.8164,28.5 L535.8633,17.1563 L534.9571,17.1563 L538.7852,28.5 L540.9258,28.5 L536.5977,16.1719 L534.3789,16.1719 L529.7852,28.5 Z M532.1133,25 L538.5508,25 L538.5508,23.25 L532.1133,23.25 L532.1133,25 Z " fill="#000000"/><text fill="#808080" font-family="sans-serif" font-size="14" font-style="italic" lengthAdjust="spacing" textLength="53.3678" x="555.7696" y="28.362">Numeric</text><line style="stroke:#808080;stroke-width:1;stroke-dasharray:1,3;" x1="419.09" x2="713.3169" y1="39" y2="39"/><line style="stroke:#808080;stroke-width:1;stroke-dasharray:1,3;" x1="419.09" x2="713.3169" y1="47" y2="47"/><ellipse cx="429.09" cy="60.9" fill="#84BE84" rx="3" ry="3" style="stroke:#038048;stroke-width:1;"/><text fill="#808080" font-family="sans-serif" font-size="14" font-style="italic" lengthAdjust="spacing" textLength="235.1431" x="438.09" y="64.7619">add( other : Numeric [1] ) : Numeric [1]</text><ellipse cx="429.09" cy="77.6999" fill="#84BE84" rx="3" ry="3" style="stroke:#038048;stroke-width:1;"/><text fill="#808080" font-family="sans-serif" font-size="14" font-style="italic" lengthAdjust="spacing" textLength="263.395" x="438.09" y="81.5619">subtract( other : Numeric [1] ) : Numeric [1]</text><ellipse cx="429.09" cy="94.4998" fill="#84BE84" rx="3" ry="3" style="stroke:#038048;stroke-width:1;"/><text fill="#808080" font-family="sans-serif" font-size="14" font-style="italic" lengthAdjust="spacing" textLength="263.2269" x="438.09" y="98.3618">multiply( other : Numeric [1] ) : Numeric [1]</text><ellipse cx="429.09" cy="111.2997" fill="#84BE84" rx="3" ry="3" style="stroke:#038048;stroke-width:1;"/><text fill="#808080" font-family="sans-serif" font-size="14" font-style="italic" lengthAdjust="spacing" textLength="248.975" x="438.09" y="115.1617">divide( other : Numeric [1] ) : Numeric [1]</text><ellipse cx="429.09" cy="128.0997" fill="#84BE84" rx="3" ry="3" style="stroke:#038048;stroke-width:1;"/><text fill="#808080" font-family="sans-serif" font-size="14" font-style="italic" lengthAdjust="spacing" textLength="270.2269" x="438.09" y="131.9616">exponent( other : Numeric [1] ) : Numeric [1]</text><ellipse cx="429.09" cy="144.8996" fill="#84BE84" rx="3" ry="3" style="stroke:#038048;stroke-width:1;"/><text fill="#808080" font-family="sans-serif" font-size="14" font-style="italic" lengthAdjust="spacing" textLength="143.4294" x="438.09" y="148.7616">negative() : Numeric [1]</text></g><!--reverse link Ordered to Ordered_Numeric--><g class="link" data-entity-1="Ordered" data-entity-2="Ordered_Numeric" data-source-line="12" data-uid="lnk4" id="link_Ordered_Ordered_Numeric"><path codeLine="12" d="M276.2593,150.9271 C307.4693,177.2971 329.05,195.56 352.79,215.63" fill="none" id="Ordered-backto-Ordered_Numeric" style="stroke:#181818;stroke-width:1;"/><polygon fill="none" points="262.51,139.31,272.3869,155.5102,280.1317,146.344,262.51,139.31" style="stroke:#181818;stroke-width:1;"/></g><!--reverse link Numeric to Ordered_Numeric--><g class="link" data-entity-1="Numeric" data-entity-2="Ordered_Numeric" data-source-line="23" data-uid="lnk6" id="link_Numeric_Ordered_Numeric"><path codeLine="23" d="M464.6011,167.832 C439.0111,189.342 426.68,199.72 407.83,215.57" fill="none" id="Numeric-backto-Ordered_Numeric" style="stroke:#181818;stroke-width:1;"/><polygon fill="none" points="478.38,156.25,460.7405,163.239,468.4618,172.425,478.38,156.25" style="stroke:#181818;stroke-width:1;"/></g></g></svg>
