<svg xmlns="http://www.w3.org/2000/svg" xmlns:xlink="http://www.w3.org/1999/xlink" contentStyleType="text/css" data-diagram-type="CLASS" height="270px" preserveAspectRatio="none" style="width:570px;height:270px;background:#FFFFFF;" version="1.1" viewBox="0 0 570 270" width="570px" zoomAndPan="magnify"><defs/><g><!--class P_BMM_PACKAGE--><g class="entity" data-entity="P_BMM_PACKAGE" data-source-line="2" data-uid="ent0002" id="entity_P_BMM_PACKAGE"><rect fill="#F1F1F1" height="131.9996" rx="2.5" ry="2.5" style="stroke:#181818;stroke-width:0.5;" width="329.0287" x="149.41" y="131.8"/><ellipse cx="251.3506" cy="147.8" fill="#ADD1B2" rx="11" ry="11" style="stroke:#181818;stroke-width:1;"/><path d="M251.3506,154.2219 C252.5225,154.2219 253.7569,153.9563 255.1319,153.3469 L254.6475,151.8313 C253.5537,152.2531 252.5381,152.4406 251.6787,152.4406 C248.96,152.4406 247.2412,150.5969 247.2412,147.6906 C247.2412,144.9406 248.8037,143.3469 251.5381,143.3469 C252.46,143.3469 253.4756,143.5344 254.6162,143.9563 L255.1944,142.4406 C254.1006,141.8625 252.8037,141.5656 251.6162,141.5656 C247.8506,141.5656 245.2725,144.2063 245.2725,148.0188 C245.2725,151.6906 247.7569,154.2219 251.3506,154.2219 Z " fill="#000000"/><text fill="#000000" font-family="sans-serif" font-size="14" lengthAdjust="spacing" textLength="116.6475" x="271.8506" y="153.162">P_BMM_PACKAGE</text><line style="stroke:#181818;stroke-width:0.5;" x1="150.41" x2="477.4387" y1="163.8" y2="163.8"/><ellipse cx="160.41" cy="177.7" fill="none" rx="3" ry="3" style="stroke:#038048;stroke-width:1;"/><text fill="#000000" font-family="sans-serif" font-size="14" lengthAdjust="spacing" textLength="100.8836" x="169.41" y="181.5619">name : String [1]</text><ellipse cx="160.41" cy="194.4999" fill="none" rx="3" ry="3" style="stroke:#038048;stroke-width:1;"/><text fill="#000000" font-family="sans-serif" font-size="14" lengthAdjust="spacing" textLength="149.4214" x="169.41" y="198.3619">classes : List&lt;String&gt; [*]</text><ellipse cx="160.41" cy="211.2998" fill="none" rx="3" ry="3" style="stroke:#038048;stroke-width:1;"/><text fill="#000000" font-family="sans-serif" font-size="14" lengthAdjust="spacing" textLength="303.0287" x="169.41" y="215.1618">bmm_package_definition : BMM_PACKAGE [0..1]</text><line style="stroke:#181818;stroke-width:0.5;" x1="150.41" x2="477.4387" y1="222.1998" y2="222.1998"/><ellipse cx="160.41" cy="236.0997" fill="#84BE84" rx="3" ry="3" style="stroke:#038048;stroke-width:1;"/><text fill="#000000" font-family="sans-serif" font-size="14" lengthAdjust="spacing" textLength="288.4549" x="169.41" y="239.9617">merge( other : P_BMM_PACKAGE [1] ) : void [1]</text><ellipse cx="160.41" cy="252.8997" fill="#84BE84" rx="3" ry="3" style="stroke:#038048;stroke-width:1;"/><text fill="#000000" font-family="sans-serif" font-size="14" lengthAdjust="spacing" textLength="266.2089" x="169.41" y="256.7616">create_bmm_package_definition() : void [1]</text></g><!--class P_BMM_PACKAGE_CONTAINER--><g class="entity" data-entity="P_BMM_PACKAGE_CONTAINER" data-source-line="10" data-uid="ent0003" id="entity_P_BMM_PACKAGE_CONTAINER"><rect fill="#F5F5F5" height="64.7999" rx="2.5" ry="2.5" style="stroke:#808080;stroke-width:1;stroke-dasharray:1,3;" width="317.8568" x="7" y="7"/><ellipse cx="60.8788" cy="23" fill="#ADD1B2" rx="11" ry="11" style="stroke:#181818;stroke-width:1;"/><path d="M60.8788,29.4219 C62.0507,29.4219 63.2851,29.1563 64.6601,28.5469 L64.1757,27.0313 C63.0819,27.4531 62.0663,27.6406 61.2069,27.6406 C58.4882,27.6406 56.7694,25.7969 56.7694,22.8906 C56.7694,20.1406 58.3319,18.5469 61.0663,18.5469 C61.9882,18.5469 63.0038,18.7344 64.1444,19.1563 L64.7226,17.6406 C63.6288,17.0625 62.3319,16.7656 61.1444,16.7656 C57.3788,16.7656 54.8007,19.4063 54.8007,23.2188 C54.8007,26.8906 57.2851,29.4219 60.8788,29.4219 Z " fill="#000000"/><text fill="#808080" font-family="sans-serif" font-size="14" lengthAdjust="spacing" textLength="201.5992" x="81.3788" y="28.362">P_BMM_PACKAGE_CONTAINER</text><line style="stroke:#808080;stroke-width:1;stroke-dasharray:1,3;" x1="8" x2="323.8568" y1="39" y2="39"/><ellipse cx="18" cy="52.9" fill="none" rx="3" ry="3" style="stroke:#038048;stroke-width:1;"/><text fill="#808080" font-family="sans-serif" font-size="14" lengthAdjust="spacing" textLength="291.8568" x="27" y="56.7619">packages : Hash&lt;String,P_BMM_PACKAGE&gt; [1]</text><line style="stroke:#808080;stroke-width:1;stroke-dasharray:1,3;" x1="8" x2="323.8568" y1="63.7999" y2="63.7999"/></g><!--class P_BMM_MODEL_ELEMENT--><g class="entity" data-entity="P_BMM_MODEL_ELEMENT" data-source-line="16" data-uid="ent0005" id="entity_P_BMM_MODEL_ELEMENT"><rect fill="#F5F5F5" height="64.7999" rx="2.5" ry="2.5" style="stroke:#808080;stroke-width:1;stroke-dasharray:1,3;" width="204.0733" x="359.89" y="7"/><ellipse cx="374.89" cy="23" fill="#A9DCDF" rx="11" ry="11" style="stroke:#181818;stroke-width:1;"/><path d="M369.4056,28.5 L371.4369,28.5 L375.4838,17.1563 L374.5775,17.1563 L378.4056,28.5 L380.5463,28.5 L376.2181,16.1719 L373.9994,16.1719 L369.4056,28.5 Z M371.7338,25 L378.1713,25 L378.1713,23.25 L371.7338,23.25 L371.7338,25 Z " fill="#000000"/><text fill="#808080" font-family="sans-serif" font-size="14" font-style="italic" lengthAdjust="spacing" textLength="172.0733" x="388.89" y="28.362">P_BMM_MODEL_ELEMENT</text><line style="stroke:#808080;stroke-width:1;stroke-dasharray:1,3;" x1="360.89" x2="562.9633" y1="39" y2="39"/><ellipse cx="370.89" cy="52.9" fill="none" rx="3" ry="3" style="stroke:#038048;stroke-width:1;"/><text fill="#808080" font-family="sans-serif" font-size="14" lengthAdjust="spacing" textLength="176.3433" x="379.89" y="56.7619">documentation : String [0..1]</text><line style="stroke:#808080;stroke-width:1;stroke-dasharray:1,3;" x1="360.89" x2="562.9633" y1="63.7999" y2="63.7999"/></g><!--reverse link P_BMM_PACKAGE_CONTAINER to P_BMM_PACKAGE--><g class="link" data-entity-1="P_BMM_PACKAGE_CONTAINER" data-entity-2="P_BMM_PACKAGE" data-source-line="14" data-uid="lnk4" id="link_P_BMM_PACKAGE_CONTAINER_P_BMM_PACKAGE"><path codeLine="14" d="M208.2522,85.124 C224.4722,102.264 232.75,111.02 252.23,131.61" fill="none" id="P_BMM_PACKAGE_CONTAINER-backto-P_BMM_PACKAGE" style="stroke:#181818;stroke-width:1;"/><polygon fill="none" points="195.88,72.05,203.8942,89.248,212.6102,80.9999,195.88,72.05" style="stroke:#181818;stroke-width:1;"/></g><!--reverse link P_BMM_MODEL_ELEMENT to P_BMM_PACKAGE--><g class="link" data-entity-1="P_BMM_MODEL_ELEMENT" data-entity-2="P_BMM_PACKAGE" data-source-line="20" data-uid="lnk6" id="link_P_BMM_MODEL_ELEMENT_P_BMM_PACKAGE"><path codeLine="20" d="M419.6078,85.124 C403.3878,102.264 395.11,111.02 375.62,131.61" fill="none" id="P_BMM_MODEL_ELEMENT-backto-P_BMM_PACKAGE" style="stroke:#181818;stroke-width:1;"/><polygon fill="none" points="431.98,72.05,415.2498,80.9999,423.9658,89.248,431.98,72.05" style="stroke:#181818;stroke-width:1;"/></g></g></svg>
