<svg xmlns="http://www.w3.org/2000/svg" xmlns:xlink="http://www.w3.org/1999/xlink" contentStyleType="text/css" data-diagram-type="CLASS" height="798px" preserveAspectRatio="none" style="width:574px;height:798px;background:#FFFFFF;" version="1.1" viewBox="0 0 574 798" width="574px" zoomAndPan="magnify"><defs/><g><!--class P_BMM_SCHEMA--><g class="entity" data-entity="P_BMM_SCHEMA" data-source-line="2" data-uid="ent0002" id="entity_P_BMM_SCHEMA"><rect fill="#F1F1F1" height="199.1993" rx="2.5" ry="2.5" style="stroke:#181818;stroke-width:0.5;" width="348.7127" x="104.57" y="592.6"/><ellipse cx="219.1946" cy="608.6" fill="#ADD1B2" rx="11" ry="11" style="stroke:#181818;stroke-width:1;"/><path d="M219.1946,615.0219 C220.3664,615.0219 221.6008,614.7562 222.9758,614.1469 L222.4914,612.6312 C221.3977,613.0531 220.3821,613.2406 219.5227,613.2406 C216.8039,613.2406 215.0852,611.3969 215.0852,608.4906 C215.0852,605.7406 216.6477,604.1469 219.3821,604.1469 C220.3039,604.1469 221.3196,604.3344 222.4602,604.7562 L223.0383,603.2406 C221.9446,602.6625 220.6477,602.3656 219.4602,602.3656 C215.6946,602.3656 213.1164,605.0062 213.1164,608.8187 C213.1164,612.4906 215.6008,615.0219 219.1946,615.0219 Z " fill="#000000"/><text fill="#000000" font-family="sans-serif" font-size="14" lengthAdjust="spacing" textLength="110.9636" x="239.6946" y="613.962">P_BMM_SCHEMA</text><line style="stroke:#181818;stroke-width:0.5;" x1="105.57" x2="452.2827" y1="624.6" y2="624.6"/><ellipse cx="115.57" cy="638.5" fill="none" rx="3" ry="3" style="stroke:#038048;stroke-width:1;"/><text fill="#000000" font-family="sans-serif" font-size="14" lengthAdjust="spacing" textLength="258.831" x="124.57" y="642.3619">primitive_types : List&lt;P_BMM_CLASS&gt; [*]</text><ellipse cx="115.57" cy="655.2999" fill="none" rx="3" ry="3" style="stroke:#038048;stroke-width:1;"/><text fill="#000000" font-family="sans-serif" font-size="14" lengthAdjust="spacing" textLength="266.4189" x="124.57" y="659.1619">class_definitions : List&lt;P_BMM_CLASS&gt; [*]</text><ellipse cx="115.57" cy="672.0998" fill="none" rx="3" ry="3" style="stroke:#038048;stroke-width:1;"/><text fill="#000000" font-family="sans-serif" font-size="14" lengthAdjust="spacing" textLength="322.7127" x="124.57" y="675.9618">includes : Hash&lt;String,BMM_INCLUDE_SPEC&gt; [0..1]</text><line style="stroke:#181818;stroke-width:0.5;" x1="105.57" x2="452.2827" y1="682.9998" y2="682.9998"/><ellipse cx="115.57" cy="696.8997" fill="#84BE84" rx="3" ry="3" style="stroke:#038048;stroke-width:1;"/><text fill="#000000" font-family="sans-serif" font-size="14" lengthAdjust="spacing" textLength="165.6753" x="124.57" y="700.7617">validate_created() : void [1]</text><ellipse cx="115.57" cy="713.6997" fill="#84BE84" rx="3" ry="3" style="stroke:#038048;stroke-width:1;"/><text fill="#000000" font-family="sans-serif" font-size="14" lengthAdjust="spacing" textLength="141.5674" x="124.57" y="717.5616">load_finalise() : void [1]</text><ellipse cx="115.57" cy="730.4996" fill="#84BE84" rx="3" ry="3" style="stroke:#038048;stroke-width:1;"/><text fill="#000000" font-family="sans-serif" font-size="14" lengthAdjust="spacing" textLength="282.7709" x="124.57" y="734.3616">merge( other : P_BMM_SCHEMA [1] ) : void [1]</text><ellipse cx="115.57" cy="747.2995" fill="#84BE84" rx="3" ry="3" style="stroke:#038048;stroke-width:1;"/><text fill="#000000" font-family="sans-serif" font-size="14" lengthAdjust="spacing" textLength="111.8736" x="124.57" y="751.1615">validate() : void [1]</text><ellipse cx="115.57" cy="764.0995" fill="#84BE84" rx="3" ry="3" style="stroke:#038048;stroke-width:1;"/><text fill="#000000" font-family="sans-serif" font-size="14" lengthAdjust="spacing" textLength="188.2712" x="124.57" y="767.9614">create_bmm_model() : void [1]</text><ellipse cx="115.57" cy="780.8994" fill="#84BE84" rx="3" ry="3" style="stroke:#038048;stroke-width:1;"/><text fill="#000000" font-family="sans-serif" font-size="14" lengthAdjust="spacing" textLength="276.8909" x="124.57" y="784.7614">canonical_packages() : P_BMM_PACKAGE [1]</text></g><!--class P_BMM_PACKAGE_CONTAINER--><g class="entity" data-entity="P_BMM_PACKAGE_CONTAINER" data-source-line="14" data-uid="ent0003" id="entity_P_BMM_PACKAGE_CONTAINER"><rect fill="#F5F5F5" height="81.5999" rx="2.5" ry="2.5" style="stroke:#808080;stroke-width:1;stroke-dasharray:1,3;" width="317.8568" x="7" y="7"/><ellipse cx="60.8788" cy="23" fill="#ADD1B2" rx="11" ry="11" style="stroke:#181818;stroke-width:1;"/><path d="M60.8788,29.4219 C62.0507,29.4219 63.2851,29.1563 64.6601,28.5469 L64.1757,27.0313 C63.0819,27.4531 62.0663,27.6406 61.2069,27.6406 C58.4882,27.6406 56.7694,25.7969 56.7694,22.8906 C56.7694,20.1406 58.3319,18.5469 61.0663,18.5469 C61.9882,18.5469 63.0038,18.7344 64.1444,19.1563 L64.7226,17.6406 C63.6288,17.0625 62.3319,16.7656 61.1444,16.7656 C57.3788,16.7656 54.8007,19.4063 54.8007,23.2188 C54.8007,26.8906 57.2851,29.4219 60.8788,29.4219 Z " fill="#000000"/><text fill="#808080" font-family="sans-serif" font-size="14" lengthAdjust="spacing" textLength="201.5992" x="81.3788" y="28.362">P_BMM_PACKAGE_CONTAINER</text><line style="stroke:#808080;stroke-width:1;stroke-dasharray:1,3;" x1="8" x2="323.8568" y1="39" y2="39"/><ellipse cx="18" cy="52.9" fill="none" rx="3" ry="3" style="stroke:#038048;stroke-width:1;"/><text fill="#808080" font-family="sans-serif" font-size="14" lengthAdjust="spacing" textLength="291.8568" x="27" y="56.7619">packages : Hash&lt;String,P_BMM_PACKAGE&gt; [1]</text><ellipse cx="18" cy="69.6999" fill="none" rx="3" ry="3" style="stroke:#038048;stroke-width:1;"/><text fill="#808080" font-family="sans-serif" font-size="14" lengthAdjust="spacing" textLength="291.8568" x="27" y="73.5619">packages : Hash&lt;String,P_BMM_PACKAGE&gt; [1]</text><line style="stroke:#808080;stroke-width:1;stroke-dasharray:1,3;" x1="8" x2="323.8568" y1="80.5999" y2="80.5999"/></g><!--class BMM_SCHEMA--><g class="entity" data-entity="BMM_SCHEMA" data-source-line="20" data-uid="ent0005" id="entity_BMM_SCHEMA"><rect fill="#F5F5F5" height="383.9985" rx="2.5" ry="2.5" style="stroke:#808080;stroke-width:1;stroke-dasharray:1,3;" width="348.7127" x="218.57" y="148.6"/><ellipse cx="340.8245" cy="164.6" fill="#A9DCDF" rx="11" ry="11" style="stroke:#181818;stroke-width:1;"/><path d="M335.3402,170.1 L337.3714,170.1 L341.4183,158.7562 L340.512,158.7562 L344.3402,170.1 L346.4808,170.1 L342.1527,157.7719 L339.9339,157.7719 L335.3402,170.1 Z M337.6683,166.6 L344.1058,166.6 L344.1058,164.85 L337.6683,164.85 L337.6683,166.6 Z " fill="#000000"/><text fill="#808080" font-family="sans-serif" font-size="14" font-style="italic" lengthAdjust="spacing" textLength="95.7036" x="361.3245" y="169.962">BMM_SCHEMA</text><line style="stroke:#808080;stroke-width:1;stroke-dasharray:1,3;" x1="219.57" x2="566.2827" y1="180.6" y2="180.6"/><ellipse cx="229.57" cy="194.5" fill="none" rx="3" ry="3" style="stroke:#038048;stroke-width:1;"/><text fill="#808080" font-family="sans-serif" font-size="14" lengthAdjust="spacing" textLength="150.9754" x="238.57" y="198.3619">bmm_version : String [1]</text><ellipse cx="229.57" cy="211.2999" fill="none" rx="3" ry="3" style="stroke:#038048;stroke-width:1;"/><text fill="#808080" font-family="sans-serif" font-size="14" lengthAdjust="spacing" textLength="258.831" x="238.57" y="215.1619">primitive_types : List&lt;P_BMM_CLASS&gt; [*]</text><ellipse cx="229.57" cy="228.0998" fill="none" rx="3" ry="3" style="stroke:#038048;stroke-width:1;"/><text fill="#808080" font-family="sans-serif" font-size="14" lengthAdjust="spacing" textLength="266.4189" x="238.57" y="231.9618">class_definitions : List&lt;P_BMM_CLASS&gt; [*]</text><ellipse cx="229.57" cy="244.8997" fill="none" rx="3" ry="3" style="stroke:#038048;stroke-width:1;"/><text fill="#808080" font-family="sans-serif" font-size="14" lengthAdjust="spacing" textLength="322.7127" x="238.57" y="248.7617">includes : Hash&lt;String,BMM_INCLUDE_SPEC&gt; [0..1]</text><ellipse cx="229.57" cy="261.6997" fill="none" rx="3" ry="3" style="stroke:#038048;stroke-width:1;"/><text fill="#808080" font-family="sans-serif" font-size="14" lengthAdjust="spacing" textLength="219.7851" x="238.57" y="265.5616">bmm_schema : BMM_MODEL [0..1]</text><ellipse cx="229.57" cy="278.4996" fill="none" rx="3" ry="3" style="stroke:#038048;stroke-width:1;"/><text fill="#808080" font-family="sans-serif" font-size="14" lengthAdjust="spacing" textLength="202.9432" x="238.57" y="282.3616">state : BMM_SCHEMA_STATE [1]</text><ellipse cx="229.57" cy="295.2995" fill="none" rx="3" ry="3" style="stroke:#038048;stroke-width:1;"/><text fill="#808080" font-family="sans-serif" font-size="14" lengthAdjust="spacing" textLength="163.2533" x="238.57" y="299.1615">model_name : String [0..1]</text><ellipse cx="229.57" cy="312.0995" fill="none" rx="3" ry="3" style="stroke:#038048;stroke-width:1;"/><text fill="#808080" font-family="sans-serif" font-size="14" lengthAdjust="spacing" textLength="155.8194" x="238.57" y="315.9614">schema_name : String [1]</text><ellipse cx="229.57" cy="328.8994" fill="none" rx="3" ry="3" style="stroke:#038048;stroke-width:1;"/><text fill="#808080" font-family="sans-serif" font-size="14" lengthAdjust="spacing" textLength="169.5673" x="238.57" y="332.7614">schema_revision : String [1]</text><ellipse cx="229.57" cy="345.6993" fill="none" rx="3" ry="3" style="stroke:#038048;stroke-width:1;"/><text fill="#808080" font-family="sans-serif" font-size="14" lengthAdjust="spacing" textLength="209.6492" x="238.57" y="349.5613">schema_lifecycle_state : String [1]</text><ellipse cx="229.57" cy="362.4992" fill="none" rx="3" ry="3" style="stroke:#038048;stroke-width:1;"/><text fill="#808080" font-family="sans-serif" font-size="14" lengthAdjust="spacing" textLength="162.1054" x="238.57" y="366.3612">schema_author : String [1]</text><ellipse cx="229.57" cy="379.2992" fill="none" rx="3" ry="3" style="stroke:#038048;stroke-width:1;"/><text fill="#808080" font-family="sans-serif" font-size="14" lengthAdjust="spacing" textLength="190.4133" x="238.57" y="383.1611">schema_description : String [1]</text><ellipse cx="229.57" cy="396.0991" fill="none" rx="3" ry="3" style="stroke:#038048;stroke-width:1;"/><text fill="#808080" font-family="sans-serif" font-size="14" lengthAdjust="spacing" textLength="236.6271" x="238.57" y="399.9611">schema_contributors : List&lt;String&gt; [*]</text><line style="stroke:#808080;stroke-width:1;stroke-dasharray:1,3;" x1="219.57" x2="566.2827" y1="406.999" y2="406.999"/><ellipse cx="229.57" cy="420.899" fill="#84BE84" rx="3" ry="3" style="stroke:#038048;stroke-width:1;"/><text fill="#808080" font-family="sans-serif" font-size="14" font-style="italic" lengthAdjust="spacing" textLength="165.6753" x="238.57" y="424.761">validate_created() : void [1]</text><ellipse cx="229.57" cy="437.6989" fill="#84BE84" rx="3" ry="3" style="stroke:#038048;stroke-width:1;"/><text fill="#808080" font-family="sans-serif" font-size="14" font-style="italic" lengthAdjust="spacing" textLength="141.5674" x="238.57" y="441.5609">load_finalise() : void [1]</text><ellipse cx="229.57" cy="454.4989" fill="#84BE84" rx="3" ry="3" style="stroke:#038048;stroke-width:1;"/><text fill="#808080" font-family="sans-serif" font-size="14" font-style="italic" lengthAdjust="spacing" textLength="267.5109" x="238.57" y="458.3608">merge( other : BMM_SCHEMA [1] ) : void [1]</text><ellipse cx="229.57" cy="471.2988" fill="#84BE84" rx="3" ry="3" style="stroke:#038048;stroke-width:1;"/><text fill="#808080" font-family="sans-serif" font-size="14" font-style="italic" lengthAdjust="spacing" textLength="111.8736" x="238.57" y="475.1608">validate() : void [1]</text><ellipse cx="229.57" cy="488.0987" fill="#84BE84" rx="3" ry="3" style="stroke:#038048;stroke-width:1;"/><text fill="#808080" font-family="sans-serif" font-size="14" font-style="italic" lengthAdjust="spacing" textLength="188.2712" x="238.57" y="491.9607">create_bmm_model() : void [1]</text><ellipse cx="229.57" cy="504.8986" fill="#84BE84" rx="3" ry="3" style="stroke:#038048;stroke-width:1;"/><text fill="#808080" font-family="sans-serif" font-size="14" lengthAdjust="spacing" textLength="191.6872" x="238.57" y="508.7606">read_to_validate() : Boolean [1]</text><ellipse cx="229.57" cy="521.6986" fill="#84BE84" rx="3" ry="3" style="stroke:#038048;stroke-width:1;"/><text fill="#808080" font-family="sans-serif" font-size="14" lengthAdjust="spacing" textLength="140.7695" x="238.57" y="525.5605">schema_id() : String [1]</text></g><!--class BMM_MODEL_METADATA--><g class="entity" data-entity="BMM_MODEL_METADATA" data-source-line="49" data-uid="ent0007" id="entity_BMM_MODEL_METADATA"><rect fill="#F5F5F5" height="81.5999" rx="2.5" ry="2.5" style="stroke:#808080;stroke-width:1;stroke-dasharray:1,3;" width="199.0473" x="359.4" y="7"/><ellipse cx="374.4" cy="23" fill="#ADD1B2" rx="11" ry="11" style="stroke:#181818;stroke-width:1;"/><path d="M374.4,29.4219 C375.5719,29.4219 376.8063,29.1563 378.1813,28.5469 L377.6969,27.0313 C376.6031,27.4531 375.5875,27.6406 374.7281,27.6406 C372.0094,27.6406 370.2906,25.7969 370.2906,22.8906 C370.2906,20.1406 371.8531,18.5469 374.5875,18.5469 C375.5094,18.5469 376.525,18.7344 377.6656,19.1563 L378.2438,17.6406 C377.15,17.0625 375.8531,16.7656 374.6656,16.7656 C370.9,16.7656 368.3219,19.4063 368.3219,23.2188 C368.3219,26.8906 370.8063,29.4219 374.4,29.4219 Z " fill="#000000"/><text fill="#808080" font-family="sans-serif" font-size="14" lengthAdjust="spacing" textLength="167.0473" x="388.4" y="28.362">BMM_MODEL_METADATA</text><line style="stroke:#808080;stroke-width:1;stroke-dasharray:1,3;" x1="360.4" x2="557.4473" y1="39" y2="39"/><ellipse cx="370.4" cy="52.9" fill="none" rx="3" ry="3" style="stroke:#038048;stroke-width:1;"/><text fill="#808080" font-family="sans-serif" font-size="14" lengthAdjust="spacing" textLength="148.8894" x="379.4" y="56.7619">rm_publisher : String [1]</text><ellipse cx="370.4" cy="69.6999" fill="none" rx="3" ry="3" style="stroke:#038048;stroke-width:1;"/><text fill="#808080" font-family="sans-serif" font-size="14" lengthAdjust="spacing" textLength="135.6735" x="379.4" y="73.5619">rm_release : String [1]</text><line style="stroke:#808080;stroke-width:1;stroke-dasharray:1,3;" x1="360.4" x2="557.4473" y1="80.5999" y2="80.5999"/></g><!--reverse link P_BMM_PACKAGE_CONTAINER to P_BMM_SCHEMA--><g class="link" data-entity-1="P_BMM_PACKAGE_CONTAINER" data-entity-2="P_BMM_SCHEMA" data-source-line="18" data-uid="lnk4" id="link_P_BMM_PACKAGE_CONTAINER_P_BMM_SCHEMA"><path codeLine="18" d="M162.9639,106.8341 C159.4339,190.7941 157.59,372.68 200.93,532.6 C206.35,552.59 214.33,573.07 223.15,592.38" fill="none" id="P_BMM_PACKAGE_CONTAINER-backto-P_BMM_SCHEMA" style="stroke:#181818;stroke-width:1;"/><polygon fill="none" points="163.72,88.85,156.9692,106.5821,168.9586,107.0862,163.72,88.85" style="stroke:#181818;stroke-width:1;"/></g><!--reverse link P_BMM_PACKAGE_CONTAINER to BMM_SCHEMA--><g class="link" data-entity-1="P_BMM_PACKAGE_CONTAINER" data-entity-2="BMM_SCHEMA" data-source-line="47" data-uid="lnk6" id="link_P_BMM_PACKAGE_CONTAINER_BMM_SCHEMA"><path codeLine="47" d="M208.3311,103.1148 C221.2911,119.7048 226.24,126.06 243.5,148.18" fill="none" id="P_BMM_PACKAGE_CONTAINER-backto-BMM_SCHEMA" style="stroke:#181818;stroke-width:1;"/><polygon fill="none" points="197.25,88.93,203.6028,106.8085,213.0594,99.4211,197.25,88.93" style="stroke:#181818;stroke-width:1;"/></g><!--reverse link BMM_MODEL_METADATA to BMM_SCHEMA--><g class="link" data-entity-1="BMM_MODEL_METADATA" data-entity-2="BMM_SCHEMA" data-source-line="54" data-uid="lnk8" id="link_BMM_MODEL_METADATA_BMM_SCHEMA"><path codeLine="54" d="M445.8313,106.4825 C442.0613,123.0725 441.39,126.06 436.37,148.18" fill="none" id="BMM_MODEL_METADATA-backto-BMM_SCHEMA" style="stroke:#181818;stroke-width:1;"/><polygon fill="none" points="449.82,88.93,439.9804,105.1529,451.6821,107.8121,449.82,88.93" style="stroke:#181818;stroke-width:1;"/></g><!--reverse link BMM_SCHEMA to P_BMM_SCHEMA--><g class="link" data-entity-1="BMM_SCHEMA" data-entity-2="P_BMM_SCHEMA" data-source-line="56" data-uid="lnk9" id="link_BMM_SCHEMA_P_BMM_SCHEMA"><path codeLine="56" d="M324.9263,550.1321 C318.2763,570.5121 317.32,573.48 311.23,592.13" fill="none" id="BMM_SCHEMA-backto-P_BMM_SCHEMA" style="stroke:#181818;stroke-width:1;"/><polygon fill="none" points="330.51,533.02,319.2223,548.2708,330.6303,551.9933,330.51,533.02" style="stroke:#181818;stroke-width:1;"/></g></g></svg>
