<svg xmlns="http://www.w3.org/2000/svg" xmlns:xlink="http://www.w3.org/1999/xlink" contentStyleType="text/css" data-diagram-type="CLASS" height="304px" preserveAspectRatio="none" style="width:587px;height:304px;background:#FFFFFF;" version="1.1" viewBox="0 0 587 304" width="587px" zoomAndPan="magnify"><defs/><g><!--class P_BMM_CONTAINER_TYPE--><g class="entity" data-entity="P_BMM_CONTAINER_TYPE" data-source-line="2" data-uid="ent0002" id="entity_P_BMM_CONTAINER_TYPE"><rect fill="#F1F1F1" height="131.9996" rx="2.5" ry="2.5" style="stroke:#181818;stroke-width:0.5;" width="294.5609" x="146.58" y="165.4"/><ellipse cx="203.3288" cy="181.4" fill="#ADD1B2" rx="11" ry="11" style="stroke:#181818;stroke-width:1;"/><path d="M203.3288,187.8219 C204.5007,187.8219 205.735,187.5562 207.11,186.9469 L206.6257,185.4312 C205.5319,185.8531 204.5163,186.0406 203.6569,186.0406 C200.9382,186.0406 199.2194,184.1969 199.2194,181.2906 C199.2194,178.5406 200.7819,176.9469 203.5163,176.9469 C204.4382,176.9469 205.4538,177.1344 206.5944,177.5562 L207.1725,176.0406 C206.0788,175.4625 204.7819,175.1656 203.5944,175.1656 C199.8288,175.1656 197.2507,177.8062 197.2507,181.6187 C197.2507,185.2906 199.735,187.8219 203.3288,187.8219 Z " fill="#000000"/><text fill="#000000" font-family="sans-serif" font-size="14" lengthAdjust="spacing" textLength="172.5633" x="223.8288" y="186.762">P_BMM_CONTAINER_TYPE</text><line style="stroke:#181818;stroke-width:0.5;" x1="147.58" x2="440.1409" y1="197.4" y2="197.4"/><ellipse cx="157.58" cy="211.3" fill="none" rx="3" ry="3" style="stroke:#038048;stroke-width:1;"/><text fill="#000000" font-family="sans-serif" font-size="14" lengthAdjust="spacing" textLength="158.8294" x="166.58" y="215.1619">container_type : String [1]</text><ellipse cx="157.58" cy="228.0999" fill="none" rx="3" ry="3" style="stroke:#038048;stroke-width:1;"/><text fill="#000000" font-family="sans-serif" font-size="14" lengthAdjust="spacing" textLength="226.7151" x="166.58" y="231.9619">type_def : P_BMM_BASE_TYPE [0..1]</text><ellipse cx="157.58" cy="244.8998" fill="none" rx="3" ry="3" style="stroke:#038048;stroke-width:1;"/><text fill="#000000" font-family="sans-serif" font-size="14" lengthAdjust="spacing" textLength="108.9056" x="166.58" y="248.7618">type : String [0..1]</text><ellipse cx="157.58" cy="261.6997" fill="none" rx="3" ry="3" style="stroke:#038048;stroke-width:1;"/><text fill="#000000" font-family="sans-serif" font-size="14" lengthAdjust="spacing" textLength="268.5609" x="166.58" y="265.5617">bmm_type : BMM_CONTAINER_TYPE [0..1]</text><line style="stroke:#181818;stroke-width:0.5;" x1="147.58" x2="440.1409" y1="272.5997" y2="272.5997"/><ellipse cx="157.58" cy="286.4997" fill="#84BE84" rx="3" ry="3" style="stroke:#038048;stroke-width:1;"/><text fill="#000000" font-family="sans-serif" font-size="14" lengthAdjust="spacing" textLength="216.6771" x="166.58" y="290.3616">type_ref() : P_BMM_BASE_TYPE [1]</text></g><!--class P_BMM_TYPE--><g class="entity" data-entity="P_BMM_TYPE" data-source-line="10" data-uid="ent0003" id="entity_P_BMM_TYPE"><rect fill="#F5F5F5" height="98.3998" rx="2.5" ry="2.5" style="stroke:#808080;stroke-width:1;stroke-dasharray:1,3;" width="573.7197" x="7" y="7"/><ellipse cx="245.804" cy="23" fill="#A9DCDF" rx="11" ry="11" style="stroke:#181818;stroke-width:1;"/><path d="M240.3197,28.5 L242.3509,28.5 L246.3978,17.1563 L245.4915,17.1563 L249.3197,28.5 L251.4603,28.5 L247.1322,16.1719 L244.9134,16.1719 L240.3197,28.5 Z M242.6478,25 L249.0853,25 L249.0853,23.25 L242.6478,23.25 L242.6478,25 Z " fill="#000000"/><text fill="#808080" font-family="sans-serif" font-size="14" font-style="italic" lengthAdjust="spacing" textLength="87.6116" x="266.304" y="28.362">P_BMM_TYPE</text><line style="stroke:#808080;stroke-width:1;stroke-dasharray:1,3;" x1="8" x2="579.7197" y1="39" y2="39"/><ellipse cx="18" cy="52.9" fill="none" rx="3" ry="3" style="stroke:#038048;stroke-width:1;"/><text fill="#808080" font-family="sans-serif" font-size="14" lengthAdjust="spacing" textLength="183.6092" x="27" y="56.7619">bmm_type : BMM_TYPE [0..1]</text><line style="stroke:#808080;stroke-width:1;stroke-dasharray:1,3;" x1="8" x2="579.7197" y1="63.7999" y2="63.7999"/><ellipse cx="18" cy="77.6999" fill="#84BE84" rx="3" ry="3" style="stroke:#038048;stroke-width:1;"/><text fill="#808080" font-family="sans-serif" font-size="14" font-style="italic" lengthAdjust="spacing" textLength="547.7197" x="27" y="81.5619">create_bmm_type( a_schema : BMM_MODEL [1], a_class_def : BMM_CLASS [1] ) : void [1]</text><ellipse cx="18" cy="94.4998" fill="#84BE84" rx="3" ry="3" style="stroke:#038048;stroke-width:1;"/><text fill="#808080" font-family="sans-serif" font-size="14" font-style="italic" lengthAdjust="spacing" textLength="165.4234" x="27" y="98.3618">as_type_string() : String [1]</text></g><!--reverse link P_BMM_TYPE to P_BMM_CONTAINER_TYPE--><g class="link" data-entity-1="P_BMM_TYPE" data-entity-2="P_BMM_CONTAINER_TYPE" data-source-line="16" data-uid="lnk4" id="link_P_BMM_TYPE_P_BMM_CONTAINER_TYPE"><path codeLine="16" d="M293.86,123.45 C293.86,141.86 293.86,145.18 293.86,164.94" fill="none" id="P_BMM_TYPE-backto-P_BMM_CONTAINER_TYPE" style="stroke:#181818;stroke-width:1;"/><polygon fill="none" points="293.86,105.45,287.86,123.45,299.86,123.45,293.86,105.45" style="stroke:#181818;stroke-width:1;"/></g></g></svg>
