<svg xmlns="http://www.w3.org/2000/svg" xmlns:xlink="http://www.w3.org/1999/xlink" contentStyleType="text/css" data-diagram-type="CLASS" height="253px" preserveAspectRatio="none" style="width:531px;height:253px;background:#FFFFFF;" version="1.1" viewBox="0 0 531 253" width="531px" zoomAndPan="magnify"><defs/><g><!--class P_BMM_GENERIC_PARAMETER--><g class="entity" data-entity="P_BMM_GENERIC_PARAMETER" data-source-line="2" data-uid="ent0002" id="entity_P_BMM_GENERIC_PARAMETER"><rect fill="#F1F1F1" height="115.1997" rx="2.5" ry="2.5" style="stroke:#181818;stroke-width:0.5;" width="517.1041" x="7" y="131.8"/><ellipse cx="161.3564" cy="147.8" fill="#ADD1B2" rx="11" ry="11" style="stroke:#181818;stroke-width:1;"/><path d="M161.3564,154.2219 C162.5283,154.2219 163.7627,153.9563 165.1377,153.3469 L164.6533,151.8313 C163.5596,152.2531 162.5439,152.4406 161.6846,152.4406 C158.9658,152.4406 157.2471,150.5969 157.2471,147.6906 C157.2471,144.9406 158.8096,143.3469 161.5439,143.3469 C162.4658,143.3469 163.4814,143.5344 164.6221,143.9563 L165.2002,142.4406 C164.1064,141.8625 162.8096,141.5656 161.6221,141.5656 C157.8564,141.5656 155.2783,144.2063 155.2783,148.0188 C155.2783,151.6906 157.7627,154.2219 161.3564,154.2219 Z " fill="#000000"/><text fill="#000000" font-family="sans-serif" font-size="14" lengthAdjust="spacing" textLength="199.8912" x="181.8564" y="153.162">P_BMM_GENERIC_PARAMETER</text><line style="stroke:#181818;stroke-width:0.5;" x1="8" x2="523.1041" y1="163.8" y2="163.8"/><ellipse cx="18" cy="177.7" fill="none" rx="3" ry="3" style="stroke:#038048;stroke-width:1;"/><text fill="#000000" font-family="sans-serif" font-size="14" lengthAdjust="spacing" textLength="100.8836" x="27" y="181.5619">name : String [1]</text><ellipse cx="18" cy="194.4999" fill="none" rx="3" ry="3" style="stroke:#038048;stroke-width:1;"/><text fill="#000000" font-family="sans-serif" font-size="14" lengthAdjust="spacing" textLength="195.1873" x="27" y="198.3619">conforms_to_type : String [0..1]</text><ellipse cx="18" cy="211.2998" fill="none" rx="3" ry="3" style="stroke:#038048;stroke-width:1;"/><text fill="#000000" font-family="sans-serif" font-size="14" lengthAdjust="spacing" textLength="360.9885" x="27" y="215.1618">bmm_generic_parameter : BMM_PARAMETER_TYPE [0..1]</text><line style="stroke:#181818;stroke-width:0.5;" x1="8" x2="523.1041" y1="222.1998" y2="222.1998"/><ellipse cx="18" cy="236.0997" fill="#84BE84" rx="3" ry="3" style="stroke:#038048;stroke-width:1;"/><text fill="#000000" font-family="sans-serif" font-size="14" lengthAdjust="spacing" textLength="491.1041" x="27" y="239.9617">create_bmm_generic_parameter( a_bmm_schema : BMM_MODEL [1] ) : void [1]</text></g><!--class P_BMM_MODEL_ELEMENT--><g class="entity" data-entity="P_BMM_MODEL_ELEMENT" data-source-line="9" data-uid="ent0003" id="entity_P_BMM_MODEL_ELEMENT"><rect fill="#F5F5F5" height="64.7999" rx="2.5" ry="2.5" style="stroke:#808080;stroke-width:1;stroke-dasharray:1,3;" width="204.0733" x="163.52" y="7"/><ellipse cx="178.52" cy="23" fill="#A9DCDF" rx="11" ry="11" style="stroke:#181818;stroke-width:1;"/><path d="M173.0356,28.5 L175.0669,28.5 L179.1138,17.1563 L178.2075,17.1563 L182.0356,28.5 L184.1763,28.5 L179.8481,16.1719 L177.6294,16.1719 L173.0356,28.5 Z M175.3638,25 L181.8013,25 L181.8013,23.25 L175.3638,23.25 L175.3638,25 Z " fill="#000000"/><text fill="#808080" font-family="sans-serif" font-size="14" font-style="italic" lengthAdjust="spacing" textLength="172.0733" x="192.52" y="28.362">P_BMM_MODEL_ELEMENT</text><line style="stroke:#808080;stroke-width:1;stroke-dasharray:1,3;" x1="164.52" x2="366.5933" y1="39" y2="39"/><ellipse cx="174.52" cy="52.9" fill="none" rx="3" ry="3" style="stroke:#038048;stroke-width:1;"/><text fill="#808080" font-family="sans-serif" font-size="14" lengthAdjust="spacing" textLength="176.3433" x="183.52" y="56.7619">documentation : String [0..1]</text><line style="stroke:#808080;stroke-width:1;stroke-dasharray:1,3;" x1="164.52" x2="366.5933" y1="63.7999" y2="63.7999"/></g><!--reverse link P_BMM_MODEL_ELEMENT to P_BMM_GENERIC_PARAMETER--><g class="link" data-entity-1="P_BMM_MODEL_ELEMENT" data-entity-2="P_BMM_GENERIC_PARAMETER" data-source-line="13" data-uid="lnk4" id="link_P_BMM_MODEL_ELEMENT_P_BMM_GENERIC_PARAMETER"><path codeLine="13" d="M265.55,90.15 C265.55,107.39 265.55,111.24 265.55,131.32" fill="none" id="P_BMM_MODEL_ELEMENT-backto-P_BMM_GENERIC_PARAMETER" style="stroke:#181818;stroke-width:1;"/><polygon fill="none" points="265.55,72.15,259.55,90.15,271.55,90.15,265.55,72.15" style="stroke:#181818;stroke-width:1;"/></g></g></svg>
