<svg xmlns="http://www.w3.org/2000/svg" xmlns:xlink="http://www.w3.org/1999/xlink" contentStyleType="text/css" data-diagram-type="CLASS" height="85px" preserveAspectRatio="none" style="width:338px;height:85px;background:#FFFFFF;" version="1.1" viewBox="0 0 338 85" width="338px" zoomAndPan="magnify"><defs/><g><!--class P_BMM_PACKAGE_CONTAINER--><g class="entity" data-entity="P_BMM_PACKAGE_CONTAINER" data-source-line="2" data-uid="ent0002" id="entity_P_BMM_PACKAGE_CONTAINER"><rect fill="#F1F1F1" height="64.7999" rx="2.5" ry="2.5" style="stroke:#181818;stroke-width:0.5;" width="317.8568" x="7" y="7"/><ellipse cx="60.8788" cy="23" fill="#ADD1B2" rx="11" ry="11" style="stroke:#181818;stroke-width:1;"/><path d="M60.8788,29.4219 C62.0507,29.4219 63.2851,29.1563 64.6601,28.5469 L64.1757,27.0313 C63.0819,27.4531 62.0663,27.6406 61.2069,27.6406 C58.4882,27.6406 56.7694,25.7969 56.7694,22.8906 C56.7694,20.1406 58.3319,18.5469 61.0663,18.5469 C61.9882,18.5469 63.0038,18.7344 64.1444,19.1563 L64.7226,17.6406 C63.6288,17.0625 62.3319,16.7656 61.1444,16.7656 C57.3788,16.7656 54.8007,19.4063 54.8007,23.2188 C54.8007,26.8906 57.2851,29.4219 60.8788,29.4219 Z " fill="#000000"/><text fill="#000000" font-family="sans-serif" font-size="14" lengthAdjust="spacing" textLength="201.5992" x="81.3788" y="28.362">P_BMM_PACKAGE_CONTAINER</text><line style="stroke:#181818;stroke-width:0.5;" x1="8" x2="323.8568" y1="39" y2="39"/><ellipse cx="18" cy="52.9" fill="none" rx="3" ry="3" style="stroke:#038048;stroke-width:1;"/><text fill="#000000" font-family="sans-serif" font-size="14" lengthAdjust="spacing" textLength="291.8568" x="27" y="56.7619">packages : Hash&lt;String,P_BMM_PACKAGE&gt; [1]</text><line style="stroke:#181818;stroke-width:0.5;" x1="8" x2="323.8568" y1="63.7999" y2="63.7999"/></g></g></svg>
