<svg xmlns="http://www.w3.org/2000/svg" xmlns:xlink="http://www.w3.org/1999/xlink" contentStyleType="text/css" data-diagram-type="CLASS" height="119px" preserveAspectRatio="none" style="width:594px;height:119px;background:#FFFFFF;" version="1.1" viewBox="0 0 594 119" width="594px" zoomAndPan="magnify"><defs/><g><!--class P_BMM_TYPE--><g class="entity" data-entity="P_BMM_TYPE" data-source-line="2" data-uid="ent0002" id="entity_P_BMM_TYPE"><rect fill="#F1F1F1" height="98.3998" rx="2.5" ry="2.5" style="stroke:#181818;stroke-width:0.5;" width="573.7197" x="7" y="7"/><ellipse cx="245.804" cy="23" fill="#A9DCDF" rx="11" ry="11" style="stroke:#181818;stroke-width:1;"/><path d="M240.3197,28.5 L242.3509,28.5 L246.3978,17.1563 L245.4915,17.1563 L249.3197,28.5 L251.4603,28.5 L247.1322,16.1719 L244.9134,16.1719 L240.3197,28.5 Z M242.6478,25 L249.0853,25 L249.0853,23.25 L242.6478,23.25 L242.6478,25 Z " fill="#000000"/><text fill="#000000" font-family="sans-serif" font-size="14" font-style="italic" lengthAdjust="spacing" textLength="87.6116" x="266.304" y="28.362">P_BMM_TYPE</text><line style="stroke:#181818;stroke-width:0.5;" x1="8" x2="579.7197" y1="39" y2="39"/><ellipse cx="18" cy="52.9" fill="none" rx="3" ry="3" style="stroke:#038048;stroke-width:1;"/><text fill="#000000" font-family="sans-serif" font-size="14" lengthAdjust="spacing" textLength="183.6092" x="27" y="56.7619">bmm_type : BMM_TYPE [0..1]</text><line style="stroke:#181818;stroke-width:0.5;" x1="8" x2="579.7197" y1="63.7999" y2="63.7999"/><ellipse cx="18" cy="77.6999" fill="#84BE84" rx="3" ry="3" style="stroke:#038048;stroke-width:1;"/><text fill="#000000" font-family="sans-serif" font-size="14" font-style="italic" lengthAdjust="spacing" textLength="547.7197" x="27" y="81.5619">create_bmm_type( a_schema : BMM_MODEL [1], a_class_def : BMM_CLASS [1] ) : void [1]</text><ellipse cx="18" cy="94.4998" fill="#84BE84" rx="3" ry="3" style="stroke:#038048;stroke-width:1;"/><text fill="#000000" font-family="sans-serif" font-size="14" font-style="italic" lengthAdjust="spacing" textLength="165.4234" x="27" y="98.3618">as_type_string() : String [1]</text></g></g></svg>
