<svg xmlns="http://www.w3.org/2000/svg" xmlns:xlink="http://www.w3.org/1999/xlink" contentStyleType="text/css" data-diagram-type="CLASS" height="388px" preserveAspectRatio="none" style="width:524px;height:388px;background:#FFFFFF;" version="1.1" viewBox="0 0 524 388" width="524px" zoomAndPan="magnify"><defs/><g><!--class P_BMM_CLASS--><g class="entity" data-entity="P_BMM_CLASS" data-source-line="2" data-uid="ent0002" id="entity_P_BMM_CLASS"><rect fill="#F1F1F1" height="249.5991" rx="2.5" ry="2.5" style="stroke:#181818;stroke-width:0.5;" width="510.874" x="7" y="131.8"/><ellipse cx="210.4402" cy="147.8" fill="#ADD1B2" rx="11" ry="11" style="stroke:#181818;stroke-width:1;"/><path d="M210.4402,154.2219 C211.6121,154.2219 212.8465,153.9562 214.2215,153.3469 L213.7371,151.8312 C212.6433,152.2531 211.6277,152.4406 210.7683,152.4406 C208.0496,152.4406 206.3308,150.5969 206.3308,147.6906 C206.3308,144.9406 207.8933,143.3469 210.6277,143.3469 C211.5496,143.3469 212.5652,143.5344 213.7058,143.9562 L214.284,142.4406 C213.1902,141.8625 211.8933,141.5656 210.7058,141.5656 C206.9402,141.5656 204.3621,144.2062 204.3621,148.0187 C204.3621,151.6906 206.8465,154.2219 210.4402,154.2219 Z " fill="#000000"/><text fill="#000000" font-family="sans-serif" font-size="14" lengthAdjust="spacing" textLength="95.4936" x="230.9402" y="153.162">P_BMM_CLASS</text><line style="stroke:#181818;stroke-width:0.5;" x1="8" x2="516.874" y1="163.8" y2="163.8"/><ellipse cx="18" cy="177.7" fill="none" rx="3" ry="3" style="stroke:#038048;stroke-width:1;"/><text fill="#000000" font-family="sans-serif" font-size="14" lengthAdjust="spacing" textLength="100.8836" x="27" y="181.5619">name : String [1]</text><ellipse cx="18" cy="194.4999" fill="none" rx="3" ry="3" style="stroke:#038048;stroke-width:1;"/><text fill="#000000" font-family="sans-serif" font-size="14" lengthAdjust="spacing" textLength="165.2414" x="27" y="198.3619">ancestors : List&lt;String&gt; [*]</text><ellipse cx="18" cy="211.2998" fill="none" rx="3" ry="3" style="stroke:#038048;stroke-width:1;"/><text fill="#000000" font-family="sans-serif" font-size="14" lengthAdjust="spacing" textLength="321.3967" x="27" y="215.1618">properties : Hash&lt;String,P_BMM_PROPERTY&gt; [0..1]</text><ellipse cx="18" cy="228.0997" fill="none" rx="3" ry="3" style="stroke:#038048;stroke-width:1;"/><text fill="#000000" font-family="sans-serif" font-size="14" lengthAdjust="spacing" textLength="163.0714" x="27" y="231.9617">is_abstract : Boolean [0..1]</text><ellipse cx="18" cy="244.8997" fill="none" rx="3" ry="3" style="stroke:#038048;stroke-width:1;"/><text fill="#000000" font-family="sans-serif" font-size="14" lengthAdjust="spacing" textLength="163.7573" x="27" y="248.7616">is_override : Boolean [0..1]</text><ellipse cx="18" cy="261.6996" fill="none" rx="3" ry="3" style="stroke:#038048;stroke-width:1;"/><text fill="#000000" font-family="sans-serif" font-size="14" lengthAdjust="spacing" textLength="484.874" x="27" y="265.5616">generic_parameter_defs : Hash&lt;String,P_BMM_GENERIC_PARAMETER&gt; [0..1]</text><ellipse cx="18" cy="278.4995" fill="none" rx="3" ry="3" style="stroke:#038048;stroke-width:1;"/><text fill="#000000" font-family="sans-serif" font-size="14" lengthAdjust="spacing" textLength="180.7953" x="27" y="282.3615">source_schema_id : String [1]</text><ellipse cx="18" cy="295.2995" fill="none" rx="3" ry="3" style="stroke:#038048;stroke-width:1;"/><text fill="#000000" font-family="sans-serif" font-size="14" lengthAdjust="spacing" textLength="194.9212" x="27" y="299.1614">bmm_class : BMM_CLASS [0..1]</text><ellipse cx="18" cy="312.0994" fill="none" rx="3" ry="3" style="stroke:#038048;stroke-width:1;"/><text fill="#000000" font-family="sans-serif" font-size="14" lengthAdjust="spacing" textLength="92.5536" x="27" y="315.9614">uid : Integer [1]</text><line style="stroke:#181818;stroke-width:0.5;" x1="8" x2="516.874" y1="322.9993" y2="322.9993"/><ellipse cx="18" cy="336.8993" fill="#84BE84" rx="3" ry="3" style="stroke:#038048;stroke-width:1;"/><text fill="#000000" font-family="sans-serif" font-size="14" lengthAdjust="spacing" textLength="150.9614" x="27" y="340.7613">is_generic() : Boolean [1]</text><ellipse cx="18" cy="353.6992" fill="#84BE84" rx="3" ry="3" style="stroke:#038048;stroke-width:1;"/><text fill="#000000" font-family="sans-serif" font-size="14" lengthAdjust="spacing" textLength="179.2553" x="27" y="357.5612">create_bmm_class() : void [1]</text><ellipse cx="18" cy="370.4992" fill="#84BE84" rx="3" ry="3" style="stroke:#038048;stroke-width:1;"/><text fill="#000000" font-family="sans-serif" font-size="14" lengthAdjust="spacing" textLength="420.0263" x="27" y="374.3611">populate_bmm_class( a_bmm_schema : BMM_MODEL [1] ) : void [1]</text></g><!--class P_BMM_MODEL_ELEMENT--><g class="entity" data-entity="P_BMM_MODEL_ELEMENT" data-source-line="17" data-uid="ent0003" id="entity_P_BMM_MODEL_ELEMENT"><rect fill="#F5F5F5" height="64.7999" rx="2.5" ry="2.5" style="stroke:#808080;stroke-width:1;stroke-dasharray:1,3;" width="204.0733" x="160.4" y="7"/><ellipse cx="175.4" cy="23" fill="#A9DCDF" rx="11" ry="11" style="stroke:#181818;stroke-width:1;"/><path d="M169.9156,28.5 L171.9469,28.5 L175.9938,17.1563 L175.0875,17.1563 L178.9156,28.5 L181.0563,28.5 L176.7281,16.1719 L174.5094,16.1719 L169.9156,28.5 Z M172.2438,25 L178.6813,25 L178.6813,23.25 L172.2438,23.25 L172.2438,25 Z " fill="#000000"/><text fill="#808080" font-family="sans-serif" font-size="14" font-style="italic" lengthAdjust="spacing" textLength="172.0733" x="189.4" y="28.362">P_BMM_MODEL_ELEMENT</text><line style="stroke:#808080;stroke-width:1;stroke-dasharray:1,3;" x1="161.4" x2="363.4733" y1="39" y2="39"/><ellipse cx="171.4" cy="52.9" fill="none" rx="3" ry="3" style="stroke:#038048;stroke-width:1;"/><text fill="#808080" font-family="sans-serif" font-size="14" lengthAdjust="spacing" textLength="176.3433" x="180.4" y="56.7619">documentation : String [0..1]</text><line style="stroke:#808080;stroke-width:1;stroke-dasharray:1,3;" x1="161.4" x2="363.4733" y1="63.7999" y2="63.7999"/></g><!--reverse link P_BMM_MODEL_ELEMENT to P_BMM_CLASS--><g class="link" data-entity-1="P_BMM_MODEL_ELEMENT" data-entity-2="P_BMM_CLASS" data-source-line="21" data-uid="lnk4" id="link_P_BMM_MODEL_ELEMENT_P_BMM_CLASS"><path codeLine="21" d="M262.44,90.15 C262.44,106.52 262.44,109.66 262.44,131.72" fill="none" id="P_BMM_MODEL_ELEMENT-backto-P_BMM_CLASS" style="stroke:#181818;stroke-width:1;"/><polygon fill="none" points="262.44,72.15,256.44,90.15,268.44,90.15,262.44,72.15" style="stroke:#181818;stroke-width:1;"/></g></g></svg>
