<svg xmlns="http://www.w3.org/2000/svg" xmlns:xlink="http://www.w3.org/1999/xlink" contentStyleType="text/css" data-diagram-type="CLASS" height="462px" preserveAspectRatio="none" style="width:653px;height:462px;background:#FFFFFF;" version="1.1" viewBox="0 0 653 462" width="653px" zoomAndPan="magnify"><defs/><g><!--class P_BMM_GENERIC_PROPERTY--><g class="entity" data-entity="P_BMM_GENERIC_PROPERTY" data-source-line="2" data-uid="ent0002" id="entity_P_BMM_GENERIC_PROPERTY"><rect fill="#F1F1F1" height="81.5999" rx="2.5" ry="2.5" style="stroke:#181818;stroke-width:0.5;" width="426.2584" x="113.87" y="374.2"/><ellipse cx="228.1586" cy="390.2" fill="#ADD1B2" rx="11" ry="11" style="stroke:#181818;stroke-width:1;"/><path d="M228.1586,396.6219 C229.3304,396.6219 230.5648,396.3563 231.9398,395.7469 L231.4554,394.2313 C230.3617,394.6531 229.3461,394.8406 228.4867,394.8406 C225.7679,394.8406 224.0492,392.9969 224.0492,390.0906 C224.0492,387.3406 225.6117,385.7469 228.3461,385.7469 C229.2679,385.7469 230.2836,385.9344 231.4242,386.3563 L232.0023,384.8406 C230.9086,384.2625 229.6117,383.9656 228.4242,383.9656 C224.6586,383.9656 222.0804,386.6063 222.0804,390.4188 C222.0804,394.0906 224.5648,396.6219 228.1586,396.6219 Z " fill="#000000"/><text fill="#000000" font-family="sans-serif" font-size="14" lengthAdjust="spacing" textLength="189.1812" x="248.6586" y="395.562">P_BMM_GENERIC_PROPERTY</text><line style="stroke:#181818;stroke-width:0.5;" x1="114.87" x2="539.1284" y1="406.2" y2="406.2"/><ellipse cx="124.87" cy="420.1" fill="none" rx="3" ry="3" style="stroke:#038048;stroke-width:1;"/><text fill="#000000" font-family="sans-serif" font-size="14" lengthAdjust="spacing" textLength="251.523" x="133.87" y="423.9619">type_def : P_BMM_GENERIC_TYPE [0..1]</text><ellipse cx="124.87" cy="436.8999" fill="none" rx="3" ry="3" style="stroke:#038048;stroke-width:1;"/><text fill="#000000" font-family="sans-serif" font-size="14" lengthAdjust="spacing" textLength="400.2584" x="133.87" y="440.7619">bmm_property : BMM_PROPERTY&lt;BMM_GENERIC_TYPE&gt; [0..1]</text><line style="stroke:#181818;stroke-width:0.5;" x1="114.87" x2="539.1284" y1="447.7999" y2="447.7999"/></g><!--class P_BMM_PROPERTY--><g class="entity" data-entity="P_BMM_PROPERTY" data-source-line="7" data-uid="ent0003" id="entity_P_BMM_PROPERTY"><rect fill="#F5F5F5" height="182.3994" rx="2.5" ry="2.5" style="stroke:#808080;stroke-width:1;stroke-dasharray:1,3;" width="639.9952" x="7" y="131.8"/><ellipse cx="260.8119" cy="147.8" fill="#A9DCDF" rx="11" ry="11" style="stroke:#181818;stroke-width:1;"/><path d="M255.3275,153.3 L257.3588,153.3 L261.4056,141.9563 L260.4994,141.9563 L264.3275,153.3 L266.4681,153.3 L262.14,140.9719 L259.9213,140.9719 L255.3275,153.3 Z M257.6556,149.8 L264.0931,149.8 L264.0931,148.05 L257.6556,148.05 L257.6556,149.8 Z " fill="#000000"/><text fill="#808080" font-family="sans-serif" font-size="14" font-style="italic" lengthAdjust="spacing" textLength="123.8715" x="281.3119" y="153.162">P_BMM_PROPERTY</text><line style="stroke:#808080;stroke-width:1;stroke-dasharray:1,3;" x1="8" x2="645.9952" y1="163.8" y2="163.8"/><ellipse cx="18" cy="177.7" fill="none" rx="3" ry="3" style="stroke:#038048;stroke-width:1;"/><text fill="#808080" font-family="sans-serif" font-size="14" lengthAdjust="spacing" textLength="100.8836" x="27" y="181.5619">name : String [1]</text><ellipse cx="18" cy="194.4999" fill="none" rx="3" ry="3" style="stroke:#038048;stroke-width:1;"/><text fill="#808080" font-family="sans-serif" font-size="14" lengthAdjust="spacing" textLength="179.9833" x="27" y="198.3619">is_mandatory : Boolean [0..1]</text><ellipse cx="18" cy="211.2998" fill="none" rx="3" ry="3" style="stroke:#038048;stroke-width:1;"/><text fill="#808080" font-family="sans-serif" font-size="14" lengthAdjust="spacing" textLength="175.4473" x="27" y="215.1618">is_computed : Boolean [0..1]</text><ellipse cx="18" cy="228.0997" fill="none" rx="3" ry="3" style="stroke:#038048;stroke-width:1;"/><text fill="#808080" font-family="sans-serif" font-size="14" lengthAdjust="spacing" textLength="220.4851" x="27" y="231.9617">is_im_infrastructure : Boolean [0..1]</text><ellipse cx="18" cy="244.8997" fill="none" rx="3" ry="3" style="stroke:#038048;stroke-width:1;"/><text fill="#808080" font-family="sans-serif" font-size="14" lengthAdjust="spacing" textLength="184.5052" x="27" y="248.7616">is_im_runtime : Boolean [0..1]</text><ellipse cx="18" cy="261.6996" fill="none" rx="3" ry="3" style="stroke:#038048;stroke-width:1;"/><text fill="#808080" font-family="sans-serif" font-size="14" lengthAdjust="spacing" textLength="186.2132" x="27" y="265.5616">type_def : P_BMM_TYPE [0..1]</text><ellipse cx="18" cy="278.4995" fill="none" rx="3" ry="3" style="stroke:#038048;stroke-width:1;"/><text fill="#808080" font-family="sans-serif" font-size="14" lengthAdjust="spacing" textLength="334.9486" x="27" y="282.3615">bmm_property : BMM_PROPERTY&lt;BMM_TYPE&gt; [0..1]</text><line style="stroke:#808080;stroke-width:1;stroke-dasharray:1,3;" x1="8" x2="645.9952" y1="289.3995" y2="289.3995"/><ellipse cx="18" cy="303.2995" fill="#84BE84" rx="3" ry="3" style="stroke:#038048;stroke-width:1;"/><text fill="#808080" font-family="sans-serif" font-size="14" lengthAdjust="spacing" textLength="613.9952" x="27" y="307.1614">create_bmm_property( a_bmm_schema : BMM_MODEL [1], a_class_def : BMM_CLASS [1] ) : void [1]</text></g><!--class P_BMM_MODEL_ELEMENT--><g class="entity" data-entity="P_BMM_MODEL_ELEMENT" data-source-line="18" data-uid="ent0004" id="entity_P_BMM_MODEL_ELEMENT"><rect fill="#F5F5F5" height="64.7999" rx="2.5" ry="2.5" style="stroke:#808080;stroke-width:1;stroke-dasharray:1,3;" width="204.0733" x="224.96" y="7"/><ellipse cx="239.96" cy="23" fill="#A9DCDF" rx="11" ry="11" style="stroke:#181818;stroke-width:1;"/><path d="M234.4756,28.5 L236.5069,28.5 L240.5538,17.1563 L239.6475,17.1563 L243.4756,28.5 L245.6163,28.5 L241.2881,16.1719 L239.0694,16.1719 L234.4756,28.5 Z M236.8038,25 L243.2413,25 L243.2413,23.25 L236.8038,23.25 L236.8038,25 Z " fill="#000000"/><text fill="#808080" font-family="sans-serif" font-size="14" font-style="italic" lengthAdjust="spacing" textLength="172.0733" x="253.96" y="28.362">P_BMM_MODEL_ELEMENT</text><line style="stroke:#808080;stroke-width:1;stroke-dasharray:1,3;" x1="225.96" x2="428.0333" y1="39" y2="39"/><ellipse cx="235.96" cy="52.9" fill="none" rx="3" ry="3" style="stroke:#038048;stroke-width:1;"/><text fill="#808080" font-family="sans-serif" font-size="14" lengthAdjust="spacing" textLength="176.3433" x="244.96" y="56.7619">documentation : String [0..1]</text><line style="stroke:#808080;stroke-width:1;stroke-dasharray:1,3;" x1="225.96" x2="428.0333" y1="63.7999" y2="63.7999"/></g><!--reverse link P_BMM_MODEL_ELEMENT to P_BMM_PROPERTY--><g class="link" data-entity-1="P_BMM_MODEL_ELEMENT" data-entity-2="P_BMM_PROPERTY" data-source-line="22" data-uid="lnk5" id="link_P_BMM_MODEL_ELEMENT_P_BMM_PROPERTY"><path codeLine="22" d="M327,90.03 C327,106.7 327,110.07 327,131.43" fill="none" id="P_BMM_MODEL_ELEMENT-backto-P_BMM_PROPERTY" style="stroke:#181818;stroke-width:1;"/><polygon fill="none" points="327,72.03,321,90.03,333,90.03,327,72.03" style="stroke:#181818;stroke-width:1;"/></g><!--reverse link P_BMM_PROPERTY to P_BMM_GENERIC_PROPERTY--><g class="link" data-entity-1="P_BMM_PROPERTY" data-entity-2="P_BMM_GENERIC_PROPERTY" data-source-line="24" data-uid="lnk6" id="link_P_BMM_PROPERTY_P_BMM_GENERIC_PROPERTY"><path codeLine="24" d="M327,332.55 C327,353.38 327,356.51 327,373.89" fill="none" id="P_BMM_PROPERTY-backto-P_BMM_GENERIC_PROPERTY" style="stroke:#181818;stroke-width:1;"/><polygon fill="none" points="327,314.55,321,332.55,333,332.55,327,314.55" style="stroke:#181818;stroke-width:1;"/></g></g></svg>
