<svg xmlns="http://www.w3.org/2000/svg" xmlns:xlink="http://www.w3.org/1999/xlink" contentStyleType="text/css" data-diagram-type="CLASS" height="479px" preserveAspectRatio="none" style="width:438px;height:479px;background:#FFFFFF;" version="1.1" viewBox="0 0 438 479" width="438px" zoomAndPan="magnify"><defs/><g><!--class P_BMM_SCHEMA_DESCRIPTOR--><g class="entity" data-entity="P_BMM_SCHEMA_DESCRIPTOR" data-source-line="2" data-uid="ent0002" id="entity_P_BMM_SCHEMA_DESCRIPTOR"><rect fill="#F1F1F1" height="64.7999" rx="2.5" ry="2.5" style="stroke:#181818;stroke-width:0.5;" width="268.997" x="84.93" y="407.8"/><ellipse cx="116.2244" cy="423.8" fill="#ADD1B2" rx="11" ry="11" style="stroke:#181818;stroke-width:1;"/><path d="M116.2244,430.2219 C117.3963,430.2219 118.6307,429.9563 120.0057,429.3469 L119.5213,427.8313 C118.4275,428.2531 117.4119,428.4406 116.5525,428.4406 C113.8338,428.4406 112.115,426.5969 112.115,423.6906 C112.115,420.9406 113.6775,419.3469 116.4119,419.3469 C117.3338,419.3469 118.3494,419.5344 119.49,419.9563 L120.0682,418.4406 C118.9744,417.8625 117.6775,417.5656 116.49,417.5656 C112.7244,417.5656 110.1463,420.2063 110.1463,424.0188 C110.1463,427.6906 112.6307,430.2219 116.2244,430.2219 Z " fill="#000000"/><text fill="#000000" font-family="sans-serif" font-size="14" lengthAdjust="spacing" textLength="200.7872" x="133.8454" y="429.162">P_BMM_SCHEMA_DESCRIPTOR</text><line style="stroke:#181818;stroke-width:0.5;" x1="85.93" x2="352.927" y1="439.8" y2="439.8"/><ellipse cx="95.93" cy="453.7" fill="none" rx="3" ry="3" style="stroke:#038048;stroke-width:1;"/><text fill="#000000" font-family="sans-serif" font-size="14" lengthAdjust="spacing" textLength="242.997" x="104.93" y="457.5619">bmm_schema : P_BMM_SCHEMA [0..1]</text><line style="stroke:#181818;stroke-width:0.5;" x1="85.93" x2="352.927" y1="464.5999" y2="464.5999"/></g><!--class BMM_SCHEMA_DESCRIPTOR--><g class="entity" data-entity="BMM_SCHEMA_DESCRIPTOR" data-source-line="6" data-uid="ent0003" id="entity_BMM_SCHEMA_DESCRIPTOR"><rect fill="#F5F5F5" height="232.7992" rx="2.5" ry="2.5" style="stroke:#808080;stroke-width:1;stroke-dasharray:1,3;" width="424.8584" x="7" y="115"/><ellipse cx="122.4156" cy="131" fill="#A9DCDF" rx="11" ry="11" style="stroke:#181818;stroke-width:1;"/><path d="M116.9312,136.5 L118.9624,136.5 L123.0093,125.1563 L122.1031,125.1563 L125.9312,136.5 L128.0718,136.5 L123.7437,124.1719 L121.5249,124.1719 L116.9312,136.5 Z M119.2593,133 L125.6968,133 L125.6968,131.25 L119.2593,131.25 L119.2593,133 Z " fill="#000000"/><text fill="#808080" font-family="sans-serif" font-size="14" font-style="italic" lengthAdjust="spacing" textLength="185.5273" x="142.9156" y="136.362">BMM_SCHEMA_DESCRIPTOR</text><line style="stroke:#808080;stroke-width:1;stroke-dasharray:1,3;" x1="8" x2="430.8584" y1="147" y2="147"/><ellipse cx="18" cy="160.9" fill="none" rx="3" ry="3" style="stroke:#038048;stroke-width:1;"/><text fill="#808080" font-family="sans-serif" font-size="14" lengthAdjust="spacing" textLength="227.7371" x="27" y="164.7619">bmm_schema : BMM_SCHEMA [0..1]</text><ellipse cx="18" cy="177.6999" fill="none" rx="3" ry="3" style="stroke:#038048;stroke-width:1;"/><text fill="#808080" font-family="sans-serif" font-size="14" lengthAdjust="spacing" textLength="211.4551" x="27" y="181.5619">bmm_model : BMM_MODEL [0..1]</text><ellipse cx="18" cy="194.4998" fill="none" rx="3" ry="3" style="stroke:#038048;stroke-width:1;"/><text fill="#808080" font-family="sans-serif" font-size="14" lengthAdjust="spacing" textLength="132.3415" x="27" y="198.3618">schema_id : String [1]</text><ellipse cx="18" cy="211.2997" fill="none" rx="3" ry="3" style="stroke:#038048;stroke-width:1;"/><text fill="#808080" font-family="sans-serif" font-size="14" lengthAdjust="spacing" textLength="221.3251" x="27" y="215.1617">meta_data : Hash&lt;String,String&gt; [1]</text><ellipse cx="18" cy="228.0997" fill="none" rx="3" ry="3" style="stroke:#038048;stroke-width:1;"/><text fill="#808080" font-family="sans-serif" font-size="14" lengthAdjust="spacing" textLength="156.4354" x="27" y="231.9616">includes : List&lt;String&gt; [*]</text><line style="stroke:#808080;stroke-width:1;stroke-dasharray:1,3;" x1="8" x2="430.8584" y1="238.9996" y2="238.9996"/><ellipse cx="18" cy="252.8996" fill="#84BE84" rx="3" ry="3" style="stroke:#038048;stroke-width:1;"/><text fill="#808080" font-family="sans-serif" font-size="14" lengthAdjust="spacing" textLength="162.2734" x="27" y="256.7616">is_top_level() : Boolean [1]</text><ellipse cx="18" cy="269.6995" fill="#84BE84" rx="3" ry="3" style="stroke:#038048;stroke-width:1;"/><text fill="#808080" font-family="sans-serif" font-size="14" lengthAdjust="spacing" textLength="214.5911" x="27" y="273.5615">is_bmm_compatible() : Boolean [1]</text><ellipse cx="18" cy="286.4995" fill="#84BE84" rx="3" ry="3" style="stroke:#038048;stroke-width:1;"/><text fill="#808080" font-family="sans-serif" font-size="14" lengthAdjust="spacing" textLength="90.0336" x="27" y="290.3614">load() : void [1]</text><ellipse cx="18" cy="303.2994" fill="#84BE84" rx="3" ry="3" style="stroke:#038048;stroke-width:1;"/><text fill="#808080" font-family="sans-serif" font-size="14" lengthAdjust="spacing" textLength="167.2993" x="27" y="307.1614">validate_merged() : void [1]</text><ellipse cx="18" cy="320.0993" fill="#84BE84" rx="3" ry="3" style="stroke:#038048;stroke-width:1;"/><text fill="#808080" font-family="sans-serif" font-size="14" lengthAdjust="spacing" textLength="398.8584" x="27" y="323.9613">validate_includes( all_schemas_list : List&lt;String&gt; [0..1] ) : void [1]</text><ellipse cx="18" cy="336.8992" fill="#84BE84" rx="3" ry="3" style="stroke:#038048;stroke-width:1;"/><text fill="#808080" font-family="sans-serif" font-size="14" lengthAdjust="spacing" textLength="148.4834" x="27" y="340.7612">create_model() : void [1]</text></g><!--class BMM_DEFINITIONS--><g class="entity" data-entity="BMM_DEFINITIONS" data-source-line="20" data-uid="ent0004" id="entity_BMM_DEFINITIONS"><rect fill="#F5F5F5" height="48" rx="2.5" ry="2.5" style="stroke:#808080;stroke-width:1;stroke-dasharray:1,3;" width="156.4035" x="141.23" y="7"/><ellipse cx="156.23" cy="23" fill="#ADD1B2" rx="11" ry="11" style="stroke:#181818;stroke-width:1;"/><path d="M156.23,29.4219 C157.4019,29.4219 158.6363,29.1563 160.0113,28.5469 L159.5269,27.0313 C158.4331,27.4531 157.4175,27.6406 156.5581,27.6406 C153.8394,27.6406 152.1206,25.7969 152.1206,22.8906 C152.1206,20.1406 153.6831,18.5469 156.4175,18.5469 C157.3394,18.5469 158.355,18.7344 159.4956,19.1563 L160.0738,17.6406 C158.98,17.0625 157.6831,16.7656 156.4956,16.7656 C152.73,16.7656 150.1519,19.4063 150.1519,23.2188 C150.1519,26.8906 152.6363,29.4219 156.23,29.4219 Z " fill="#000000"/><text fill="#808080" font-family="sans-serif" font-size="14" lengthAdjust="spacing" textLength="124.4035" x="170.23" y="28.362">BMM_DEFINITIONS</text><line style="stroke:#808080;stroke-width:1;stroke-dasharray:1,3;" x1="142.23" x2="296.6335" y1="39" y2="39"/><line style="stroke:#808080;stroke-width:1;stroke-dasharray:1,3;" x1="142.23" x2="296.6335" y1="47" y2="47"/></g><!--reverse link BMM_DEFINITIONS to BMM_SCHEMA_DESCRIPTOR--><g class="link" data-entity-1="BMM_DEFINITIONS" data-entity-2="BMM_SCHEMA_DESCRIPTOR" data-source-line="23" data-uid="lnk5" id="link_BMM_DEFINITIONS_BMM_SCHEMA_DESCRIPTOR"><path codeLine="23" d="M219.43,73.15 C219.43,88.58 219.43,92.16 219.43,114.91" fill="none" id="BMM_DEFINITIONS-backto-BMM_SCHEMA_DESCRIPTOR" style="stroke:#181818;stroke-width:1;"/><polygon fill="none" points="219.43,55.15,213.43,73.15,225.43,73.15,219.43,55.15" style="stroke:#181818;stroke-width:1;"/></g><!--reverse link BMM_SCHEMA_DESCRIPTOR to P_BMM_SCHEMA_DESCRIPTOR--><g class="link" data-entity-1="BMM_SCHEMA_DESCRIPTOR" data-entity-2="P_BMM_SCHEMA_DESCRIPTOR" data-source-line="25" data-uid="lnk6" id="link_BMM_SCHEMA_DESCRIPTOR_P_BMM_SCHEMA_DESCRIPTOR"><path codeLine="25" d="M219.43,366.19 C219.43,387.98 219.43,391.01 219.43,407.36" fill="none" id="BMM_SCHEMA_DESCRIPTOR-backto-P_BMM_SCHEMA_DESCRIPTOR" style="stroke:#181818;stroke-width:1;"/><polygon fill="none" points="219.43,348.19,213.43,366.19,225.43,366.19,219.43,348.19" style="stroke:#181818;stroke-width:1;"/></g></g></svg>
