<svg xmlns="http://www.w3.org/2000/svg" xmlns:xlink="http://www.w3.org/1999/xlink" contentStyleType="text/css" data-diagram-type="CLASS" height="220px" preserveAspectRatio="none" style="width:176px;height:220px;background:#FFFFFF;" version="1.1" viewBox="0 0 176 220" width="176px" zoomAndPan="magnify"><defs/><g><!--class PARTY_REF--><g class="entity" data-entity="PARTY_REF" data-source-line="2" data-uid="ent0002" id="entity_PARTY_REF"><rect fill="#F1F1F1" height="48" rx="2.5" ry="2.5" style="stroke:#181818;stroke-width:0.5;" width="105.4857" x="35.49" y="165.4"/><ellipse cx="50.49" cy="181.4" fill="#ADD1B2" rx="11" ry="11" style="stroke:#181818;stroke-width:1;"/><path d="M50.49,187.8219 C51.6619,187.8219 52.8962,187.5563 54.2712,186.9469 L53.7869,185.4313 C52.6931,185.8531 51.6775,186.0406 50.8181,186.0406 C48.0994,186.0406 46.3806,184.1969 46.3806,181.2906 C46.3806,178.5406 47.9431,176.9469 50.6775,176.9469 C51.5994,176.9469 52.615,177.1344 53.7556,177.5563 L54.3337,176.0406 C53.24,175.4625 51.9431,175.1656 50.7556,175.1656 C46.99,175.1656 44.4119,177.8063 44.4119,181.6188 C44.4119,185.2906 46.8962,187.8219 50.49,187.8219 Z " fill="#000000"/><text fill="#000000" font-family="sans-serif" font-size="14" lengthAdjust="spacing" textLength="73.4857" x="64.49" y="186.762">PARTY_REF</text><line style="stroke:#181818;stroke-width:0.5;" x1="36.49" x2="139.9757" y1="197.4" y2="197.4"/><line style="stroke:#181818;stroke-width:0.5;" x1="36.49" x2="139.9757" y1="205.4" y2="205.4"/></g><!--class OBJECT_REF--><g class="entity" data-entity="OBJECT_REF" data-source-line="5" data-uid="ent0003" id="entity_OBJECT_REF"><rect fill="#F5F5F5" height="98.3998" rx="2.5" ry="2.5" style="stroke:#808080;stroke-width:1;stroke-dasharray:1,3;" width="162.4715" x="7" y="7"/><ellipse cx="43.8573" cy="23" fill="#ADD1B2" rx="11" ry="11" style="stroke:#181818;stroke-width:1;"/><path d="M43.8573,29.4219 C45.0292,29.4219 46.2636,29.1563 47.6386,28.5469 L47.1542,27.0313 C46.0604,27.4531 45.0448,27.6406 44.1854,27.6406 C41.4667,27.6406 39.7479,25.7969 39.7479,22.8906 C39.7479,20.1406 41.3104,18.5469 44.0448,18.5469 C44.9667,18.5469 45.9823,18.7344 47.1229,19.1563 L47.7011,17.6406 C46.6073,17.0625 45.3104,16.7656 44.1229,16.7656 C40.3573,16.7656 37.7792,19.4063 37.7792,23.2188 C37.7792,26.8906 40.2636,29.4219 43.8573,29.4219 Z " fill="#000000"/><text fill="#808080" font-family="sans-serif" font-size="14" lengthAdjust="spacing" textLength="81.8997" x="62.7145" y="28.362">OBJECT_REF</text><line style="stroke:#808080;stroke-width:1;stroke-dasharray:1,3;" x1="8" x2="168.4715" y1="39" y2="39"/><ellipse cx="18" cy="52.9" fill="none" rx="3" ry="3" style="stroke:#038048;stroke-width:1;"/><text fill="#808080" font-family="sans-serif" font-size="14" lengthAdjust="spacing" textLength="136.4715" x="27" y="56.7619">namespace : String [1]</text><ellipse cx="18" cy="69.6999" fill="none" rx="3" ry="3" style="stroke:#038048;stroke-width:1;"/><text fill="#808080" font-family="sans-serif" font-size="14" lengthAdjust="spacing" textLength="93.1416" x="27" y="73.5619">type : String [1]</text><ellipse cx="18" cy="86.4998" fill="none" rx="3" ry="3" style="stroke:#038048;stroke-width:1;"/><text fill="#808080" font-family="sans-serif" font-size="14" lengthAdjust="spacing" textLength="110.8235" x="27" y="90.3618">id : OBJECT_ID [1]</text><line style="stroke:#808080;stroke-width:1;stroke-dasharray:1,3;" x1="8" x2="168.4715" y1="97.3998" y2="97.3998"/></g><!--reverse link OBJECT_REF to PARTY_REF--><g class="link" data-entity-1="OBJECT_REF" data-entity-2="PARTY_REF" data-source-line="11" data-uid="lnk4" id="link_OBJECT_REF_PARTY_REF"><path codeLine="11" d="M88.24,123.68 C88.24,143.97 88.24,148.62 88.24,165.08" fill="none" id="OBJECT_REF-backto-PARTY_REF" style="stroke:#181818;stroke-width:1;"/><polygon fill="none" points="88.24,105.68,82.24,123.68,94.24,123.68,88.24,105.68" style="stroke:#181818;stroke-width:1;"/></g></g></svg>
