<svg xmlns="http://www.w3.org/2000/svg" xmlns:xlink="http://www.w3.org/1999/xlink" contentStyleType="text/css" data-diagram-type="CLASS" height="408px" preserveAspectRatio="none" style="width:308px;height:408px;background:#FFFFFF;" version="1.1" viewBox="0 0 308 408" width="308px" zoomAndPan="magnify"><defs/><g><!--class Point_interval--><g class="entity" data-entity="Point_interval" data-source-line="2" data-uid="ent0002" id="entity_Point_interval"><rect fill="#F1F1F1" height="115.1997" rx="2.5" ry="2.5" style="stroke:#181818;stroke-width:0.5;" width="219.8712" x="42.38" y="286"/><ellipse cx="99.4098" cy="302" fill="#ADD1B2" rx="11" ry="11" style="stroke:#181818;stroke-width:1;"/><path d="M99.4098,308.4219 C100.5816,308.4219 101.816,308.1563 103.191,307.5469 L102.7066,306.0313 C101.6129,306.4531 100.5973,306.6406 99.7379,306.6406 C97.0191,306.6406 95.3004,304.7969 95.3004,301.8906 C95.3004,299.1406 96.8629,297.5469 99.5973,297.5469 C100.5191,297.5469 101.5348,297.7344 102.6754,298.1563 L103.2535,296.6406 C102.1598,296.0625 100.8629,295.7656 99.6754,295.7656 C95.9098,295.7656 93.3316,298.4063 93.3316,302.2188 C93.3316,305.8906 95.816,308.4219 99.4098,308.4219 Z " fill="#000000"/><text fill="#000000" font-family="sans-serif" font-size="14" lengthAdjust="spacing" textLength="86.5197" x="119.9098" y="307.362">Point_interval</text><rect fill="#FFFFFF" height="16.4001" style="stroke:#181818;stroke-width:1;stroke-dasharray:2,2;" width="8.7921" x="256.4592" y="283"/><text fill="#000000" font-family="sans-serif" font-size="12" font-style="italic" lengthAdjust="spacing" textLength="6.7921" x="257.4592" y="295.7961">T</text><line style="stroke:#181818;stroke-width:0.5;" x1="43.38" x2="261.2512" y1="318" y2="318"/><ellipse cx="53.38" cy="331.9" fill="none" rx="3" ry="3" style="stroke:#038048;stroke-width:1;"/><text fill="#000000" font-family="sans-serif" font-size="14" lengthAdjust="spacing" textLength="192.8632" x="62.38" y="335.7619">lower_unbounded : Boolean [1]</text><ellipse cx="53.38" cy="348.6999" fill="none" rx="3" ry="3" style="stroke:#038048;stroke-width:1;"/><text fill="#000000" font-family="sans-serif" font-size="14" lengthAdjust="spacing" textLength="193.8712" x="62.38" y="352.5619">upper_unbounded : Boolean [1]</text><ellipse cx="53.38" cy="365.4998" fill="none" rx="3" ry="3" style="stroke:#038048;stroke-width:1;"/><text fill="#000000" font-family="sans-serif" font-size="14" lengthAdjust="spacing" textLength="175.0693" x="62.38" y="369.3618">lower_included : Boolean [1]</text><ellipse cx="53.38" cy="382.2997" fill="none" rx="3" ry="3" style="stroke:#038048;stroke-width:1;"/><text fill="#000000" font-family="sans-serif" font-size="14" lengthAdjust="spacing" textLength="176.0773" x="62.38" y="386.1617">upper_included : Boolean [1]</text><line style="stroke:#181818;stroke-width:0.5;" x1="43.38" x2="261.2512" y1="393.1997" y2="393.1997"/></g><!--class Interval--><g class="entity" data-entity="Interval" data-source-line="9" data-uid="ent0003" id="entity_Interval"><rect fill="#F5F5F5" height="215.9993" rx="2.5" ry="2.5" style="stroke:#808080;stroke-width:1;stroke-dasharray:1,3;" width="290.627" x="7" y="10"/><ellipse cx="119.0776" cy="26" fill="#A9DCDF" rx="11" ry="11" style="stroke:#181818;stroke-width:1;"/><path d="M113.5932,31.5 L115.6244,31.5 L119.6713,20.1563 L118.7651,20.1563 L122.5932,31.5 L124.7338,31.5 L120.4057,19.1719 L118.1869,19.1719 L113.5932,31.5 Z M115.9213,28 L122.3588,28 L122.3588,26.25 L115.9213,26.25 L115.9213,28 Z " fill="#000000"/><text fill="#808080" font-family="sans-serif" font-size="14" font-style="italic" lengthAdjust="spacing" textLength="47.1798" x="139.5776" y="31.362">Interval</text><rect fill="#FFFFFF" height="16.4001" style="stroke:#181818;stroke-width:1;stroke-dasharray:2,2;" width="8.7921" x="291.835" y="7"/><text fill="#000000" font-family="sans-serif" font-size="12" font-style="italic" lengthAdjust="spacing" textLength="6.7921" x="292.835" y="19.7961">T</text><line style="stroke:#808080;stroke-width:1;stroke-dasharray:1,3;" x1="8" x2="296.627" y1="42" y2="42"/><ellipse cx="18" cy="55.9" fill="none" rx="3" ry="3" style="stroke:#038048;stroke-width:1;"/><text fill="#808080" font-family="sans-serif" font-size="14" lengthAdjust="spacing" textLength="87.6956" x="27" y="59.7619">lower : T [0..1]</text><ellipse cx="18" cy="72.6999" fill="none" rx="3" ry="3" style="stroke:#038048;stroke-width:1;"/><text fill="#808080" font-family="sans-serif" font-size="14" lengthAdjust="spacing" textLength="88.7036" x="27" y="76.5619">upper : T [0..1]</text><ellipse cx="18" cy="89.4998" fill="none" rx="3" ry="3" style="stroke:#038048;stroke-width:1;"/><text fill="#808080" font-family="sans-serif" font-size="14" lengthAdjust="spacing" textLength="192.8632" x="27" y="93.3618">lower_unbounded : Boolean [1]</text><ellipse cx="18" cy="106.2997" fill="none" rx="3" ry="3" style="stroke:#038048;stroke-width:1;"/><text fill="#808080" font-family="sans-serif" font-size="14" lengthAdjust="spacing" textLength="193.8712" x="27" y="110.1617">upper_unbounded : Boolean [1]</text><ellipse cx="18" cy="123.0997" fill="none" rx="3" ry="3" style="stroke:#038048;stroke-width:1;"/><text fill="#808080" font-family="sans-serif" font-size="14" lengthAdjust="spacing" textLength="175.0693" x="27" y="126.9616">lower_included : Boolean [1]</text><ellipse cx="18" cy="139.8996" fill="none" rx="3" ry="3" style="stroke:#038048;stroke-width:1;"/><text fill="#808080" font-family="sans-serif" font-size="14" lengthAdjust="spacing" textLength="176.0773" x="27" y="143.7616">upper_included : Boolean [1]</text><line style="stroke:#808080;stroke-width:1;stroke-dasharray:1,3;" x1="8" x2="296.627" y1="150.7996" y2="150.7996"/><ellipse cx="18" cy="164.6995" fill="#84BE84" rx="3" ry="3" style="stroke:#038048;stroke-width:1;"/><text fill="#808080" font-family="sans-serif" font-size="14" font-style="italic" lengthAdjust="spacing" textLength="159.6834" x="27" y="168.5615">has( e : T [1] ) : Boolean [1]</text><ellipse cx="18" cy="181.4995" fill="#84BE84" rx="3" ry="3" style="stroke:#038048;stroke-width:1;"/><text fill="#808080" font-family="sans-serif" font-size="14" font-style="italic" lengthAdjust="spacing" textLength="264.627" x="27" y="185.3614">intersects( other : Interval [1] ) : Boolean [1]</text><ellipse cx="18" cy="198.2994" fill="#84BE84" rx="3" ry="3" style="stroke:#038048;stroke-width:1;"/><text fill="#808080" font-family="sans-serif" font-size="14" font-style="italic" lengthAdjust="spacing" textLength="256.059" x="27" y="202.1614">contains( other : Interval [1] ) : Boolean [1]</text><ellipse cx="18" cy="215.0993" fill="#84BE84" rx="3" ry="3" style="stroke:#038048;stroke-width:1;"/><text fill="#808080" font-family="sans-serif" font-size="14" font-style="italic" lengthAdjust="spacing" textLength="230.9711" x="27" y="218.9613">is_equal( other : Any [1] ) : Boolean [1]</text></g><!--reverse link Interval to Point_interval--><g class="link" data-entity-1="Interval" data-entity-2="Point_interval" data-source-line="22" data-uid="lnk4" id="link_Interval_Point_interval"><path codeLine="22" d="M152.31,244.22 C152.31,264.73 152.31,267.44 152.31,285.6" fill="none" id="Interval-backto-Point_interval" style="stroke:#181818;stroke-width:1;"/><polygon fill="none" points="152.31,226.22,146.31,244.22,158.31,244.22,152.31,226.22" style="stroke:#181818;stroke-width:1;"/></g></g></svg>
