<svg xmlns="http://www.w3.org/2000/svg" xmlns:xlink="http://www.w3.org/1999/xlink" contentStyleType="text/css" data-diagram-type="CLASS" height="173px" preserveAspectRatio="none" style="width:165px;height:173px;background:#FFFFFF;" version="1.1" viewBox="0 0 165 173" width="165px" zoomAndPan="magnify"><defs/><g><!--class PROCEDURE--><g class="entity" data-entity="PROCEDURE" data-source-line="2" data-uid="ent0002" id="entity_PROCEDURE"><rect fill="#F1F1F1" height="48" rx="2.5" ry="2.5" style="stroke:#181818;stroke-width:0.5;" width="147.1579" x="7" y="118"/><ellipse cx="22" cy="134" fill="#ADD1B2" rx="11" ry="11" style="stroke:#181818;stroke-width:1;"/><path d="M22,140.4219 C23.1719,140.4219 24.4063,140.1563 25.7813,139.5469 L25.2969,138.0313 C24.2031,138.4531 23.1875,138.6406 22.3281,138.6406 C19.6094,138.6406 17.8906,136.7969 17.8906,133.8906 C17.8906,131.1406 19.4531,129.5469 22.1875,129.5469 C23.1094,129.5469 24.125,129.7344 25.2656,130.1563 L25.8438,128.6406 C24.75,128.0625 23.4531,127.7656 22.2656,127.7656 C18.5,127.7656 15.9219,130.4063 15.9219,134.2188 C15.9219,137.8906 18.4063,140.4219 22,140.4219 Z " fill="#000000"/><text fill="#000000" font-family="sans-serif" font-size="14" lengthAdjust="spacing" textLength="80.9897" x="36" y="139.362">PROCEDURE</text><rect fill="#FFFFFF" height="16.4001" style="stroke:#181818;stroke-width:1;stroke-dasharray:2,2;" width="32.1682" x="124.9897" y="115"/><text fill="#000000" font-family="sans-serif" font-size="12" font-style="italic" lengthAdjust="spacing" textLength="30.1682" x="125.9897" y="127.7961">ARGS</text><line style="stroke:#181818;stroke-width:0.5;" x1="8" x2="153.1579" y1="150" y2="150"/><line style="stroke:#181818;stroke-width:0.5;" x1="8" x2="153.1579" y1="158" y2="158"/></g><!--class ROUTINE--><g class="entity" data-entity="ROUTINE" data-source-line="5" data-uid="ent0003" id="entity_ROUTINE"><rect fill="#F5F5F5" height="48" rx="2.5" ry="2.5" style="stroke:#808080;stroke-width:1;stroke-dasharray:1,3;" width="125.22" x="17.97" y="10"/><ellipse cx="32.97" cy="26" fill="#ADD1B2" rx="11" ry="11" style="stroke:#181818;stroke-width:1;"/><path d="M32.97,32.4219 C34.1419,32.4219 35.3763,32.1563 36.7513,31.5469 L36.2669,30.0313 C35.1731,30.4531 34.1575,30.6406 33.2981,30.6406 C30.5794,30.6406 28.8606,28.7969 28.8606,25.8906 C28.8606,23.1406 30.4231,21.5469 33.1575,21.5469 C34.0794,21.5469 35.095,21.7344 36.2356,22.1563 L36.8138,20.6406 C35.72,20.0625 34.4231,19.7656 33.2356,19.7656 C29.47,19.7656 26.8919,22.4063 26.8919,26.2188 C26.8919,29.8906 29.3763,32.4219 32.97,32.4219 Z " fill="#000000"/><text fill="#808080" font-family="sans-serif" font-size="14" lengthAdjust="spacing" textLength="59.0518" x="46.97" y="31.362">ROUTINE</text><rect fill="#FFFFFF" height="16.4001" style="stroke:#181818;stroke-width:1;stroke-dasharray:2,2;" width="32.1682" x="114.0218" y="7"/><text fill="#000000" font-family="sans-serif" font-size="12" font-style="italic" lengthAdjust="spacing" textLength="30.1682" x="115.0218" y="19.7961">ARGS</text><line style="stroke:#808080;stroke-width:1;stroke-dasharray:1,3;" x1="18.97" x2="142.19" y1="42" y2="42"/><line style="stroke:#808080;stroke-width:1;stroke-dasharray:1,3;" x1="18.97" x2="142.19" y1="50" y2="50"/></g><!--reverse link ROUTINE to PROCEDURE--><g class="link" data-entity-1="ROUTINE" data-entity-2="PROCEDURE" data-source-line="8" data-uid="lnk4" id="link_ROUTINE_PROCEDURE"><path codeLine="8" d="M80.58,76.26 C80.58,93.94 80.58,100.13 80.58,117.79" fill="none" id="ROUTINE-backto-PROCEDURE" style="stroke:#181818;stroke-width:1;"/><polygon fill="none" points="80.58,58.26,74.58,76.26,86.58,76.26,80.58,58.26" style="stroke:#181818;stroke-width:1;"/></g></g></svg>
