<svg xmlns="http://www.w3.org/2000/svg" xmlns:xlink="http://www.w3.org/1999/xlink" contentStyleType="text/css" data-diagram-type="CLASS" height="345px" preserveAspectRatio="none" style="width:596px;height:345px;background:#FFFFFF;" version="1.1" viewBox="0 0 596 345" width="596px" zoomAndPan="magnify"><defs/><g><!--class Real--><g class="entity" data-entity="Real" data-source-line="2" data-uid="ent0002" id="entity_Real"><rect fill="#F1F1F1" height="64.7999" rx="2.5" ry="2.5" style="stroke:#181818;stroke-width:0.5;" width="137.5516" x="228.05" y="273.4"/><ellipse cx="279.0099" cy="289.4" fill="#ADD1B2" rx="11" ry="11" style="stroke:#181818;stroke-width:1;"/><path d="M279.0099,295.8219 C280.1817,295.8219 281.4161,295.5563 282.7911,294.9469 L282.3067,293.4313 C281.213,293.8531 280.1974,294.0406 279.338,294.0406 C276.6192,294.0406 274.9005,292.1969 274.9005,289.2906 C274.9005,286.5406 276.463,284.9469 279.1974,284.9469 C280.1192,284.9469 281.1349,285.1344 282.2755,285.5563 L282.8536,284.0406 C281.7599,283.4625 280.463,283.1656 279.2755,283.1656 C275.5099,283.1656 272.9317,285.8063 272.9317,289.6188 C272.9317,293.2906 275.4161,295.8219 279.0099,295.8219 Z " fill="#000000"/><text fill="#000000" font-family="sans-serif" font-size="14" lengthAdjust="spacing" textLength="27.1319" x="299.5099" y="294.762">Real</text><line style="stroke:#181818;stroke-width:0.5;" x1="229.05" x2="364.6016" y1="305.4" y2="305.4"/><line style="stroke:#181818;stroke-width:0.5;" x1="229.05" x2="364.6016" y1="313.4" y2="313.4"/><ellipse cx="239.05" cy="327.3" fill="#84BE84" rx="3" ry="3" style="stroke:#038048;stroke-width:1;"/><text fill="#000000" font-family="sans-serif" font-size="14" lengthAdjust="spacing" textLength="111.5516" x="248.05" y="331.1619">floor() : Integer [1]</text></g><!--class Ordered_Numeric--><g class="entity" data-entity="Ordered_Numeric" data-source-line="6" data-uid="ent0003" id="entity_Ordered_Numeric"><rect fill="#F5F5F5" height="48" rx="2.5" ry="2.5" style="stroke:#808080;stroke-width:1;stroke-dasharray:1,3;" width="144.3075" x="224.67" y="165.4"/><ellipse cx="239.67" cy="181.4" fill="#A9DCDF" rx="11" ry="11" style="stroke:#181818;stroke-width:1;"/><path d="M234.1856,186.9 L236.2169,186.9 L240.2638,175.5562 L239.3575,175.5562 L243.1856,186.9 L245.3263,186.9 L240.9981,174.5719 L238.7794,174.5719 L234.1856,186.9 Z M236.5138,183.4 L242.9513,183.4 L242.9513,181.65 L236.5138,181.65 L236.5138,183.4 Z " fill="#000000"/><text fill="#808080" font-family="sans-serif" font-size="14" font-style="italic" lengthAdjust="spacing" textLength="112.3075" x="253.67" y="186.762">Ordered_Numeric</text><line style="stroke:#808080;stroke-width:1;stroke-dasharray:1,3;" x1="225.67" x2="367.9775" y1="197.4" y2="197.4"/><line style="stroke:#808080;stroke-width:1;stroke-dasharray:1,3;" x1="225.67" x2="367.9775" y1="205.4" y2="205.4"/></g><!--class Ordered--><g class="entity" data-entity="Ordered" data-source-line="9" data-uid="ent0004" id="entity_Ordered"><rect fill="#F5F5F5" height="64.7999" rx="2.5" ry="2.5" style="stroke:#808080;stroke-width:1;stroke-dasharray:1,3;" width="271.657" x="7" y="23.8"/><ellipse cx="112.6086" cy="39.8" fill="#A9DCDF" rx="11" ry="11" style="stroke:#181818;stroke-width:1;"/><path d="M107.1243,45.3 L109.1555,45.3 L113.2024,33.9563 L112.2961,33.9563 L116.1243,45.3 L118.2649,45.3 L113.9368,32.9719 L111.718,32.9719 L107.1243,45.3 Z M109.4524,41.8 L115.8899,41.8 L115.8899,40.05 L109.4524,40.05 L109.4524,41.8 Z " fill="#000000"/><text fill="#808080" font-family="sans-serif" font-size="14" font-style="italic" lengthAdjust="spacing" textLength="51.9398" x="133.1086" y="45.162">Ordered</text><line style="stroke:#808080;stroke-width:1;stroke-dasharray:1,3;" x1="8" x2="277.657" y1="55.8" y2="55.8"/><line style="stroke:#808080;stroke-width:1;stroke-dasharray:1,3;" x1="8" x2="277.657" y1="63.8" y2="63.8"/><ellipse cx="18" cy="77.7" fill="#84BE84" rx="3" ry="3" style="stroke:#038048;stroke-width:1;"/><text fill="#808080" font-family="sans-serif" font-size="14" font-style="italic" lengthAdjust="spacing" textLength="245.657" x="27" y="81.5619">infix &lt;( other : Ordered [1] ) : Boolean [1]</text></g><!--class Numeric--><g class="entity" data-entity="Numeric" data-source-line="15" data-uid="ent0006" id="entity_Numeric"><rect fill="#F5F5F5" height="98.3998" rx="2.5" ry="2.5" style="stroke:#808080;stroke-width:1;stroke-dasharray:1,3;" width="275.367" x="314.14" y="7"/><ellipse cx="420.8896" cy="23" fill="#A9DCDF" rx="11" ry="11" style="stroke:#181818;stroke-width:1;"/><path d="M415.4052,28.5 L417.4365,28.5 L421.4834,17.1563 L420.5771,17.1563 L424.4052,28.5 L426.5459,28.5 L422.2177,16.1719 L419.999,16.1719 L415.4052,28.5 Z M417.7334,25 L424.1709,25 L424.1709,23.25 L417.7334,23.25 L417.7334,25 Z " fill="#000000"/><text fill="#808080" font-family="sans-serif" font-size="14" font-style="italic" lengthAdjust="spacing" textLength="53.3678" x="441.3896" y="28.362">Numeric</text><line style="stroke:#808080;stroke-width:1;stroke-dasharray:1,3;" x1="315.14" x2="588.507" y1="39" y2="39"/><line style="stroke:#808080;stroke-width:1;stroke-dasharray:1,3;" x1="315.14" x2="588.507" y1="47" y2="47"/><ellipse cx="325.14" cy="60.9" fill="#84BE84" rx="3" ry="3" style="stroke:#038048;stroke-width:1;"/><text fill="#808080" font-family="sans-serif" font-size="14" font-style="italic" lengthAdjust="spacing" textLength="247.813" x="334.14" y="64.7619">infix *( other : Numeric [1] ) : Numeric [1]</text><ellipse cx="325.14" cy="77.6999" fill="#84BE84" rx="3" ry="3" style="stroke:#038048;stroke-width:1;"/><text fill="#808080" font-family="sans-serif" font-size="14" font-style="italic" lengthAdjust="spacing" textLength="249.367" x="334.14" y="81.5619">infix +( other : Numeric [1] ) : Numeric [1]</text><ellipse cx="325.14" cy="94.4998" fill="#84BE84" rx="3" ry="3" style="stroke:#038048;stroke-width:1;"/><text fill="#808080" font-family="sans-serif" font-size="14" font-style="italic" lengthAdjust="spacing" textLength="247.183" x="334.14" y="98.3618">infix -( other : Numeric [1] ) : Numeric [1]</text></g><!--reverse link Ordered to Ordered_Numeric--><g class="link" data-entity-1="Ordered" data-entity-2="Ordered_Numeric" data-source-line="13" data-uid="lnk5" id="link_Ordered_Ordered_Numeric"><path codeLine="13" d="M193.8106,100.6345 C221.4006,124.1445 244.67,143.96 269.55,165.16" fill="none" id="Ordered-backto-Ordered_Numeric" style="stroke:#181818;stroke-width:1;"/><polygon fill="none" points="180.11,88.96,189.9191,105.2014,197.7021,96.0677,180.11,88.96" style="stroke:#181818;stroke-width:1;"/></g><!--reverse link Numeric to Ordered_Numeric--><g class="link" data-entity-1="Numeric" data-entity-2="Ordered_Numeric" data-source-line="21" data-uid="lnk7" id="link_Numeric_Ordered_Numeric"><path codeLine="21" d="M380.8112,117.3095 C356.8412,137.5995 343.83,148.62 324.38,165.08" fill="none" id="Numeric-backto-Ordered_Numeric" style="stroke:#181818;stroke-width:1;"/><polygon fill="none" points="394.55,105.68,376.9347,112.7299,384.6877,121.8891,394.55,105.68" style="stroke:#181818;stroke-width:1;"/></g><!--reverse link Ordered_Numeric to Real--><g class="link" data-entity-1="Ordered_Numeric" data-entity-2="Real" data-source-line="23" data-uid="lnk8" id="link_Ordered_Numeric_Real"><path codeLine="23" d="M296.83,231.83 C296.83,248.95 296.83,254.37 296.83,273.16" fill="none" id="Ordered_Numeric-backto-Real" style="stroke:#181818;stroke-width:1;"/><polygon fill="none" points="296.83,213.83,290.83,231.83,302.83,231.83,296.83,213.83" style="stroke:#181818;stroke-width:1;"/></g></g></svg>
