<svg xmlns="http://www.w3.org/2000/svg" xmlns:xlink="http://www.w3.org/1999/xlink" contentStyleType="text/css" data-diagram-type="CLASS" height="337px" preserveAspectRatio="none" style="width:426px;height:337px;background:#FFFFFF;" version="1.1" viewBox="0 0 426 337" width="426px" zoomAndPan="magnify"><defs/><g><!--class RESOURCE_DESCRIPTION--><g class="entity" data-entity="RESOURCE_DESCRIPTION" data-source-line="2" data-uid="ent0002" id="entity_RESOURCE_DESCRIPTION"><rect fill="#F1F1F1" height="316.7988" rx="2.5" ry="2.5" style="stroke:#181818;stroke-width:0.5;" width="405.4544" x="7" y="7"/><ellipse cx="122.5275" cy="23" fill="#ADD1B2" rx="11" ry="11" style="stroke:#181818;stroke-width:1;"/><path d="M122.5275,29.4219 C123.6994,29.4219 124.9338,29.1563 126.3088,28.5469 L125.8244,27.0313 C124.7307,27.4531 123.715,27.6406 122.8557,27.6406 C120.1369,27.6406 118.4182,25.7969 118.4182,22.8906 C118.4182,20.1406 119.9807,18.5469 122.715,18.5469 C123.6369,18.5469 124.6525,18.7344 125.7932,19.1563 L126.3713,17.6406 C125.2775,17.0625 123.9807,16.7656 122.7932,16.7656 C119.0275,16.7656 116.4494,19.4063 116.4494,23.2188 C116.4494,26.8906 118.9338,29.4219 122.5275,29.4219 Z " fill="#000000"/><text fill="#000000" font-family="sans-serif" font-size="14" lengthAdjust="spacing" textLength="165.8993" x="143.0275" y="28.362">RESOURCE_DESCRIPTION</text><line style="stroke:#181818;stroke-width:0.5;" x1="8" x2="411.4544" y1="39" y2="39"/><ellipse cx="18" cy="52.9" fill="none" rx="3" ry="3" style="stroke:#038048;stroke-width:1;"/><text fill="#000000" font-family="sans-serif" font-size="14" lengthAdjust="spacing" textLength="250.207" x="27" y="56.7619">original_author : Hash&lt;String,String&gt; [1]</text><ellipse cx="18" cy="69.6999" fill="none" rx="3" ry="3" style="stroke:#038048;stroke-width:1;"/><text fill="#000000" font-family="sans-serif" font-size="14" lengthAdjust="spacing" textLength="206.3172" x="27" y="73.5619">original_namespace : String [0..1]</text><ellipse cx="18" cy="86.4998" fill="none" rx="3" ry="3" style="stroke:#038048;stroke-width:1;"/><text fill="#000000" font-family="sans-serif" font-size="14" lengthAdjust="spacing" textLength="194.0532" x="27" y="90.3618">original_publisher : String [0..1]</text><ellipse cx="18" cy="103.2997" fill="none" rx="3" ry="3" style="stroke:#038048;stroke-width:1;"/><text fill="#000000" font-family="sans-serif" font-size="14" lengthAdjust="spacing" textLength="222.2912" x="27" y="107.1617">other_contributors : List&lt;String&gt; [*]</text><ellipse cx="18" cy="120.0997" fill="none" rx="3" ry="3" style="stroke:#038048;stroke-width:1;"/><text fill="#000000" font-family="sans-serif" font-size="14" lengthAdjust="spacing" textLength="232.9731" x="27" y="123.9616">lifecycle_state : Terminology_code [1]</text><ellipse cx="18" cy="136.8996" fill="none" rx="3" ry="3" style="stroke:#038048;stroke-width:1;"/><text fill="#000000" font-family="sans-serif" font-size="14" lengthAdjust="spacing" textLength="281.6369" x="27" y="140.7616">parent_resource : AUTHORED_RESOURCE [1]</text><ellipse cx="18" cy="153.6995" fill="none" rx="3" ry="3" style="stroke:#038048;stroke-width:1;"/><text fill="#000000" font-family="sans-serif" font-size="14" lengthAdjust="spacing" textLength="219.6031" x="27" y="157.5615">custodian_namespace : String [0..1]</text><ellipse cx="18" cy="170.4995" fill="none" rx="3" ry="3" style="stroke:#038048;stroke-width:1;"/><text fill="#000000" font-family="sans-serif" font-size="14" lengthAdjust="spacing" textLength="226.8971" x="27" y="174.3614">custodian_organisation : String [0..1]</text><ellipse cx="18" cy="187.2994" fill="none" rx="3" ry="3" style="stroke:#038048;stroke-width:1;"/><text fill="#000000" font-family="sans-serif" font-size="14" lengthAdjust="spacing" textLength="140.6295" x="27" y="191.1614">copyright : String [0..1]</text><ellipse cx="18" cy="204.0993" fill="none" rx="3" ry="3" style="stroke:#038048;stroke-width:1;"/><text fill="#000000" font-family="sans-serif" font-size="14" lengthAdjust="spacing" textLength="124.8795" x="27" y="207.9613">licence : String [0..1]</text><ellipse cx="18" cy="220.8992" fill="none" rx="3" ry="3" style="stroke:#038048;stroke-width:1;"/><text fill="#000000" font-family="sans-serif" font-size="14" lengthAdjust="spacing" textLength="310.5748" x="27" y="224.7612">ip_acknowledgements : Hash&lt;String,String&gt; [0..1]</text><ellipse cx="18" cy="237.6992" fill="none" rx="3" ry="3" style="stroke:#038048;stroke-width:1;"/><text fill="#000000" font-family="sans-serif" font-size="14" lengthAdjust="spacing" textLength="236.5571" x="27" y="241.5611">references : Hash&lt;String,String&gt; [0..1]</text><ellipse cx="18" cy="254.4991" fill="none" rx="3" ry="3" style="stroke:#038048;stroke-width:1;"/><text fill="#000000" font-family="sans-serif" font-size="14" lengthAdjust="spacing" textLength="217.6151" x="27" y="258.3611">resource_package_uri : String [0..1]</text><ellipse cx="18" cy="271.299" fill="none" rx="3" ry="3" style="stroke:#038048;stroke-width:1;"/><text fill="#000000" font-family="sans-serif" font-size="14" lengthAdjust="spacing" textLength="286.7469" x="27" y="275.161">conversion_details : Hash&lt;String,String&gt; [0..1]</text><ellipse cx="18" cy="288.0989" fill="none" rx="3" ry="3" style="stroke:#038048;stroke-width:1;"/><text fill="#000000" font-family="sans-serif" font-size="14" lengthAdjust="spacing" textLength="252.727" x="27" y="291.9609">other_details : Hash&lt;String,String&gt; [0..1]</text><ellipse cx="18" cy="304.8989" fill="none" rx="3" ry="3" style="stroke:#038048;stroke-width:1;"/><text fill="#000000" font-family="sans-serif" font-size="14" lengthAdjust="spacing" textLength="379.4544" x="27" y="308.7608">details : Hash&lt;String,RESOURCE_DESCRIPTION_ITEM&gt; [0..1]</text><line style="stroke:#181818;stroke-width:0.5;" x1="8" x2="411.4544" y1="315.7988" y2="315.7988"/></g></g></svg>
