<svg xmlns="http://www.w3.org/2000/svg" xmlns:xlink="http://www.w3.org/1999/xlink" contentStyleType="text/css" data-diagram-type="CLASS" height="85px" preserveAspectRatio="none" style="width:474px;height:85px;background:#FFFFFF;" version="1.1" viewBox="0 0 474 85" width="474px" zoomAndPan="magnify"><defs/><g><!--class RESOURCE_ANNOTATIONS--><g class="entity" data-entity="RESOURCE_ANNOTATIONS" data-source-line="2" data-uid="ent0002" id="entity_RESOURCE_ANNOTATIONS"><rect fill="#F1F1F1" height="64.7999" rx="2.5" ry="2.5" style="stroke:#181818;stroke-width:0.5;" width="453.4464" x="7" y="7"/><ellipse cx="141.8966" cy="23" fill="#ADD1B2" rx="11" ry="11" style="stroke:#181818;stroke-width:1;"/><path d="M141.8966,29.4219 C143.0684,29.4219 144.3028,29.1563 145.6778,28.5469 L145.1934,27.0313 C144.0997,27.4531 143.0841,27.6406 142.2247,27.6406 C139.5059,27.6406 137.7872,25.7969 137.7872,22.8906 C137.7872,20.1406 139.3497,18.5469 142.0841,18.5469 C143.0059,18.5469 144.0216,18.7344 145.1622,19.1563 L145.7403,17.6406 C144.6466,17.0625 143.3497,16.7656 142.1622,16.7656 C138.3966,16.7656 135.8184,19.4063 135.8184,23.2188 C135.8184,26.8906 138.3028,29.4219 141.8966,29.4219 Z " fill="#000000"/><text fill="#000000" font-family="sans-serif" font-size="14" lengthAdjust="spacing" textLength="175.1533" x="162.3966" y="28.362">RESOURCE_ANNOTATIONS</text><line style="stroke:#181818;stroke-width:0.5;" x1="8" x2="459.4464" y1="39" y2="39"/><ellipse cx="18" cy="52.9" fill="none" rx="3" ry="3" style="stroke:#038048;stroke-width:1;"/><text fill="#000000" font-family="sans-serif" font-size="14" lengthAdjust="spacing" textLength="427.4464" x="27" y="56.7619">documentation : Hash&lt;String,Hash&lt;String,Hash&lt;String,String&gt;&gt;&gt; [1]</text><line style="stroke:#181818;stroke-width:0.5;" x1="8" x2="459.4464" y1="63.7999" y2="63.7999"/></g></g></svg>
