<svg xmlns="http://www.w3.org/2000/svg" xmlns:xlink="http://www.w3.org/1999/xlink" contentStyleType="text/css" data-diagram-type="CLASS" height="186px" preserveAspectRatio="none" style="width:349px;height:186px;background:#FFFFFF;" version="1.1" viewBox="0 0 349 186" width="349px" zoomAndPan="magnify"><defs/><g><!--class RESOURCE_DESCRIPTION_ITEM--><g class="entity" data-entity="RESOURCE_DESCRIPTION_ITEM" data-source-line="2" data-uid="ent0002" id="entity_RESOURCE_DESCRIPTION_ITEM"><rect fill="#F1F1F1" height="165.5995" rx="2.5" ry="2.5" style="stroke:#181818;stroke-width:0.5;" width="328.4408" x="7" y="7"/><ellipse cx="64.5888" cy="23" fill="#ADD1B2" rx="11" ry="11" style="stroke:#181818;stroke-width:1;"/><path d="M64.5888,29.4219 C65.7607,29.4219 66.9951,29.1563 68.3701,28.5469 L67.8857,27.0313 C66.7919,27.4531 65.7763,27.6406 64.9169,27.6406 C62.1982,27.6406 60.4794,25.7969 60.4794,22.8906 C60.4794,20.1406 62.0419,18.5469 64.7763,18.5469 C65.6982,18.5469 66.7138,18.7344 67.8544,19.1563 L68.4326,17.6406 C67.3388,17.0625 66.0419,16.7656 64.8544,16.7656 C61.0888,16.7656 58.5107,19.4063 58.5107,23.2188 C58.5107,26.8906 60.9951,29.4219 64.5888,29.4219 Z " fill="#000000"/><text fill="#000000" font-family="sans-serif" font-size="14" lengthAdjust="spacing" textLength="204.7632" x="85.0888" y="28.362">RESOURCE_DESCRIPTION_ITEM</text><line style="stroke:#181818;stroke-width:0.5;" x1="8" x2="334.4408" y1="39" y2="39"/><ellipse cx="18" cy="52.9" fill="none" rx="3" ry="3" style="stroke:#038048;stroke-width:1;"/><text fill="#000000" font-family="sans-serif" font-size="14" lengthAdjust="spacing" textLength="201.5712" x="27" y="56.7619">language : Terminology_code [1]</text><ellipse cx="18" cy="69.6999" fill="none" rx="3" ry="3" style="stroke:#038048;stroke-width:1;"/><text fill="#000000" font-family="sans-serif" font-size="14" lengthAdjust="spacing" textLength="116.8856" x="27" y="73.5619">purpose : String [1]</text><ellipse cx="18" cy="86.4998" fill="none" rx="3" ry="3" style="stroke:#038048;stroke-width:1;"/><text fill="#000000" font-family="sans-serif" font-size="14" lengthAdjust="spacing" textLength="164.6814" x="27" y="90.3618">keywords : List&lt;String&gt; [*]</text><ellipse cx="18" cy="103.2997" fill="none" rx="3" ry="3" style="stroke:#038048;stroke-width:1;"/><text fill="#000000" font-family="sans-serif" font-size="14" lengthAdjust="spacing" textLength="103.4456" x="27" y="107.1617">use : String [0..1]</text><ellipse cx="18" cy="120.0997" fill="none" rx="3" ry="3" style="stroke:#038048;stroke-width:1;"/><text fill="#000000" font-family="sans-serif" font-size="14" lengthAdjust="spacing" textLength="125.7895" x="27" y="123.9616">misuse : String [0..1]</text><ellipse cx="18" cy="136.8996" fill="none" rx="3" ry="3" style="stroke:#038048;stroke-width:1;"/><text fill="#000000" font-family="sans-serif" font-size="14" lengthAdjust="spacing" textLength="302.4408" x="27" y="140.7616">original_resource_uri : Hash&lt;String,String&gt; [0..1]</text><ellipse cx="18" cy="153.6995" fill="none" rx="3" ry="3" style="stroke:#038048;stroke-width:1;"/><text fill="#000000" font-family="sans-serif" font-size="14" lengthAdjust="spacing" textLength="252.727" x="27" y="157.5615">other_details : Hash&lt;String,String&gt; [0..1]</text><line style="stroke:#181818;stroke-width:0.5;" x1="8" x2="334.4408" y1="164.5995" y2="164.5995"/></g></g></svg>
