<svg xmlns="http://www.w3.org/2000/svg" xmlns:xlink="http://www.w3.org/1999/xlink" contentStyleType="text/css" data-diagram-type="CLASS" height="290px" preserveAspectRatio="none" style="width:329px;height:290px;background:#FFFFFF;" version="1.1" viewBox="0 0 329 290" width="329px" zoomAndPan="magnify"><defs/><g><!--class Set--><g class="entity" data-entity="Set" data-source-line="2" data-uid="ent0002" id="entity_Set"><rect fill="#F1F1F1" height="48" rx="2.5" ry="2.5" style="stroke:#181818;stroke-width:0.5;" width="62.98" x="131.06" y="235.6"/><ellipse cx="146.06" cy="251.6" fill="#ADD1B2" rx="11" ry="11" style="stroke:#181818;stroke-width:1;"/><path d="M146.06,258.0219 C147.2319,258.0219 148.4663,257.7563 149.8413,257.1469 L149.3569,255.6313 C148.2631,256.0531 147.2475,256.2406 146.3881,256.2406 C143.6694,256.2406 141.9506,254.3969 141.9506,251.4906 C141.9506,248.7406 143.5131,247.1469 146.2475,247.1469 C147.1694,247.1469 148.185,247.3344 149.3256,247.7563 L149.9038,246.2406 C148.81,245.6625 147.5131,245.3656 146.3256,245.3656 C142.56,245.3656 139.9819,248.0063 139.9819,251.8188 C139.9819,255.4906 142.4663,258.0219 146.06,258.0219 Z " fill="#000000"/><text fill="#000000" font-family="sans-serif" font-size="14" lengthAdjust="spacing" textLength="20.1879" x="160.06" y="256.962">Set</text><rect fill="#FFFFFF" height="16.4001" style="stroke:#181818;stroke-width:1;stroke-dasharray:2,2;" width="8.7921" x="188.2479" y="232.6"/><text fill="#000000" font-family="sans-serif" font-size="12" font-style="italic" lengthAdjust="spacing" textLength="6.7921" x="189.2479" y="245.3961">T</text><line style="stroke:#181818;stroke-width:0.5;" x1="132.06" x2="193.04" y1="267.6" y2="267.6"/><line style="stroke:#181818;stroke-width:0.5;" x1="132.06" x2="193.04" y1="275.6" y2="275.6"/></g><!--class Container--><g class="entity" data-entity="Container" data-source-line="5" data-uid="ent0003" id="entity_Container"><rect fill="#F5F5F5" height="165.5995" rx="2.5" ry="2.5" style="stroke:#808080;stroke-width:1;stroke-dasharray:1,3;" width="311.1089" x="7" y="10"/><ellipse cx="122.3186" cy="26" fill="#A9DCDF" rx="11" ry="11" style="stroke:#181818;stroke-width:1;"/><path d="M116.8342,31.5 L118.8654,31.5 L122.9123,20.1563 L122.0061,20.1563 L125.8342,31.5 L127.9748,31.5 L123.6467,19.1719 L121.4279,19.1719 L116.8342,31.5 Z M119.1623,28 L125.5998,28 L125.5998,26.25 L119.1623,26.25 L119.1623,28 Z " fill="#000000"/><text fill="#808080" font-family="sans-serif" font-size="14" font-style="italic" lengthAdjust="spacing" textLength="61.1798" x="142.8186" y="31.362">Container</text><rect fill="#FFFFFF" height="16.4001" style="stroke:#181818;stroke-width:1;stroke-dasharray:2,2;" width="8.7921" x="312.3169" y="7"/><text fill="#000000" font-family="sans-serif" font-size="12" font-style="italic" lengthAdjust="spacing" textLength="6.7921" x="313.3169" y="19.7961">T</text><line style="stroke:#808080;stroke-width:1;stroke-dasharray:1,3;" x1="8" x2="317.1089" y1="42" y2="42"/><line style="stroke:#808080;stroke-width:1;stroke-dasharray:1,3;" x1="8" x2="317.1089" y1="50" y2="50"/><ellipse cx="18" cy="63.9" fill="#84BE84" rx="3" ry="3" style="stroke:#038048;stroke-width:1;"/><text fill="#808080" font-family="sans-serif" font-size="14" font-style="italic" lengthAdjust="spacing" textLength="159.0114" x="27" y="67.7619">has( v : T [1] ) : Boolean [1]</text><ellipse cx="18" cy="80.6999" fill="#84BE84" rx="3" ry="3" style="stroke:#038048;stroke-width:1;"/><text fill="#808080" font-family="sans-serif" font-size="14" font-style="italic" lengthAdjust="spacing" textLength="117.0256" x="27" y="84.5619">count() : Integer [1]</text><ellipse cx="18" cy="97.4998" fill="#84BE84" rx="3" ry="3" style="stroke:#038048;stroke-width:1;"/><text fill="#808080" font-family="sans-serif" font-size="14" font-style="italic" lengthAdjust="spacing" textLength="144.5634" x="27" y="101.3618">is_empty() : Boolean [1]</text><ellipse cx="18" cy="114.2997" fill="#84BE84" rx="3" ry="3" style="stroke:#038048;stroke-width:1;"/><text fill="#808080" font-family="sans-serif" font-size="14" lengthAdjust="spacing" textLength="285.1089" x="27" y="118.1617">there_exists( test : Operation [1] ) : Boolean [1]</text><ellipse cx="18" cy="131.0997" fill="#84BE84" rx="3" ry="3" style="stroke:#038048;stroke-width:1;"/><text fill="#808080" font-family="sans-serif" font-size="14" lengthAdjust="spacing" textLength="249.535" x="27" y="134.9616">for_all( test : Operation [1] ) : Boolean [1]</text><ellipse cx="18" cy="147.8996" fill="#84BE84" rx="3" ry="3" style="stroke:#038048;stroke-width:1;"/><text fill="#808080" font-family="sans-serif" font-size="14" lengthAdjust="spacing" textLength="263.871" x="27" y="151.7616">matching( test : Operation [1] ) : List&lt;T&gt; [*]</text><ellipse cx="18" cy="164.6995" fill="#84BE84" rx="3" ry="3" style="stroke:#038048;stroke-width:1;"/><text fill="#808080" font-family="sans-serif" font-size="14" lengthAdjust="spacing" textLength="218.9731" x="27" y="168.5615">select( test : Operation [1] ) : T [0..1]</text></g><!--reverse link Container to Set--><g class="link" data-entity-1="Container" data-entity-2="Set" data-source-line="15" data-uid="lnk4" id="link_Container_Set"><path codeLine="15" d="M162.55,193.72 C162.55,215.53 162.55,219.38 162.55,235.17" fill="none" id="Container-backto-Set" style="stroke:#181818;stroke-width:1;"/><polygon fill="none" points="162.55,175.72,156.55,193.72,168.55,193.72,162.55,175.72" style="stroke:#181818;stroke-width:1;"/></g></g></svg>
