<svg xmlns="http://www.w3.org/2000/svg" xmlns:xlink="http://www.w3.org/1999/xlink" contentStyleType="text/css" data-diagram-type="CLASS" height="119px" preserveAspectRatio="none" style="width:257px;height:119px;background:#FFFFFF;" version="1.1" viewBox="0 0 257 119" width="257px" zoomAndPan="magnify"><defs/><g><!--class STATEMENT_SET--><g class="entity" data-entity="STATEMENT_SET" data-source-line="2" data-uid="ent0002" id="entity_STATEMENT_SET"><rect fill="#F1F1F1" height="98.3998" rx="2.5" ry="2.5" style="stroke:#181818;stroke-width:0.5;" width="236.6151" x="7" y="7"/><ellipse cx="66.0588" cy="23" fill="#ADD1B2" rx="11" ry="11" style="stroke:#181818;stroke-width:1;"/><path d="M66.0588,29.4219 C67.2307,29.4219 68.465,29.1563 69.84,28.5469 L69.3557,27.0313 C68.2619,27.4531 67.2463,27.6406 66.3869,27.6406 C63.6682,27.6406 61.9494,25.7969 61.9494,22.8906 C61.9494,20.1406 63.5119,18.5469 66.2463,18.5469 C67.1682,18.5469 68.1838,18.7344 69.3244,19.1563 L69.9025,17.6406 C68.8088,17.0625 67.5119,16.7656 66.3244,16.7656 C62.5588,16.7656 59.9807,19.4063 59.9807,23.2188 C59.9807,26.8906 62.465,29.4219 66.0588,29.4219 Z " fill="#000000"/><text fill="#000000" font-family="sans-serif" font-size="14" lengthAdjust="spacing" textLength="109.9975" x="86.5588" y="28.362">STATEMENT_SET</text><line style="stroke:#181818;stroke-width:0.5;" x1="8" x2="242.6151" y1="39" y2="39"/><ellipse cx="18" cy="52.9" fill="none" rx="3" ry="3" style="stroke:#038048;stroke-width:1;"/><text fill="#000000" font-family="sans-serif" font-size="14" lengthAdjust="spacing" textLength="210.6151" x="27" y="56.7619">statement : List&lt;STATEMENT&gt; [*]</text><ellipse cx="18" cy="69.6999" fill="none" rx="3" ry="3" style="stroke:#038048;stroke-width:1;"/><text fill="#000000" font-family="sans-serif" font-size="14" lengthAdjust="spacing" textLength="116.6475" x="27" y="73.5619">name : String [0..1]</text><line style="stroke:#181818;stroke-width:0.5;" x1="8" x2="242.6151" y1="80.5999" y2="80.5999"/><ellipse cx="18" cy="94.4998" fill="#84BE84" rx="3" ry="3" style="stroke:#038048;stroke-width:1;"/><text fill="#000000" font-family="sans-serif" font-size="14" lengthAdjust="spacing" textLength="191.0573" x="27" y="98.3618">execution_result() : Boolean [1]</text></g></g></svg>
