<svg xmlns="http://www.w3.org/2000/svg" xmlns:xlink="http://www.w3.org/1999/xlink" contentStyleType="text/css" data-diagram-type="CLASS" height="337px" preserveAspectRatio="none" style="width:390px;height:337px;background:#FFFFFF;" version="1.1" viewBox="0 0 390 337" width="390px" zoomAndPan="magnify"><defs/><g><!--class String--><g class="entity" data-entity="String" data-source-line="2" data-uid="ent0002" id="entity_String"><rect fill="#F1F1F1" height="148.7996" rx="2.5" ry="2.5" style="stroke:#181818;stroke-width:0.5;" width="279.175" x="55.61" y="182.2"/><ellipse cx="172.2296" cy="198.2" fill="#ADD1B2" rx="11" ry="11" style="stroke:#181818;stroke-width:1;"/><path d="M172.2296,204.6219 C173.4015,204.6219 174.6358,204.3563 176.0108,203.7469 L175.5265,202.2313 C174.4327,202.6531 173.4171,202.8406 172.5577,202.8406 C169.839,202.8406 168.1202,200.9969 168.1202,198.0906 C168.1202,195.3406 169.6827,193.7469 172.4171,193.7469 C173.339,193.7469 174.3546,193.9344 175.4952,194.3563 L176.0733,192.8406 C174.9796,192.2625 173.6827,191.9656 172.4952,191.9656 C168.7296,191.9656 166.1515,194.6063 166.1515,198.4188 C166.1515,202.0906 168.6358,204.6219 172.2296,204.6219 Z " fill="#000000"/><text fill="#000000" font-family="sans-serif" font-size="14" lengthAdjust="spacing" textLength="37.4359" x="192.7296" y="203.562">String</text><line style="stroke:#181818;stroke-width:0.5;" x1="56.61" x2="333.785" y1="214.2" y2="214.2"/><line style="stroke:#181818;stroke-width:0.5;" x1="56.61" x2="333.785" y1="222.2" y2="222.2"/><ellipse cx="66.61" cy="236.1" fill="#84BE84" rx="3" ry="3" style="stroke:#038048;stroke-width:1;"/><text fill="#000000" font-family="sans-serif" font-size="14" lengthAdjust="spacing" textLength="144.5634" x="75.61" y="239.9619">is_empty() : Boolean [1]</text><ellipse cx="66.61" cy="252.8999" fill="#84BE84" rx="3" ry="3" style="stroke:#038048;stroke-width:1;"/><text fill="#000000" font-family="sans-serif" font-size="14" lengthAdjust="spacing" textLength="149.4774" x="75.61" y="256.7619">is_integer() : Boolean [1]</text><ellipse cx="66.61" cy="269.6998" fill="#84BE84" rx="3" ry="3" style="stroke:#038048;stroke-width:1;"/><text fill="#000000" font-family="sans-serif" font-size="14" lengthAdjust="spacing" textLength="146.8874" x="75.61" y="273.5618">as_integer() : Integer [1]</text><ellipse cx="66.61" cy="286.4997" fill="#84BE84" rx="3" ry="3" style="stroke:#038048;stroke-width:1;"/><text fill="#000000" font-family="sans-serif" font-size="14" lengthAdjust="spacing" textLength="226.6172" x="75.61" y="290.3617">append( other : String [1] ) : String [1]</text><ellipse cx="66.61" cy="303.2997" fill="#84BE84" rx="3" ry="3" style="stroke:#038048;stroke-width:1;"/><text fill="#000000" font-family="sans-serif" font-size="14" lengthAdjust="spacing" textLength="253.175" x="75.61" y="307.1616">less_than( other : String [1] ) : Boolean [1]</text><ellipse cx="66.61" cy="320.0996" fill="#84BE84" rx="3" ry="3" style="stroke:#038048;stroke-width:1;"/><text fill="#000000" font-family="sans-serif" font-size="14" lengthAdjust="spacing" textLength="246.3151" x="75.61" y="323.9616">contains( other : String [1] ) : Boolean [1]</text></g><!--class Ordered--><g class="entity" data-entity="Ordered" data-source-line="11" data-uid="ent0003" id="entity_Ordered"><rect fill="#F5F5F5" height="115.1997" rx="2.5" ry="2.5" style="stroke:#808080;stroke-width:1;stroke-dasharray:1,3;" width="376.4047" x="7" y="7"/><ellipse cx="164.9824" cy="23" fill="#A9DCDF" rx="11" ry="11" style="stroke:#181818;stroke-width:1;"/><path d="M159.4981,28.5 L161.5293,28.5 L165.5762,17.1563 L164.6699,17.1563 L168.4981,28.5 L170.6387,28.5 L166.3106,16.1719 L164.0918,16.1719 L159.4981,28.5 Z M161.8262,25 L168.2637,25 L168.2637,23.25 L161.8262,23.25 L161.8262,25 Z " fill="#000000"/><text fill="#808080" font-family="sans-serif" font-size="14" font-style="italic" lengthAdjust="spacing" textLength="51.9398" x="185.4824" y="28.362">Ordered</text><line style="stroke:#808080;stroke-width:1;stroke-dasharray:1,3;" x1="8" x2="382.4047" y1="39" y2="39"/><line style="stroke:#808080;stroke-width:1;stroke-dasharray:1,3;" x1="8" x2="382.4047" y1="47" y2="47"/><ellipse cx="18" cy="60.9" fill="#84BE84" rx="3" ry="3" style="stroke:#038048;stroke-width:1;"/><text fill="#808080" font-family="sans-serif" font-size="14" font-style="italic" lengthAdjust="spacing" textLength="267.679" x="27" y="64.7619">less_than( other : Ordered [1] ) : Boolean [1]</text><ellipse cx="18" cy="77.6999" fill="#84BE84" rx="3" ry="3" style="stroke:#038048;stroke-width:1;"/><text fill="#808080" font-family="sans-serif" font-size="14" lengthAdjust="spacing" textLength="329.1387" x="27" y="81.5619">less_than_or_equal( other : Ordered [1] ) : Boolean [1]</text><ellipse cx="18" cy="94.4998" fill="#84BE84" rx="3" ry="3" style="stroke:#038048;stroke-width:1;"/><text fill="#808080" font-family="sans-serif" font-size="14" lengthAdjust="spacing" textLength="288.9449" x="27" y="98.3618">greater_than( other : Ordered [1] ) : Boolean [1]</text><ellipse cx="18" cy="111.2997" fill="#84BE84" rx="3" ry="3" style="stroke:#038048;stroke-width:1;"/><text fill="#808080" font-family="sans-serif" font-size="14" lengthAdjust="spacing" textLength="350.4047" x="27" y="115.1617">greater_than_or_equal( other : Ordered [1] ) : Boolean [1]</text></g><!--reverse link Ordered to String--><g class="link" data-entity-1="Ordered" data-entity-2="String" data-source-line="18" data-uid="lnk4" id="link_Ordered_String"><path codeLine="18" d="M195.2,140.61 C195.2,159.19 195.2,162.09 195.2,181.73" fill="none" id="Ordered-backto-String" style="stroke:#181818;stroke-width:1;"/><polygon fill="none" points="195.2,122.61,189.2,140.61,201.2,140.61,195.2,122.61" style="stroke:#181818;stroke-width:1;"/></g></g></svg>
