<svg xmlns="http://www.w3.org/2000/svg" xmlns:xlink="http://www.w3.org/1999/xlink" contentStyleType="text/css" data-diagram-type="CLASS" height="186px" preserveAspectRatio="none" style="width:138px;height:186px;background:#FFFFFF;" version="1.1" viewBox="0 0 138 186" width="138px" zoomAndPan="magnify"><defs/><g><!--class TEMPLATE_ID--><g class="entity" data-entity="TEMPLATE_ID" data-source-line="2" data-uid="ent0002" id="entity_TEMPLATE_ID"><rect fill="#F1F1F1" height="48" rx="2.5" ry="2.5" style="stroke:#181818;stroke-width:0.5;" width="121.0256" x="8.97" y="131.8"/><ellipse cx="23.97" cy="147.8" fill="#ADD1B2" rx="11" ry="11" style="stroke:#181818;stroke-width:1;"/><path d="M23.97,154.2219 C25.1419,154.2219 26.3763,153.9563 27.7513,153.3469 L27.2669,151.8313 C26.1731,152.2531 25.1575,152.4406 24.2981,152.4406 C21.5794,152.4406 19.8606,150.5969 19.8606,147.6906 C19.8606,144.9406 21.4231,143.3469 24.1575,143.3469 C25.0794,143.3469 26.095,143.5344 27.2356,143.9563 L27.8138,142.4406 C26.72,141.8625 25.4231,141.5656 24.2356,141.5656 C20.47,141.5656 17.8919,144.2063 17.8919,148.0188 C17.8919,151.6906 20.3763,154.2219 23.97,154.2219 Z " fill="#000000"/><text fill="#000000" font-family="sans-serif" font-size="14" lengthAdjust="spacing" textLength="89.0256" x="37.97" y="153.162">TEMPLATE_ID</text><line style="stroke:#181818;stroke-width:0.5;" x1="9.97" x2="128.9956" y1="163.8" y2="163.8"/><line style="stroke:#181818;stroke-width:0.5;" x1="9.97" x2="128.9956" y1="171.8" y2="171.8"/></g><!--class OBJECT_ID--><g class="entity" data-entity="OBJECT_ID" data-source-line="5" data-uid="ent0003" id="entity_OBJECT_ID"><rect fill="#F5F5F5" height="64.7999" rx="2.5" ry="2.5" style="stroke:#808080;stroke-width:1;stroke-dasharray:1,3;" width="124.9656" x="7" y="7"/><ellipse cx="31.9504" cy="23" fill="#A9DCDF" rx="11" ry="11" style="stroke:#181818;stroke-width:1;"/><path d="M26.466,28.5 L28.4972,28.5 L32.5441,17.1563 L31.6379,17.1563 L35.466,28.5 L37.6066,28.5 L33.2785,16.1719 L31.0597,16.1719 L26.466,28.5 Z M28.7941,25 L35.2316,25 L35.2316,23.25 L28.7941,23.25 L28.7941,25 Z " fill="#000000"/><text fill="#808080" font-family="sans-serif" font-size="14" font-style="italic" lengthAdjust="spacing" textLength="70.8537" x="48.1615" y="28.362">OBJECT_ID</text><line style="stroke:#808080;stroke-width:1;stroke-dasharray:1,3;" x1="8" x2="130.9656" y1="39" y2="39"/><ellipse cx="18" cy="52.9" fill="none" rx="3" ry="3" style="stroke:#038048;stroke-width:1;"/><text fill="#808080" font-family="sans-serif" font-size="14" lengthAdjust="spacing" textLength="98.9656" x="27" y="56.7619">value : String [1]</text><line style="stroke:#808080;stroke-width:1;stroke-dasharray:1,3;" x1="8" x2="130.9656" y1="63.7999" y2="63.7999"/></g><!--reverse link OBJECT_ID to TEMPLATE_ID--><g class="link" data-entity-1="OBJECT_ID" data-entity-2="TEMPLATE_ID" data-source-line="9" data-uid="lnk4" id="link_OBJECT_ID_TEMPLATE_ID"><path codeLine="9" d="M69.48,90.27 C69.48,109.04 69.48,114.38 69.48,131.45" fill="none" id="OBJECT_ID-backto-TEMPLATE_ID" style="stroke:#181818;stroke-width:1;"/><polygon fill="none" points="69.48,72.27,63.48,90.27,75.48,90.27,69.48,72.27" style="stroke:#181818;stroke-width:1;"/></g></g></svg>
