<svg xmlns="http://www.w3.org/2000/svg" xmlns:xlink="http://www.w3.org/1999/xlink" contentStyleType="text/css" data-diagram-type="CLASS" height="220px" preserveAspectRatio="none" style="width:178px;height:220px;background:#FFFFFF;" version="1.1" viewBox="0 0 178 220" width="178px" zoomAndPan="magnify"><defs/><g><!--class TERMINOLOGY_ID--><g class="entity" data-entity="TERMINOLOGY_ID" data-source-line="2" data-uid="ent0002" id="entity_TERMINOLOGY_ID"><rect fill="#F1F1F1" height="81.5999" rx="2.5" ry="2.5" style="stroke:#181818;stroke-width:0.5;" width="164.0395" x="7" y="131.8"/><ellipse cx="28.2145" cy="147.8" fill="#ADD1B2" rx="11" ry="11" style="stroke:#181818;stroke-width:1;"/><path d="M28.2145,154.2219 C29.3864,154.2219 30.6207,153.9563 31.9957,153.3469 L31.5114,151.8313 C30.4176,152.2531 29.402,152.4406 28.5426,152.4406 C25.8239,152.4406 24.1051,150.5969 24.1051,147.6906 C24.1051,144.9406 25.6676,143.3469 28.402,143.3469 C29.3239,143.3469 30.3395,143.5344 31.4801,143.9563 L32.0582,142.4406 C30.9645,141.8625 29.6676,141.5656 28.4801,141.5656 C24.7145,141.5656 22.1364,144.2063 22.1364,148.0188 C22.1364,151.6906 24.6207,154.2219 28.2145,154.2219 Z " fill="#000000"/><text fill="#000000" font-family="sans-serif" font-size="14" lengthAdjust="spacing" textLength="118.2295" x="43.5955" y="153.162">TERMINOLOGY_ID</text><line style="stroke:#181818;stroke-width:0.5;" x1="8" x2="170.0395" y1="163.8" y2="163.8"/><line style="stroke:#181818;stroke-width:0.5;" x1="8" x2="170.0395" y1="171.8" y2="171.8"/><ellipse cx="18" cy="185.7" fill="#84BE84" rx="3" ry="3" style="stroke:#038048;stroke-width:1;"/><text fill="#000000" font-family="sans-serif" font-size="14" lengthAdjust="spacing" textLength="109.3116" x="27" y="189.5619">name() : String [1]</text><ellipse cx="18" cy="202.4999" fill="#84BE84" rx="3" ry="3" style="stroke:#038048;stroke-width:1;"/><text fill="#000000" font-family="sans-serif" font-size="14" lengthAdjust="spacing" textLength="138.0395" x="27" y="206.3619">version_id() : String [1]</text></g><!--class OBJECT_ID--><g class="entity" data-entity="OBJECT_ID" data-source-line="7" data-uid="ent0003" id="entity_OBJECT_ID"><rect fill="#F5F5F5" height="64.7999" rx="2.5" ry="2.5" style="stroke:#808080;stroke-width:1;stroke-dasharray:1,3;" width="124.9656" x="26.54" y="7"/><ellipse cx="51.4904" cy="23" fill="#A9DCDF" rx="11" ry="11" style="stroke:#181818;stroke-width:1;"/><path d="M46.006,28.5 L48.0372,28.5 L52.0841,17.1563 L51.1779,17.1563 L55.006,28.5 L57.1466,28.5 L52.8185,16.1719 L50.5997,16.1719 L46.006,28.5 Z M48.3341,25 L54.7716,25 L54.7716,23.25 L48.3341,23.25 L48.3341,25 Z " fill="#000000"/><text fill="#808080" font-family="sans-serif" font-size="14" font-style="italic" lengthAdjust="spacing" textLength="70.8537" x="67.7015" y="28.362">OBJECT_ID</text><line style="stroke:#808080;stroke-width:1;stroke-dasharray:1,3;" x1="27.54" x2="150.5056" y1="39" y2="39"/><ellipse cx="37.54" cy="52.9" fill="none" rx="3" ry="3" style="stroke:#038048;stroke-width:1;"/><text fill="#808080" font-family="sans-serif" font-size="14" lengthAdjust="spacing" textLength="98.9656" x="46.54" y="56.7619">value : String [1]</text><line style="stroke:#808080;stroke-width:1;stroke-dasharray:1,3;" x1="27.54" x2="150.5056" y1="63.7999" y2="63.7999"/></g><!--reverse link OBJECT_ID to TERMINOLOGY_ID--><g class="link" data-entity-1="OBJECT_ID" data-entity-2="TERMINOLOGY_ID" data-source-line="11" data-uid="lnk4" id="link_OBJECT_ID_TERMINOLOGY_ID"><path codeLine="11" d="M89.02,90.16 C89.02,108.06 89.02,112.58 89.02,131.67" fill="none" id="OBJECT_ID-backto-TERMINOLOGY_ID" style="stroke:#181818;stroke-width:1;"/><polygon fill="none" points="89.02,72.16,83.02,90.16,95.02,90.16,89.02,72.16" style="stroke:#181818;stroke-width:1;"/></g></g></svg>
