<svg xmlns="http://www.w3.org/2000/svg" xmlns:xlink="http://www.w3.org/1999/xlink" contentStyleType="text/css" data-diagram-type="CLASS" height="102px" preserveAspectRatio="none" style="width:240px;height:102px;background:#FFFFFF;" version="1.1" viewBox="0 0 240 102" width="240px" zoomAndPan="magnify"><defs/><g><!--class Terminology_term--><g class="entity" data-entity="Terminology_term" data-source-line="2" data-uid="ent0002" id="entity_Terminology_term"><rect fill="#F1F1F1" height="81.5999" rx="2.5" ry="2.5" style="stroke:#181818;stroke-width:0.5;" width="219.6333" x="7" y="7"/><ellipse cx="54.5789" cy="23" fill="#ADD1B2" rx="11" ry="11" style="stroke:#181818;stroke-width:1;"/><path d="M54.5789,29.4219 C55.7507,29.4219 56.9851,29.1563 58.3601,28.5469 L57.8757,27.0313 C56.782,27.4531 55.7664,27.6406 54.907,27.6406 C52.1882,27.6406 50.4695,25.7969 50.4695,22.8906 C50.4695,20.1406 52.032,18.5469 54.7664,18.5469 C55.6882,18.5469 56.7039,18.7344 57.8445,19.1563 L58.4226,17.6406 C57.3289,17.0625 56.032,16.7656 54.8445,16.7656 C51.0789,16.7656 48.5007,19.4063 48.5007,23.2188 C48.5007,26.8906 50.9851,29.4219 54.5789,29.4219 Z " fill="#000000"/><text fill="#000000" font-family="sans-serif" font-size="14" lengthAdjust="spacing" textLength="115.9755" x="75.0789" y="28.362">Terminology_term</text><line style="stroke:#181818;stroke-width:0.5;" x1="8" x2="225.6333" y1="39" y2="39"/><ellipse cx="18" cy="52.9" fill="none" rx="3" ry="3" style="stroke:#038048;stroke-width:1;"/><text fill="#000000" font-family="sans-serif" font-size="14" lengthAdjust="spacing" textLength="193.6333" x="27" y="56.7619">concept : Terminology_code [1]</text><ellipse cx="18" cy="69.6999" fill="none" rx="3" ry="3" style="stroke:#038048;stroke-width:1;"/><text fill="#000000" font-family="sans-serif" font-size="14" lengthAdjust="spacing" textLength="90.0477" x="27" y="73.5619">text : String [1]</text><line style="stroke:#181818;stroke-width:0.5;" x1="8" x2="225.6333" y1="80.5999" y2="80.5999"/></g></g></svg>
