<svg xmlns="http://www.w3.org/2000/svg" xmlns:xlink="http://www.w3.org/1999/xlink" contentStyleType="text/css" data-diagram-type="CLASS" height="604px" preserveAspectRatio="none" style="width:766px;height:604px;background:#FFFFFF;" version="1.1" viewBox="0 0 766 604" width="766px" zoomAndPan="magnify"><defs/><g><!--class Time--><g class="entity" data-entity="Time" data-source-line="2" data-uid="ent0002" id="entity_Time"><rect fill="#F1F1F1" height="64.7999" rx="2.5" ry="2.5" style="stroke:#181818;stroke-width:0.5;" width="110.9516" x="284.35" y="532.6"/><ellipse cx="320.8545" cy="548.6" fill="#ADD1B2" rx="11" ry="11" style="stroke:#181818;stroke-width:1;"/><path d="M320.8545,555.0219 C322.0264,555.0219 323.2608,554.7563 324.6358,554.1469 L324.1514,552.6313 C323.0576,553.0531 322.042,553.2406 321.1826,553.2406 C318.4639,553.2406 316.7451,551.3969 316.7451,548.4906 C316.7451,545.7406 318.3076,544.1469 321.042,544.1469 C321.9639,544.1469 322.9795,544.3344 324.1201,544.7563 L324.6983,543.2406 C323.6045,542.6625 322.3076,542.3656 321.1201,542.3656 C317.3545,542.3656 314.7764,545.0063 314.7764,548.8188 C314.7764,552.4906 317.2608,555.0219 320.8545,555.0219 Z " fill="#000000"/><text fill="#000000" font-family="sans-serif" font-size="14" lengthAdjust="spacing" textLength="31.1639" x="339.6333" y="553.962">Time</text><line style="stroke:#181818;stroke-width:0.5;" x1="285.35" x2="394.3016" y1="564.6" y2="564.6"/><ellipse cx="295.35" cy="578.5" fill="none" rx="3" ry="3" style="stroke:#038048;stroke-width:1;"/><text fill="#000000" font-family="sans-serif" font-size="14" lengthAdjust="spacing" textLength="84.9516" x="304.35" y="582.3619">value : Any [1]</text><line style="stroke:#181818;stroke-width:0.5;" x1="285.35" x2="394.3016" y1="589.3999" y2="589.3999"/></g><!--class ITime--><g class="entity" data-entity="ITime" data-source-line="6" data-uid="ent0003" id="entity_ITime"><rect fill="#F5F5F5" height="131.9996" rx="2.5" ry="2.5" style="stroke:#808080;stroke-width:1;stroke-dasharray:1,3;" width="201.4613" x="239.1" y="340.6"/><ellipse cx="318.1297" cy="356.6" fill="#A9DCDF" rx="11" ry="11" style="stroke:#181818;stroke-width:1;"/><path d="M312.6453,362.1 L314.6766,362.1 L318.7235,350.7562 L317.8172,350.7562 L321.6453,362.1 L323.786,362.1 L319.4578,349.7719 L317.2391,349.7719 L312.6453,362.1 Z M314.9735,358.6 L321.411,358.6 L321.411,356.85 L314.9735,356.85 L314.9735,358.6 Z " fill="#000000"/><text fill="#808080" font-family="sans-serif" font-size="14" font-style="italic" lengthAdjust="spacing" textLength="34.9019" x="338.6297" y="361.962">ITime</text><line style="stroke:#808080;stroke-width:1;stroke-dasharray:1,3;" x1="240.1" x2="439.5613" y1="372.6" y2="372.6"/><line style="stroke:#808080;stroke-width:1;stroke-dasharray:1,3;" x1="240.1" x2="439.5613" y1="380.6" y2="380.6"/><ellipse cx="250.1" cy="394.5" fill="#84BE84" rx="3" ry="3" style="stroke:#038048;stroke-width:1;"/><text fill="#808080" font-family="sans-serif" font-size="14" lengthAdjust="spacing" textLength="110.7116" x="259.1" y="398.3619">hour() : Integer [1]</text><ellipse cx="250.1" cy="411.2999" fill="#84BE84" rx="3" ry="3" style="stroke:#038048;stroke-width:1;"/><text fill="#808080" font-family="sans-serif" font-size="14" lengthAdjust="spacing" textLength="125.7895" x="259.1" y="415.1619">minute() : Integer [1]</text><ellipse cx="250.1" cy="428.0998" fill="#84BE84" rx="3" ry="3" style="stroke:#038048;stroke-width:1;"/><text fill="#808080" font-family="sans-serif" font-size="14" lengthAdjust="spacing" textLength="126.0275" x="259.1" y="431.9618">second() : Integer [1]</text><ellipse cx="250.1" cy="444.8997" fill="#84BE84" rx="3" ry="3" style="stroke:#038048;stroke-width:1;"/><text fill="#808080" font-family="sans-serif" font-size="14" lengthAdjust="spacing" textLength="174.5653" x="259.1" y="448.7617">fractional_second() : Real [1]</text><ellipse cx="250.1" cy="461.6997" fill="#84BE84" rx="3" ry="3" style="stroke:#038048;stroke-width:1;"/><text fill="#808080" font-family="sans-serif" font-size="14" lengthAdjust="spacing" textLength="175.4613" x="259.1" y="465.5616">timezone() : ITimezone [0..1]</text></g><!--class Temporal--><g class="entity" data-entity="Temporal" data-source-line="14" data-uid="ent0004" id="entity_Temporal"><rect fill="#F5F5F5" height="48" rx="2.5" ry="2.5" style="stroke:#808080;stroke-width:1;stroke-dasharray:1,3;" width="91.9898" x="293.83" y="232.6"/><ellipse cx="308.83" cy="248.6" fill="#A9DCDF" rx="11" ry="11" style="stroke:#181818;stroke-width:1;"/><path d="M303.3456,254.1 L305.3769,254.1 L309.4238,242.7562 L308.5175,242.7562 L312.3456,254.1 L314.4863,254.1 L310.1581,241.7719 L307.9394,241.7719 L303.3456,254.1 Z M305.6738,250.6 L312.1113,250.6 L312.1113,248.85 L305.6738,248.85 L305.6738,250.6 Z " fill="#000000"/><text fill="#808080" font-family="sans-serif" font-size="14" font-style="italic" lengthAdjust="spacing" textLength="59.9898" x="322.83" y="253.962">Temporal</text><line style="stroke:#808080;stroke-width:1;stroke-dasharray:1,3;" x1="294.83" x2="384.8198" y1="264.6" y2="264.6"/><line style="stroke:#808080;stroke-width:1;stroke-dasharray:1,3;" x1="294.83" x2="384.8198" y1="272.6" y2="272.6"/></g><!--class Ordered--><g class="entity" data-entity="Ordered" data-source-line="17" data-uid="ent0005" id="entity_Ordered"><rect fill="#F5F5F5" height="64.7999" rx="2.5" ry="2.5" style="stroke:#808080;stroke-width:1;stroke-dasharray:1,3;" width="271.657" x="7" y="57.4"/><ellipse cx="112.6086" cy="73.4" fill="#A9DCDF" rx="11" ry="11" style="stroke:#181818;stroke-width:1;"/><path d="M107.1243,78.9 L109.1555,78.9 L113.2024,67.5562 L112.2961,67.5562 L116.1243,78.9 L118.2649,78.9 L113.9368,66.5719 L111.718,66.5719 L107.1243,78.9 Z M109.4524,75.4 L115.8899,75.4 L115.8899,73.65 L109.4524,73.65 L109.4524,75.4 Z " fill="#000000"/><text fill="#808080" font-family="sans-serif" font-size="14" font-style="italic" lengthAdjust="spacing" textLength="51.9398" x="133.1086" y="78.762">Ordered</text><line style="stroke:#808080;stroke-width:1;stroke-dasharray:1,3;" x1="8" x2="277.657" y1="89.4" y2="89.4"/><line style="stroke:#808080;stroke-width:1;stroke-dasharray:1,3;" x1="8" x2="277.657" y1="97.4" y2="97.4"/><ellipse cx="18" cy="111.3" fill="#84BE84" rx="3" ry="3" style="stroke:#038048;stroke-width:1;"/><text fill="#808080" font-family="sans-serif" font-size="14" font-style="italic" lengthAdjust="spacing" textLength="245.657" x="27" y="115.1619">infix &lt;( other : Ordered [1] ) : Boolean [1]</text></g><!--class Time_Definitions--><g class="entity" data-entity="Time_Definitions" data-source-line="23" data-uid="ent0007" id="entity_Time_Definitions"><rect fill="#F5F5F5" height="165.5995" rx="2.5" ry="2.5" style="stroke:#808080;stroke-width:1;stroke-dasharray:1,3;" width="445.5084" x="314.07" y="7"/><ellipse cx="479.5914" cy="23" fill="#ADD1B2" rx="11" ry="11" style="stroke:#181818;stroke-width:1;"/><path d="M479.5914,29.4219 C480.7633,29.4219 481.9977,29.1563 483.3727,28.5469 L482.8883,27.0313 C481.7945,27.4531 480.7789,27.6406 479.9195,27.6406 C477.2008,27.6406 475.482,25.7969 475.482,22.8906 C475.482,20.1406 477.0445,18.5469 479.7789,18.5469 C480.7008,18.5469 481.7164,18.7344 482.857,19.1563 L483.4352,17.6406 C482.3414,17.0625 481.0445,16.7656 479.857,16.7656 C476.0914,16.7656 473.5133,19.4063 473.5133,23.2188 C473.5133,26.8906 475.9977,29.4219 479.5914,29.4219 Z " fill="#000000"/><text fill="#808080" font-family="sans-serif" font-size="14" lengthAdjust="spacing" textLength="105.9656" x="500.0914" y="28.362">Time_Definitions</text><line style="stroke:#808080;stroke-width:1;stroke-dasharray:1,3;" x1="315.07" x2="758.5784" y1="39" y2="39"/><line style="stroke:#808080;stroke-width:1;stroke-dasharray:1,3;" x1="315.07" x2="758.5784" y1="47" y2="47"/><ellipse cx="325.07" cy="60.9" fill="#84BE84" rx="3" ry="3" style="stroke:#038048;stroke-width:1;"/><text fill="#808080" font-family="sans-serif" font-size="14" lengthAdjust="spacing" textLength="237.0191" x="334.07" y="64.7619">valid_year( y : Integer [1] ) : Boolean [1]</text><ellipse cx="325.07" cy="77.6999" fill="#84BE84" rx="3" ry="3" style="stroke:#038048;stroke-width:1;"/><text fill="#808080" font-family="sans-serif" font-size="14" lengthAdjust="spacing" textLength="257.417" x="334.07" y="81.5619">valid_month( m : Integer [1] ) : Boolean [1]</text><ellipse cx="325.07" cy="94.4998" fill="#84BE84" rx="3" ry="3" style="stroke:#038048;stroke-width:1;"/><text fill="#808080" font-family="sans-serif" font-size="14" lengthAdjust="spacing" textLength="412.6764" x="334.07" y="98.3618">valid_day( y : Integer [1], m : Integer [1], d : Integer [1] ) : Boolean [1]</text><ellipse cx="325.07" cy="111.2997" fill="#84BE84" rx="3" ry="3" style="stroke:#038048;stroke-width:1;"/><text fill="#808080" font-family="sans-serif" font-size="14" lengthAdjust="spacing" textLength="419.5084" x="334.07" y="115.1617">valid_hour( h : Integer [1], m : Integer [1], s : Integer [1] ) : Boolean [1]</text><ellipse cx="325.07" cy="128.0997" fill="#84BE84" rx="3" ry="3" style="stroke:#038048;stroke-width:1;"/><text fill="#808080" font-family="sans-serif" font-size="14" lengthAdjust="spacing" textLength="260.189" x="334.07" y="131.9616">valid_minute( m : Integer [1] ) : Boolean [1]</text><ellipse cx="325.07" cy="144.8996" fill="#84BE84" rx="3" ry="3" style="stroke:#038048;stroke-width:1;"/><text fill="#808080" font-family="sans-serif" font-size="14" lengthAdjust="spacing" textLength="254.519" x="334.07" y="148.7616">valid_second( s : Integer [1] ) : Boolean [1]</text><ellipse cx="325.07" cy="161.6995" fill="#84BE84" rx="3" ry="3" style="stroke:#038048;stroke-width:1;"/><text fill="#808080" font-family="sans-serif" font-size="14" lengthAdjust="spacing" textLength="325.6528" x="334.07" y="165.5615">valid_fractional_second( fs : Double [1] ) : Boolean [1]</text></g><!--reverse link Ordered to Temporal--><g class="link" data-entity-1="Ordered" data-entity-2="Temporal" data-source-line="21" data-uid="lnk6" id="link_Ordered_Temporal"><path codeLine="21" d="M194.6164,134.1291 C232.9664,166.2091 277.5,203.46 311.83,232.17" fill="none" id="Ordered-backto-Temporal" style="stroke:#181818;stroke-width:1;"/><polygon fill="none" points="180.81,122.58,190.7667,138.7313,198.4661,129.527,180.81,122.58" style="stroke:#181818;stroke-width:1;"/></g><!--reverse link Time_Definitions to Temporal--><g class="link" data-entity-1="Time_Definitions" data-entity-2="Temporal" data-source-line="33" data-uid="lnk8" id="link_Time_Definitions_Temporal"><path codeLine="33" d="M424.8125,184.5078 C398.7825,206.2778 386.55,216.52 367.73,232.26" fill="none" id="Time_Definitions-backto-Temporal" style="stroke:#181818;stroke-width:1;"/><polygon fill="none" points="438.62,172.96,420.9632,179.9053,428.6617,189.1103,438.62,172.96" style="stroke:#181818;stroke-width:1;"/></g><!--reverse link Temporal to ITime--><g class="link" data-entity-1="Temporal" data-entity-2="ITime" data-source-line="35" data-uid="lnk9" id="link_Temporal_ITime"><path codeLine="35" d="M339.83,299.05 C339.83,315.11 339.83,319.25 339.83,340.41" fill="none" id="Temporal-backto-ITime" style="stroke:#181818;stroke-width:1;"/><polygon fill="none" points="339.83,281.05,333.83,299.05,345.83,299.05,339.83,281.05" style="stroke:#181818;stroke-width:1;"/></g><!--reverse link ITime to Time--><g class="link" data-entity-1="ITime" data-entity-2="Time" data-source-line="37" data-uid="lnk10" id="link_ITime_Time"><path codeLine="37" d="M339.83,491.02 C339.83,511.45 339.83,515.07 339.83,532.1" fill="none" id="ITime-backto-Time" style="stroke:#181818;stroke-width:1;"/><polygon fill="none" points="339.83,473.02,333.83,491.02,345.83,491.02,339.83,473.02" style="stroke:#181818;stroke-width:1;"/></g></g></svg>
