<svg xmlns="http://www.w3.org/2000/svg" xmlns:xlink="http://www.w3.org/1999/xlink" contentStyleType="text/css" data-diagram-type="CLASS" height="253px" preserveAspectRatio="none" style="width:466px;height:253px;background:#FFFFFF;" version="1.1" viewBox="0 0 466 253" width="466px" zoomAndPan="magnify"><defs/><g><!--class Time_Definitions--><g class="entity" data-entity="Time_Definitions" data-source-line="2" data-uid="ent0002" id="entity_Time_Definitions"><rect fill="#F1F1F1" height="232.7992" rx="2.5" ry="2.5" style="stroke:#181818;stroke-width:0.5;" width="445.5084" x="7" y="7"/><ellipse cx="172.5214" cy="23" fill="#ADD1B2" rx="11" ry="11" style="stroke:#181818;stroke-width:1;"/><path d="M172.5214,29.4219 C173.6933,29.4219 174.9277,29.1563 176.3027,28.5469 L175.8183,27.0313 C174.7245,27.4531 173.7089,27.6406 172.8495,27.6406 C170.1308,27.6406 168.412,25.7969 168.412,22.8906 C168.412,20.1406 169.9745,18.5469 172.7089,18.5469 C173.6308,18.5469 174.6464,18.7344 175.787,19.1563 L176.3652,17.6406 C175.2714,17.0625 173.9745,16.7656 172.787,16.7656 C169.0214,16.7656 166.4433,19.4063 166.4433,23.2188 C166.4433,26.8906 168.9277,29.4219 172.5214,29.4219 Z " fill="#000000"/><text fill="#000000" font-family="sans-serif" font-size="14" lengthAdjust="spacing" textLength="105.9656" x="193.0214" y="28.362">Time_Definitions</text><line style="stroke:#181818;stroke-width:0.5;" x1="8" x2="451.5084" y1="39" y2="39"/><line style="stroke:#181818;stroke-width:0.5;" x1="8" x2="451.5084" y1="47" y2="47"/><ellipse cx="18" cy="60.9" fill="#84BE84" rx="3" ry="3" style="stroke:#038048;stroke-width:1;"/><text fill="#000000" font-family="sans-serif" font-size="14" lengthAdjust="spacing" textLength="237.0191" x="27" y="64.7619">valid_year( y : Integer [1] ) : Boolean [1]</text><ellipse cx="18" cy="77.6999" fill="#84BE84" rx="3" ry="3" style="stroke:#038048;stroke-width:1;"/><text fill="#000000" font-family="sans-serif" font-size="14" lengthAdjust="spacing" textLength="257.417" x="27" y="81.5619">valid_month( m : Integer [1] ) : Boolean [1]</text><ellipse cx="18" cy="94.4998" fill="#84BE84" rx="3" ry="3" style="stroke:#038048;stroke-width:1;"/><text fill="#000000" font-family="sans-serif" font-size="14" lengthAdjust="spacing" textLength="412.6764" x="27" y="98.3618">valid_day( y : Integer [1], m : Integer [1], d : Integer [1] ) : Boolean [1]</text><ellipse cx="18" cy="111.2997" fill="#84BE84" rx="3" ry="3" style="stroke:#038048;stroke-width:1;"/><text fill="#000000" font-family="sans-serif" font-size="14" lengthAdjust="spacing" textLength="419.5084" x="27" y="115.1617">valid_hour( h : Integer [1], m : Integer [1], s : Integer [1] ) : Boolean [1]</text><ellipse cx="18" cy="128.0997" fill="#84BE84" rx="3" ry="3" style="stroke:#038048;stroke-width:1;"/><text fill="#000000" font-family="sans-serif" font-size="14" lengthAdjust="spacing" textLength="260.189" x="27" y="131.9616">valid_minute( m : Integer [1] ) : Boolean [1]</text><ellipse cx="18" cy="144.8996" fill="#84BE84" rx="3" ry="3" style="stroke:#038048;stroke-width:1;"/><text fill="#000000" font-family="sans-serif" font-size="14" lengthAdjust="spacing" textLength="254.519" x="27" y="148.7616">valid_second( s : Integer [1] ) : Boolean [1]</text><ellipse cx="18" cy="161.6995" fill="#84BE84" rx="3" ry="3" style="stroke:#038048;stroke-width:1;"/><text fill="#000000" font-family="sans-serif" font-size="14" lengthAdjust="spacing" textLength="325.6528" x="27" y="165.5615">valid_fractional_second( fs : Double [1] ) : Boolean [1]</text><ellipse cx="18" cy="178.4995" fill="#84BE84" rx="3" ry="3" style="stroke:#038048;stroke-width:1;"/><text fill="#000000" font-family="sans-serif" font-size="14" lengthAdjust="spacing" textLength="286.1729" x="27" y="182.3614">valid_iso8601_date( s : String [1] ) : Boolean [1]</text><ellipse cx="18" cy="195.2994" fill="#84BE84" rx="3" ry="3" style="stroke:#038048;stroke-width:1;"/><text fill="#000000" font-family="sans-serif" font-size="14" lengthAdjust="spacing" textLength="286.8729" x="27" y="199.1614">valid_iso8601_time( s : String [1] ) : Boolean [1]</text><ellipse cx="18" cy="212.0993" fill="#84BE84" rx="3" ry="3" style="stroke:#038048;stroke-width:1;"/><text fill="#000000" font-family="sans-serif" font-size="14" lengthAdjust="spacing" textLength="321.4667" x="27" y="215.9613">valid_iso8601_date_time( s : String [1] ) : Boolean [1]</text><ellipse cx="18" cy="228.8992" fill="#84BE84" rx="3" ry="3" style="stroke:#038048;stroke-width:1;"/><text fill="#000000" font-family="sans-serif" font-size="14" lengthAdjust="spacing" textLength="311.1908" x="27" y="232.7612">valid_iso8601_duration( s : String [1] ) : Boolean [1]</text></g></g></svg>
