<svg xmlns="http://www.w3.org/2000/svg" xmlns:xlink="http://www.w3.org/1999/xlink" contentStyleType="text/css" data-diagram-type="CLASS" height="152px" preserveAspectRatio="none" style="width:299px;height:152px;background:#FFFFFF;" version="1.1" viewBox="0 0 299 152" width="299px" zoomAndPan="magnify"><defs/><g><!--class TRANSLATION_DETAILS--><g class="entity" data-entity="TRANSLATION_DETAILS" data-source-line="2" data-uid="ent0002" id="entity_TRANSLATION_DETAILS"><rect fill="#F1F1F1" height="131.9996" rx="2.5" ry="2.5" style="stroke:#181818;stroke-width:0.5;" width="278.727" x="7" y="7"/><ellipse cx="65.7928" cy="23" fill="#ADD1B2" rx="11" ry="11" style="stroke:#181818;stroke-width:1;"/><path d="M65.7928,29.4219 C66.9647,29.4219 68.1991,29.1563 69.5741,28.5469 L69.0897,27.0313 C67.9959,27.4531 66.9803,27.6406 66.1209,27.6406 C63.4022,27.6406 61.6834,25.7969 61.6834,22.8906 C61.6834,20.1406 63.2459,18.5469 65.9803,18.5469 C66.9022,18.5469 67.9178,18.7344 69.0584,19.1563 L69.6366,17.6406 C68.5428,17.0625 67.2459,16.7656 66.0584,16.7656 C62.2928,16.7656 59.7147,19.4063 59.7147,23.2188 C59.7147,26.8906 62.1991,29.4219 65.7928,29.4219 Z " fill="#000000"/><text fill="#000000" font-family="sans-serif" font-size="14" lengthAdjust="spacing" textLength="152.6414" x="86.2928" y="28.362">TRANSLATION_DETAILS</text><line style="stroke:#181818;stroke-width:0.5;" x1="8" x2="284.727" y1="39" y2="39"/><ellipse cx="18" cy="52.9" fill="none" rx="3" ry="3" style="stroke:#038048;stroke-width:1;"/><text fill="#000000" font-family="sans-serif" font-size="14" lengthAdjust="spacing" textLength="201.5712" x="27" y="56.7619">language : Terminology_code [1]</text><ellipse cx="18" cy="69.6999" fill="none" rx="3" ry="3" style="stroke:#038048;stroke-width:1;"/><text fill="#000000" font-family="sans-serif" font-size="14" lengthAdjust="spacing" textLength="196.1253" x="27" y="73.5619">author : Hash&lt;String,String&gt; [1]</text><ellipse cx="18" cy="86.4998" fill="none" rx="3" ry="3" style="stroke:#038048;stroke-width:1;"/><text fill="#000000" font-family="sans-serif" font-size="14" lengthAdjust="spacing" textLength="159.2354" x="27" y="90.3618">accreditaton : String [0..1]</text><ellipse cx="18" cy="103.2997" fill="none" rx="3" ry="3" style="stroke:#038048;stroke-width:1;"/><text fill="#000000" font-family="sans-serif" font-size="14" lengthAdjust="spacing" textLength="252.727" x="27" y="107.1617">other_details : Hash&lt;String,String&gt; [0..1]</text><ellipse cx="18" cy="120.0997" fill="none" rx="3" ry="3" style="stroke:#038048;stroke-width:1;"/><text fill="#000000" font-family="sans-serif" font-size="14" lengthAdjust="spacing" textLength="226.9811" x="27" y="123.9616">version_last_translated : String [0..1]</text><line style="stroke:#181818;stroke-width:0.5;" x1="8" x2="284.727" y1="130.9996" y2="130.9996"/></g></g></svg>
