<svg xmlns="http://www.w3.org/2000/svg" xmlns:xlink="http://www.w3.org/1999/xlink" contentStyleType="text/css" data-diagram-type="CLASS" height="170px" preserveAspectRatio="none" style="width:123px;height:170px;background:#FFFFFF;" version="1.1" viewBox="0 0 123 170" width="123px" zoomAndPan="magnify"><defs/><g><!--class TUPLE2--><g class="entity" data-entity="TUPLE2" data-source-line="2" data-uid="ent0002" id="entity_TUPLE2"><rect fill="#F1F1F1" height="48" rx="2.5" ry="2.5" style="stroke:#181818;stroke-width:0.5;" width="105.0139" x="7" y="115"/><ellipse cx="22" cy="131" fill="#ADD1B2" rx="11" ry="11" style="stroke:#181818;stroke-width:1;"/><path d="M22,137.4219 C23.1719,137.4219 24.4063,137.1563 25.7813,136.5469 L25.2969,135.0313 C24.2031,135.4531 23.1875,135.6406 22.3281,135.6406 C19.6094,135.6406 17.8906,133.7969 17.8906,130.8906 C17.8906,128.1406 19.4531,126.5469 22.1875,126.5469 C23.1094,126.5469 24.125,126.7344 25.2656,127.1563 L25.8438,125.6406 C24.75,125.0625 23.4531,124.7656 22.2656,124.7656 C18.5,124.7656 15.9219,127.4063 15.9219,131.2188 C15.9219,134.8906 18.4063,137.4219 22,137.4219 Z " fill="#000000"/><text fill="#000000" font-family="sans-serif" font-size="14" lengthAdjust="spacing" textLength="48.2298" x="36" y="136.362">TUPLE2</text><rect fill="#FFFFFF" height="16.4001" style="stroke:#181818;stroke-width:1;stroke-dasharray:2,2;" width="22.7841" x="92.2298" y="112"/><text fill="#000000" font-family="sans-serif" font-size="12" font-style="italic" lengthAdjust="spacing" textLength="20.7841" x="93.2298" y="124.7961">A, B</text><line style="stroke:#181818;stroke-width:0.5;" x1="8" x2="111.0139" y1="147" y2="147"/><line style="stroke:#181818;stroke-width:0.5;" x1="8" x2="111.0139" y1="155" y2="155"/></g><!--class TUPLE--><g class="entity" data-entity="TUPLE" data-source-line="5" data-uid="ent0003" id="entity_TUPLE"><rect fill="#F5F5F5" height="48" rx="2.5" ry="2.5" style="stroke:#808080;stroke-width:1;stroke-dasharray:1,3;" width="72.8378" x="23.09" y="7"/><ellipse cx="38.09" cy="23" fill="#ADD1B2" rx="11" ry="11" style="stroke:#181818;stroke-width:1;"/><path d="M38.09,29.4219 C39.2619,29.4219 40.4963,29.1563 41.8713,28.5469 L41.3869,27.0313 C40.2931,27.4531 39.2775,27.6406 38.4181,27.6406 C35.6994,27.6406 33.9806,25.7969 33.9806,22.8906 C33.9806,20.1406 35.5431,18.5469 38.2775,18.5469 C39.1994,18.5469 40.215,18.7344 41.3556,19.1563 L41.9338,17.6406 C40.84,17.0625 39.5431,16.7656 38.3556,16.7656 C34.59,16.7656 32.0119,19.4063 32.0119,23.2188 C32.0119,26.8906 34.4963,29.4219 38.09,29.4219 Z " fill="#000000"/><text fill="#808080" font-family="sans-serif" font-size="14" lengthAdjust="spacing" textLength="40.8378" x="52.09" y="28.362">TUPLE</text><line style="stroke:#808080;stroke-width:1;stroke-dasharray:1,3;" x1="24.09" x2="94.9278" y1="39" y2="39"/><line style="stroke:#808080;stroke-width:1;stroke-dasharray:1,3;" x1="24.09" x2="94.9278" y1="47" y2="47"/></g><!--reverse link TUPLE to TUPLE2--><g class="link" data-entity-1="TUPLE" data-entity-2="TUPLE2" data-source-line="8" data-uid="lnk4" id="link_TUPLE_TUPLE2"><path codeLine="8" d="M59.51,73.26 C59.51,90.94 59.51,97.13 59.51,114.79" fill="none" id="TUPLE-backto-TUPLE2" style="stroke:#181818;stroke-width:1;"/><polygon fill="none" points="59.51,55.26,53.51,73.26,65.51,73.26,59.51,55.26" style="stroke:#181818;stroke-width:1;"/></g></g></svg>
