<svg xmlns="http://www.w3.org/2000/svg" xmlns:xlink="http://www.w3.org/1999/xlink" contentStyleType="text/css" data-diagram-type="CLASS" height="69px" preserveAspectRatio="none" style="width:93px;height:69px;background:#FFFFFF;" version="1.1" viewBox="0 0 93 69" width="93px" zoomAndPan="magnify"><defs/><g><!--class TUPLE--><g class="entity" data-entity="TUPLE" data-source-line="2" data-uid="ent0002" id="entity_TUPLE"><rect fill="#F1F1F1" height="48" rx="2.5" ry="2.5" style="stroke:#181818;stroke-width:0.5;" width="72.8378" x="7" y="7"/><ellipse cx="22" cy="23" fill="#ADD1B2" rx="11" ry="11" style="stroke:#181818;stroke-width:1;"/><path d="M22,29.4219 C23.1719,29.4219 24.4063,29.1563 25.7813,28.5469 L25.2969,27.0313 C24.2031,27.4531 23.1875,27.6406 22.3281,27.6406 C19.6094,27.6406 17.8906,25.7969 17.8906,22.8906 C17.8906,20.1406 19.4531,18.5469 22.1875,18.5469 C23.1094,18.5469 24.125,18.7344 25.2656,19.1563 L25.8438,17.6406 C24.75,17.0625 23.4531,16.7656 22.2656,16.7656 C18.5,16.7656 15.9219,19.4063 15.9219,23.2188 C15.9219,26.8906 18.4063,29.4219 22,29.4219 Z " fill="#000000"/><text fill="#000000" font-family="sans-serif" font-size="14" lengthAdjust="spacing" textLength="40.8378" x="36" y="28.362">TUPLE</text><line style="stroke:#181818;stroke-width:0.5;" x1="8" x2="78.8378" y1="39" y2="39"/><line style="stroke:#181818;stroke-width:0.5;" x1="8" x2="78.8378" y1="47" y2="47"/></g></g></svg>
