<svg xmlns="http://www.w3.org/2000/svg" xmlns:xlink="http://www.w3.org/1999/xlink" contentStyleType="text/css" data-diagram-type="CLASS" height="170px" preserveAspectRatio="none" style="width:108px;height:170px;background:#FFFFFF;" version="1.1" viewBox="0 0 108 170" width="108px" zoomAndPan="magnify"><defs/><g><!--class TUPLE1--><g class="entity" data-entity="TUPLE1" data-source-line="2" data-uid="ent0002" id="entity_TUPLE1"><rect fill="#F1F1F1" height="48" rx="2.5" ry="2.5" style="stroke:#181818;stroke-width:0.5;" width="90.2719" x="7" y="115"/><ellipse cx="22" cy="131" fill="#ADD1B2" rx="11" ry="11" style="stroke:#181818;stroke-width:1;"/><path d="M22,137.4219 C23.1719,137.4219 24.4063,137.1563 25.7813,136.5469 L25.2969,135.0313 C24.2031,135.4531 23.1875,135.6406 22.3281,135.6406 C19.6094,135.6406 17.8906,133.7969 17.8906,130.8906 C17.8906,128.1406 19.4531,126.5469 22.1875,126.5469 C23.1094,126.5469 24.125,126.7344 25.2656,127.1563 L25.8438,125.6406 C24.75,125.0625 23.4531,124.7656 22.2656,124.7656 C18.5,124.7656 15.9219,127.4063 15.9219,131.2188 C15.9219,134.8906 18.4063,137.4219 22,137.4219 Z " fill="#000000"/><text fill="#000000" font-family="sans-serif" font-size="14" lengthAdjust="spacing" textLength="46.7598" x="36" y="136.362">TUPLE1</text><rect fill="#FFFFFF" height="16.4001" style="stroke:#181818;stroke-width:1;stroke-dasharray:2,2;" width="9.5121" x="90.7598" y="112"/><text fill="#000000" font-family="sans-serif" font-size="12" font-style="italic" lengthAdjust="spacing" textLength="7.5121" x="91.7598" y="124.7961">A</text><line style="stroke:#181818;stroke-width:0.5;" x1="8" x2="96.2719" y1="147" y2="147"/><line style="stroke:#181818;stroke-width:0.5;" x1="8" x2="96.2719" y1="155" y2="155"/></g><!--class TUPLE--><g class="entity" data-entity="TUPLE" data-source-line="5" data-uid="ent0003" id="entity_TUPLE"><rect fill="#F5F5F5" height="48" rx="2.5" ry="2.5" style="stroke:#808080;stroke-width:1;stroke-dasharray:1,3;" width="72.8378" x="15.72" y="7"/><ellipse cx="30.72" cy="23" fill="#ADD1B2" rx="11" ry="11" style="stroke:#181818;stroke-width:1;"/><path d="M30.72,29.4219 C31.8919,29.4219 33.1263,29.1563 34.5013,28.5469 L34.0169,27.0313 C32.9231,27.4531 31.9075,27.6406 31.0481,27.6406 C28.3294,27.6406 26.6106,25.7969 26.6106,22.8906 C26.6106,20.1406 28.1731,18.5469 30.9075,18.5469 C31.8294,18.5469 32.845,18.7344 33.9856,19.1563 L34.5638,17.6406 C33.47,17.0625 32.1731,16.7656 30.9856,16.7656 C27.22,16.7656 24.6419,19.4063 24.6419,23.2188 C24.6419,26.8906 27.1263,29.4219 30.72,29.4219 Z " fill="#000000"/><text fill="#808080" font-family="sans-serif" font-size="14" lengthAdjust="spacing" textLength="40.8378" x="44.72" y="28.362">TUPLE</text><line style="stroke:#808080;stroke-width:1;stroke-dasharray:1,3;" x1="16.72" x2="87.5578" y1="39" y2="39"/><line style="stroke:#808080;stroke-width:1;stroke-dasharray:1,3;" x1="16.72" x2="87.5578" y1="47" y2="47"/></g><!--reverse link TUPLE to TUPLE1--><g class="link" data-entity-1="TUPLE" data-entity-2="TUPLE1" data-source-line="8" data-uid="lnk4" id="link_TUPLE_TUPLE1"><path codeLine="8" d="M52.14,73.26 C52.14,90.94 52.14,97.13 52.14,114.79" fill="none" id="TUPLE-backto-TUPLE1" style="stroke:#181818;stroke-width:1;"/><polygon fill="none" points="52.14,55.26,46.14,73.26,58.14,73.26,52.14,55.26" style="stroke:#181818;stroke-width:1;"/></g></g></svg>
