<svg xmlns="http://www.w3.org/2000/svg" xmlns:xlink="http://www.w3.org/1999/xlink" contentStyleType="text/css" data-diagram-type="CLASS" height="237px" preserveAspectRatio="none" style="width:180px;height:237px;background:#FFFFFF;" version="1.1" viewBox="0 0 180 237" width="180px" zoomAndPan="magnify"><defs/><g><!--class TYPE_DEF_TIME--><g class="entity" data-entity="TYPE_DEF_TIME" data-source-line="2" data-uid="ent0002" id="entity_TYPE_DEF_TIME"><rect fill="#F1F1F1" height="81.5999" rx="2.5" ry="2.5" style="stroke:#181818;stroke-width:0.5;" width="166.4055" x="7" y="148.6"/><ellipse cx="35.5224" cy="164.6" fill="#ADD1B2" rx="11" ry="11" style="stroke:#181818;stroke-width:1;"/><path d="M35.5224,171.0219 C36.6943,171.0219 37.9287,170.7563 39.3037,170.1469 L38.8193,168.6313 C37.7256,169.0531 36.7099,169.2406 35.8506,169.2406 C33.1318,169.2406 31.4131,167.3969 31.4131,164.4906 C31.4131,161.7406 32.9756,160.1469 35.7099,160.1469 C36.6318,160.1469 37.6474,160.3344 38.7881,160.7563 L39.3662,159.2406 C38.2724,158.6625 36.9756,158.3656 35.7881,158.3656 C32.0224,158.3656 29.4443,161.0063 29.4443,164.8188 C29.4443,168.4906 31.9287,171.0219 35.5224,171.0219 Z " fill="#000000"/><text fill="#000000" font-family="sans-serif" font-size="14" lengthAdjust="spacing" textLength="104.3556" x="52.5274" y="169.962">TYPE_DEF_TIME</text><line style="stroke:#181818;stroke-width:0.5;" x1="8" x2="172.4055" y1="180.6" y2="180.6"/><ellipse cx="18" cy="194.5" fill="none" rx="3" ry="3" style="stroke:#038048;stroke-width:1;"/><text fill="#000000" font-family="sans-serif" font-size="14" lengthAdjust="spacing" textLength="135.0435" x="27" y="198.3619">type_name : String [1]</text><ellipse cx="18" cy="211.2999" fill="none" rx="3" ry="3" style="stroke:#038048;stroke-width:1;"/><text fill="#000000" font-family="sans-serif" font-size="14" lengthAdjust="spacing" textLength="140.4055" x="27" y="215.1619">type_anchor : ITime [1]</text><line style="stroke:#181818;stroke-width:0.5;" x1="8" x2="172.4055" y1="222.1999" y2="222.1999"/></g><!--class EXPR_TYPE_DEF--><g class="entity" data-entity="EXPR_TYPE_DEF" data-source-line="7" data-uid="ent0003" id="entity_EXPR_TYPE_DEF"><rect fill="#F5F5F5" height="81.5999" rx="2.5" ry="2.5" style="stroke:#808080;stroke-width:1;stroke-dasharray:1,3;" width="161.0435" x="9.68" y="7"/><ellipse cx="35.0714" cy="23" fill="#A9DCDF" rx="11" ry="11" style="stroke:#181818;stroke-width:1;"/><path d="M29.587,28.5 L31.6182,28.5 L35.6651,17.1563 L34.7589,17.1563 L38.587,28.5 L40.7276,28.5 L36.3995,16.1719 L34.1807,16.1719 L29.587,28.5 Z M31.9151,25 L38.3526,25 L38.3526,23.25 L31.9151,23.25 L31.9151,25 Z " fill="#000000"/><text fill="#808080" font-family="sans-serif" font-size="14" font-style="italic" lengthAdjust="spacing" textLength="105.9516" x="51.3806" y="28.362">EXPR_TYPE_DEF</text><line style="stroke:#808080;stroke-width:1;stroke-dasharray:1,3;" x1="10.68" x2="169.7235" y1="39" y2="39"/><ellipse cx="20.68" cy="52.9" fill="none" rx="3" ry="3" style="stroke:#038048;stroke-width:1;"/><text fill="#808080" font-family="sans-serif" font-size="14" lengthAdjust="spacing" textLength="135.0435" x="29.68" y="56.7619">type_name : String [1]</text><ellipse cx="20.68" cy="69.6999" fill="none" rx="3" ry="3" style="stroke:#038048;stroke-width:1;"/><text fill="#808080" font-family="sans-serif" font-size="14" lengthAdjust="spacing" textLength="128.9255" x="29.68" y="73.5619">type_anchor : Any [1]</text><line style="stroke:#808080;stroke-width:1;stroke-dasharray:1,3;" x1="10.68" x2="169.7235" y1="80.5999" y2="80.5999"/></g><!--reverse link EXPR_TYPE_DEF to TYPE_DEF_TIME--><g class="link" data-entity-1="EXPR_TYPE_DEF" data-entity-2="TYPE_DEF_TIME" data-source-line="12" data-uid="lnk4" id="link_EXPR_TYPE_DEF_TYPE_DEF_TIME"><path codeLine="12" d="M90.2,106.8 C90.2,125.5 90.2,129.7 90.2,148.39" fill="none" id="EXPR_TYPE_DEF-backto-TYPE_DEF_TIME" style="stroke:#181818;stroke-width:1;"/><polygon fill="none" points="90.2,88.8,84.2,106.8,96.2,106.8,90.2,88.8" style="stroke:#181818;stroke-width:1;"/></g></g></svg>
