<svg xmlns="http://www.w3.org/2000/svg" xmlns:xlink="http://www.w3.org/1999/xlink" contentStyleType="text/css" data-diagram-type="CLASS" height="237px" preserveAspectRatio="none" style="width:203px;height:237px;background:#FFFFFF;" version="1.1" viewBox="0 0 203 237" width="203px" zoomAndPan="magnify"><defs/><g><!--class TYPE_DEF_DURATION--><g class="entity" data-entity="TYPE_DEF_DURATION" data-source-line="2" data-uid="ent0002" id="entity_TYPE_DEF_DURATION"><rect fill="#F1F1F1" height="81.5999" rx="2.5" ry="2.5" style="stroke:#181818;stroke-width:0.5;" width="189.8274" x="7" y="148.6"/><ellipse cx="29.0839" cy="164.6" fill="#ADD1B2" rx="11" ry="11" style="stroke:#181818;stroke-width:1;"/><path d="M29.0839,171.0219 C30.2558,171.0219 31.4901,170.7563 32.8651,170.1469 L32.3808,168.6313 C31.287,169.0531 30.2714,169.2406 29.412,169.2406 C26.6933,169.2406 24.9745,167.3969 24.9745,164.4906 C24.9745,161.7406 26.537,160.1469 29.2714,160.1469 C30.1933,160.1469 31.2089,160.3344 32.3495,160.7563 L32.9276,159.2406 C31.8339,158.6625 30.537,158.3656 29.3495,158.3656 C25.5839,158.3656 23.0058,161.0063 23.0058,164.8188 C23.0058,168.4906 25.4901,171.0219 29.0839,171.0219 Z " fill="#000000"/><text fill="#000000" font-family="sans-serif" font-size="14" lengthAdjust="spacing" textLength="142.0854" x="44.6581" y="169.962">TYPE_DEF_DURATION</text><line style="stroke:#181818;stroke-width:0.5;" x1="8" x2="195.8274" y1="180.6" y2="180.6"/><ellipse cx="18" cy="194.5" fill="none" rx="3" ry="3" style="stroke:#038048;stroke-width:1;"/><text fill="#000000" font-family="sans-serif" font-size="14" lengthAdjust="spacing" textLength="135.0435" x="27" y="198.3619">type_name : String [1]</text><ellipse cx="18" cy="211.2999" fill="none" rx="3" ry="3" style="stroke:#038048;stroke-width:1;"/><text fill="#000000" font-family="sans-serif" font-size="14" lengthAdjust="spacing" textLength="163.8274" x="27" y="215.1619">type_anchor : IDuration [1]</text><line style="stroke:#181818;stroke-width:0.5;" x1="8" x2="195.8274" y1="222.1999" y2="222.1999"/></g><!--class EXPR_TYPE_DEF--><g class="entity" data-entity="EXPR_TYPE_DEF" data-source-line="7" data-uid="ent0003" id="entity_EXPR_TYPE_DEF"><rect fill="#F5F5F5" height="81.5999" rx="2.5" ry="2.5" style="stroke:#808080;stroke-width:1;stroke-dasharray:1,3;" width="161.0435" x="21.39" y="7"/><ellipse cx="46.7814" cy="23" fill="#A9DCDF" rx="11" ry="11" style="stroke:#181818;stroke-width:1;"/><path d="M41.297,28.5 L43.3282,28.5 L47.3751,17.1563 L46.4689,17.1563 L50.297,28.5 L52.4376,28.5 L48.1095,16.1719 L45.8907,16.1719 L41.297,28.5 Z M43.6251,25 L50.0626,25 L50.0626,23.25 L43.6251,23.25 L43.6251,25 Z " fill="#000000"/><text fill="#808080" font-family="sans-serif" font-size="14" font-style="italic" lengthAdjust="spacing" textLength="105.9516" x="63.0906" y="28.362">EXPR_TYPE_DEF</text><line style="stroke:#808080;stroke-width:1;stroke-dasharray:1,3;" x1="22.39" x2="181.4335" y1="39" y2="39"/><ellipse cx="32.39" cy="52.9" fill="none" rx="3" ry="3" style="stroke:#038048;stroke-width:1;"/><text fill="#808080" font-family="sans-serif" font-size="14" lengthAdjust="spacing" textLength="135.0435" x="41.39" y="56.7619">type_name : String [1]</text><ellipse cx="32.39" cy="69.6999" fill="none" rx="3" ry="3" style="stroke:#038048;stroke-width:1;"/><text fill="#808080" font-family="sans-serif" font-size="14" lengthAdjust="spacing" textLength="128.9255" x="41.39" y="73.5619">type_anchor : Any [1]</text><line style="stroke:#808080;stroke-width:1;stroke-dasharray:1,3;" x1="22.39" x2="181.4335" y1="80.5999" y2="80.5999"/></g><!--reverse link EXPR_TYPE_DEF to TYPE_DEF_DURATION--><g class="link" data-entity-1="EXPR_TYPE_DEF" data-entity-2="TYPE_DEF_DURATION" data-source-line="12" data-uid="lnk4" id="link_EXPR_TYPE_DEF_TYPE_DEF_DURATION"><path codeLine="12" d="M101.91,106.8 C101.91,125.5 101.91,129.7 101.91,148.39" fill="none" id="EXPR_TYPE_DEF-backto-TYPE_DEF_DURATION" style="stroke:#181818;stroke-width:1;"/><polygon fill="none" points="101.91,88.8,95.91,106.8,107.91,106.8,101.91,88.8" style="stroke:#181818;stroke-width:1;"/></g></g></svg>
