<svg xmlns="http://www.w3.org/2000/svg" xmlns:xlink="http://www.w3.org/1999/xlink" contentStyleType="text/css" data-diagram-type="CLASS" height="237px" preserveAspectRatio="none" style="width:175px;height:237px;background:#FFFFFF;" version="1.1" viewBox="0 0 175 237" width="175px" zoomAndPan="magnify"><defs/><g><!--class TYPE_DEF_REAL--><g class="entity" data-entity="TYPE_DEF_REAL" data-source-line="2" data-uid="ent0002" id="entity_TYPE_DEF_REAL"><rect fill="#F1F1F1" height="81.5999" rx="2.5" ry="2.5" style="stroke:#181818;stroke-width:0.5;" width="161.0435" x="7" y="148.6"/><ellipse cx="32.7316" cy="164.6" fill="#ADD1B2" rx="11" ry="11" style="stroke:#181818;stroke-width:1;"/><path d="M32.7316,171.0219 C33.9034,171.0219 35.1378,170.7563 36.5128,170.1469 L36.0284,168.6313 C34.9347,169.0531 33.9191,169.2406 33.0597,169.2406 C30.3409,169.2406 28.6222,167.3969 28.6222,164.4906 C28.6222,161.7406 30.1847,160.1469 32.9191,160.1469 C33.8409,160.1469 34.8566,160.3344 35.9972,160.7563 L36.5753,159.2406 C35.4816,158.6625 34.1847,158.3656 32.9972,158.3656 C29.2316,158.3656 26.6534,161.0063 26.6534,164.8188 C26.6534,168.4906 29.1378,171.0219 32.7316,171.0219 Z " fill="#000000"/><text fill="#000000" font-family="sans-serif" font-size="14" lengthAdjust="spacing" textLength="105.1956" x="49.1164" y="169.962">TYPE_DEF_REAL</text><line style="stroke:#181818;stroke-width:0.5;" x1="8" x2="167.0435" y1="180.6" y2="180.6"/><ellipse cx="18" cy="194.5" fill="none" rx="3" ry="3" style="stroke:#038048;stroke-width:1;"/><text fill="#000000" font-family="sans-serif" font-size="14" lengthAdjust="spacing" textLength="135.0435" x="27" y="198.3619">type_name : String [1]</text><ellipse cx="18" cy="211.2999" fill="none" rx="3" ry="3" style="stroke:#038048;stroke-width:1;"/><text fill="#000000" font-family="sans-serif" font-size="14" lengthAdjust="spacing" textLength="132.6355" x="27" y="215.1619">type_anchor : Real [1]</text><line style="stroke:#181818;stroke-width:0.5;" x1="8" x2="167.0435" y1="222.1999" y2="222.1999"/></g><!--class EXPR_TYPE_DEF--><g class="entity" data-entity="EXPR_TYPE_DEF" data-source-line="7" data-uid="ent0003" id="entity_EXPR_TYPE_DEF"><rect fill="#F5F5F5" height="81.5999" rx="2.5" ry="2.5" style="stroke:#808080;stroke-width:1;stroke-dasharray:1,3;" width="161.0435" x="7" y="7"/><ellipse cx="32.3914" cy="23" fill="#A9DCDF" rx="11" ry="11" style="stroke:#181818;stroke-width:1;"/><path d="M26.907,28.5 L28.9382,28.5 L32.9851,17.1563 L32.0789,17.1563 L35.907,28.5 L38.0476,28.5 L33.7195,16.1719 L31.5007,16.1719 L26.907,28.5 Z M29.2351,25 L35.6726,25 L35.6726,23.25 L29.2351,23.25 L29.2351,25 Z " fill="#000000"/><text fill="#808080" font-family="sans-serif" font-size="14" font-style="italic" lengthAdjust="spacing" textLength="105.9516" x="48.7006" y="28.362">EXPR_TYPE_DEF</text><line style="stroke:#808080;stroke-width:1;stroke-dasharray:1,3;" x1="8" x2="167.0435" y1="39" y2="39"/><ellipse cx="18" cy="52.9" fill="none" rx="3" ry="3" style="stroke:#038048;stroke-width:1;"/><text fill="#808080" font-family="sans-serif" font-size="14" lengthAdjust="spacing" textLength="135.0435" x="27" y="56.7619">type_name : String [1]</text><ellipse cx="18" cy="69.6999" fill="none" rx="3" ry="3" style="stroke:#038048;stroke-width:1;"/><text fill="#808080" font-family="sans-serif" font-size="14" lengthAdjust="spacing" textLength="128.9255" x="27" y="73.5619">type_anchor : Any [1]</text><line style="stroke:#808080;stroke-width:1;stroke-dasharray:1,3;" x1="8" x2="167.0435" y1="80.5999" y2="80.5999"/></g><!--reverse link EXPR_TYPE_DEF to TYPE_DEF_REAL--><g class="link" data-entity-1="EXPR_TYPE_DEF" data-entity-2="TYPE_DEF_REAL" data-source-line="12" data-uid="lnk4" id="link_EXPR_TYPE_DEF_TYPE_DEF_REAL"><path codeLine="12" d="M87.52,106.8 C87.52,125.5 87.52,129.7 87.52,148.39" fill="none" id="EXPR_TYPE_DEF-backto-TYPE_DEF_REAL" style="stroke:#181818;stroke-width:1;"/><polygon fill="none" points="87.52,88.8,81.52,106.8,93.52,106.8,87.52,88.8" style="stroke:#181818;stroke-width:1;"/></g></g></svg>
