<svg xmlns="http://www.w3.org/2000/svg" xmlns:xlink="http://www.w3.org/1999/xlink" contentStyleType="text/css" data-diagram-type="CLASS" height="237px" preserveAspectRatio="none" style="width:178px;height:237px;background:#FFFFFF;" version="1.1" viewBox="0 0 178 237" width="178px" zoomAndPan="magnify"><defs/><g><!--class TYPE_DEF_DATE--><g class="entity" data-entity="TYPE_DEF_DATE" data-source-line="2" data-uid="ent0002" id="entity_TYPE_DEF_DATE"><rect fill="#F1F1F1" height="81.5999" rx="2.5" ry="2.5" style="stroke:#181818;stroke-width:0.5;" width="164.8095" x="7" y="148.6"/><ellipse cx="33.475" cy="164.6" fill="#ADD1B2" rx="11" ry="11" style="stroke:#181818;stroke-width:1;"/><path d="M33.475,171.0219 C34.6468,171.0219 35.8812,170.7563 37.2562,170.1469 L36.7718,168.6313 C35.6781,169.0531 34.6625,169.2406 33.8031,169.2406 C31.0843,169.2406 29.3656,167.3969 29.3656,164.4906 C29.3656,161.7406 30.9281,160.1469 33.6625,160.1469 C34.5843,160.1469 35.6,160.3344 36.7406,160.7563 L37.3187,159.2406 C36.225,158.6625 34.9281,158.3656 33.7406,158.3656 C29.975,158.3656 27.3968,161.0063 27.3968,164.8188 C27.3968,168.4906 29.8812,171.0219 33.475,171.0219 Z " fill="#000000"/><text fill="#000000" font-family="sans-serif" font-size="14" lengthAdjust="spacing" textLength="107.3096" x="50.025" y="169.962">TYPE_DEF_DATE</text><line style="stroke:#181818;stroke-width:0.5;" x1="8" x2="170.8095" y1="180.6" y2="180.6"/><ellipse cx="18" cy="194.5" fill="none" rx="3" ry="3" style="stroke:#038048;stroke-width:1;"/><text fill="#000000" font-family="sans-serif" font-size="14" lengthAdjust="spacing" textLength="135.0435" x="27" y="198.3619">type_name : String [1]</text><ellipse cx="18" cy="211.2999" fill="none" rx="3" ry="3" style="stroke:#038048;stroke-width:1;"/><text fill="#000000" font-family="sans-serif" font-size="14" lengthAdjust="spacing" textLength="138.8095" x="27" y="215.1619">type_anchor : IDate [1]</text><line style="stroke:#181818;stroke-width:0.5;" x1="8" x2="170.8095" y1="222.1999" y2="222.1999"/></g><!--class EXPR_TYPE_DEF--><g class="entity" data-entity="EXPR_TYPE_DEF" data-source-line="7" data-uid="ent0003" id="entity_EXPR_TYPE_DEF"><rect fill="#F5F5F5" height="81.5999" rx="2.5" ry="2.5" style="stroke:#808080;stroke-width:1;stroke-dasharray:1,3;" width="161.0435" x="8.88" y="7"/><ellipse cx="34.2714" cy="23" fill="#A9DCDF" rx="11" ry="11" style="stroke:#181818;stroke-width:1;"/><path d="M28.787,28.5 L30.8182,28.5 L34.8651,17.1563 L33.9589,17.1563 L37.787,28.5 L39.9276,28.5 L35.5995,16.1719 L33.3807,16.1719 L28.787,28.5 Z M31.1151,25 L37.5526,25 L37.5526,23.25 L31.1151,23.25 L31.1151,25 Z " fill="#000000"/><text fill="#808080" font-family="sans-serif" font-size="14" font-style="italic" lengthAdjust="spacing" textLength="105.9516" x="50.5806" y="28.362">EXPR_TYPE_DEF</text><line style="stroke:#808080;stroke-width:1;stroke-dasharray:1,3;" x1="9.88" x2="168.9235" y1="39" y2="39"/><ellipse cx="19.88" cy="52.9" fill="none" rx="3" ry="3" style="stroke:#038048;stroke-width:1;"/><text fill="#808080" font-family="sans-serif" font-size="14" lengthAdjust="spacing" textLength="135.0435" x="28.88" y="56.7619">type_name : String [1]</text><ellipse cx="19.88" cy="69.6999" fill="none" rx="3" ry="3" style="stroke:#038048;stroke-width:1;"/><text fill="#808080" font-family="sans-serif" font-size="14" lengthAdjust="spacing" textLength="128.9255" x="28.88" y="73.5619">type_anchor : Any [1]</text><line style="stroke:#808080;stroke-width:1;stroke-dasharray:1,3;" x1="9.88" x2="168.9235" y1="80.5999" y2="80.5999"/></g><!--reverse link EXPR_TYPE_DEF to TYPE_DEF_DATE--><g class="link" data-entity-1="EXPR_TYPE_DEF" data-entity-2="TYPE_DEF_DATE" data-source-line="12" data-uid="lnk4" id="link_EXPR_TYPE_DEF_TYPE_DEF_DATE"><path codeLine="12" d="M89.4,106.8 C89.4,125.5 89.4,129.7 89.4,148.39" fill="none" id="EXPR_TYPE_DEF-backto-TYPE_DEF_DATE" style="stroke:#181818;stroke-width:1;"/><polygon fill="none" points="89.4,88.8,83.4,106.8,95.4,106.8,89.4,88.8" style="stroke:#181818;stroke-width:1;"/></g></g></svg>
