<svg xmlns="http://www.w3.org/2000/svg" xmlns:xlink="http://www.w3.org/1999/xlink" contentStyleType="text/css" data-diagram-type="CLASS" height="220px" preserveAspectRatio="none" style="width:200px;height:220px;background:#FFFFFF;" version="1.1" viewBox="0 0 200 220" width="200px" zoomAndPan="magnify"><defs/><g><!--class TYPE_DEF_OBJECT_REF--><g class="entity" data-entity="TYPE_DEF_OBJECT_REF" data-source-line="2" data-uid="ent0002" id="entity_TYPE_DEF_OBJECT_REF"><rect fill="#F1F1F1" height="64.7999" rx="2.5" ry="2.5" style="stroke:#181818;stroke-width:0.5;" width="186.3914" x="7" y="148.6"/><ellipse cx="22" cy="164.6" fill="#ADD1B2" rx="11" ry="11" style="stroke:#181818;stroke-width:1;"/><path d="M22,171.0219 C23.1719,171.0219 24.4063,170.7563 25.7813,170.1469 L25.2969,168.6313 C24.2031,169.0531 23.1875,169.2406 22.3281,169.2406 C19.6094,169.2406 17.8906,167.3969 17.8906,164.4906 C17.8906,161.7406 19.4531,160.1469 22.1875,160.1469 C23.1094,160.1469 24.125,160.3344 25.2656,160.7563 L25.8438,159.2406 C24.75,158.6625 23.4531,158.3656 22.2656,158.3656 C18.5,158.3656 15.9219,161.0063 15.9219,164.8188 C15.9219,168.4906 18.4063,171.0219 22,171.0219 Z " fill="#000000"/><text fill="#000000" font-family="sans-serif" font-size="14" lengthAdjust="spacing" textLength="154.3914" x="36" y="169.962">TYPE_DEF_OBJECT_REF</text><line style="stroke:#181818;stroke-width:0.5;" x1="8" x2="192.3914" y1="180.6" y2="180.6"/><ellipse cx="18" cy="194.5" fill="none" rx="3" ry="3" style="stroke:#038048;stroke-width:1;"/><text fill="#000000" font-family="sans-serif" font-size="14" lengthAdjust="spacing" textLength="135.0435" x="27" y="198.3619">type_name : String [1]</text><line style="stroke:#181818;stroke-width:0.5;" x1="8" x2="192.3914" y1="205.3999" y2="205.3999"/></g><!--class EXPR_TYPE_DEF--><g class="entity" data-entity="EXPR_TYPE_DEF" data-source-line="6" data-uid="ent0003" id="entity_EXPR_TYPE_DEF"><rect fill="#F5F5F5" height="81.5999" rx="2.5" ry="2.5" style="stroke:#808080;stroke-width:1;stroke-dasharray:1,3;" width="161.0435" x="19.67" y="7"/><ellipse cx="45.0614" cy="23" fill="#A9DCDF" rx="11" ry="11" style="stroke:#181818;stroke-width:1;"/><path d="M39.577,28.5 L41.6082,28.5 L45.6551,17.1563 L44.7489,17.1563 L48.577,28.5 L50.7176,28.5 L46.3895,16.1719 L44.1707,16.1719 L39.577,28.5 Z M41.9051,25 L48.3426,25 L48.3426,23.25 L41.9051,23.25 L41.9051,25 Z " fill="#000000"/><text fill="#808080" font-family="sans-serif" font-size="14" font-style="italic" lengthAdjust="spacing" textLength="105.9516" x="61.3706" y="28.362">EXPR_TYPE_DEF</text><line style="stroke:#808080;stroke-width:1;stroke-dasharray:1,3;" x1="20.67" x2="179.7135" y1="39" y2="39"/><ellipse cx="30.67" cy="52.9" fill="none" rx="3" ry="3" style="stroke:#038048;stroke-width:1;"/><text fill="#808080" font-family="sans-serif" font-size="14" lengthAdjust="spacing" textLength="135.0435" x="39.67" y="56.7619">type_name : String [1]</text><ellipse cx="30.67" cy="69.6999" fill="none" rx="3" ry="3" style="stroke:#038048;stroke-width:1;"/><text fill="#808080" font-family="sans-serif" font-size="14" lengthAdjust="spacing" textLength="128.9255" x="39.67" y="73.5619">type_anchor : Any [1]</text><line style="stroke:#808080;stroke-width:1;stroke-dasharray:1,3;" x1="20.67" x2="179.7135" y1="80.5999" y2="80.5999"/></g><!--reverse link EXPR_TYPE_DEF to TYPE_DEF_OBJECT_REF--><g class="link" data-entity-1="EXPR_TYPE_DEF" data-entity-2="TYPE_DEF_OBJECT_REF" data-source-line="11" data-uid="lnk4" id="link_EXPR_TYPE_DEF_TYPE_DEF_OBJECT_REF"><path codeLine="11" d="M100.2,106.88 C100.2,126.02 100.2,130.59 100.2,148.49" fill="none" id="EXPR_TYPE_DEF-backto-TYPE_DEF_OBJECT_REF" style="stroke:#181818;stroke-width:1;"/><polygon fill="none" points="100.2,88.88,94.2,106.88,106.2,106.88,100.2,88.88" style="stroke:#181818;stroke-width:1;"/></g></g></svg>
