<svg xmlns="http://www.w3.org/2000/svg" xmlns:xlink="http://www.w3.org/1999/xlink" contentStyleType="text/css" data-diagram-type="CLASS" height="237px" preserveAspectRatio="none" style="width:182px;height:237px;background:#FFFFFF;" version="1.1" viewBox="0 0 182 237" width="182px" zoomAndPan="magnify"><defs/><g><!--class TYPE_DEF_STRING--><g class="entity" data-entity="TYPE_DEF_STRING" data-source-line="2" data-uid="ent0002" id="entity_TYPE_DEF_STRING"><rect fill="#F1F1F1" height="81.5999" rx="2.5" ry="2.5" style="stroke:#181818;stroke-width:0.5;" width="168.9395" x="7" y="148.6"/><ellipse cx="29.1343" cy="164.6" fill="#ADD1B2" rx="11" ry="11" style="stroke:#181818;stroke-width:1;"/><path d="M29.1343,171.0219 C30.3062,171.0219 31.5405,170.7563 32.9155,170.1469 L32.4312,168.6313 C31.3374,169.0531 30.3218,169.2406 29.4624,169.2406 C26.7437,169.2406 25.0249,167.3969 25.0249,164.4906 C25.0249,161.7406 26.5874,160.1469 29.3218,160.1469 C30.2437,160.1469 31.2593,160.3344 32.3999,160.7563 L32.978,159.2406 C31.8843,158.6625 30.5874,158.3656 29.3999,158.3656 C25.6343,158.3656 23.0562,161.0063 23.0562,164.8188 C23.0562,168.4906 25.5405,171.0219 29.1343,171.0219 Z " fill="#000000"/><text fill="#000000" font-family="sans-serif" font-size="14" lengthAdjust="spacing" textLength="121.0855" x="44.7197" y="169.962">TYPE_DEF_STRING</text><line style="stroke:#181818;stroke-width:0.5;" x1="8" x2="174.9395" y1="180.6" y2="180.6"/><ellipse cx="18" cy="194.5" fill="none" rx="3" ry="3" style="stroke:#038048;stroke-width:1;"/><text fill="#000000" font-family="sans-serif" font-size="14" lengthAdjust="spacing" textLength="135.0435" x="27" y="198.3619">type_name : String [1]</text><ellipse cx="18" cy="211.2999" fill="none" rx="3" ry="3" style="stroke:#038048;stroke-width:1;"/><text fill="#000000" font-family="sans-serif" font-size="14" lengthAdjust="spacing" textLength="142.9395" x="27" y="215.1619">type_anchor : String [1]</text><line style="stroke:#181818;stroke-width:0.5;" x1="8" x2="174.9395" y1="222.1999" y2="222.1999"/></g><!--class EXPR_TYPE_DEF--><g class="entity" data-entity="EXPR_TYPE_DEF" data-source-line="7" data-uid="ent0003" id="entity_EXPR_TYPE_DEF"><rect fill="#F5F5F5" height="81.5999" rx="2.5" ry="2.5" style="stroke:#808080;stroke-width:1;stroke-dasharray:1,3;" width="161.0435" x="10.95" y="7"/><ellipse cx="36.3414" cy="23" fill="#A9DCDF" rx="11" ry="11" style="stroke:#181818;stroke-width:1;"/><path d="M30.857,28.5 L32.8882,28.5 L36.9351,17.1563 L36.0289,17.1563 L39.857,28.5 L41.9976,28.5 L37.6695,16.1719 L35.4507,16.1719 L30.857,28.5 Z M33.1851,25 L39.6226,25 L39.6226,23.25 L33.1851,23.25 L33.1851,25 Z " fill="#000000"/><text fill="#808080" font-family="sans-serif" font-size="14" font-style="italic" lengthAdjust="spacing" textLength="105.9516" x="52.6506" y="28.362">EXPR_TYPE_DEF</text><line style="stroke:#808080;stroke-width:1;stroke-dasharray:1,3;" x1="11.95" x2="170.9935" y1="39" y2="39"/><ellipse cx="21.95" cy="52.9" fill="none" rx="3" ry="3" style="stroke:#038048;stroke-width:1;"/><text fill="#808080" font-family="sans-serif" font-size="14" lengthAdjust="spacing" textLength="135.0435" x="30.95" y="56.7619">type_name : String [1]</text><ellipse cx="21.95" cy="69.6999" fill="none" rx="3" ry="3" style="stroke:#038048;stroke-width:1;"/><text fill="#808080" font-family="sans-serif" font-size="14" lengthAdjust="spacing" textLength="128.9255" x="30.95" y="73.5619">type_anchor : Any [1]</text><line style="stroke:#808080;stroke-width:1;stroke-dasharray:1,3;" x1="11.95" x2="170.9935" y1="80.5999" y2="80.5999"/></g><!--reverse link EXPR_TYPE_DEF to TYPE_DEF_STRING--><g class="link" data-entity-1="EXPR_TYPE_DEF" data-entity-2="TYPE_DEF_STRING" data-source-line="12" data-uid="lnk4" id="link_EXPR_TYPE_DEF_TYPE_DEF_STRING"><path codeLine="12" d="M91.47,106.8 C91.47,125.5 91.47,129.7 91.47,148.39" fill="none" id="EXPR_TYPE_DEF-backto-TYPE_DEF_STRING" style="stroke:#181818;stroke-width:1;"/><polygon fill="none" points="91.47,88.8,85.47,106.8,97.47,106.8,91.47,88.8" style="stroke:#181818;stroke-width:1;"/></g></g></svg>
