<svg xmlns="http://www.w3.org/2000/svg" xmlns:xlink="http://www.w3.org/1999/xlink" contentStyleType="text/css" data-diagram-type="CLASS" height="237px" preserveAspectRatio="none" style="width:214px;height:237px;background:#FFFFFF;" version="1.1" viewBox="0 0 214 237" width="214px" zoomAndPan="magnify"><defs/><g><!--class TYPE_DEF_DATE_TIME--><g class="entity" data-entity="TYPE_DEF_DATE_TIME" data-source-line="2" data-uid="ent0002" id="entity_TYPE_DEF_DATE_TIME"><rect fill="#F1F1F1" height="81.5999" rx="2.5" ry="2.5" style="stroke:#181818;stroke-width:0.5;" width="200.1033" x="7" y="148.6"/><ellipse cx="31.8685" cy="164.6" fill="#ADD1B2" rx="11" ry="11" style="stroke:#181818;stroke-width:1;"/><path d="M31.8685,171.0219 C33.0403,171.0219 34.2747,170.7563 35.6497,170.1469 L35.1653,168.6313 C34.0716,169.0531 33.056,169.2406 32.1966,169.2406 C29.4778,169.2406 27.7591,167.3969 27.7591,164.4906 C27.7591,161.7406 29.3216,160.1469 32.056,160.1469 C32.9778,160.1469 33.9935,160.3344 35.1341,160.7563 L35.7122,159.2406 C34.6185,158.6625 33.3216,158.3656 32.1341,158.3656 C28.3685,158.3656 25.7903,161.0063 25.7903,164.8188 C25.7903,168.4906 28.2747,171.0219 31.8685,171.0219 Z " fill="#000000"/><text fill="#000000" font-family="sans-serif" font-size="14" lengthAdjust="spacing" textLength="146.1734" x="48.0615" y="169.962">TYPE_DEF_DATE_TIME</text><line style="stroke:#181818;stroke-width:0.5;" x1="8" x2="206.1033" y1="180.6" y2="180.6"/><ellipse cx="18" cy="194.5" fill="none" rx="3" ry="3" style="stroke:#038048;stroke-width:1;"/><text fill="#000000" font-family="sans-serif" font-size="14" lengthAdjust="spacing" textLength="135.0435" x="27" y="198.3619">type_name : String [1]</text><ellipse cx="18" cy="211.2999" fill="none" rx="3" ry="3" style="stroke:#038048;stroke-width:1;"/><text fill="#000000" font-family="sans-serif" font-size="14" lengthAdjust="spacing" textLength="174.1033" x="27" y="215.1619">type_anchor : IDate_time [1]</text><line style="stroke:#181818;stroke-width:0.5;" x1="8" x2="206.1033" y1="222.1999" y2="222.1999"/></g><!--class EXPR_TYPE_DEF--><g class="entity" data-entity="EXPR_TYPE_DEF" data-source-line="7" data-uid="ent0003" id="entity_EXPR_TYPE_DEF"><rect fill="#F5F5F5" height="81.5999" rx="2.5" ry="2.5" style="stroke:#808080;stroke-width:1;stroke-dasharray:1,3;" width="161.0435" x="26.53" y="7"/><ellipse cx="51.9214" cy="23" fill="#A9DCDF" rx="11" ry="11" style="stroke:#181818;stroke-width:1;"/><path d="M46.437,28.5 L48.4682,28.5 L52.5151,17.1563 L51.6089,17.1563 L55.437,28.5 L57.5776,28.5 L53.2495,16.1719 L51.0307,16.1719 L46.437,28.5 Z M48.7651,25 L55.2026,25 L55.2026,23.25 L48.7651,23.25 L48.7651,25 Z " fill="#000000"/><text fill="#808080" font-family="sans-serif" font-size="14" font-style="italic" lengthAdjust="spacing" textLength="105.9516" x="68.2306" y="28.362">EXPR_TYPE_DEF</text><line style="stroke:#808080;stroke-width:1;stroke-dasharray:1,3;" x1="27.53" x2="186.5735" y1="39" y2="39"/><ellipse cx="37.53" cy="52.9" fill="none" rx="3" ry="3" style="stroke:#038048;stroke-width:1;"/><text fill="#808080" font-family="sans-serif" font-size="14" lengthAdjust="spacing" textLength="135.0435" x="46.53" y="56.7619">type_name : String [1]</text><ellipse cx="37.53" cy="69.6999" fill="none" rx="3" ry="3" style="stroke:#038048;stroke-width:1;"/><text fill="#808080" font-family="sans-serif" font-size="14" lengthAdjust="spacing" textLength="128.9255" x="46.53" y="73.5619">type_anchor : Any [1]</text><line style="stroke:#808080;stroke-width:1;stroke-dasharray:1,3;" x1="27.53" x2="186.5735" y1="80.5999" y2="80.5999"/></g><!--reverse link EXPR_TYPE_DEF to TYPE_DEF_DATE_TIME--><g class="link" data-entity-1="EXPR_TYPE_DEF" data-entity-2="TYPE_DEF_DATE_TIME" data-source-line="12" data-uid="lnk4" id="link_EXPR_TYPE_DEF_TYPE_DEF_DATE_TIME"><path codeLine="12" d="M107.05,106.8 C107.05,125.5 107.05,129.7 107.05,148.39" fill="none" id="EXPR_TYPE_DEF-backto-TYPE_DEF_DATE_TIME" style="stroke:#181818;stroke-width:1;"/><polygon fill="none" points="107.05,88.8,101.05,106.8,113.05,106.8,107.05,88.8" style="stroke:#181818;stroke-width:1;"/></g></g></svg>
