<svg xmlns="http://www.w3.org/2000/svg" xmlns:xlink="http://www.w3.org/1999/xlink" contentStyleType="text/css" data-diagram-type="CLASS" height="237px" preserveAspectRatio="none" style="width:190px;height:237px;background:#FFFFFF;" version="1.1" viewBox="0 0 190 237" width="190px" zoomAndPan="magnify"><defs/><g><!--class TYPE_DEF_INTEGER--><g class="entity" data-entity="TYPE_DEF_INTEGER" data-source-line="2" data-uid="ent0002" id="entity_TYPE_DEF_INTEGER"><rect fill="#F1F1F1" height="81.5999" rx="2.5" ry="2.5" style="stroke:#181818;stroke-width:0.5;" width="176.2754" x="7" y="148.6"/><ellipse cx="28.561" cy="164.6" fill="#ADD1B2" rx="11" ry="11" style="stroke:#181818;stroke-width:1;"/><path d="M28.561,171.0219 C29.7329,171.0219 30.9672,170.7563 32.3422,170.1469 L31.8579,168.6313 C30.7641,169.0531 29.7485,169.2406 28.8891,169.2406 C26.1704,169.2406 24.4516,167.3969 24.4516,164.4906 C24.4516,161.7406 26.0141,160.1469 28.7485,160.1469 C29.6704,160.1469 30.686,160.3344 31.8266,160.7563 L32.4047,159.2406 C31.311,158.6625 30.0141,158.3656 28.8266,158.3656 C25.061,158.3656 22.4829,161.0063 22.4829,164.8188 C22.4829,168.4906 24.9672,171.0219 28.561,171.0219 Z " fill="#000000"/><text fill="#000000" font-family="sans-serif" font-size="14" lengthAdjust="spacing" textLength="129.6955" x="44.019" y="169.962">TYPE_DEF_INTEGER</text><line style="stroke:#181818;stroke-width:0.5;" x1="8" x2="182.2754" y1="180.6" y2="180.6"/><ellipse cx="18" cy="194.5" fill="none" rx="3" ry="3" style="stroke:#038048;stroke-width:1;"/><text fill="#000000" font-family="sans-serif" font-size="14" lengthAdjust="spacing" textLength="135.0435" x="27" y="198.3619">type_name : String [1]</text><ellipse cx="18" cy="211.2999" fill="none" rx="3" ry="3" style="stroke:#038048;stroke-width:1;"/><text fill="#000000" font-family="sans-serif" font-size="14" lengthAdjust="spacing" textLength="150.2754" x="27" y="215.1619">type_anchor : Integer [1]</text><line style="stroke:#181818;stroke-width:0.5;" x1="8" x2="182.2754" y1="222.1999" y2="222.1999"/></g><!--class EXPR_TYPE_DEF--><g class="entity" data-entity="EXPR_TYPE_DEF" data-source-line="7" data-uid="ent0003" id="entity_EXPR_TYPE_DEF"><rect fill="#F5F5F5" height="81.5999" rx="2.5" ry="2.5" style="stroke:#808080;stroke-width:1;stroke-dasharray:1,3;" width="161.0435" x="14.62" y="7"/><ellipse cx="40.0114" cy="23" fill="#A9DCDF" rx="11" ry="11" style="stroke:#181818;stroke-width:1;"/><path d="M34.527,28.5 L36.5582,28.5 L40.6051,17.1563 L39.6989,17.1563 L43.527,28.5 L45.6676,28.5 L41.3395,16.1719 L39.1207,16.1719 L34.527,28.5 Z M36.8551,25 L43.2926,25 L43.2926,23.25 L36.8551,23.25 L36.8551,25 Z " fill="#000000"/><text fill="#808080" font-family="sans-serif" font-size="14" font-style="italic" lengthAdjust="spacing" textLength="105.9516" x="56.3206" y="28.362">EXPR_TYPE_DEF</text><line style="stroke:#808080;stroke-width:1;stroke-dasharray:1,3;" x1="15.62" x2="174.6635" y1="39" y2="39"/><ellipse cx="25.62" cy="52.9" fill="none" rx="3" ry="3" style="stroke:#038048;stroke-width:1;"/><text fill="#808080" font-family="sans-serif" font-size="14" lengthAdjust="spacing" textLength="135.0435" x="34.62" y="56.7619">type_name : String [1]</text><ellipse cx="25.62" cy="69.6999" fill="none" rx="3" ry="3" style="stroke:#038048;stroke-width:1;"/><text fill="#808080" font-family="sans-serif" font-size="14" lengthAdjust="spacing" textLength="128.9255" x="34.62" y="73.5619">type_anchor : Any [1]</text><line style="stroke:#808080;stroke-width:1;stroke-dasharray:1,3;" x1="15.62" x2="174.6635" y1="80.5999" y2="80.5999"/></g><!--reverse link EXPR_TYPE_DEF to TYPE_DEF_INTEGER--><g class="link" data-entity-1="EXPR_TYPE_DEF" data-entity-2="TYPE_DEF_INTEGER" data-source-line="12" data-uid="lnk4" id="link_EXPR_TYPE_DEF_TYPE_DEF_INTEGER"><path codeLine="12" d="M95.14,106.8 C95.14,125.5 95.14,129.7 95.14,148.39" fill="none" id="EXPR_TYPE_DEF-backto-TYPE_DEF_INTEGER" style="stroke:#181818;stroke-width:1;"/><polygon fill="none" points="95.14,88.8,89.14,106.8,101.14,106.8,95.14,88.8" style="stroke:#181818;stroke-width:1;"/></g></g></svg>
