<svg xmlns="http://www.w3.org/2000/svg" xmlns:xlink="http://www.w3.org/1999/xlink" contentStyleType="text/css" data-diagram-type="CLASS" height="237px" preserveAspectRatio="none" style="width:190px;height:237px;background:#FFFFFF;" version="1.1" viewBox="0 0 190 237" width="190px" zoomAndPan="magnify"><defs/><g><!--class TYPE_DEF_URI--><g class="entity" data-entity="TYPE_DEF_URI" data-source-line="2" data-uid="ent0002" id="entity_TYPE_DEF_URI"><rect fill="#F1F1F1" height="81.5999" rx="2.5" ry="2.5" style="stroke:#181818;stroke-width:0.5;" width="176.2754" x="7" y="148.6"/><ellipse cx="44.4873" cy="164.6" fill="#ADD1B2" rx="11" ry="11" style="stroke:#181818;stroke-width:1;"/><path d="M44.4873,171.0219 C45.6592,171.0219 46.8936,170.7563 48.2686,170.1469 L47.7842,168.6313 C46.6904,169.0531 45.6748,169.2406 44.8154,169.2406 C42.0967,169.2406 40.3779,167.3969 40.3779,164.4906 C40.3779,161.7406 41.9404,160.1469 44.6748,160.1469 C45.5967,160.1469 46.6123,160.3344 47.7529,160.7563 L48.3311,159.2406 C47.2373,158.6625 45.9404,158.3656 44.7529,158.3656 C40.9873,158.3656 38.4092,161.0063 38.4092,164.8188 C38.4092,168.4906 40.8936,171.0219 44.4873,171.0219 Z " fill="#000000"/><text fill="#000000" font-family="sans-serif" font-size="14" lengthAdjust="spacing" textLength="94.3036" x="63.4845" y="169.962">TYPE_DEF_URI</text><line style="stroke:#181818;stroke-width:0.5;" x1="8" x2="182.2754" y1="180.6" y2="180.6"/><ellipse cx="18" cy="194.5" fill="none" rx="3" ry="3" style="stroke:#038048;stroke-width:1;"/><text fill="#000000" font-family="sans-serif" font-size="14" lengthAdjust="spacing" textLength="135.0435" x="27" y="198.3619">type_name : String [1]</text><ellipse cx="18" cy="211.2999" fill="none" rx="3" ry="3" style="stroke:#038048;stroke-width:1;"/><text fill="#000000" font-family="sans-serif" font-size="14" lengthAdjust="spacing" textLength="150.2754" x="27" y="215.1619">type_anchor : Integer [1]</text><line style="stroke:#181818;stroke-width:0.5;" x1="8" x2="182.2754" y1="222.1999" y2="222.1999"/></g><!--class EXPR_TYPE_DEF--><g class="entity" data-entity="EXPR_TYPE_DEF" data-source-line="7" data-uid="ent0003" id="entity_EXPR_TYPE_DEF"><rect fill="#F5F5F5" height="81.5999" rx="2.5" ry="2.5" style="stroke:#808080;stroke-width:1;stroke-dasharray:1,3;" width="161.0435" x="14.62" y="7"/><ellipse cx="40.0114" cy="23" fill="#A9DCDF" rx="11" ry="11" style="stroke:#181818;stroke-width:1;"/><path d="M34.527,28.5 L36.5582,28.5 L40.6051,17.1563 L39.6989,17.1563 L43.527,28.5 L45.6676,28.5 L41.3395,16.1719 L39.1207,16.1719 L34.527,28.5 Z M36.8551,25 L43.2926,25 L43.2926,23.25 L36.8551,23.25 L36.8551,25 Z " fill="#000000"/><text fill="#808080" font-family="sans-serif" font-size="14" font-style="italic" lengthAdjust="spacing" textLength="105.9516" x="56.3206" y="28.362">EXPR_TYPE_DEF</text><line style="stroke:#808080;stroke-width:1;stroke-dasharray:1,3;" x1="15.62" x2="174.6635" y1="39" y2="39"/><ellipse cx="25.62" cy="52.9" fill="none" rx="3" ry="3" style="stroke:#038048;stroke-width:1;"/><text fill="#808080" font-family="sans-serif" font-size="14" lengthAdjust="spacing" textLength="135.0435" x="34.62" y="56.7619">type_name : String [1]</text><ellipse cx="25.62" cy="69.6999" fill="none" rx="3" ry="3" style="stroke:#038048;stroke-width:1;"/><text fill="#808080" font-family="sans-serif" font-size="14" lengthAdjust="spacing" textLength="128.9255" x="34.62" y="73.5619">type_anchor : Any [1]</text><line style="stroke:#808080;stroke-width:1;stroke-dasharray:1,3;" x1="15.62" x2="174.6635" y1="80.5999" y2="80.5999"/></g><!--reverse link EXPR_TYPE_DEF to TYPE_DEF_URI--><g class="link" data-entity-1="EXPR_TYPE_DEF" data-entity-2="TYPE_DEF_URI" data-source-line="12" data-uid="lnk4" id="link_EXPR_TYPE_DEF_TYPE_DEF_URI"><path codeLine="12" d="M95.14,106.8 C95.14,125.5 95.14,129.7 95.14,148.39" fill="none" id="EXPR_TYPE_DEF-backto-TYPE_DEF_URI" style="stroke:#181818;stroke-width:1;"/><polygon fill="none" points="95.14,88.8,89.14,106.8,101.14,106.8,95.14,88.8" style="stroke:#181818;stroke-width:1;"/></g></g></svg>
