<svg xmlns="http://www.w3.org/2000/svg" xmlns:xlink="http://www.w3.org/1999/xlink" contentStyleType="text/css" data-diagram-type="CLASS" height="237px" preserveAspectRatio="none" style="width:196px;height:237px;background:#FFFFFF;" version="1.1" viewBox="0 0 196 237" width="196px" zoomAndPan="magnify"><defs/><g><!--class TYPE_DEF_BOOLEAN--><g class="entity" data-entity="TYPE_DEF_BOOLEAN" data-source-line="2" data-uid="ent0002" id="entity_TYPE_DEF_BOOLEAN"><rect fill="#F1F1F1" height="81.5999" rx="2.5" ry="2.5" style="stroke:#181818;stroke-width:0.5;" width="182.5894" x="7" y="148.6"/><ellipse cx="28.0633" cy="164.6" fill="#ADD1B2" rx="11" ry="11" style="stroke:#181818;stroke-width:1;"/><path d="M28.0633,171.0219 C29.2352,171.0219 30.4695,170.7563 31.8445,170.1469 L31.3602,168.6313 C30.2664,169.0531 29.2508,169.2406 28.3914,169.2406 C25.6727,169.2406 23.9539,167.3969 23.9539,164.4906 C23.9539,161.7406 25.5164,160.1469 28.2508,160.1469 C29.1727,160.1469 30.1883,160.3344 31.3289,160.7563 L31.907,159.2406 C30.8133,158.6625 29.5164,158.3656 28.3289,158.3656 C24.5633,158.3656 21.9852,161.0063 21.9852,164.8188 C21.9852,168.4906 24.4695,171.0219 28.0633,171.0219 Z " fill="#000000"/><text fill="#000000" font-family="sans-serif" font-size="14" lengthAdjust="spacing" textLength="137.1154" x="43.4107" y="169.962">TYPE_DEF_BOOLEAN</text><line style="stroke:#181818;stroke-width:0.5;" x1="8" x2="188.5894" y1="180.6" y2="180.6"/><ellipse cx="18" cy="194.5" fill="none" rx="3" ry="3" style="stroke:#038048;stroke-width:1;"/><text fill="#000000" font-family="sans-serif" font-size="14" lengthAdjust="spacing" textLength="135.0435" x="27" y="198.3619">type_name : String [1]</text><ellipse cx="18" cy="211.2999" fill="none" rx="3" ry="3" style="stroke:#038048;stroke-width:1;"/><text fill="#000000" font-family="sans-serif" font-size="14" lengthAdjust="spacing" textLength="156.5894" x="27" y="215.1619">type_anchor : Boolean [1]</text><line style="stroke:#181818;stroke-width:0.5;" x1="8" x2="188.5894" y1="222.1999" y2="222.1999"/></g><!--class EXPR_TYPE_DEF--><g class="entity" data-entity="EXPR_TYPE_DEF" data-source-line="7" data-uid="ent0003" id="entity_EXPR_TYPE_DEF"><rect fill="#F5F5F5" height="81.5999" rx="2.5" ry="2.5" style="stroke:#808080;stroke-width:1;stroke-dasharray:1,3;" width="161.0435" x="17.77" y="7"/><ellipse cx="43.1614" cy="23" fill="#A9DCDF" rx="11" ry="11" style="stroke:#181818;stroke-width:1;"/><path d="M37.677,28.5 L39.7082,28.5 L43.7551,17.1563 L42.8489,17.1563 L46.677,28.5 L48.8176,28.5 L44.4895,16.1719 L42.2707,16.1719 L37.677,28.5 Z M40.0051,25 L46.4426,25 L46.4426,23.25 L40.0051,23.25 L40.0051,25 Z " fill="#000000"/><text fill="#808080" font-family="sans-serif" font-size="14" font-style="italic" lengthAdjust="spacing" textLength="105.9516" x="59.4706" y="28.362">EXPR_TYPE_DEF</text><line style="stroke:#808080;stroke-width:1;stroke-dasharray:1,3;" x1="18.77" x2="177.8135" y1="39" y2="39"/><ellipse cx="28.77" cy="52.9" fill="none" rx="3" ry="3" style="stroke:#038048;stroke-width:1;"/><text fill="#808080" font-family="sans-serif" font-size="14" lengthAdjust="spacing" textLength="135.0435" x="37.77" y="56.7619">type_name : String [1]</text><ellipse cx="28.77" cy="69.6999" fill="none" rx="3" ry="3" style="stroke:#038048;stroke-width:1;"/><text fill="#808080" font-family="sans-serif" font-size="14" lengthAdjust="spacing" textLength="128.9255" x="37.77" y="73.5619">type_anchor : Any [1]</text><line style="stroke:#808080;stroke-width:1;stroke-dasharray:1,3;" x1="18.77" x2="177.8135" y1="80.5999" y2="80.5999"/></g><!--reverse link EXPR_TYPE_DEF to TYPE_DEF_BOOLEAN--><g class="link" data-entity-1="EXPR_TYPE_DEF" data-entity-2="TYPE_DEF_BOOLEAN" data-source-line="12" data-uid="lnk4" id="link_EXPR_TYPE_DEF_TYPE_DEF_BOOLEAN"><path codeLine="12" d="M98.29,106.8 C98.29,125.5 98.29,129.7 98.29,148.39" fill="none" id="EXPR_TYPE_DEF-backto-TYPE_DEF_BOOLEAN" style="stroke:#181818;stroke-width:1;"/><polygon fill="none" points="98.29,88.8,92.29,106.8,104.29,106.8,98.29,88.8" style="stroke:#181818;stroke-width:1;"/></g></g></svg>
