<svg xmlns="http://www.w3.org/2000/svg" xmlns:xlink="http://www.w3.org/1999/xlink" contentStyleType="text/css" data-diagram-type="CLASS" height="237px" preserveAspectRatio="none" style="width:216px;height:237px;background:#FFFFFF;" version="1.1" viewBox="0 0 216 237" width="216px" zoomAndPan="magnify"><defs/><g><!--class UID_BASED_ID--><g class="entity" data-entity="UID_BASED_ID" data-source-line="2" data-uid="ent0002" id="entity_UID_BASED_ID"><rect fill="#F1F1F1" height="98.3998" rx="2.5" ry="2.5" style="stroke:#181818;stroke-width:0.5;" width="202.8193" x="7" y="131.8"/><ellipse cx="57.0428" cy="147.8" fill="#A9DCDF" rx="11" ry="11" style="stroke:#181818;stroke-width:1;"/><path d="M51.5585,153.3 L53.5897,153.3 L57.6366,141.9562 L56.7303,141.9562 L60.5585,153.3 L62.6991,153.3 L58.371,140.9719 L56.1522,140.9719 L51.5585,153.3 Z M53.8866,149.8 L60.3241,149.8 L60.3241,148.05 L53.8866,148.05 L53.8866,149.8 Z " fill="#000000"/><text fill="#000000" font-family="sans-serif" font-size="14" font-style="italic" lengthAdjust="spacing" textLength="94.2336" x="77.5428" y="153.162">UID_BASED_ID</text><line style="stroke:#181818;stroke-width:0.5;" x1="8" x2="208.8193" y1="163.8" y2="163.8"/><line style="stroke:#181818;stroke-width:0.5;" x1="8" x2="208.8193" y1="171.8" y2="171.8"/><ellipse cx="18" cy="185.7" fill="#84BE84" rx="3" ry="3" style="stroke:#038048;stroke-width:1;"/><text fill="#000000" font-family="sans-serif" font-size="14" lengthAdjust="spacing" textLength="86.2677" x="27" y="189.5619">root() : UID [1]</text><ellipse cx="18" cy="202.4999" fill="#84BE84" rx="3" ry="3" style="stroke:#038048;stroke-width:1;"/><text fill="#000000" font-family="sans-serif" font-size="14" lengthAdjust="spacing" textLength="134.5675" x="27" y="206.3619">extension() : String [1]</text><ellipse cx="18" cy="219.2998" fill="#84BE84" rx="3" ry="3" style="stroke:#038048;stroke-width:1;"/><text fill="#000000" font-family="sans-serif" font-size="14" lengthAdjust="spacing" textLength="176.8193" x="27" y="223.1618">has_extension() : Boolean [1]</text></g><!--class OBJECT_ID--><g class="entity" data-entity="OBJECT_ID" data-source-line="8" data-uid="ent0003" id="entity_OBJECT_ID"><rect fill="#F5F5F5" height="64.7999" rx="2.5" ry="2.5" style="stroke:#808080;stroke-width:1;stroke-dasharray:1,3;" width="124.9656" x="45.93" y="7"/><ellipse cx="70.8804" cy="23" fill="#A9DCDF" rx="11" ry="11" style="stroke:#181818;stroke-width:1;"/><path d="M65.396,28.5 L67.4272,28.5 L71.4741,17.1563 L70.5679,17.1563 L74.396,28.5 L76.5366,28.5 L72.2085,16.1719 L69.9897,16.1719 L65.396,28.5 Z M67.7241,25 L74.1616,25 L74.1616,23.25 L67.7241,23.25 L67.7241,25 Z " fill="#000000"/><text fill="#808080" font-family="sans-serif" font-size="14" font-style="italic" lengthAdjust="spacing" textLength="70.8537" x="87.0915" y="28.362">OBJECT_ID</text><line style="stroke:#808080;stroke-width:1;stroke-dasharray:1,3;" x1="46.93" x2="169.8956" y1="39" y2="39"/><ellipse cx="56.93" cy="52.9" fill="none" rx="3" ry="3" style="stroke:#038048;stroke-width:1;"/><text fill="#808080" font-family="sans-serif" font-size="14" lengthAdjust="spacing" textLength="98.9656" x="65.93" y="56.7619">value : String [1]</text><line style="stroke:#808080;stroke-width:1;stroke-dasharray:1,3;" x1="46.93" x2="169.8956" y1="63.7999" y2="63.7999"/></g><!--reverse link OBJECT_ID to UID_BASED_ID--><g class="link" data-entity-1="OBJECT_ID" data-entity-2="UID_BASED_ID" data-source-line="12" data-uid="lnk4" id="link_OBJECT_ID_UID_BASED_ID"><path codeLine="12" d="M108.41,90.08 C108.41,107.61 108.41,111.78 108.41,131.46" fill="none" id="OBJECT_ID-backto-UID_BASED_ID" style="stroke:#181818;stroke-width:1;"/><polygon fill="none" points="108.41,72.08,102.41,90.08,114.41,90.08,108.41,72.08" style="stroke:#181818;stroke-width:1;"/></g></g></svg>
