<svg xmlns="http://www.w3.org/2000/svg" xmlns:xlink="http://www.w3.org/1999/xlink" contentStyleType="text/css" data-diagram-type="CLASS" height="362px" preserveAspectRatio="none" style="width:285px;height:362px;background:#FFFFFF;" version="1.1" viewBox="0 0 285 362" width="285px" zoomAndPan="magnify"><defs/><g><!--class Uri--><g class="entity" data-entity="Uri" data-source-line="2" data-uid="ent0002" id="entity_Uri"><rect fill="#F1F1F1" height="48" rx="2.5" ry="2.5" style="stroke:#181818;stroke-width:0.5;" width="50.1159" x="117.77" y="307"/><ellipse cx="132.77" cy="323" fill="#ADD1B2" rx="11" ry="11" style="stroke:#181818;stroke-width:1;"/><path d="M132.77,329.4219 C133.9419,329.4219 135.1762,329.1563 136.5512,328.5469 L136.0669,327.0313 C134.9731,327.4531 133.9575,327.6406 133.0981,327.6406 C130.3794,327.6406 128.6606,325.7969 128.6606,322.8906 C128.6606,320.1406 130.2231,318.5469 132.9575,318.5469 C133.8794,318.5469 134.895,318.7344 136.0356,319.1563 L136.6137,317.6406 C135.52,317.0625 134.2231,316.7656 133.0356,316.7656 C129.27,316.7656 126.6919,319.4063 126.6919,323.2188 C126.6919,326.8906 129.1762,329.4219 132.77,329.4219 Z " fill="#000000"/><text fill="#000000" font-family="sans-serif" font-size="14" lengthAdjust="spacing" textLength="18.1159" x="146.77" y="328.362">Uri</text><line style="stroke:#181818;stroke-width:0.5;" x1="118.77" x2="166.8859" y1="339" y2="339"/><line style="stroke:#181818;stroke-width:0.5;" x1="118.77" x2="166.8859" y1="347" y2="347"/></g><!--class String--><g class="entity" data-entity="String" data-source-line="5" data-uid="ent0003" id="entity_String"><rect fill="#F5F5F5" height="115.1997" rx="2.5" ry="2.5" style="stroke:#808080;stroke-width:1;stroke-dasharray:1,3;" width="243.5032" x="21.08" y="131.8"/><ellipse cx="119.8637" cy="147.8" fill="#ADD1B2" rx="11" ry="11" style="stroke:#181818;stroke-width:1;"/><path d="M119.8637,154.2219 C121.0355,154.2219 122.2699,153.9563 123.6449,153.3469 L123.1605,151.8313 C122.0668,152.2531 121.0512,152.4406 120.1918,152.4406 C117.473,152.4406 115.7543,150.5969 115.7543,147.6906 C115.7543,144.9406 117.3168,143.3469 120.0512,143.3469 C120.973,143.3469 121.9887,143.5344 123.1293,143.9563 L123.7074,142.4406 C122.6137,141.8625 121.3168,141.5656 120.1293,141.5656 C116.3637,141.5656 113.7855,144.2063 113.7855,148.0188 C113.7855,151.6906 116.2699,154.2219 119.8637,154.2219 Z " fill="#000000"/><text fill="#808080" font-family="sans-serif" font-size="14" lengthAdjust="spacing" textLength="37.4359" x="140.3637" y="153.162">String</text><line style="stroke:#808080;stroke-width:1;stroke-dasharray:1,3;" x1="22.08" x2="263.5832" y1="163.8" y2="163.8"/><line style="stroke:#808080;stroke-width:1;stroke-dasharray:1,3;" x1="22.08" x2="263.5832" y1="171.8" y2="171.8"/><ellipse cx="32.08" cy="185.7" fill="#84BE84" rx="3" ry="3" style="stroke:#038048;stroke-width:1;"/><text fill="#808080" font-family="sans-serif" font-size="14" lengthAdjust="spacing" textLength="217.5032" x="41.08" y="189.5619">infix +( other : String [1] ) : String [1]</text><ellipse cx="32.08" cy="202.4999" fill="#84BE84" rx="3" ry="3" style="stroke:#038048;stroke-width:1;"/><text fill="#808080" font-family="sans-serif" font-size="14" lengthAdjust="spacing" textLength="144.5634" x="41.08" y="206.3619">is_empty() : Boolean [1]</text><ellipse cx="32.08" cy="219.2998" fill="#84BE84" rx="3" ry="3" style="stroke:#038048;stroke-width:1;"/><text fill="#808080" font-family="sans-serif" font-size="14" lengthAdjust="spacing" textLength="149.4774" x="41.08" y="223.1618">is_integer() : Boolean [1]</text><ellipse cx="32.08" cy="236.0997" fill="#84BE84" rx="3" ry="3" style="stroke:#038048;stroke-width:1;"/><text fill="#808080" font-family="sans-serif" font-size="14" lengthAdjust="spacing" textLength="146.8874" x="41.08" y="239.9617">as_integer() : Integer [1]</text></g><!--class Ordered--><g class="entity" data-entity="Ordered" data-source-line="12" data-uid="ent0004" id="entity_Ordered"><rect fill="#F5F5F5" height="64.7999" rx="2.5" ry="2.5" style="stroke:#808080;stroke-width:1;stroke-dasharray:1,3;" width="271.657" x="7" y="7"/><ellipse cx="112.6086" cy="23" fill="#A9DCDF" rx="11" ry="11" style="stroke:#181818;stroke-width:1;"/><path d="M107.1243,28.5 L109.1555,28.5 L113.2024,17.1563 L112.2961,17.1563 L116.1243,28.5 L118.2649,28.5 L113.9368,16.1719 L111.718,16.1719 L107.1243,28.5 Z M109.4524,25 L115.8899,25 L115.8899,23.25 L109.4524,23.25 L109.4524,25 Z " fill="#000000"/><text fill="#808080" font-family="sans-serif" font-size="14" font-style="italic" lengthAdjust="spacing" textLength="51.9398" x="133.1086" y="28.362">Ordered</text><line style="stroke:#808080;stroke-width:1;stroke-dasharray:1,3;" x1="8" x2="277.657" y1="39" y2="39"/><line style="stroke:#808080;stroke-width:1;stroke-dasharray:1,3;" x1="8" x2="277.657" y1="47" y2="47"/><ellipse cx="18" cy="60.9" fill="#84BE84" rx="3" ry="3" style="stroke:#038048;stroke-width:1;"/><text fill="#808080" font-family="sans-serif" font-size="14" font-style="italic" lengthAdjust="spacing" textLength="245.657" x="27" y="64.7619">infix &lt;( other : Ordered [1] ) : Boolean [1]</text></g><!--reverse link Ordered to String--><g class="link" data-entity-1="Ordered" data-entity-2="String" data-source-line="16" data-uid="lnk5" id="link_Ordered_String"><path codeLine="16" d="M142.83,90.15 C142.83,107.39 142.83,111.24 142.83,131.32" fill="none" id="Ordered-backto-String" style="stroke:#181818;stroke-width:1;"/><polygon fill="none" points="142.83,72.15,136.83,90.15,148.83,90.15,142.83,72.15" style="stroke:#181818;stroke-width:1;"/></g><!--reverse link String to Uri--><g class="link" data-entity-1="String" data-entity-2="Uri" data-source-line="18" data-uid="lnk6" id="link_String_Uri"><path codeLine="18" d="M142.83,265.18 C142.83,286.01 142.83,290.45 142.83,306.71" fill="none" id="String-backto-Uri" style="stroke:#181818;stroke-width:1;"/><polygon fill="none" points="142.83,247.18,136.83,265.18,148.83,265.18,142.83,247.18" style="stroke:#181818;stroke-width:1;"/></g></g></svg>
