<svg xmlns="http://www.w3.org/2000/svg" xmlns:xlink="http://www.w3.org/1999/xlink" contentStyleType="text/css" data-diagram-type="CLASS" height="186px" preserveAspectRatio="none" style="width:138px;height:186px;background:#FFFFFF;" version="1.1" viewBox="0 0 138 186" width="138px" zoomAndPan="magnify"><defs/><g><!--class UUID--><g class="entity" data-entity="UUID" data-source-line="2" data-uid="ent0002" id="entity_UUID"><rect fill="#F1F1F1" height="48" rx="2.5" ry="2.5" style="stroke:#181818;stroke-width:0.5;" width="64.4799" x="37.24" y="131.8"/><ellipse cx="52.24" cy="147.8" fill="#ADD1B2" rx="11" ry="11" style="stroke:#181818;stroke-width:1;"/><path d="M52.24,154.2219 C53.4119,154.2219 54.6462,153.9563 56.0212,153.3469 L55.5369,151.8313 C54.4431,152.2531 53.4275,152.4406 52.5681,152.4406 C49.8494,152.4406 48.1306,150.5969 48.1306,147.6906 C48.1306,144.9406 49.6931,143.3469 52.4275,143.3469 C53.3494,143.3469 54.365,143.5344 55.5056,143.9563 L56.0837,142.4406 C54.99,141.8625 53.6931,141.5656 52.5056,141.5656 C48.74,141.5656 46.1619,144.2063 46.1619,148.0188 C46.1619,151.6906 48.6462,154.2219 52.24,154.2219 Z " fill="#000000"/><text fill="#000000" font-family="sans-serif" font-size="14" lengthAdjust="spacing" textLength="32.4799" x="66.24" y="153.162">UUID</text><line style="stroke:#181818;stroke-width:0.5;" x1="38.24" x2="100.7199" y1="163.8" y2="163.8"/><line style="stroke:#181818;stroke-width:0.5;" x1="38.24" x2="100.7199" y1="171.8" y2="171.8"/></g><!--class UID--><g class="entity" data-entity="UID" data-source-line="5" data-uid="ent0003" id="entity_UID"><rect fill="#F5F5F5" height="64.7999" rx="2.5" ry="2.5" style="stroke:#808080;stroke-width:1;stroke-dasharray:1,3;" width="124.9656" x="7" y="7"/><ellipse cx="53.6898" cy="23" fill="#A9DCDF" rx="11" ry="11" style="stroke:#181818;stroke-width:1;"/><path d="M48.2055,28.5 L50.2367,28.5 L54.2836,17.1563 L53.3773,17.1563 L57.2055,28.5 L59.3461,28.5 L55.018,16.1719 L52.7992,16.1719 L48.2055,28.5 Z M50.5336,25 L56.9711,25 L56.9711,23.25 L50.5336,23.25 L50.5336,25 Z " fill="#000000"/><text fill="#808080" font-family="sans-serif" font-size="14" font-style="italic" lengthAdjust="spacing" textLength="23.0859" x="74.1898" y="28.362">UID</text><line style="stroke:#808080;stroke-width:1;stroke-dasharray:1,3;" x1="8" x2="130.9656" y1="39" y2="39"/><ellipse cx="18" cy="52.9" fill="none" rx="3" ry="3" style="stroke:#038048;stroke-width:1;"/><text fill="#808080" font-family="sans-serif" font-size="14" lengthAdjust="spacing" textLength="98.9656" x="27" y="56.7619">value : String [1]</text><line style="stroke:#808080;stroke-width:1;stroke-dasharray:1,3;" x1="8" x2="130.9656" y1="63.7999" y2="63.7999"/></g><!--reverse link UID to UUID--><g class="link" data-entity-1="UID" data-entity-2="UUID" data-source-line="9" data-uid="lnk4" id="link_UID_UUID"><path codeLine="9" d="M69.48,90.27 C69.48,109.04 69.48,114.38 69.48,131.45" fill="none" id="UID-backto-UUID" style="stroke:#181818;stroke-width:1;"/><polygon fill="none" points="69.48,72.27,63.48,90.27,75.48,90.27,69.48,72.27" style="stroke:#181818;stroke-width:1;"/></g></g></svg>
