<svg xmlns="http://www.w3.org/2000/svg" xmlns:xlink="http://www.w3.org/1999/xlink" contentStyleType="text/css" data-diagram-type="CLASS" height="203px" preserveAspectRatio="none" style="width:208px;height:203px;background:#FFFFFF;" version="1.1" viewBox="0 0 208 203" width="208px" zoomAndPan="magnify"><defs/><g><!--class VARIABLE_DECLARATION--><g class="entity" data-entity="VARIABLE_DECLARATION" data-source-line="2" data-uid="ent0002" id="entity_VARIABLE_DECLARATION"><rect fill="#F1F1F1" height="81.5999" rx="2.5" ry="2.5" style="stroke:#181818;stroke-width:0.5;" width="194.7213" x="7" y="115"/><ellipse cx="22" cy="131" fill="#ADD1B2" rx="11" ry="11" style="stroke:#181818;stroke-width:1;"/><path d="M22,137.4219 C23.1719,137.4219 24.4063,137.1563 25.7813,136.5469 L25.2969,135.0313 C24.2031,135.4531 23.1875,135.6406 22.3281,135.6406 C19.6094,135.6406 17.8906,133.7969 17.8906,130.8906 C17.8906,128.1406 19.4531,126.5469 22.1875,126.5469 C23.1094,126.5469 24.125,126.7344 25.2656,127.1563 L25.8438,125.6406 C24.75,125.0625 23.4531,124.7656 22.2656,124.7656 C18.5,124.7656 15.9219,127.4063 15.9219,131.2188 C15.9219,134.8906 18.4063,137.4219 22,137.4219 Z " fill="#000000"/><text fill="#000000" font-family="sans-serif" font-size="14" lengthAdjust="spacing" textLength="162.7213" x="36" y="136.362">VARIABLE_DECLARATION</text><line style="stroke:#181818;stroke-width:0.5;" x1="8" x2="200.7213" y1="147" y2="147"/><ellipse cx="18" cy="160.9" fill="none" rx="3" ry="3" style="stroke:#038048;stroke-width:1;"/><text fill="#000000" font-family="sans-serif" font-size="14" lengthAdjust="spacing" textLength="100.8836" x="27" y="164.7619">name : String [1]</text><ellipse cx="18" cy="177.6999" fill="none" rx="3" ry="3" style="stroke:#038048;stroke-width:1;"/><text fill="#000000" font-family="sans-serif" font-size="14" lengthAdjust="spacing" textLength="161.6573" x="27" y="181.5619">type : EXPR_TYPE_DEF [1]</text><line style="stroke:#181818;stroke-width:0.5;" x1="8" x2="200.7213" y1="188.5999" y2="188.5999"/></g><!--class STATEMENT--><g class="entity" data-entity="STATEMENT" data-source-line="7" data-uid="ent0003" id="entity_STATEMENT"><rect fill="#F5F5F5" height="48" rx="2.5" ry="2.5" style="stroke:#808080;stroke-width:1;stroke-dasharray:1,3;" width="111.1557" x="48.78" y="7"/><ellipse cx="63.78" cy="23" fill="#A9DCDF" rx="11" ry="11" style="stroke:#181818;stroke-width:1;"/><path d="M58.2956,28.5 L60.3269,28.5 L64.3738,17.1563 L63.4675,17.1563 L67.2956,28.5 L69.4363,28.5 L65.1081,16.1719 L62.8894,16.1719 L58.2956,28.5 Z M60.6238,25 L67.0613,25 L67.0613,23.25 L60.6238,23.25 L60.6238,25 Z " fill="#000000"/><text fill="#808080" font-family="sans-serif" font-size="14" font-style="italic" lengthAdjust="spacing" textLength="79.1557" x="77.78" y="28.362">STATEMENT</text><line style="stroke:#808080;stroke-width:1;stroke-dasharray:1,3;" x1="49.78" x2="158.9357" y1="39" y2="39"/><line style="stroke:#808080;stroke-width:1;stroke-dasharray:1,3;" x1="49.78" x2="158.9357" y1="47" y2="47"/></g><!--reverse link STATEMENT to VARIABLE_DECLARATION--><g class="link" data-entity-1="STATEMENT" data-entity-2="VARIABLE_DECLARATION" data-source-line="10" data-uid="lnk4" id="link_STATEMENT_VARIABLE_DECLARATION"><path codeLine="10" d="M104.36,73.39 C104.36,90.09 104.36,94.98 104.36,114.58" fill="none" id="STATEMENT-backto-VARIABLE_DECLARATION" style="stroke:#181818;stroke-width:1;"/><polygon fill="none" points="104.36,55.39,98.36,73.39,110.36,73.39,104.36,55.39" style="stroke:#181818;stroke-width:1;"/></g></g></svg>
