<svg xmlns="http://www.w3.org/2000/svg" xmlns:xlink="http://www.w3.org/1999/xlink" contentStyleType="text/css" data-diagram-type="CLASS" height="152px" preserveAspectRatio="none" style="width:220px;height:152px;background:#FFFFFF;" version="1.1" viewBox="0 0 220 152" width="220px" zoomAndPan="magnify"><defs/><g><!--class VERSION_TREE_ID--><g class="entity" data-entity="VERSION_TREE_ID" data-source-line="2" data-uid="ent0002" id="entity_VERSION_TREE_ID"><rect fill="#F1F1F1" height="131.9996" rx="2.5" ry="2.5" style="stroke:#181818;stroke-width:0.5;" width="199.0533" x="7" y="7"/><ellipse cx="43.8195" cy="23" fill="#ADD1B2" rx="11" ry="11" style="stroke:#181818;stroke-width:1;"/><path d="M43.8195,29.4219 C44.9914,29.4219 46.2258,29.1563 47.6008,28.5469 L47.1164,27.0313 C46.0226,27.4531 45.007,27.6406 44.1476,27.6406 C41.4289,27.6406 39.7101,25.7969 39.7101,22.8906 C39.7101,20.1406 41.2726,18.5469 44.007,18.5469 C44.9289,18.5469 45.9445,18.7344 47.0851,19.1563 L47.6633,17.6406 C46.5695,17.0625 45.2726,16.7656 44.0851,16.7656 C40.3195,16.7656 37.7414,19.4063 37.7414,23.2188 C37.7414,26.8906 40.2258,29.4219 43.8195,29.4219 Z " fill="#000000"/><text fill="#000000" font-family="sans-serif" font-size="14" lengthAdjust="spacing" textLength="118.5655" x="62.6683" y="28.362">VERSION_TREE_ID</text><line style="stroke:#181818;stroke-width:0.5;" x1="8" x2="205.0533" y1="39" y2="39"/><ellipse cx="18" cy="52.9" fill="none" rx="3" ry="3" style="stroke:#038048;stroke-width:1;"/><text fill="#000000" font-family="sans-serif" font-size="14" lengthAdjust="spacing" textLength="98.9656" x="27" y="56.7619">value : String [1]</text><line style="stroke:#181818;stroke-width:0.5;" x1="8" x2="205.0533" y1="63.7999" y2="63.7999"/><ellipse cx="18" cy="77.6999" fill="#84BE84" rx="3" ry="3" style="stroke:#038048;stroke-width:1;"/><text fill="#000000" font-family="sans-serif" font-size="14" lengthAdjust="spacing" textLength="159.6694" x="27" y="81.5619">trunk_version() : String [1]</text><ellipse cx="18" cy="94.4998" fill="#84BE84" rx="3" ry="3" style="stroke:#038048;stroke-width:1;"/><text fill="#000000" font-family="sans-serif" font-size="14" lengthAdjust="spacing" textLength="147.8394" x="27" y="98.3618">is_branch() : Boolean [1]</text><ellipse cx="18" cy="111.2997" fill="#84BE84" rx="3" ry="3" style="stroke:#038048;stroke-width:1;"/><text fill="#000000" font-family="sans-serif" font-size="14" lengthAdjust="spacing" textLength="173.0533" x="27" y="115.1617">branch_number() : String [1]</text><ellipse cx="18" cy="128.0997" fill="#84BE84" rx="3" ry="3" style="stroke:#038048;stroke-width:1;"/><text fill="#000000" font-family="sans-serif" font-size="14" lengthAdjust="spacing" textLength="169.4554" x="27" y="131.9616">branch_version() : String [1]</text></g></g></svg>
